<svg width="1091" height="416" xmlns="http://www.w3.org/2000/svg" xmlns:xlink="http://www.w3.org/1999/xlink" overflow="hidden"><defs><filter id="fx0" x="-10%" y="-10%" width="120%" height="120%" filterUnits="userSpaceOnUse" primitiveUnits="userSpaceOnUse"><feComponentTransfer color-interpolation-filters="sRGB"><feFuncR type="discrete" tableValues="0 0"/><feFuncG type="discrete" tableValues="0 0"/><feFuncB type="discrete" tableValues="0 0"/><feFuncA type="linear" slope="0.34902" intercept="0"/></feComponentTransfer><feGaussianBlur stdDeviation="1.39983 1.40095"/></filter><filter id="fx1" x="-10%" y="-10%" width="120%" height="120%" filterUnits="userSpaceOnUse" primitiveUnits="userSpaceOnUse"><feComponentTransfer color-interpolation-filters="sRGB"><feFuncR type="discrete" tableValues="0 0"/><feFuncG type="discrete" tableValues="0 0"/><feFuncB type="discrete" tableValues="0 0"/><feFuncA type="linear" slope="0.34902" intercept="0"/></feComponentTransfer><feGaussianBlur stdDeviation="1.39983 1.40095"/></filter><filter id="fx2" x="-10%" y="-10%" width="120%" height="120%" filterUnits="userSpaceOnUse" primitiveUnits="userSpaceOnUse"><feComponentTransfer color-interpolation-filters="sRGB"><feFuncR type="discrete" tableValues="0 0"/><feFuncG type="discrete" tableValues="0 0"/><feFuncB type="discrete" tableValues="0 0"/><feFuncA type="linear" slope="0.34902" intercept="0"/></feComponentTransfer><feGaussianBlur stdDeviation="1.39983 1.40095"/></filter><filter id="fx3" x="-10%" y="-10%" width="120%" height="120%" filterUnits="userSpaceOnUse" primitiveUnits="userSpaceOnUse"><feComponentTransfer color-interpolation-filters="sRGB"><feFuncR type="discrete" tableValues="0 0"/><feFuncG type="discrete" tableValues="0 0"/><feFuncB type="discrete" tableValues="0 0"/><feFuncA type="linear" slope="0.34902" intercept="0"/></feComponentTransfer><feGaussianBlur stdDeviation="1.39983 1.40095"/></filter><filter id="fx4" x="-10%" y="-10%" width="120%" height="120%" filterUnits="userSpaceOnUse" primitiveUnits="userSpaceOnUse"><feComponentTransfer color-interpolation-filters="sRGB"><feFuncR type="discrete" tableValues="0 0"/><feFuncG type="discrete" tableValues="0 0"/><feFuncB type="discrete" tableValues="0 0"/><feFuncA type="linear" slope="0.380392" intercept="0"/></feComponentTransfer><feGaussianBlur stdDeviation="1.39983 1.40095"/></filter><filter id="fx5" x="-10%" y="-10%" width="120%" height="120%" filterUnits="userSpaceOnUse" primitiveUnits="userSpaceOnUse"><feComponentTransfer color-interpolation-filters="sRGB"><feFuncR type="discrete" tableValues="0 0"/><feFuncG type="discrete" tableValues="0 0"/><feFuncB type="discrete" tableValues="0 0"/><feFuncA type="linear" slope="0.380392" intercept="0"/></feComponentTransfer><feGaussianBlur stdDeviation="1.39983 1.40095"/></filter><filter id="fx6" x="-10%" y="-10%" width="120%" height="120%" filterUnits="userSpaceOnUse" primitiveUnits="userSpaceOnUse"><feComponentTransfer color-interpolation-filters="sRGB"><feFuncR type="discrete" tableValues="0 0"/><feFuncG type="discrete" tableValues="0 0"/><feFuncB type="discrete" tableValues="0 0"/><feFuncA type="linear" slope="0.380392" intercept="0"/></feComponentTransfer><feGaussianBlur stdDeviation="1.39983 1.40095"/></filter><filter id="fx7" x="-10%" y="-10%" width="120%" height="120%" filterUnits="userSpaceOnUse" primitiveUnits="userSpaceOnUse"><feComponentTransfer color-interpolation-filters="sRGB"><feFuncR type="discrete" tableValues="0 0"/><feFuncG type="discrete" tableValues="0 0"/><feFuncB type="discrete" tableValues="0 0"/><feFuncA type="linear" slope="0.380392" intercept="0"/></feComponentTransfer><feGaussianBlur stdDeviation="1.39983 1.40095"/></filter><filter id="fx8" x="-10%" y="-10%" width="120%" height="120%" filterUnits="userSpaceOnUse" primitiveUnits="userSpaceOnUse"><feComponentTransfer color-interpolation-filters="sRGB"><feFuncR type="discrete" tableValues="0 0"/><feFuncG type="discrete" tableValues="0 0"/><feFuncB type="discrete" tableValues="0 0"/><feFuncA type="linear" slope="0.380392" intercept="0"/></feComponentTransfer><feGaussianBlur stdDeviation="1.39983 1.40095"/></filter><filter id="fx9" x="-10%" y="-10%" width="120%" height="120%" filterUnits="userSpaceOnUse" primitiveUnits="userSpaceOnUse"><feComponentTransfer color-interpolation-filters="sRGB"><feFuncR type="discrete" tableValues="0 0"/><feFuncG type="discrete" tableValues="0 0"/><feFuncB type="discrete" tableValues="0 0"/><feFuncA type="linear" slope="0.380392" intercept="0"/></feComponentTransfer><feGaussianBlur stdDeviation="1.39983 1.40095"/></filter><filter id="fx10" x="-10%" y="-10%" width="120%" height="120%" filterUnits="userSpaceOnUse" primitiveUnits="userSpaceOnUse"><feComponentTransfer color-interpolation-filters="sRGB"><feFuncR type="discrete" tableValues="0 0"/><feFuncG type="discrete" tableValues="0 0"/><feFuncB type="discrete" tableValues="0 0"/><feFuncA type="linear" slope="0.34902" intercept="0"/></feComponentTransfer><feGaussianBlur stdDeviation="1.39983 1.40095"/></filter><filter id="fx11" x="-10%" y="-10%" width="120%" height="120%" filterUnits="userSpaceOnUse" primitiveUnits="userSpaceOnUse"><feComponentTransfer color-interpolation-filters="sRGB"><feFuncR type="discrete" tableValues="0 0"/><feFuncG type="discrete" tableValues="0 0"/><feFuncB type="discrete" tableValues="0 0"/><feFuncA type="linear" slope="0.34902" intercept="0"/></feComponentTransfer><feGaussianBlur stdDeviation="1.39983 1.40095"/></filter><filter id="fx12" x="-10%" y="-10%" width="120%" height="120%" filterUnits="userSpaceOnUse" primitiveUnits="userSpaceOnUse"><feComponentTransfer color-interpolation-filters="sRGB"><feFuncR type="discrete" tableValues="0 0"/><feFuncG type="discrete" tableValues="0 0"/><feFuncB type="discrete" tableValues="0 0"/><feFuncA type="linear" slope="0.380392" intercept="0"/></feComponentTransfer><feGaussianBlur stdDeviation="1.39983 1.40095"/></filter><filter id="fx13" x="-10%" y="-10%" width="120%" height="120%" filterUnits="userSpaceOnUse" primitiveUnits="userSpaceOnUse"><feComponentTransfer color-interpolation-filters="sRGB"><feFuncR type="discrete" tableValues="0 0"/><feFuncG type="discrete" tableValues="0 0"/><feFuncB type="discrete" tableValues="0 0"/><feFuncA type="linear" slope="0.380392" intercept="0"/></feComponentTransfer><feGaussianBlur stdDeviation="1.39983 1.40095"/></filter><filter id="fx14" x="-10%" y="-10%" width="120%" height="120%" filterUnits="userSpaceOnUse" primitiveUnits="userSpaceOnUse"><feComponentTransfer color-interpolation-filters="sRGB"><feFuncR type="discrete" tableValues="0 0"/><feFuncG type="discrete" tableValues="0 0"/><feFuncB type="discrete" tableValues="0 0"/><feFuncA type="linear" slope="0.380392" intercept="0"/></feComponentTransfer><feGaussianBlur stdDeviation="1.39983 1.40095"/></filter><filter id="fx15" x="-10%" y="-10%" width="120%" height="120%" filterUnits="userSpaceOnUse" primitiveUnits="userSpaceOnUse"><feComponentTransfer color-interpolation-filters="sRGB"><feFuncR type="discrete" tableValues="0 0"/><feFuncG type="discrete" tableValues="0 0"/><feFuncB type="discrete" tableValues="0 0"/><feFuncA type="linear" slope="0.380392" intercept="0"/></feComponentTransfer><feGaussianBlur stdDeviation="1.39983 1.40095"/></filter><filter id="fx16" x="-10%" y="-10%" width="120%" height="120%" filterUnits="userSpaceOnUse" primitiveUnits="userSpaceOnUse"><feComponentTransfer color-interpolation-filters="sRGB"><feFuncR type="discrete" tableValues="0 0"/><feFuncG type="discrete" tableValues="0 0"/><feFuncB type="discrete" tableValues="0 0"/><feFuncA type="linear" slope="0.380392" intercept="0"/></feComponentTransfer><feGaussianBlur stdDeviation="1.39983 1.40095"/></filter><filter id="fx17" x="-10%" y="-10%" width="120%" height="120%" filterUnits="userSpaceOnUse" primitiveUnits="userSpaceOnUse"><feComponentTransfer color-interpolation-filters="sRGB"><feFuncR type="discrete" tableValues="0 0"/><feFuncG type="discrete" tableValues="0 0"/><feFuncB type="discrete" tableValues="0 0"/><feFuncA type="linear" slope="0.380392" intercept="0"/></feComponentTransfer><feGaussianBlur stdDeviation="1.39983 1.40095"/></filter><filter id="fx18" x="-10%" y="-10%" width="120%" height="120%" filterUnits="userSpaceOnUse" primitiveUnits="userSpaceOnUse"><feComponentTransfer color-interpolation-filters="sRGB"><feFuncR type="discrete" tableValues="0 0"/><feFuncG type="discrete" tableValues="0 0"/><feFuncB type="discrete" tableValues="0 0"/><feFuncA type="linear" slope="0.380392" intercept="0"/></feComponentTransfer><feGaussianBlur stdDeviation="1.39983 1.40095"/></filter><filter id="fx19" x="-10%" y="-10%" width="120%" height="120%" filterUnits="userSpaceOnUse" primitiveUnits="userSpaceOnUse"><feComponentTransfer color-interpolation-filters="sRGB"><feFuncR type="discrete" tableValues="0 0"/><feFuncG type="discrete" tableValues="0 0"/><feFuncB type="discrete" tableValues="0 0"/><feFuncA type="linear" slope="0.380392" intercept="0"/></feComponentTransfer><feGaussianBlur stdDeviation="1.39983 1.40095"/></filter><filter id="fx20" x="-10%" y="-10%" width="120%" height="120%" filterUnits="userSpaceOnUse" primitiveUnits="userSpaceOnUse"><feComponentTransfer color-interpolation-filters="sRGB"><feFuncR type="discrete" tableValues="0 0"/><feFuncG type="discrete" tableValues="0 0"/><feFuncB type="discrete" tableValues="0 0"/><feFuncA type="linear" slope="0.380392" intercept="0"/></feComponentTransfer><feGaussianBlur stdDeviation="1.39983 1.40095"/></filter><filter id="fx21" x="-10%" y="-10%" width="120%" height="120%" filterUnits="userSpaceOnUse" primitiveUnits="userSpaceOnUse"><feComponentTransfer color-interpolation-filters="sRGB"><feFuncR type="discrete" tableValues="0 0"/><feFuncG type="discrete" tableValues="0 0"/><feFuncB type="discrete" tableValues="0 0"/><feFuncA type="linear" slope="0.380392" intercept="0"/></feComponentTransfer><feGaussianBlur stdDeviation="1.39983 1.40095"/></filter><filter id="fx22" x="-10%" y="-10%" width="120%" height="120%" filterUnits="userSpaceOnUse" primitiveUnits="userSpaceOnUse"><feComponentTransfer color-interpolation-filters="sRGB"><feFuncR type="discrete" tableValues="0 0"/><feFuncG type="discrete" tableValues="0 0"/><feFuncB type="discrete" tableValues="0 0"/><feFuncA type="linear" slope="0.380392" intercept="0"/></feComponentTransfer><feGaussianBlur stdDeviation="1.39983 1.40095"/></filter><filter id="fx23" x="-10%" y="-10%" width="120%" height="120%" filterUnits="userSpaceOnUse" primitiveUnits="userSpaceOnUse"><feComponentTransfer color-interpolation-filters="sRGB"><feFuncR type="discrete" tableValues="0 0"/><feFuncG type="discrete" tableValues="0 0"/><feFuncB type="discrete" tableValues="0 0"/><feFuncA type="linear" slope="0.380392" intercept="0"/></feComponentTransfer><feGaussianBlur stdDeviation="1.39983 1.40095"/></filter><filter id="fx24" x="-10%" y="-10%" width="120%" height="120%" filterUnits="userSpaceOnUse" primitiveUnits="userSpaceOnUse"><feComponentTransfer color-interpolation-filters="sRGB"><feFuncR type="discrete" tableValues="0 0"/><feFuncG type="discrete" tableValues="0 0"/><feFuncB type="discrete" tableValues="0 0"/><feFuncA type="linear" slope="0.380392" intercept="0"/></feComponentTransfer><feGaussianBlur stdDeviation="1.39983 1.40095"/></filter><clipPath id="clip25"><rect x="0" y="0" width="1091" height="416"/></clipPath><clipPath id="clip26"><path d="M41.667 181.646C35.4997 181.646 30.5001 186.649 30.5001 192.821L30.5001 237.523C30.5001 243.696 35.4997 248.699 41.667 248.699L156.333 248.699C162.5 248.699 167.5 243.696 167.5 237.523L167.5 192.821C167.5 186.649 162.5 181.646 156.333 181.646ZM1.62572e-05 6.19888e-06 1091 6.19888e-06 1091 416 1.62572e-05 416Z" fill-rule="evenodd" clip-rule="evenodd"/></clipPath><clipPath id="clip27"><rect x="1" y="-1" width="149" height="81"/></clipPath><clipPath id="clip28"><rect x="0" y="0" width="150" height="80"/></clipPath><clipPath id="clip29"><rect x="13" y="9" width="109" height="31"/></clipPath><clipPath id="clip30"><rect x="0" y="0" width="135" height="51"/></clipPath><linearGradient x1="99.0001" y1="248.699" x2="99.0001" y2="181.646" gradientUnits="userSpaceOnUse" spreadMethod="reflect" id="fill31"><stop offset="0" stop-color="#2C5D98"/><stop offset="0.8" stop-color="#3C7BC7"/><stop offset="1" stop-color="#3A7CCB"/></linearGradient><clipPath id="clip32"><path d="M913.667 89.5718C907.5 89.5718 902.5 94.5754 902.5 100.748L902.5 145.45C902.5 151.622 907.5 156.626 913.667 156.626L1028.33 156.626C1034.5 156.626 1039.5 151.622 1039.5 145.45L1039.5 100.748C1039.5 94.5754 1034.5 89.5718 1028.33 89.5718ZM1.62572e-05 6.19888e-06 1091 6.19888e-06 1091 416 1.62572e-05 416Z" fill-rule="evenodd" clip-rule="evenodd"/></clipPath><clipPath id="clip33"><rect x="1" y="1" width="149" height="79"/></clipPath><clipPath id="clip34"><rect x="0" y="0" width="150" height="81"/></clipPath><clipPath id="clip35"><rect x="13" y="9" width="111" height="27"/></clipPath><clipPath id="clip36"><rect x="0" y="0" width="135" height="50"/></clipPath><linearGradient x1="971" y1="156.626" x2="971" y2="89.5718" gradientUnits="userSpaceOnUse" spreadMethod="reflect" id="fill37"><stop offset="0" stop-color="#769535"/><stop offset="0.8" stop-color="#9BC348"/><stop offset="1" stop-color="#9CC746"/></linearGradient><clipPath id="clip38"><path d="M615.25 84.5676C609.865 84.5676 605.5 102.043 605.5 123.599 605.5 145.155 609.865 162.63 615.25 162.63L801.75 162.631C807.135 162.631 811.5 145.156 811.5 123.599 811.5 102.043 807.135 84.5678 801.75 84.5678ZM1.62572e-05 6.19888e-06 1091 6.19888e-06 1091 416 1.62572e-05 416Z" fill-rule="evenodd" clip-rule="evenodd"/></clipPath><clipPath id="clip39"><rect x="1" y="1" width="219" height="91"/></clipPath><clipPath id="clip40"><rect x="0" y="0" width="219" height="91"/></clipPath><clipPath id="clip41"><rect x="11" y="9" width="77" height="31"/></clipPath><clipPath id="clip42"><rect x="0" y="0" width="101" height="51"/></clipPath><linearGradient x1="811.5" y1="123.599" x2="605.5" y2="123.599" gradientUnits="userSpaceOnUse" spreadMethod="reflect" id="fill43"><stop offset="0" stop-color="#FFA2A1"/><stop offset="0.35" stop-color="#FFBEBD"/><stop offset="1" stop-color="#FFE5E5"/></linearGradient><linearGradient x1="811.5" y1="123.599" x2="605.5" y2="123.599" gradientUnits="userSpaceOnUse" spreadMethod="reflect" id="fill44"><stop offset="0" stop-color="#FFC7C7"/><stop offset="0.35" stop-color="#FFD8D7"/><stop offset="1" stop-color="#FFEFEF"/></linearGradient><clipPath id="clip45"><rect x="1" y="3" width="111" height="21"/></clipPath><clipPath id="clip46"><rect x="0" y="0" width="120" height="28"/></clipPath><clipPath id="clip47"><rect x="-1" y="3" width="103" height="21"/></clipPath><clipPath id="clip48"><rect x="0" y="0" width="110" height="28"/></clipPath><clipPath id="clip49"><path d="M346 186.65C302.093 186.65 266.5 190.981 266.5 196.324L266.5 235.022C266.5 240.365 302.093 244.696 346 244.696 389.907 244.696 425.5 240.365 425.5 235.022L425.5 196.324C425.5 190.981 389.907 186.65 346 186.65ZM1.62572e-05 6.19888e-06 1091 6.19888e-06 1091 416 1.62572e-05 416Z" fill-rule="evenodd" clip-rule="evenodd"/></clipPath><clipPath id="clip50"><rect x="1" y="1" width="171" height="71"/></clipPath><clipPath id="clip51"><rect x="0" y="0" width="172" height="71"/></clipPath><clipPath id="clip52"><rect x="13" y="9" width="99" height="31"/></clipPath><clipPath id="clip53"><rect x="0" y="0" width="124" height="50"/></clipPath><linearGradient x1="346" y1="244.696" x2="346" y2="186.65" gradientUnits="userSpaceOnUse" spreadMethod="reflect" id="fill54"><stop offset="0" stop-color="#C9B5E8"/><stop offset="0.35" stop-color="#D9CBEE"/><stop offset="1" stop-color="#F0EAF9"/></linearGradient><clipPath id="clip55"><path d="M913.667 266.714C907.5 266.714 902.5 271.717 902.5 277.89L902.5 322.592C902.5 328.764 907.5 333.767 913.667 333.767L1028.33 333.767C1034.5 333.767 1039.5 328.764 1039.5 322.592L1039.5 277.89C1039.5 271.717 1034.5 266.714 1028.33 266.714ZM1.62572e-05 6.19888e-06 1091 6.19888e-06 1091 416 1.62572e-05 416Z" fill-rule="evenodd" clip-rule="evenodd"/></clipPath><clipPath id="clip56"><rect x="1" y="-1" width="149" height="81"/></clipPath><clipPath id="clip57"><rect x="0" y="0" width="150" height="80"/></clipPath><clipPath id="clip58"><rect x="13" y="9" width="109" height="27"/></clipPath><clipPath id="clip59"><rect x="0" y="0" width="135" height="50"/></clipPath><linearGradient x1="971" y1="333.768" x2="971" y2="266.714" gradientUnits="userSpaceOnUse" spreadMethod="reflect" id="fill60"><stop offset="0" stop-color="#769535"/><stop offset="0.8" stop-color="#9BC348"/><stop offset="1" stop-color="#9CC746"/></linearGradient><clipPath id="clip61"><path d="M615.373 260.725C609.92 260.725 605.5 278.42 605.5 300.248 605.5 322.077 609.92 339.772 615.373 339.772L801.627 339.772C807.08 339.772 811.5 322.077 811.5 300.248 811.5 278.42 807.08 260.725 801.627 260.725ZM1.62572e-05 6.19888e-06 1091 6.19888e-06 1091 416 1.62572e-05 416Z" fill-rule="evenodd" clip-rule="evenodd"/></clipPath><clipPath id="clip62"><rect x="1" y="1" width="217" height="91"/></clipPath><clipPath id="clip63"><rect x="0" y="0" width="219" height="92"/></clipPath><clipPath id="clip64"><rect x="11" y="9" width="77" height="31"/></clipPath><clipPath id="clip65"><rect x="0" y="0" width="101" height="51"/></clipPath><linearGradient x1="811.5" y1="300.248" x2="605.5" y2="300.248" gradientUnits="userSpaceOnUse" spreadMethod="reflect" id="fill66"><stop offset="0" stop-color="#FFA2A1"/><stop offset="0.35" stop-color="#FFBEBD"/><stop offset="1" stop-color="#FFE5E5"/></linearGradient><linearGradient x1="811.5" y1="300.248" x2="605.5" y2="300.248" gradientUnits="userSpaceOnUse" spreadMethod="reflect" id="fill67"><stop offset="0" stop-color="#FFC7C7"/><stop offset="0.35" stop-color="#FFD8D7"/><stop offset="1" stop-color="#FFEFEF"/></linearGradient><clipPath id="clip68"><rect x="-1" y="3" width="103" height="21"/></clipPath><clipPath id="clip69"><rect x="0" y="0" width="110" height="28"/></clipPath><clipPath id="clip70"><rect x="-1" y="7" width="193" height="107"/></clipPath><clipPath id="clip71"><rect x="0" y="0" width="200" height="113"/></clipPath><clipPath id="clip72"><rect x="-1" y="-1" width="193" height="99"/></clipPath><clipPath id="clip73"><rect x="0" y="0" width="200" height="105"/></clipPath><clipPath id="clip74"><path d="M476.333 107.586C474.216 107.586 472.5 109.304 472.5 111.423L472.5 126.768C472.5 128.887 474.216 130.605 476.333 130.605L555.667 130.605C557.784 130.605 559.5 128.887 559.5 126.768L559.5 111.423C559.5 109.304 557.784 107.586 555.667 107.586ZM1.62572e-05 6.19888e-06 1091 6.19888e-06 1091 416 1.62572e-05 416Z" fill-rule="evenodd" clip-rule="evenodd"/></clipPath><clipPath id="clip75"><rect x="1" y="1" width="99" height="35"/></clipPath><clipPath id="clip76"><rect x="0" y="0" width="100" height="36"/></clipPath><clipPath id="clip77"><rect x="9" y="7" width="75" height="25"/></clipPath><clipPath id="clip78"><rect x="0" y="0" width="92" height="40"/></clipPath><linearGradient x1="516" y1="130.605" x2="516" y2="107.586" gradientUnits="userSpaceOnUse" spreadMethod="reflect" id="fill79"><stop offset="0" stop-color="#A3C4FF"/><stop offset="0.35" stop-color="#BFD5FF"/><stop offset="1" stop-color="#E5EEFF"/></linearGradient><clipPath id="clip80"><path d="M476.167 304.744C474.142 304.744 472.5 306.387 472.5 308.414L472.5 323.092C472.5 325.119 474.142 326.762 476.167 326.762L572.833 326.762C574.858 326.762 576.5 325.119 576.5 323.092L576.5 308.414C576.5 306.387 574.858 304.744 572.833 304.744ZM1.62572e-05 6.19888e-06 1091 6.19888e-06 1091 416 1.62572e-05 416Z" fill-rule="evenodd" clip-rule="evenodd"/></clipPath><clipPath id="clip81"><rect x="1" y="1" width="117" height="35"/></clipPath><clipPath id="clip82"><rect x="0" y="0" width="117" height="35"/></clipPath><clipPath id="clip83"><rect x="9" y="7" width="91" height="25"/></clipPath><clipPath id="clip84"><rect x="0" y="0" width="108" height="40"/></clipPath><linearGradient x1="524.5" y1="326.762" x2="524.5" y2="304.744" gradientUnits="userSpaceOnUse" spreadMethod="reflect" id="fill85"><stop offset="0" stop-color="#FFBE86"/><stop offset="0.35" stop-color="#FFD0AA"/><stop offset="1" stop-color="#FFEBDB"/></linearGradient><clipPath id="clip86"><path d="M411.167 147.618C409.142 147.618 407.5 149.261 407.5 151.288L407.5 165.966C407.5 167.993 409.142 169.636 411.167 169.636L490.833 169.636C492.858 169.636 494.5 167.993 494.5 165.966L494.5 151.288C494.5 149.261 492.858 147.618 490.833 147.618ZM1.62572e-05 6.19888e-06 1091 6.19888e-06 1091 416 1.62572e-05 416Z" fill-rule="evenodd" clip-rule="evenodd"/></clipPath><clipPath id="clip87"><rect x="1" y="1" width="99" height="35"/></clipPath><clipPath id="clip88"><rect x="0" y="0" width="100" height="35"/></clipPath><clipPath id="clip89"><rect x="9" y="7" width="67" height="25"/></clipPath><clipPath id="clip90"><rect x="0" y="0" width="84" height="40"/></clipPath><linearGradient x1="451" y1="169.636" x2="451" y2="147.618" gradientUnits="userSpaceOnUse" spreadMethod="reflect" id="fill91"><stop offset="0" stop-color="#FFA2A1"/><stop offset="0.35" stop-color="#FFBEBD"/><stop offset="1" stop-color="#FFE5E5"/></linearGradient><clipPath id="clip92"><path d="M411.167 262.711C409.142 262.711 407.5 264.354 407.5 266.38L407.5 281.058C407.5 283.085 409.142 284.728 411.167 284.728L490.833 284.728C492.858 284.728 494.5 283.085 494.5 281.058L494.5 266.38C494.5 264.354 492.858 262.711 490.833 262.711ZM1.62572e-05 6.19888e-06 1091 6.19888e-06 1091 416 1.62572e-05 416Z" fill-rule="evenodd" clip-rule="evenodd"/></clipPath><clipPath id="clip93"><rect x="1" y="1" width="99" height="35"/></clipPath><clipPath id="clip94"><rect x="0" y="0" width="100" height="35"/></clipPath><clipPath id="clip95"><rect x="9" y="7" width="67" height="25"/></clipPath><clipPath id="clip96"><rect x="0" y="0" width="84" height="40"/></clipPath><linearGradient x1="451" y1="284.728" x2="451" y2="262.711" gradientUnits="userSpaceOnUse" spreadMethod="reflect" id="fill97"><stop offset="0" stop-color="#FFA2A1"/><stop offset="0.35" stop-color="#FFBEBD"/><stop offset="1" stop-color="#FFE5E5"/></linearGradient></defs><g clip-path="url(#clip25)"><rect x="0" y="0" width="1091" height="416.334" fill="#FFFFFF"/><g clip-path="url(#clip26)"><g clip-path="url(#clip27)" filter="url(#fx0)" transform="translate(24 178)"><g clip-path="url(#clip28)"><path d="M6.50005 17.2381C6.50005 11.0658 11.4996 6.06224 17.667 6.06224L132.333 6.06224C138.5 6.06224 143.5 11.0658 143.5 17.2381L143.5 61.9401C143.5 68.1124 138.5 73.116 132.333 73.116L17.667 73.116C11.4996 73.116 6.50005 68.1124 6.50005 61.9401Z" stroke="#4A7EBB" stroke-linejoin="round" stroke-miterlimit="10" fill="#FF0000" fill-rule="evenodd"/></g></g><g clip-path="url(#clip29)" filter="url(#fx1)" transform="translate(31 194)"><g clip-path="url(#clip30)"><path d="M3.03369-8.03418C3.479-8.75163 4.03255-9.35156 4.69434-9.83398 5.44889-10.3783 6.20654-10.6504 6.96729-10.6504 8.09294-10.6504 8.96191-10.1525 9.57422-9.15674 10.0876-8.32178 10.3442-7.31055 10.3442-6.12305 10.3442-5.02214 10.1401-4.00781 9.73193-3.08008 9.29281-2.07194 8.65267-1.271 7.81152-0.677246 7.0446-0.12679 6.09521 0.148438 4.96338 0.148438 4.62321 0.148438 4.12842 0.114421 3.479 0.0463867 3.3986 0.0402018 3.25016 0.0247396 3.03369 0L3.03369 4.02637 1.30811 4.02637 1.30811-10.3628 3.03369-10.3628ZM3.03369-5.98389 3.03369-1.54004C3.65837-1.37923 4.23356-1.29883 4.75928-1.29883 5.95296-1.29883 6.88997-1.78125 7.57031-2.74609 8.17025-3.59961 8.47021-4.64795 8.47021-5.89111 8.47021-6.64567 8.34033-7.30745 8.08057-7.87646 7.73421-8.62484 7.22705-8.99902 6.55908-8.99902 5.90967-8.99902 5.22005-8.63721 4.49023-7.91357 3.93978-7.3693 3.45426-6.72607 3.03369-5.98389ZM21.1398-10.3628 21.1398 0 19.4142 0 19.4142-2.27295C18.3009-0.565918 17.0021 0.287598 15.5177 0.287598 14.924 0.287598 14.3797 0.132975 13.8849-0.17627 13.3654-0.504069 13.0036-0.940104 12.7995-1.48438 12.6016-2.01009 12.5026-3.03988 12.5026-4.57373L12.5026-10.3628 14.2282-10.3628 14.2282-4.36035C14.2282-3.57487 14.2437-3.08317 14.2746-2.88525 14.355-2.29769 14.5653-1.87093 14.9054-1.60498 15.159-1.40088 15.4342-1.29883 15.7311-1.29883 16.43-1.29883 17.1536-1.64827 17.902-2.34717 18.5205-2.91618 19.0246-3.57487 19.4142-4.32324L19.4142-10.3628ZM25.367-8.03418C25.8123-8.75163 26.3659-9.35156 27.0277-9.83398 27.7822-10.3783 28.5399-10.6504 29.3006-10.6504 30.4263-10.6504 31.2952-10.1525 31.9076-9.15674 32.4209-8.32178 32.6776-7.31055 32.6776-6.12305 32.6776-5.02214 32.4735-4.00781 32.0653-3.08008 31.6261-2.07194 30.986-1.271 30.1449-0.677246 29.3779-0.12679 28.4285 0.148438 27.2967 0.148438 26.9565 0.148438 26.4618 0.114421 25.8123 0.0463867 25.7319 0.0402018 25.5835 0.0247396 25.367 0L23.6414 0 23.6414-14.9736 25.367-14.9736ZM25.367-5.98389 25.367-1.54004C25.9917-1.37923 26.5669-1.29883 27.0926-1.29883 28.2863-1.29883 29.2233-1.78125 29.9036-2.74609 30.5036-3.59961 30.8035-4.64795 30.8035-5.89111 30.8035-6.64567 30.6737-7.30745 30.4139-7.87646 30.0675-8.62484 29.5604-8.99902 28.8924-8.99902 28.243-8.99902 27.5534-8.63721 26.8236-7.91357 26.2731-7.3693 25.7876-6.72607 25.367-5.98389ZM37.7305 0 37.7305-13.5264 34.6318-13.5264 34.6318-14.9736 39.4561-14.9736 39.4561-1.44727 42.6938-1.44727 42.6938 0ZM49.0177 0 49.0177-8.91553 46.1418-8.91553 46.1418-10.3628 50.7433-10.3628 50.7433-1.44727 53.6286-1.44727 53.6286 0ZM48.7301-14.1016C48.7301-14.4232 48.8415-14.6969 49.0641-14.9226 49.2868-15.1484 49.5589-15.2612 49.8805-15.2612 50.2021-15.2612 50.4758-15.1484 50.7016-14.9226 50.9273-14.6969 51.0402-14.4232 51.0402-14.1016 51.0402-13.7861 50.9273-13.5155 50.7016-13.2898 50.4758-13.064 50.2021-12.9512 49.8805-12.9512 49.5651-12.9512 49.2945-13.064 49.0688-13.2898 48.843-13.5155 48.7301-13.7861 48.7301-14.1016ZM57.3919-0.547363 57.3919-2.375C58.6475-1.56478 60.036-1.15967 61.5575-1.15967 63.1965-1.15967 64.016-1.65088 64.016-2.63332 64.016-3.01021 63.8304-3.32535 63.4593-3.57874 63.2861-3.69615 62.9367-3.86295 62.411-4.07913L61.8172-4.3202 60.6204-4.79291C59.637-5.18217 58.966-5.51891 58.6073-5.80312 57.9888-6.29125 57.6795-6.93076 57.6795-7.72165 57.6795-8.79057 58.1372-9.57219 59.0526-10.0665 59.7638-10.4558 60.7039-10.6504 61.8729-10.6504 62.98-10.6504 64.0283-10.4896 65.0179-10.168L65.0179-8.6001C63.8799-9.00212 62.8099-9.20312 61.8079-9.20312 61.2513-9.20312 60.7627-9.11663 60.3421-8.94365 59.7669-8.70263 59.4793-8.34115 59.4793-7.85921 59.4793-7.44521 59.7669-7.08064 60.3421-6.7655 60.5462-6.65437 61.0132-6.46592 61.743-6.20016L62.9119-5.77384C63.8211-5.44024 64.486-5.09732 64.9066-4.74507 65.5127-4.23221 65.8158-3.58033 65.8158-2.78944 65.8158-1.67731 65.3457-0.858637 64.4056-0.333405 63.6634 0.0805969 62.6862 0.287598 61.474 0.287598 60.1504 0.287598 58.7897 0.00927733 57.3919-0.547363ZM68.438 0 68.438-14.9736 70.1636-14.9736 70.1636-8.09912C70.6151-8.82275 71.1593-9.41341 71.7964-9.87109 72.5324-10.3906 73.2839-10.6504 74.0508-10.6504 74.595-10.6504 75.1053-10.5174 75.5815-10.2515 76.0949-9.96077 76.4598-9.5804 76.6763-9.11035 76.8804-8.66504 77.0072-8.12077 77.0566-7.47754 77.069-7.26725 77.0752-6.70443 77.0752-5.78906L77.0752 0 75.3496 0 75.3496-6.00244C75.3496-6.78792 75.3341-7.27962 75.3032-7.47754 75.2228-8.0651 75.0156-8.49186 74.6816-8.75781 74.4219-8.96191 74.1405-9.06396 73.8374-9.06396 73.1447-9.06396 72.4211-8.71452 71.6665-8.01562 71.0542-7.44661 70.5532-6.78792 70.1636-6.03955L70.1636 0ZM88.2233-0.686523C86.8441-0.0309245 85.5391 0.296875 84.3083 0.296875 82.3786 0.296875 80.956-0.599935 80.0407-2.39355 79.5954-3.25326 79.3727-4.1748 79.3727-5.1582 79.3727-6.10449 79.5768-7.0013 79.985-7.84863 80.4118-8.73926 81.004-9.42887 81.7616-9.91748 82.5193-10.4061 83.362-10.6504 84.2897-10.6504 85.737-10.6504 86.8101-10.0907 87.5089-8.97119 88.0841-8.04964 88.3717-6.81575 88.3717-5.26953L88.3717-4.89844 81.2282-4.89844C81.2282-4.23047 81.3612-3.60889 81.6271-3.03369 81.9178-2.39665 82.3291-1.91732 82.861-1.5957 83.3496-1.29883 83.9062-1.15039 84.5309-1.15039 85.6442-1.15039 86.875-1.52148 88.2233-2.26367ZM81.3302-6.18799 86.4977-6.18799 86.4977-6.43775C86.4977-7.21463 86.3153-7.85279 85.9504-8.35222 85.5421-8.91949 84.9639-9.20312 84.2155-9.20312 82.7064-9.20312 81.7446-8.19808 81.3302-6.18799ZM91.6527 0 91.6527-10.3628 93.3783-10.3628 93.3783-8.09912C94.4482-9.79997 95.8398-10.6504 97.5531-10.6504 98.1777-10.6504 98.8024-10.5545 99.4271-10.3628L99.4271-6.62402 97.7664-6.62402 97.7664-8.98975C97.4757-9.03922 97.2469-9.06396 97.0799-9.06396 95.7873-9.06396 94.5534-8.04964 93.3783-6.021L93.3783 0Z" fill="#FFFFFF" transform="matrix(1 0 0 1.0008 17.438 30)"/></g></g></g><path d="M30.5001 192.821C30.5001 186.649 35.4996 181.646 41.667 181.646L156.333 181.646C162.5 181.646 167.5 186.649 167.5 192.821L167.5 237.523C167.5 243.696 162.5 248.699 156.333 248.699L41.667 248.699C35.4996 248.699 30.5001 243.696 30.5001 237.523Z" stroke="#4A7EBB" stroke-linejoin="round" stroke-miterlimit="10" fill="url(#fill31)" fill-rule="evenodd"/><text fill="#FFFFFF" font-family="Monaco,Monaco_MSFontService,sans-serif" font-weight="400" font-size="19" transform="matrix(1 0 0 1.0008 48.438 221)">publisher</text><g clip-path="url(#clip32)"><g clip-path="url(#clip33)" filter="url(#fx2)" transform="translate(896 85)"><g clip-path="url(#clip34)"><path d="M6.50006 18.1643C6.50006 11.9921 11.4997 6.98846 17.667 6.98846L132.333 6.98846C138.5 6.98846 143.5 11.9921 143.5 18.1643L143.5 62.8663C143.5 69.0386 138.5 74.0422 132.333 74.0422L17.667 74.0422C11.4997 74.0422 6.50006 69.0386 6.50006 62.8663Z" stroke="#98B954" stroke-linejoin="round" stroke-miterlimit="10" fill="#FF0000" fill-rule="evenodd"/></g></g><g clip-path="url(#clip35)" filter="url(#fx3)" transform="translate(903 103)"><g clip-path="url(#clip36)"><path d="M10.1587-0.296875C9.00212 0.0927734 7.9012 0.287598 6.85596 0.287598 5.86019 0.287598 4.95719 0.061849 4.14697-0.389648 3.3182-0.859701 2.66878-1.52458 2.19873-2.38428 1.74723-3.20068 1.52148-4.13151 1.52148-5.17676 1.52148-6.69824 2.01318-7.9847 2.99658-9.03613 3.99854-10.1123 5.25407-10.6504 6.76318-10.6504 7.83317-10.6504 8.96501-10.4494 10.1587-10.0474L10.1587-8.38672C8.95264-8.93099 7.87337-9.20312 6.9209-9.20312 5.46126-9.20312 4.43766-8.56067 3.8501-7.27576 3.54704-6.61475 3.39551-5.93518 3.39551-5.23706 3.39551-4.11276 3.71712-3.18614 4.36035-2.45719 5.02832-1.68495 5.91585-1.29883 7.02295-1.29883 7.8208-1.29883 8.86605-1.51839 10.1587-1.95752ZM16.8722 0.287598C15.3507 0.287598 14.1385-0.253581 13.2355-1.33594 12.3944-2.35026 11.9738-3.63363 11.9738-5.18604 11.9738-6.73844 12.3975-8.01872 13.2448-9.02686 14.1416-10.1092 15.3507-10.6504 16.8722-10.6504 18.3875-10.6504 19.5967-10.1092 20.4997-9.02686 21.3408-8.01253 21.7614-6.73226 21.7614-5.18604 21.7614-3.63981 21.3408-2.35645 20.4997-1.33594 19.5967-0.253581 18.3875 0.287598 16.8722 0.287598ZM16.8722-1.15967C17.9113-1.15967 18.6968-1.5916 19.2287-2.45545 19.6678-3.17126 19.8874-4.08145 19.8874-5.18604 19.8874-6.28443 19.6647-7.19154 19.2194-7.90734 18.6875-8.7712 17.9051-9.20312 16.8722-9.20312 15.8332-9.20312 15.0477-8.77424 14.5158-7.91647 14.0705-7.20076 13.8478-6.29062 13.8478-5.18604 13.8478-4.08145 14.0705-3.17126 14.5158-2.45545 15.0477-1.5916 15.8332-1.15967 16.8722-1.15967ZM23.7713 0 23.7713-10.3628 25.4969-10.3628 25.4969-8.09912C25.9484-8.82275 26.4927-9.41341 27.1297-9.87109 27.8657-10.3906 28.6172-10.6504 29.3841-10.6504 29.9841-10.6504 30.5361-10.4927 31.0401-10.1772 31.5442-9.86182 31.8983-9.4366 32.1024-8.90161 32.3065-8.36662 32.4085-7.3291 32.4085-5.78906L32.4085 0 30.6829 0 30.6829-6.00244C30.6829-6.78792 30.6675-7.27962 30.6366-7.47754 30.5562-8.0651 30.349-8.49186 30.015-8.75781 29.7552-8.96191 29.4738-9.06396 29.1707-9.06396 28.478-9.06396 27.7544-8.71452 26.9998-8.01562 26.3875-7.44661 25.8866-6.78792 25.4969-6.03955L25.4969 0ZM35.0586-0.547363 35.0586-2.375C36.3141-1.56478 37.7026-1.15967 39.2241-1.15967 40.8631-1.15967 41.6826-1.65088 41.6826-2.63332 41.6826-3.01021 41.4971-3.32535 41.126-3.57874 40.9528-3.69615 40.6034-3.86295 40.0776-4.07913L39.4839-4.3202 38.2871-4.79291C37.3037-5.18217 36.6326-5.51891 36.2739-5.80312 35.6554-6.29125 35.3462-6.93076 35.3462-7.72165 35.3462-8.79057 35.8039-9.57219 36.7192-10.0665 37.4305-10.4558 38.3706-10.6504 39.5396-10.6504 40.6466-10.6504 41.695-10.4896 42.6846-10.168L42.6846-8.6001C41.5465-9.00212 40.4766-9.20312 39.4746-9.20312 38.918-9.20312 38.4294-9.11663 38.0088-8.94365 37.4336-8.70263 37.146-8.34115 37.146-7.85921 37.146-7.44521 37.4336-7.08064 38.0088-6.7655 38.2129-6.65437 38.6798-6.46592 39.4097-6.20016L40.5786-5.77384C41.4878-5.44024 42.1527-5.09732 42.5732-4.74507 43.1794-4.23221 43.4824-3.58033 43.4824-2.78944 43.4824-1.67731 43.0124-0.858637 42.0723-0.333405 41.3301 0.0805969 40.3529 0.287598 39.1406 0.287598 37.8171 0.287598 36.4564 0.00927733 35.0586-0.547363ZM54.6398-10.3628 54.6398 0 52.9142 0 52.9142-2.27295C51.8009-0.565918 50.5021 0.287598 49.0177 0.287598 48.424 0.287598 47.8797 0.132975 47.3849-0.17627 46.8654-0.504069 46.5036-0.940104 46.2995-1.48438 46.1016-2.01009 46.0026-3.03988 46.0026-4.57373L46.0026-10.3628 47.7282-10.3628 47.7282-4.36035C47.7282-3.57487 47.7437-3.08317 47.7746-2.88525 47.855-2.29769 48.0653-1.87093 48.4054-1.60498 48.659-1.40088 48.9342-1.29883 49.2311-1.29883 49.93-1.29883 50.6536-1.64827 51.402-2.34717 52.0205-2.91618 52.5246-3.57487 52.9142-4.32324L52.9142-10.3628ZM56.492 0 56.492-10.3628 58.0042-10.3628 58.0042-7.98779C58.8472-9.76286 59.7088-10.6504 60.589-10.6504 61.1716-10.6504 61.6086-10.4061 61.9-9.91748 62.1417-9.51546 62.2625-9.00521 62.2625-8.38672L62.2625-7.83008C62.6143-8.93099 63.1574-9.75667 63.8919-10.3071 64.2004-10.536 64.5553-10.6504 64.9564-10.6504 66.0303-10.6504 66.5672-9.71029 66.5672-7.83008L66.5672 0 65.055 0 65.055-7.07861C65.055-8.01253 64.9625-8.57227 64.7776-8.75781 64.6666-8.86914 64.5464-8.9248 64.4171-8.9248 63.6957-8.9248 62.9776-7.86409 62.2625-5.74268L62.2625 0 60.806 0 60.806-7.06934C60.806-8.30631 60.5555-8.9248 60.0545-8.9248 59.436-8.9248 58.7526-7.9445 58.0042-5.98389L58.0042 0ZM77.0566-0.686523C75.6774-0.0309245 74.3724 0.296875 73.1416 0.296875 71.2119 0.296875 69.7894-0.599935 68.874-2.39355 68.4287-3.25326 68.2061-4.1748 68.2061-5.1582 68.2061-6.10449 68.4102-7.0013 68.8184-7.84863 69.2451-8.73926 69.8373-9.42887 70.595-9.91748 71.3526-10.4061 72.1953-10.6504 73.123-10.6504 74.5703-10.6504 75.6434-10.0907 76.3423-8.97119 76.9175-8.04964 77.2051-6.81575 77.2051-5.26953L77.2051-4.89844 70.0615-4.89844C70.0615-4.23047 70.1945-3.60889 70.4604-3.03369 70.7511-2.39665 71.1624-1.91732 71.6943-1.5957 72.1829-1.29883 72.7396-1.15039 73.3643-1.15039 74.4775-1.15039 75.7083-1.52148 77.0566-2.26367ZM70.1636-6.18799 75.3311-6.18799 75.3311-6.43775C75.3311-7.21463 75.1486-7.85279 74.7837-8.35222 74.3755-8.91949 73.7972-9.20312 73.0488-9.20312 71.5397-9.20312 70.578-8.19808 70.1636-6.18799ZM80.486 0 80.486-10.3628 82.2116-10.3628 82.2116-8.09912C83.2816-9.79997 84.6732-10.6504 86.3864-10.6504 87.0111-10.6504 87.6357-10.5545 88.2604-10.3628L88.2604-6.62402 86.5998-6.62402 86.5998-8.98975C86.3091-9.03922 86.0802-9.06396 85.9132-9.06396 84.6206-9.06396 83.3867-8.04964 82.2116-6.021L82.2116 0ZM94.6029-1.44727 94.6029-12.5522C93.5514-11.7173 92.3763-11.0679 91.0775-10.604L91.0775-12.1626C92.432-12.7378 93.6071-13.4831 94.6029-14.3984L96.3284-14.3984 96.3284-1.44727 99.7889-1.44727 99.7889 0 91.0775 0 91.0775-1.44727Z" fill="#FFFFFF" transform="matrix(1 0 0 1.0008 17.3171 29)"/></g></g></g><path d="M902.5 100.748C902.5 94.5754 907.5 89.5718 913.667 89.5718L1028.33 89.5718C1034.5 89.5718 1039.5 94.5754 1039.5 100.748L1039.5 145.45C1039.5 151.622 1034.5 156.626 1028.33 156.626L913.667 156.626C907.5 156.626 902.5 151.622 902.5 145.45Z" stroke="#98B954" stroke-linejoin="round" stroke-miterlimit="10" fill="url(#fill37)" fill-rule="evenodd"/><text fill="#FFFFFF" font-family="Monaco,Monaco_MSFontService,sans-serif" font-weight="400" font-size="19" transform="matrix(1 0 0 1.0008 920.317 130)">consumer1</text><g clip-path="url(#clip38)"><g clip-path="url(#clip39)" filter="url(#fx4)" transform="translate(599 80)"><g clip-path="url(#clip40)"><path d="M16.2501 84.7318C21.635 84.7318 26.0002 67.2568 26.0002 45.7004 26.0002 24.1439 21.635 6.669 16.2501 6.669L202.75 6.66922C208.135 6.66922 212.5 24.1442 212.5 45.7006 212.5 67.2571 208.135 84.732 202.75 84.732Z" fill="#FF0000" fill-rule="evenodd"/><path d="M16.2501 84.7318C10.8653 84.7318 6.50006 67.2568 6.50006 45.7004 6.50006 24.1439 10.8653 6.669 16.2501 6.669 21.635 6.669 26.0002 24.1439 26.0002 45.7004 26.0002 67.2568 21.635 84.7318 16.2501 84.7318Z" fill="#FF0000" fill-rule="evenodd"/><path d="M16.2501 6.66922C21.635 6.66922 26.0002 24.1442 26.0002 45.7006 26.0002 67.2571 21.635 84.732 16.2501 84.732 10.8653 84.732 6.50006 67.2571 6.50006 45.7006 6.50006 24.1442 10.8653 6.66922 16.2501 6.66922L202.75 6.66922C208.135 6.66922 212.5 24.1442 212.5 45.7006 212.5 67.2571 208.135 84.732 202.75 84.732L16.2501 84.7318" stroke="#BE4B48" stroke-width="1.0008" stroke-linejoin="round" stroke-miterlimit="10" fill="none" fill-rule="evenodd"/></g></g><g clip-path="url(#clip41)" filter="url(#fx5)" transform="translate(663 102)"><g clip-path="url(#clip42)"><path d="M8.36816-2.32861C7.92904-1.61117 7.37549-1.01123 6.70752-0.528809 5.95296 0.0154622 5.19531 0.287598 4.43457 0.287598 3.3151 0.287598 2.44922-0.210286 1.83691-1.20605 1.32357-2.04102 1.06689-3.05225 1.06689-4.23975 1.06689-6.67041 1.90804-8.48877 3.59033-9.69482 4.35726-10.2391 5.30664-10.5112 6.43848-10.5112 6.78483-10.5112 7.27962-10.4772 7.92285-10.4092 8.00325-10.403 8.15169-10.3875 8.36816-10.3628L10.103-10.3628 10.103 4.02637 8.36816 4.02637ZM8.36816-4.37891 8.36816-8.82275C7.75586-8.98356 7.18685-9.06396 6.66113-9.06396 5.46126-9.06396 4.52116-8.58463 3.84082-7.62598 3.24089-6.77246 2.94092-5.72103 2.94092-4.47168 2.94092-3.72331 3.0708-3.06152 3.33057-2.48633 3.67074-1.73796 4.1748-1.36377 4.84277-1.36377 5.49219-1.36377 6.1849-1.72559 6.9209-2.44922 7.47135-2.99349 7.95378-3.63672 8.36816-4.37891ZM21.1398-10.3628 21.1398 0 19.4142 0 19.4142-2.27295C18.3009-0.565918 17.0021 0.287598 15.5177 0.287598 14.924 0.287598 14.3797 0.132975 13.8849-0.17627 13.3654-0.504069 13.0036-0.940104 12.7995-1.48438 12.6016-2.01009 12.5026-3.03988 12.5026-4.57373L12.5026-10.3628 14.2282-10.3628 14.2282-4.36035C14.2282-3.57487 14.2437-3.08317 14.2746-2.88525 14.355-2.29769 14.5653-1.87093 14.9054-1.60498 15.159-1.40088 15.4342-1.29883 15.7311-1.29883 16.43-1.29883 17.1536-1.64827 17.902-2.34717 18.5205-2.91618 19.0246-3.57487 19.4142-4.32324L19.4142-10.3628ZM32.39-0.686523C31.0107-0.0309245 29.7057 0.296875 28.4749 0.296875 26.5452 0.296875 25.1227-0.599935 24.2074-2.39355 23.762-3.25326 23.5394-4.1748 23.5394-5.1582 23.5394-6.10449 23.7435-7.0013 24.1517-7.84863 24.5784-8.73926 25.1707-9.42887 25.9283-9.91748 26.686-10.4061 27.5286-10.6504 28.4564-10.6504 29.9036-10.6504 30.9767-10.0907 31.6756-8.97119 32.2508-8.04964 32.5384-6.81575 32.5384-5.26953L32.5384-4.89844 25.3949-4.89844C25.3949-4.23047 25.5278-3.60889 25.7938-3.03369 26.0845-2.39665 26.4958-1.91732 27.0277-1.5957 27.5163-1.29883 28.0729-1.15039 28.6976-1.15039 29.8109-1.15039 31.0417-1.52148 32.39-2.26367ZM25.4969-6.18799 30.6644-6.18799 30.6644-6.43775C30.6644-7.21463 30.4819-7.85279 30.117-8.35222 29.7088-8.91949 29.1305-9.20312 28.3822-9.20312 26.873-9.20312 25.9113-8.19808 25.4969-6.18799ZM43.4731-10.3628 43.4731 0 41.7476 0 41.7476-2.27295C40.6343-0.565918 39.3354 0.287598 37.8511 0.287598 37.2573 0.287598 36.7131 0.132975 36.2183-0.17627 35.6987-0.504069 35.3369-0.940104 35.1328-1.48438 34.9349-2.01009 34.8359-3.03988 34.8359-4.57373L34.8359-10.3628 36.5615-10.3628 36.5615-4.36035C36.5615-3.57487 36.577-3.08317 36.6079-2.88525 36.6883-2.29769 36.8986-1.87093 37.2388-1.60498 37.4923-1.40088 37.7676-1.29883 38.0645-1.29883 38.7633-1.29883 39.487-1.64827 40.2354-2.34717 40.8538-2.91618 41.3579-3.57487 41.7476-4.32324L41.7476-10.3628ZM54.7233-0.686523C53.3441-0.0309245 52.0391 0.296875 50.8083 0.296875 48.8786 0.296875 47.4561-0.599935 46.5407-2.39355 46.0954-3.25326 45.8727-4.1748 45.8727-5.1582 45.8727-6.10449 46.0768-7.0013 46.485-7.84863 46.9118-8.73926 47.504-9.42887 48.2616-9.91748 49.0193-10.4061 49.862-10.6504 50.7897-10.6504 52.237-10.6504 53.3101-10.0907 54.009-8.97119 54.5841-8.04964 54.8717-6.81575 54.8717-5.26953L54.8717-4.89844 47.7282-4.89844C47.7282-4.23047 47.8612-3.60889 48.1271-3.03369 48.4178-2.39665 48.8291-1.91732 49.361-1.5957 49.8496-1.29883 50.4062-1.15039 51.0309-1.15039 52.1442-1.15039 53.375-1.52148 54.7233-2.26367ZM47.8302-6.18799 52.9977-6.18799 52.9977-6.43775C52.9977-7.21463 52.8153-7.85279 52.4504-8.35222 52.0422-8.91949 51.4639-9.20312 50.7155-9.20312 49.2064-9.20312 48.2446-8.19808 47.8302-6.18799ZM61.1029-1.44727 61.1029-12.5522C60.0514-11.7173 58.8763-11.0679 57.5775-10.604L57.5775-12.1626C58.932-12.7378 60.1071-13.4831 61.1029-14.3984L62.8285-14.3984 62.8285-1.44727 66.2889-1.44727 66.2889 0 57.5775 0 57.5775-1.44727Z" transform="matrix(1 -2.45322e-16 2.44733e-16 1.0008 16.5255 30)"/></g></g></g><path d="M615.25 162.63C620.635 162.63 625 145.155 625 123.599 625 102.043 620.635 84.5676 615.25 84.5676L801.75 84.5678C807.135 84.5678 811.5 102.043 811.5 123.599 811.5 145.156 807.135 162.631 801.75 162.631Z" fill="url(#fill43)" fill-rule="evenodd"/><path d="M615.25 162.63C609.865 162.63 605.5 145.155 605.5 123.599 605.5 102.043 609.865 84.5676 615.25 84.5676 620.635 84.5676 625 102.043 625 123.599 625 145.155 620.635 162.63 615.25 162.63Z" fill="url(#fill44)" fill-rule="evenodd"/><path d="M615.25 84.5678C620.635 84.5678 625 102.043 625 123.599 625 145.156 620.635 162.631 615.25 162.631 609.865 162.631 605.5 145.156 605.5 123.599 605.5 102.043 609.865 84.5678 615.25 84.5678L801.75 84.5678C807.135 84.5678 811.5 102.043 811.5 123.599 811.5 145.156 807.135 162.631 801.75 162.631L615.25 162.63" stroke="#BE4B48" stroke-width="1.0008" stroke-linejoin="round" stroke-miterlimit="10" fill="none" fill-rule="evenodd"/><text font-family="Monaco,Monaco_MSFontService,sans-serif" font-weight="400" font-size="19" transform="matrix(1 -2.45322e-16 2.44733e-16 1.0008 679.525 130)">queue1</text><g clip-path="url(#clip45)" filter="url(#fx6)" transform="translate(161 204)"><g clip-path="url(#clip46)"><path d="M6.51289 11.2723 98.1962 12.0583 98.1705 15.0606 6.4872 14.2746ZM96.722 9.04313 105.683 13.6237 96.6449 18.05Z" fill="#4F81BD"/></g></g><path d="M167.511 213.338 260.028 214.131 260.005 216.799 167.489 216.006ZM258.718 211.451 266.683 215.522 258.649 219.457Z" fill="#4F81BD"/><g clip-path="url(#clip47)" filter="url(#fx7)" transform="translate(806 112)"><g clip-path="url(#clip48)"><path d="M5.50006 12.1993 88.913 12.1994 88.913 15.2018 5.50006 15.2017ZM87.4129 9.197 96.4129 13.7006 87.4129 18.2042Z" fill="#4F81BD"/></g></g><path d="M811.5 122.265 895.746 122.265 895.746 124.934 811.5 124.933ZM894.413 119.596 902.413 123.599 894.413 127.602Z" fill="#4F81BD"/><g clip-path="url(#clip49)"><g clip-path="url(#clip50)" filter="url(#fx8)" transform="translate(260 182)"><g clip-path="url(#clip51)"><path d="M6.50006 16.4255C6.50006 11.0824 42.0934 6.75104 86.0001 6.75104 129.907 6.75104 165.5 11.0824 165.5 16.4255L165.5 55.1231C165.5 60.4662 129.907 64.7975 86.0001 64.7975 42.0934 64.7975 6.50006 60.4662 6.50006 55.1231Z" fill="#FF0000" fill-rule="evenodd"/><path d="M165.5 16.4255C165.5 21.7685 129.907 26.0999 86.0001 26.0999 42.0934 26.0999 6.50006 21.7685 6.50006 16.4255" stroke="#7D60A0" stroke-linejoin="round" stroke-miterlimit="10" fill="none" fill-rule="evenodd"/><path d="M6.50006 16.4255C6.50006 11.0824 42.0934 6.75104 86.0001 6.75104 129.907 6.75104 165.5 11.0824 165.5 16.4255L165.5 55.1231C165.5 60.4662 129.907 64.7975 86.0001 64.7975 42.0934 64.7975 6.50006 60.4662 6.50006 55.1231Z" stroke="#7D60A0" stroke-linejoin="round" stroke-miterlimit="10" fill="none" fill-rule="evenodd"/></g></g><g clip-path="url(#clip52)" filter="url(#fx9)" transform="translate(284 200)"><g clip-path="url(#clip53)"><path d="M10.0566-0.686523C8.67741-0.0309245 7.3724 0.296875 6.1416 0.296875 4.21191 0.296875 2.78939-0.599935 1.87402-2.39355 1.42871-3.25326 1.20605-4.1748 1.20605-5.1582 1.20605-6.10449 1.41016-7.0013 1.81836-7.84863 2.24512-8.73926 2.83732-9.42887 3.59497-9.91748 4.35262-10.4061 5.19531-10.6504 6.12305-10.6504 7.57031-10.6504 8.64339-10.0907 9.34229-8.97119 9.91748-8.04964 10.2051-6.81575 10.2051-5.26953L10.2051-4.89844 3.06152-4.89844C3.06152-4.23047 3.1945-3.60889 3.46045-3.03369 3.75114-2.39665 4.16243-1.91732 4.69434-1.5957 5.18294-1.29883 5.73958-1.15039 6.36426-1.15039 7.47754-1.15039 8.70833-1.52148 10.0566-2.26367ZM3.16357-6.18799 8.33105-6.18799 8.33105-6.43775C8.33105-7.21463 8.1486-7.85279 7.78369-8.35222 7.37549-8.91949 6.7972-9.20312 6.04883-9.20312 4.53971-9.20312 3.57796-8.19808 3.16357-6.18799ZM13.672 0 11.6862 0 15.7614-5.42797 11.9557-10.3628 14.1632-10.3628 16.866-6.87944 19.4886-10.3628 21.4394-10.3628 17.8419-5.60004 22.1232 0 19.9029 0 16.74-4.13668ZM32.492-0.296875C31.3354 0.0927734 30.2345 0.287598 29.1893 0.287598 28.1935 0.287598 27.2905 0.061849 26.4803-0.389648 25.6515-0.859701 25.0021-1.52458 24.5321-2.38428 24.0806-3.20068 23.8548-4.13151 23.8548-5.17676 23.8548-6.69824 24.3465-7.9847 25.3299-9.03613 26.3319-10.1123 27.5874-10.6504 29.0965-10.6504 30.1665-10.6504 31.2983-10.4494 32.492-10.0474L32.492-8.38672C31.286-8.93099 30.2067-9.20312 29.2542-9.20312 27.7946-9.20312 26.771-8.56067 26.1834-7.27576 25.8804-6.61475 25.7288-5.93518 25.7288-5.23706 25.7288-4.11276 26.0505-3.18614 26.6937-2.45719 27.3617-1.68495 28.2492-1.29883 29.3563-1.29883 30.1541-1.29883 31.1994-1.51839 32.492-1.95752ZM34.938 0 34.938-14.9736 36.6636-14.9736 36.6636-8.09912C37.1151-8.82275 37.6593-9.41341 38.2964-9.87109 39.0324-10.3906 39.7839-10.6504 40.5508-10.6504 41.0951-10.6504 41.6053-10.5174 42.0815-10.2515 42.5949-9.96077 42.9598-9.5804 43.1763-9.11035 43.3804-8.66504 43.5072-8.12077 43.5566-7.47754 43.569-7.26725 43.5752-6.70443 43.5752-5.78906L43.5752 0 41.8496 0 41.8496-6.00244C41.8496-6.78792 41.8341-7.27962 41.8032-7.47754 41.7228-8.0651 41.5156-8.49186 41.1816-8.75781 40.9219-8.96191 40.6405-9.06396 40.3374-9.06396 39.6447-9.06396 38.9211-8.71452 38.1665-8.01562 37.5542-7.44661 37.0532-6.78792 36.6636-6.03955L36.6636 0ZM52.9235-2.32861C52.4844-1.61117 51.9308-1.01123 51.2629-0.528809 50.5083 0.0154622 49.7507 0.287598 48.9899 0.287598 47.8704 0.287598 47.0046-0.210286 46.3923-1.20605 45.8789-2.04102 45.6222-3.05225 45.6222-4.23975 45.6222-6.67041 46.4634-8.48877 48.1457-9.69482 48.9126-10.2391 49.862-10.5112 50.9938-10.5112 51.3402-10.5112 51.835-10.4772 52.4782-10.4092 52.5586-10.403 52.707-10.3875 52.9235-10.3628L54.6584-10.3628 54.6584-3.04297C54.6584-1.79362 54.7882-0.779297 55.048 0L53.2482 0C53.1121-0.56901 53.0039-1.34521 52.9235-2.32861ZM52.9235-4.37891 52.9235-8.82275C52.3112-8.98356 51.7422-9.06396 51.2165-9.06396 50.0166-9.06396 49.0765-8.58463 48.3962-7.62598 47.7962-6.77246 47.4963-5.72103 47.4963-4.47168 47.4963-3.72331 47.6261-3.06152 47.8859-2.48633 48.2261-1.73796 48.7301-1.36377 49.3981-1.36377 50.0475-1.36377 50.7402-1.72559 51.4762-2.44922 52.0267-2.99349 52.5091-3.63672 52.9235-4.37891ZM57.2713 0 57.2713-10.3628 58.9969-10.3628 58.9969-8.09912C59.4484-8.82275 59.9927-9.41341 60.6297-9.87109 61.3657-10.3906 62.1172-10.6504 62.8841-10.6504 63.4841-10.6504 64.0361-10.4927 64.5401-10.1772 65.0442-9.86182 65.3983-9.4366 65.6024-8.90161 65.8065-8.36662 65.9085-7.3291 65.9085-5.78906L65.9085 0 64.1829 0 64.1829-6.00244C64.1829-6.78792 64.1675-7.27962 64.1366-7.47754 64.0562-8.0651 63.849-8.49186 63.515-8.75781 63.2552-8.96191 62.9738-9.06396 62.6707-9.06396 61.978-9.06396 61.2544-8.71452 60.4998-8.01562 59.8875-7.44661 59.3866-6.78792 58.9969-6.03955L58.9969 0ZM75.3682-2.32861C74.929-1.61117 74.3755-1.01123 73.7075-0.528809 72.953 0.0154622 72.1953 0.287598 71.4346 0.287598 70.3151 0.287598 69.4492-0.210286 68.8369-1.20605 68.3236-2.04102 68.0669-3.05225 68.0669-4.23975 68.0669-6.67041 68.908-8.48877 70.5903-9.69482 71.3573-10.2391 72.3066-10.5112 73.4385-10.5112 73.7848-10.5112 74.2796-10.4772 74.9229-10.4092 75.0033-10.403 75.1517-10.3875 75.3682-10.3628L77.103-10.3628 77.103-3.03369C77.103-1.6792 77.0999-0.946289 77.0938-0.834961 77.0628-2.98023e-08 76.967 0.723633 76.8062 1.33594 76.5402 2.34408 75.9062 3.111 74.9043 3.63672 74.0508 4.08822 73.055 4.31396 71.917 4.31396 70.6615 4.31396 69.3905 3.99235 68.104 3.34912L68.104 1.60498C69.341 2.44613 70.6336 2.8667 71.9819 2.8667 73.1385 2.8667 74.0168 2.54257 74.6167 1.89432 75.1177 1.35101 75.3682 0.431107 75.3682-0.865402ZM75.3682-4.37891 75.3682-8.82275C74.7559-8.98356 74.1868-9.06396 73.6611-9.06396 72.4613-9.06396 71.5212-8.58463 70.8408-7.62598 70.2409-6.77246 69.9409-5.72103 69.9409-4.47168 69.9409-3.72331 70.0708-3.06152 70.3306-2.48633 70.6707-1.73796 71.1748-1.36377 71.8428-1.36377 72.4922-1.36377 73.1849-1.72559 73.9209-2.44922 74.4714-2.99349 74.9538-3.63672 75.3682-4.37891ZM88.2233-0.686523C86.8441-0.0309245 85.5391 0.296875 84.3083 0.296875 82.3786 0.296875 80.956-0.599935 80.0407-2.39355 79.5954-3.25326 79.3727-4.1748 79.3727-5.1582 79.3727-6.10449 79.5768-7.0013 79.985-7.84863 80.4118-8.73926 81.004-9.42887 81.7616-9.91748 82.5193-10.4061 83.362-10.6504 84.2897-10.6504 85.737-10.6504 86.8101-10.0907 87.5089-8.97119 88.0841-8.04964 88.3717-6.81575 88.3717-5.26953L88.3717-4.89844 81.2282-4.89844C81.2282-4.23047 81.3612-3.60889 81.6271-3.03369 81.9178-2.39665 82.3291-1.91732 82.861-1.5957 83.3496-1.29883 83.9062-1.15039 84.5309-1.15039 85.6442-1.15039 86.875-1.52148 88.2233-2.26367ZM81.3302-6.18799 86.4977-6.18799 86.4977-6.43775C86.4977-7.21463 86.3153-7.85279 85.9504-8.35222 85.5421-8.91949 84.9639-9.20312 84.2155-9.20312 82.7064-9.20312 81.7446-8.19808 81.3302-6.18799Z" transform="matrix(1 0 0 1.0008 17.2141 29)"/></g></g></g><path d="M266.5 196.324C266.5 190.981 302.093 186.65 346 186.65 389.907 186.65 425.5 190.981 425.5 196.324L425.5 235.022C425.5 240.365 389.907 244.696 346 244.696 302.093 244.696 266.5 240.365 266.5 235.022Z" fill="url(#fill54)" fill-rule="evenodd"/><path d="M425.5 196.324C425.5 201.667 389.907 205.998 346 205.998 302.093 205.998 266.5 201.667 266.5 196.324" stroke="#7D60A0" stroke-linejoin="round" stroke-miterlimit="10" fill="none" fill-rule="evenodd"/><path d="M266.5 196.324C266.5 190.981 302.093 186.65 346 186.65 389.907 186.65 425.5 190.981 425.5 196.324L425.5 235.022C425.5 240.365 389.907 244.696 346 244.696 302.093 244.696 266.5 240.365 266.5 235.022Z" stroke="#7D60A0" stroke-linejoin="round" stroke-miterlimit="10" fill="none" fill-rule="evenodd"/><text font-family="Monaco,Monaco_MSFontService,sans-serif" font-weight="400" font-size="19" transform="matrix(1 0 0 1.0008 301.214 227)">exchange</text><g clip-path="url(#clip55)"><g clip-path="url(#clip56)" filter="url(#fx10)" transform="translate(896 263)"><g clip-path="url(#clip57)"><path d="M6.50006 17.3063C6.50006 11.134 11.4997 6.1304 17.667 6.1304L132.333 6.1304C138.5 6.1304 143.5 11.134 143.5 17.3063L143.5 62.0083C143.5 68.1805 138.5 73.1841 132.333 73.1841L17.667 73.1841C11.4997 73.1841 6.50006 68.1805 6.50006 62.0083Z" stroke="#98B954" stroke-linejoin="round" stroke-miterlimit="10" fill="#FF0000" fill-rule="evenodd"/></g></g><g clip-path="url(#clip58)" filter="url(#fx11)" transform="translate(903 280)"><g clip-path="url(#clip59)"><path d="M10.1587-0.296875C9.00212 0.0927734 7.9012 0.287598 6.85596 0.287598 5.86019 0.287598 4.95719 0.061849 4.14697-0.389648 3.3182-0.859701 2.66878-1.52458 2.19873-2.38428 1.74723-3.20068 1.52148-4.13151 1.52148-5.17676 1.52148-6.69824 2.01318-7.9847 2.99658-9.03613 3.99854-10.1123 5.25407-10.6504 6.76318-10.6504 7.83317-10.6504 8.96501-10.4494 10.1587-10.0474L10.1587-8.38672C8.95264-8.93099 7.87337-9.20312 6.9209-9.20312 5.46126-9.20312 4.43766-8.56067 3.8501-7.27576 3.54704-6.61475 3.39551-5.93518 3.39551-5.23706 3.39551-4.11276 3.71712-3.18614 4.36035-2.45719 5.02832-1.68495 5.91585-1.29883 7.02295-1.29883 7.8208-1.29883 8.86605-1.51839 10.1587-1.95752ZM16.8722 0.287598C15.3507 0.287598 14.1385-0.253581 13.2355-1.33594 12.3944-2.35026 11.9738-3.63363 11.9738-5.18604 11.9738-6.73844 12.3975-8.01872 13.2448-9.02686 14.1416-10.1092 15.3507-10.6504 16.8722-10.6504 18.3875-10.6504 19.5967-10.1092 20.4997-9.02686 21.3408-8.01253 21.7614-6.73226 21.7614-5.18604 21.7614-3.63981 21.3408-2.35645 20.4997-1.33594 19.5967-0.253581 18.3875 0.287598 16.8722 0.287598ZM16.8722-1.15967C17.9113-1.15967 18.6968-1.5916 19.2287-2.45545 19.6678-3.17126 19.8874-4.08145 19.8874-5.18604 19.8874-6.28443 19.6647-7.19154 19.2194-7.90734 18.6875-8.7712 17.9051-9.20312 16.8722-9.20312 15.8332-9.20312 15.0477-8.77424 14.5158-7.91647 14.0705-7.20076 13.8478-6.29062 13.8478-5.18604 13.8478-4.08145 14.0705-3.17126 14.5158-2.45545 15.0477-1.5916 15.8332-1.15967 16.8722-1.15967ZM23.7713 0 23.7713-10.3628 25.4969-10.3628 25.4969-8.09912C25.9484-8.82275 26.4927-9.41341 27.1297-9.87109 27.8657-10.3906 28.6172-10.6504 29.3841-10.6504 29.9841-10.6504 30.5361-10.4927 31.0401-10.1772 31.5442-9.86182 31.8983-9.4366 32.1024-8.90161 32.3065-8.36662 32.4085-7.3291 32.4085-5.78906L32.4085 0 30.6829 0 30.6829-6.00244C30.6829-6.78792 30.6675-7.27962 30.6366-7.47754 30.5562-8.0651 30.349-8.49186 30.015-8.75781 29.7552-8.96191 29.4738-9.06396 29.1707-9.06396 28.478-9.06396 27.7544-8.71452 26.9998-8.01562 26.3875-7.44661 25.8866-6.78792 25.4969-6.03955L25.4969 0ZM35.0586-0.547363 35.0586-2.375C36.3141-1.56478 37.7026-1.15967 39.2241-1.15967 40.8631-1.15967 41.6826-1.65088 41.6826-2.63332 41.6826-3.01021 41.4971-3.32535 41.126-3.57874 40.9528-3.69615 40.6034-3.86295 40.0776-4.07913L39.4839-4.3202 38.2871-4.79291C37.3037-5.18217 36.6326-5.51891 36.2739-5.80312 35.6554-6.29125 35.3462-6.93076 35.3462-7.72165 35.3462-8.79057 35.8039-9.57219 36.7192-10.0665 37.4305-10.4558 38.3706-10.6504 39.5396-10.6504 40.6466-10.6504 41.695-10.4896 42.6846-10.168L42.6846-8.6001C41.5465-9.00212 40.4766-9.20312 39.4746-9.20312 38.918-9.20312 38.4294-9.11663 38.0088-8.94365 37.4336-8.70263 37.146-8.34115 37.146-7.85921 37.146-7.44521 37.4336-7.08064 38.0088-6.7655 38.2129-6.65437 38.6798-6.46592 39.4097-6.20016L40.5786-5.77384C41.4878-5.44024 42.1527-5.09732 42.5732-4.74507 43.1794-4.23221 43.4824-3.58033 43.4824-2.78944 43.4824-1.67731 43.0124-0.858637 42.0723-0.333405 41.3301 0.0805969 40.3529 0.287598 39.1406 0.287598 37.8171 0.287598 36.4564 0.00927733 35.0586-0.547363ZM54.6398-10.3628 54.6398 0 52.9142 0 52.9142-2.27295C51.8009-0.565918 50.5021 0.287598 49.0177 0.287598 48.424 0.287598 47.8797 0.132975 47.3849-0.17627 46.8654-0.504069 46.5036-0.940104 46.2995-1.48438 46.1016-2.01009 46.0026-3.03988 46.0026-4.57373L46.0026-10.3628 47.7282-10.3628 47.7282-4.36035C47.7282-3.57487 47.7437-3.08317 47.7746-2.88525 47.855-2.29769 48.0653-1.87093 48.4054-1.60498 48.659-1.40088 48.9342-1.29883 49.2311-1.29883 49.93-1.29883 50.6536-1.64827 51.402-2.34717 52.0205-2.91618 52.5246-3.57487 52.9142-4.32324L52.9142-10.3628ZM56.492 0 56.492-10.3628 58.0042-10.3628 58.0042-7.98779C58.8472-9.76286 59.7088-10.6504 60.589-10.6504 61.1716-10.6504 61.6086-10.4061 61.9-9.91748 62.1417-9.51546 62.2625-9.00521 62.2625-8.38672L62.2625-7.83008C62.6143-8.93099 63.1574-9.75667 63.8919-10.3071 64.2004-10.536 64.5553-10.6504 64.9564-10.6504 66.0303-10.6504 66.5672-9.71029 66.5672-7.83008L66.5672 0 65.055 0 65.055-7.07861C65.055-8.01253 64.9625-8.57227 64.7776-8.75781 64.6666-8.86914 64.5464-8.9248 64.4171-8.9248 63.6957-8.9248 62.9776-7.86409 62.2625-5.74268L62.2625 0 60.806 0 60.806-7.06934C60.806-8.30631 60.5555-8.9248 60.0545-8.9248 59.436-8.9248 58.7526-7.9445 58.0042-5.98389L58.0042 0ZM77.0566-0.686523C75.6774-0.0309245 74.3724 0.296875 73.1416 0.296875 71.2119 0.296875 69.7894-0.599935 68.874-2.39355 68.4287-3.25326 68.2061-4.1748 68.2061-5.1582 68.2061-6.10449 68.4102-7.0013 68.8184-7.84863 69.2451-8.73926 69.8373-9.42887 70.595-9.91748 71.3526-10.4061 72.1953-10.6504 73.123-10.6504 74.5703-10.6504 75.6434-10.0907 76.3423-8.97119 76.9175-8.04964 77.2051-6.81575 77.2051-5.26953L77.2051-4.89844 70.0615-4.89844C70.0615-4.23047 70.1945-3.60889 70.4604-3.03369 70.7511-2.39665 71.1624-1.91732 71.6943-1.5957 72.1829-1.29883 72.7396-1.15039 73.3643-1.15039 74.4775-1.15039 75.7083-1.52148 77.0566-2.26367ZM70.1636-6.18799 75.3311-6.18799 75.3311-6.43775C75.3311-7.21463 75.1486-7.85279 74.7837-8.35222 74.3755-8.91949 73.7972-9.20312 73.0488-9.20312 71.5397-9.20312 70.578-8.19808 70.1636-6.18799ZM80.486 0 80.486-10.3628 82.2116-10.3628 82.2116-8.09912C83.2816-9.79997 84.6732-10.6504 86.3864-10.6504 87.0111-10.6504 87.6357-10.5545 88.2604-10.3628L88.2604-6.62402 86.5998-6.62402 86.5998-8.98975C86.3091-9.03922 86.0802-9.06396 85.9132-9.06396 84.6206-9.06396 83.3867-8.04964 82.2116-6.021L82.2116 0ZM99.4271 0 90.7157 0 90.7157-1.58643C90.7157-2.51339 91.1182-3.47437 91.9234-4.46936 92.4065-5.06253 92.9051-5.62178 93.4191-6.14711L94.3992-7.1524C95.7844-8.56052 96.6594-9.60118 97.0242-10.2744 97.2345-10.6697 97.3397-11.0588 97.3397-11.4417 97.3397-12.0532 97.083-12.538 96.5697-12.8962 96.112-13.2174 95.5646-13.3779 94.9276-13.3779 94.1916-13.3779 93.4154-13.2461 92.599-12.9825 92.2711-12.8721 91.7393-12.6514 91.0033-12.3203L91.0033-13.8511C92.3701-14.5005 93.7957-14.8252 95.2801-14.8252 96.9933-14.8252 98.1499-14.3242 98.7498-13.3223 99.0529-12.8089 99.2044-12.2616 99.2044-11.6802 99.2044-10.87 98.8859-10.0195 98.2489-9.12891 97.8839-8.61556 97.2655-7.92594 96.3934-7.06006L94.4451-5.13965C93.9132-4.62012 93.4586-4.06966 93.0814-3.48828 92.735-2.95638 92.5433-2.32243 92.5062-1.58643L99.4271-1.58643Z" fill="#FFFFFF" transform="matrix(1 0 0 1.0008 17.3174 29)"/></g></g></g><path d="M902.5 277.89C902.5 271.717 907.5 266.714 913.667 266.714L1028.33 266.714C1034.5 266.714 1039.5 271.717 1039.5 277.89L1039.5 322.592C1039.5 328.764 1034.5 333.768 1028.33 333.768L913.667 333.768C907.5 333.768 902.5 328.764 902.5 322.592Z" stroke="#98B954" stroke-linejoin="round" stroke-miterlimit="10" fill="url(#fill60)" fill-rule="evenodd"/><text fill="#FFFFFF" font-family="Monaco,Monaco_MSFontService,sans-serif" font-weight="400" font-size="19" transform="matrix(1 0 0 1.0008 920.317 307)">consumer2</text><g clip-path="url(#clip61)"><g clip-path="url(#clip62)" filter="url(#fx12)" transform="translate(599 256)"><g clip-path="url(#clip63)"><path d="M16.3731 85.8738C21.8258 85.8738 26.2462 68.1783 26.2462 46.3499 26.2462 24.5214 21.8258 6.82598 16.3731 6.82598L202.627 6.82598C208.08 6.82598 212.5 24.5214 212.5 46.3499 212.5 68.1783 208.08 85.8738 202.627 85.8738Z" fill="#FF0000" fill-rule="evenodd"/><path d="M16.3731 85.8738C10.9203 85.8738 6.5 68.1783 6.5 46.3499 6.5 24.5214 10.9203 6.82598 16.3731 6.82598 21.8258 6.82598 26.2462 24.5214 26.2462 46.3499 26.2462 68.1783 21.8258 85.8738 16.3731 85.8738Z" fill="#FF0000" fill-rule="evenodd"/><path d="M16.3731 6.82598C21.8258 6.82598 26.2462 24.5214 26.2462 46.3499 26.2462 68.1783 21.8258 85.8738 16.3731 85.8738 10.9203 85.8738 6.5 68.1783 6.5 46.3499 6.5 24.5214 10.9203 6.82598 16.3731 6.82598L202.627 6.82598C208.08 6.82598 212.5 24.5214 212.5 46.3499 212.5 68.1783 208.08 85.8738 202.627 85.8738L16.3731 85.8738" stroke="#BE4B48" stroke-width="1.0008" stroke-linejoin="round" stroke-miterlimit="10" fill="none" fill-rule="evenodd"/></g></g><g clip-path="url(#clip64)" filter="url(#fx13)" transform="translate(663 279)"><g clip-path="url(#clip65)"><path d="M8.36816-2.32861C7.92904-1.61117 7.37549-1.01123 6.70752-0.528809 5.95296 0.0154622 5.19531 0.287598 4.43457 0.287598 3.3151 0.287598 2.44922-0.210286 1.83691-1.20605 1.32357-2.04102 1.06689-3.05225 1.06689-4.23975 1.06689-6.67041 1.90804-8.48877 3.59033-9.69482 4.35726-10.2391 5.30664-10.5112 6.43848-10.5112 6.78483-10.5112 7.27962-10.4772 7.92285-10.4092 8.00325-10.403 8.15169-10.3875 8.36816-10.3628L10.103-10.3628 10.103 4.02637 8.36816 4.02637ZM8.36816-4.37891 8.36816-8.82275C7.75586-8.98356 7.18685-9.06396 6.66113-9.06396 5.46126-9.06396 4.52116-8.58463 3.84082-7.62598 3.24089-6.77246 2.94092-5.72103 2.94092-4.47168 2.94092-3.72331 3.0708-3.06152 3.33057-2.48633 3.67074-1.73796 4.1748-1.36377 4.84277-1.36377 5.49219-1.36377 6.1849-1.72559 6.9209-2.44922 7.47135-2.99349 7.95378-3.63672 8.36816-4.37891ZM21.1398-10.3628 21.1398 0 19.4142 0 19.4142-2.27295C18.3009-0.565918 17.0021 0.287598 15.5177 0.287598 14.924 0.287598 14.3797 0.132975 13.8849-0.17627 13.3654-0.504069 13.0036-0.940104 12.7995-1.48438 12.6016-2.01009 12.5026-3.03988 12.5026-4.57373L12.5026-10.3628 14.2282-10.3628 14.2282-4.36035C14.2282-3.57487 14.2437-3.08317 14.2746-2.88525 14.355-2.29769 14.5653-1.87093 14.9054-1.60498 15.159-1.40088 15.4342-1.29883 15.7311-1.29883 16.43-1.29883 17.1536-1.64827 17.902-2.34717 18.5205-2.91618 19.0246-3.57487 19.4142-4.32324L19.4142-10.3628ZM32.39-0.686523C31.0107-0.0309245 29.7057 0.296875 28.4749 0.296875 26.5452 0.296875 25.1227-0.599935 24.2074-2.39355 23.762-3.25326 23.5394-4.1748 23.5394-5.1582 23.5394-6.10449 23.7435-7.0013 24.1517-7.84863 24.5784-8.73926 25.1707-9.42887 25.9283-9.91748 26.686-10.4061 27.5286-10.6504 28.4564-10.6504 29.9036-10.6504 30.9767-10.0907 31.6756-8.97119 32.2508-8.04964 32.5384-6.81575 32.5384-5.26953L32.5384-4.89844 25.3949-4.89844C25.3949-4.23047 25.5278-3.60889 25.7938-3.03369 26.0845-2.39665 26.4958-1.91732 27.0277-1.5957 27.5163-1.29883 28.0729-1.15039 28.6976-1.15039 29.8109-1.15039 31.0417-1.52148 32.39-2.26367ZM25.4969-6.18799 30.6644-6.18799 30.6644-6.43775C30.6644-7.21463 30.4819-7.85279 30.117-8.35222 29.7088-8.91949 29.1305-9.20312 28.3822-9.20312 26.873-9.20312 25.9113-8.19808 25.4969-6.18799ZM43.4731-10.3628 43.4731 0 41.7476 0 41.7476-2.27295C40.6343-0.565918 39.3354 0.287598 37.8511 0.287598 37.2573 0.287598 36.7131 0.132975 36.2183-0.17627 35.6987-0.504069 35.3369-0.940104 35.1328-1.48438 34.9349-2.01009 34.8359-3.03988 34.8359-4.57373L34.8359-10.3628 36.5615-10.3628 36.5615-4.36035C36.5615-3.57487 36.577-3.08317 36.6079-2.88525 36.6883-2.29769 36.8986-1.87093 37.2388-1.60498 37.4923-1.40088 37.7676-1.29883 38.0645-1.29883 38.7633-1.29883 39.487-1.64827 40.2354-2.34717 40.8538-2.91618 41.3579-3.57487 41.7476-4.32324L41.7476-10.3628ZM54.7233-0.686523C53.3441-0.0309245 52.0391 0.296875 50.8083 0.296875 48.8786 0.296875 47.4561-0.599935 46.5407-2.39355 46.0954-3.25326 45.8727-4.1748 45.8727-5.1582 45.8727-6.10449 46.0768-7.0013 46.485-7.84863 46.9118-8.73926 47.504-9.42887 48.2616-9.91748 49.0193-10.4061 49.862-10.6504 50.7897-10.6504 52.237-10.6504 53.3101-10.0907 54.009-8.97119 54.5841-8.04964 54.8717-6.81575 54.8717-5.26953L54.8717-4.89844 47.7282-4.89844C47.7282-4.23047 47.8612-3.60889 48.1271-3.03369 48.4178-2.39665 48.8291-1.91732 49.361-1.5957 49.8496-1.29883 50.4062-1.15039 51.0309-1.15039 52.1442-1.15039 53.375-1.52148 54.7233-2.26367ZM47.8302-6.18799 52.9977-6.18799 52.9977-6.43775C52.9977-7.21463 52.8153-7.85279 52.4504-8.35222 52.0422-8.91949 51.4639-9.20312 50.7155-9.20312 49.2064-9.20312 48.2446-8.19808 47.8302-6.18799ZM65.9271 0 57.2157 0 57.2157-1.58643C57.2157-2.51339 57.6183-3.47437 58.4235-4.46936 58.9065-5.06253 59.4051-5.62178 59.9191-6.14711L60.8992-7.1524C62.2844-8.56052 63.1594-9.60118 63.5243-10.2744 63.7345-10.6697 63.8397-11.0588 63.8397-11.4417 63.8397-12.0532 63.583-12.538 63.0697-12.8962 62.612-13.2174 62.0646-13.3779 61.4276-13.3779 60.6916-13.3779 59.9154-13.2461 59.099-12.9825 58.7712-12.8721 58.2393-12.6514 57.5033-12.3203L57.5033-13.8511C58.8701-14.5005 60.2957-14.8252 61.7801-14.8252 63.4933-14.8252 64.6499-14.3242 65.2498-13.3223 65.5529-12.8089 65.7044-12.2616 65.7044-11.6802 65.7044-10.87 65.3859-10.0195 64.7489-9.12891 64.384-8.61556 63.7655-7.92594 62.8934-7.06006L60.9452-5.13965C60.4132-4.62012 59.9587-4.06966 59.5814-3.48828 59.235-2.95638 59.0433-2.32243 59.0062-1.58643L65.9271-1.58643Z" transform="matrix(1 -2.45322e-16 2.44733e-16 1.0008 16.5257 30)"/></g></g></g><path d="M615.373 339.772C620.826 339.772 625.246 322.077 625.246 300.248 625.246 278.42 620.826 260.725 615.373 260.725L801.627 260.725C807.08 260.725 811.5 278.42 811.5 300.248 811.5 322.077 807.08 339.772 801.627 339.772Z" fill="url(#fill66)" fill-rule="evenodd"/><path d="M615.373 339.772C609.92 339.772 605.5 322.077 605.5 300.248 605.5 278.42 609.92 260.725 615.373 260.725 620.826 260.725 625.246 278.42 625.246 300.248 625.246 322.077 620.826 339.772 615.373 339.772Z" fill="url(#fill67)" fill-rule="evenodd"/><path d="M615.373 260.725C620.826 260.725 625.246 278.42 625.246 300.248 625.246 322.077 620.826 339.772 615.373 339.772 609.92 339.772 605.5 322.077 605.5 300.248 605.5 278.42 609.92 260.725 615.373 260.725L801.627 260.725C807.08 260.725 811.5 278.42 811.5 300.248 811.5 322.077 807.08 339.772 801.627 339.772L615.373 339.772" stroke="#BE4B48" stroke-width="1.0008" stroke-linejoin="round" stroke-miterlimit="10" fill="none" fill-rule="evenodd"/><text font-family="Monaco,Monaco_MSFontService,sans-serif" font-weight="400" font-size="19" transform="matrix(1 -2.45322e-16 2.44733e-16 1.0008 679.526 307)">queue2</text><g clip-path="url(#clip68)" filter="url(#fx14)" transform="translate(806 288)"><g clip-path="url(#clip69)"><path d="M5.50006 12.3404 88.913 12.3405 88.913 15.3429 5.50006 15.3428ZM87.4129 9.33813 96.4129 13.8417 87.4129 18.3453Z" fill="#4F81BD"/></g></g><path d="M811.5 298.406 895.746 298.406 895.746 301.075 811.5 301.075ZM894.413 295.737 902.413 299.74 894.413 303.744Z" fill="#4F81BD"/><g clip-path="url(#clip70)" filter="url(#fx15)" transform="translate(419 112)"><g clip-path="url(#clip71)"><path d="M0.684844-1.33454 173.705 87.4543 172.336 90.1234-0.684844 1.33454ZM173.74 84.1002 179.693 92.2129 169.631 92.1075Z" fill="#4F81BD" transform="matrix(1 0 0 -1.0008 6.50006 105.987)"/></g></g><path d="M0.60875-1.18625 174.371 87.983 173.153 90.3555-0.60875 1.18625ZM174.402 85.0016 179.693 92.2129 170.749 92.1192Z" fill="#4F81BD" transform="matrix(1 0 0 -1.0008 425.5 215.886)"/><g clip-path="url(#clip72)" filter="url(#fx16)" transform="translate(419 211)"><g clip-path="url(#clip73)"><path d="M7.13799 5.41561 180.043 86.728 178.767 89.4454 5.86214 8.13297ZM179.961 83.3722 186.193 91.2789 176.134 91.5243Z" fill="#4F81BD"/></g></g><path d="M426.067 214.465 599.726 296.132 598.592 298.548 424.933 216.881ZM599.654 293.149 605.193 300.177 596.251 300.396Z" fill="#4F81BD"/><g clip-path="url(#clip74)"><g clip-path="url(#clip75)" filter="url(#fx17)" transform="translate(466 103)"><g clip-path="url(#clip76)"><path d="M6.50006 10.5241C6.50006 8.40532 8.21632 6.68768 10.3334 6.68768L89.6667 6.68768C91.7838 6.68768 93.5001 8.40532 93.5001 10.5241L93.5001 25.8697C93.5001 27.9885 91.7838 29.7061 89.6667 29.7061L10.3334 29.7061C8.21632 29.7061 6.50006 27.9885 6.50006 25.8697Z" stroke="#4A7EBB" stroke-linejoin="round" stroke-miterlimit="10" fill="#FF0000" fill-rule="evenodd"/></g></g><g clip-path="url(#clip77)" filter="url(#fx18)" transform="translate(469 103)"><g clip-path="url(#clip78)"><path d="M1.30127 0 1.30127-10.2451 2.48193-10.2451 2.48193-3.80968 5.89221-7.09033 7.46484-7.09033 4.06429-3.81018 7.5553 0 5.92871 0 2.48193-3.80859 2.48193 0ZM14.8809-0.469727C13.9372-0.0211589 13.0443 0.203125 12.2021 0.203125 10.8818 0.203125 9.90853-0.410482 9.28223-1.6377 8.97754-2.22591 8.8252-2.85645 8.8252-3.5293 8.8252-4.17676 8.96484-4.79036 9.24414-5.37012 9.53613-5.97949 9.94132-6.45133 10.4597-6.78564 10.9781-7.11995 11.5547-7.28711 12.1895-7.28711 13.1797-7.28711 13.9139-6.90413 14.3921-6.13818 14.7856-5.50765 14.9824-4.66341 14.9824-3.60547L14.9824-3.35156 10.0947-3.35156C10.0947-2.89453 10.1857-2.46924 10.3677-2.07568 10.5666-1.63981 10.848-1.31185 11.2119-1.0918 11.5462-0.888672 11.9271-0.787109 12.3545-0.787109 13.1162-0.787109 13.9583-1.04102 14.8809-1.54883ZM10.1646-4.23389 13.7002-4.23389 13.7002-4.40478C13.7002-4.93633 13.5754-5.37296 13.3257-5.71468 13.0464-6.10281 12.6507-6.29688 12.1387-6.29688 11.1061-6.29688 10.4481-5.60921 10.1646-4.23389ZM19.5928-0.290405 16.3175-7.09033 17.6206-7.09033 20.2304-1.771 22.4083-7.09033 23.5981-7.09033 20.8495-0.501465C20.3671 0.653809 19.9333 1.45361 19.5482 1.89795 18.9389 2.60465 18.1454 2.95801 17.168 2.95801 16.8083 2.95801 16.4867 2.92627 16.2031 2.86279L16.2031 1.82178C16.529 1.91911 16.84 1.96777 17.1362 1.96777 17.9149 1.96777 18.5243 1.63158 18.9644 0.95919 19.1929 0.61245 19.3664 0.286835 19.4849-0.0176544ZM27.8975 0.29834C27.6139 0.29834 27.3706 0.196777 27.1675-0.00634766 26.9644-0.209473 26.8628-0.452799 26.8628-0.736328 26.8628-1.01986 26.9644-1.26318 27.1675-1.46631 27.3706-1.66943 27.6139-1.771 27.8975-1.771 28.181-1.771 28.4243-1.66943 28.6274-1.46631 28.8306-1.26318 28.9321-1.01986 28.9321-0.736328 28.9321-0.452799 28.8306-0.209473 28.6274-0.00634766 28.4243 0.196777 28.181 0.29834 27.8975 0.29834ZM27.8975-5.21777C27.6139-5.21777 27.3706-5.31934 27.1675-5.52246 26.9644-5.72559 26.8628-5.96891 26.8628-6.25244 26.8628-6.53597 26.9644-6.7793 27.1675-6.98242 27.3706-7.18555 27.6139-7.28711 27.8975-7.28711 28.181-7.28711 28.4243-7.18555 28.6274-6.98242 28.8306-6.7793 28.9321-6.53597 28.9321-6.25244 28.9321-5.96891 28.8306-5.72559 28.6274-5.52246 28.4243-5.31934 28.181-5.21777 27.8975-5.21777ZM34.0757-5.49707C34.3804-5.98796 34.7591-6.39844 35.2119-6.72852 35.7282-7.10091 36.2466-7.28711 36.7671-7.28711 37.5373-7.28711 38.1318-6.94645 38.5508-6.26514 38.902-5.69385 39.0776-5.00195 39.0776-4.18945 39.0776-3.4362 38.938-2.74219 38.6587-2.10742 38.3582-1.41764 37.9202-0.869629 37.3447-0.463379 36.82-0.0867513 36.1704 0.101562 35.396 0.101562 35.1632 0.101562 34.8247 0.0782878 34.3804 0.0317383 34.3254 0.0275065 34.2238 0.0169271 34.0757 0L32.895 0 32.895-10.2451 34.0757-10.2451ZM34.0757-4.09424 34.0757-1.05371C34.5031-0.943685 34.8966-0.888672 35.2563-0.888672 36.0731-0.888672 36.7142-1.21875 37.1797-1.87891 37.5902-2.46289 37.7954-3.18018 37.7954-4.03076 37.7954-4.54704 37.7065-4.99984 37.5288-5.38916 37.2918-5.9012 36.9448-6.15723 36.4878-6.15723 36.0435-6.15723 35.5716-5.90967 35.0723-5.41455 34.6956-5.04215 34.3634-4.60205 34.0757-4.09424ZM42.8945 0 42.8945-9.25488 40.7744-9.25488 40.7744-10.2451 44.0752-10.2451 44.0752-0.990234 46.2905-0.990234 46.2905 0ZM54.8237-7.09033 54.8237 0 53.6431 0 53.6431-1.55518C52.8813-0.387207 51.9927 0.196777 50.9771 0.196777 50.5708 0.196777 50.1984 0.0909831 49.8599-0.120605 49.5044-0.344889 49.2568-0.643229 49.1172-1.01562 48.9818-1.37533 48.9141-2.07992 48.9141-3.12939L48.9141-7.09033 50.0947-7.09033 50.0947-2.9834C50.0947-2.44596 50.1053-2.10954 50.1265-1.97412 50.1815-1.5721 50.3254-1.28011 50.5581-1.09814 50.7316-0.958496 50.9199-0.888672 51.123-0.888672 51.6012-0.888672 52.0964-1.12777 52.6084-1.60596 53.0316-1.99528 53.3765-2.44596 53.6431-2.95801L53.6431-7.09033ZM62.8809-0.469727C61.9372-0.0211589 61.0443 0.203125 60.2021 0.203125 58.8818 0.203125 57.9085-0.410482 57.2822-1.6377 56.9775-2.22591 56.8252-2.85645 56.8252-3.5293 56.8252-4.17676 56.9648-4.79036 57.2441-5.37012 57.5361-5.97949 57.9413-6.45133 58.4597-6.78564 58.9781-7.11995 59.5547-7.28711 60.1895-7.28711 61.1797-7.28711 61.9139-6.90413 62.3921-6.13818 62.7856-5.50765 62.9824-4.66341 62.9824-3.60547L62.9824-3.35156 58.0947-3.35156C58.0947-2.89453 58.1857-2.46924 58.3677-2.07568 58.5666-1.63981 58.848-1.31185 59.2119-1.0918 59.5462-0.888672 59.9271-0.787109 60.3545-0.787109 61.1162-0.787109 61.9583-1.04102 62.8809-1.54883ZM58.1646-4.23389 61.7002-4.23389 61.7002-4.40478C61.7002-4.93633 61.5754-5.37296 61.3257-5.71468 61.0464-6.10281 60.6507-6.29688 60.1387-6.29688 59.1061-6.29688 58.4481-5.60921 58.1646-4.23389Z" transform="matrix(1 0 0 1.0008 14.2375 23)"/></g></g></g><path d="M472.5 111.423C472.5 109.304 474.216 107.586 476.333 107.586L555.667 107.586C557.784 107.586 559.5 109.304 559.5 111.423L559.5 126.768C559.5 128.887 557.784 130.605 555.667 130.605L476.333 130.605C474.216 130.605 472.5 128.887 472.5 126.768Z" stroke="#4A7EBB" stroke-linejoin="round" stroke-miterlimit="10" fill="url(#fill79)" fill-rule="evenodd"/><text font-family="Monaco,Monaco_MSFontService,sans-serif" font-weight="400" font-size="13" transform="matrix(1 0 0 1.0008 483.237 124)">key:blue<tspan fill="#595959" font-size="19" x="137.718" y="-78.9367">bindingKey</tspan><tspan fill="#595959" font-size="19" x="249.385" y="-78.9367">: </tspan><tspan fill="#C00000" font-weight="700" font-size="19" x="271.718" y="-78.9367">blue</tspan><tspan fill="#595959" font-size="19" x="137.657" y="244.804">bindingKey</tspan><tspan fill="#595959" font-size="19" x="249.324" y="244.804">: </tspan><tspan fill="#C00000" font-weight="700" font-size="19" x="271.657" y="244.804">yellow</tspan><tspan fill="#595959" font-size="16" x="-165.177" y="76.9383">Direct</tspan></text><g clip-path="url(#clip80)"><g clip-path="url(#clip81)" filter="url(#fx19)" transform="translate(466 300)"><g clip-path="url(#clip82)"><path d="M6.50006 10.5154C6.50006 8.48865 8.14171 6.84567 10.1668 6.84567L106.833 6.84567C108.858 6.84567 110.5 8.48865 110.5 10.5154L110.5 25.1936C110.5 27.2203 108.858 28.8633 106.833 28.8633L10.1668 28.8633C8.14171 28.8633 6.50006 27.2203 6.50006 25.1936Z" stroke="#F69240" stroke-linejoin="round" stroke-miterlimit="10" fill="#FF0000" fill-rule="evenodd"/></g></g><g clip-path="url(#clip83)" filter="url(#fx20)" transform="translate(470 300)"><g clip-path="url(#clip84)"><path d="M1.30127 0 1.30127-10.2451 2.48193-10.2451 2.48193-3.80968 5.89221-7.09033 7.46484-7.09033 4.06429-3.81018 7.5553 0 5.92871 0 2.48193-3.80859 2.48193 0ZM14.8809-0.469727C13.9372-0.0211589 13.0443 0.203125 12.2021 0.203125 10.8818 0.203125 9.90853-0.410482 9.28223-1.6377 8.97754-2.22591 8.8252-2.85645 8.8252-3.5293 8.8252-4.17676 8.96484-4.79036 9.24414-5.37012 9.53613-5.97949 9.94132-6.45133 10.4597-6.78564 10.9781-7.11995 11.5547-7.28711 12.1895-7.28711 13.1797-7.28711 13.9139-6.90413 14.3921-6.13818 14.7856-5.50765 14.9824-4.66341 14.9824-3.60547L14.9824-3.35156 10.0947-3.35156C10.0947-2.89453 10.1857-2.46924 10.3677-2.07568 10.5666-1.63981 10.848-1.31185 11.2119-1.0918 11.5462-0.888672 11.9271-0.787109 12.3545-0.787109 13.1162-0.787109 13.9583-1.04102 14.8809-1.54883ZM10.1646-4.23389 13.7002-4.23389 13.7002-4.40478C13.7002-4.93633 13.5754-5.37296 13.3257-5.71468 13.0464-6.10281 12.6507-6.29688 12.1387-6.29688 11.1061-6.29688 10.4481-5.60921 10.1646-4.23389ZM19.5928-0.290405 16.3175-7.09033 17.6206-7.09033 20.2304-1.771 22.4083-7.09033 23.5981-7.09033 20.8495-0.501465C20.3671 0.653809 19.9333 1.45361 19.5482 1.89795 18.9389 2.60465 18.1454 2.95801 17.168 2.95801 16.8083 2.95801 16.4867 2.92627 16.2031 2.86279L16.2031 1.82178C16.529 1.91911 16.84 1.96777 17.1362 1.96777 17.9149 1.96777 18.5243 1.63158 18.9644 0.95919 19.1929 0.61245 19.3664 0.286835 19.4849-0.0176544ZM27.8975 0.29834C27.6139 0.29834 27.3706 0.196777 27.1675-0.00634766 26.9644-0.209473 26.8628-0.452799 26.8628-0.736328 26.8628-1.01986 26.9644-1.26318 27.1675-1.46631 27.3706-1.66943 27.6139-1.771 27.8975-1.771 28.181-1.771 28.4243-1.66943 28.6274-1.46631 28.8306-1.26318 28.9321-1.01986 28.9321-0.736328 28.9321-0.452799 28.8306-0.209473 28.6274-0.00634766 28.4243 0.196777 28.181 0.29834 27.8975 0.29834ZM27.8975-5.21777C27.6139-5.21777 27.3706-5.31934 27.1675-5.52246 26.9644-5.72559 26.8628-5.96891 26.8628-6.25244 26.8628-6.53597 26.9644-6.7793 27.1675-6.98242 27.3706-7.18555 27.6139-7.28711 27.8975-7.28711 28.181-7.28711 28.4243-7.18555 28.6274-6.98242 28.8306-6.7793 28.9321-6.53597 28.9321-6.25244 28.9321-5.96891 28.8306-5.72559 28.6274-5.52246 28.4243-5.31934 28.181-5.21777 27.8975-5.21777ZM35.5928-0.290405 32.3175-7.09033 33.6206-7.09033 36.2304-1.771 38.4083-7.09033 39.5981-7.09033 36.8495-0.501465C36.3671 0.653809 35.9333 1.45361 35.5482 1.89795 34.9389 2.60465 34.1454 2.95801 33.168 2.95801 32.8083 2.95801 32.4867 2.92627 32.2031 2.86279L32.2031 1.82178C32.529 1.91911 32.84 1.96777 33.1362 1.96777 33.9149 1.96777 34.5243 1.63158 34.9644 0.95919 35.1929 0.61245 35.3664 0.286835 35.4849-0.0176544ZM46.8809-0.469727C45.9372-0.0211589 45.0443 0.203125 44.2021 0.203125 42.8818 0.203125 41.9085-0.410482 41.2822-1.6377 40.9775-2.22591 40.8252-2.85645 40.8252-3.5293 40.8252-4.17676 40.9648-4.79036 41.2441-5.37012 41.5361-5.97949 41.9413-6.45133 42.4597-6.78564 42.9781-7.11995 43.5547-7.28711 44.1895-7.28711 45.1797-7.28711 45.9139-6.90413 46.3921-6.13818 46.7856-5.50765 46.9824-4.66341 46.9824-3.60547L46.9824-3.35156 42.0947-3.35156C42.0947-2.89453 42.1857-2.46924 42.3677-2.07568 42.5666-1.63981 42.848-1.31185 43.2119-1.0918 43.5462-0.888672 43.9271-0.787109 44.3545-0.787109 45.1162-0.787109 45.9583-1.04102 46.8809-1.54883ZM42.1646-4.23389 45.7002-4.23389 45.7002-4.40478C45.7002-4.93633 45.5754-5.37296 45.3257-5.71468 45.0464-6.10281 44.6507-6.29688 44.1387-6.29688 43.1061-6.29688 42.4481-5.60921 42.1646-4.23389ZM50.8945 0 50.8945-9.25488 48.7744-9.25488 48.7744-10.2451 52.0752-10.2451 52.0752-0.990234 54.2905-0.990234 54.2905 0ZM58.8945 0 58.8945-9.25488 56.7744-9.25488 56.7744-10.2451 60.0752-10.2451 60.0752-0.990234 62.2905-0.990234 62.2905 0ZM67.9038 0.196777C66.8628 0.196777 66.0334-0.173503 65.4155-0.914062 64.84-1.60807 64.5522-2.48617 64.5522-3.54834 64.5522-4.61051 64.8421-5.48649 65.4219-6.17627 66.0355-6.91683 66.8628-7.28711 67.9038-7.28711 68.9406-7.28711 69.7679-6.91683 70.3857-6.17627 70.9613-5.48226 71.249-4.60628 71.249-3.54834 71.249-2.4904 70.9613-1.6123 70.3857-0.914062 69.7679-0.173503 68.9406 0.196777 67.9038 0.196777ZM67.9038-0.793457C68.6147-0.793457 69.1522-1.08899 69.5161-1.68005 69.8166-2.16981 69.9668-2.79257 69.9668-3.54834 69.9668-4.29988 69.8145-4.92052 69.5098-5.41029 69.1458-6.00135 68.6105-6.29688 67.9038-6.29688 67.1929-6.29688 66.6554-6.00343 66.2915-5.41653 65.9868-4.92684 65.8345-4.30411 65.8345-3.54834 65.8345-2.79257 65.9868-2.16981 66.2915-1.68005 66.6554-1.08899 67.1929-0.793457 67.9038-0.793457ZM73.2822 0 72.127-7.09033 73.2267-7.09033 74.0749-1.76614 74.2471-2.77393 75.377-7.09033 76.437-7.09033 77.7129-2.77393 77.9329-1.78072 78.0811-2.77393 78.7612-7.09033 79.668-7.09033 78.5189 0 77.4075 0 76.0523-4.56277 75.8403-5.56689 75.8092-5.56689 75.616-4.56922 74.433 0Z" transform="matrix(1 0 0 1.0008 14.0124 23)"/></g></g></g><path d="M472.5 308.414C472.5 306.387 474.142 304.744 476.167 304.744L572.833 304.744C574.858 304.744 576.5 306.387 576.5 308.414L576.5 323.092C576.5 325.119 574.858 326.762 572.833 326.762L476.167 326.762C474.142 326.762 472.5 325.119 472.5 323.092Z" stroke="#F69240" stroke-linejoin="round" stroke-miterlimit="10" fill="url(#fill85)" fill-rule="evenodd"/><text font-family="Monaco,Monaco_MSFontService,sans-serif" font-weight="400" font-size="13" transform="matrix(1 0 0 1.0008 484.012 320)">key:yellow<tspan fill="#595959" font-size="19" x="136.882" y="76.9383">bindingKey</tspan><tspan fill="#595959" font-size="19" x="248.549" y="76.9383">: </tspan><tspan fill="#C00000" font-weight="700" font-size="19" x="270.882" y="76.9383">red</tspan></text><g clip-path="url(#clip86)"><g clip-path="url(#clip87)" filter="url(#fx21)" transform="translate(401 143)"><g clip-path="url(#clip88)"><path d="M6.50006 10.3895C6.50006 8.36275 8.14173 6.71976 10.1668 6.71976L89.8333 6.71976C91.8584 6.71976 93.5001 8.36275 93.5001 10.3895L93.5001 25.0677C93.5001 27.0944 91.8584 28.7374 89.8333 28.7374L10.1668 28.7374C8.14173 28.7374 6.50006 27.0944 6.50006 25.0677Z" stroke="#BE4B48" stroke-linejoin="round" stroke-miterlimit="10" fill="#FF0000" fill-rule="evenodd"/></g></g><g clip-path="url(#clip89)" filter="url(#fx22)" transform="translate(408 142)"><g clip-path="url(#clip90)"><path d="M1.30127 0 1.30127-10.2451 2.48193-10.2451 2.48193-3.80968 5.89221-7.09033 7.46484-7.09033 4.06429-3.81018 7.5553 0 5.92871 0 2.48193-3.80859 2.48193 0ZM14.8809-0.469727C13.9372-0.0211589 13.0443 0.203125 12.2021 0.203125 10.8818 0.203125 9.90853-0.410482 9.28223-1.6377 8.97754-2.22591 8.8252-2.85645 8.8252-3.5293 8.8252-4.17676 8.96484-4.79036 9.24414-5.37012 9.53613-5.97949 9.94132-6.45133 10.4597-6.78564 10.9781-7.11995 11.5547-7.28711 12.1895-7.28711 13.1797-7.28711 13.9139-6.90413 14.3921-6.13818 14.7856-5.50765 14.9824-4.66341 14.9824-3.60547L14.9824-3.35156 10.0947-3.35156C10.0947-2.89453 10.1857-2.46924 10.3677-2.07568 10.5666-1.63981 10.848-1.31185 11.2119-1.0918 11.5462-0.888672 11.9271-0.787109 12.3545-0.787109 13.1162-0.787109 13.9583-1.04102 14.8809-1.54883ZM10.1646-4.23389 13.7002-4.23389 13.7002-4.40478C13.7002-4.93633 13.5754-5.37296 13.3257-5.71468 13.0464-6.10281 12.6507-6.29688 12.1387-6.29688 11.1061-6.29688 10.4481-5.60921 10.1646-4.23389ZM19.5928-0.290405 16.3175-7.09033 17.6206-7.09033 20.2304-1.771 22.4083-7.09033 23.5981-7.09033 20.8495-0.501465C20.3671 0.653809 19.9333 1.45361 19.5482 1.89795 18.9389 2.60465 18.1454 2.95801 17.168 2.95801 16.8083 2.95801 16.4867 2.92627 16.2031 2.86279L16.2031 1.82178C16.529 1.91911 16.84 1.96777 17.1362 1.96777 17.9149 1.96777 18.5243 1.63158 18.9644 0.95919 19.1929 0.61245 19.3664 0.286835 19.4849-0.0176544ZM27.8975 0.29834C27.6139 0.29834 27.3706 0.196777 27.1675-0.00634766 26.9644-0.209473 26.8628-0.452799 26.8628-0.736328 26.8628-1.01986 26.9644-1.26318 27.1675-1.46631 27.3706-1.66943 27.6139-1.771 27.8975-1.771 28.181-1.771 28.4243-1.66943 28.6274-1.46631 28.8306-1.26318 28.9321-1.01986 28.9321-0.736328 28.9321-0.452799 28.8306-0.209473 28.6274-0.00634766 28.4243 0.196777 28.181 0.29834 27.8975 0.29834ZM27.8975-5.21777C27.6139-5.21777 27.3706-5.31934 27.1675-5.52246 26.9644-5.72559 26.8628-5.96891 26.8628-6.25244 26.8628-6.53597 26.9644-6.7793 27.1675-6.98242 27.3706-7.18555 27.6139-7.28711 27.8975-7.28711 28.181-7.28711 28.4243-7.18555 28.6274-6.98242 28.8306-6.7793 28.9321-6.53597 28.9321-6.25244 28.9321-5.96891 28.8306-5.72559 28.6274-5.52246 28.4243-5.31934 28.181-5.21777 27.8975-5.21777ZM33.5869 0 33.5869-7.09033 34.7676-7.09033 34.7676-5.5415C35.4997-6.70524 36.4518-7.28711 37.624-7.28711 38.0514-7.28711 38.4788-7.22152 38.9062-7.09033L38.9062-4.53223 37.77-4.53223 37.77-6.15088C37.5711-6.18473 37.4146-6.20166 37.3003-6.20166 36.4159-6.20166 35.5716-5.50765 34.7676-4.11963L34.7676 0ZM46.8809-0.469727C45.9372-0.0211589 45.0443 0.203125 44.2021 0.203125 42.8818 0.203125 41.9085-0.410482 41.2822-1.6377 40.9775-2.22591 40.8252-2.85645 40.8252-3.5293 40.8252-4.17676 40.9648-4.79036 41.2441-5.37012 41.5361-5.97949 41.9413-6.45133 42.4597-6.78564 42.9781-7.11995 43.5547-7.28711 44.1895-7.28711 45.1797-7.28711 45.9139-6.90413 46.3921-6.13818 46.7856-5.50765 46.9824-4.66341 46.9824-3.60547L46.9824-3.35156 42.0947-3.35156C42.0947-2.89453 42.1857-2.46924 42.3677-2.07568 42.5666-1.63981 42.848-1.31185 43.2119-1.0918 43.5462-0.888672 43.9271-0.787109 44.3545-0.787109 45.1162-0.787109 45.9583-1.04102 46.8809-1.54883ZM42.1646-4.23389 45.7002-4.23389 45.7002-4.40478C45.7002-4.93633 45.5754-5.37296 45.3257-5.71468 45.0464-6.10281 44.6507-6.29688 44.1387-6.29688 43.1061-6.29688 42.4481-5.60921 42.1646-4.23389ZM53.7256-1.59326C53.4251-1.10238 53.0464-0.691894 52.5894-0.361816 52.0731 0.0105794 51.5547 0.196777 51.0342 0.196777 50.2682 0.196777 49.6758-0.14388 49.2568-0.825195 48.9056-1.39648 48.73-2.08838 48.73-2.90088 48.73-4.56396 49.3055-5.80811 50.4565-6.6333 50.9813-7.0057 51.6309-7.19189 52.4053-7.19189 52.6423-7.19189 52.9808-7.16862 53.4209-7.12207 53.4759-7.11784 53.5775-7.10726 53.7256-7.09033L53.7256-10.2451 54.9126-10.2451 54.9126 0 53.7256 0ZM53.7256-2.99609 53.7256-6.03662C53.3066-6.14665 52.9173-6.20166 52.5576-6.20166 51.7367-6.20166 51.0934-5.8737 50.6279-5.21777 50.2174-4.63379 50.0122-3.91439 50.0122-3.05957 50.0122-2.54753 50.1011-2.09473 50.2788-1.70117 50.5116-1.18913 50.8564-0.933105 51.3135-0.933105 51.7578-0.933105 52.2318-1.18066 52.7354-1.67578 53.112-2.04818 53.4421-2.48828 53.7256-2.99609Z" transform="matrix(1 0 0 1.0008 14.2982 23)"/></g></g></g><path d="M407.5 151.288C407.5 149.261 409.142 147.618 411.167 147.618L490.833 147.618C492.858 147.618 494.5 149.261 494.5 151.288L494.5 165.966C494.5 167.993 492.858 169.636 490.833 169.636L411.167 169.636C409.142 169.636 407.5 167.993 407.5 165.966Z" stroke="#BE4B48" stroke-linejoin="round" stroke-miterlimit="10" fill="url(#fill91)" fill-rule="evenodd"/><text font-family="Monaco,Monaco_MSFontService,sans-serif" font-weight="400" font-size="13" transform="matrix(1 0 0 1.0008 422.298 163)">key:red<tspan fill="#595959" font-size="19" x="198.596" y="-89.9279">bindingKey</tspan><tspan fill="#595959" font-size="19" x="310.263" y="-89.9279">: </tspan><tspan fill="#C00000" font-weight="700" font-size="19" x="332.596" y="-89.9279">red</tspan></text><g clip-path="url(#clip92)"><g clip-path="url(#clip93)" filter="url(#fx23)" transform="translate(401 258)"><g clip-path="url(#clip94)"><path d="M6.50006 10.4817C6.50006 8.45497 8.14173 6.81198 10.1668 6.81198L89.8333 6.81198C91.8584 6.81198 93.5001 8.45497 93.5001 10.4817L93.5001 25.1599C93.5001 27.1866 91.8584 28.8296 89.8333 28.8296L10.1668 28.8296C8.14173 28.8296 6.50006 27.1866 6.50006 25.1599Z" stroke="#BE4B48" stroke-linejoin="round" stroke-miterlimit="10" fill="#FF0000" fill-rule="evenodd"/></g></g><g clip-path="url(#clip95)" filter="url(#fx24)" transform="translate(408 257)"><g clip-path="url(#clip96)"><path d="M1.30127 0 1.30127-10.2451 2.48193-10.2451 2.48193-3.80968 5.89221-7.09033 7.46484-7.09033 4.06429-3.81018 7.5553 0 5.92871 0 2.48193-3.80859 2.48193 0ZM14.8809-0.469727C13.9372-0.0211589 13.0443 0.203125 12.2021 0.203125 10.8818 0.203125 9.90853-0.410482 9.28223-1.6377 8.97754-2.22591 8.8252-2.85645 8.8252-3.5293 8.8252-4.17676 8.96484-4.79036 9.24414-5.37012 9.53613-5.97949 9.94132-6.45133 10.4597-6.78564 10.9781-7.11995 11.5547-7.28711 12.1895-7.28711 13.1797-7.28711 13.9139-6.90413 14.3921-6.13818 14.7856-5.50765 14.9824-4.66341 14.9824-3.60547L14.9824-3.35156 10.0947-3.35156C10.0947-2.89453 10.1857-2.46924 10.3677-2.07568 10.5666-1.63981 10.848-1.31185 11.2119-1.0918 11.5462-0.888672 11.9271-0.787109 12.3545-0.787109 13.1162-0.787109 13.9583-1.04102 14.8809-1.54883ZM10.1646-4.23389 13.7002-4.23389 13.7002-4.40478C13.7002-4.93633 13.5754-5.37296 13.3257-5.71468 13.0464-6.10281 12.6507-6.29688 12.1387-6.29688 11.1061-6.29688 10.4481-5.60921 10.1646-4.23389ZM19.5928-0.290405 16.3175-7.09033 17.6206-7.09033 20.2304-1.771 22.4083-7.09033 23.5981-7.09033 20.8495-0.501465C20.3671 0.653809 19.9333 1.45361 19.5482 1.89795 18.9389 2.60465 18.1454 2.95801 17.168 2.95801 16.8083 2.95801 16.4867 2.92627 16.2031 2.86279L16.2031 1.82178C16.529 1.91911 16.84 1.96777 17.1362 1.96777 17.9149 1.96777 18.5243 1.63158 18.9644 0.95919 19.1929 0.61245 19.3664 0.286835 19.4849-0.0176544ZM27.8975 0.29834C27.6139 0.29834 27.3706 0.196777 27.1675-0.00634766 26.9644-0.209473 26.8628-0.452799 26.8628-0.736328 26.8628-1.01986 26.9644-1.26318 27.1675-1.46631 27.3706-1.66943 27.6139-1.771 27.8975-1.771 28.181-1.771 28.4243-1.66943 28.6274-1.46631 28.8306-1.26318 28.9321-1.01986 28.9321-0.736328 28.9321-0.452799 28.8306-0.209473 28.6274-0.00634766 28.4243 0.196777 28.181 0.29834 27.8975 0.29834ZM27.8975-5.21777C27.6139-5.21777 27.3706-5.31934 27.1675-5.52246 26.9644-5.72559 26.8628-5.96891 26.8628-6.25244 26.8628-6.53597 26.9644-6.7793 27.1675-6.98242 27.3706-7.18555 27.6139-7.28711 27.8975-7.28711 28.181-7.28711 28.4243-7.18555 28.6274-6.98242 28.8306-6.7793 28.9321-6.53597 28.9321-6.25244 28.9321-5.96891 28.8306-5.72559 28.6274-5.52246 28.4243-5.31934 28.181-5.21777 27.8975-5.21777ZM33.5869 0 33.5869-7.09033 34.7676-7.09033 34.7676-5.5415C35.4997-6.70524 36.4518-7.28711 37.624-7.28711 38.0514-7.28711 38.4788-7.22152 38.9062-7.09033L38.9062-4.53223 37.77-4.53223 37.77-6.15088C37.5711-6.18473 37.4146-6.20166 37.3003-6.20166 36.4159-6.20166 35.5716-5.50765 34.7676-4.11963L34.7676 0ZM46.8809-0.469727C45.9372-0.0211589 45.0443 0.203125 44.2021 0.203125 42.8818 0.203125 41.9085-0.410482 41.2822-1.6377 40.9775-2.22591 40.8252-2.85645 40.8252-3.5293 40.8252-4.17676 40.9648-4.79036 41.2441-5.37012 41.5361-5.97949 41.9413-6.45133 42.4597-6.78564 42.9781-7.11995 43.5547-7.28711 44.1895-7.28711 45.1797-7.28711 45.9139-6.90413 46.3921-6.13818 46.7856-5.50765 46.9824-4.66341 46.9824-3.60547L46.9824-3.35156 42.0947-3.35156C42.0947-2.89453 42.1857-2.46924 42.3677-2.07568 42.5666-1.63981 42.848-1.31185 43.2119-1.0918 43.5462-0.888672 43.9271-0.787109 44.3545-0.787109 45.1162-0.787109 45.9583-1.04102 46.8809-1.54883ZM42.1646-4.23389 45.7002-4.23389 45.7002-4.40478C45.7002-4.93633 45.5754-5.37296 45.3257-5.71468 45.0464-6.10281 44.6507-6.29688 44.1387-6.29688 43.1061-6.29688 42.4481-5.60921 42.1646-4.23389ZM53.7256-1.59326C53.4251-1.10238 53.0464-0.691894 52.5894-0.361816 52.0731 0.0105794 51.5547 0.196777 51.0342 0.196777 50.2682 0.196777 49.6758-0.14388 49.2568-0.825195 48.9056-1.39648 48.73-2.08838 48.73-2.90088 48.73-4.56396 49.3055-5.80811 50.4565-6.6333 50.9813-7.0057 51.6309-7.19189 52.4053-7.19189 52.6423-7.19189 52.9808-7.16862 53.4209-7.12207 53.4759-7.11784 53.5775-7.10726 53.7256-7.09033L53.7256-10.2451 54.9126-10.2451 54.9126 0 53.7256 0ZM53.7256-2.99609 53.7256-6.03662C53.3066-6.14665 52.9173-6.20166 52.5576-6.20166 51.7367-6.20166 51.0934-5.8737 50.6279-5.21777 50.2174-4.63379 50.0122-3.91439 50.0122-3.05957 50.0122-2.54753 50.1011-2.09473 50.2788-1.70117 50.5116-1.18913 50.8564-0.933105 51.3135-0.933105 51.7578-0.933105 52.2318-1.18066 52.7354-1.67578 53.112-2.04818 53.4421-2.48828 53.7256-2.99609Z" transform="matrix(1 0 0 1.0008 14.2982 23)"/></g></g></g><path d="M407.5 266.38C407.5 264.354 409.142 262.711 411.167 262.711L490.833 262.711C492.858 262.711 494.5 264.354 494.5 266.38L494.5 281.059C494.5 283.085 492.858 284.728 490.833 284.728L411.167 284.728C409.142 284.728 407.5 283.085 407.5 281.059Z" stroke="#BE4B48" stroke-linejoin="round" stroke-miterlimit="10" fill="url(#fill97)" fill-rule="evenodd"/><text font-family="Monaco,Monaco_MSFontService,sans-serif" font-weight="400" font-size="13" transform="matrix(1 0 0 1.0008 422.298 278)">key:red</text></g></svg>