<svg width="1280" height="720" xmlns="http://www.w3.org/2000/svg" xmlns:xlink="http://www.w3.org/1999/xlink" overflow="hidden"><defs><filter id="fx0" x="-10%" y="-10%" width="120%" height="120%" filterUnits="userSpaceOnUse" primitiveUnits="userSpaceOnUse"><feComponentTransfer color-interpolation-filters="sRGB"><feFuncR type="discrete" tableValues="0 0"/><feFuncG type="discrete" tableValues="0 0"/><feFuncB type="discrete" tableValues="0 0"/><feFuncA type="linear" slope="0.34902" intercept="0"/></feComponentTransfer><feGaussianBlur stdDeviation="1.39983 1.39983"/></filter><filter id="fx1" x="-10%" y="-10%" width="120%" height="120%" filterUnits="userSpaceOnUse" primitiveUnits="userSpaceOnUse"><feComponentTransfer color-interpolation-filters="sRGB"><feFuncR type="discrete" tableValues="0 0"/><feFuncG type="discrete" tableValues="0 0"/><feFuncB type="discrete" tableValues="0 0"/><feFuncA type="linear" slope="0.34902" intercept="0"/></feComponentTransfer><feGaussianBlur stdDeviation="1.39983 1.39983"/></filter><filter id="fx2" x="-10%" y="-10%" width="120%" height="120%" filterUnits="userSpaceOnUse" primitiveUnits="userSpaceOnUse"><feComponentTransfer color-interpolation-filters="sRGB"><feFuncR type="discrete" tableValues="0 0"/><feFuncG type="discrete" tableValues="0 0"/><feFuncB type="discrete" tableValues="0 0"/><feFuncA type="linear" slope="0.34902" intercept="0"/></feComponentTransfer><feGaussianBlur stdDeviation="1.39983 1.39983"/></filter><filter id="fx3" x="-10%" y="-10%" width="120%" height="120%" filterUnits="userSpaceOnUse" primitiveUnits="userSpaceOnUse"><feComponentTransfer color-interpolation-filters="sRGB"><feFuncR type="discrete" tableValues="0 0"/><feFuncG type="discrete" tableValues="0 0"/><feFuncB type="discrete" tableValues="0 0"/><feFuncA type="linear" slope="0.34902" intercept="0"/></feComponentTransfer><feGaussianBlur stdDeviation="1.39983 1.39983"/></filter><filter id="fx4" x="-10%" y="-10%" width="120%" height="120%" filterUnits="userSpaceOnUse" primitiveUnits="userSpaceOnUse"><feComponentTransfer color-interpolation-filters="sRGB"><feFuncR type="discrete" tableValues="0 0"/><feFuncG type="discrete" tableValues="0 0"/><feFuncB type="discrete" tableValues="0 0"/><feFuncA type="linear" slope="0.34902" intercept="0"/></feComponentTransfer><feGaussianBlur stdDeviation="1.39983 1.39983"/></filter><filter id="fx5" x="-10%" y="-10%" width="120%" height="120%" filterUnits="userSpaceOnUse" primitiveUnits="userSpaceOnUse"><feComponentTransfer color-interpolation-filters="sRGB"><feFuncR type="discrete" tableValues="0 0"/><feFuncG type="discrete" tableValues="0 0"/><feFuncB type="discrete" tableValues="0 0"/><feFuncA type="linear" slope="0.34902" intercept="0"/></feComponentTransfer><feGaussianBlur stdDeviation="1.39983 1.39983"/></filter><filter id="fx6" x="-10%" y="-10%" width="120%" height="120%" filterUnits="userSpaceOnUse" primitiveUnits="userSpaceOnUse"><feComponentTransfer color-interpolation-filters="sRGB"><feFuncR type="discrete" tableValues="0 0"/><feFuncG type="discrete" tableValues="0 0"/><feFuncB type="discrete" tableValues="0 0"/><feFuncA type="linear" slope="0.34902" intercept="0"/></feComponentTransfer><feGaussianBlur stdDeviation="1.39983 1.39983"/></filter><filter id="fx7" x="-10%" y="-10%" width="120%" height="120%" filterUnits="userSpaceOnUse" primitiveUnits="userSpaceOnUse"><feComponentTransfer color-interpolation-filters="sRGB"><feFuncR type="discrete" tableValues="0 0"/><feFuncG type="discrete" tableValues="0 0"/><feFuncB type="discrete" tableValues="0 0"/><feFuncA type="linear" slope="0.34902" intercept="0"/></feComponentTransfer><feGaussianBlur stdDeviation="1.39983 1.39983"/></filter><filter id="fx8" x="-10%" y="-10%" width="120%" height="120%" filterUnits="userSpaceOnUse" primitiveUnits="userSpaceOnUse"><feComponentTransfer color-interpolation-filters="sRGB"><feFuncR type="discrete" tableValues="0 0"/><feFuncG type="discrete" tableValues="0 0"/><feFuncB type="discrete" tableValues="0 0"/><feFuncA type="linear" slope="0.34902" intercept="0"/></feComponentTransfer><feGaussianBlur stdDeviation="1.39983 1.39983"/></filter><filter id="fx9" x="-10%" y="-10%" width="120%" height="120%" filterUnits="userSpaceOnUse" primitiveUnits="userSpaceOnUse"><feComponentTransfer color-interpolation-filters="sRGB"><feFuncR type="discrete" tableValues="0 0"/><feFuncG type="discrete" tableValues="0 0"/><feFuncB type="discrete" tableValues="0 0"/><feFuncA type="linear" slope="0.34902" intercept="0"/></feComponentTransfer><feGaussianBlur stdDeviation="1.39983 1.39983"/></filter><filter id="fx10" x="-10%" y="-10%" width="120%" height="120%" filterUnits="userSpaceOnUse" primitiveUnits="userSpaceOnUse"><feComponentTransfer color-interpolation-filters="sRGB"><feFuncR type="discrete" tableValues="0 0"/><feFuncG type="discrete" tableValues="0 0"/><feFuncB type="discrete" tableValues="0 0"/><feFuncA type="linear" slope="0.380392" intercept="0"/></feComponentTransfer><feGaussianBlur stdDeviation="1.39983 1.39983"/></filter><filter id="fx11" x="-10%" y="-10%" width="120%" height="120%" filterUnits="userSpaceOnUse" primitiveUnits="userSpaceOnUse"><feComponentTransfer color-interpolation-filters="sRGB"><feFuncR type="discrete" tableValues="0 0"/><feFuncG type="discrete" tableValues="0 0"/><feFuncB type="discrete" tableValues="0 0"/><feFuncA type="linear" slope="0.380392" intercept="0"/></feComponentTransfer><feGaussianBlur stdDeviation="1.39983 1.39983"/></filter><filter id="fx12" x="-10%" y="-10%" width="120%" height="120%" filterUnits="userSpaceOnUse" primitiveUnits="userSpaceOnUse"><feComponentTransfer color-interpolation-filters="sRGB"><feFuncR type="discrete" tableValues="0 0"/><feFuncG type="discrete" tableValues="0 0"/><feFuncB type="discrete" tableValues="0 0"/><feFuncA type="linear" slope="0.380392" intercept="0"/></feComponentTransfer><feGaussianBlur stdDeviation="1.39983 1.39983"/></filter><filter id="fx13" x="-10%" y="-10%" width="120%" height="120%" filterUnits="userSpaceOnUse" primitiveUnits="userSpaceOnUse"><feComponentTransfer color-interpolation-filters="sRGB"><feFuncR type="discrete" tableValues="0 0"/><feFuncG type="discrete" tableValues="0 0"/><feFuncB type="discrete" tableValues="0 0"/><feFuncA type="linear" slope="0.380392" intercept="0"/></feComponentTransfer><feGaussianBlur stdDeviation="1.39983 1.39983"/></filter><clipPath id="clip14"><rect x="0" y="0" width="1280" height="720"/></clipPath><clipPath id="clip15"><path d="M199.834 437.5C193.574 437.5 188.5 442.574 188.5 448.834L188.5 494.166C188.5 500.426 193.574 505.5 199.834 505.5L348.166 505.5C354.426 505.5 359.5 500.426 359.5 494.166L359.5 448.834C359.5 442.574 354.426 437.5 348.166 437.5ZM1.90735e-05 1.07288e-05 1280 1.07288e-05 1280 720 1.90735e-05 720Z" fill-rule="evenodd" clip-rule="evenodd"/></clipPath><clipPath id="clip16"><rect x="1" y="1" width="183" height="81"/></clipPath><clipPath id="clip17"><rect x="0" y="0" width="184" height="81"/></clipPath><clipPath id="clip18"><rect x="13" y="7" width="155" height="51"/></clipPath><clipPath id="clip19"><rect x="0" y="0" width="179" height="72"/></clipPath><linearGradient x1="274" y1="505.5" x2="274" y2="437.5" gradientUnits="userSpaceOnUse" spreadMethod="reflect" id="fill20"><stop offset="0" stop-color="#769535"/><stop offset="0.8" stop-color="#9BC348"/><stop offset="1" stop-color="#9CC746"/></linearGradient><clipPath id="clip21"><path d="M725.834 529.5C719.574 529.5 714.5 534.574 714.5 540.834L714.5 586.167C714.5 592.426 719.574 597.5 725.834 597.5L866.167 597.5C872.426 597.5 877.5 592.426 877.5 586.167L877.5 540.834C877.5 534.574 872.426 529.5 866.167 529.5ZM1.90735e-05 1.07288e-05 1280 1.07288e-05 1280 720 1.90735e-05 720Z" fill-rule="evenodd" clip-rule="evenodd"/></clipPath><clipPath id="clip22"><rect x="1" y="1" width="175" height="81"/></clipPath><clipPath id="clip23"><rect x="0" y="0" width="176" height="81"/></clipPath><clipPath id="clip24"><rect x="13" y="7" width="143" height="51"/></clipPath><clipPath id="clip25"><rect x="0" y="0" width="168" height="72"/></clipPath><linearGradient x1="796" y1="597.5" x2="796" y2="529.5" gradientUnits="userSpaceOnUse" spreadMethod="reflect" id="fill26"><stop offset="0" stop-color="#2787A0"/><stop offset="0.8" stop-color="#36B1D2"/><stop offset="1" stop-color="#34B3D6"/></linearGradient><clipPath id="clip27"><path d="M895.834 529.5C889.574 529.5 884.5 534.574 884.5 540.834L884.5 586.167C884.5 592.426 889.574 597.5 895.834 597.5L1036.17 597.5C1042.43 597.5 1047.5 592.426 1047.5 586.167L1047.5 540.834C1047.5 534.574 1042.43 529.5 1036.17 529.5ZM1.90735e-05 1.07288e-05 1280 1.07288e-05 1280 720 1.90735e-05 720Z" fill-rule="evenodd" clip-rule="evenodd"/></clipPath><clipPath id="clip28"><rect x="1" y="1" width="175" height="81"/></clipPath><clipPath id="clip29"><rect x="0" y="0" width="176" height="81"/></clipPath><clipPath id="clip30"><rect x="13" y="7" width="143" height="51"/></clipPath><clipPath id="clip31"><rect x="0" y="0" width="168" height="72"/></clipPath><linearGradient x1="966" y1="597.5" x2="966" y2="529.5" gradientUnits="userSpaceOnUse" spreadMethod="reflect" id="fill32"><stop offset="0" stop-color="#2787A0"/><stop offset="0.8" stop-color="#36B1D2"/><stop offset="1" stop-color="#34B3D6"/></linearGradient><clipPath id="clip33"><path d="M807.834 437.5C801.574 437.5 796.5 442.574 796.5 448.834L796.5 494.166C796.5 500.426 801.574 505.5 807.834 505.5L947.166 505.5C953.426 505.5 958.5 500.426 958.5 494.166L958.5 448.834C958.5 442.574 953.426 437.5 947.166 437.5ZM1.90735e-05 1.07288e-05 1280 1.07288e-05 1280 720 1.90735e-05 720Z" fill-rule="evenodd" clip-rule="evenodd"/></clipPath><clipPath id="clip34"><rect x="1" y="1" width="175" height="81"/></clipPath><clipPath id="clip35"><rect x="0" y="0" width="175" height="81"/></clipPath><clipPath id="clip36"><rect x="13" y="7" width="143" height="51"/></clipPath><clipPath id="clip37"><rect x="0" y="0" width="168" height="72"/></clipPath><linearGradient x1="877.5" y1="505.5" x2="877.5" y2="437.5" gradientUnits="userSpaceOnUse" spreadMethod="reflect" id="fill38"><stop offset="0" stop-color="#2787A0"/><stop offset="0.8" stop-color="#36B1D2"/><stop offset="1" stop-color="#34B3D6"/></linearGradient><clipPath id="clip39"><path d="M463.334 96.5001C454.589 96.5001 447.5 103.589 447.5 112.334L447.5 175.666C447.5 184.411 454.589 191.5 463.334 191.5L698.666 191.5C707.411 191.5 714.5 184.411 714.5 175.666L714.5 112.334C714.5 103.589 707.411 96.5001 698.666 96.5001ZM1.90735e-05 1.07288e-05 1280 1.07288e-05 1280 720 1.90735e-05 720Z" fill-rule="evenodd" clip-rule="evenodd"/></clipPath><clipPath id="clip40"><rect x="1" y="1" width="279" height="107"/></clipPath><clipPath id="clip41"><rect x="0" y="0" width="280" height="108"/></clipPath><clipPath id="clip42"><rect x="13" y="9" width="153" height="61"/></clipPath><clipPath id="clip43"><rect x="0" y="0" width="179" height="83"/></clipPath><linearGradient x1="581" y1="191.5" x2="581" y2="96.5001" gradientUnits="userSpaceOnUse" spreadMethod="reflect" id="fill44"><stop offset="0" stop-color="#5D417E"/><stop offset="0.8" stop-color="#7B58A6"/><stop offset="1" stop-color="#7B57A8"/></linearGradient><clipPath id="clip45"><rect x="9" y="7" width="177" height="289"/></clipPath><clipPath id="clip46"><rect x="0" y="0" width="186" height="295"/></clipPath><clipPath id="clip47"><rect x="9" y="-1" width="173" height="289"/></clipPath><clipPath id="clip48"><rect x="0" y="0" width="181" height="296"/></clipPath><clipPath id="clip49"><rect x="-1" y="3" width="449" height="21"/></clipPath><clipPath id="clip50"><rect x="0" y="0" width="456" height="28"/></clipPath><clipPath id="clip51"><rect x="5" y="7" width="21" height="219"/></clipPath><clipPath id="clip52"><rect x="0" y="0" width="29" height="227"/></clipPath></defs><g clip-path="url(#clip14)"><rect x="0" y="0" width="1280" height="720" fill="#FFFFFF"/><path d="M858.278 91.6681C854.182 63.961 875.272 38.4448 905.384 34.6759 917.585 33.1487 929.991 35.4317 940.616 41.1595 951.874 21.6322 978.182 14.2109 999.377 24.5834 1003.08 26.3972 1006.48 28.696 1009.47 31.4083 1018.24 15.2217 1039.6 8.64549 1057.18 16.7199 1062.04 18.9547 1066.29 22.1868 1069.58 26.1678 1083.72 10.8605 1108.69 8.96963 1125.36 21.9445 1132.37 27.3978 1137.09 34.9194 1138.72 43.2197 1161.88 49.0336 1175.54 71.0559 1169.23 92.408 1168.7 94.203 1168.04 95.9619 1167.24 97.6717 1185.81 119.92 1181.27 151.809 1157.09 168.897 1149.56 174.216 1140.67 177.66 1131.28 178.896 1131.07 202.832 1109.79 222.081 1083.76 221.889 1075.07 221.825 1066.56 219.549 1059.18 215.314 1050.37 242.149 1019.66 257.317 990.58 249.192 978.393 245.786 967.862 238.585 960.785 228.817 931.01 245.344 892.363 236.453 874.464 208.96 874.239 208.613 874.017 208.264 873.8 207.914 854.313 210.013 836.662 197.216 834.375 179.333 833.156 169.8 836.575 160.259 843.721 153.252 826.849 144.111 821.181 124.047 831.062 108.438 836.763 99.4328 846.76 93.4797 857.981 92.4094Z" fill="#7030A0" fill-rule="evenodd" fill-opacity="0.141176"/><path d="M733.4 116.342C733.4 119.993 730.44 122.953 726.789 122.953 723.138 122.953 720.178 119.993 720.178 116.342 720.178 112.691 723.138 109.731 726.789 109.731 730.44 109.731 733.4 112.691 733.4 116.342Z" fill="#7030A0" fill-rule="evenodd" fill-opacity="0.141176"/><path d="M769.041 117.938C769.041 125.24 763.121 131.16 755.818 131.16 748.516 131.16 742.596 125.24 742.596 117.938 742.596 110.636 748.516 104.716 755.818 104.716 763.121 104.716 769.041 110.636 769.041 117.938Z" fill="#7030A0" fill-rule="evenodd" fill-opacity="0.141176"/><path d="M817.883 120.26C817.883 131.213 809.004 140.093 798.05 140.093 787.096 140.093 778.216 131.213 778.216 120.26 778.216 109.306 787.096 100.426 798.05 100.426 809.004 100.426 817.883 109.306 817.883 120.26Z" fill="#7030A0" fill-rule="evenodd" fill-opacity="0.141176"/><path d="M858.278 91.6681C854.182 63.961 875.272 38.4448 905.384 34.6759 917.585 33.1487 929.991 35.4317 940.616 41.1595 951.874 21.6322 978.182 14.2109 999.377 24.5834 1003.08 26.3972 1006.48 28.696 1009.47 31.4083 1018.24 15.2217 1039.6 8.64549 1057.18 16.7199 1062.04 18.9547 1066.29 22.1868 1069.58 26.1678 1083.72 10.8605 1108.69 8.96963 1125.36 21.9445 1132.37 27.3978 1137.09 34.9194 1138.72 43.2197 1161.88 49.0336 1175.54 71.0559 1169.23 92.408 1168.7 94.203 1168.04 95.9619 1167.24 97.6717 1185.81 119.92 1181.27 151.809 1157.09 168.897 1149.56 174.216 1140.67 177.66 1131.28 178.896 1131.07 202.832 1109.79 222.081 1083.76 221.889 1075.07 221.825 1066.56 219.549 1059.18 215.314 1050.37 242.149 1019.66 257.317 990.58 249.192 978.393 245.786 967.862 238.585 960.785 228.817 931.01 245.344 892.363 236.453 874.464 208.96 874.239 208.613 874.017 208.264 873.8 207.914 854.313 210.013 836.662 197.216 834.375 179.333 833.156 169.8 836.575 160.259 843.721 153.252 826.849 144.111 821.181 124.047 831.062 108.438 836.763 99.4328 846.76 93.4797 857.981 92.4094Z" stroke="#7030A0" stroke-width="2.66667" stroke-linejoin="round" stroke-miterlimit="10" fill="none" fill-rule="evenodd"/><path d="M733.4 116.342C733.4 119.993 730.44 122.953 726.789 122.953 723.138 122.953 720.178 119.993 720.178 116.342 720.178 112.691 723.138 109.731 726.789 109.731 730.44 109.731 733.4 112.691 733.4 116.342Z" stroke="#7030A0" stroke-width="2.66667" stroke-linejoin="round" stroke-miterlimit="10" fill="none" fill-rule="evenodd"/><path d="M769.041 117.938C769.041 125.24 763.121 131.16 755.818 131.16 748.516 131.16 742.596 125.24 742.596 117.938 742.596 110.636 748.516 104.716 755.818 104.716 763.121 104.716 769.041 110.636 769.041 117.938Z" stroke="#7030A0" stroke-width="2.66667" stroke-linejoin="round" stroke-miterlimit="10" fill="none" fill-rule="evenodd"/><path d="M817.883 120.26C817.883 131.213 809.004 140.093 798.05 140.093 787.096 140.093 778.216 131.213 778.216 120.26 778.216 109.306 787.096 100.426 798.05 100.426 809.004 100.426 817.883 109.306 817.883 120.26Z" stroke="#7030A0" stroke-width="2.66667" stroke-linejoin="round" stroke-miterlimit="10" fill="none" fill-rule="evenodd"/><path d="M864.739 156.716C857.536 157.235 850.334 155.703 844.099 152.325M882.95 204.768C880.054 205.829 877.018 206.536 873.92 206.869M960.765 227.857C958.587 224.85 956.762 221.636 955.324 218.271M1061.39 203.952C1061.07 207.519 1060.34 211.045 1059.21 214.471M1104.59 138.96C1120.92 146.275 1131.23 161.568 1131.08 178.272M1167.08 97.0892C1164.43 102.777 1160.39 107.823 1155.28 111.83M1138.77 42.3933C1139.22 44.6902 1139.43 47.0215 1139.39 49.3551M1063.43 34.2726C1064.97 31.0608 1067 28.0703 1069.48 25.3942M1006.91 38.5038C1007.54 35.8495 1008.52 33.2774 1009.84 30.8468M940.574 41.1041C944.418 43.1766 947.975 45.6711 951.166 48.5327M860.127 99.4857C859.288 96.9294 858.67 94.316 858.279 91.67" stroke="#7030A0" stroke-width="2.66667" stroke-linejoin="round" stroke-miterlimit="10" fill="none" fill-rule="evenodd"/><path d="M71 413.008C71 405.272 77.2716 399 85.0079 399L1075.99 399C1083.73 399 1090 405.272 1090 413.008L1090 671.992C1090 679.728 1083.73 686 1075.99 686L85.0079 686C77.2716 686 71 679.728 71 671.992Z" fill="#EBF1DE" fill-rule="evenodd"/><text fill="#AD2B26" font-family="Monaco,Monaco_MSFontService,sans-serif" font-weight="400" font-size="24" transform="translate(487.405 671)">eureka<tspan font-size="24" x="86" y="0">-</tspan><tspan font-size="24" x="100.333" y="0">client</tspan><tspan fill="#262626" font-size="24" x="-399.422" y="-578">Eureka </tspan><tspan fill="#262626" font-family="SimHei,SimHei_MSFontService,sans-serif" font-size="24" x="-299.088" y="-578">的作用</tspan></text><g clip-path="url(#clip15)"><g clip-path="url(#clip16)" filter="url(#fx0)" transform="translate(182 433)"><g clip-path="url(#clip17)"><path d="M6.50005 18.2484C6.50005 11.989 11.5743 6.91476 17.8337 6.91476L166.166 6.91476C172.426 6.91476 177.5 11.989 177.5 18.2484L177.5 63.5812C177.5 69.8405 172.426 74.9148 166.166 74.9148L17.8337 74.9148C11.5743 74.9148 6.50005 69.8405 6.50005 63.5812Z" stroke="#98B954" stroke-linejoin="round" stroke-miterlimit="10" fill="#FF0000" fill-rule="evenodd"/></g></g><g clip-path="url(#clip18)" filter="url(#fx1)" transform="translate(184 440)"><g clip-path="url(#clip19)"><path d="M5.70557 0.287598C4.18408 0.287598 2.97184-0.253581 2.06885-1.33594 1.2277-2.35026 0.807129-3.63363 0.807129-5.18604 0.807129-6.73844 1.23079-8.01872 2.07812-9.02686 2.97493-10.1092 4.18408-10.6504 5.70557-10.6504 7.22087-10.6504 8.43001-10.1092 9.33301-9.02686 10.1742-8.01253 10.5947-6.73226 10.5947-5.18604 10.5947-3.63981 10.1742-2.35645 9.33301-1.33594 8.43001-0.253581 7.22087 0.287598 5.70557 0.287598ZM5.70557-1.15967C6.74463-1.15967 7.53011-1.5916 8.06201-2.45545 8.50114-3.17126 8.7207-4.08145 8.7207-5.18604 8.7207-6.28443 8.49805-7.19154 8.05273-7.90734 7.52083-8.7712 6.73844-9.20312 5.70557-9.20312 4.6665-9.20312 3.88102-8.77424 3.34912-7.91647 2.90381-7.20076 2.68115-6.29062 2.68115-5.18604 2.68115-4.08145 2.90381-3.17126 3.34912-2.45545 3.88102-1.5916 4.6665-1.15967 5.70557-1.15967ZM13.486 0 13.486-10.3628 15.2116-10.3628 15.2116-8.09912C16.2816-9.79997 17.6732-10.6504 19.3864-10.6504 20.0111-10.6504 20.6357-10.5545 21.2604-10.3628L21.2604-6.62402 19.5998-6.62402 19.5998-8.98975C19.3091-9.03922 19.0802-9.06396 18.9132-9.06396 17.6206-9.06396 16.3867-8.04964 15.2116-6.021L15.2116 0ZM30.7015-2.32861C30.2624-1.61117 29.7088-1.01123 29.0409-0.528809 28.2863 0.0154622 27.5286 0.287598 26.7679 0.287598 25.6484 0.287598 24.7826-0.210286 24.1702-1.20605 23.6569-2.04102 23.4002-3.05225 23.4002-4.23975 23.4002-6.67041 24.2414-8.48877 25.9237-9.69482 26.6906-10.2391 27.64-10.5112 28.7718-10.5112 29.1182-10.5112 29.613-10.4772 30.2562-10.4092 30.3366-10.403 30.485-10.3875 30.7015-10.3628L30.7015-14.9736 32.4364-14.9736 32.4364 0 30.7015 0ZM30.7015-4.37891 30.7015-8.82275C30.0892-8.98356 29.5202-9.06396 28.9945-9.06396 27.7946-9.06396 26.8545-8.58463 26.1742-7.62598 25.5742-6.77246 25.2743-5.72103 25.2743-4.47168 25.2743-3.72331 25.4041-3.06152 25.6639-2.48633 26.0041-1.73796 26.5081-1.36377 27.1761-1.36377 27.8255-1.36377 28.5182-1.72559 29.2542-2.44922 29.8047-2.99349 30.2871-3.63672 30.7015-4.37891ZM43.5566-0.686523C42.1774-0.0309245 40.8724 0.296875 39.6416 0.296875 37.7119 0.296875 36.2894-0.599935 35.374-2.39355 34.9287-3.25326 34.7061-4.1748 34.7061-5.1582 34.7061-6.10449 34.9102-7.0013 35.3184-7.84863 35.7451-8.73926 36.3373-9.42887 37.095-9.91748 37.8526-10.4061 38.6953-10.6504 39.623-10.6504 41.0703-10.6504 42.1434-10.0907 42.8423-8.97119 43.4175-8.04964 43.7051-6.81575 43.7051-5.26953L43.7051-4.89844 36.5615-4.89844C36.5615-4.23047 36.6945-3.60889 36.9604-3.03369 37.2511-2.39665 37.6624-1.91732 38.1943-1.5957 38.6829-1.29883 39.2396-1.15039 39.8643-1.15039 40.9775-1.15039 42.2083-1.52148 43.5566-2.26367ZM36.6636-6.18799 41.8311-6.18799 41.8311-6.43775C41.8311-7.21463 41.6486-7.85279 41.2837-8.35222 40.8755-8.91949 40.2972-9.20312 39.5488-9.20312 38.0397-9.20312 37.078-8.19808 36.6636-6.18799ZM46.986 0 46.986-10.3628 48.7116-10.3628 48.7116-8.09912C49.7816-9.79997 51.1732-10.6504 52.8864-10.6504 53.5111-10.6504 54.1357-10.5545 54.7604-10.3628L54.7604-6.62402 53.0998-6.62402 53.0998-8.98975C52.8091-9.03922 52.5802-9.06396 52.4132-9.06396 51.1206-9.06396 49.8867-8.04964 48.7116-6.021L48.7116 0Z" fill="#FFFFFF" transform="translate(17.1678 29)"/><path d="M2.10596-5.11182 2.10596-6.5498 9.30518-6.5498 9.30518-5.11182Z" fill="#FFFFFF" transform="translate(73.0011 29)"/><path d="M1.55859-0.547363 1.55859-2.375C2.81413-1.56478 4.20264-1.15967 5.72412-1.15967 7.36312-1.15967 8.18262-1.65088 8.18262-2.63332 8.18262-3.01021 7.99707-3.32535 7.62598-3.57874 7.4528-3.69615 7.10335-3.86295 6.57764-4.07913L5.98389-4.3202 4.78711-4.79291C3.80371-5.18217 3.13265-5.51891 2.77393-5.80312 2.15544-6.29125 1.84619-6.93076 1.84619-7.72165 1.84619-8.79057 2.30387-9.57219 3.21924-10.0665 3.9305-10.4558 4.87061-10.6504 6.03955-10.6504 7.14665-10.6504 8.19499-10.4896 9.18457-10.168L9.18457-8.6001C8.04655-9.00212 6.97656-9.20312 5.97461-9.20312 5.41797-9.20312 4.92936-9.11663 4.50879-8.94365 3.93359-8.70263 3.646-8.34115 3.646-7.85921 3.646-7.44521 3.93359-7.08064 4.50879-6.7655 4.71289-6.65437 5.17985-6.46592 5.90967-6.20016L7.07861-5.77384C7.98779-5.44024 8.65267-5.09732 9.07324-4.74507 9.67936-4.23221 9.98242-3.58033 9.98242-2.78944 9.98242-1.67731 9.51237-0.858637 8.57227-0.333405 7.83008 0.0805969 6.85286 0.287598 5.64062 0.287598 4.31706 0.287598 2.95638 0.00927733 1.55859-0.547363ZM21.2233-0.686523C19.8441-0.0309245 18.5391 0.296875 17.3083 0.296875 15.3786 0.296875 13.9561-0.599935 13.0407-2.39355 12.5954-3.25326 12.3727-4.1748 12.3727-5.1582 12.3727-6.10449 12.5768-7.0013 12.985-7.84863 13.4118-8.73926 14.004-9.42887 14.7616-9.91748 15.5193-10.4061 16.362-10.6504 17.2897-10.6504 18.737-10.6504 19.8101-10.0907 20.509-8.97119 21.0841-8.04964 21.3717-6.81575 21.3717-5.26953L21.3717-4.89844 14.2282-4.89844C14.2282-4.23047 14.3612-3.60889 14.6271-3.03369 14.9178-2.39665 15.3291-1.91732 15.861-1.5957 16.3496-1.29883 16.9062-1.15039 17.5309-1.15039 18.6442-1.15039 19.875-1.52148 21.2233-2.26367ZM14.3302-6.18799 19.4977-6.18799 19.4977-6.43775C19.4977-7.21463 19.3153-7.85279 18.9504-8.35222 18.5422-8.91949 17.9639-9.20312 17.2155-9.20312 15.7064-9.20312 14.7446-8.19808 14.3302-6.18799ZM24.6527 0 24.6527-10.3628 26.3783-10.3628 26.3783-8.09912C27.4482-9.79997 28.8398-10.6504 30.5531-10.6504 31.1777-10.6504 31.8024-10.5545 32.4271-10.3628L32.4271-6.62402 30.7664-6.62402 30.7664-8.98975C30.4757-9.03922 30.2469-9.06396 30.0799-9.06396 28.7873-9.06396 27.5534-8.04964 26.3783-6.021L26.3783 0ZM38.3057 0 33.8063-10.3628 35.6974-10.3628 39.2502-2.15698 42.8732-10.3628 44.605-10.3628 40.0682 0ZM49.0177 0 49.0177-8.91553 46.1418-8.91553 46.1418-10.3628 50.7433-10.3628 50.7433-1.44727 53.6286-1.44727 53.6286 0ZM48.7301-14.1016C48.7301-14.4232 48.8415-14.6969 49.0641-14.9226 49.2868-15.1484 49.5589-15.2612 49.8805-15.2612 50.2021-15.2612 50.4758-15.1484 50.7016-14.9226 50.9273-14.6969 51.0402-14.4232 51.0402-14.1016 51.0402-13.7861 50.9273-13.5155 50.7016-13.2898 50.4758-13.064 50.2021-12.9512 49.8805-12.9512 49.5651-12.9512 49.2945-13.064 49.0688-13.2898 48.843-13.5155 48.7301-13.7861 48.7301-14.1016ZM65.992-0.296875C64.8354 0.0927734 63.7345 0.287598 62.6893 0.287598 61.6935 0.287598 60.7905 0.061849 59.9803-0.389648 59.1515-0.859701 58.5021-1.52458 58.0321-2.38428 57.5806-3.20068 57.3548-4.13151 57.3548-5.17676 57.3548-6.69824 57.8465-7.9847 58.8299-9.03613 59.8319-10.1123 61.0874-10.6504 62.5965-10.6504 63.6665-10.6504 64.7983-10.4494 65.992-10.0474L65.992-8.38672C64.786-8.93099 63.7067-9.20312 62.7542-9.20312 61.2946-9.20312 60.271-8.56067 59.6834-7.27576 59.3804-6.61475 59.2288-5.93518 59.2288-5.23706 59.2288-4.11276 59.5505-3.18614 60.1937-2.45719 60.8617-1.68495 61.7492-1.29883 62.8563-1.29883 63.6541-1.29883 64.6994-1.51839 65.992-1.95752ZM77.0566-0.686523C75.6774-0.0309245 74.3724 0.296875 73.1416 0.296875 71.2119 0.296875 69.7894-0.599935 68.874-2.39355 68.4287-3.25326 68.2061-4.1748 68.2061-5.1582 68.2061-6.10449 68.4102-7.0013 68.8184-7.84863 69.2451-8.73926 69.8373-9.42887 70.595-9.91748 71.3526-10.4061 72.1953-10.6504 73.123-10.6504 74.5703-10.6504 75.6434-10.0907 76.3423-8.97119 76.9175-8.04964 77.2051-6.81575 77.2051-5.26953L77.2051-4.89844 70.0615-4.89844C70.0615-4.23047 70.1945-3.60889 70.4604-3.03369 70.7511-2.39665 71.1624-1.91732 71.6943-1.5957 72.1829-1.29883 72.7396-1.15039 73.3643-1.15039 74.4775-1.15039 75.7083-1.52148 77.0566-2.26367ZM70.1636-6.18799 75.3311-6.18799 75.3311-6.43775C75.3311-7.21463 75.1486-7.85279 74.7837-8.35222 74.3755-8.91949 73.7972-9.20312 73.0488-9.20312 71.5397-9.20312 70.578-8.19808 70.1636-6.18799Z" fill="#FFFFFF" transform="translate(84.1678 29)"/><path d="M4.2583-7.76514 3.94287-7.99707C2.6626-8.93717 2.02246-10.0566 2.02246-11.3555 2.02246-12.4007 2.43685-13.2542 3.26562-13.916 4.03874-14.5221 4.96029-14.8252 6.03027-14.8252 7.56413-14.8252 8.64339-14.318 9.26807-13.3037 9.57731-12.8027 9.73193-12.2554 9.73193-11.6616 9.73193-10.87 9.45052-10.0999 8.8877-9.35156 8.60319-8.97428 8.04346-8.44547 7.2085-7.76514L7.98779-7.14355C8.87842-6.43229 9.49072-5.79215 9.82471-5.22314 10.1401-4.68506 10.2979-4.08203 10.2979-3.41406 10.2979-2.1709 9.84326-1.20296 8.93408-0.510254 8.10531 0.120605 7.05078 0.436035 5.77051 0.436035 4.47168 0.436035 3.41715 0.145345 2.60693-0.436035 1.69157-1.09782 1.23389-2.05029 1.23389-3.29346 1.23389-4.87061 2.24202-6.36117 4.2583-7.76514ZM6.03027-8.64648C7.34147-9.64032 7.99707-10.6064 7.99707-11.5446 7.99707-12.0878 7.76204-12.5354 7.29199-12.8872 6.85905-13.2144 6.36426-13.3779 5.80762-13.3779 5.23242-13.3779 4.74072-13.2051 4.33252-12.8594 3.89958-12.4952 3.68311-12.0322 3.68311-11.4706 3.68311-10.7175 4.32015-9.88105 5.59424-8.96133ZM5.55713-6.84668C3.92432-5.59115 3.10791-4.41602 3.10791-3.32129 3.10791-2.63477 3.39551-2.06885 3.9707-1.62354 4.5026-1.21533 5.12109-1.01123 5.82617-1.01123 6.49414-1.01123 7.0848-1.21224 7.59814-1.61426 8.15479-2.05339 8.43311-2.59766 8.43311-3.24707 8.43311-4.14388 7.65999-5.1984 6.11377-6.41064ZM16.863-14.8252C18.6999-14.8252 20.0482-13.9624 20.9079-12.2368 21.5697-10.9194 21.9006-9.24023 21.9006-7.19922 21.9006-5.15202 21.5728-3.46973 20.9172-2.15234 20.0513-0.426758 18.6999 0.436035 16.863 0.436035 15.026 0.436035 13.6777-0.42985 12.818-2.16162 12.1562-3.479 11.8254-5.1582 11.8254-7.19922 11.8254-9.23405 12.1562-10.9132 12.818-12.2368 13.6839-13.9624 15.0322-14.8252 16.863-14.8252ZM14.0545-4.11755 19.0363-11.9198C18.4979-12.8919 17.774-13.3779 16.8644-13.3779 15.6701-13.3779 14.8008-12.6116 14.2563-11.079 13.885-10.0223 13.6994-8.76163 13.6994-7.29707 13.6994-6.17847 13.8178-5.11863 14.0545-4.11755ZM19.6554-10.2051 14.7103-2.35659C15.2422-1.45968 15.935-1.01123 16.7886-1.01123 18.0256-1.01123 18.9193-1.81135 19.4699-3.4116 19.8472-4.49908 20.0358-5.81206 20.0358-7.35056 20.0358-8.33917 19.909-9.29068 19.6554-10.2051ZM26.5916-7.76514 26.2762-7.99707C24.9959-8.93717 24.3558-10.0566 24.3558-11.3555 24.3558-12.4007 24.7702-13.2542 25.599-13.916 26.3721-14.5221 27.2936-14.8252 28.3636-14.8252 29.8975-14.8252 30.9767-14.318 31.6014-13.3037 31.9106-12.8027 32.0653-12.2554 32.0653-11.6616 32.0653-10.87 31.7839-10.0999 31.221-9.35156 30.9365-8.97428 30.3768-8.44547 29.5418-7.76514L30.3211-7.14355C31.2118-6.43229 31.8241-5.79215 32.158-5.22314 32.4735-4.68506 32.6312-4.08203 32.6312-3.41406 32.6312-2.1709 32.1766-1.20296 31.2674-0.510254 30.4386 0.120605 29.3841 0.436035 28.1038 0.436035 26.805 0.436035 25.7505 0.145345 24.9403-0.436035 24.0249-1.09782 23.5672-2.05029 23.5672-3.29346 23.5672-4.87061 24.5754-6.36117 26.5916-7.76514ZM28.3636-8.64648C29.6748-9.64032 30.3304-10.6064 30.3304-11.5446 30.3304-12.0878 30.0954-12.5354 29.6253-12.8872 29.1924-13.2144 28.6976-13.3779 28.141-13.3779 27.5658-13.3779 27.0741-13.2051 26.6659-12.8594 26.2329-12.4952 26.0164-12.0322 26.0164-11.4706 26.0164-10.7175 26.6535-9.88105 27.9276-8.96133ZM27.8905-6.84668C26.2577-5.59115 25.4412-4.41602 25.4412-3.32129 25.4412-2.63477 25.7288-2.06885 26.304-1.62354 26.8359-1.21533 27.4544-1.01123 28.1595-1.01123 28.8275-1.01123 29.4181-1.21224 29.9315-1.61426 30.4881-2.05339 30.7664-2.59766 30.7664-3.24707 30.7664-4.14388 29.9933-5.1984 28.4471-6.41064ZM39.1963-14.8252C41.0332-14.8252 42.3815-13.9624 43.2412-12.2368 43.903-10.9194 44.2339-9.24023 44.2339-7.19922 44.2339-5.15202 43.9061-3.46973 43.2505-2.15234 42.3846-0.426758 41.0332 0.436035 39.1963 0.436035 37.3594 0.436035 36.0111-0.42985 35.1514-2.16162 34.4896-3.479 34.1587-5.1582 34.1587-7.19922 34.1587-9.23405 34.4896-10.9132 35.1514-12.2368 36.0173-13.9624 37.3656-14.8252 39.1963-14.8252ZM36.3879-4.11755 41.3697-11.9198C40.8313-12.8919 40.1073-13.3779 39.1977-13.3779 38.0035-13.3779 37.1341-12.6116 36.5896-11.079 36.2184-10.0223 36.0327-8.76163 36.0327-7.29707 36.0327-6.17847 36.1511-5.11863 36.3879-4.11755ZM41.9888-10.2051 37.0437-2.35659C37.5756-1.45968 38.2683-1.01123 39.1219-1.01123 40.3589-1.01123 41.2527-1.81135 41.8032-3.4116 42.1805-4.49908 42.3691-5.81206 42.3691-7.35056 42.3691-8.33917 42.2423-9.29068 41.9888-10.2051Z" fill="#FFFFFF" transform="translate(67.4144 51)"/></g></g></g><path d="M188.5 448.834C188.5 442.574 193.574 437.5 199.834 437.5L348.166 437.5C354.426 437.5 359.5 442.574 359.5 448.834L359.5 494.166C359.5 500.426 354.426 505.5 348.166 505.5L199.834 505.5C193.574 505.5 188.5 500.426 188.5 494.166Z" stroke="#98B954" stroke-linejoin="round" stroke-miterlimit="10" fill="url(#fill20)" fill-rule="evenodd"/><text fill="#FFFFFF" font-family="Monaco,Monaco_MSFontService,sans-serif" font-weight="400" font-size="19" transform="translate(201.168 467)">order<tspan font-size="19" x="55.8333" y="0">-</tspan><tspan font-size="19" x="67" y="0">service</tspan><tspan font-size="19" x="50.2467" y="22">8080</tspan></text><g clip-path="url(#clip21)"><g clip-path="url(#clip22)" filter="url(#fx2)" transform="translate(708 525)"><g clip-path="url(#clip23)"><path d="M6.50006 18.2483C6.50006 11.9889 11.5743 6.91473 17.8336 6.91473L158.167 6.91473C164.426 6.91473 169.5 11.9889 169.5 18.2483L169.5 63.5812C169.5 69.8405 164.426 74.9147 158.167 74.9147L17.8336 74.9147C11.5743 74.9147 6.50006 69.8405 6.50006 63.5812Z" stroke="#46AAC5" stroke-linejoin="round" stroke-miterlimit="10" fill="#FF0000" fill-rule="evenodd"/></g></g><g clip-path="url(#clip24)" filter="url(#fx3)" transform="translate(712 532)"><g clip-path="url(#clip25)"><path d="M9.97314-10.3628 9.97314 0 8.24756 0 8.24756-2.27295C7.13428-0.565918 5.83545 0.287598 4.35107 0.287598 3.75732 0.287598 3.21305 0.132975 2.71826-0.17627 2.19873-0.504069 1.83691-0.940104 1.63281-1.48438 1.4349-2.01009 1.33594-3.03988 1.33594-4.57373L1.33594-10.3628 3.06152-10.3628 3.06152-4.36035C3.06152-3.57487 3.07699-3.08317 3.10791-2.88525 3.18831-2.29769 3.3986-1.87093 3.73877-1.60498 3.99235-1.40088 4.26758-1.29883 4.56445-1.29883 5.26335-1.29883 5.98698-1.64827 6.73535-2.34717 7.35384-2.91618 7.85791-3.57487 8.24756-4.32324L8.24756-10.3628ZM12.7253-0.547363 12.7253-2.375C13.9808-1.56478 15.3693-1.15967 16.8908-1.15967 18.5298-1.15967 19.3493-1.65088 19.3493-2.63332 19.3493-3.01021 19.1637-3.32535 18.7926-3.57874 18.6195-3.69615 18.27-3.86295 17.7443-4.07913L17.1506-4.3202 15.9538-4.79291C14.9704-5.18217 14.2993-5.51891 13.9406-5.80312 13.3221-6.29125 13.0129-6.93076 13.0129-7.72165 13.0129-8.79057 13.4705-9.57219 14.3859-10.0665 15.0972-10.4558 16.0373-10.6504 17.2062-10.6504 18.3133-10.6504 19.3617-10.4896 20.3512-10.168L20.3512-8.6001C19.2132-9.00212 18.1432-9.20312 17.1413-9.20312 16.5846-9.20312 16.096-9.11663 15.6755-8.94365 15.1003-8.70263 14.8127-8.34115 14.8127-7.85921 14.8127-7.44521 15.1003-7.08064 15.6755-6.7655 15.8796-6.65437 16.3465-6.46592 17.0763-6.20016L18.2453-5.77384C19.1545-5.44024 19.8193-5.09732 20.2399-4.74507 20.846-4.23221 21.1491-3.58033 21.1491-2.78944 21.1491-1.67731 20.679-0.858637 19.7389-0.333405 18.9967 0.0805969 18.0195 0.287598 16.8073 0.287598 15.4837 0.287598 14.123 0.00927733 12.7253-0.547363ZM32.39-0.686523C31.0107-0.0309245 29.7057 0.296875 28.4749 0.296875 26.5452 0.296875 25.1227-0.599935 24.2074-2.39355 23.762-3.25326 23.5394-4.1748 23.5394-5.1582 23.5394-6.10449 23.7435-7.0013 24.1517-7.84863 24.5784-8.73926 25.1707-9.42887 25.9283-9.91748 26.686-10.4061 27.5286-10.6504 28.4564-10.6504 29.9036-10.6504 30.9767-10.0907 31.6756-8.97119 32.2508-8.04964 32.5384-6.81575 32.5384-5.26953L32.5384-4.89844 25.3949-4.89844C25.3949-4.23047 25.5278-3.60889 25.7938-3.03369 26.0845-2.39665 26.4958-1.91732 27.0277-1.5957 27.5163-1.29883 28.0729-1.15039 28.6976-1.15039 29.8109-1.15039 31.0417-1.52148 32.39-2.26367ZM25.4969-6.18799 30.6644-6.18799 30.6644-6.43775C30.6644-7.21463 30.4819-7.85279 30.117-8.35222 29.7088-8.91949 29.1305-9.20312 28.3822-9.20312 26.873-9.20312 25.9113-8.19808 25.4969-6.18799ZM35.8193 0 35.8193-10.3628 37.5449-10.3628 37.5449-8.09912C38.6149-9.79997 40.0065-10.6504 41.7197-10.6504 42.3444-10.6504 42.9691-10.5545 43.5938-10.3628L43.5938-6.62402 41.9331-6.62402 41.9331-8.98975C41.6424-9.03922 41.4136-9.06396 41.2466-9.06396 39.9539-9.06396 38.7201-8.04964 37.5449-6.021L37.5449 0Z" fill="#FFFFFF" transform="translate(16.6896 29)"/><path d="M2.10596-5.11182 2.10596-6.5498 9.30518-6.5498 9.30518-5.11182Z" fill="#FFFFFF" transform="translate(61.3562 29)"/><path d="M1.55859-0.547363 1.55859-2.375C2.81413-1.56478 4.20264-1.15967 5.72412-1.15967 7.36312-1.15967 8.18262-1.65088 8.18262-2.63332 8.18262-3.01021 7.99707-3.32535 7.62598-3.57874 7.4528-3.69615 7.10335-3.86295 6.57764-4.07913L5.98389-4.3202 4.78711-4.79291C3.80371-5.18217 3.13265-5.51891 2.77393-5.80312 2.15544-6.29125 1.84619-6.93076 1.84619-7.72165 1.84619-8.79057 2.30387-9.57219 3.21924-10.0665 3.9305-10.4558 4.87061-10.6504 6.03955-10.6504 7.14665-10.6504 8.19499-10.4896 9.18457-10.168L9.18457-8.6001C8.04655-9.00212 6.97656-9.20312 5.97461-9.20312 5.41797-9.20312 4.92936-9.11663 4.50879-8.94365 3.93359-8.70263 3.646-8.34115 3.646-7.85921 3.646-7.44521 3.93359-7.08064 4.50879-6.7655 4.71289-6.65437 5.17985-6.46592 5.90967-6.20016L7.07861-5.77384C7.98779-5.44024 8.65267-5.09732 9.07324-4.74507 9.67936-4.23221 9.98242-3.58033 9.98242-2.78944 9.98242-1.67731 9.51237-0.858637 8.57227-0.333405 7.83008 0.0805969 6.85286 0.287598 5.64062 0.287598 4.31706 0.287598 2.95638 0.00927733 1.55859-0.547363ZM21.2233-0.686523C19.8441-0.0309245 18.5391 0.296875 17.3083 0.296875 15.3786 0.296875 13.9561-0.599935 13.0407-2.39355 12.5954-3.25326 12.3727-4.1748 12.3727-5.1582 12.3727-6.10449 12.5768-7.0013 12.985-7.84863 13.4118-8.73926 14.004-9.42887 14.7616-9.91748 15.5193-10.4061 16.362-10.6504 17.2897-10.6504 18.737-10.6504 19.8101-10.0907 20.509-8.97119 21.0841-8.04964 21.3717-6.81575 21.3717-5.26953L21.3717-4.89844 14.2282-4.89844C14.2282-4.23047 14.3612-3.60889 14.6271-3.03369 14.9178-2.39665 15.3291-1.91732 15.861-1.5957 16.3496-1.29883 16.9062-1.15039 17.5309-1.15039 18.6442-1.15039 19.875-1.52148 21.2233-2.26367ZM14.3302-6.18799 19.4977-6.18799 19.4977-6.43775C19.4977-7.21463 19.3153-7.85279 18.9504-8.35222 18.5422-8.91949 17.9639-9.20312 17.2155-9.20312 15.7064-9.20312 14.7446-8.19808 14.3302-6.18799ZM24.6527 0 24.6527-10.3628 26.3783-10.3628 26.3783-8.09912C27.4482-9.79997 28.8398-10.6504 30.5531-10.6504 31.1777-10.6504 31.8024-10.5545 32.4271-10.3628L32.4271-6.62402 30.7664-6.62402 30.7664-8.98975C30.4757-9.03922 30.2469-9.06396 30.0799-9.06396 28.7873-9.06396 27.5534-8.04964 26.3783-6.021L26.3783 0ZM38.3057 0 33.8063-10.3628 35.6974-10.3628 39.2502-2.15698 42.8732-10.3628 44.605-10.3628 40.0682 0ZM49.0177 0 49.0177-8.91553 46.1418-8.91553 46.1418-10.3628 50.7433-10.3628 50.7433-1.44727 53.6286-1.44727 53.6286 0ZM48.7301-14.1016C48.7301-14.4232 48.8415-14.6969 49.0641-14.9226 49.2868-15.1484 49.5589-15.2612 49.8805-15.2612 50.2021-15.2612 50.4758-15.1484 50.7016-14.9226 50.9273-14.6969 51.0402-14.4232 51.0402-14.1016 51.0402-13.7861 50.9273-13.5155 50.7016-13.2898 50.4758-13.064 50.2021-12.9512 49.8805-12.9512 49.5651-12.9512 49.2945-13.064 49.0688-13.2898 48.843-13.5155 48.7301-13.7861 48.7301-14.1016ZM65.992-0.296875C64.8354 0.0927734 63.7345 0.287598 62.6893 0.287598 61.6935 0.287598 60.7905 0.061849 59.9803-0.389648 59.1515-0.859701 58.5021-1.52458 58.0321-2.38428 57.5806-3.20068 57.3548-4.13151 57.3548-5.17676 57.3548-6.69824 57.8465-7.9847 58.8299-9.03613 59.8319-10.1123 61.0874-10.6504 62.5965-10.6504 63.6665-10.6504 64.7983-10.4494 65.992-10.0474L65.992-8.38672C64.786-8.93099 63.7067-9.20312 62.7542-9.20312 61.2946-9.20312 60.271-8.56067 59.6834-7.27576 59.3804-6.61475 59.2288-5.93518 59.2288-5.23706 59.2288-4.11276 59.5505-3.18614 60.1937-2.45719 60.8617-1.68495 61.7492-1.29883 62.8563-1.29883 63.6541-1.29883 64.6994-1.51839 65.992-1.95752ZM77.0566-0.686523C75.6774-0.0309245 74.3724 0.296875 73.1416 0.296875 71.2119 0.296875 69.7894-0.599935 68.874-2.39355 68.4287-3.25326 68.2061-4.1748 68.2061-5.1582 68.2061-6.10449 68.4102-7.0013 68.8184-7.84863 69.2451-8.73926 69.8373-9.42887 70.595-9.91748 71.3526-10.4061 72.1953-10.6504 73.123-10.6504 74.5703-10.6504 75.6434-10.0907 76.3423-8.97119 76.9175-8.04964 77.2051-6.81575 77.2051-5.26953L77.2051-4.89844 70.0615-4.89844C70.0615-4.23047 70.1945-3.60889 70.4604-3.03369 70.7511-2.39665 71.1624-1.91732 71.6943-1.5957 72.1829-1.29883 72.7396-1.15039 73.3643-1.15039 74.4775-1.15039 75.7083-1.52148 77.0566-2.26367ZM70.1636-6.18799 75.3311-6.18799 75.3311-6.43775C75.3311-7.21463 75.1486-7.85279 74.7837-8.35222 74.3755-8.91949 73.7972-9.20312 73.0488-9.20312 71.5397-9.20312 70.578-8.19808 70.1636-6.18799Z" fill="#FFFFFF" transform="translate(72.5229 29)"/><path d="M4.2583-7.76514 3.94287-7.99707C2.6626-8.93717 2.02246-10.0566 2.02246-11.3555 2.02246-12.4007 2.43685-13.2542 3.26562-13.916 4.03874-14.5221 4.96029-14.8252 6.03027-14.8252 7.56413-14.8252 8.64339-14.318 9.26807-13.3037 9.57731-12.8027 9.73193-12.2554 9.73193-11.6616 9.73193-10.87 9.45052-10.0999 8.8877-9.35156 8.60319-8.97428 8.04346-8.44547 7.2085-7.76514L7.98779-7.14355C8.87842-6.43229 9.49072-5.79215 9.82471-5.22314 10.1401-4.68506 10.2979-4.08203 10.2979-3.41406 10.2979-2.1709 9.84326-1.20296 8.93408-0.510254 8.10531 0.120605 7.05078 0.436035 5.77051 0.436035 4.47168 0.436035 3.41715 0.145345 2.60693-0.436035 1.69157-1.09782 1.23389-2.05029 1.23389-3.29346 1.23389-4.87061 2.24202-6.36117 4.2583-7.76514ZM6.03027-8.64648C7.34147-9.64032 7.99707-10.6064 7.99707-11.5446 7.99707-12.0878 7.76204-12.5354 7.29199-12.8872 6.85905-13.2144 6.36426-13.3779 5.80762-13.3779 5.23242-13.3779 4.74072-13.2051 4.33252-12.8594 3.89958-12.4952 3.68311-12.0322 3.68311-11.4706 3.68311-10.7175 4.32015-9.88105 5.59424-8.96133ZM5.55713-6.84668C3.92432-5.59115 3.10791-4.41602 3.10791-3.32129 3.10791-2.63477 3.39551-2.06885 3.9707-1.62354 4.5026-1.21533 5.12109-1.01123 5.82617-1.01123 6.49414-1.01123 7.0848-1.21224 7.59814-1.61426 8.15479-2.05339 8.43311-2.59766 8.43311-3.24707 8.43311-4.14388 7.65999-5.1984 6.11377-6.41064ZM16.863-14.8252C18.6999-14.8252 20.0482-13.9624 20.9079-12.2368 21.5697-10.9194 21.9006-9.24023 21.9006-7.19922 21.9006-5.15202 21.5728-3.46973 20.9172-2.15234 20.0513-0.426758 18.6999 0.436035 16.863 0.436035 15.026 0.436035 13.6777-0.42985 12.818-2.16162 12.1562-3.479 11.8254-5.1582 11.8254-7.19922 11.8254-9.23405 12.1562-10.9132 12.818-12.2368 13.6839-13.9624 15.0322-14.8252 16.863-14.8252ZM14.0545-4.11755 19.0363-11.9198C18.4979-12.8919 17.774-13.3779 16.8644-13.3779 15.6701-13.3779 14.8008-12.6116 14.2563-11.079 13.885-10.0223 13.6994-8.76163 13.6994-7.29707 13.6994-6.17847 13.8178-5.11863 14.0545-4.11755ZM19.6554-10.2051 14.7103-2.35659C15.2422-1.45968 15.935-1.01123 16.7886-1.01123 18.0256-1.01123 18.9193-1.81135 19.4699-3.4116 19.8472-4.49908 20.0358-5.81206 20.0358-7.35056 20.0358-8.33917 19.909-9.29068 19.6554-10.2051ZM26.5916-7.76514 26.2762-7.99707C24.9959-8.93717 24.3558-10.0566 24.3558-11.3555 24.3558-12.4007 24.7702-13.2542 25.599-13.916 26.3721-14.5221 27.2936-14.8252 28.3636-14.8252 29.8975-14.8252 30.9767-14.318 31.6014-13.3037 31.9106-12.8027 32.0653-12.2554 32.0653-11.6616 32.0653-10.87 31.7839-10.0999 31.221-9.35156 30.9365-8.97428 30.3768-8.44547 29.5418-7.76514L30.3211-7.14355C31.2118-6.43229 31.8241-5.79215 32.158-5.22314 32.4735-4.68506 32.6312-4.08203 32.6312-3.41406 32.6312-2.1709 32.1766-1.20296 31.2674-0.510254 30.4386 0.120605 29.3841 0.436035 28.1038 0.436035 26.805 0.436035 25.7505 0.145345 24.9403-0.436035 24.0249-1.09782 23.5672-2.05029 23.5672-3.29346 23.5672-4.87061 24.5754-6.36117 26.5916-7.76514ZM28.3636-8.64648C29.6748-9.64032 30.3304-10.6064 30.3304-11.5446 30.3304-12.0878 30.0954-12.5354 29.6253-12.8872 29.1924-13.2144 28.6976-13.3779 28.141-13.3779 27.5658-13.3779 27.0741-13.2051 26.6659-12.8594 26.2329-12.4952 26.0164-12.0322 26.0164-11.4706 26.0164-10.7175 26.6535-9.88105 27.9276-8.96133ZM27.8905-6.84668C26.2577-5.59115 25.4412-4.41602 25.4412-3.32129 25.4412-2.63477 25.7288-2.06885 26.304-1.62354 26.8359-1.21533 27.4544-1.01123 28.1595-1.01123 28.8275-1.01123 29.4181-1.21224 29.9315-1.61426 30.4881-2.05339 30.7664-2.59766 30.7664-3.24707 30.7664-4.14388 29.9933-5.1984 28.4471-6.41064ZM43.5938 0 34.8823 0 34.8823-1.58643C34.8823-2.51339 35.2849-3.47437 36.0901-4.46936 36.5732-5.06253 37.0718-5.62178 37.5858-6.14711L38.5659-7.1524C39.9511-8.56052 40.8261-9.60118 41.1909-10.2744 41.4012-10.6697 41.5063-11.0588 41.5063-11.4417 41.5063-12.0532 41.2497-12.538 40.7363-12.8962 40.2786-13.2174 39.7313-13.3779 39.0942-13.3779 38.3582-13.3779 37.582-13.2461 36.7656-12.9825 36.4378-12.8721 35.9059-12.6514 35.1699-12.3203L35.1699-13.8511C36.5368-14.5005 37.9624-14.8252 39.4468-14.8252 41.16-14.8252 42.3166-14.3242 42.9165-13.3223 43.2196-12.8089 43.3711-12.2616 43.3711-11.6802 43.3711-10.87 43.0526-10.0195 42.4155-9.12891 42.0506-8.61556 41.4321-7.92594 40.5601-7.06006L38.6118-5.13965C38.0799-4.62012 37.6253-4.06966 37.248-3.48828 36.9017-2.95638 36.71-2.32243 36.6729-1.58643L43.5938-1.58643Z" fill="#FFFFFF" transform="translate(61.3562 51)"/></g></g></g><path d="M714.5 540.834C714.5 534.574 719.574 529.5 725.834 529.5L866.167 529.5C872.426 529.5 877.5 534.574 877.5 540.834L877.5 586.167C877.5 592.426 872.426 597.5 866.167 597.5L725.834 597.5C719.574 597.5 714.5 592.426 714.5 586.167Z" stroke="#46AAC5" stroke-linejoin="round" stroke-miterlimit="10" fill="url(#fill26)" fill-rule="evenodd"/><text fill="#FFFFFF" font-family="Monaco,Monaco_MSFontService,sans-serif" font-weight="400" font-size="19" transform="translate(728.69 559)">user<tspan font-size="19" x="44.6666" y="0">-</tspan><tspan font-size="19" x="55.8333" y="0">service</tspan><tspan font-size="19" x="44.6666" y="22">8082</tspan></text><g clip-path="url(#clip27)"><g clip-path="url(#clip28)" filter="url(#fx4)" transform="translate(878 525)"><g clip-path="url(#clip29)"><path d="M6.50006 18.2483C6.50006 11.9889 11.5743 6.91473 17.8336 6.91473L158.167 6.91473C164.426 6.91473 169.5 11.9889 169.5 18.2483L169.5 63.5812C169.5 69.8405 164.426 74.9147 158.167 74.9147L17.8336 74.9147C11.5743 74.9147 6.50006 69.8405 6.50006 63.5812Z" stroke="#46AAC5" stroke-linejoin="round" stroke-miterlimit="10" fill="#FF0000" fill-rule="evenodd"/></g></g><g clip-path="url(#clip30)" filter="url(#fx5)" transform="translate(881 532)"><g clip-path="url(#clip31)"><path d="M9.97314-10.3628 9.97314 0 8.24756 0 8.24756-2.27295C7.13428-0.565918 5.83545 0.287598 4.35107 0.287598 3.75732 0.287598 3.21305 0.132975 2.71826-0.17627 2.19873-0.504069 1.83691-0.940104 1.63281-1.48438 1.4349-2.01009 1.33594-3.03988 1.33594-4.57373L1.33594-10.3628 3.06152-10.3628 3.06152-4.36035C3.06152-3.57487 3.07699-3.08317 3.10791-2.88525 3.18831-2.29769 3.3986-1.87093 3.73877-1.60498 3.99235-1.40088 4.26758-1.29883 4.56445-1.29883 5.26335-1.29883 5.98698-1.64827 6.73535-2.34717 7.35384-2.91618 7.85791-3.57487 8.24756-4.32324L8.24756-10.3628ZM12.7253-0.547363 12.7253-2.375C13.9808-1.56478 15.3693-1.15967 16.8908-1.15967 18.5298-1.15967 19.3493-1.65088 19.3493-2.63332 19.3493-3.01021 19.1637-3.32535 18.7926-3.57874 18.6195-3.69615 18.27-3.86295 17.7443-4.07913L17.1506-4.3202 15.9538-4.79291C14.9704-5.18217 14.2993-5.51891 13.9406-5.80312 13.3221-6.29125 13.0129-6.93076 13.0129-7.72165 13.0129-8.79057 13.4705-9.57219 14.3859-10.0665 15.0972-10.4558 16.0373-10.6504 17.2062-10.6504 18.3133-10.6504 19.3617-10.4896 20.3512-10.168L20.3512-8.6001C19.2132-9.00212 18.1432-9.20312 17.1413-9.20312 16.5846-9.20312 16.096-9.11663 15.6755-8.94365 15.1003-8.70263 14.8127-8.34115 14.8127-7.85921 14.8127-7.44521 15.1003-7.08064 15.6755-6.7655 15.8796-6.65437 16.3465-6.46592 17.0763-6.20016L18.2453-5.77384C19.1545-5.44024 19.8193-5.09732 20.2399-4.74507 20.846-4.23221 21.1491-3.58033 21.1491-2.78944 21.1491-1.67731 20.679-0.858637 19.7389-0.333405 18.9967 0.0805969 18.0195 0.287598 16.8073 0.287598 15.4837 0.287598 14.123 0.00927733 12.7253-0.547363ZM32.39-0.686523C31.0107-0.0309245 29.7057 0.296875 28.4749 0.296875 26.5452 0.296875 25.1227-0.599935 24.2074-2.39355 23.762-3.25326 23.5394-4.1748 23.5394-5.1582 23.5394-6.10449 23.7435-7.0013 24.1517-7.84863 24.5784-8.73926 25.1707-9.42887 25.9283-9.91748 26.686-10.4061 27.5286-10.6504 28.4564-10.6504 29.9036-10.6504 30.9767-10.0907 31.6756-8.97119 32.2508-8.04964 32.5384-6.81575 32.5384-5.26953L32.5384-4.89844 25.3949-4.89844C25.3949-4.23047 25.5278-3.60889 25.7938-3.03369 26.0845-2.39665 26.4958-1.91732 27.0277-1.5957 27.5163-1.29883 28.0729-1.15039 28.6976-1.15039 29.8109-1.15039 31.0417-1.52148 32.39-2.26367ZM25.4969-6.18799 30.6644-6.18799 30.6644-6.43775C30.6644-7.21463 30.4819-7.85279 30.117-8.35222 29.7088-8.91949 29.1305-9.20312 28.3822-9.20312 26.873-9.20312 25.9113-8.19808 25.4969-6.18799ZM35.8193 0 35.8193-10.3628 37.5449-10.3628 37.5449-8.09912C38.6149-9.79997 40.0065-10.6504 41.7197-10.6504 42.3444-10.6504 42.9691-10.5545 43.5938-10.3628L43.5938-6.62402 41.9331-6.62402 41.9331-8.98975C41.6424-9.03922 41.4136-9.06396 41.2466-9.06396 39.9539-9.06396 38.7201-8.04964 37.5449-6.021L37.5449 0Z" fill="#FFFFFF" transform="translate(17.275 29)"/><path d="M2.10596-5.11182 2.10596-6.5498 9.30518-6.5498 9.30518-5.11182Z" fill="#FFFFFF" transform="translate(61.9417 29)"/><path d="M1.55859-0.547363 1.55859-2.375C2.81413-1.56478 4.20264-1.15967 5.72412-1.15967 7.36312-1.15967 8.18262-1.65088 8.18262-2.63332 8.18262-3.01021 7.99707-3.32535 7.62598-3.57874 7.4528-3.69615 7.10335-3.86295 6.57764-4.07913L5.98389-4.3202 4.78711-4.79291C3.80371-5.18217 3.13265-5.51891 2.77393-5.80312 2.15544-6.29125 1.84619-6.93076 1.84619-7.72165 1.84619-8.79057 2.30387-9.57219 3.21924-10.0665 3.9305-10.4558 4.87061-10.6504 6.03955-10.6504 7.14665-10.6504 8.19499-10.4896 9.18457-10.168L9.18457-8.6001C8.04655-9.00212 6.97656-9.20312 5.97461-9.20312 5.41797-9.20312 4.92936-9.11663 4.50879-8.94365 3.93359-8.70263 3.646-8.34115 3.646-7.85921 3.646-7.44521 3.93359-7.08064 4.50879-6.7655 4.71289-6.65437 5.17985-6.46592 5.90967-6.20016L7.07861-5.77384C7.98779-5.44024 8.65267-5.09732 9.07324-4.74507 9.67936-4.23221 9.98242-3.58033 9.98242-2.78944 9.98242-1.67731 9.51237-0.858637 8.57227-0.333405 7.83008 0.0805969 6.85286 0.287598 5.64062 0.287598 4.31706 0.287598 2.95638 0.00927733 1.55859-0.547363ZM21.2233-0.686523C19.8441-0.0309245 18.5391 0.296875 17.3083 0.296875 15.3786 0.296875 13.9561-0.599935 13.0407-2.39355 12.5954-3.25326 12.3727-4.1748 12.3727-5.1582 12.3727-6.10449 12.5768-7.0013 12.985-7.84863 13.4118-8.73926 14.004-9.42887 14.7616-9.91748 15.5193-10.4061 16.362-10.6504 17.2897-10.6504 18.737-10.6504 19.8101-10.0907 20.509-8.97119 21.0841-8.04964 21.3717-6.81575 21.3717-5.26953L21.3717-4.89844 14.2282-4.89844C14.2282-4.23047 14.3612-3.60889 14.6271-3.03369 14.9178-2.39665 15.3291-1.91732 15.861-1.5957 16.3496-1.29883 16.9062-1.15039 17.5309-1.15039 18.6442-1.15039 19.875-1.52148 21.2233-2.26367ZM14.3302-6.18799 19.4977-6.18799 19.4977-6.43775C19.4977-7.21463 19.3153-7.85279 18.9504-8.35222 18.5422-8.91949 17.9639-9.20312 17.2155-9.20312 15.7064-9.20312 14.7446-8.19808 14.3302-6.18799ZM24.6527 0 24.6527-10.3628 26.3783-10.3628 26.3783-8.09912C27.4482-9.79997 28.8398-10.6504 30.5531-10.6504 31.1777-10.6504 31.8024-10.5545 32.4271-10.3628L32.4271-6.62402 30.7664-6.62402 30.7664-8.98975C30.4757-9.03922 30.2469-9.06396 30.0799-9.06396 28.7873-9.06396 27.5534-8.04964 26.3783-6.021L26.3783 0ZM38.3057 0 33.8063-10.3628 35.6974-10.3628 39.2502-2.15698 42.8732-10.3628 44.605-10.3628 40.0682 0ZM49.0177 0 49.0177-8.91553 46.1418-8.91553 46.1418-10.3628 50.7433-10.3628 50.7433-1.44727 53.6286-1.44727 53.6286 0ZM48.7301-14.1016C48.7301-14.4232 48.8415-14.6969 49.0641-14.9226 49.2868-15.1484 49.5589-15.2612 49.8805-15.2612 50.2021-15.2612 50.4758-15.1484 50.7016-14.9226 50.9273-14.6969 51.0402-14.4232 51.0402-14.1016 51.0402-13.7861 50.9273-13.5155 50.7016-13.2898 50.4758-13.064 50.2021-12.9512 49.8805-12.9512 49.5651-12.9512 49.2945-13.064 49.0688-13.2898 48.843-13.5155 48.7301-13.7861 48.7301-14.1016ZM65.992-0.296875C64.8354 0.0927734 63.7345 0.287598 62.6893 0.287598 61.6935 0.287598 60.7905 0.061849 59.9803-0.389648 59.1515-0.859701 58.5021-1.52458 58.0321-2.38428 57.5806-3.20068 57.3548-4.13151 57.3548-5.17676 57.3548-6.69824 57.8465-7.9847 58.8299-9.03613 59.8319-10.1123 61.0874-10.6504 62.5965-10.6504 63.6665-10.6504 64.7983-10.4494 65.992-10.0474L65.992-8.38672C64.786-8.93099 63.7067-9.20312 62.7542-9.20312 61.2946-9.20312 60.271-8.56067 59.6834-7.27576 59.3804-6.61475 59.2288-5.93518 59.2288-5.23706 59.2288-4.11276 59.5505-3.18614 60.1937-2.45719 60.8617-1.68495 61.7492-1.29883 62.8563-1.29883 63.6541-1.29883 64.6994-1.51839 65.992-1.95752ZM77.0566-0.686523C75.6774-0.0309245 74.3724 0.296875 73.1416 0.296875 71.2119 0.296875 69.7894-0.599935 68.874-2.39355 68.4287-3.25326 68.2061-4.1748 68.2061-5.1582 68.2061-6.10449 68.4102-7.0013 68.8184-7.84863 69.2451-8.73926 69.8373-9.42887 70.595-9.91748 71.3526-10.4061 72.1953-10.6504 73.123-10.6504 74.5703-10.6504 75.6434-10.0907 76.3423-8.97119 76.9175-8.04964 77.2051-6.81575 77.2051-5.26953L77.2051-4.89844 70.0615-4.89844C70.0615-4.23047 70.1945-3.60889 70.4604-3.03369 70.7511-2.39665 71.1624-1.91732 71.6943-1.5957 72.1829-1.29883 72.7396-1.15039 73.3643-1.15039 74.4775-1.15039 75.7083-1.52148 77.0566-2.26367ZM70.1636-6.18799 75.3311-6.18799 75.3311-6.43775C75.3311-7.21463 75.1486-7.85279 74.7837-8.35222 74.3755-8.91949 73.7972-9.20312 73.0488-9.20312 71.5397-9.20312 70.578-8.19808 70.1636-6.18799Z" fill="#FFFFFF" transform="translate(73.1083 29)"/><path d="M4.2583-7.76514 3.94287-7.99707C2.6626-8.93717 2.02246-10.0566 2.02246-11.3555 2.02246-12.4007 2.43685-13.2542 3.26562-13.916 4.03874-14.5221 4.96029-14.8252 6.03027-14.8252 7.56413-14.8252 8.64339-14.318 9.26807-13.3037 9.57731-12.8027 9.73193-12.2554 9.73193-11.6616 9.73193-10.87 9.45052-10.0999 8.8877-9.35156 8.60319-8.97428 8.04346-8.44547 7.2085-7.76514L7.98779-7.14355C8.87842-6.43229 9.49072-5.79215 9.82471-5.22314 10.1401-4.68506 10.2979-4.08203 10.2979-3.41406 10.2979-2.1709 9.84326-1.20296 8.93408-0.510254 8.10531 0.120605 7.05078 0.436035 5.77051 0.436035 4.47168 0.436035 3.41715 0.145345 2.60693-0.436035 1.69157-1.09782 1.23389-2.05029 1.23389-3.29346 1.23389-4.87061 2.24202-6.36117 4.2583-7.76514ZM6.03027-8.64648C7.34147-9.64032 7.99707-10.6064 7.99707-11.5446 7.99707-12.0878 7.76204-12.5354 7.29199-12.8872 6.85905-13.2144 6.36426-13.3779 5.80762-13.3779 5.23242-13.3779 4.74072-13.2051 4.33252-12.8594 3.89958-12.4952 3.68311-12.0322 3.68311-11.4706 3.68311-10.7175 4.32015-9.88105 5.59424-8.96133ZM5.55713-6.84668C3.92432-5.59115 3.10791-4.41602 3.10791-3.32129 3.10791-2.63477 3.39551-2.06885 3.9707-1.62354 4.5026-1.21533 5.12109-1.01123 5.82617-1.01123 6.49414-1.01123 7.0848-1.21224 7.59814-1.61426 8.15479-2.05339 8.43311-2.59766 8.43311-3.24707 8.43311-4.14388 7.65999-5.1984 6.11377-6.41064ZM16.863-14.8252C18.6999-14.8252 20.0482-13.9624 20.9079-12.2368 21.5697-10.9194 21.9006-9.24023 21.9006-7.19922 21.9006-5.15202 21.5728-3.46973 20.9172-2.15234 20.0513-0.426758 18.6999 0.436035 16.863 0.436035 15.026 0.436035 13.6777-0.42985 12.818-2.16162 12.1562-3.479 11.8254-5.1582 11.8254-7.19922 11.8254-9.23405 12.1562-10.9132 12.818-12.2368 13.6839-13.9624 15.0322-14.8252 16.863-14.8252ZM14.0545-4.11755 19.0363-11.9198C18.4979-12.8919 17.774-13.3779 16.8644-13.3779 15.6701-13.3779 14.8008-12.6116 14.2563-11.079 13.885-10.0223 13.6994-8.76163 13.6994-7.29707 13.6994-6.17847 13.8178-5.11863 14.0545-4.11755ZM19.6554-10.2051 14.7103-2.35659C15.2422-1.45968 15.935-1.01123 16.7886-1.01123 18.0256-1.01123 18.9193-1.81135 19.4699-3.4116 19.8472-4.49908 20.0358-5.81206 20.0358-7.35056 20.0358-8.33917 19.909-9.29068 19.6554-10.2051ZM26.5916-7.76514 26.2762-7.99707C24.9959-8.93717 24.3558-10.0566 24.3558-11.3555 24.3558-12.4007 24.7702-13.2542 25.599-13.916 26.3721-14.5221 27.2936-14.8252 28.3636-14.8252 29.8975-14.8252 30.9767-14.318 31.6014-13.3037 31.9106-12.8027 32.0653-12.2554 32.0653-11.6616 32.0653-10.87 31.7839-10.0999 31.221-9.35156 30.9365-8.97428 30.3768-8.44547 29.5418-7.76514L30.3211-7.14355C31.2118-6.43229 31.8241-5.79215 32.158-5.22314 32.4735-4.68506 32.6312-4.08203 32.6312-3.41406 32.6312-2.1709 32.1766-1.20296 31.2674-0.510254 30.4386 0.120605 29.3841 0.436035 28.1038 0.436035 26.805 0.436035 25.7505 0.145345 24.9403-0.436035 24.0249-1.09782 23.5672-2.05029 23.5672-3.29346 23.5672-4.87061 24.5754-6.36117 26.5916-7.76514ZM28.3636-8.64648C29.6748-9.64032 30.3304-10.6064 30.3304-11.5446 30.3304-12.0878 30.0954-12.5354 29.6253-12.8872 29.1924-13.2144 28.6976-13.3779 28.141-13.3779 27.5658-13.3779 27.0741-13.2051 26.6659-12.8594 26.2329-12.4952 26.0164-12.0322 26.0164-11.4706 26.0164-10.7175 26.6535-9.88105 27.9276-8.96133ZM27.8905-6.84668C26.2577-5.59115 25.4412-4.41602 25.4412-3.32129 25.4412-2.63477 25.7288-2.06885 26.304-1.62354 26.8359-1.21533 27.4544-1.01123 28.1595-1.01123 28.8275-1.01123 29.4181-1.21224 29.9315-1.61426 30.4881-2.05339 30.7664-2.59766 30.7664-3.24707 30.7664-4.14388 29.9933-5.1984 28.4471-6.41064ZM34.8452-0.259766 34.8452-2.07812C36.2616-1.36686 37.4893-1.01123 38.5283-1.01123 39.4684-1.01123 40.2477-1.28873 40.8662-1.84373 41.5033-2.42337 41.8218-3.17565 41.8218-4.10059 41.8218-6.16016 40.3188-7.18994 37.313-7.18994L36.3574-7.18994 36.3574-8.63721 37.6841-8.63721C38.618-8.63721 39.3942-8.83474 40.0127-9.2298 40.7425-9.69279 41.1074-10.3656 41.1074-11.2483 41.1074-11.9705 40.8322-12.5199 40.2817-12.8965 39.8055-13.2175 39.187-13.3779 38.4263-13.3779 37.4058-13.3779 36.3079-13.0934 35.1328-12.5244L35.1328-14.1665C36.3079-14.6056 37.3841-14.8252 38.3613-14.8252 39.6787-14.8252 40.7301-14.5933 41.5156-14.1294 42.4928-13.5542 42.9814-12.6543 42.9814-11.4297 42.9814-9.95768 42.1558-8.82894 40.5044-8.04346 41.9517-7.6167 42.9072-6.88997 43.3711-5.86328 43.5876-5.37467 43.6958-4.82731 43.6958-4.22119 43.6958-2.77393 43.1515-1.62044 42.063-0.760742 41.0548 0.0371093 39.8086 0.436035 38.3242 0.436035 37.1058 0.436035 35.9461 0.204102 34.8452-0.259766Z" fill="#FFFFFF" transform="translate(61.9417 51)"/></g></g></g><path d="M884.5 540.834C884.5 534.574 889.574 529.5 895.834 529.5L1036.17 529.5C1042.43 529.5 1047.5 534.574 1047.5 540.834L1047.5 586.167C1047.5 592.426 1042.43 597.5 1036.17 597.5L895.834 597.5C889.574 597.5 884.5 592.426 884.5 586.167Z" stroke="#46AAC5" stroke-linejoin="round" stroke-miterlimit="10" fill="url(#fill32)" fill-rule="evenodd"/><text fill="#FFFFFF" font-family="Monaco,Monaco_MSFontService,sans-serif" font-weight="400" font-size="19" transform="translate(898.275 559)">user<tspan font-size="19" x="44.6667" y="0">-</tspan><tspan font-size="19" x="55.8333" y="0">service</tspan><tspan font-size="19" x="44.6667" y="22">8083</tspan></text><g clip-path="url(#clip33)"><g clip-path="url(#clip34)" filter="url(#fx6)" transform="translate(790 433)"><g clip-path="url(#clip35)"><path d="M6.50006 18.2484C6.50006 11.989 11.5743 6.91476 17.8337 6.91476L157.166 6.91476C163.426 6.91476 168.5 11.989 168.5 18.2484L168.5 63.5811C168.5 69.8405 163.426 74.9148 157.166 74.9148L17.8337 74.9148C11.5743 74.9148 6.50006 69.8405 6.50006 63.5811Z" stroke="#46AAC5" stroke-linejoin="round" stroke-miterlimit="10" fill="#FF0000" fill-rule="evenodd"/></g></g><g clip-path="url(#clip36)" filter="url(#fx7)" transform="translate(793 440)"><g clip-path="url(#clip37)"><path d="M9.97314-10.3628 9.97314 0 8.24756 0 8.24756-2.27295C7.13428-0.565918 5.83545 0.287598 4.35107 0.287598 3.75732 0.287598 3.21305 0.132975 2.71826-0.17627 2.19873-0.504069 1.83691-0.940104 1.63281-1.48438 1.4349-2.01009 1.33594-3.03988 1.33594-4.57373L1.33594-10.3628 3.06152-10.3628 3.06152-4.36035C3.06152-3.57487 3.07699-3.08317 3.10791-2.88525 3.18831-2.29769 3.3986-1.87093 3.73877-1.60498 3.99235-1.40088 4.26758-1.29883 4.56445-1.29883 5.26335-1.29883 5.98698-1.64827 6.73535-2.34717 7.35384-2.91618 7.85791-3.57487 8.24756-4.32324L8.24756-10.3628ZM12.7253-0.547363 12.7253-2.375C13.9808-1.56478 15.3693-1.15967 16.8908-1.15967 18.5298-1.15967 19.3493-1.65088 19.3493-2.63332 19.3493-3.01021 19.1637-3.32535 18.7926-3.57874 18.6195-3.69615 18.27-3.86295 17.7443-4.07913L17.1506-4.3202 15.9538-4.79291C14.9704-5.18217 14.2993-5.51891 13.9406-5.80312 13.3221-6.29125 13.0129-6.93076 13.0129-7.72165 13.0129-8.79057 13.4705-9.57219 14.3859-10.0665 15.0972-10.4558 16.0373-10.6504 17.2062-10.6504 18.3133-10.6504 19.3617-10.4896 20.3512-10.168L20.3512-8.6001C19.2132-9.00212 18.1432-9.20312 17.1413-9.20312 16.5846-9.20312 16.096-9.11663 15.6755-8.94365 15.1003-8.70263 14.8127-8.34115 14.8127-7.85921 14.8127-7.44521 15.1003-7.08064 15.6755-6.7655 15.8796-6.65437 16.3465-6.46592 17.0763-6.20016L18.2453-5.77384C19.1545-5.44024 19.8193-5.09732 20.2399-4.74507 20.846-4.23221 21.1491-3.58033 21.1491-2.78944 21.1491-1.67731 20.679-0.858637 19.7389-0.333405 18.9967 0.0805969 18.0195 0.287598 16.8073 0.287598 15.4837 0.287598 14.123 0.00927733 12.7253-0.547363ZM32.39-0.686523C31.0107-0.0309245 29.7057 0.296875 28.4749 0.296875 26.5452 0.296875 25.1227-0.599935 24.2074-2.39355 23.762-3.25326 23.5394-4.1748 23.5394-5.1582 23.5394-6.10449 23.7435-7.0013 24.1517-7.84863 24.5784-8.73926 25.1707-9.42887 25.9283-9.91748 26.686-10.4061 27.5286-10.6504 28.4564-10.6504 29.9036-10.6504 30.9767-10.0907 31.6756-8.97119 32.2508-8.04964 32.5384-6.81575 32.5384-5.26953L32.5384-4.89844 25.3949-4.89844C25.3949-4.23047 25.5278-3.60889 25.7938-3.03369 26.0845-2.39665 26.4958-1.91732 27.0277-1.5957 27.5163-1.29883 28.0729-1.15039 28.6976-1.15039 29.8109-1.15039 31.0417-1.52148 32.39-2.26367ZM25.4969-6.18799 30.6644-6.18799 30.6644-6.43775C30.6644-7.21463 30.4819-7.85279 30.117-8.35222 29.7088-8.91949 29.1305-9.20312 28.3822-9.20312 26.873-9.20312 25.9113-8.19808 25.4969-6.18799ZM35.8193 0 35.8193-10.3628 37.5449-10.3628 37.5449-8.09912C38.6149-9.79997 40.0065-10.6504 41.7197-10.6504 42.3444-10.6504 42.9691-10.5545 43.5938-10.3628L43.5938-6.62402 41.9331-6.62402 41.9331-8.98975C41.6424-9.03922 41.4136-9.06396 41.2466-9.06396 39.9539-9.06396 38.7201-8.04964 37.5449-6.021L37.5449 0Z" fill="#FFFFFF" transform="translate(16.8925 29)"/><path d="M2.10596-5.11182 2.10596-6.5498 9.30518-6.5498 9.30518-5.11182Z" fill="#FFFFFF" transform="translate(61.5591 29)"/><path d="M1.55859-0.547363 1.55859-2.375C2.81413-1.56478 4.20264-1.15967 5.72412-1.15967 7.36312-1.15967 8.18262-1.65088 8.18262-2.63332 8.18262-3.01021 7.99707-3.32535 7.62598-3.57874 7.4528-3.69615 7.10335-3.86295 6.57764-4.07913L5.98389-4.3202 4.78711-4.79291C3.80371-5.18217 3.13265-5.51891 2.77393-5.80312 2.15544-6.29125 1.84619-6.93076 1.84619-7.72165 1.84619-8.79057 2.30387-9.57219 3.21924-10.0665 3.9305-10.4558 4.87061-10.6504 6.03955-10.6504 7.14665-10.6504 8.19499-10.4896 9.18457-10.168L9.18457-8.6001C8.04655-9.00212 6.97656-9.20312 5.97461-9.20312 5.41797-9.20312 4.92936-9.11663 4.50879-8.94365 3.93359-8.70263 3.646-8.34115 3.646-7.85921 3.646-7.44521 3.93359-7.08064 4.50879-6.7655 4.71289-6.65437 5.17985-6.46592 5.90967-6.20016L7.07861-5.77384C7.98779-5.44024 8.65267-5.09732 9.07324-4.74507 9.67936-4.23221 9.98242-3.58033 9.98242-2.78944 9.98242-1.67731 9.51237-0.858637 8.57227-0.333405 7.83008 0.0805969 6.85286 0.287598 5.64062 0.287598 4.31706 0.287598 2.95638 0.00927733 1.55859-0.547363ZM21.2233-0.686523C19.8441-0.0309245 18.5391 0.296875 17.3083 0.296875 15.3786 0.296875 13.9561-0.599935 13.0407-2.39355 12.5954-3.25326 12.3727-4.1748 12.3727-5.1582 12.3727-6.10449 12.5768-7.0013 12.985-7.84863 13.4118-8.73926 14.004-9.42887 14.7616-9.91748 15.5193-10.4061 16.362-10.6504 17.2897-10.6504 18.737-10.6504 19.8101-10.0907 20.509-8.97119 21.0841-8.04964 21.3717-6.81575 21.3717-5.26953L21.3717-4.89844 14.2282-4.89844C14.2282-4.23047 14.3612-3.60889 14.6271-3.03369 14.9178-2.39665 15.3291-1.91732 15.861-1.5957 16.3496-1.29883 16.9062-1.15039 17.5309-1.15039 18.6442-1.15039 19.875-1.52148 21.2233-2.26367ZM14.3302-6.18799 19.4977-6.18799 19.4977-6.43775C19.4977-7.21463 19.3153-7.85279 18.9504-8.35222 18.5422-8.91949 17.9639-9.20312 17.2155-9.20312 15.7064-9.20312 14.7446-8.19808 14.3302-6.18799ZM24.6527 0 24.6527-10.3628 26.3783-10.3628 26.3783-8.09912C27.4482-9.79997 28.8398-10.6504 30.5531-10.6504 31.1777-10.6504 31.8024-10.5545 32.4271-10.3628L32.4271-6.62402 30.7664-6.62402 30.7664-8.98975C30.4757-9.03922 30.2469-9.06396 30.0799-9.06396 28.7873-9.06396 27.5534-8.04964 26.3783-6.021L26.3783 0ZM38.3057 0 33.8063-10.3628 35.6974-10.3628 39.2502-2.15698 42.8732-10.3628 44.605-10.3628 40.0682 0ZM49.0177 0 49.0177-8.91553 46.1418-8.91553 46.1418-10.3628 50.7433-10.3628 50.7433-1.44727 53.6286-1.44727 53.6286 0ZM48.7301-14.1016C48.7301-14.4232 48.8415-14.6969 49.0641-14.9226 49.2868-15.1484 49.5589-15.2612 49.8805-15.2612 50.2021-15.2612 50.4758-15.1484 50.7016-14.9226 50.9273-14.6969 51.0402-14.4232 51.0402-14.1016 51.0402-13.7861 50.9273-13.5155 50.7016-13.2898 50.4758-13.064 50.2021-12.9512 49.8805-12.9512 49.5651-12.9512 49.2945-13.064 49.0688-13.2898 48.843-13.5155 48.7301-13.7861 48.7301-14.1016ZM65.992-0.296875C64.8354 0.0927734 63.7345 0.287598 62.6893 0.287598 61.6935 0.287598 60.7905 0.061849 59.9803-0.389648 59.1515-0.859701 58.5021-1.52458 58.0321-2.38428 57.5806-3.20068 57.3548-4.13151 57.3548-5.17676 57.3548-6.69824 57.8465-7.9847 58.8299-9.03613 59.8319-10.1123 61.0874-10.6504 62.5965-10.6504 63.6665-10.6504 64.7983-10.4494 65.992-10.0474L65.992-8.38672C64.786-8.93099 63.7067-9.20312 62.7542-9.20312 61.2946-9.20312 60.271-8.56067 59.6834-7.27576 59.3804-6.61475 59.2288-5.93518 59.2288-5.23706 59.2288-4.11276 59.5505-3.18614 60.1937-2.45719 60.8617-1.68495 61.7492-1.29883 62.8563-1.29883 63.6541-1.29883 64.6994-1.51839 65.992-1.95752ZM77.0566-0.686523C75.6774-0.0309245 74.3724 0.296875 73.1416 0.296875 71.2119 0.296875 69.7894-0.599935 68.874-2.39355 68.4287-3.25326 68.2061-4.1748 68.2061-5.1582 68.2061-6.10449 68.4102-7.0013 68.8184-7.84863 69.2451-8.73926 69.8373-9.42887 70.595-9.91748 71.3526-10.4061 72.1953-10.6504 73.123-10.6504 74.5703-10.6504 75.6434-10.0907 76.3423-8.97119 76.9175-8.04964 77.2051-6.81575 77.2051-5.26953L77.2051-4.89844 70.0615-4.89844C70.0615-4.23047 70.1945-3.60889 70.4604-3.03369 70.7511-2.39665 71.1624-1.91732 71.6943-1.5957 72.1829-1.29883 72.7396-1.15039 73.3643-1.15039 74.4775-1.15039 75.7083-1.52148 77.0566-2.26367ZM70.1636-6.18799 75.3311-6.18799 75.3311-6.43775C75.3311-7.21463 75.1486-7.85279 74.7837-8.35222 74.3755-8.91949 73.7972-9.20312 73.0488-9.20312 71.5397-9.20312 70.578-8.19808 70.1636-6.18799Z" fill="#FFFFFF" transform="translate(72.7258 29)"/><path d="M4.2583-7.76514 3.94287-7.99707C2.6626-8.93717 2.02246-10.0566 2.02246-11.3555 2.02246-12.4007 2.43685-13.2542 3.26562-13.916 4.03874-14.5221 4.96029-14.8252 6.03027-14.8252 7.56413-14.8252 8.64339-14.318 9.26807-13.3037 9.57731-12.8027 9.73193-12.2554 9.73193-11.6616 9.73193-10.87 9.45052-10.0999 8.8877-9.35156 8.60319-8.97428 8.04346-8.44547 7.2085-7.76514L7.98779-7.14355C8.87842-6.43229 9.49072-5.79215 9.82471-5.22314 10.1401-4.68506 10.2979-4.08203 10.2979-3.41406 10.2979-2.1709 9.84326-1.20296 8.93408-0.510254 8.10531 0.120605 7.05078 0.436035 5.77051 0.436035 4.47168 0.436035 3.41715 0.145345 2.60693-0.436035 1.69157-1.09782 1.23389-2.05029 1.23389-3.29346 1.23389-4.87061 2.24202-6.36117 4.2583-7.76514ZM6.03027-8.64648C7.34147-9.64032 7.99707-10.6064 7.99707-11.5446 7.99707-12.0878 7.76204-12.5354 7.29199-12.8872 6.85905-13.2144 6.36426-13.3779 5.80762-13.3779 5.23242-13.3779 4.74072-13.2051 4.33252-12.8594 3.89958-12.4952 3.68311-12.0322 3.68311-11.4706 3.68311-10.7175 4.32015-9.88105 5.59424-8.96133ZM5.55713-6.84668C3.92432-5.59115 3.10791-4.41602 3.10791-3.32129 3.10791-2.63477 3.39551-2.06885 3.9707-1.62354 4.5026-1.21533 5.12109-1.01123 5.82617-1.01123 6.49414-1.01123 7.0848-1.21224 7.59814-1.61426 8.15479-2.05339 8.43311-2.59766 8.43311-3.24707 8.43311-4.14388 7.65999-5.1984 6.11377-6.41064ZM16.863-14.8252C18.6999-14.8252 20.0482-13.9624 20.9079-12.2368 21.5697-10.9194 21.9006-9.24023 21.9006-7.19922 21.9006-5.15202 21.5728-3.46973 20.9172-2.15234 20.0513-0.426758 18.6999 0.436035 16.863 0.436035 15.026 0.436035 13.6777-0.42985 12.818-2.16162 12.1562-3.479 11.8254-5.1582 11.8254-7.19922 11.8254-9.23405 12.1562-10.9132 12.818-12.2368 13.6839-13.9624 15.0322-14.8252 16.863-14.8252ZM14.0545-4.11755 19.0363-11.9198C18.4979-12.8919 17.774-13.3779 16.8644-13.3779 15.6701-13.3779 14.8008-12.6116 14.2563-11.079 13.885-10.0223 13.6994-8.76163 13.6994-7.29707 13.6994-6.17847 13.8178-5.11863 14.0545-4.11755ZM19.6554-10.2051 14.7103-2.35659C15.2422-1.45968 15.935-1.01123 16.7886-1.01123 18.0256-1.01123 18.9193-1.81135 19.4699-3.4116 19.8472-4.49908 20.0358-5.81206 20.0358-7.35056 20.0358-8.33917 19.909-9.29068 19.6554-10.2051ZM26.5916-7.76514 26.2762-7.99707C24.9959-8.93717 24.3558-10.0566 24.3558-11.3555 24.3558-12.4007 24.7702-13.2542 25.599-13.916 26.3721-14.5221 27.2936-14.8252 28.3636-14.8252 29.8975-14.8252 30.9767-14.318 31.6014-13.3037 31.9106-12.8027 32.0653-12.2554 32.0653-11.6616 32.0653-10.87 31.7839-10.0999 31.221-9.35156 30.9365-8.97428 30.3768-8.44547 29.5418-7.76514L30.3211-7.14355C31.2118-6.43229 31.8241-5.79215 32.158-5.22314 32.4735-4.68506 32.6312-4.08203 32.6312-3.41406 32.6312-2.1709 32.1766-1.20296 31.2674-0.510254 30.4386 0.120605 29.3841 0.436035 28.1038 0.436035 26.805 0.436035 25.7505 0.145345 24.9403-0.436035 24.0249-1.09782 23.5672-2.05029 23.5672-3.29346 23.5672-4.87061 24.5754-6.36117 26.5916-7.76514ZM28.3636-8.64648C29.6748-9.64032 30.3304-10.6064 30.3304-11.5446 30.3304-12.0878 30.0954-12.5354 29.6253-12.8872 29.1924-13.2144 28.6976-13.3779 28.141-13.3779 27.5658-13.3779 27.0741-13.2051 26.6659-12.8594 26.2329-12.4952 26.0164-12.0322 26.0164-11.4706 26.0164-10.7175 26.6535-9.88105 27.9276-8.96133ZM27.8905-6.84668C26.2577-5.59115 25.4412-4.41602 25.4412-3.32129 25.4412-2.63477 25.7288-2.06885 26.304-1.62354 26.8359-1.21533 27.4544-1.01123 28.1595-1.01123 28.8275-1.01123 29.4181-1.21224 29.9315-1.61426 30.4881-2.05339 30.7664-2.59766 30.7664-3.24707 30.7664-4.14388 29.9933-5.1984 28.4471-6.41064ZM38.7695-1.44727 38.7695-12.5522C37.7181-11.7173 36.543-11.0679 35.2441-10.604L35.2441-12.1626C36.5986-12.7378 37.7738-13.4831 38.7695-14.3984L40.4951-14.3984 40.4951-1.44727 43.9556-1.44727 43.9556 0 35.2441 0 35.2441-1.44727Z" fill="#FFFFFF" transform="translate(61.5591 51)"/></g></g></g><path d="M796.5 448.834C796.5 442.574 801.574 437.5 807.834 437.5L947.166 437.5C953.426 437.5 958.5 442.574 958.5 448.834L958.5 494.166C958.5 500.426 953.426 505.5 947.166 505.5L807.834 505.5C801.574 505.5 796.5 500.426 796.5 494.166Z" stroke="#46AAC5" stroke-linejoin="round" stroke-miterlimit="10" fill="url(#fill38)" fill-rule="evenodd"/><text fill="#FFFFFF" font-family="Monaco,Monaco_MSFontService,sans-serif" font-weight="400" font-size="19" transform="translate(809.893 467)">user<tspan font-size="19" x="44.6666" y="0">-</tspan><tspan font-size="19" x="55.8333" y="0">service</tspan><tspan font-size="19" x="44.6666" y="22">8081</tspan></text><g clip-path="url(#clip39)"><g clip-path="url(#clip40)" filter="url(#fx8)" transform="translate(441 92)"><g clip-path="url(#clip41)"><path d="M6.50006 22.7485C6.50006 14.0037 13.5891 6.91475 22.3338 6.91475L257.666 6.91475C266.411 6.91475 273.5 14.0037 273.5 22.7485L273.5 86.081C273.5 94.8257 266.411 101.915 257.666 101.915L22.3338 101.915C13.5891 101.915 6.50006 94.8257 6.50006 86.081Z" stroke="#7D60A0" stroke-linejoin="round" stroke-miterlimit="10" fill="#FF0000" fill-rule="evenodd"/></g></g><g clip-path="url(#clip42)" filter="url(#fx9)" transform="translate(491 110)"><g clip-path="url(#clip43)"><path d="M10.0566-0.686523C8.67741-0.0309245 7.3724 0.296875 6.1416 0.296875 4.21191 0.296875 2.78939-0.599935 1.87402-2.39355 1.42871-3.25326 1.20605-4.1748 1.20605-5.1582 1.20605-6.10449 1.41016-7.0013 1.81836-7.84863 2.24512-8.73926 2.83732-9.42887 3.59497-9.91748 4.35262-10.4061 5.19531-10.6504 6.12305-10.6504 7.57031-10.6504 8.64339-10.0907 9.34229-8.97119 9.91748-8.04964 10.2051-6.81575 10.2051-5.26953L10.2051-4.89844 3.06152-4.89844C3.06152-4.23047 3.1945-3.60889 3.46045-3.03369 3.75114-2.39665 4.16243-1.91732 4.69434-1.5957 5.18294-1.29883 5.73958-1.15039 6.36426-1.15039 7.47754-1.15039 8.70833-1.52148 10.0566-2.26367ZM3.16357-6.18799 8.33105-6.18799 8.33105-6.43775C8.33105-7.21463 8.1486-7.85279 7.78369-8.35222 7.37549-8.91949 6.7972-9.20312 6.04883-9.20312 4.53971-9.20312 3.57796-8.19808 3.16357-6.18799ZM21.1398-10.3628 21.1398 0 19.4142 0 19.4142-2.27295C18.3009-0.565918 17.0021 0.287598 15.5177 0.287598 14.924 0.287598 14.3797 0.132975 13.8849-0.17627 13.3654-0.504069 13.0036-0.940104 12.7995-1.48438 12.6016-2.01009 12.5026-3.03988 12.5026-4.57373L12.5026-10.3628 14.2282-10.3628 14.2282-4.36035C14.2282-3.57487 14.2437-3.08317 14.2746-2.88525 14.355-2.29769 14.5653-1.87093 14.9054-1.60498 15.159-1.40088 15.4342-1.29883 15.7311-1.29883 16.43-1.29883 17.1536-1.64827 17.902-2.34717 18.5205-2.91618 19.0246-3.57487 19.4142-4.32324L19.4142-10.3628ZM24.6527 0 24.6527-10.3628 26.3783-10.3628 26.3783-8.09912C27.4482-9.79997 28.8398-10.6504 30.5531-10.6504 31.1777-10.6504 31.8024-10.5545 32.4271-10.3628L32.4271-6.62402 30.7664-6.62402 30.7664-8.98975C30.4757-9.03922 30.2469-9.06396 30.0799-9.06396 28.7873-9.06396 27.5534-8.04964 26.3783-6.021L26.3783 0ZM43.5566-0.686523C42.1774-0.0309245 40.8724 0.296875 39.6416 0.296875 37.7119 0.296875 36.2894-0.599935 35.374-2.39355 34.9287-3.25326 34.7061-4.1748 34.7061-5.1582 34.7061-6.10449 34.9102-7.0013 35.3184-7.84863 35.7451-8.73926 36.3373-9.42887 37.095-9.91748 37.8526-10.4061 38.6953-10.6504 39.623-10.6504 41.0703-10.6504 42.1434-10.0907 42.8423-8.97119 43.4175-8.04964 43.7051-6.81575 43.7051-5.26953L43.7051-4.89844 36.5615-4.89844C36.5615-4.23047 36.6945-3.60889 36.9604-3.03369 37.2511-2.39665 37.6624-1.91732 38.1943-1.5957 38.6829-1.29883 39.2396-1.15039 39.8643-1.15039 40.9775-1.15039 42.2083-1.52148 43.5566-2.26367ZM36.6636-6.18799 41.8311-6.18799 41.8311-6.43775C41.8311-7.21463 41.6486-7.85279 41.2837-8.35222 40.8755-8.91949 40.2972-9.20312 39.5488-9.20312 38.0397-9.20312 37.078-8.19808 36.6636-6.18799ZM46.5685 0 46.5685-14.9736 48.2941-14.9736 48.2941-5.568 53.2784-10.3628 55.5768-10.3628 50.6068-5.56873 55.709 0 53.3317 0 48.2941-5.56641 48.2941 0ZM64.0902-2.32861C63.651-1.61117 63.0975-1.01123 62.4295-0.528809 61.675 0.0154622 60.9173 0.287598 60.1566 0.287598 59.0371 0.287598 58.1712-0.210286 57.5589-1.20605 57.0456-2.04102 56.7889-3.05225 56.7889-4.23975 56.7889-6.67041 57.63-8.48877 59.3123-9.69482 60.0793-10.2391 61.0286-10.5112 62.1605-10.5112 62.5068-10.5112 63.0016-10.4772 63.6449-10.4092 63.7253-10.403 63.8737-10.3875 64.0902-10.3628L65.825-10.3628 65.825-3.04297C65.825-1.79362 65.9549-0.779297 66.2147 0L64.4149 0C64.2788-0.56901 64.1706-1.34521 64.0902-2.32861ZM64.0902-4.37891 64.0902-8.82275C63.4779-8.98356 62.9089-9.06396 62.3831-9.06396 61.1833-9.06396 60.2432-8.58463 59.5628-7.62598 58.9629-6.77246 58.6629-5.72103 58.6629-4.47168 58.6629-3.72331 58.7928-3.06152 59.0526-2.48633 59.3927-1.73796 59.8968-1.36377 60.5648-1.36377 61.2142-1.36377 61.9069-1.72559 62.6429-2.44922 63.1934-2.99349 63.6758-3.63672 64.0902-4.37891Z" fill="#FFFFFF" transform="translate(16.9881 29)"/><path d="M2.10596-5.11182 2.10596-6.5498 9.30518-6.5498 9.30518-5.11182Z" fill="#FFFFFF" transform="translate(83.9881 29)"/><path d="M1.55859-0.547363 1.55859-2.375C2.81413-1.56478 4.20264-1.15967 5.72412-1.15967 7.36312-1.15967 8.18262-1.65088 8.18262-2.63332 8.18262-3.01021 7.99707-3.32535 7.62598-3.57874 7.4528-3.69615 7.10335-3.86295 6.57764-4.07913L5.98389-4.3202 4.78711-4.79291C3.80371-5.18217 3.13265-5.51891 2.77393-5.80312 2.15544-6.29125 1.84619-6.93076 1.84619-7.72165 1.84619-8.79057 2.30387-9.57219 3.21924-10.0665 3.9305-10.4558 4.87061-10.6504 6.03955-10.6504 7.14665-10.6504 8.19499-10.4896 9.18457-10.168L9.18457-8.6001C8.04655-9.00212 6.97656-9.20312 5.97461-9.20312 5.41797-9.20312 4.92936-9.11663 4.50879-8.94365 3.93359-8.70263 3.646-8.34115 3.646-7.85921 3.646-7.44521 3.93359-7.08064 4.50879-6.7655 4.71289-6.65437 5.17985-6.46592 5.90967-6.20016L7.07861-5.77384C7.98779-5.44024 8.65267-5.09732 9.07324-4.74507 9.67936-4.23221 9.98242-3.58033 9.98242-2.78944 9.98242-1.67731 9.51237-0.858637 8.57227-0.333405 7.83008 0.0805969 6.85286 0.287598 5.64062 0.287598 4.31706 0.287598 2.95638 0.00927733 1.55859-0.547363ZM21.2233-0.686523C19.8441-0.0309245 18.5391 0.296875 17.3083 0.296875 15.3786 0.296875 13.9561-0.599935 13.0407-2.39355 12.5954-3.25326 12.3727-4.1748 12.3727-5.1582 12.3727-6.10449 12.5768-7.0013 12.985-7.84863 13.4118-8.73926 14.004-9.42887 14.7616-9.91748 15.5193-10.4061 16.362-10.6504 17.2897-10.6504 18.737-10.6504 19.8101-10.0907 20.509-8.97119 21.0841-8.04964 21.3717-6.81575 21.3717-5.26953L21.3717-4.89844 14.2282-4.89844C14.2282-4.23047 14.3612-3.60889 14.6271-3.03369 14.9178-2.39665 15.3291-1.91732 15.861-1.5957 16.3496-1.29883 16.9062-1.15039 17.5309-1.15039 18.6442-1.15039 19.875-1.52148 21.2233-2.26367ZM14.3302-6.18799 19.4977-6.18799 19.4977-6.43775C19.4977-7.21463 19.3153-7.85279 18.9504-8.35222 18.5422-8.91949 17.9639-9.20312 17.2155-9.20312 15.7064-9.20312 14.7446-8.19808 14.3302-6.18799ZM24.6527 0 24.6527-10.3628 26.3783-10.3628 26.3783-8.09912C27.4482-9.79997 28.8398-10.6504 30.5531-10.6504 31.1777-10.6504 31.8024-10.5545 32.4271-10.3628L32.4271-6.62402 30.7664-6.62402 30.7664-8.98975C30.4757-9.03922 30.2469-9.06396 30.0799-9.06396 28.7873-9.06396 27.5534-8.04964 26.3783-6.021L26.3783 0ZM38.3057 0 33.8063-10.3628 35.6974-10.3628 39.2502-2.15698 42.8732-10.3628 44.605-10.3628 40.0682 0ZM54.7233-0.686523C53.3441-0.0309245 52.0391 0.296875 50.8083 0.296875 48.8786 0.296875 47.4561-0.599935 46.5407-2.39355 46.0954-3.25326 45.8727-4.1748 45.8727-5.1582 45.8727-6.10449 46.0768-7.0013 46.485-7.84863 46.9118-8.73926 47.504-9.42887 48.2616-9.91748 49.0193-10.4061 49.862-10.6504 50.7897-10.6504 52.237-10.6504 53.3101-10.0907 54.009-8.97119 54.5841-8.04964 54.8717-6.81575 54.8717-5.26953L54.8717-4.89844 47.7282-4.89844C47.7282-4.23047 47.8612-3.60889 48.1271-3.03369 48.4178-2.39665 48.8291-1.91732 49.361-1.5957 49.8496-1.29883 50.4062-1.15039 51.0309-1.15039 52.1442-1.15039 53.375-1.52148 54.7233-2.26367ZM47.8302-6.18799 52.9977-6.18799 52.9977-6.43775C52.9977-7.21463 52.8153-7.85279 52.4504-8.35222 52.0422-8.91949 51.4639-9.20312 50.7155-9.20312 49.2064-9.20312 48.2446-8.19808 47.8302-6.18799ZM58.1527 0 58.1527-10.3628 59.8783-10.3628 59.8783-8.09912C60.9482-9.79997 62.3398-10.6504 64.0531-10.6504 64.6777-10.6504 65.3024-10.5545 65.9271-10.3628L65.9271-6.62402 64.2664-6.62402 64.2664-8.98975C63.9757-9.03922 63.7469-9.06396 63.5799-9.06396 62.2873-9.06396 61.0534-8.04964 59.8783-6.021L59.8783 0Z" fill="#FFFFFF" transform="translate(95.1548 29)"/><path d="M13.8789-12.0234C14.819-12.0234 15.9076-12.0482 17.1445-12.0977L17.1445-10.6875C15.8086-10.737 14.7448-10.7617 13.9531-10.7617L12.4688-10.7617 12.4688-6.67969 13.8789-6.67969C14.7201-6.67969 15.7096-6.70443 16.8477-6.75391L16.8477-5.34375C15.7591-5.39323 14.7695-5.41797 13.8789-5.41797L12.4688-5.41797 12.4688 0 14.3242 0C15.5117 0 16.7487-0.0247396 18.0352-0.0742188L18.0352 1.33594C16.7487 1.28646 15.5365 1.26172 14.3984 1.26172L8.98047 1.26172C7.69401 1.26172 6.63021 1.28646 5.78906 1.33594L5.78906-0.0742188C6.58073-0.0247396 7.66927 0 9.05469 0L10.9844 0 10.9844-5.41797 9.79688-5.41797C8.85677-5.41797 7.96615-5.39323 7.125-5.34375L7.125-6.75391C7.96615-6.70443 8.88151-6.67969 9.87109-6.67969L10.9844-6.67969 10.9844-10.7617 9.57422-10.7617C8.58463-10.7617 7.59505-10.737 6.60547-10.6875L6.60547-12.0977C7.59505-12.0482 8.60938-12.0234 9.64844-12.0234ZM5.78906-4.23047C5.24479-3.33984 4.63867-2.21419 3.9707-0.853516 3.30273 0.507161 2.84505 1.45964 2.59766 2.00391 2.10286 1.50911 1.55859 1.08854 0.964844 0.742188 1.50911 0.247396 2.1276-0.60612 2.82031-1.81836 3.51302-3.0306 4.13151-4.20573 4.67578-5.34375 5.02214-4.89844 5.39323-4.52734 5.78906-4.23047ZM2.15234-9.94531C3.29036-9.20312 4.30469-8.53516 5.19531-7.94141 4.89844-7.59505 4.57682-7.14974 4.23047-6.60547 3.29036-7.44661 2.30078-8.16406 1.26172-8.75781 1.55859-9.05469 1.85547-9.45052 2.15234-9.94531ZM3.04297-14.918C4.23047-14.0273 5.14583-13.2357 5.78906-12.543 5.34375-12.1966 4.9974-11.8255 4.75-11.4297 3.90885-12.4193 2.99349-13.2109 2.00391-13.8047 2.35026-14.151 2.69661-14.5221 3.04297-14.918ZM9.57422-14.6953C9.92057-14.9427 10.2669-15.2396 10.6133-15.5859 11.2565-15.0417 12.0482-14.25 12.9883-13.2109 12.5924-12.9141 12.1966-12.5924 11.8008-12.2461 10.9596-13.2852 10.2174-14.1016 9.57422-14.6953ZM27.1276-14.6211C27.0781-13.8789 27.0534-12.9883 27.0534-11.9492L27.0534-7.57031 29.3542-7.57031 29.3542-12.0234C29.3542-12.9635 29.3294-13.8294 29.2799-14.6211L34.7721-14.6211C34.7227-13.9284 34.6979-13.0378 34.6979-11.9492L34.6979-7.57031C35.3906-7.57031 36.1328-7.59505 36.9245-7.64453L36.9245-6.23438C36.0833-6.28385 35.3411-6.30859 34.6979-6.30859L34.6979-0.519531C34.6979 0.371094 34.5124 0.927734 34.1413 1.15039 33.7702 1.37305 33.0651 1.58333 32.026 1.78125 31.9271 1.13802 31.7044 0.56901 31.3581 0.0742188 32.0013 0.0742188 32.459 0.0494792 32.7311 0 33.0033-0.0494792 33.1888-0.321615 33.2878-0.816406L33.2878-6.30859 30.6901-6.30859C30.5911-2.84505 29.9479-0.0989583 28.7604 1.92969 28.3646 1.53385 27.8945 1.26172 27.3503 1.11328 28.5378-0.470052 29.181-2.94401 29.2799-6.30859L27.0534-6.30859 27.0534-0.0742188C27.0534 0.667969 26.8184 1.11328 26.3483 1.26172 25.8783 1.41016 25.3216 1.55859 24.6784 1.70703 24.5299 1.21224 24.3073 0.667969 24.0104 0.0742188 24.6042 0.0742188 25.0124 0.061849 25.235 0.0371094 25.4577 0.0123698 25.5938-0.197917 25.6432-0.59375L25.6432-6.30859 23.2682-6.30859C23.1693-2.94401 22.4766-0.222656 21.1901 1.85547 20.7448 1.50911 20.25 1.26172 19.7057 1.11328 21.0417-0.717448 21.7344-3.19141 21.7839-6.30859 21.1406-6.30859 20.3737-6.28385 19.4831-6.23438L19.4831-7.64453C20.3242-7.59505 21.1159-7.57031 21.8581-7.57031L21.8581-11.875C21.8581-12.9635 21.8333-13.8789 21.7839-14.6211ZM33.2878-7.57031 33.2878-13.2852 30.7643-13.2852 30.7643-7.57031ZM25.6432-7.57031 25.6432-13.2852 23.2682-13.2852 23.2682-7.57031ZM47.6497-15.4375C47.6003-14.0521 47.5755-12.7409 47.5755-11.5039L54.0326-11.5039C53.9831-10.5143 53.9583-9.15365 53.9583-7.42188 53.9583-5.73958 53.9831-4.47786 54.0326-3.63672L52.3997-3.63672 52.3997-4.75 47.5755-4.75 47.5755-1.55859C47.5755-0.964844 47.6003 0.148438 47.6497 1.78125L45.8685 1.78125C45.9674 0.890625 46.0169-0.148438 46.0169-1.33594L46.0169-4.75 41.1927-4.75 41.1927-3.63672 39.5599-3.63672C39.6094-4.37891 39.6341-5.64062 39.6341-7.42188 39.6341-9.2526 39.6094-10.6133 39.5599-11.5039L46.0169-11.5039C46.0169-12.8398 45.9922-14.151 45.9427-15.4375ZM52.3997-5.9375 52.3997-10.3164 47.5755-10.3164 47.5755-5.9375ZM46.0169-5.9375 46.0169-10.3164 41.1927-10.3164 41.1927-5.9375ZM64.0156-10.168C63.9661-9.57422 63.9414-8.68359 63.9414-7.49609L63.9414-1.11328C63.9414-0.519531 64.2383-0.222656 64.832-0.222656L68.3203-0.222656C68.8646-0.173177 69.2233-0.309245 69.3965-0.630859 69.5697-0.952474 69.7057-1.68229 69.8047-2.82031 70.2995-2.42448 70.8685-2.15234 71.5117-2.00391 71.1654-0.420573 70.819 0.531901 70.4727 0.853516 70.1263 1.17513 69.7057 1.3112 69.2109 1.26172L63.793 1.26172C62.9023 1.26172 62.4076 0.717448 62.3086-0.371094L62.3086-7.42188C62.3086-8.41146 62.2839-9.32682 62.2344-10.168ZM60.3789-9.12891C60.2305-8.83203 60.0326-8.05273 59.7852-6.79102 59.5378-5.5293 59.1914-4.00781 58.7461-2.22656 58.1523-2.42448 57.5586-2.57292 56.9648-2.67188 57.6576-4.65104 58.1771-6.92708 58.5234-9.5 58.9688-9.40104 59.5872-9.27734 60.3789-9.12891ZM71.0664-9.79688C72.2044-8.21354 73.293-6.63021 74.332-5.04688 73.7878-4.79948 73.2682-4.45312 72.7734-4.00781 71.7344-5.98698 70.72-7.61979 69.7305-8.90625 70.1758-9.15365 70.6211-9.45052 71.0664-9.79688ZM65.0547-15.5859C65.599-14.6458 66.4648-13.3346 67.6523-11.6523 67.0586-11.3555 66.5143-11.0339 66.0195-10.6875 65.2279-12.3203 64.4609-13.6562 63.7188-14.6953 64.1641-14.9427 64.6094-15.2396 65.0547-15.5859Z" fill="#FFFFFF" transform="translate(52.2414 63)"/></g></g></g><path d="M447.5 112.334C447.5 103.589 454.589 96.5001 463.334 96.5001L698.666 96.5001C707.411 96.5001 714.5 103.589 714.5 112.334L714.5 175.666C714.5 184.411 707.411 191.5 698.666 191.5L463.334 191.5C454.589 191.5 447.5 184.411 447.5 175.666Z" stroke="#7D60A0" stroke-linejoin="round" stroke-miterlimit="10" fill="url(#fill44)" fill-rule="evenodd"/><text fill="#FFFFFF" font-family="Monaco,Monaco_MSFontService,sans-serif" font-weight="400" font-size="19" transform="translate(507.988 137)">eureka-<tspan font-size="19" x="78.1666" y="0">server</tspan><tspan font-family="SimHei,SimHei_MSFontService,sans-serif" font-size="19" x="35.2533" y="34">注册中心</tspan></text><g clip-path="url(#clip45)" filter="url(#fx10)" transform="translate(700 132)"><g clip-path="url(#clip46)"><path d="M177.473 289.389 17.058 20.8078 19.6336 19.2694 180.049 287.85ZM15.2516 23.634 14.5001 13.5998 22.9784 19.0191Z" fill="#4BACC6"/></g></g><path d="M877.616 419.203 716.774 149.907 719.063 148.54 879.906 417.836ZM715.168 152.419 714.5 143.5 722.036 148.317Z" fill="#4BACC6"/><path d="M703.5 461.001C703.5 437.528 722.528 418.5 746.001 418.5L1011 418.5C1034.47 418.5 1053.5 437.528 1053.5 461.001L1053.5 630.999C1053.5 654.472 1034.47 673.5 1011 673.5L746.001 673.5C722.528 673.5 703.5 654.472 703.5 630.999Z" stroke="#31859C" stroke-width="2.66667" stroke-linejoin="round" stroke-miterlimit="10" fill="none" fill-rule="evenodd"/><text fill="#215968" font-family="SimHei,SimHei_MSFontService,sans-serif" font-weight="400" font-size="21" transform="translate(824.625 651)">服务提供者<tspan fill="#49504F" font-family="Monaco,Monaco_MSFontService,sans-serif" font-size="19" x="58.0469" y="-576">user</tspan><tspan fill="#49504F" font-family="Monaco,Monaco_MSFontService,sans-serif" font-size="19" x="102.714" y="-576">-</tspan><tspan fill="#49504F" font-family="Monaco,Monaco_MSFontService,sans-serif" font-size="19" x="113.88" y="-576">service:</tspan><tspan fill="#49504F" font-family="Monaco,Monaco_MSFontService,sans-serif" font-size="19" x="102.714" y="-554">localhost: 8081</tspan><tspan fill="#49504F" font-family="Monaco,Monaco_MSFontService,sans-serif" font-size="19" x="102.714" y="-531">localhost: 8082</tspan><tspan fill="#49504F" font-family="Monaco,Monaco_MSFontService,sans-serif" font-size="19" x="102.714" y="-509">localhost: 8083</tspan><tspan fill="#49504F" font-family="Monaco,Monaco_MSFontService,sans-serif" font-size="19" x="58.0469" y="-486">order</tspan><tspan fill="#49504F" font-family="Monaco,Monaco_MSFontService,sans-serif" font-size="19" x="113.88" y="-486">-</tspan><tspan fill="#49504F" font-family="Monaco,Monaco_MSFontService,sans-serif" font-size="19" x="125.047" y="-486">service:</tspan><tspan fill="#49504F" font-family="Monaco,Monaco_MSFontService,sans-serif" font-size="19" x="102.714" y="-464">localhost:8080</tspan></text><path d="M108.5 461.001C108.5 437.528 127.528 418.5 151.001 418.5L425.999 418.5C449.472 418.5 468.5 437.528 468.5 461.001L468.5 630.999C468.5 654.472 449.472 673.5 425.999 673.5L151.001 673.5C127.528 673.5 108.5 654.472 108.5 630.999Z" stroke="#92D050" stroke-width="2.66667" stroke-linejoin="round" stroke-miterlimit="10" fill="none" fill-rule="evenodd"/><text fill="#77933C" font-family="SimHei,SimHei_MSFontService,sans-serif" font-weight="400" font-size="21" transform="translate(234.737 651)">服务消费者</text><g clip-path="url(#clip47)" filter="url(#fx11)" transform="translate(274 139)"><g clip-path="url(#clip48)"><path d="M1.29783-0.752093 156.912 267.779 154.316 269.283-1.29783 0.752093ZM158.755 264.976 159.374 275.02 150.968 269.489Z" fill="#9BBB59" transform="matrix(-1 0 0 1 173.874 6.59979)"/></g></g><path d="M1.15362-0.668527 157.185 268.583 154.878 269.92-1.15362 0.668527ZM158.824 266.092 159.374 275.02 151.902 270.104Z" fill="#9BBB59" transform="matrix(-1 0 0 1 447.874 143.5)"/><text fill="#595959" font-family="Monaco,Monaco_MSFontService,sans-serif" font-weight="400" font-size="19" transform="translate(827.236 297)">1. <tspan font-family="SimHei,SimHei_MSFontService,sans-serif" font-size="19" x="33.5" y="0">注册</tspan><tspan font-family="SimHei,SimHei_MSFontService,sans-serif" font-size="19" x="70.8334" y="0">服务信息</tspan><tspan font-size="19" x="-656.355" y="-90">2. </tspan><tspan font-family="SimHei,SimHei_MSFontService,sans-serif" font-size="19" x="-622.855" y="-90">拉</tspan><tspan font-family="SimHei,SimHei_MSFontService,sans-serif" font-size="19" x="-604.188" y="-90">取服务</tspan><tspan font-size="19" x="-656.355" y="-56">user</tspan>-service <tspan font-family="SimHei,SimHei_MSFontService,sans-serif" font-size="19" x="-511.188" y="-56">的</tspan><tspan font-family="SimHei,SimHei_MSFontService,sans-serif" font-size="19" x="-492.522" y="-56">信息</tspan><tspan font-size="19" x="-684.077" y="256">3. </tspan><tspan font-family="SimHei,SimHei_MSFontService,sans-serif" font-size="19" x="-650.577" y="256">负载均衡</tspan><tspan fill="#49504F" font-size="19" x="-564.743" y="256">localhost: 8081</tspan></text><g clip-path="url(#clip49)" filter="url(#fx12)" transform="translate(354 460)"><g clip-path="url(#clip50)"><path d="M3.60971e-07-1.5 428.769-1.4999 428.769 1.5001-3.60971e-07 1.5ZM427.269-4.4999 436.269 0.000104987 427.269 4.5001Z" fill="#9BBB59" transform="matrix(1 0 0 -1 5.50006 13.5999)"/></g></g><path d="M3.20863e-07-1.33333 429.603-1.33323 429.603 1.33344-3.20863e-07 1.33333ZM428.269-3.9999 436.269 0.000104987 428.269 4.0001Z" fill="#9BBB59" transform="matrix(1 0 0 -1 359.5 471.5)"/><text fill="#595959" font-family="Monaco,Monaco_MSFontService,sans-serif" font-weight="400" font-size="19" transform="translate(530.987 507)">4. <tspan font-family="SimHei,SimHei_MSFontService,sans-serif" font-size="19" x="33.5" y="0">远程</tspan><tspan font-family="SimHei,SimHei_MSFontService,sans-serif" font-size="19" x="70.8334" y="0">调用</tspan></text><g clip-path="url(#clip51)" filter="url(#fx13)" transform="translate(567 180)"><g clip-path="url(#clip52)"><path d="M1.5-7.59921e-07 1.5001 199.732-1.4999 199.732-1.5 7.59921e-07ZM4.5001 198.232 0.000104987 207.232-4.4999 198.232Z" fill="#F79646" transform="matrix(1 0 0 -1 14.5001 220.832)"/></g></g><path d="M1.33333-6.75486e-07 1.33343 200.566-1.33323 200.566-1.33333 6.75486e-07ZM4.0001 199.232 0.000104987 207.232-3.9999 199.232Z" fill="#F79646" transform="matrix(1 0 0 -1 581.5 398.732)"/><text fill="#595959" font-family="SimHei,SimHei_MSFontService,sans-serif" font-weight="400" font-size="19" transform="translate(589.415 335)">心跳续<tspan font-size="19" x="56" y="0">约</tspan><tspan font-size="19" x="0" y="34">每</tspan><tspan font-family="Monaco,Monaco_MSFontService,sans-serif" font-size="19" x="29.8333" y="34">30 </tspan>秒<tspan font-family="Monaco,Monaco_MSFontService,sans-serif" font-size="19" x="93.1666" y="34">1 </tspan><tspan font-size="19" x="115.5" y="34">次</tspan><tspan fill="#49504F" font-family="Monaco,Monaco_MSFontService,sans-serif" font-size="19" x="-419.757" y="-62">localhost</tspan><tspan fill="#49504F" font-family="Monaco,Monaco_MSFontService,sans-serif" font-size="19" x="-319.257" y="-62">: 8081</tspan><tspan fill="#49504F" font-family="Monaco,Monaco_MSFontService,sans-serif" font-size="19" x="-419.757" y="-40">localhost</tspan><tspan fill="#49504F" font-family="Monaco,Monaco_MSFontService,sans-serif" font-size="19" x="-319.257" y="-40">: 8082</tspan><tspan fill="#49504F" font-family="Monaco,Monaco_MSFontService,sans-serif" font-size="19" x="-419.757" y="-17">localhost</tspan><tspan fill="#49504F" font-family="Monaco,Monaco_MSFontService,sans-serif" font-size="19" x="-319.257" y="-17">: 8083</tspan></text></g></svg>