<svg width="1280" height="720" xmlns="http://www.w3.org/2000/svg" xmlns:xlink="http://www.w3.org/1999/xlink" overflow="hidden"><defs><filter id="fx0" x="-10%" y="-10%" width="120%" height="120%" filterUnits="userSpaceOnUse" primitiveUnits="userSpaceOnUse"><feComponentTransfer color-interpolation-filters="sRGB"><feFuncR type="discrete" tableValues="0 0"/><feFuncG type="discrete" tableValues="0 0"/><feFuncB type="discrete" tableValues="0 0"/><feFuncA type="linear" slope="0.34902" intercept="0"/></feComponentTransfer><feGaussianBlur stdDeviation="1.39983 1.39983"/></filter><filter id="fx1" x="-10%" y="-10%" width="120%" height="120%" filterUnits="userSpaceOnUse" primitiveUnits="userSpaceOnUse"><feComponentTransfer color-interpolation-filters="sRGB"><feFuncR type="discrete" tableValues="0 0"/><feFuncG type="discrete" tableValues="0 0"/><feFuncB type="discrete" tableValues="0 0"/><feFuncA type="linear" slope="0.34902" intercept="0"/></feComponentTransfer><feGaussianBlur stdDeviation="1.39983 1.39983"/></filter><filter id="fx2" x="-10%" y="-10%" width="120%" height="120%" filterUnits="userSpaceOnUse" primitiveUnits="userSpaceOnUse"><feComponentTransfer color-interpolation-filters="sRGB"><feFuncR type="discrete" tableValues="0 0"/><feFuncG type="discrete" tableValues="0 0"/><feFuncB type="discrete" tableValues="0 0"/><feFuncA type="linear" slope="0.34902" intercept="0"/></feComponentTransfer><feGaussianBlur stdDeviation="1.39983 1.39983"/></filter><filter id="fx3" x="-10%" y="-10%" width="120%" height="120%" filterUnits="userSpaceOnUse" primitiveUnits="userSpaceOnUse"><feComponentTransfer color-interpolation-filters="sRGB"><feFuncR type="discrete" tableValues="0 0"/><feFuncG type="discrete" tableValues="0 0"/><feFuncB type="discrete" tableValues="0 0"/><feFuncA type="linear" slope="0.34902" intercept="0"/></feComponentTransfer><feGaussianBlur stdDeviation="1.39983 1.39983"/></filter><filter id="fx4" x="-10%" y="-10%" width="120%" height="120%" filterUnits="userSpaceOnUse" primitiveUnits="userSpaceOnUse"><feComponentTransfer color-interpolation-filters="sRGB"><feFuncR type="discrete" tableValues="0 0"/><feFuncG type="discrete" tableValues="0 0"/><feFuncB type="discrete" tableValues="0 0"/><feFuncA type="linear" slope="0.34902" intercept="0"/></feComponentTransfer><feGaussianBlur stdDeviation="1.39983 1.39983"/></filter><filter id="fx5" x="-10%" y="-10%" width="120%" height="120%" filterUnits="userSpaceOnUse" primitiveUnits="userSpaceOnUse"><feComponentTransfer color-interpolation-filters="sRGB"><feFuncR type="discrete" tableValues="0 0"/><feFuncG type="discrete" tableValues="0 0"/><feFuncB type="discrete" tableValues="0 0"/><feFuncA type="linear" slope="0.34902" intercept="0"/></feComponentTransfer><feGaussianBlur stdDeviation="1.39983 1.39983"/></filter><filter id="fx6" x="-10%" y="-10%" width="120%" height="120%" filterUnits="userSpaceOnUse" primitiveUnits="userSpaceOnUse"><feComponentTransfer color-interpolation-filters="sRGB"><feFuncR type="discrete" tableValues="0 0"/><feFuncG type="discrete" tableValues="0 0"/><feFuncB type="discrete" tableValues="0 0"/><feFuncA type="linear" slope="0.34902" intercept="0"/></feComponentTransfer><feGaussianBlur stdDeviation="1.39983 1.39983"/></filter><filter id="fx7" x="-10%" y="-10%" width="120%" height="120%" filterUnits="userSpaceOnUse" primitiveUnits="userSpaceOnUse"><feComponentTransfer color-interpolation-filters="sRGB"><feFuncR type="discrete" tableValues="0 0"/><feFuncG type="discrete" tableValues="0 0"/><feFuncB type="discrete" tableValues="0 0"/><feFuncA type="linear" slope="0.34902" intercept="0"/></feComponentTransfer><feGaussianBlur stdDeviation="1.39983 1.39983"/></filter><filter id="fx8" x="-10%" y="-10%" width="120%" height="120%" filterUnits="userSpaceOnUse" primitiveUnits="userSpaceOnUse"><feComponentTransfer color-interpolation-filters="sRGB"><feFuncR type="discrete" tableValues="0 0"/><feFuncG type="discrete" tableValues="0 0"/><feFuncB type="discrete" tableValues="0 0"/><feFuncA type="linear" slope="0.34902" intercept="0"/></feComponentTransfer><feGaussianBlur stdDeviation="1.39983 1.39983"/></filter><filter id="fx9" x="-10%" y="-10%" width="120%" height="120%" filterUnits="userSpaceOnUse" primitiveUnits="userSpaceOnUse"><feComponentTransfer color-interpolation-filters="sRGB"><feFuncR type="discrete" tableValues="0 0"/><feFuncG type="discrete" tableValues="0 0"/><feFuncB type="discrete" tableValues="0 0"/><feFuncA type="linear" slope="0.34902" intercept="0"/></feComponentTransfer><feGaussianBlur stdDeviation="1.39983 1.39983"/></filter><filter id="fx10" x="-10%" y="-10%" width="120%" height="120%" filterUnits="userSpaceOnUse" primitiveUnits="userSpaceOnUse"><feComponentTransfer color-interpolation-filters="sRGB"><feFuncR type="discrete" tableValues="0 0"/><feFuncG type="discrete" tableValues="0 0"/><feFuncB type="discrete" tableValues="0 0"/><feFuncA type="linear" slope="0.380392" intercept="0"/></feComponentTransfer><feGaussianBlur stdDeviation="1.39983 1.39983"/></filter><filter id="fx11" x="-10%" y="-10%" width="120%" height="120%" filterUnits="userSpaceOnUse" primitiveUnits="userSpaceOnUse"><feComponentTransfer color-interpolation-filters="sRGB"><feFuncR type="discrete" tableValues="0 0"/><feFuncG type="discrete" tableValues="0 0"/><feFuncB type="discrete" tableValues="0 0"/><feFuncA type="linear" slope="0.380392" intercept="0"/></feComponentTransfer><feGaussianBlur stdDeviation="1.39983 1.39983"/></filter><filter id="fx12" x="-10%" y="-10%" width="120%" height="120%" filterUnits="userSpaceOnUse" primitiveUnits="userSpaceOnUse"><feComponentTransfer color-interpolation-filters="sRGB"><feFuncR type="discrete" tableValues="0 0"/><feFuncG type="discrete" tableValues="0 0"/><feFuncB type="discrete" tableValues="0 0"/><feFuncA type="linear" slope="0.380392" intercept="0"/></feComponentTransfer><feGaussianBlur stdDeviation="1.39983 1.39983"/></filter><filter id="fx13" x="-10%" y="-10%" width="120%" height="120%" filterUnits="userSpaceOnUse" primitiveUnits="userSpaceOnUse"><feComponentTransfer color-interpolation-filters="sRGB"><feFuncR type="discrete" tableValues="0 0"/><feFuncG type="discrete" tableValues="0 0"/><feFuncB type="discrete" tableValues="0 0"/><feFuncA type="linear" slope="0.380392" intercept="0"/></feComponentTransfer><feGaussianBlur stdDeviation="1.39983 1.39983"/></filter><clipPath id="clip14"><rect x="0" y="0" width="1280" height="720"/></clipPath><clipPath id="clip15"><path d="M284.667 432.5C278.5 432.5 273.5 437.5 273.5 443.667L273.5 488.333C273.5 494.5 278.5 499.5 284.667 499.5L407.333 499.5C413.5 499.5 418.5 494.5 418.5 488.333L418.5 443.667C418.5 437.5 413.5 432.5 407.333 432.5ZM1.90735e-05 1.07288e-05 1280 1.07288e-05 1280 720 1.90735e-05 720Z" fill-rule="evenodd" clip-rule="evenodd"/></clipPath><clipPath id="clip16"><rect x="1" y="1" width="157" height="79"/></clipPath><clipPath id="clip17"><rect x="0" y="0" width="158" height="80"/></clipPath><clipPath id="clip18"><rect x="13" y="9" width="127" height="49"/></clipPath><clipPath id="clip19"><rect x="0" y="0" width="152" height="73"/></clipPath><linearGradient x1="346" y1="499.5" x2="346" y2="432.5" gradientUnits="userSpaceOnUse" spreadMethod="reflect" id="fill20"><stop offset="0" stop-color="#769535"/><stop offset="0.8" stop-color="#9BC348"/><stop offset="1" stop-color="#9CC746"/></linearGradient><clipPath id="clip21"><path d="M790.667 531.5C784.5 531.5 779.5 536.5 779.5 542.667L779.5 587.333C779.5 593.5 784.5 598.5 790.667 598.5L913.333 598.5C919.5 598.5 924.5 593.5 924.5 587.333L924.5 542.667C924.5 536.5 919.5 531.5 913.333 531.5ZM1.90735e-05 1.07288e-05 1280 1.07288e-05 1280 720 1.90735e-05 720Z" fill-rule="evenodd" clip-rule="evenodd"/></clipPath><clipPath id="clip22"><rect x="1" y="1" width="157" height="79"/></clipPath><clipPath id="clip23"><rect x="0" y="0" width="158" height="80"/></clipPath><clipPath id="clip24"><rect x="13" y="9" width="117" height="49"/></clipPath><clipPath id="clip25"><rect x="0" y="0" width="141" height="73"/></clipPath><linearGradient x1="852" y1="598.5" x2="852" y2="531.5" gradientUnits="userSpaceOnUse" spreadMethod="reflect" id="fill26"><stop offset="0" stop-color="#2787A0"/><stop offset="0.8" stop-color="#36B1D2"/><stop offset="1" stop-color="#34B3D6"/></linearGradient><clipPath id="clip27"><path d="M951.667 524.5C945.5 524.5 940.5 529.5 940.5 535.667L940.5 580.333C940.5 586.5 945.5 591.5 951.667 591.5L1075.33 591.5C1081.5 591.5 1086.5 586.5 1086.5 580.333L1086.5 535.667C1086.5 529.5 1081.5 524.5 1075.33 524.5ZM1.90735e-05 1.07288e-05 1280 1.07288e-05 1280 720 1.90735e-05 720Z" fill-rule="evenodd" clip-rule="evenodd"/></clipPath><clipPath id="clip28"><rect x="1" y="1" width="159" height="79"/></clipPath><clipPath id="clip29"><rect x="0" y="0" width="159" height="80"/></clipPath><clipPath id="clip30"><rect x="13" y="9" width="117" height="49"/></clipPath><clipPath id="clip31"><rect x="0" y="0" width="142" height="72"/></clipPath><linearGradient x1="1013.5" y1="591.5" x2="1013.5" y2="524.5" gradientUnits="userSpaceOnUse" spreadMethod="reflect" id="fill32"><stop offset="0" stop-color="#2787A0"/><stop offset="0.8" stop-color="#36B1D2"/><stop offset="1" stop-color="#34B3D6"/></linearGradient><clipPath id="clip33"><path d="M866.834 431.5C860.574 431.5 855.5 436.574 855.5 442.834L855.5 488.166C855.5 494.426 860.574 499.5 866.834 499.5L989.166 499.5C995.426 499.5 1000.5 494.426 1000.5 488.166L1000.5 442.834C1000.5 436.574 995.426 431.5 989.166 431.5ZM1.90735e-05 1.07288e-05 1280 1.07288e-05 1280 720 1.90735e-05 720Z" fill-rule="evenodd" clip-rule="evenodd"/></clipPath><clipPath id="clip34"><rect x="1" y="1" width="157" height="81"/></clipPath><clipPath id="clip35"><rect x="0" y="0" width="158" height="81"/></clipPath><clipPath id="clip36"><rect x="13" y="9" width="117" height="49"/></clipPath><clipPath id="clip37"><rect x="0" y="0" width="141" height="72"/></clipPath><linearGradient x1="928" y1="499.5" x2="928" y2="431.5" gradientUnits="userSpaceOnUse" spreadMethod="reflect" id="fill38"><stop offset="0" stop-color="#2787A0"/><stop offset="0.8" stop-color="#36B1D2"/><stop offset="1" stop-color="#34B3D6"/></linearGradient><clipPath id="clip39"><path d="M521.667 96.5001C514.395 96.5001 508.5 102.395 508.5 109.667L508.5 162.333C508.5 169.605 514.395 175.5 521.667 175.5L700.333 175.5C707.605 175.5 713.5 169.605 713.5 162.333L713.5 109.667C713.5 102.395 707.605 96.5001 700.333 96.5001ZM1.90735e-05 1.07288e-05 1280 1.07288e-05 1280 720 1.90735e-05 720Z" fill-rule="evenodd" clip-rule="evenodd"/></clipPath><clipPath id="clip40"><rect x="1" y="1" width="217" height="91"/></clipPath><clipPath id="clip41"><rect x="0" y="0" width="218" height="92"/></clipPath><clipPath id="clip42"><rect x="11" y="9" width="155" height="63"/></clipPath><clipPath id="clip43"><rect x="0" y="0" width="179" height="84"/></clipPath><linearGradient x1="611" y1="175.5" x2="611" y2="96.5001" gradientUnits="userSpaceOnUse" spreadMethod="reflect" id="fill44"><stop offset="0" stop-color="#5D417E"/><stop offset="0.8" stop-color="#7B58A6"/><stop offset="1" stop-color="#7B57A8"/></linearGradient><clipPath id="clip45"><rect x="9" y="7" width="237" height="291"/></clipPath><clipPath id="clip46"><rect x="0" y="0" width="246" height="297"/></clipPath><clipPath id="clip47"><rect x="9" y="-1" width="173" height="291"/></clipPath><clipPath id="clip48"><rect x="0" y="0" width="181" height="298"/></clipPath><clipPath id="clip49"><rect x="1" y="3" width="449" height="21"/></clipPath><clipPath id="clip50"><rect x="0" y="0" width="458" height="28"/></clipPath><clipPath id="clip51"><rect x="5" y="7" width="47" height="231"/></clipPath><clipPath id="clip52"><rect x="0" y="0" width="52" height="238"/></clipPath></defs><g clip-path="url(#clip14)"><rect x="0" y="0" width="1280" height="720" fill="#FFFFFF"/><path d="M131 407.009C131 399.272 137.272 393 145.009 393L1134.99 393C1142.73 393 1149 399.272 1149 407.009L1149 665.991C1149 673.728 1142.73 680 1134.99 680L145.009 680C137.272 680 131 673.728 131 665.991Z" fill="#EBF1DE" fill-rule="evenodd"/><text fill="#AD2B26" font-family="Source Code Pro,Source Code Pro_MSFontService,sans-serif" font-weight="400" font-size="24" transform="translate(546.833 665)">eureka<tspan font-size="24" x="86.0001" y="0">-</tspan><tspan font-size="24" x="100.333" y="0">client</tspan><tspan fill="#262626" font-family="Microsoft YaHei,Microsoft YaHei_MSFontService,sans-serif" font-weight="700" font-size="24" x="-426.385" y="-591">Eureka </tspan><tspan fill="#262626" font-family="Microsoft YaHei,Microsoft YaHei_MSFontService,sans-serif" font-weight="700" font-size="24" x="-337.839" y="-591">的作用</tspan></text><g clip-path="url(#clip15)"><g clip-path="url(#clip16)" filter="url(#fx0)" transform="translate(267 428)"><g clip-path="url(#clip17)"><path d="M6.50006 18.0817C6.50006 11.9144 11.4997 6.91476 17.667 6.91476L140.333 6.91476C146.5 6.91476 151.5 11.9144 151.5 18.0817L151.5 62.7478C151.5 68.9151 146.5 73.9148 140.333 73.9148L17.667 73.9148C11.4997 73.9148 6.50006 68.9151 6.50006 62.7478Z" stroke="#98B954" stroke-linejoin="round" stroke-miterlimit="10" fill="#FF0000" fill-rule="evenodd"/></g></g><g clip-path="url(#clip18)" filter="url(#fx1)" transform="translate(269 434)"><g clip-path="url(#clip19)"><path d="M0.937012-5.01904C0.937012-6.7137 1.41016-8.05119 2.35645-9.03149 3.30273-10.0118 4.5861-10.502 6.20654-10.502 7.74658-10.502 8.95418-10.0304 9.82935-9.08716 10.7045-8.14396 11.1421-6.84049 11.1421-5.17676 11.1421-3.55631 10.6751-2.24821 9.74121-1.25244 8.80729-0.256673 7.55485 0.241211 5.98389 0.241211 4.45003 0.241211 3.22542-0.241211 2.31006-1.20605 1.39469-2.1709 0.937012-3.44189 0.937012-5.01904ZM2.79248-5.07471C2.79248-3.89339 3.0909-2.96256 3.68774-2.28223 4.28459-1.60189 5.08708-1.26172 6.09521-1.26172 7.13428-1.26172 7.92594-1.59416 8.47021-2.25903 9.01449-2.92391 9.28662-3.87793 9.28662-5.12109 9.28662-6.37044 9.01449-7.3291 8.47021-7.99707 7.92594-8.66504 7.13428-8.99902 6.09521-8.99902 5.07471-8.99902 4.26912-8.64958 3.67847-7.95068 3.08781-7.25179 2.79248-6.29313 2.79248-5.07471ZM18.9583-8.46094C18.6553-8.67741 18.2378-8.78564 17.7059-8.78564 17.0008-8.78564 16.4194-8.4563 15.9618-7.79761 15.5041-7.13892 15.2752-6.27148 15.2752-5.19531L15.2752 0 13.4569 0 13.4569-10.2607 15.2752-10.2607 15.2752-8.17334 15.3123-8.17334C15.8319-9.68245 16.7287-10.437 18.0028-10.437 18.4172-10.437 18.7357-10.3906 18.9583-10.2979ZM29.5298 0 27.7114 0 27.7114-1.70703 27.6743-1.70703C26.9259-0.408203 25.7632 0.241211 24.186 0.241211 22.8872 0.241211 21.8543-0.22111 21.0874-1.14575 20.3205-2.07039 19.937-3.3182 19.937-4.88916 19.937-6.58382 20.37-7.94295 21.2358-8.96655 22.1017-9.99015 23.2336-10.502 24.6313-10.502 26.0291-10.502 27.0435-9.95768 27.6743-8.86914L27.7114-8.86914 27.7114-15.187 29.5298-15.187ZM27.7207-6.10449C27.7207-6.92708 27.4501-7.61515 26.9089-8.1687 26.3678-8.72225 25.7013-8.99902 24.9097-8.99902 23.9448-8.99902 23.1841-8.63875 22.6274-7.91821 22.0708-7.19767 21.7925-6.21582 21.7925-4.97266 21.7925-3.82845 22.06-2.92391 22.595-2.25903 23.13-1.59416 23.8428-1.26172 24.7334-1.26172 25.6117-1.26172 26.3291-1.58797 26.8857-2.24048 27.4424-2.89298 27.7207-3.70475 27.7207-4.67578ZM40.9824-4.6665 33.8018-4.6665C33.8327-3.57178 34.1326-2.72599 34.7017-2.12915 35.2707-1.53231 36.0654-1.23389 37.0859-1.23389 38.2363-1.23389 39.2909-1.60189 40.2495-2.33789L40.2495-0.714355C39.3465-0.0773112 38.1497 0.241211 36.6592 0.241211 35.1748 0.241211 34.0167-0.228841 33.1848-1.16895 32.3529-2.10905 31.937-3.41406 31.937-5.08398 31.937-6.65495 32.3931-7.95068 33.3054-8.97119 34.2177-9.9917 35.3511-10.502 36.7056-10.502 38.0477-10.502 39.096-10.0706 39.8506-9.20776 40.6051-8.34497 40.9824-7.13737 40.9824-5.58496ZM39.1641-6.12305C39.1579-7.05078 38.9383-7.76823 38.5054-8.27539 38.0724-8.78255 37.4632-9.03613 36.6777-9.03613 35.9541-9.03613 35.3279-8.76709 34.7991-8.229 34.2703-7.69092 33.9378-6.98893 33.8018-6.12305ZM48.7917-8.46094C48.4886-8.67741 48.0711-8.78564 47.5392-8.78564 46.8341-8.78564 46.2528-8.4563 45.7951-7.79761 45.3374-7.13892 45.1086-6.27148 45.1086-5.19531L45.1086 0 43.2902 0 43.2902-10.2607 45.1086-10.2607 45.1086-8.17334 45.1457-8.17334C45.6652-9.68245 46.562-10.437 47.8361-10.437 48.2505-10.437 48.569-10.3906 48.7917-10.2979Z" fill="#FFFFFF" transform="translate(17.1752 30)"/><path d="M6.91162-4.99121 1.44727-4.99121 1.44727-6.39209 6.91162-6.39209Z" fill="#FFFFFF" transform="translate(66.0085 30)"/><path d="M1.04834-2.21729C1.9637-1.5555 2.9502-1.22461 4.00781-1.22461 5.42415-1.22461 6.13232-1.68848 6.13232-2.61621 6.13232-3.01204 5.9777-3.3383 5.66846-3.59497 5.35921-3.85164 4.73145-4.15625 3.78516-4.50879 2.64714-4.96647 1.90804-5.41951 1.56787-5.86792 1.2277-6.31632 1.05762-6.85905 1.05762-7.49609 1.05762-8.40527 1.44263-9.13354 2.21265-9.68091 2.98267-10.2283 3.9305-10.502 5.05615-10.502 5.92822-10.502 6.73844-10.3504 7.48682-10.0474L7.48682-8.29395C6.71989-8.78874 5.85091-9.03613 4.87988-9.03613 4.2985-9.03613 3.82536-8.90934 3.46045-8.65576 3.09554-8.40218 2.91309-8.0682 2.91309-7.65381 2.91309-7.2456 3.04451-6.92708 3.30737-6.69824 3.57023-6.4694 4.15316-6.17562 5.05615-5.81689 6.20036-5.39014 6.97347-4.94792 7.37549-4.49023 7.77751-4.03255 7.97852-3.46663 7.97852-2.79248 7.97852-1.85238 7.59351-1.11173 6.82349-0.570557 6.05347-0.0293783 5.05615 0.241211 3.83154 0.241211 2.76774 0.241211 1.84001 0.0402018 1.04834-0.361816ZM18.6491-4.6665 11.4684-4.6665C11.4993-3.57178 11.7993-2.72599 12.3683-2.12915 12.9373-1.53231 13.7321-1.23389 14.7526-1.23389 15.903-1.23389 16.9575-1.60189 17.9162-2.33789L17.9162-0.714355C17.0132-0.0773112 15.8164 0.241211 14.3258 0.241211 12.8415 0.241211 11.6833-0.228841 10.8515-1.16895 10.0196-2.10905 9.60368-3.41406 9.60368-5.08398 9.60368-6.65495 10.0598-7.95068 10.9721-8.97119 11.8844-9.9917 13.0177-10.502 14.3722-10.502 15.7144-10.502 16.7627-10.0706 17.5173-9.20776 18.2718-8.34497 18.6491-7.13737 18.6491-5.58496ZM16.8307-6.12305C16.8245-7.05078 16.605-7.76823 16.172-8.27539 15.7391-8.78255 15.1299-9.03613 14.3444-9.03613 13.6208-9.03613 12.9945-8.76709 12.4657-8.229 11.9369-7.69092 11.6045-6.98893 11.4684-6.12305ZM26.4583-8.46094C26.1553-8.67741 25.7378-8.78564 25.2059-8.78564 24.5008-8.78564 23.9194-8.4563 23.4618-7.79761 23.0041-7.13892 22.7752-6.27148 22.7752-5.19531L22.7752 0 20.9569 0 20.9569-10.2607 22.7752-10.2607 22.7752-8.17334 22.8123-8.17334C23.3319-9.68245 24.2287-10.437 25.5028-10.437 25.9172-10.437 26.2357-10.3906 26.4583-10.2979ZM36.3896-10.2607 32.3262 0 30.4893 0 26.6299-10.2607 28.6152-10.2607 31.1201-2.93164C31.3242-2.34408 31.4448-1.85238 31.4819-1.45654L31.5283-1.45654C31.5902-1.97607 31.6984-2.4554 31.853-2.89453L34.4785-10.2607ZM37.7342-13.8789C37.7342-14.2005 37.844-14.4711 38.0636-14.6907 38.2831-14.9102 38.5537-15.02 38.8753-15.02 39.2031-15.02 39.4799-14.9118 39.7057-14.6953 39.9314-14.4788 40.0443-14.2067 40.0443-13.8789 40.0443-13.5573 39.9314-13.2898 39.7057-13.0764 39.4799-12.863 39.2031-12.7563 38.8753-12.7563 38.5475-12.7563 38.2754-12.863 38.0589-13.0764 37.8424-13.2898 37.7342-13.5573 37.7342-13.8789ZM37.9476 0 37.9476-10.2607 39.766-10.2607 39.766 0ZM50.0448-0.463867C49.2593 0.00618488 48.313 0.241211 47.2059 0.241211 45.7215 0.241211 44.5278-0.235026 43.6248-1.1875 42.7218-2.13997 42.2703-3.37386 42.2703-4.88916 42.2703-6.57145 42.7574-7.92749 43.7315-8.95728 44.7057-9.98706 46.0091-10.502 47.6419-10.502 48.582-10.502 49.3861-10.335 50.054-10.001L50.054-8.20117C49.3304-8.73307 48.5264-8.99902 47.6419-8.99902 46.6029-8.99902 45.7571-8.63875 45.1046-7.91821 44.4521-7.19767 44.1258-6.23747 44.1258-5.0376 44.1258-3.85628 44.4335-2.93164 45.0489-2.26367 45.6643-1.5957 46.4946-1.26172 47.5399-1.26172 48.4243-1.26172 49.2593-1.55241 50.0448-2.13379ZM60.6491-4.6665 53.4684-4.6665C53.4994-3.57178 53.7993-2.72599 54.3683-2.12915 54.9373-1.53231 55.7321-1.23389 56.7526-1.23389 57.903-1.23389 58.9575-1.60189 59.9162-2.33789L59.9162-0.714355C59.0132-0.0773112 57.8164 0.241211 56.3259 0.241211 54.8415 0.241211 53.6833-0.228841 52.8515-1.16895 52.0196-2.10905 51.6037-3.41406 51.6037-5.08398 51.6037-6.65495 52.0598-7.95068 52.9721-8.97119 53.8844-9.9917 55.0177-10.502 56.3722-10.502 57.7144-10.502 58.7627-10.0706 59.5173-9.20776 60.2718-8.34497 60.6491-7.13737 60.6491-5.58496ZM58.8307-6.12305C58.8245-7.05078 58.605-7.76823 58.172-8.27539 57.7391-8.78255 57.1299-9.03613 56.3444-9.03613 55.6208-9.03613 54.9946-8.76709 54.4657-8.229 53.9369-7.69092 53.6045-6.98893 53.4684-6.12305Z" fill="#FFFFFF" transform="translate(74.0085 30)"/><path d="M0.90918-4.00781C0.90918-4.83659 1.15658-5.60042 1.65137-6.29932 2.14616-6.99821 2.7832-7.49609 3.5625-7.79297 2.93783-8.14551 2.44303-8.597 2.07812-9.14746 1.71322-9.69792 1.53076-10.2948 1.53076-10.938 1.53076-11.6183 1.70548-12.2399 2.05493-12.8027 2.40438-13.3656 2.88989-13.8078 3.51147-14.1294 4.13306-14.451 4.81803-14.6118 5.56641-14.6118 6.32096-14.6118 7.01058-14.4526 7.63525-14.134 8.25993-13.8155 8.74544-13.3748 9.0918-12.812 9.43815-12.2492 9.61133-11.6245 9.61133-10.938 9.61133-10.3071 9.43351-9.71492 9.07788-9.16138 8.72225-8.60783 8.229-8.15169 7.59814-7.79297 8.37744-7.48991 9.01139-6.98893 9.5-6.29004 9.98861-5.59115 10.2329-4.8304 10.2329-4.00781 10.2329-3.19141 10.0381-2.46004 9.64844-1.81372 9.25879-1.1674 8.70524-0.664876 7.98779-0.306152 7.27034 0.0525716 6.46322 0.231934 5.56641 0.231934 4.67578 0.231934 3.87484 0.0525716 3.16357-0.306152 2.45231-0.664876 1.89876-1.16895 1.50293-1.81836 1.1071-2.46777 0.90918-3.19759 0.90918-4.00781ZM2.69043-4.09131C2.69043-3.23779 2.95329-2.55436 3.479-2.04102 4.00472-1.52767 4.70361-1.271 5.57568-1.271 6.4292-1.271 7.12655-1.53231 7.66772-2.05493 8.2089-2.57756 8.47949-3.25635 8.47949-4.09131 8.47949-4.88298 8.20581-5.5494 7.65845-6.09058 7.11108-6.63175 6.41683-6.90234 5.57568-6.90234 4.74072-6.90234 4.05111-6.63794 3.50684-6.10913 2.96256-5.58032 2.69043-4.90771 2.69043-4.09131ZM3.20996-10.7896C3.20996-10.1463 3.4388-9.59432 3.89648-9.13354 4.35417-8.67277 4.9139-8.44238 5.57568-8.44238 6.2251-8.44238 6.78638-8.67432 7.25952-9.13818 7.73267-9.60205 7.96924-10.1525 7.96924-10.7896 7.96924-11.439 7.74194-11.9894 7.28735-12.4409 6.83276-12.8924 6.26221-13.1182 5.57568-13.1182 4.89534-13.1182 4.33097-12.8971 3.88257-12.4548 3.43416-12.0126 3.20996-11.4575 3.20996-10.7896ZM11.8442-6.90234C11.8442-9.43815 12.2648-11.357 13.106-12.6589 13.9471-13.9609 15.1655-14.6118 16.7612-14.6118 19.8042-14.6118 21.3257-12.1564 21.3257-7.24561 21.3257-4.82113 20.8974-2.9672 20.0408-1.68384 19.1842-0.400472 17.9827 0.241211 16.4365 0.241211 14.9769 0.241211 13.8466-0.368001 13.0457-1.58643 12.2447-2.80485 11.8442-4.57682 11.8442-6.90234ZM13.6997-6.98584C13.6997-3.16976 14.6676-1.26172 16.6035-1.26172 18.5085-1.26172 19.4609-3.20068 19.4609-7.07861 19.4609-11.0926 18.527-13.0996 16.6592-13.0996 14.6862-13.0996 13.6997-11.0617 13.6997-6.98584ZM22.9092-4.00781C22.9092-4.83659 23.1566-5.60042 23.6514-6.29932 24.1462-6.99821 24.7832-7.49609 25.5625-7.79297 24.9378-8.14551 24.443-8.597 24.0781-9.14746 23.7132-9.69792 23.5308-10.2948 23.5308-10.938 23.5308-11.6183 23.7055-12.2399 24.0549-12.8027 24.4044-13.3656 24.8899-13.8078 25.5115-14.1294 26.1331-14.451 26.818-14.6118 27.5664-14.6118 28.321-14.6118 29.0106-14.4526 29.6353-14.134 30.2599-13.8155 30.7454-13.3748 31.0918-12.812 31.4381-12.2492 31.6113-11.6245 31.6113-10.938 31.6113-10.3071 31.4335-9.71492 31.0779-9.16138 30.7222-8.60783 30.229-8.15169 29.5981-7.79297 30.3774-7.48991 31.0114-6.98893 31.5-6.29004 31.9886-5.59115 32.2329-4.8304 32.2329-4.00781 32.2329-3.19141 32.0381-2.46004 31.6484-1.81372 31.2588-1.1674 30.7052-0.664876 29.9878-0.306152 29.2703 0.0525716 28.4632 0.231934 27.5664 0.231934 26.6758 0.231934 25.8748 0.0525716 25.1636-0.306152 24.4523-0.664876 23.8988-1.16895 23.5029-1.81836 23.1071-2.46777 22.9092-3.19759 22.9092-4.00781ZM24.6904-4.09131C24.6904-3.23779 24.9533-2.55436 25.479-2.04102 26.0047-1.52767 26.7036-1.271 27.5757-1.271 28.4292-1.271 29.1265-1.53231 29.6677-2.05493 30.2089-2.57756 30.4795-3.25635 30.4795-4.09131 30.4795-4.88298 30.2058-5.5494 29.6584-6.09058 29.1111-6.63175 28.4168-6.90234 27.5757-6.90234 26.7407-6.90234 26.0511-6.63794 25.5068-6.10913 24.9626-5.58032 24.6904-4.90771 24.6904-4.09131ZM25.21-10.7896C25.21-10.1463 25.4388-9.59432 25.8965-9.13354 26.3542-8.67277 26.9139-8.44238 27.5757-8.44238 28.2251-8.44238 28.7864-8.67432 29.2595-9.13818 29.7327-9.60205 29.9692-10.1525 29.9692-10.7896 29.9692-11.439 29.7419-11.9894 29.2874-12.4409 28.8328-12.8924 28.2622-13.1182 27.5757-13.1182 26.8953-13.1182 26.331-12.8971 25.8826-12.4548 25.4342-12.0126 25.21-11.4575 25.21-10.7896ZM33.8442-6.90234C33.8442-9.43815 34.2648-11.357 35.106-12.6589 35.9471-13.9609 37.1655-14.6118 38.7612-14.6118 41.8042-14.6118 43.3257-12.1564 43.3257-7.24561 43.3257-4.82113 42.8974-2.9672 42.0408-1.68384 41.1842-0.400472 39.9827 0.241211 38.4365 0.241211 36.9769 0.241211 35.8466-0.368001 35.0457-1.58643 34.2447-2.80485 33.8442-4.57682 33.8442-6.90234ZM35.6997-6.98584C35.6997-3.16976 36.6676-1.26172 38.6035-1.26172 40.5085-1.26172 41.4609-3.20068 41.4609-7.07861 41.4609-11.0926 40.527-13.0996 38.6592-13.0996 36.6862-13.0996 35.6997-11.0617 35.6997-6.98584Z" fill="#FFFFFF" transform="translate(54.2552 52)"/></g></g></g><path d="M273.5 443.667C273.5 437.5 278.5 432.5 284.667 432.5L407.333 432.5C413.5 432.5 418.5 437.5 418.5 443.667L418.5 488.333C418.5 494.5 413.5 499.5 407.333 499.5L284.667 499.5C278.5 499.5 273.5 494.5 273.5 488.333Z" stroke="#98B954" stroke-linejoin="round" stroke-miterlimit="10" fill="url(#fill20)" fill-rule="evenodd"/><text fill="#FFFFFF" font-family="Microsoft YaHei,Microsoft YaHei_MSFontService,sans-serif" font-weight="400" font-size="19" transform="translate(286.175 461)">order<tspan font-size="19" x="48.8333" y="0">-</tspan>service<tspan font-size="19" x="37.08" y="22">8080</tspan></text><g clip-path="url(#clip21)"><g clip-path="url(#clip22)" filter="url(#fx2)" transform="translate(773 527)"><g clip-path="url(#clip23)"><path d="M6.50006 18.0817C6.50006 11.9144 11.4997 6.91473 17.667 6.91473L140.333 6.91473C146.5 6.91473 151.5 11.9144 151.5 18.0817L151.5 62.7478C151.5 68.9151 146.5 73.9147 140.333 73.9147L17.667 73.9147C11.4997 73.9147 6.50006 68.9151 6.50006 62.7478Z" stroke="#46AAC5" stroke-linejoin="round" stroke-miterlimit="10" fill="#FF0000" fill-rule="evenodd"/></g></g><g clip-path="url(#clip24)" filter="url(#fx3)" transform="translate(781 533)"><g clip-path="url(#clip25)"><path d="M10.0938 0 8.26611 0 8.26611-1.61426 8.229-1.61426C7.54248-0.377279 6.48796 0.241211 5.06543 0.241211 2.63477 0.241211 1.41943-1.21224 1.41943-4.11914L1.41943-10.2607 3.21924-10.2607 3.21924-4.38818C3.21924-2.30387 4.01709-1.26172 5.61279-1.26172 6.40446-1.26172 7.0446-1.55396 7.5332-2.13843 8.02181-2.7229 8.26611-3.46045 8.26611-4.35107L8.26611-10.2607 10.0938-10.2607ZM12.5483-2.21729C13.4637-1.5555 14.4502-1.22461 15.5078-1.22461 16.9242-1.22461 17.6323-1.68848 17.6323-2.61621 17.6323-3.01204 17.4777-3.3383 17.1685-3.59497 16.8592-3.85164 16.2314-4.15625 15.2852-4.50879 14.1471-4.96647 13.408-5.41951 13.0679-5.86792 12.7277-6.31632 12.5576-6.85905 12.5576-7.49609 12.5576-8.40527 12.9426-9.13354 13.7126-9.68091 14.4827-10.2283 15.4305-10.502 16.5562-10.502 17.4282-10.502 18.2384-10.3504 18.9868-10.0474L18.9868-8.29395C18.2199-8.78874 17.3509-9.03613 16.3799-9.03613 15.7985-9.03613 15.3254-8.90934 14.9604-8.65576 14.5955-8.40218 14.4131-8.0682 14.4131-7.65381 14.4131-7.2456 14.5445-6.92708 14.8074-6.69824 15.0702-6.4694 15.6532-6.17562 16.5562-5.81689 17.7004-5.39014 18.4735-4.94792 18.8755-4.49023 19.2775-4.03255 19.4785-3.46663 19.4785-2.79248 19.4785-1.85238 19.0935-1.11173 18.3235-0.570557 17.5535-0.0293783 16.5562 0.241211 15.3315 0.241211 14.2677 0.241211 13.34 0.0402018 12.5483-0.361816ZM30.1491-4.6665 22.9684-4.6665C22.9993-3.57178 23.2993-2.72599 23.8683-2.12915 24.4373-1.53231 25.2321-1.23389 26.2526-1.23389 27.403-1.23389 28.4575-1.60189 29.4162-2.33789L29.4162-0.714355C28.5132-0.0773112 27.3164 0.241211 25.8258 0.241211 24.3415 0.241211 23.1833-0.228841 22.3515-1.16895 21.5196-2.10905 21.1037-3.41406 21.1037-5.08398 21.1037-6.65495 21.5598-7.95068 22.4721-8.97119 23.3844-9.9917 24.5177-10.502 25.8722-10.502 27.2144-10.502 28.2627-10.0706 29.0173-9.20776 29.7718-8.34497 30.1491-7.13737 30.1491-5.58496ZM28.3307-6.12305C28.3245-7.05078 28.105-7.76823 27.672-8.27539 27.2391-8.78255 26.6299-9.03613 25.8444-9.03613 25.1208-9.03613 24.4945-8.76709 23.9657-8.229 23.4369-7.69092 23.1045-6.98893 22.9684-6.12305ZM37.9583-8.46094C37.6553-8.67741 37.2378-8.78564 36.7059-8.78564 36.0008-8.78564 35.4194-8.4563 34.9618-7.79761 34.5041-7.13892 34.2752-6.27148 34.2752-5.19531L34.2752 0 32.4569 0 32.4569-10.2607 34.2752-10.2607 34.2752-8.17334 34.3123-8.17334C34.8319-9.68245 35.7287-10.437 37.0028-10.437 37.4172-10.437 37.7357-10.3906 37.9583-10.2979Z" fill="#FFFFFF" transform="translate(16.6678 30)"/><path d="M6.91162-4.99121 1.44727-4.99121 1.44727-6.39209 6.91162-6.39209Z" fill="#FFFFFF" transform="translate(54.6678 30)"/><path d="M1.04834-2.21729C1.9637-1.5555 2.9502-1.22461 4.00781-1.22461 5.42415-1.22461 6.13232-1.68848 6.13232-2.61621 6.13232-3.01204 5.9777-3.3383 5.66846-3.59497 5.35921-3.85164 4.73145-4.15625 3.78516-4.50879 2.64714-4.96647 1.90804-5.41951 1.56787-5.86792 1.2277-6.31632 1.05762-6.85905 1.05762-7.49609 1.05762-8.40527 1.44263-9.13354 2.21265-9.68091 2.98267-10.2283 3.9305-10.502 5.05615-10.502 5.92822-10.502 6.73844-10.3504 7.48682-10.0474L7.48682-8.29395C6.71989-8.78874 5.85091-9.03613 4.87988-9.03613 4.2985-9.03613 3.82536-8.90934 3.46045-8.65576 3.09554-8.40218 2.91309-8.0682 2.91309-7.65381 2.91309-7.2456 3.04451-6.92708 3.30737-6.69824 3.57023-6.4694 4.15316-6.17562 5.05615-5.81689 6.20036-5.39014 6.97347-4.94792 7.37549-4.49023 7.77751-4.03255 7.97852-3.46663 7.97852-2.79248 7.97852-1.85238 7.59351-1.11173 6.82349-0.570557 6.05347-0.0293783 5.05615 0.241211 3.83154 0.241211 2.76774 0.241211 1.84001 0.0402018 1.04834-0.361816ZM18.6491-4.6665 11.4684-4.6665C11.4993-3.57178 11.7993-2.72599 12.3683-2.12915 12.9373-1.53231 13.7321-1.23389 14.7526-1.23389 15.903-1.23389 16.9575-1.60189 17.9162-2.33789L17.9162-0.714355C17.0132-0.0773112 15.8164 0.241211 14.3258 0.241211 12.8415 0.241211 11.6833-0.228841 10.8515-1.16895 10.0196-2.10905 9.60368-3.41406 9.60368-5.08398 9.60368-6.65495 10.0598-7.95068 10.9721-8.97119 11.8844-9.9917 13.0177-10.502 14.3722-10.502 15.7144-10.502 16.7627-10.0706 17.5173-9.20776 18.2718-8.34497 18.6491-7.13737 18.6491-5.58496ZM16.8307-6.12305C16.8245-7.05078 16.605-7.76823 16.172-8.27539 15.7391-8.78255 15.1299-9.03613 14.3444-9.03613 13.6208-9.03613 12.9945-8.76709 12.4657-8.229 11.9369-7.69092 11.6045-6.98893 11.4684-6.12305ZM26.4583-8.46094C26.1553-8.67741 25.7378-8.78564 25.2059-8.78564 24.5008-8.78564 23.9194-8.4563 23.4618-7.79761 23.0041-7.13892 22.7752-6.27148 22.7752-5.19531L22.7752 0 20.9569 0 20.9569-10.2607 22.7752-10.2607 22.7752-8.17334 22.8123-8.17334C23.3319-9.68245 24.2287-10.437 25.5028-10.437 25.9172-10.437 26.2357-10.3906 26.4583-10.2979ZM36.3896-10.2607 32.3262 0 30.4893 0 26.6299-10.2607 28.6152-10.2607 31.1201-2.93164C31.3242-2.34408 31.4448-1.85238 31.4819-1.45654L31.5283-1.45654C31.5902-1.97607 31.6984-2.4554 31.853-2.89453L34.4785-10.2607ZM37.7342-13.8789C37.7342-14.2005 37.844-14.4711 38.0636-14.6907 38.2831-14.9102 38.5537-15.02 38.8753-15.02 39.2031-15.02 39.4799-14.9118 39.7057-14.6953 39.9314-14.4788 40.0443-14.2067 40.0443-13.8789 40.0443-13.5573 39.9314-13.2898 39.7057-13.0764 39.4799-12.863 39.2031-12.7563 38.8753-12.7563 38.5475-12.7563 38.2754-12.863 38.0589-13.0764 37.8424-13.2898 37.7342-13.5573 37.7342-13.8789ZM37.9476 0 37.9476-10.2607 39.766-10.2607 39.766 0ZM50.0448-0.463867C49.2593 0.00618488 48.313 0.241211 47.2059 0.241211 45.7215 0.241211 44.5278-0.235026 43.6248-1.1875 42.7218-2.13997 42.2703-3.37386 42.2703-4.88916 42.2703-6.57145 42.7574-7.92749 43.7315-8.95728 44.7057-9.98706 46.0091-10.502 47.6419-10.502 48.582-10.502 49.3861-10.335 50.054-10.001L50.054-8.20117C49.3304-8.73307 48.5264-8.99902 47.6419-8.99902 46.6029-8.99902 45.7571-8.63875 45.1046-7.91821 44.4521-7.19767 44.1258-6.23747 44.1258-5.0376 44.1258-3.85628 44.4335-2.93164 45.0489-2.26367 45.6643-1.5957 46.4946-1.26172 47.5399-1.26172 48.4243-1.26172 49.2593-1.55241 50.0448-2.13379ZM60.6491-4.6665 53.4684-4.6665C53.4994-3.57178 53.7993-2.72599 54.3683-2.12915 54.9373-1.53231 55.7321-1.23389 56.7526-1.23389 57.903-1.23389 58.9575-1.60189 59.9162-2.33789L59.9162-0.714355C59.0132-0.0773112 57.8164 0.241211 56.3259 0.241211 54.8415 0.241211 53.6833-0.228841 52.8515-1.16895 52.0196-2.10905 51.6037-3.41406 51.6037-5.08398 51.6037-6.65495 52.0598-7.95068 52.9721-8.97119 53.8844-9.9917 55.0177-10.502 56.3722-10.502 57.7144-10.502 58.7627-10.0706 59.5173-9.20776 60.2718-8.34497 60.6491-7.13737 60.6491-5.58496ZM58.8307-6.12305C58.8245-7.05078 58.605-7.76823 58.172-8.27539 57.7391-8.78255 57.1299-9.03613 56.3444-9.03613 55.6208-9.03613 54.9946-8.76709 54.4657-8.229 53.9369-7.69092 53.6045-6.98893 53.4684-6.12305Z" fill="#FFFFFF" transform="translate(62.6678 30)"/><path d="M0.90918-4.00781C0.90918-4.83659 1.15658-5.60042 1.65137-6.29932 2.14616-6.99821 2.7832-7.49609 3.5625-7.79297 2.93783-8.14551 2.44303-8.597 2.07812-9.14746 1.71322-9.69792 1.53076-10.2948 1.53076-10.938 1.53076-11.6183 1.70548-12.2399 2.05493-12.8027 2.40438-13.3656 2.88989-13.8078 3.51147-14.1294 4.13306-14.451 4.81803-14.6118 5.56641-14.6118 6.32096-14.6118 7.01058-14.4526 7.63525-14.134 8.25993-13.8155 8.74544-13.3748 9.0918-12.812 9.43815-12.2492 9.61133-11.6245 9.61133-10.938 9.61133-10.3071 9.43351-9.71492 9.07788-9.16138 8.72225-8.60783 8.229-8.15169 7.59814-7.79297 8.37744-7.48991 9.01139-6.98893 9.5-6.29004 9.98861-5.59115 10.2329-4.8304 10.2329-4.00781 10.2329-3.19141 10.0381-2.46004 9.64844-1.81372 9.25879-1.1674 8.70524-0.664876 7.98779-0.306152 7.27034 0.0525716 6.46322 0.231934 5.56641 0.231934 4.67578 0.231934 3.87484 0.0525716 3.16357-0.306152 2.45231-0.664876 1.89876-1.16895 1.50293-1.81836 1.1071-2.46777 0.90918-3.19759 0.90918-4.00781ZM2.69043-4.09131C2.69043-3.23779 2.95329-2.55436 3.479-2.04102 4.00472-1.52767 4.70361-1.271 5.57568-1.271 6.4292-1.271 7.12655-1.53231 7.66772-2.05493 8.2089-2.57756 8.47949-3.25635 8.47949-4.09131 8.47949-4.88298 8.20581-5.5494 7.65845-6.09058 7.11108-6.63175 6.41683-6.90234 5.57568-6.90234 4.74072-6.90234 4.05111-6.63794 3.50684-6.10913 2.96256-5.58032 2.69043-4.90771 2.69043-4.09131ZM3.20996-10.7896C3.20996-10.1463 3.4388-9.59432 3.89648-9.13354 4.35417-8.67277 4.9139-8.44238 5.57568-8.44238 6.2251-8.44238 6.78638-8.67432 7.25952-9.13818 7.73267-9.60205 7.96924-10.1525 7.96924-10.7896 7.96924-11.439 7.74194-11.9894 7.28735-12.4409 6.83276-12.8924 6.26221-13.1182 5.57568-13.1182 4.89534-13.1182 4.33097-12.8971 3.88257-12.4548 3.43416-12.0126 3.20996-11.4575 3.20996-10.7896ZM11.8442-6.90234C11.8442-9.43815 12.2648-11.357 13.106-12.6589 13.9471-13.9609 15.1655-14.6118 16.7612-14.6118 19.8042-14.6118 21.3257-12.1564 21.3257-7.24561 21.3257-4.82113 20.8974-2.9672 20.0408-1.68384 19.1842-0.400472 17.9827 0.241211 16.4365 0.241211 14.9769 0.241211 13.8466-0.368001 13.0457-1.58643 12.2447-2.80485 11.8442-4.57682 11.8442-6.90234ZM13.6997-6.98584C13.6997-3.16976 14.6676-1.26172 16.6035-1.26172 18.5085-1.26172 19.4609-3.20068 19.4609-7.07861 19.4609-11.0926 18.527-13.0996 16.6592-13.0996 14.6862-13.0996 13.6997-11.0617 13.6997-6.98584ZM22.9092-4.00781C22.9092-4.83659 23.1566-5.60042 23.6514-6.29932 24.1462-6.99821 24.7832-7.49609 25.5625-7.79297 24.9378-8.14551 24.443-8.597 24.0781-9.14746 23.7132-9.69792 23.5308-10.2948 23.5308-10.938 23.5308-11.6183 23.7055-12.2399 24.0549-12.8027 24.4044-13.3656 24.8899-13.8078 25.5115-14.1294 26.1331-14.451 26.818-14.6118 27.5664-14.6118 28.321-14.6118 29.0106-14.4526 29.6353-14.134 30.2599-13.8155 30.7454-13.3748 31.0918-12.812 31.4381-12.2492 31.6113-11.6245 31.6113-10.938 31.6113-10.3071 31.4335-9.71492 31.0779-9.16138 30.7222-8.60783 30.229-8.15169 29.5981-7.79297 30.3774-7.48991 31.0114-6.98893 31.5-6.29004 31.9886-5.59115 32.2329-4.8304 32.2329-4.00781 32.2329-3.19141 32.0381-2.46004 31.6484-1.81372 31.2588-1.1674 30.7052-0.664876 29.9878-0.306152 29.2703 0.0525716 28.4632 0.231934 27.5664 0.231934 26.6758 0.231934 25.8748 0.0525716 25.1636-0.306152 24.4523-0.664876 23.8988-1.16895 23.5029-1.81836 23.1071-2.46777 22.9092-3.19759 22.9092-4.00781ZM24.6904-4.09131C24.6904-3.23779 24.9533-2.55436 25.479-2.04102 26.0047-1.52767 26.7036-1.271 27.5757-1.271 28.4292-1.271 29.1265-1.53231 29.6677-2.05493 30.2089-2.57756 30.4795-3.25635 30.4795-4.09131 30.4795-4.88298 30.2058-5.5494 29.6584-6.09058 29.1111-6.63175 28.4168-6.90234 27.5757-6.90234 26.7407-6.90234 26.0511-6.63794 25.5068-6.10913 24.9626-5.58032 24.6904-4.90771 24.6904-4.09131ZM25.21-10.7896C25.21-10.1463 25.4388-9.59432 25.8965-9.13354 26.3542-8.67277 26.9139-8.44238 27.5757-8.44238 28.2251-8.44238 28.7864-8.67432 29.2595-9.13818 29.7327-9.60205 29.9692-10.1525 29.9692-10.7896 29.9692-11.439 29.7419-11.9894 29.2874-12.4409 28.8328-12.8924 28.2622-13.1182 27.5757-13.1182 26.8953-13.1182 26.331-12.8971 25.8826-12.4548 25.4342-12.0126 25.21-11.4575 25.21-10.7896ZM40.9136-10.604C40.9136-11.3771 40.6693-11.9848 40.1807-12.427 39.6921-12.8692 39.0272-13.0903 38.186-13.0903 37.5923-13.0903 36.9923-12.9388 36.3862-12.6357 35.7801-12.3327 35.2142-11.8997 34.6885-11.3369L34.6885-13.0996C35.1585-13.5882 35.692-13.9624 36.2888-14.2222 36.8857-14.4819 37.5861-14.6118 38.3901-14.6118 39.689-14.6118 40.7342-14.2639 41.5259-13.5681 42.3175-12.8723 42.7134-11.9307 42.7134-10.7432 42.7134-9.68555 42.4706-8.77018 41.9851-7.99707 41.4996-7.22396 40.6693-6.43229 39.4941-5.62207 38.2943-4.79329 37.4918-4.19954 37.0867-3.84082 36.6816-3.4821 36.3986-3.13883 36.2378-2.81104 36.077-2.48324 35.9966-2.08431 35.9966-1.61426L43.1401-1.61426 43.1401 0 34.104 0 34.104-0.714355C34.104-1.54313 34.2169-2.24666 34.4426-2.82495 34.6684-3.40324 35.041-3.96606 35.5605-4.51343 36.0801-5.06079 36.8903-5.71794 37.9912-6.48486 39.1169-7.27653 39.8853-7.97078 40.2966-8.56763 40.7079-9.16447 40.9136-9.84326 40.9136-10.604Z" fill="#FFFFFF" transform="translate(48.3344 52)"/></g></g></g><path d="M779.5 542.667C779.5 536.5 784.5 531.5 790.667 531.5L913.333 531.5C919.5 531.5 924.5 536.5 924.5 542.667L924.5 587.333C924.5 593.5 919.5 598.5 913.333 598.5L790.667 598.5C784.5 598.5 779.5 593.5 779.5 587.333Z" stroke="#46AAC5" stroke-linejoin="round" stroke-miterlimit="10" fill="url(#fill26)" fill-rule="evenodd"/><text fill="#FFFFFF" font-family="Microsoft YaHei,Microsoft YaHei_MSFontService,sans-serif" font-weight="400" font-size="19" transform="translate(797.668 560)">user<tspan font-size="19" x="38" y="0">-</tspan>service<tspan font-size="19" x="31.6666" y="22">8082</tspan></text><g clip-path="url(#clip27)"><g clip-path="url(#clip28)" filter="url(#fx4)" transform="translate(934 520)"><g clip-path="url(#clip29)"><path d="M6.50006 18.0816C6.50006 11.9143 11.4996 6.91473 17.6669 6.91473L141.333 6.91473C147.501 6.91473 152.5 11.9143 152.5 18.0816L152.5 62.7479C152.5 68.9152 147.501 73.9147 141.333 73.9147L17.6669 73.9147C11.4996 73.9147 6.50006 68.9152 6.50006 62.7479Z" stroke="#46AAC5" stroke-linejoin="round" stroke-miterlimit="10" fill="#FF0000" fill-rule="evenodd"/></g></g><g clip-path="url(#clip30)" filter="url(#fx5)" transform="translate(942 526)"><g clip-path="url(#clip31)"><path d="M10.0938 0 8.26611 0 8.26611-1.61426 8.229-1.61426C7.54248-0.377279 6.48796 0.241211 5.06543 0.241211 2.63477 0.241211 1.41943-1.21224 1.41943-4.11914L1.41943-10.2607 3.21924-10.2607 3.21924-4.38818C3.21924-2.30387 4.01709-1.26172 5.61279-1.26172 6.40446-1.26172 7.0446-1.55396 7.5332-2.13843 8.02181-2.7229 8.26611-3.46045 8.26611-4.35107L8.26611-10.2607 10.0938-10.2607ZM12.5483-2.21729C13.4637-1.5555 14.4502-1.22461 15.5078-1.22461 16.9242-1.22461 17.6323-1.68848 17.6323-2.61621 17.6323-3.01204 17.4777-3.3383 17.1685-3.59497 16.8592-3.85164 16.2314-4.15625 15.2852-4.50879 14.1471-4.96647 13.408-5.41951 13.0679-5.86792 12.7277-6.31632 12.5576-6.85905 12.5576-7.49609 12.5576-8.40527 12.9426-9.13354 13.7126-9.68091 14.4827-10.2283 15.4305-10.502 16.5562-10.502 17.4282-10.502 18.2384-10.3504 18.9868-10.0474L18.9868-8.29395C18.2199-8.78874 17.3509-9.03613 16.3799-9.03613 15.7985-9.03613 15.3254-8.90934 14.9604-8.65576 14.5955-8.40218 14.4131-8.0682 14.4131-7.65381 14.4131-7.2456 14.5445-6.92708 14.8074-6.69824 15.0702-6.4694 15.6532-6.17562 16.5562-5.81689 17.7004-5.39014 18.4735-4.94792 18.8755-4.49023 19.2775-4.03255 19.4785-3.46663 19.4785-2.79248 19.4785-1.85238 19.0935-1.11173 18.3235-0.570557 17.5535-0.0293783 16.5562 0.241211 15.3315 0.241211 14.2677 0.241211 13.34 0.0402018 12.5483-0.361816ZM30.1491-4.6665 22.9684-4.6665C22.9993-3.57178 23.2993-2.72599 23.8683-2.12915 24.4373-1.53231 25.2321-1.23389 26.2526-1.23389 27.403-1.23389 28.4575-1.60189 29.4162-2.33789L29.4162-0.714355C28.5132-0.0773112 27.3164 0.241211 25.8258 0.241211 24.3415 0.241211 23.1833-0.228841 22.3515-1.16895 21.5196-2.10905 21.1037-3.41406 21.1037-5.08398 21.1037-6.65495 21.5598-7.95068 22.4721-8.97119 23.3844-9.9917 24.5177-10.502 25.8722-10.502 27.2144-10.502 28.2627-10.0706 29.0173-9.20776 29.7718-8.34497 30.1491-7.13737 30.1491-5.58496ZM28.3307-6.12305C28.3245-7.05078 28.105-7.76823 27.672-8.27539 27.2391-8.78255 26.6299-9.03613 25.8444-9.03613 25.1208-9.03613 24.4945-8.76709 23.9657-8.229 23.4369-7.69092 23.1045-6.98893 22.9684-6.12305ZM37.9583-8.46094C37.6553-8.67741 37.2378-8.78564 36.7059-8.78564 36.0008-8.78564 35.4194-8.4563 34.9618-7.79761 34.5041-7.13892 34.2752-6.27148 34.2752-5.19531L34.2752 0 32.4569 0 32.4569-10.2607 34.2752-10.2607 34.2752-8.17334 34.3123-8.17334C34.8319-9.68245 35.7287-10.437 37.0028-10.437 37.4172-10.437 37.7357-10.3906 37.9583-10.2979Z" fill="#FFFFFF" transform="translate(17.1957 29)"/><path d="M6.91162-4.99121 1.44727-4.99121 1.44727-6.39209 6.91162-6.39209Z" fill="#FFFFFF" transform="translate(55.1957 29)"/><path d="M1.04834-2.21729C1.9637-1.5555 2.9502-1.22461 4.00781-1.22461 5.42415-1.22461 6.13232-1.68848 6.13232-2.61621 6.13232-3.01204 5.9777-3.3383 5.66846-3.59497 5.35921-3.85164 4.73145-4.15625 3.78516-4.50879 2.64714-4.96647 1.90804-5.41951 1.56787-5.86792 1.2277-6.31632 1.05762-6.85905 1.05762-7.49609 1.05762-8.40527 1.44263-9.13354 2.21265-9.68091 2.98267-10.2283 3.9305-10.502 5.05615-10.502 5.92822-10.502 6.73844-10.3504 7.48682-10.0474L7.48682-8.29395C6.71989-8.78874 5.85091-9.03613 4.87988-9.03613 4.2985-9.03613 3.82536-8.90934 3.46045-8.65576 3.09554-8.40218 2.91309-8.0682 2.91309-7.65381 2.91309-7.2456 3.04451-6.92708 3.30737-6.69824 3.57023-6.4694 4.15316-6.17562 5.05615-5.81689 6.20036-5.39014 6.97347-4.94792 7.37549-4.49023 7.77751-4.03255 7.97852-3.46663 7.97852-2.79248 7.97852-1.85238 7.59351-1.11173 6.82349-0.570557 6.05347-0.0293783 5.05615 0.241211 3.83154 0.241211 2.76774 0.241211 1.84001 0.0402018 1.04834-0.361816ZM18.6491-4.6665 11.4684-4.6665C11.4993-3.57178 11.7993-2.72599 12.3683-2.12915 12.9373-1.53231 13.7321-1.23389 14.7526-1.23389 15.903-1.23389 16.9575-1.60189 17.9162-2.33789L17.9162-0.714355C17.0132-0.0773112 15.8164 0.241211 14.3258 0.241211 12.8415 0.241211 11.6833-0.228841 10.8515-1.16895 10.0196-2.10905 9.60368-3.41406 9.60368-5.08398 9.60368-6.65495 10.0598-7.95068 10.9721-8.97119 11.8844-9.9917 13.0177-10.502 14.3722-10.502 15.7144-10.502 16.7627-10.0706 17.5173-9.20776 18.2718-8.34497 18.6491-7.13737 18.6491-5.58496ZM16.8307-6.12305C16.8245-7.05078 16.605-7.76823 16.172-8.27539 15.7391-8.78255 15.1299-9.03613 14.3444-9.03613 13.6208-9.03613 12.9945-8.76709 12.4657-8.229 11.9369-7.69092 11.6045-6.98893 11.4684-6.12305ZM26.4583-8.46094C26.1553-8.67741 25.7378-8.78564 25.2059-8.78564 24.5008-8.78564 23.9194-8.4563 23.4618-7.79761 23.0041-7.13892 22.7752-6.27148 22.7752-5.19531L22.7752 0 20.9569 0 20.9569-10.2607 22.7752-10.2607 22.7752-8.17334 22.8123-8.17334C23.3319-9.68245 24.2287-10.437 25.5028-10.437 25.9172-10.437 26.2357-10.3906 26.4583-10.2979ZM36.3896-10.2607 32.3262 0 30.4893 0 26.6299-10.2607 28.6152-10.2607 31.1201-2.93164C31.3242-2.34408 31.4448-1.85238 31.4819-1.45654L31.5283-1.45654C31.5902-1.97607 31.6984-2.4554 31.853-2.89453L34.4785-10.2607ZM37.7342-13.8789C37.7342-14.2005 37.844-14.4711 38.0636-14.6907 38.2831-14.9102 38.5537-15.02 38.8753-15.02 39.2031-15.02 39.4799-14.9118 39.7057-14.6953 39.9314-14.4788 40.0443-14.2067 40.0443-13.8789 40.0443-13.5573 39.9314-13.2898 39.7057-13.0764 39.4799-12.863 39.2031-12.7563 38.8753-12.7563 38.5475-12.7563 38.2754-12.863 38.0589-13.0764 37.8424-13.2898 37.7342-13.5573 37.7342-13.8789ZM37.9476 0 37.9476-10.2607 39.766-10.2607 39.766 0ZM50.0448-0.463867C49.2593 0.00618488 48.313 0.241211 47.2059 0.241211 45.7215 0.241211 44.5278-0.235026 43.6248-1.1875 42.7218-2.13997 42.2703-3.37386 42.2703-4.88916 42.2703-6.57145 42.7574-7.92749 43.7315-8.95728 44.7057-9.98706 46.0091-10.502 47.6419-10.502 48.582-10.502 49.3861-10.335 50.054-10.001L50.054-8.20117C49.3304-8.73307 48.5264-8.99902 47.6419-8.99902 46.6029-8.99902 45.7571-8.63875 45.1046-7.91821 44.4521-7.19767 44.1258-6.23747 44.1258-5.0376 44.1258-3.85628 44.4335-2.93164 45.0489-2.26367 45.6643-1.5957 46.4946-1.26172 47.5399-1.26172 48.4243-1.26172 49.2593-1.55241 50.0448-2.13379ZM60.6491-4.6665 53.4684-4.6665C53.4994-3.57178 53.7993-2.72599 54.3683-2.12915 54.9373-1.53231 55.7321-1.23389 56.7526-1.23389 57.903-1.23389 58.9575-1.60189 59.9162-2.33789L59.9162-0.714355C59.0132-0.0773112 57.8164 0.241211 56.3259 0.241211 54.8415 0.241211 53.6833-0.228841 52.8515-1.16895 52.0196-2.10905 51.6037-3.41406 51.6037-5.08398 51.6037-6.65495 52.0598-7.95068 52.9721-8.97119 53.8844-9.9917 55.0177-10.502 56.3722-10.502 57.7144-10.502 58.7627-10.0706 59.5173-9.20776 60.2718-8.34497 60.6491-7.13737 60.6491-5.58496ZM58.8307-6.12305C58.8245-7.05078 58.605-7.76823 58.172-8.27539 57.7391-8.78255 57.1299-9.03613 56.3444-9.03613 55.6208-9.03613 54.9946-8.76709 54.4657-8.229 53.9369-7.69092 53.6045-6.98893 53.4684-6.12305Z" fill="#FFFFFF" transform="translate(63.1957 29)"/><path d="M0.90918-4.00781C0.90918-4.83659 1.15658-5.60042 1.65137-6.29932 2.14616-6.99821 2.7832-7.49609 3.5625-7.79297 2.93783-8.14551 2.44303-8.597 2.07812-9.14746 1.71322-9.69792 1.53076-10.2948 1.53076-10.938 1.53076-11.6183 1.70548-12.2399 2.05493-12.8027 2.40438-13.3656 2.88989-13.8078 3.51147-14.1294 4.13306-14.451 4.81803-14.6118 5.56641-14.6118 6.32096-14.6118 7.01058-14.4526 7.63525-14.134 8.25993-13.8155 8.74544-13.3748 9.0918-12.812 9.43815-12.2492 9.61133-11.6245 9.61133-10.938 9.61133-10.3071 9.43351-9.71492 9.07788-9.16138 8.72225-8.60783 8.229-8.15169 7.59814-7.79297 8.37744-7.48991 9.01139-6.98893 9.5-6.29004 9.98861-5.59115 10.2329-4.8304 10.2329-4.00781 10.2329-3.19141 10.0381-2.46004 9.64844-1.81372 9.25879-1.1674 8.70524-0.664876 7.98779-0.306152 7.27034 0.0525716 6.46322 0.231934 5.56641 0.231934 4.67578 0.231934 3.87484 0.0525716 3.16357-0.306152 2.45231-0.664876 1.89876-1.16895 1.50293-1.81836 1.1071-2.46777 0.90918-3.19759 0.90918-4.00781ZM2.69043-4.09131C2.69043-3.23779 2.95329-2.55436 3.479-2.04102 4.00472-1.52767 4.70361-1.271 5.57568-1.271 6.4292-1.271 7.12655-1.53231 7.66772-2.05493 8.2089-2.57756 8.47949-3.25635 8.47949-4.09131 8.47949-4.88298 8.20581-5.5494 7.65845-6.09058 7.11108-6.63175 6.41683-6.90234 5.57568-6.90234 4.74072-6.90234 4.05111-6.63794 3.50684-6.10913 2.96256-5.58032 2.69043-4.90771 2.69043-4.09131ZM3.20996-10.7896C3.20996-10.1463 3.4388-9.59432 3.89648-9.13354 4.35417-8.67277 4.9139-8.44238 5.57568-8.44238 6.2251-8.44238 6.78638-8.67432 7.25952-9.13818 7.73267-9.60205 7.96924-10.1525 7.96924-10.7896 7.96924-11.439 7.74194-11.9894 7.28735-12.4409 6.83276-12.8924 6.26221-13.1182 5.57568-13.1182 4.89534-13.1182 4.33097-12.8971 3.88257-12.4548 3.43416-12.0126 3.20996-11.4575 3.20996-10.7896ZM11.8442-6.90234C11.8442-9.43815 12.2648-11.357 13.106-12.6589 13.9471-13.9609 15.1655-14.6118 16.7612-14.6118 19.8042-14.6118 21.3257-12.1564 21.3257-7.24561 21.3257-4.82113 20.8974-2.9672 20.0408-1.68384 19.1842-0.400472 17.9827 0.241211 16.4365 0.241211 14.9769 0.241211 13.8466-0.368001 13.0457-1.58643 12.2447-2.80485 11.8442-4.57682 11.8442-6.90234ZM13.6997-6.98584C13.6997-3.16976 14.6676-1.26172 16.6035-1.26172 18.5085-1.26172 19.4609-3.20068 19.4609-7.07861 19.4609-11.0926 18.527-13.0996 16.6592-13.0996 14.6862-13.0996 13.6997-11.0617 13.6997-6.98584ZM22.9092-4.00781C22.9092-4.83659 23.1566-5.60042 23.6514-6.29932 24.1462-6.99821 24.7832-7.49609 25.5625-7.79297 24.9378-8.14551 24.443-8.597 24.0781-9.14746 23.7132-9.69792 23.5308-10.2948 23.5308-10.938 23.5308-11.6183 23.7055-12.2399 24.0549-12.8027 24.4044-13.3656 24.8899-13.8078 25.5115-14.1294 26.1331-14.451 26.818-14.6118 27.5664-14.6118 28.321-14.6118 29.0106-14.4526 29.6353-14.134 30.2599-13.8155 30.7454-13.3748 31.0918-12.812 31.4381-12.2492 31.6113-11.6245 31.6113-10.938 31.6113-10.3071 31.4335-9.71492 31.0779-9.16138 30.7222-8.60783 30.229-8.15169 29.5981-7.79297 30.3774-7.48991 31.0114-6.98893 31.5-6.29004 31.9886-5.59115 32.2329-4.8304 32.2329-4.00781 32.2329-3.19141 32.0381-2.46004 31.6484-1.81372 31.2588-1.1674 30.7052-0.664876 29.9878-0.306152 29.2703 0.0525716 28.4632 0.231934 27.5664 0.231934 26.6758 0.231934 25.8748 0.0525716 25.1636-0.306152 24.4523-0.664876 23.8988-1.16895 23.5029-1.81836 23.1071-2.46777 22.9092-3.19759 22.9092-4.00781ZM24.6904-4.09131C24.6904-3.23779 24.9533-2.55436 25.479-2.04102 26.0047-1.52767 26.7036-1.271 27.5757-1.271 28.4292-1.271 29.1265-1.53231 29.6677-2.05493 30.2089-2.57756 30.4795-3.25635 30.4795-4.09131 30.4795-4.88298 30.2058-5.5494 29.6584-6.09058 29.1111-6.63175 28.4168-6.90234 27.5757-6.90234 26.7407-6.90234 26.0511-6.63794 25.5068-6.10913 24.9626-5.58032 24.6904-4.90771 24.6904-4.09131ZM25.21-10.7896C25.21-10.1463 25.4388-9.59432 25.8965-9.13354 26.3542-8.67277 26.9139-8.44238 27.5757-8.44238 28.2251-8.44238 28.7864-8.67432 29.2595-9.13818 29.7327-9.60205 29.9692-10.1525 29.9692-10.7896 29.9692-11.439 29.7419-11.9894 29.2874-12.4409 28.8328-12.8924 28.2622-13.1182 27.5757-13.1182 26.8953-13.1182 26.331-12.8971 25.8826-12.4548 25.4342-12.0126 25.21-11.4575 25.21-10.7896ZM34.3267-2.40283C35.3101-1.64209 36.4202-1.26172 37.6572-1.26172 38.6468-1.26172 39.4307-1.50448 40.009-1.98999 40.5873-2.4755 40.8765-3.12646 40.8765-3.94287 40.8765-5.76123 39.5745-6.67041 36.9707-6.67041L35.7739-6.67041 35.7739-8.17334 36.915-8.17334C39.222-8.17334 40.3755-9.02686 40.3755-10.7339 40.3755-12.311 39.4941-13.0996 37.7314-13.0996 36.7233-13.0996 35.7739-12.7594 34.8833-12.0791L34.8833-13.7954C35.8234-14.3397 36.9212-14.6118 38.1768-14.6118 39.4014-14.6118 40.3848-14.2917 41.127-13.6516 41.8691-13.0115 42.2402-12.1812 42.2402-11.1606 42.2402-9.28044 41.2816-8.07129 39.3643-7.5332L39.3643-7.49609C40.4033-7.38477 41.2244-7.01831 41.8274-6.39673 42.4304-5.77515 42.7319-5.00049 42.7319-4.07275 42.7319-2.78011 42.2665-1.73796 41.3357-0.946289 40.4049-0.154622 39.1663 0.241211 37.6201 0.241211 36.2594 0.241211 35.1616-0.0123698 34.3267-0.519531Z" fill="#FFFFFF" transform="translate(48.8624 51)"/></g></g></g><path d="M940.5 535.667C940.5 529.5 945.5 524.5 951.667 524.5L1075.33 524.5C1081.5 524.5 1086.5 529.5 1086.5 535.667L1086.5 580.333C1086.5 586.5 1081.5 591.5 1075.33 591.5L951.667 591.5C945.5 591.5 940.5 586.5 940.5 580.333Z" stroke="#46AAC5" stroke-linejoin="round" stroke-miterlimit="10" fill="url(#fill32)" fill-rule="evenodd"/><text fill="#FFFFFF" font-family="Microsoft YaHei,Microsoft YaHei_MSFontService,sans-serif" font-weight="400" font-size="19" transform="translate(959.196 553)">user<tspan font-size="19" x="38" y="0">-</tspan>service<tspan font-size="19" x="31.6667" y="22">8083</tspan></text><g clip-path="url(#clip33)"><g clip-path="url(#clip34)" filter="url(#fx6)" transform="translate(849 427)"><g clip-path="url(#clip35)"><path d="M6.50006 18.2484C6.50006 11.989 11.5743 6.91476 17.8337 6.91476L140.166 6.91476C146.426 6.91476 151.5 11.989 151.5 18.2484L151.5 63.5812C151.5 69.8405 146.426 74.9148 140.166 74.9148L17.8337 74.9148C11.5743 74.9148 6.50006 69.8405 6.50006 63.5812Z" stroke="#46AAC5" stroke-linejoin="round" stroke-miterlimit="10" fill="#FF0000" fill-rule="evenodd"/></g></g><g clip-path="url(#clip36)" filter="url(#fx7)" transform="translate(857 434)"><g clip-path="url(#clip37)"><path d="M10.0938 0 8.26611 0 8.26611-1.61426 8.229-1.61426C7.54248-0.377279 6.48796 0.241211 5.06543 0.241211 2.63477 0.241211 1.41943-1.21224 1.41943-4.11914L1.41943-10.2607 3.21924-10.2607 3.21924-4.38818C3.21924-2.30387 4.01709-1.26172 5.61279-1.26172 6.40446-1.26172 7.0446-1.55396 7.5332-2.13843 8.02181-2.7229 8.26611-3.46045 8.26611-4.35107L8.26611-10.2607 10.0938-10.2607ZM12.5483-2.21729C13.4637-1.5555 14.4502-1.22461 15.5078-1.22461 16.9242-1.22461 17.6323-1.68848 17.6323-2.61621 17.6323-3.01204 17.4777-3.3383 17.1685-3.59497 16.8592-3.85164 16.2314-4.15625 15.2852-4.50879 14.1471-4.96647 13.408-5.41951 13.0679-5.86792 12.7277-6.31632 12.5576-6.85905 12.5576-7.49609 12.5576-8.40527 12.9426-9.13354 13.7126-9.68091 14.4827-10.2283 15.4305-10.502 16.5562-10.502 17.4282-10.502 18.2384-10.3504 18.9868-10.0474L18.9868-8.29395C18.2199-8.78874 17.3509-9.03613 16.3799-9.03613 15.7985-9.03613 15.3254-8.90934 14.9604-8.65576 14.5955-8.40218 14.4131-8.0682 14.4131-7.65381 14.4131-7.2456 14.5445-6.92708 14.8074-6.69824 15.0702-6.4694 15.6532-6.17562 16.5562-5.81689 17.7004-5.39014 18.4735-4.94792 18.8755-4.49023 19.2775-4.03255 19.4785-3.46663 19.4785-2.79248 19.4785-1.85238 19.0935-1.11173 18.3235-0.570557 17.5535-0.0293783 16.5562 0.241211 15.3315 0.241211 14.2677 0.241211 13.34 0.0402018 12.5483-0.361816ZM30.1491-4.6665 22.9684-4.6665C22.9993-3.57178 23.2993-2.72599 23.8683-2.12915 24.4373-1.53231 25.2321-1.23389 26.2526-1.23389 27.403-1.23389 28.4575-1.60189 29.4162-2.33789L29.4162-0.714355C28.5132-0.0773112 27.3164 0.241211 25.8258 0.241211 24.3415 0.241211 23.1833-0.228841 22.3515-1.16895 21.5196-2.10905 21.1037-3.41406 21.1037-5.08398 21.1037-6.65495 21.5598-7.95068 22.4721-8.97119 23.3844-9.9917 24.5177-10.502 25.8722-10.502 27.2144-10.502 28.2627-10.0706 29.0173-9.20776 29.7718-8.34497 30.1491-7.13737 30.1491-5.58496ZM28.3307-6.12305C28.3245-7.05078 28.105-7.76823 27.672-8.27539 27.2391-8.78255 26.6299-9.03613 25.8444-9.03613 25.1208-9.03613 24.4945-8.76709 23.9657-8.229 23.4369-7.69092 23.1045-6.98893 22.9684-6.12305ZM37.9583-8.46094C37.6553-8.67741 37.2378-8.78564 36.7059-8.78564 36.0008-8.78564 35.4194-8.4563 34.9618-7.79761 34.5041-7.13892 34.2752-6.27148 34.2752-5.19531L34.2752 0 32.4569 0 32.4569-10.2607 34.2752-10.2607 34.2752-8.17334 34.3123-8.17334C34.8319-9.68245 35.7287-10.437 37.0028-10.437 37.4172-10.437 37.7357-10.3906 37.9583-10.2979Z" fill="#FFFFFF" transform="translate(17.1284 29)"/><path d="M6.91162-4.99121 1.44727-4.99121 1.44727-6.39209 6.91162-6.39209Z" fill="#FFFFFF" transform="translate(55.1284 29)"/><path d="M1.04834-2.21729C1.9637-1.5555 2.9502-1.22461 4.00781-1.22461 5.42415-1.22461 6.13232-1.68848 6.13232-2.61621 6.13232-3.01204 5.9777-3.3383 5.66846-3.59497 5.35921-3.85164 4.73145-4.15625 3.78516-4.50879 2.64714-4.96647 1.90804-5.41951 1.56787-5.86792 1.2277-6.31632 1.05762-6.85905 1.05762-7.49609 1.05762-8.40527 1.44263-9.13354 2.21265-9.68091 2.98267-10.2283 3.9305-10.502 5.05615-10.502 5.92822-10.502 6.73844-10.3504 7.48682-10.0474L7.48682-8.29395C6.71989-8.78874 5.85091-9.03613 4.87988-9.03613 4.2985-9.03613 3.82536-8.90934 3.46045-8.65576 3.09554-8.40218 2.91309-8.0682 2.91309-7.65381 2.91309-7.2456 3.04451-6.92708 3.30737-6.69824 3.57023-6.4694 4.15316-6.17562 5.05615-5.81689 6.20036-5.39014 6.97347-4.94792 7.37549-4.49023 7.77751-4.03255 7.97852-3.46663 7.97852-2.79248 7.97852-1.85238 7.59351-1.11173 6.82349-0.570557 6.05347-0.0293783 5.05615 0.241211 3.83154 0.241211 2.76774 0.241211 1.84001 0.0402018 1.04834-0.361816ZM18.6491-4.6665 11.4684-4.6665C11.4993-3.57178 11.7993-2.72599 12.3683-2.12915 12.9373-1.53231 13.7321-1.23389 14.7526-1.23389 15.903-1.23389 16.9575-1.60189 17.9162-2.33789L17.9162-0.714355C17.0132-0.0773112 15.8164 0.241211 14.3258 0.241211 12.8415 0.241211 11.6833-0.228841 10.8515-1.16895 10.0196-2.10905 9.60368-3.41406 9.60368-5.08398 9.60368-6.65495 10.0598-7.95068 10.9721-8.97119 11.8844-9.9917 13.0177-10.502 14.3722-10.502 15.7144-10.502 16.7627-10.0706 17.5173-9.20776 18.2718-8.34497 18.6491-7.13737 18.6491-5.58496ZM16.8307-6.12305C16.8245-7.05078 16.605-7.76823 16.172-8.27539 15.7391-8.78255 15.1299-9.03613 14.3444-9.03613 13.6208-9.03613 12.9945-8.76709 12.4657-8.229 11.9369-7.69092 11.6045-6.98893 11.4684-6.12305ZM26.4583-8.46094C26.1553-8.67741 25.7378-8.78564 25.2059-8.78564 24.5008-8.78564 23.9194-8.4563 23.4618-7.79761 23.0041-7.13892 22.7752-6.27148 22.7752-5.19531L22.7752 0 20.9569 0 20.9569-10.2607 22.7752-10.2607 22.7752-8.17334 22.8123-8.17334C23.3319-9.68245 24.2287-10.437 25.5028-10.437 25.9172-10.437 26.2357-10.3906 26.4583-10.2979ZM36.3896-10.2607 32.3262 0 30.4893 0 26.6299-10.2607 28.6152-10.2607 31.1201-2.93164C31.3242-2.34408 31.4448-1.85238 31.4819-1.45654L31.5283-1.45654C31.5902-1.97607 31.6984-2.4554 31.853-2.89453L34.4785-10.2607ZM37.7342-13.8789C37.7342-14.2005 37.844-14.4711 38.0636-14.6907 38.2831-14.9102 38.5537-15.02 38.8753-15.02 39.2031-15.02 39.4799-14.9118 39.7057-14.6953 39.9314-14.4788 40.0443-14.2067 40.0443-13.8789 40.0443-13.5573 39.9314-13.2898 39.7057-13.0764 39.4799-12.863 39.2031-12.7563 38.8753-12.7563 38.5475-12.7563 38.2754-12.863 38.0589-13.0764 37.8424-13.2898 37.7342-13.5573 37.7342-13.8789ZM37.9476 0 37.9476-10.2607 39.766-10.2607 39.766 0ZM50.0448-0.463867C49.2593 0.00618488 48.313 0.241211 47.2059 0.241211 45.7215 0.241211 44.5278-0.235026 43.6248-1.1875 42.7218-2.13997 42.2703-3.37386 42.2703-4.88916 42.2703-6.57145 42.7574-7.92749 43.7315-8.95728 44.7057-9.98706 46.0091-10.502 47.6419-10.502 48.582-10.502 49.3861-10.335 50.054-10.001L50.054-8.20117C49.3304-8.73307 48.5264-8.99902 47.6419-8.99902 46.6029-8.99902 45.7571-8.63875 45.1046-7.91821 44.4521-7.19767 44.1258-6.23747 44.1258-5.0376 44.1258-3.85628 44.4335-2.93164 45.0489-2.26367 45.6643-1.5957 46.4946-1.26172 47.5399-1.26172 48.4243-1.26172 49.2593-1.55241 50.0448-2.13379ZM60.6491-4.6665 53.4684-4.6665C53.4994-3.57178 53.7993-2.72599 54.3683-2.12915 54.9373-1.53231 55.7321-1.23389 56.7526-1.23389 57.903-1.23389 58.9575-1.60189 59.9162-2.33789L59.9162-0.714355C59.0132-0.0773112 57.8164 0.241211 56.3259 0.241211 54.8415 0.241211 53.6833-0.228841 52.8515-1.16895 52.0196-2.10905 51.6037-3.41406 51.6037-5.08398 51.6037-6.65495 52.0598-7.95068 52.9721-8.97119 53.8844-9.9917 55.0177-10.502 56.3722-10.502 57.7144-10.502 58.7627-10.0706 59.5173-9.20776 60.2718-8.34497 60.6491-7.13737 60.6491-5.58496ZM58.8307-6.12305C58.8245-7.05078 58.605-7.76823 58.172-8.27539 57.7391-8.78255 57.1299-9.03613 56.3444-9.03613 55.6208-9.03613 54.9946-8.76709 54.4657-8.229 53.9369-7.69092 53.6045-6.98893 53.4684-6.12305Z" fill="#FFFFFF" transform="translate(63.1284 29)"/><path d="M0.90918-4.00781C0.90918-4.83659 1.15658-5.60042 1.65137-6.29932 2.14616-6.99821 2.7832-7.49609 3.5625-7.79297 2.93783-8.14551 2.44303-8.597 2.07812-9.14746 1.71322-9.69792 1.53076-10.2948 1.53076-10.938 1.53076-11.6183 1.70548-12.2399 2.05493-12.8027 2.40438-13.3656 2.88989-13.8078 3.51147-14.1294 4.13306-14.451 4.81803-14.6118 5.56641-14.6118 6.32096-14.6118 7.01058-14.4526 7.63525-14.134 8.25993-13.8155 8.74544-13.3748 9.0918-12.812 9.43815-12.2492 9.61133-11.6245 9.61133-10.938 9.61133-10.3071 9.43351-9.71492 9.07788-9.16138 8.72225-8.60783 8.229-8.15169 7.59814-7.79297 8.37744-7.48991 9.01139-6.98893 9.5-6.29004 9.98861-5.59115 10.2329-4.8304 10.2329-4.00781 10.2329-3.19141 10.0381-2.46004 9.64844-1.81372 9.25879-1.1674 8.70524-0.664876 7.98779-0.306152 7.27034 0.0525716 6.46322 0.231934 5.56641 0.231934 4.67578 0.231934 3.87484 0.0525716 3.16357-0.306152 2.45231-0.664876 1.89876-1.16895 1.50293-1.81836 1.1071-2.46777 0.90918-3.19759 0.90918-4.00781ZM2.69043-4.09131C2.69043-3.23779 2.95329-2.55436 3.479-2.04102 4.00472-1.52767 4.70361-1.271 5.57568-1.271 6.4292-1.271 7.12655-1.53231 7.66772-2.05493 8.2089-2.57756 8.47949-3.25635 8.47949-4.09131 8.47949-4.88298 8.20581-5.5494 7.65845-6.09058 7.11108-6.63175 6.41683-6.90234 5.57568-6.90234 4.74072-6.90234 4.05111-6.63794 3.50684-6.10913 2.96256-5.58032 2.69043-4.90771 2.69043-4.09131ZM3.20996-10.7896C3.20996-10.1463 3.4388-9.59432 3.89648-9.13354 4.35417-8.67277 4.9139-8.44238 5.57568-8.44238 6.2251-8.44238 6.78638-8.67432 7.25952-9.13818 7.73267-9.60205 7.96924-10.1525 7.96924-10.7896 7.96924-11.439 7.74194-11.9894 7.28735-12.4409 6.83276-12.8924 6.26221-13.1182 5.57568-13.1182 4.89534-13.1182 4.33097-12.8971 3.88257-12.4548 3.43416-12.0126 3.20996-11.4575 3.20996-10.7896ZM11.8442-6.90234C11.8442-9.43815 12.2648-11.357 13.106-12.6589 13.9471-13.9609 15.1655-14.6118 16.7612-14.6118 19.8042-14.6118 21.3257-12.1564 21.3257-7.24561 21.3257-4.82113 20.8974-2.9672 20.0408-1.68384 19.1842-0.400472 17.9827 0.241211 16.4365 0.241211 14.9769 0.241211 13.8466-0.368001 13.0457-1.58643 12.2447-2.80485 11.8442-4.57682 11.8442-6.90234ZM13.6997-6.98584C13.6997-3.16976 14.6676-1.26172 16.6035-1.26172 18.5085-1.26172 19.4609-3.20068 19.4609-7.07861 19.4609-11.0926 18.527-13.0996 16.6592-13.0996 14.6862-13.0996 13.6997-11.0617 13.6997-6.98584ZM22.9092-4.00781C22.9092-4.83659 23.1566-5.60042 23.6514-6.29932 24.1462-6.99821 24.7832-7.49609 25.5625-7.79297 24.9378-8.14551 24.443-8.597 24.0781-9.14746 23.7132-9.69792 23.5308-10.2948 23.5308-10.938 23.5308-11.6183 23.7055-12.2399 24.0549-12.8027 24.4044-13.3656 24.8899-13.8078 25.5115-14.1294 26.1331-14.451 26.818-14.6118 27.5664-14.6118 28.321-14.6118 29.0106-14.4526 29.6353-14.134 30.2599-13.8155 30.7454-13.3748 31.0918-12.812 31.4381-12.2492 31.6113-11.6245 31.6113-10.938 31.6113-10.3071 31.4335-9.71492 31.0779-9.16138 30.7222-8.60783 30.229-8.15169 29.5981-7.79297 30.3774-7.48991 31.0114-6.98893 31.5-6.29004 31.9886-5.59115 32.2329-4.8304 32.2329-4.00781 32.2329-3.19141 32.0381-2.46004 31.6484-1.81372 31.2588-1.1674 30.7052-0.664876 29.9878-0.306152 29.2703 0.0525716 28.4632 0.231934 27.5664 0.231934 26.6758 0.231934 25.8748 0.0525716 25.1636-0.306152 24.4523-0.664876 23.8988-1.16895 23.5029-1.81836 23.1071-2.46777 22.9092-3.19759 22.9092-4.00781ZM24.6904-4.09131C24.6904-3.23779 24.9533-2.55436 25.479-2.04102 26.0047-1.52767 26.7036-1.271 27.5757-1.271 28.4292-1.271 29.1265-1.53231 29.6677-2.05493 30.2089-2.57756 30.4795-3.25635 30.4795-4.09131 30.4795-4.88298 30.2058-5.5494 29.6584-6.09058 29.1111-6.63175 28.4168-6.90234 27.5757-6.90234 26.7407-6.90234 26.0511-6.63794 25.5068-6.10913 24.9626-5.58032 24.6904-4.90771 24.6904-4.09131ZM25.21-10.7896C25.21-10.1463 25.4388-9.59432 25.8965-9.13354 26.3542-8.67277 26.9139-8.44238 27.5757-8.44238 28.2251-8.44238 28.7864-8.67432 29.2595-9.13818 29.7327-9.60205 29.9692-10.1525 29.9692-10.7896 29.9692-11.439 29.7419-11.9894 29.2874-12.4409 28.8328-12.8924 28.2622-13.1182 27.5757-13.1182 26.8953-13.1182 26.331-12.8971 25.8826-12.4548 25.4342-12.0126 25.21-11.4575 25.21-10.7896ZM38.2881 0 38.2881-12.2925C38.0036-12.008 37.5227-11.6895 36.8455-11.3369 36.1682-10.9844 35.542-10.737 34.9668-10.5947L34.9668-12.376C35.7275-12.5863 36.5409-12.9218 37.4067-13.3826 38.2726-13.8433 38.9375-14.2778 39.4014-14.686L40.0879-14.686 40.0879 0Z" fill="#FFFFFF" transform="translate(48.795 51)"/></g></g></g><path d="M855.5 442.834C855.5 436.574 860.574 431.5 866.834 431.5L989.166 431.5C995.426 431.5 1000.5 436.574 1000.5 442.834L1000.5 488.166C1000.5 494.426 995.426 499.5 989.166 499.5L866.834 499.5C860.574 499.5 855.5 494.426 855.5 488.166Z" stroke="#46AAC5" stroke-linejoin="round" stroke-miterlimit="10" fill="url(#fill38)" fill-rule="evenodd"/><text fill="#FFFFFF" font-family="Microsoft YaHei,Microsoft YaHei_MSFontService,sans-serif" font-weight="400" font-size="19" transform="translate(874.128 461)">user<tspan font-size="19" x="38" y="0">-</tspan>service<tspan font-size="19" x="31.6667" y="22">8081</tspan></text><g clip-path="url(#clip39)"><g clip-path="url(#clip40)" filter="url(#fx8)" transform="translate(502 92)"><g clip-path="url(#clip41)"><path d="M6.50006 20.0817C6.50006 12.8098 12.3951 6.91475 19.667 6.91475L198.333 6.91475C205.605 6.91475 211.5 12.8098 211.5 20.0817L211.5 72.7478C211.5 80.0197 205.605 85.9147 198.333 85.9147L19.667 85.9147C12.3951 85.9147 6.50006 80.0197 6.50006 72.7478Z" stroke="#7D60A0" stroke-linejoin="round" stroke-miterlimit="10" fill="#FF0000" fill-rule="evenodd"/></g></g><g clip-path="url(#clip42)" filter="url(#fx9)" transform="translate(521 102)"><g clip-path="url(#clip43)"><path d="M6.27 0.228C5.57333 0.228 4.92417 0.120333 4.3225-0.095 3.72083-0.310333 3.19517-0.627 2.7455-1.045 2.29583-1.463 1.94117-1.97283 1.6815-2.5745 1.42183-3.17617 1.292-3.86333 1.292-4.636 1.292-5.38333 1.42183-6.05467 1.6815-6.65 1.94117-7.24533 2.2895-7.752 2.7265-8.17 3.1635-8.588 3.66383-8.90783 4.2275-9.1295 4.79117-9.35117 5.38333-9.462 6.004-9.462 6.66267-9.462 7.25483-9.3575 7.7805-9.1485 8.30617-8.9395 8.7495-8.645 9.1105-8.265 9.4715-7.885 9.747-7.429 9.937-6.897 10.127-6.365 10.222-5.776 10.222-5.13 10.222-4.95267 10.2157-4.78167 10.203-4.617 10.1903-4.45233 10.1713-4.30667 10.146-4.18L2.869-4.18C2.97033-3.12867 3.3535-2.34017 4.0185-1.8145 4.6835-1.28883 5.49733-1.026 6.46-1.026 7.01733-1.026 7.52083-1.10517 7.9705-1.2635 8.42017-1.42183 8.854-1.634 9.272-1.9L9.842-0.874C9.386-0.57 8.8635-0.310333 8.2745-0.095 7.6855 0.120333 7.01733 0.228 6.27 0.228ZM6.042-8.227C5.662-8.227 5.29783-8.16367 4.9495-8.037 4.60117-7.91033 4.28767-7.72983 4.009-7.4955 3.73033-7.26117 3.496-6.96667 3.306-6.612 3.116-6.25733 2.983-5.852 2.907-5.396L8.797-5.396C8.73367-6.346 8.45817-7.05533 7.9705-7.524 7.48283-7.99267 6.84-8.227 6.042-8.227ZM15.8407 0.228C14.726 0.228 13.9122-0.0855 13.3992-0.7125 12.8862-1.3395 12.6297-2.26733 12.6297-3.496L12.6297-9.234 14.2067-9.234 14.2067-3.705C14.2067-2.831 14.3682-2.18183 14.6912-1.7575 15.0142-1.33317 15.562-1.121 16.3347-1.121 16.8667-1.121 17.348-1.25717 17.7787-1.5295 18.2093-1.80183 18.6843-2.23567 19.2037-2.831L19.2037-9.234 20.7617-9.234 20.7617 0 19.4887 0 19.3557-1.615 19.2797-1.615C18.811-1.07033 18.3012-0.627 17.7502-0.285 17.1992 0.057 16.5627 0.228 15.8407 0.228ZM25.1073 0 25.1073-9.234 26.3993-9.234 26.5323-7.049 26.5893-7.049C27.0707-7.79633 27.6628-8.38533 28.3658-8.816 29.0688-9.24667 29.851-9.462 30.7123-9.462 31.0543-9.462 31.371-9.4335 31.6623-9.3765 31.9537-9.3195 32.245-9.22133 32.5363-9.082L32.1753-7.733C31.846-7.847 31.5705-7.92933 31.3488-7.98 31.1272-8.03067 30.8327-8.056 30.4653-8.056 29.7687-8.056 29.1005-7.8565 28.4608-7.4575 27.8212-7.0585 27.2227-6.37767 26.6653-5.415L26.6653 0ZM39.77 0.228C39.0733 0.228 38.4242 0.120333 37.8225-0.095 37.2208-0.310333 36.6952-0.627 36.2455-1.045 35.7958-1.463 35.4412-1.97283 35.1815-2.5745 34.9218-3.17617 34.792-3.86333 34.792-4.636 34.792-5.38333 34.9218-6.05467 35.1815-6.65 35.4412-7.24533 35.7895-7.752 36.2265-8.17 36.6635-8.588 37.1638-8.90783 37.7275-9.1295 38.2912-9.35117 38.8833-9.462 39.504-9.462 40.1627-9.462 40.7548-9.3575 41.2805-9.1485 41.8062-8.9395 42.2495-8.645 42.6105-8.265 42.9715-7.885 43.247-7.429 43.437-6.897 43.627-6.365 43.722-5.776 43.722-5.13 43.722-4.95267 43.7157-4.78167 43.703-4.617 43.6903-4.45233 43.6713-4.30667 43.646-4.18L36.369-4.18C36.4703-3.12867 36.8535-2.34017 37.5185-1.8145 38.1835-1.28883 38.9973-1.026 39.96-1.026 40.5173-1.026 41.0208-1.10517 41.4705-1.2635 41.9202-1.42183 42.354-1.634 42.772-1.9L43.342-0.874C42.886-0.57 42.3635-0.310333 41.7745-0.095 41.1855 0.120333 40.5173 0.228 39.77 0.228ZM39.542-8.227C39.162-8.227 38.7978-8.16367 38.4495-8.037 38.1012-7.91033 37.7877-7.72983 37.509-7.4955 37.2303-7.26117 36.996-6.96667 36.806-6.612 36.616-6.25733 36.483-5.852 36.407-5.396L42.297-5.396C42.2337-6.346 41.9582-7.05533 41.4705-7.524 40.9828-7.99267 40.34-8.227 39.542-8.227ZM46.6807 0 46.6807-13.528 48.2387-13.528 48.2387-4.37 48.3147-4.37 53.2927-9.234 55.0787-9.234 51.3927-5.605 55.5727 0 53.8247 0 50.4237-4.655 48.2387-2.508 48.2387 0ZM60.5073 0.228C60.0767 0.228 59.6713 0.167833 59.2913 0.0475 58.9113-0.0728333 58.5788-0.243833 58.2938-0.4655 58.0088-0.687167 57.784-0.9595 57.6193-1.2825 57.4547-1.6055 57.3723-1.976 57.3723-2.394 57.3723-2.91333 57.4958-3.36617 57.7428-3.7525 57.9898-4.13883 58.3825-4.47133 58.9208-4.75 59.4592-5.02867 60.1527-5.25667 61.0013-5.434 61.85-5.61133 62.8697-5.75067 64.0603-5.852 64.0477-6.16867 63.997-6.46633 63.9083-6.745 63.8197-7.02367 63.6803-7.2675 63.4903-7.4765 63.3003-7.6855 63.0502-7.85333 62.7398-7.98 62.4295-8.10667 62.0527-8.17 61.6093-8.17 61.0013-8.17 60.4187-8.05283 59.8613-7.8185 59.304-7.58417 58.81-7.334 58.3793-7.068L57.7713-8.132C57.9993-8.284 58.2685-8.43917 58.5788-8.5975 58.8892-8.75583 59.2185-8.89833 59.5668-9.025 59.9152-9.15167 60.2857-9.25617 60.6783-9.3385 61.071-9.42083 61.47-9.462 61.8753-9.462 63.142-9.462 64.0825-9.11683 64.6968-8.4265 65.3112-7.73617 65.6183-6.81467 65.6183-5.662L65.6183 0 64.3453 0 64.2123-1.254 64.1553-1.254C63.636-0.848667 63.0628-0.500333 62.4358-0.209 61.8088 0.0823333 61.166 0.228 60.5073 0.228ZM60.9253-1.026C61.4573-1.026 61.9798-1.14317 62.4928-1.3775 63.0058-1.61183 63.5283-1.95067 64.0603-2.394L64.0603-4.826C63.0723-4.75 62.2458-4.64233 61.5808-4.503 60.9158-4.36367 60.3838-4.19583 59.9848-3.9995 59.5858-3.80317 59.304-3.5815 59.1393-3.3345 58.9747-3.0875 58.8923-2.812 58.8923-2.508 58.8923-2.242 58.9493-2.01717 59.0633-1.8335 59.1773-1.64983 59.3262-1.49783 59.5098-1.3775 59.6935-1.25717 59.9088-1.1685 60.1558-1.1115 60.4028-1.0545 60.6593-1.026 60.9253-1.026Z" fill="#FFFFFF" transform="translate(16.6202 29)"/><path d="M1.615-5.681 1.615-6.859 9.785-6.859 9.785-5.681Z" fill="#FFFFFF" transform="translate(83.6202 29)"/><path d="M5.89 0.228C4.978 0.228 4.13567 0.0855 3.363-0.1995 2.59033-0.4845 1.919-0.823333 1.349-1.216L2.071-2.242C2.603-1.862 3.18883-1.558 3.8285-1.33 4.46817-1.102 5.21867-0.988 6.08-0.988 6.86533-0.988 7.45117-1.1305 7.8375-1.4155 8.22383-1.7005 8.417-2.03933 8.417-2.432 8.417-2.60933 8.38533-2.774 8.322-2.926 8.25867-3.078 8.1225-3.22367 7.9135-3.363 7.7045-3.50233 7.41-3.63533 7.03-3.762 6.65-3.88867 6.14967-4.01533 5.529-4.142 4.32567-4.39533 3.42317-4.73417 2.8215-5.1585 2.21983-5.58283 1.919-6.14333 1.919-6.84 1.919-7.20733 2.00133-7.5525 2.166-7.8755 2.33067-8.1985 2.5745-8.47717 2.8975-8.7115 3.2205-8.94583 3.6195-9.1295 4.0945-9.2625 4.5695-9.3955 5.12367-9.462 5.757-9.462 6.46633-9.462 7.15033-9.34483 7.809-9.1105 8.46767-8.87617 9.025-8.60067 9.481-8.284L8.721-7.277C8.29033-7.56833 7.81533-7.80267 7.296-7.98 6.77667-8.15733 6.21933-8.246 5.624-8.246 4.83867-8.246 4.28767-8.113 3.971-7.847 3.65433-7.581 3.496-7.27067 3.496-6.916 3.496-6.51067 3.705-6.2035 4.123-5.9945 4.541-5.7855 5.225-5.57967 6.175-5.377 6.94767-5.21233 7.581-5.03817 8.075-4.8545 8.569-4.67083 8.9585-4.465 9.2435-4.237 9.5285-4.009 9.72483-3.75567 9.8325-3.477 9.94017-3.19833 9.994-2.88167 9.994-2.527 9.994-2.147 9.90533-1.79233 9.728-1.463 9.55067-1.13367 9.28783-0.842333 8.9395-0.589 8.59117-0.335667 8.1605-0.136167 7.6475 0.0095 7.1345 0.155167 6.54867 0.228 5.89 0.228ZM17.4367 0.228C16.74 0.228 16.0908 0.120333 15.4892-0.095 14.8875-0.310333 14.3618-0.627 13.9122-1.045 13.4625-1.463 13.1078-1.97283 12.8482-2.5745 12.5885-3.17617 12.4587-3.86333 12.4587-4.636 12.4587-5.38333 12.5885-6.05467 12.8482-6.65 13.1078-7.24533 13.4562-7.752 13.8932-8.17 14.3302-8.588 14.8305-8.90783 15.3942-9.1295 15.9578-9.35117 16.55-9.462 17.1707-9.462 17.8293-9.462 18.4215-9.3575 18.9472-9.1485 19.4728-8.9395 19.9162-8.645 20.2772-8.265 20.6382-7.885 20.9137-7.429 21.1037-6.897 21.2937-6.365 21.3887-5.776 21.3887-5.13 21.3887-4.95267 21.3823-4.78167 21.3697-4.617 21.357-4.45233 21.338-4.30667 21.3127-4.18L14.0357-4.18C14.137-3.12867 14.5202-2.34017 15.1852-1.8145 15.8502-1.28883 16.664-1.026 17.6267-1.026 18.184-1.026 18.6875-1.10517 19.1372-1.2635 19.5868-1.42183 20.0207-1.634 20.4387-1.9L21.0087-0.874C20.5527-0.57 20.0302-0.310333 19.4412-0.095 18.8522 0.120333 18.184 0.228 17.4367 0.228ZM17.2087-8.227C16.8287-8.227 16.4645-8.16367 16.1162-8.037 15.7678-7.91033 15.4543-7.72983 15.1757-7.4955 14.897-7.26117 14.6627-6.96667 14.4727-6.612 14.2827-6.25733 14.1497-5.852 14.0737-5.396L19.9637-5.396C19.9003-6.346 19.6248-7.05533 19.1372-7.524 18.6495-7.99267 18.0067-8.227 17.2087-8.227ZM25.1073 0 25.1073-9.234 26.3993-9.234 26.5323-7.049 26.5893-7.049C27.0707-7.79633 27.6628-8.38533 28.3658-8.816 29.0688-9.24667 29.851-9.462 30.7123-9.462 31.0543-9.462 31.371-9.4335 31.6623-9.3765 31.9537-9.3195 32.245-9.22133 32.5363-9.082L32.1753-7.733C31.846-7.847 31.5705-7.92933 31.3488-7.98 31.1272-8.03067 30.8327-8.056 30.4653-8.056 29.7687-8.056 29.1005-7.8565 28.4608-7.4575 27.8212-7.0585 27.2227-6.37767 26.6653-5.415L26.6653 0ZM38.364 0 34.469-9.234 36.046-9.234 38.174-3.99C38.364-3.52133 38.5445-3.06217 38.7155-2.6125 38.8865-2.16283 39.0543-1.71633 39.219-1.273L39.295-1.273C39.4597-1.71633 39.6212-2.16283 39.7795-2.6125 39.9378-3.06217 40.112-3.52133 40.302-3.99L42.43-9.234 43.931-9.234 40.112 0ZM50.9367 0.228C50.24 0.228 49.5908 0.120333 48.9892-0.095 48.3875-0.310333 47.8618-0.627 47.4122-1.045 46.9625-1.463 46.6078-1.97283 46.3482-2.5745 46.0885-3.17617 45.9587-3.86333 45.9587-4.636 45.9587-5.38333 46.0885-6.05467 46.3482-6.65 46.6078-7.24533 46.9562-7.752 47.3932-8.17 47.8302-8.588 48.3305-8.90783 48.8942-9.1295 49.4578-9.35117 50.05-9.462 50.6707-9.462 51.3293-9.462 51.9215-9.3575 52.4472-9.1485 52.9728-8.9395 53.4162-8.645 53.7772-8.265 54.1382-7.885 54.4137-7.429 54.6037-6.897 54.7937-6.365 54.8887-5.776 54.8887-5.13 54.8887-4.95267 54.8823-4.78167 54.8697-4.617 54.857-4.45233 54.838-4.30667 54.8127-4.18L47.5357-4.18C47.637-3.12867 48.0202-2.34017 48.6852-1.8145 49.3502-1.28883 50.164-1.026 51.1267-1.026 51.684-1.026 52.1875-1.10517 52.6372-1.2635 53.0868-1.42183 53.5207-1.634 53.9387-1.9L54.5087-0.874C54.0527-0.57 53.5302-0.310333 52.9412-0.095 52.3522 0.120333 51.684 0.228 50.9367 0.228ZM50.7087-8.227C50.3287-8.227 49.9645-8.16367 49.6162-8.037 49.2678-7.91033 48.9543-7.72983 48.6757-7.4955 48.397-7.26117 48.1627-6.96667 47.9727-6.612 47.7827-6.25733 47.6497-5.852 47.5737-5.396L53.4637-5.396C53.4003-6.346 53.1248-7.05533 52.6372-7.524 52.1495-7.99267 51.5067-8.227 50.7087-8.227ZM58.6073 0 58.6073-9.234 59.8993-9.234 60.0323-7.049 60.0893-7.049C60.5707-7.79633 61.1628-8.38533 61.8658-8.816 62.5688-9.24667 63.351-9.462 64.2123-9.462 64.5543-9.462 64.871-9.4335 65.1623-9.3765 65.4537-9.3195 65.745-9.22133 66.0363-9.082L65.6753-7.733C65.346-7.847 65.0705-7.92933 64.8488-7.98 64.6272-8.03067 64.3327-8.056 63.9653-8.056 63.2687-8.056 62.6005-7.8565 61.9608-7.4575 61.3212-7.0585 60.7227-6.37767 60.1653-5.415L60.1653 0Z" fill="#FFFFFF" transform="translate(94.7869 29)"/><path d="M4.82422-0.0463867 11.0586-0.0463867 11.0586-5.31592 6.23438-5.31592 6.23438-6.72607 11.0586-6.72607 11.0586-11.2163 5.71484-11.2163 5.71484-12.6265 11.6338-12.6265C11.0524-13.548 10.4587-14.3892 9.85254-15.1499L11.0771-15.9292C11.9059-14.9644 12.5615-14.1108 13.0439-13.3687L11.8843-12.6265 18.1094-12.6265 18.1094-11.2163 12.6172-11.2163 12.6172-6.72607 17.4414-6.72607 17.4414-5.31592 12.6172-5.31592 12.6172-0.0463867 18.6289-0.0463867 18.6289 1.36377 4.82422 1.36377ZM2.83887-5.39014C3.34603-5.16748 3.83464-4.96338 4.30469-4.77783 3.62435-2.60075 2.91309-0.225749 2.1709 2.34717L0.575195 1.79053C1.35449-0.324707 2.10905-2.71826 2.83887-5.39014ZM1.87402-15.5396C3.07389-14.6366 4.14388-13.7336 5.08398-12.8306 4.66341-12.41 4.29232-12.0327 3.9707-11.6987 3.30273-12.4038 2.28841-13.3439 0.927734-14.519ZM1.16895-10.7339C2.05957-10.1154 3.1543-9.27425 4.45312-8.21045 3.99544-7.69092 3.63053-7.2889 3.3584-7.00439 2.05957-8.19189 1.02051-9.08252 0.241211-9.67627ZM29.2243-14.8345 35.3473-14.8345 35.3473-8.19189 37.3327-8.19189 37.3327-6.81885 35.3473-6.81885 35.3473 0.287598C35.3473 1.57406 34.7536 2.21729 33.5661 2.21729 32.7126 2.21729 31.9209 2.19873 31.1911 2.16162 31.154 1.8029 31.0736 1.34521 30.9499 0.788574 31.8529 0.875163 32.5765 0.918457 33.1208 0.918457 33.665 0.918457 33.9372 0.633952 33.9372 0.0649414L33.9372-6.81885 30.6344-6.81885 30.6344-5.72412C30.6344-2.42139 29.9355 0.330892 28.5378 2.53271 28.2409 2.2111 27.8636 1.86475 27.4059 1.49365 28.6182-0.411296 29.2243-2.79248 29.2243-5.6499L29.2243-6.81885 26.8678-6.81885 26.8678-0.269043C26.8678 0.967936 26.2555 1.58643 25.0309 1.58643 24.363 1.58643 23.7197 1.56787 23.1012 1.53076 23.0641 1.17204 22.9837 0.708171 22.86 0.13916 23.5404 0.225749 24.1465 0.269043 24.6784 0.269043 25.1979 0.269043 25.4577-0.00927736 25.4577-0.565918L25.4577-6.81885 22.2848-6.81885 22.2848-5.48291C22.2848-2.16781 21.5798 0.504069 20.1696 2.53271 19.8727 2.17399 19.5016 1.82764 19.0563 1.49365 20.2562-0.349447 20.8561-2.63167 20.8561-5.35303L20.8561-6.81885 19.0378-6.81885 19.0378-8.19189 20.8561-8.19189 20.8561-14.8345 26.8678-14.8345 26.8678-8.19189 29.2243-8.19189ZM33.9372-13.5356 30.6344-13.5356 30.6344-8.19189 33.9372-8.19189ZM25.4577-13.5356 22.2848-13.5356 22.2848-8.19189 25.4577-8.19189ZM38.8919-11.7915 46.0355-11.7915 46.0355-15.8364 47.6312-15.8364 47.6312-11.7915 54.849-11.7915 54.849-3.33057 53.3275-3.33057 53.3275-4.33252 47.6312-4.33252 47.6312 2.56982 46.0355 2.56982 46.0355-4.33252 40.4134-4.33252 40.4134-3.33057 38.8919-3.33057ZM53.3275-10.4185 47.6312-10.4185 47.6312-5.70557 53.3275-5.70557ZM40.4134-5.70557 46.0355-5.70557 46.0355-10.4185 40.4134-10.4185ZM61.0654-12.2183 62.6055-12.2183 62.6055-1.34521C62.6055-0.219564 63.1064 0.343262 64.1084 0.343262L68.0977 0.343262C69.1615 0.343262 69.7614-0.102051 69.8975-0.992676 70.0335-1.77197 70.151-2.70589 70.25-3.79443 70.7695-3.58415 71.3014-3.38623 71.8457-3.20068 71.6602-1.90186 71.487-0.930827 71.3262-0.287598 70.9922 1.09782 70.015 1.79053 68.3945 1.79053L63.7373 1.79053C61.9561 1.79053 61.0654 0.862793 61.0654-0.992676ZM71.5303-10.8081C72.5817-8.81657 73.6764-6.5529 74.8145-4.01709L73.2744-3.25635C72.3219-5.65609 71.2767-7.95687 70.1387-10.1587ZM58.3379-10.2329 59.8223-9.82471C59.2533-7.18994 58.5729-4.62939 57.7813-2.14307L56.2969-2.71826C57.1133-5.04378 57.7936-7.54867 58.3379-10.2329ZM65.1475-15.9478C66.3226-13.9933 67.3184-12.2306 68.1348-10.6597 67.5534-10.3628 67.0586-10.0968 66.6504-9.86182 65.7845-11.7791 64.8506-13.5851 63.8486-15.2798Z" fill="#FFFFFF" transform="translate(51.8669 63)"/></g></g></g><path d="M508.5 109.667C508.5 102.395 514.395 96.5001 521.667 96.5001L700.333 96.5001C707.605 96.5001 713.5 102.395 713.5 109.667L713.5 162.333C713.5 169.605 707.605 175.5 700.333 175.5L521.667 175.5C514.395 175.5 508.5 169.605 508.5 162.333Z" stroke="#7D60A0" stroke-linejoin="round" stroke-miterlimit="10" fill="url(#fill44)" fill-rule="evenodd"/><text fill="#FFFFFF" font-family="Source Code Pro,Source Code Pro_MSFontService,sans-serif" font-weight="400" font-size="19" transform="translate(537.62 129)">eureka-<tspan font-size="19" x="78.1667" y="0">server</tspan><tspan font-family="Microsoft YaHei,Microsoft YaHei_MSFontService,sans-serif" font-size="19" x="35.2467" y="34">注册中心</tspan></text><g clip-path="url(#clip45)" filter="url(#fx10)" transform="translate(699 125)"><g clip-path="url(#clip46)"><path d="M237.977 291.583 18.0582 20.3695 20.3884 18.48 240.307 289.694ZM16.6732 23.4246 14.5 13.5998 23.6638 17.7562Z" fill="#4BACC6"/></g></g><path d="M937.107 414.378 716.663 142.517 718.734 140.838 939.178 412.699ZM715.432 145.233 713.5 136.5 721.646 140.195Z" fill="#4BACC6"/><path d="M762.5 455.834C762.5 432.454 781.454 413.5 804.834 413.5L1070.17 413.5C1093.55 413.5 1112.5 432.454 1112.5 455.834L1112.5 625.166C1112.5 648.546 1093.55 667.5 1070.17 667.5L804.834 667.5C781.454 667.5 762.5 648.546 762.5 625.166Z" stroke="#31859C" stroke-width="2.66667" stroke-linejoin="round" stroke-miterlimit="10" fill="none" fill-rule="evenodd"/><text fill="#215968" font-family="Microsoft YaHei,Microsoft YaHei_MSFontService,sans-serif" font-weight="400" font-size="21" transform="translate(884.054 645)">服务提供者<tspan fill="#49504F" font-size="19" x="-7.25317" y="-571">user</tspan><tspan fill="#49504F" font-size="19" x="30.7468" y="-571">-</tspan><tspan fill="#49504F" font-size="19" x="38.7468" y="-571">service:</tspan><tspan fill="#49504F" font-size="19" x="14.7468" y="-549">localhost: 8081</tspan><tspan fill="#49504F" font-size="19" x="14.7468" y="-526">localhost: 8082</tspan><tspan fill="#49504F" font-size="19" x="14.7468" y="-504">localhost: 8083</tspan><tspan fill="#49504F" font-size="19" x="-7.25317" y="-481">order</tspan><tspan fill="#49504F" font-size="19" x="41.5801" y="-481">-</tspan><tspan fill="#49504F" font-size="19" x="49.5801" y="-481">service:</tspan><tspan fill="#49504F" font-size="19" x="14.7468" y="-459">localhost:8080</tspan></text><path d="M173.5 455.834C173.5 432.454 192.454 413.5 215.834 413.5L481.166 413.5C504.546 413.5 523.5 432.454 523.5 455.834L523.5 625.166C523.5 648.546 504.546 667.5 481.166 667.5L215.834 667.5C192.454 667.5 173.5 648.546 173.5 625.166Z" stroke="#92D050" stroke-width="2.66667" stroke-linejoin="round" stroke-miterlimit="10" fill="none" fill-rule="evenodd"/><text fill="#77933C" font-family="Microsoft YaHei,Microsoft YaHei_MSFontService,sans-serif" font-weight="400" font-size="21" transform="translate(295.008 645)">服务消费者</text><g clip-path="url(#clip47)" filter="url(#fx11)" transform="translate(334 132)"><g clip-path="url(#clip48)"><path d="M1.30031-0.74779 156.882 269.789 154.281 271.285-1.30031 0.74779ZM158.735 266.993 159.321 277.039 150.933 271.48Z" fill="#9BBB59" transform="matrix(-1 0 0 1 173.821 6.59979)"/></g></g><path d="M1.15583-0.664702 157.153 270.594 154.841 271.924-1.15583 0.664702ZM158.8 268.11 159.321 277.039 151.865 272.098Z" fill="#9BBB59" transform="matrix(-1 0 0 1 507.821 136.5)"/><text fill="#595959" font-family="Microsoft YaHei,Microsoft YaHei_MSFontService,sans-serif" font-weight="400" font-size="19" transform="translate(860.816 297)">1. 注册<tspan font-size="19" x="58.3333" y="0">服务信息</tspan><tspan font-size="19" x="-631.437" y="-31">2. </tspan>拉取服务<tspan font-size="19" x="-631.437" y="3">user</tspan>-service的信息<tspan font-size="19" x="-499.809" y="239">3. </tspan>负载<tspan font-size="19" x="-441.475" y="239">均衡</tspan></text><g clip-path="url(#clip49)" filter="url(#fx12)" transform="translate(412 454)"><g clip-path="url(#clip50)"><path d="M0.00112459-1.5 429.684-1.17785 429.681 1.82215-0.00112459 1.5ZM428.186-4.17898 437.183 0.327769 428.18 4.82102Z" fill="#9BBB59" transform="matrix(1 0 0 -1 6.50006 13.9276)"/></g></g><path d="M0.000999639-1.33333 430.517-1.01056 430.515 1.6561-0.000999639 1.33333ZM429.186-3.67823 437.183 0.327769 429.18 4.32177Z" fill="#9BBB59" transform="matrix(1 0 0 -1 418.5 465.828)"/><text fill="#595959" font-family="Microsoft YaHei,Microsoft YaHei_MSFontService,sans-serif" font-weight="400" font-size="19" transform="translate(590.415 502)">4. 远程<tspan font-size="19" x="58.3333" y="0">调用</tspan></text><g clip-path="url(#clip51)" filter="url(#fx13)" transform="translate(596 164)"><g clip-path="url(#clip52)"><path d="M42.8102 231.564 14.0306 21.2337 17.0029 20.827 45.7825 231.157ZM11.2617 23.1268 14.5001 13.5998 20.1786 21.9067Z" fill="#F79646"/></g></g><path d="M638.975 393.441 610.083 182.286 612.725 181.924 641.617 393.08ZM607.622 183.968 610.5 175.5 615.548 182.884Z" fill="#F79646"/><text fill="#595959" font-family="Microsoft YaHei,Microsoft YaHei_MSFontService,sans-serif" font-weight="400" font-size="19" transform="translate(649.6 299)">心跳续<tspan font-size="19" x="56" y="0">约</tspan><tspan font-size="19" x="0" y="34">每</tspan><tspan font-size="19" x="24.1667" y="34">30 </tspan>秒<tspan font-size="19" x="75.8334" y="34">1 </tspan>次<tspan fill="#49504F" font-size="19" x="-463.823" y="231">user</tspan><tspan fill="#49504F" font-size="19" x="-425.823" y="231">-</tspan><tspan fill="#49504F" font-size="19" x="-417.823" y="231">service:</tspan><tspan fill="#49504F" font-size="19" x="-441.823" y="253">localhost: 8081</tspan><tspan fill="#49504F" font-size="19" x="-441.823" y="276">localhost: 8082</tspan><tspan fill="#49504F" font-size="19" x="-441.823" y="298">localhost: 8083</tspan></text><path d="M830.563 92.6848C826.688 67.7717 846.639 44.8285 875.126 41.4397 886.669 40.0665 898.405 42.1193 908.456 47.2695 919.107 29.7113 943.995 23.0384 964.045 32.365 967.551 33.9958 970.769 36.0628 973.598 38.5016 981.893 23.9473 1002.1 18.0342 1018.73 25.2944 1023.33 27.3038 1027.34 30.21 1030.46 33.7896 1043.83 20.0258 1067.46 18.3256 1083.23 29.9921 1089.86 34.8955 1094.33 41.6586 1095.87 49.1219 1117.77 54.3495 1130.7 74.1512 1124.73 93.35 1124.23 94.9641 1123.6 96.5455 1122.85 98.083 1140.42 118.088 1136.12 146.761 1113.24 162.126 1106.12 166.909 1097.71 170.006 1088.83 171.117 1088.63 192.639 1068.5 209.947 1043.88 209.774 1035.65 209.716 1027.6 207.67 1020.62 203.862 1012.29 227.991 983.235 241.629 955.724 234.324 944.194 231.262 934.232 224.787 927.537 216.003 899.369 230.864 862.808 222.87 845.875 198.148 845.662 197.837 845.452 197.523 845.246 197.208 826.812 199.095 810.113 187.59 807.95 171.509 806.796 162.938 810.031 154.359 816.792 148.058 800.83 139.839 795.468 121.799 804.816 107.763 810.209 99.6664 819.667 94.3137 830.282 93.3513Z" fill="#7030A0" fill-rule="evenodd" fill-opacity="0.141176"/><path d="M712.116 114.87C712.116 118.153 709.454 120.815 706.171 120.815 702.888 120.815 700.227 118.153 700.227 114.87 700.227 111.587 702.888 108.926 706.171 108.926 709.454 108.926 712.116 111.587 712.116 114.87Z" fill="#7030A0" fill-rule="evenodd" fill-opacity="0.141176"/><path d="M745.728 116.316C745.728 122.882 740.405 128.205 733.839 128.205 727.273 128.205 721.95 122.882 721.95 116.316 721.95 109.75 727.273 104.427 733.839 104.427 740.405 104.427 745.728 109.75 745.728 116.316Z" fill="#7030A0" fill-rule="evenodd" fill-opacity="0.141176"/><path d="M791.213 118.382C791.213 128.231 783.229 136.215 773.38 136.215 763.531 136.215 755.547 128.231 755.547 118.382 755.547 108.533 763.531 100.549 773.38 100.549 783.229 100.549 791.213 108.533 791.213 118.382Z" fill="#7030A0" fill-rule="evenodd" fill-opacity="0.141176"/><path d="M830.563 92.6848C826.688 67.7717 846.639 44.8285 875.126 41.4397 886.669 40.0665 898.405 42.1193 908.456 47.2695 919.107 29.7113 943.995 23.0384 964.045 32.365 967.551 33.9958 970.769 36.0628 973.598 38.5016 981.893 23.9473 1002.1 18.0342 1018.73 25.2944 1023.33 27.3038 1027.34 30.21 1030.46 33.7896 1043.83 20.0258 1067.46 18.3256 1083.23 29.9921 1089.86 34.8955 1094.33 41.6586 1095.87 49.1219 1117.77 54.3495 1130.7 74.1512 1124.73 93.35 1124.23 94.9641 1123.6 96.5455 1122.85 98.083 1140.42 118.088 1136.12 146.761 1113.24 162.126 1106.12 166.909 1097.71 170.006 1088.83 171.117 1088.63 192.639 1068.5 209.947 1043.88 209.774 1035.65 209.716 1027.6 207.67 1020.62 203.862 1012.29 227.991 983.235 241.629 955.724 234.324 944.194 231.262 934.232 224.787 927.537 216.003 899.369 230.864 862.808 222.87 845.875 198.148 845.662 197.837 845.452 197.523 845.246 197.208 826.812 199.095 810.113 187.59 807.95 171.509 806.796 162.938 810.031 154.359 816.792 148.058 800.83 139.839 795.468 121.799 804.816 107.763 810.209 99.6664 819.667 94.3137 830.282 93.3513Z" stroke="#7030A0" stroke-width="2.66667" stroke-linejoin="round" stroke-miterlimit="10" fill="none" fill-rule="evenodd"/><path d="M712.116 114.87C712.116 118.153 709.454 120.815 706.171 120.815 702.888 120.815 700.227 118.153 700.227 114.87 700.227 111.587 702.888 108.926 706.171 108.926 709.454 108.926 712.116 111.587 712.116 114.87Z" stroke="#7030A0" stroke-width="2.66667" stroke-linejoin="round" stroke-miterlimit="10" fill="none" fill-rule="evenodd"/><path d="M745.728 116.316C745.728 122.882 740.405 128.205 733.839 128.205 727.273 128.205 721.95 122.882 721.95 116.316 721.95 109.75 727.273 104.427 733.839 104.427 740.405 104.427 745.728 109.75 745.728 116.316Z" stroke="#7030A0" stroke-width="2.66667" stroke-linejoin="round" stroke-miterlimit="10" fill="none" fill-rule="evenodd"/><path d="M791.213 118.382C791.213 128.231 783.229 136.215 773.38 136.215 763.531 136.215 755.547 128.231 755.547 118.382 755.547 108.533 763.531 100.549 773.38 100.549 783.229 100.549 791.213 108.533 791.213 118.382Z" stroke="#7030A0" stroke-width="2.66667" stroke-linejoin="round" stroke-miterlimit="10" fill="none" fill-rule="evenodd"/><path d="M836.675 151.173C829.861 151.64 823.047 150.262 817.149 147.225M853.903 194.379C851.163 195.334 848.291 195.969 845.36 196.269M927.518 215.14C925.457 212.436 923.731 209.547 922.37 206.521M1022.71 193.646C1022.41 196.854 1021.72 200.024 1020.65 203.104M1063.58 135.207C1079.03 141.785 1088.78 155.536 1088.64 170.555M1122.69 97.5592C1120.19 102.673 1116.37 107.21 1111.53 110.814M1095.91 48.3788C1096.34 50.4441 1096.54 52.5404 1096.5 54.6386M1024.64 41.0771C1026.1 38.1892 1028.02 35.5002 1030.36 33.094M971.17 44.8815C971.763 42.495 972.694 40.1822 973.939 37.9967M908.417 47.2197C912.054 49.0832 915.418 51.3261 918.437 53.8992M832.312 99.7141C831.518 97.4155 830.934 95.0657 830.564 92.6865" stroke="#7030A0" stroke-width="2.66667" stroke-linejoin="round" stroke-miterlimit="10" fill="none" fill-rule="evenodd"/><text fill="#49504F" font-family="Microsoft YaHei,Microsoft YaHei_MSFontService,sans-serif" font-weight="400" font-size="19" transform="translate(378.754 566)">localhost: 8081</text></g></svg>