<svg width="1053" height="380" xmlns="http://www.w3.org/2000/svg" xmlns:xlink="http://www.w3.org/1999/xlink" overflow="hidden"><defs><filter id="fx0" x="-10%" y="-10%" width="120%" height="120%" filterUnits="userSpaceOnUse" primitiveUnits="userSpaceOnUse"><feComponentTransfer color-interpolation-filters="sRGB"><feFuncR type="discrete" tableValues="0 0"/><feFuncG type="discrete" tableValues="0 0"/><feFuncB type="discrete" tableValues="0 0"/><feFuncA type="linear" slope="0.34902" intercept="0"/></feComponentTransfer><feGaussianBlur stdDeviation="1.3996 1.40044"/></filter><filter id="fx1" x="-10%" y="-10%" width="120%" height="120%" filterUnits="userSpaceOnUse" primitiveUnits="userSpaceOnUse"><feComponentTransfer color-interpolation-filters="sRGB"><feFuncR type="discrete" tableValues="0 0"/><feFuncG type="discrete" tableValues="0 0"/><feFuncB type="discrete" tableValues="0 0"/><feFuncA type="linear" slope="0.34902" intercept="0"/></feComponentTransfer><feGaussianBlur stdDeviation="1.3996 1.40044"/></filter><filter id="fx2" x="-10%" y="-10%" width="120%" height="120%" filterUnits="userSpaceOnUse" primitiveUnits="userSpaceOnUse"><feComponentTransfer color-interpolation-filters="sRGB"><feFuncR type="discrete" tableValues="0 0"/><feFuncG type="discrete" tableValues="0 0"/><feFuncB type="discrete" tableValues="0 0"/><feFuncA type="linear" slope="0.34902" intercept="0"/></feComponentTransfer><feGaussianBlur stdDeviation="1.3996 1.40044"/></filter><filter id="fx3" x="-10%" y="-10%" width="120%" height="120%" filterUnits="userSpaceOnUse" primitiveUnits="userSpaceOnUse"><feComponentTransfer color-interpolation-filters="sRGB"><feFuncR type="discrete" tableValues="0 0"/><feFuncG type="discrete" tableValues="0 0"/><feFuncB type="discrete" tableValues="0 0"/><feFuncA type="linear" slope="0.34902" intercept="0"/></feComponentTransfer><feGaussianBlur stdDeviation="1.3996 1.40044"/></filter><filter id="fx4" x="-10%" y="-10%" width="120%" height="120%" filterUnits="userSpaceOnUse" primitiveUnits="userSpaceOnUse"><feComponentTransfer color-interpolation-filters="sRGB"><feFuncR type="discrete" tableValues="0 0"/><feFuncG type="discrete" tableValues="0 0"/><feFuncB type="discrete" tableValues="0 0"/><feFuncA type="linear" slope="0.380392" intercept="0"/></feComponentTransfer><feGaussianBlur stdDeviation="1.3996 1.40044"/></filter><filter id="fx5" x="-10%" y="-10%" width="120%" height="120%" filterUnits="userSpaceOnUse" primitiveUnits="userSpaceOnUse"><feComponentTransfer color-interpolation-filters="sRGB"><feFuncR type="discrete" tableValues="0 0"/><feFuncG type="discrete" tableValues="0 0"/><feFuncB type="discrete" tableValues="0 0"/><feFuncA type="linear" slope="0.380392" intercept="0"/></feComponentTransfer><feGaussianBlur stdDeviation="1.3996 1.40044"/></filter><filter id="fx6" x="-10%" y="-10%" width="120%" height="120%" filterUnits="userSpaceOnUse" primitiveUnits="userSpaceOnUse"><feComponentTransfer color-interpolation-filters="sRGB"><feFuncR type="discrete" tableValues="0 0"/><feFuncG type="discrete" tableValues="0 0"/><feFuncB type="discrete" tableValues="0 0"/><feFuncA type="linear" slope="0.380392" intercept="0"/></feComponentTransfer><feGaussianBlur stdDeviation="1.3996 1.40044"/></filter><filter id="fx7" x="-10%" y="-10%" width="120%" height="120%" filterUnits="userSpaceOnUse" primitiveUnits="userSpaceOnUse"><feComponentTransfer color-interpolation-filters="sRGB"><feFuncR type="discrete" tableValues="0 0"/><feFuncG type="discrete" tableValues="0 0"/><feFuncB type="discrete" tableValues="0 0"/><feFuncA type="linear" slope="0.380392" intercept="0"/></feComponentTransfer><feGaussianBlur stdDeviation="1.3996 1.40044"/></filter><filter id="fx8" x="-10%" y="-10%" width="120%" height="120%" filterUnits="userSpaceOnUse" primitiveUnits="userSpaceOnUse"><feComponentTransfer color-interpolation-filters="sRGB"><feFuncR type="discrete" tableValues="0 0"/><feFuncG type="discrete" tableValues="0 0"/><feFuncB type="discrete" tableValues="0 0"/><feFuncA type="linear" slope="0.34902" intercept="0"/></feComponentTransfer><feGaussianBlur stdDeviation="1.3996 1.40044"/></filter><filter id="fx9" x="-10%" y="-10%" width="120%" height="120%" filterUnits="userSpaceOnUse" primitiveUnits="userSpaceOnUse"><feComponentTransfer color-interpolation-filters="sRGB"><feFuncR type="discrete" tableValues="0 0"/><feFuncG type="discrete" tableValues="0 0"/><feFuncB type="discrete" tableValues="0 0"/><feFuncA type="linear" slope="0.34902" intercept="0"/></feComponentTransfer><feGaussianBlur stdDeviation="1.3996 1.40044"/></filter><filter id="fx10" x="-10%" y="-10%" width="120%" height="120%" filterUnits="userSpaceOnUse" primitiveUnits="userSpaceOnUse"><feComponentTransfer color-interpolation-filters="sRGB"><feFuncR type="discrete" tableValues="0 0"/><feFuncG type="discrete" tableValues="0 0"/><feFuncB type="discrete" tableValues="0 0"/><feFuncA type="linear" slope="0.380392" intercept="0"/></feComponentTransfer><feGaussianBlur stdDeviation="1.3996 1.40044"/></filter><filter id="fx11" x="-10%" y="-10%" width="120%" height="120%" filterUnits="userSpaceOnUse" primitiveUnits="userSpaceOnUse"><feComponentTransfer color-interpolation-filters="sRGB"><feFuncR type="discrete" tableValues="0 0"/><feFuncG type="discrete" tableValues="0 0"/><feFuncB type="discrete" tableValues="0 0"/><feFuncA type="linear" slope="0.380392" intercept="0"/></feComponentTransfer><feGaussianBlur stdDeviation="1.3996 1.40044"/></filter><filter id="fx12" x="-10%" y="-10%" width="120%" height="120%" filterUnits="userSpaceOnUse" primitiveUnits="userSpaceOnUse"><feComponentTransfer color-interpolation-filters="sRGB"><feFuncR type="discrete" tableValues="0 0"/><feFuncG type="discrete" tableValues="0 0"/><feFuncB type="discrete" tableValues="0 0"/><feFuncA type="linear" slope="0.380392" intercept="0"/></feComponentTransfer><feGaussianBlur stdDeviation="1.3996 1.40044"/></filter><filter id="fx13" x="-10%" y="-10%" width="120%" height="120%" filterUnits="userSpaceOnUse" primitiveUnits="userSpaceOnUse"><feComponentTransfer color-interpolation-filters="sRGB"><feFuncR type="discrete" tableValues="0 0"/><feFuncG type="discrete" tableValues="0 0"/><feFuncB type="discrete" tableValues="0 0"/><feFuncA type="linear" slope="0.34902" intercept="0"/></feComponentTransfer><feGaussianBlur stdDeviation="1.3996 1.40044"/></filter><filter id="fx14" x="-10%" y="-10%" width="120%" height="120%" filterUnits="userSpaceOnUse" primitiveUnits="userSpaceOnUse"><feComponentTransfer color-interpolation-filters="sRGB"><feFuncR type="discrete" tableValues="0 0"/><feFuncG type="discrete" tableValues="0 0"/><feFuncB type="discrete" tableValues="0 0"/><feFuncA type="linear" slope="0.34902" intercept="0"/></feComponentTransfer><feGaussianBlur stdDeviation="1.3996 1.40044"/></filter><filter id="fx15" x="-10%" y="-10%" width="120%" height="120%" filterUnits="userSpaceOnUse" primitiveUnits="userSpaceOnUse"><feComponentTransfer color-interpolation-filters="sRGB"><feFuncR type="discrete" tableValues="0 0"/><feFuncG type="discrete" tableValues="0 0"/><feFuncB type="discrete" tableValues="0 0"/><feFuncA type="linear" slope="0.380392" intercept="0"/></feComponentTransfer><feGaussianBlur stdDeviation="1.3996 1.40044"/></filter><filter id="fx16" x="-10%" y="-10%" width="120%" height="120%" filterUnits="userSpaceOnUse" primitiveUnits="userSpaceOnUse"><feComponentTransfer color-interpolation-filters="sRGB"><feFuncR type="discrete" tableValues="0 0"/><feFuncG type="discrete" tableValues="0 0"/><feFuncB type="discrete" tableValues="0 0"/><feFuncA type="linear" slope="0.380392" intercept="0"/></feComponentTransfer><feGaussianBlur stdDeviation="1.3996 1.40044"/></filter><filter id="fx17" x="-10%" y="-10%" width="120%" height="120%" filterUnits="userSpaceOnUse" primitiveUnits="userSpaceOnUse"><feComponentTransfer color-interpolation-filters="sRGB"><feFuncR type="discrete" tableValues="0 0"/><feFuncG type="discrete" tableValues="0 0"/><feFuncB type="discrete" tableValues="0 0"/><feFuncA type="linear" slope="0.380392" intercept="0"/></feComponentTransfer><feGaussianBlur stdDeviation="1.3996 1.40044"/></filter><filter id="fx18" x="-10%" y="-10%" width="120%" height="120%" filterUnits="userSpaceOnUse" primitiveUnits="userSpaceOnUse"><feComponentTransfer color-interpolation-filters="sRGB"><feFuncR type="discrete" tableValues="0 0"/><feFuncG type="discrete" tableValues="0 0"/><feFuncB type="discrete" tableValues="0 0"/><feFuncA type="linear" slope="0.380392" intercept="0"/></feComponentTransfer><feGaussianBlur stdDeviation="1.3996 1.40044"/></filter><filter id="fx19" x="-10%" y="-10%" width="120%" height="120%" filterUnits="userSpaceOnUse" primitiveUnits="userSpaceOnUse"><feComponentTransfer color-interpolation-filters="sRGB"><feFuncR type="discrete" tableValues="0 0"/><feFuncG type="discrete" tableValues="0 0"/><feFuncB type="discrete" tableValues="0 0"/><feFuncA type="linear" slope="0.380392" intercept="0"/></feComponentTransfer><feGaussianBlur stdDeviation="1.3996 1.40044"/></filter><clipPath id="clip20"><rect x="0" y="0" width="1053" height="380"/></clipPath><clipPath id="clip21"><path d="M28.6669 183.61C22.4996 183.61 17.5 188.612 17.5 194.783L17.5 239.476C17.5 245.647 22.4996 250.65 28.6669 250.65L143.333 250.65C149.5 250.65 154.5 245.647 154.5 239.476L154.5 194.783C154.5 188.612 149.5 183.61 143.333 183.61ZM1.56909e-05 5.66244e-06 1053 5.66244e-06 1053 380 1.56909e-05 380Z" fill-rule="evenodd" clip-rule="evenodd"/></clipPath><clipPath id="clip22"><rect x="1" y="-1" width="149" height="81"/></clipPath><clipPath id="clip23"><rect x="0" y="0" width="150" height="80"/></clipPath><clipPath id="clip24"><rect x="13" y="7" width="109" height="31"/></clipPath><clipPath id="clip25"><rect x="0" y="0" width="135" height="50"/></clipPath><linearGradient x1="86" y1="250.65" x2="86" y2="183.61" gradientUnits="userSpaceOnUse" spreadMethod="reflect" id="fill26"><stop offset="0" stop-color="#2C5D98"/><stop offset="0.8" stop-color="#3C7BC7"/><stop offset="1" stop-color="#3A7CCB"/></linearGradient><clipPath id="clip27"><path d="M912.667 39.5236C906.5 39.5236 901.5 44.5262 901.5 50.6972L901.5 95.39C901.5 101.561 906.5 106.564 912.667 106.564L1027.33 106.564C1033.5 106.564 1038.5 101.561 1038.5 95.39L1038.5 50.6972C1038.5 44.5262 1033.5 39.5236 1027.33 39.5236ZM1.56909e-05 5.66244e-06 1053 5.66244e-06 1053 380 1.56909e-05 380Z" fill-rule="evenodd" clip-rule="evenodd"/></clipPath><clipPath id="clip28"><rect x="1" y="1" width="149" height="79"/></clipPath><clipPath id="clip29"><rect x="0" y="0" width="150" height="80"/></clipPath><clipPath id="clip30"><rect x="13" y="9" width="109" height="27"/></clipPath><clipPath id="clip31"><rect x="0" y="0" width="134" height="51"/></clipPath><linearGradient x1="970" y1="106.564" x2="970" y2="39.5236" gradientUnits="userSpaceOnUse" spreadMethod="reflect" id="fill32"><stop offset="0" stop-color="#769535"/><stop offset="0.8" stop-color="#9BC348"/><stop offset="1" stop-color="#9CC746"/></linearGradient><clipPath id="clip33"><path d="M586.373 86.5674C580.92 86.5674 576.5 104.259 576.5 126.083 576.5 147.907 580.92 165.599 586.373 165.599L772.627 165.599C778.08 165.599 782.5 147.907 782.5 126.083 782.5 104.259 778.08 86.5674 772.627 86.5674ZM1.56909e-05 5.66244e-06 1053 5.66244e-06 1053 380 1.56909e-05 380Z" fill-rule="evenodd" clip-rule="evenodd"/></clipPath><clipPath id="clip34"><rect x="1" y="1" width="217" height="91"/></clipPath><clipPath id="clip35"><rect x="0" y="0" width="219" height="92"/></clipPath><clipPath id="clip36"><rect x="13" y="9" width="77" height="31"/></clipPath><clipPath id="clip37"><rect x="0" y="0" width="101" height="51"/></clipPath><linearGradient x1="782.5" y1="126.083" x2="576.5" y2="126.083" gradientUnits="userSpaceOnUse" spreadMethod="reflect" id="fill38"><stop offset="0" stop-color="#FFA2A1"/><stop offset="0.35" stop-color="#FFBEBD"/><stop offset="1" stop-color="#FFE5E5"/></linearGradient><linearGradient x1="782.5" y1="126.083" x2="576.5" y2="126.083" gradientUnits="userSpaceOnUse" spreadMethod="reflect" id="fill39"><stop offset="0" stop-color="#FFC7C7"/><stop offset="0.35" stop-color="#FFD8D7"/><stop offset="1" stop-color="#FFEFEF"/></linearGradient><clipPath id="clip40"><rect x="1" y="3" width="141" height="21"/></clipPath><clipPath id="clip41"><rect x="0" y="0" width="151" height="28"/></clipPath><clipPath id="clip42"><rect x="-1" y="7" width="133" height="67"/></clipPath><clipPath id="clip43"><rect x="0" y="0" width="140" height="74"/></clipPath><clipPath id="clip44"><path d="M912.667 147.588C906.5 147.588 901.5 152.591 901.5 158.762L901.5 203.455C901.5 209.626 906.5 214.628 912.667 214.628L1027.33 214.628C1033.5 214.628 1038.5 209.626 1038.5 203.455L1038.5 158.762C1038.5 152.591 1033.5 147.588 1027.33 147.588ZM1.56909e-05 5.66244e-06 1053 5.66244e-06 1053 380 1.56909e-05 380Z" fill-rule="evenodd" clip-rule="evenodd"/></clipPath><clipPath id="clip45"><rect x="1" y="-1" width="149" height="81"/></clipPath><clipPath id="clip46"><rect x="0" y="0" width="150" height="80"/></clipPath><clipPath id="clip47"><rect x="13" y="9" width="109" height="27"/></clipPath><clipPath id="clip48"><rect x="0" y="0" width="134" height="50"/></clipPath><linearGradient x1="970" y1="214.628" x2="970" y2="147.588" gradientUnits="userSpaceOnUse" spreadMethod="reflect" id="fill49"><stop offset="0" stop-color="#769535"/><stop offset="0.8" stop-color="#9BC348"/><stop offset="1" stop-color="#9CC746"/></linearGradient><clipPath id="clip50"><rect x="-1" y="1" width="133" height="69"/></clipPath><clipPath id="clip51"><rect x="0" y="0" width="140" height="77"/></clipPath><clipPath id="clip52"><path d="M364 188.613C320.093 188.613 284.5 192.943 284.5 198.285L284.5 236.975C284.5 242.317 320.093 246.647 364 246.647 407.907 246.647 443.5 242.317 443.5 236.975L443.5 198.285C443.5 192.943 407.907 188.613 364 188.613ZM1.56909e-05 5.66244e-06 1053 5.66244e-06 1053 380 1.56909e-05 380Z" fill-rule="evenodd" clip-rule="evenodd"/></clipPath><clipPath id="clip53"><rect x="-1" y="1" width="173" height="71"/></clipPath><clipPath id="clip54"><rect x="0" y="0" width="172" height="71"/></clipPath><clipPath id="clip55"><rect x="13" y="9" width="99" height="31"/></clipPath><clipPath id="clip56"><rect x="0" y="0" width="123" height="50"/></clipPath><linearGradient x1="364" y1="246.647" x2="364" y2="188.613" gradientUnits="userSpaceOnUse" spreadMethod="reflect" id="fill57"><stop offset="0" stop-color="#C9B5E8"/><stop offset="0.35" stop-color="#D9CBEE"/><stop offset="1" stop-color="#F0EAF9"/></linearGradient><clipPath id="clip58"><path d="M912.667 272.663C906.5 272.663 901.5 277.665 901.5 283.836L901.5 328.529C901.5 334.7 906.5 339.703 912.667 339.703L1027.33 339.703C1033.5 339.703 1038.5 334.7 1038.5 328.529L1038.5 283.836C1038.5 277.665 1033.5 272.663 1027.33 272.663ZM1.56909e-05 5.66244e-06 1053 5.66244e-06 1053 380 1.56909e-05 380Z" fill-rule="evenodd" clip-rule="evenodd"/></clipPath><clipPath id="clip59"><rect x="1" y="-1" width="149" height="81"/></clipPath><clipPath id="clip60"><rect x="0" y="0" width="150" height="80"/></clipPath><clipPath id="clip61"><rect x="13" y="9" width="109" height="27"/></clipPath><clipPath id="clip62"><rect x="0" y="0" width="134" height="50"/></clipPath><linearGradient x1="970" y1="339.703" x2="970" y2="272.663" gradientUnits="userSpaceOnUse" spreadMethod="reflect" id="fill63"><stop offset="0" stop-color="#769535"/><stop offset="0.8" stop-color="#9BC348"/><stop offset="1" stop-color="#9CC746"/></linearGradient><clipPath id="clip64"><path d="M586.373 264.674C580.92 264.674 576.5 282.365 576.5 304.189 576.5 326.013 580.92 343.705 586.373 343.705L772.627 343.705C778.08 343.705 782.5 326.013 782.5 304.189 782.5 282.365 778.08 264.674 772.627 264.674ZM1.56909e-05 5.66244e-06 1053 5.66244e-06 1053 380 1.56909e-05 380Z" fill-rule="evenodd" clip-rule="evenodd"/></clipPath><clipPath id="clip65"><rect x="1" y="1" width="217" height="91"/></clipPath><clipPath id="clip66"><rect x="0" y="0" width="219" height="92"/></clipPath><clipPath id="clip67"><rect x="13" y="9" width="75" height="31"/></clipPath><clipPath id="clip68"><rect x="0" y="0" width="101" height="51"/></clipPath><linearGradient x1="782.5" y1="304.189" x2="576.5" y2="304.189" gradientUnits="userSpaceOnUse" spreadMethod="reflect" id="fill69"><stop offset="0" stop-color="#FFA2A1"/><stop offset="0.35" stop-color="#FFBEBD"/><stop offset="1" stop-color="#FFE5E5"/></linearGradient><linearGradient x1="782.5" y1="304.189" x2="576.5" y2="304.189" gradientUnits="userSpaceOnUse" spreadMethod="reflect" id="fill70"><stop offset="0" stop-color="#FFC7C7"/><stop offset="0.35" stop-color="#FFD8D7"/><stop offset="1" stop-color="#FFEFEF"/></linearGradient><clipPath id="clip71"><rect x="1" y="3" width="131" height="21"/></clipPath><clipPath id="clip72"><rect x="0" y="0" width="140" height="28"/></clipPath><clipPath id="clip73"><rect x="-1" y="7" width="147" height="105"/></clipPath><clipPath id="clip74"><rect x="0" y="0" width="153" height="112"/></clipPath><clipPath id="clip75"><rect x="-1" y="-1" width="147" height="101"/></clipPath><clipPath id="clip76"><rect x="0" y="0" width="153" height="107"/></clipPath></defs><g clip-path="url(#clip20)"><rect x="0" y="0" width="1053" height="380.227" fill="#FFFFFF"/><g clip-path="url(#clip21)"><g clip-path="url(#clip22)" filter="url(#fx0)" transform="translate(11 180)"><g clip-path="url(#clip23)"><path d="M6.50001 17.1989C6.50001 11.0279 11.4996 6.02531 17.6669 6.02531L132.333 6.02531C138.5 6.02531 143.5 11.0279 143.5 17.1989L143.5 61.8917C143.5 68.0627 138.5 73.0653 132.333 73.0653L17.6669 73.0653C11.4996 73.0653 6.50001 68.0627 6.50001 61.8917Z" stroke="#4A7EBB" stroke-linejoin="round" stroke-miterlimit="10" fill="#FF0000" fill-rule="evenodd"/></g></g><g clip-path="url(#clip24)" filter="url(#fx1)" transform="translate(18 197)"><g clip-path="url(#clip25)"><path d="M3.03369-8.03418C3.479-8.75163 4.03255-9.35156 4.69434-9.83398 5.44889-10.3783 6.20654-10.6504 6.96729-10.6504 8.09294-10.6504 8.96191-10.1525 9.57422-9.15674 10.0876-8.32178 10.3442-7.31055 10.3442-6.12305 10.3442-5.02214 10.1401-4.00781 9.73193-3.08008 9.29281-2.07194 8.65267-1.271 7.81152-0.677246 7.0446-0.12679 6.09521 0.148438 4.96338 0.148438 4.62321 0.148438 4.12842 0.114421 3.479 0.0463867 3.3986 0.0402018 3.25016 0.0247396 3.03369 0L3.03369 4.02637 1.30811 4.02637 1.30811-10.3628 3.03369-10.3628ZM3.03369-5.98389 3.03369-1.54004C3.65837-1.37923 4.23356-1.29883 4.75928-1.29883 5.95296-1.29883 6.88997-1.78125 7.57031-2.74609 8.17025-3.59961 8.47021-4.64795 8.47021-5.89111 8.47021-6.64567 8.34033-7.30745 8.08057-7.87646 7.73421-8.62484 7.22705-8.99902 6.55908-8.99902 5.90967-8.99902 5.22005-8.63721 4.49023-7.91357 3.93978-7.3693 3.45426-6.72607 3.03369-5.98389ZM21.138-10.3628 21.138 0 19.4125 0 19.4125-2.27295C18.2992-0.565918 17.0003 0.287598 15.516 0.287598 14.9222 0.287598 14.378 0.132975 13.8832-0.17627 13.3636-0.504069 13.0018-0.940104 12.7977-1.48438 12.5998-2.01009 12.5008-3.03988 12.5008-4.57373L12.5008-10.3628 14.2264-10.3628 14.2264-4.36035C14.2264-3.57487 14.2419-3.08317 14.2728-2.88525 14.3532-2.29769 14.5635-1.87093 14.9037-1.60498 15.1572-1.40088 15.4325-1.29883 15.7294-1.29883 16.4282-1.29883 17.1519-1.64827 17.9003-2.34717 18.5187-2.91618 19.0228-3.57487 19.4125-4.32324L19.4125-10.3628ZM25.3635-8.03418C25.8088-8.75163 26.3624-9.35156 27.0241-9.83398 27.7787-10.3783 28.5363-10.6504 29.2971-10.6504 30.4227-10.6504 31.2917-10.1525 31.904-9.15674 32.4174-8.32178 32.674-7.31055 32.674-6.12305 32.674-5.02214 32.4699-4.00781 32.0617-3.08008 31.6226-2.07194 30.9825-1.271 30.1413-0.677246 29.3744-0.12679 28.425 0.148438 27.2932 0.148438 26.953 0.148438 26.4582 0.114421 25.8088 0.0463867 25.7284 0.0402018 25.58 0.0247396 25.3635 0L23.6379 0 23.6379-14.9736 25.3635-14.9736ZM25.3635-5.98389 25.3635-1.54004C25.9882-1.37923 26.5634-1.29883 27.0891-1.29883 28.2828-1.29883 29.2198-1.78125 29.9001-2.74609 30.5-3.59961 30.8-4.64795 30.8-5.89111 30.8-6.64567 30.6701-7.30745 30.4104-7.87646 30.064-8.62484 29.5568-8.99902 28.8889-8.99902 28.2395-8.99902 27.5499-8.63721 26.82-7.91357 26.2696-7.3693 25.7841-6.72607 25.3635-5.98389ZM37.7252 0 37.7252-13.5264 34.6265-13.5264 34.6265-14.9736 39.4508-14.9736 39.4508-1.44727 42.6885-1.44727 42.6885 0ZM49.0107 0 49.0107-8.91553 46.1347-8.91553 46.1347-10.3628 50.7363-10.3628 50.7363-1.44727 53.6215-1.44727 53.6215 0ZM48.7231-14.1016C48.7231-14.4232 48.8344-14.6969 49.0571-14.9226 49.2797-15.1484 49.5518-15.2612 49.8735-15.2612 50.1951-15.2612 50.4688-15.1484 50.6945-14.9226 50.9203-14.6969 51.0331-14.4232 51.0331-14.1016 51.0331-13.7861 50.9203-13.5155 50.6945-13.2898 50.4688-13.064 50.1951-12.9512 49.8735-12.9512 49.558-12.9512 49.2874-13.064 49.0617-13.2898 48.8359-13.5155 48.7231-13.7861 48.7231-14.1016ZM57.3831-0.547363 57.3831-2.375C58.6386-1.56478 60.0271-1.15967 61.5486-1.15967 63.1876-1.15967 64.0071-1.65088 64.0071-2.63332 64.0071-3.01021 63.8216-3.32535 63.4505-3.57874 63.2773-3.69615 62.9279-3.86295 62.4021-4.07913L61.8084-4.3202 60.6116-4.79291C59.6282-5.18217 58.9571-5.51891 58.5984-5.80312 57.9799-6.29125 57.6707-6.93076 57.6707-7.72165 57.6707-8.79057 58.1284-9.57219 59.0437-10.0665 59.755-10.4558 60.6951-10.6504 61.8641-10.6504 62.9711-10.6504 64.0195-10.4896 65.0091-10.168L65.0091-8.6001C63.871-9.00212 62.8011-9.20312 61.7991-9.20312 61.2425-9.20312 60.7539-9.11663 60.3333-8.94365 59.7581-8.70263 59.4705-8.34115 59.4705-7.85921 59.4705-7.44521 59.7581-7.08064 60.3333-6.7655 60.5374-6.65437 61.0043-6.46592 61.7342-6.20016L62.9031-5.77384C63.8123-5.44024 64.4772-5.09732 64.8977-4.74507 65.5039-4.23221 65.8069-3.58033 65.8069-2.78944 65.8069-1.67731 65.3369-0.858637 64.3968-0.333405 63.6546 0.0805969 62.6774 0.287598 61.4651 0.287598 60.1416 0.287598 58.7809 0.00927733 57.3831-0.547363ZM68.4274 0 68.4274-14.9736 70.153-14.9736 70.153-8.09912C70.6045-8.82275 71.1487-9.41341 71.7858-9.87109 72.5218-10.3906 73.2733-10.6504 74.0402-10.6504 74.5845-10.6504 75.0947-10.5174 75.5709-10.2515 76.0843-9.96077 76.4492-9.5804 76.6657-9.11035 76.8698-8.66504 76.9966-8.12077 77.046-7.47754 77.0584-7.26725 77.0646-6.70443 77.0646-5.78906L77.0646 0 75.339 0 75.339-6.00244C75.339-6.78792 75.3235-7.27962 75.2926-7.47754 75.2122-8.0651 75.005-8.49186 74.671-8.75781 74.4113-8.96191 74.1299-9.06396 73.8268-9.06396 73.1341-9.06396 72.4105-8.71452 71.6559-8.01562 71.0436-7.44661 70.5426-6.78792 70.153-6.03955L70.153 0ZM88.2109-0.686523C86.8317-0.0309245 85.5267 0.296875 84.2959 0.296875 82.3662 0.296875 80.9437-0.599935 80.0283-2.39355 79.583-3.25326 79.3604-4.1748 79.3604-5.1582 79.3604-6.10449 79.5645-7.0013 79.9727-7.84863 80.3994-8.73926 80.9916-9.42887 81.7493-9.91748 82.5069-10.4061 83.3496-10.6504 84.2774-10.6504 85.7246-10.6504 86.7977-10.0907 87.4966-8.97119 88.0718-8.04964 88.3594-6.81575 88.3594-5.26953L88.3594-4.89844 81.2158-4.89844C81.2158-4.23047 81.3488-3.60889 81.6148-3.03369 81.9054-2.39665 82.3167-1.91732 82.8486-1.5957 83.3372-1.29883 83.8939-1.15039 84.5186-1.15039 85.6318-1.15039 86.8626-1.52148 88.2109-2.26367ZM81.3179-6.18799 86.4854-6.18799 86.4854-6.43775C86.4854-7.21463 86.3029-7.85279 85.938-8.35222 85.5298-8.91949 84.9515-9.20312 84.2031-9.20312 82.694-9.20312 81.7323-8.19808 81.3179-6.18799ZM91.6385 0 91.6385-10.3628 93.3641-10.3628 93.3641-8.09912C94.4341-9.79997 95.8257-10.6504 97.5389-10.6504 98.1636-10.6504 98.7883-10.5545 99.413-10.3628L99.413-6.62402 97.7523-6.62402 97.7523-8.98975C97.4616-9.03922 97.2328-9.06396 97.0658-9.06396 95.7731-9.06396 94.5393-8.04964 93.3641-6.021L93.3641 0Z" fill="#FFFFFF" transform="matrix(1 0 0 1.0006 17.2309 29)"/></g></g></g><path d="M17.5 194.783C17.5 188.612 22.4996 183.61 28.6669 183.61L143.333 183.61C149.5 183.61 154.5 188.612 154.5 194.783L154.5 239.476C154.5 245.647 149.5 250.65 143.333 250.65L28.6669 250.65C22.4996 250.65 17.5 245.647 17.5 239.476Z" stroke="#4A7EBB" stroke-width="0.999842" stroke-linejoin="round" stroke-miterlimit="10" fill="url(#fill26)" fill-rule="evenodd"/><text fill="#FFFFFF" font-family="Monaco,Monaco_MSFontService,sans-serif" font-weight="400" font-size="19" transform="matrix(1 0 0 1.0006 35.2309 224)">publisher</text><g clip-path="url(#clip27)"><g clip-path="url(#clip28)" filter="url(#fx2)" transform="translate(895 35)"><g clip-path="url(#clip29)"><path d="M6.50006 18.1129C6.50006 11.9419 11.4997 6.93934 17.667 6.93934L132.333 6.93934C138.5 6.93934 143.5 11.9419 143.5 18.1129L143.5 62.8058C143.5 68.9768 138.5 73.9793 132.333 73.9793L17.667 73.9793C11.4997 73.9793 6.50006 68.9768 6.50006 62.8058Z" stroke="#98B954" stroke-linejoin="round" stroke-miterlimit="10" fill="#FF0000" fill-rule="evenodd"/></g></g><g clip-path="url(#clip30)" filter="url(#fx3)" transform="translate(903 52)"><g clip-path="url(#clip31)"><path d="M10.1587-0.296875C9.00212 0.0927734 7.9012 0.287598 6.85596 0.287598 5.86019 0.287598 4.95719 0.061849 4.14697-0.389648 3.3182-0.859701 2.66878-1.52458 2.19873-2.38428 1.74723-3.20068 1.52148-4.13151 1.52148-5.17676 1.52148-6.69824 2.01318-7.9847 2.99658-9.03613 3.99854-10.1123 5.25407-10.6504 6.76318-10.6504 7.83317-10.6504 8.96501-10.4494 10.1587-10.0474L10.1587-8.38672C8.95264-8.93099 7.87337-9.20312 6.9209-9.20312 5.46126-9.20312 4.43766-8.56067 3.8501-7.27576 3.54704-6.61475 3.39551-5.93518 3.39551-5.23706 3.39551-4.11276 3.71712-3.18614 4.36035-2.45719 5.02832-1.68495 5.91585-1.29883 7.02295-1.29883 7.8208-1.29883 8.86605-1.51839 10.1587-1.95752ZM16.8705 0.287598C15.349 0.287598 14.1367-0.253581 13.2337-1.33594 12.3926-2.35026 11.972-3.63363 11.972-5.18604 11.972-6.73844 12.3957-8.01872 13.243-9.02686 14.1398-10.1092 15.349-10.6504 16.8705-10.6504 18.3858-10.6504 19.5949-10.1092 20.4979-9.02686 21.3391-8.01253 21.7596-6.73226 21.7596-5.18604 21.7596-3.63981 21.3391-2.35645 20.4979-1.33594 19.5949-0.253581 18.3858 0.287598 16.8705 0.287598ZM16.8705-1.15967C17.9095-1.15967 18.695-1.5916 19.2269-2.45545 19.666-3.17126 19.8856-4.08145 19.8856-5.18604 19.8856-6.28443 19.6629-7.19154 19.2176-7.90734 18.6857-8.7712 17.9033-9.20312 16.8705-9.20312 15.8314-9.20312 15.0459-8.77424 14.514-7.91647 14.0687-7.20076 13.8461-6.29062 13.8461-5.18604 13.8461-4.08145 14.0687-3.17126 14.514-2.45545 15.0459-1.5916 15.8314-1.15967 16.8705-1.15967ZM23.7678 0 23.7678-10.3628 25.4934-10.3628 25.4934-8.09912C25.9449-8.82275 26.4891-9.41341 27.1262-9.87109 27.8622-10.3906 28.6137-10.6504 29.3806-10.6504 29.9805-10.6504 30.5325-10.4927 31.0366-10.1772 31.5407-9.86182 31.8947-9.4366 32.0988-8.90161 32.3029-8.36662 32.405-7.3291 32.405-5.78906L32.405 0 30.6794 0 30.6794-6.00244C30.6794-6.78792 30.6639-7.27962 30.633-7.47754 30.5526-8.0651 30.3454-8.49186 30.0114-8.75781 29.7517-8.96191 29.4703-9.06396 29.1672-9.06396 28.4745-9.06396 27.7509-8.71452 26.9963-8.01562 26.384-7.44661 25.883-6.78792 25.4934-6.03955L25.4934 0ZM35.0533-0.547363 35.0533-2.375C36.3088-1.56478 37.6973-1.15967 39.2188-1.15967 40.8578-1.15967 41.6773-1.65088 41.6773-2.63332 41.6773-3.01021 41.4918-3.32535 41.1207-3.57874 40.9475-3.69615 40.598-3.86295 40.0723-4.07913L39.4786-4.3202 38.2818-4.79291C37.2984-5.18217 36.6273-5.51891 36.2686-5.80312 35.6501-6.29125 35.3409-6.93076 35.3409-7.72165 35.3409-8.79057 35.7986-9.57219 36.7139-10.0665 37.4252-10.4558 38.3653-10.6504 39.5342-10.6504 40.6413-10.6504 41.6897-10.4896 42.6793-10.168L42.6793-8.6001C41.5412-9.00212 40.4713-9.20312 39.4693-9.20312 38.9127-9.20312 38.4241-9.11663 38.0035-8.94365 37.4283-8.70263 37.1407-8.34115 37.1407-7.85921 37.1407-7.44521 37.4283-7.08064 38.0035-6.7655 38.2076-6.65437 38.6745-6.46592 39.4044-6.20016L40.5733-5.77384C41.4825-5.44024 42.1474-5.09732 42.5679-4.74507 43.1741-4.23221 43.4771-3.58033 43.4771-2.78944 43.4771-1.67731 43.0071-0.858637 42.067-0.333405 41.3248 0.0805969 40.3476 0.287598 39.1353 0.287598 37.8118 0.287598 36.4511 0.00927733 35.0533-0.547363ZM54.6327-10.3628 54.6327 0 52.9072 0 52.9072-2.27295C51.7939-0.565918 50.495 0.287598 49.0107 0.287598 48.4169 0.287598 47.8727 0.132975 47.3779-0.17627 46.8583-0.504069 46.4965-0.940104 46.2924-1.48438 46.0945-2.01009 45.9955-3.03988 45.9955-4.57373L45.9955-10.3628 47.7211-10.3628 47.7211-4.36035C47.7211-3.57487 47.7366-3.08317 47.7675-2.88525 47.8479-2.29769 48.0582-1.87093 48.3984-1.60498 48.6519-1.40088 48.9272-1.29883 49.2241-1.29883 49.9229-1.29883 50.6466-1.64827 51.395-2.34717 52.0134-2.91618 52.5175-3.57487 52.9072-4.32324L52.9072-10.3628ZM56.4832 0 56.4832-10.3628 57.9954-10.3628 57.9954-7.98779C58.8384-9.76286 59.7-10.6504 60.5802-10.6504 61.1628-10.6504 61.5998-10.4061 61.8912-9.91748 62.1329-9.51546 62.2537-9.00521 62.2537-8.38672L62.2537-7.83008C62.6055-8.93099 63.1486-9.75667 63.883-10.3071 64.1916-10.536 64.5465-10.6504 64.9476-10.6504 66.0215-10.6504 66.5584-9.71029 66.5584-7.83008L66.5584 0 65.0462 0 65.0462-7.07861C65.0462-8.01253 64.9537-8.57227 64.7687-8.75781 64.6578-8.86914 64.5376-8.9248 64.4082-8.9248 63.6869-8.9248 62.9687-7.86409 62.2537-5.74268L62.2537 0 60.7972 0 60.7972-7.06934C60.7972-8.30631 60.5467-8.9248 60.0457-8.9248 59.4272-8.9248 58.7438-7.9445 57.9954-5.98389L57.9954 0ZM77.046-0.686523C75.6668-0.0309245 74.3618 0.296875 73.131 0.296875 71.2013 0.296875 69.7788-0.599935 68.8634-2.39355 68.4181-3.25326 68.1954-4.1748 68.1955-5.1582 68.1954-6.10449 68.3996-7.0013 68.8078-7.84863 69.2345-8.73926 69.8267-9.42887 70.5844-9.91748 71.342-10.4061 72.1847-10.6504 73.1124-10.6504 74.5597-10.6504 75.6328-10.0907 76.3317-8.97119 76.9069-8.04964 77.1945-6.81575 77.1945-5.26953L77.1945-4.89844 70.0509-4.89844C70.0509-4.23047 70.1839-3.60889 70.4499-3.03369 70.7405-2.39665 71.1518-1.91732 71.6837-1.5957 72.1723-1.29883 72.729-1.15039 73.3537-1.15039 74.4669-1.15039 75.6977-1.52148 77.046-2.26367ZM70.153-6.18799 75.3205-6.18799 75.3205-6.43775C75.3204-7.21463 75.138-7.85279 74.7731-8.35222 74.3649-8.91949 73.7866-9.20312 73.0382-9.20312 71.5291-9.20312 70.5674-8.19808 70.153-6.18799ZM80.4736 0 80.4736-10.3628 82.1992-10.3628 82.1992-8.09912C83.2692-9.79997 84.6608-10.6504 86.374-10.6504 86.9987-10.6504 87.6234-10.5545 88.2481-10.3628L88.2481-6.62402 86.5874-6.62402 86.5874-8.98975C86.2967-9.03922 86.0679-9.06396 85.9009-9.06396 84.6082-9.06396 83.3744-8.04964 82.1992-6.021L82.1992 0ZM94.5887-1.44727 94.5887-12.5522C93.5373-11.7173 92.3622-11.0679 91.0633-10.604L91.0633-12.1626C92.4178-12.7378 93.593-13.4831 94.5887-14.3984L96.3143-14.3984 96.3143-1.44727 99.7748-1.44727 99.7748 0 91.0633 0 91.0633-1.44727Z" fill="#FFFFFF" transform="matrix(1 0 0 1.0006 16.558 30)"/></g></g></g><path d="M901.5 50.6972C901.5 44.5262 906.5 39.5236 912.667 39.5236L1027.33 39.5236C1033.5 39.5236 1038.5 44.5262 1038.5 50.6972L1038.5 95.39C1038.5 101.561 1033.5 106.564 1027.33 106.564L912.667 106.564C906.5 106.564 901.5 101.561 901.5 95.39Z" stroke="#98B954" stroke-width="0.999842" stroke-linejoin="round" stroke-miterlimit="10" fill="url(#fill32)" fill-rule="evenodd"/><text fill="#FFFFFF" font-family="Monaco,Monaco_MSFontService,sans-serif" font-weight="400" font-size="19" transform="matrix(1 0 0 1.0006 919.558 79)">consumer1</text><g clip-path="url(#clip33)"><g clip-path="url(#clip34)" filter="url(#fx4)" transform="translate(570 82)"><g clip-path="url(#clip35)"><path d="M16.3731 85.6995C21.8259 85.6995 26.2462 68.0077 26.2462 46.1838 26.2462 24.3599 21.8259 6.66811 16.3731 6.66811L202.627 6.66811C208.08 6.66811 212.5 24.3599 212.5 46.1838 212.5 68.0077 208.08 85.6995 202.627 85.6995Z" fill="#FF0000" fill-rule="evenodd"/><path d="M16.3731 85.6995C10.9204 85.6995 6.50006 68.0077 6.50006 46.1838 6.50006 24.3599 10.9204 6.66811 16.3731 6.66811 21.8259 6.66811 26.2462 24.3599 26.2462 46.1838 26.2462 68.0077 21.8259 85.6995 16.3731 85.6995Z" fill="#FF0000" fill-rule="evenodd"/><path d="M16.3731 6.66811C21.8259 6.66811 26.2462 24.3599 26.2462 46.1838 26.2462 68.0077 21.8259 85.6995 16.3731 85.6995 10.9204 85.6995 6.50006 68.0077 6.50006 46.1838 6.50006 24.3599 10.9204 6.66811 16.3731 6.66811L202.627 6.66811C208.08 6.66811 212.5 24.3599 212.5 46.1838 212.5 68.0077 208.08 85.6995 202.627 85.6995L16.3731 85.6995" stroke="#BE4B48" stroke-width="1.0006" stroke-linejoin="round" stroke-miterlimit="10" fill="none" fill-rule="evenodd"/></g></g><g clip-path="url(#clip36)" filter="url(#fx5)" transform="translate(633 105)"><g clip-path="url(#clip37)"><path d="M8.36816-2.32861C7.92904-1.61117 7.37549-1.01123 6.70752-0.528809 5.95296 0.0154622 5.19531 0.287598 4.43457 0.287598 3.3151 0.287598 2.44922-0.210286 1.83691-1.20605 1.32357-2.04102 1.06689-3.05225 1.06689-4.23975 1.06689-6.67041 1.90804-8.48877 3.59033-9.69482 4.35726-10.2391 5.30664-10.5112 6.43848-10.5112 6.78483-10.5112 7.27962-10.4772 7.92285-10.4092 8.00325-10.403 8.15169-10.3875 8.36816-10.3628L10.103-10.3628 10.103 4.02637 8.36816 4.02637ZM8.36816-4.37891 8.36816-8.82275C7.75586-8.98356 7.18685-9.06396 6.66113-9.06396 5.46126-9.06396 4.52116-8.58463 3.84082-7.62598 3.24089-6.77246 2.94092-5.72103 2.94092-4.47168 2.94092-3.72331 3.0708-3.06152 3.33057-2.48633 3.67074-1.73796 4.1748-1.36377 4.84277-1.36377 5.49219-1.36377 6.1849-1.72559 6.9209-2.44922 7.47135-2.99349 7.95378-3.63672 8.36816-4.37891ZM21.138-10.3628 21.138 0 19.4125 0 19.4125-2.27295C18.2992-0.565918 17.0003 0.287598 15.516 0.287598 14.9222 0.287598 14.378 0.132975 13.8832-0.17627 13.3636-0.504069 13.0018-0.940104 12.7977-1.48438 12.5998-2.01009 12.5008-3.03988 12.5008-4.57373L12.5008-10.3628 14.2264-10.3628 14.2264-4.36035C14.2264-3.57487 14.2419-3.08317 14.2728-2.88525 14.3532-2.29769 14.5635-1.87093 14.9037-1.60498 15.1572-1.40088 15.4325-1.29883 15.7294-1.29883 16.4282-1.29883 17.1519-1.64827 17.9003-2.34717 18.5187-2.91618 19.0228-3.57487 19.4125-4.32324L19.4125-10.3628ZM32.3864-0.686523C31.0072-0.0309245 29.7022 0.296875 28.4714 0.296875 26.5417 0.296875 25.1192-0.599935 24.2038-2.39355 23.7585-3.25326 23.5359-4.1748 23.5359-5.1582 23.5359-6.10449 23.74-7.0013 24.1482-7.84863 24.5749-8.73926 25.1671-9.42887 25.9248-9.91748 26.6824-10.4061 27.5251-10.6504 28.4528-10.6504 29.9001-10.6504 30.9732-10.0907 31.6721-8.97119 32.2473-8.04964 32.5349-6.81575 32.5349-5.26953L32.5349-4.89844 25.3913-4.89844C25.3913-4.23047 25.5243-3.60889 25.7902-3.03369 26.0809-2.39665 26.4922-1.91732 27.0241-1.5957 27.5127-1.29883 28.0694-1.15039 28.6941-1.15039 29.8073-1.15039 31.0381-1.52148 32.3864-2.26367ZM25.4934-6.18799 30.6609-6.18799 30.6609-6.43775C30.6609-7.21463 30.4784-7.85279 30.1135-8.35222 29.7053-8.91949 29.127-9.20312 28.3786-9.20312 26.8695-9.20312 25.9078-8.19808 25.4934-6.18799ZM43.4678-10.3628 43.4678 0 41.7423 0 41.7423-2.27295C40.629-0.565918 39.3301 0.287598 37.8458 0.287598 37.252 0.287598 36.7077 0.132975 36.213-0.17627 35.6934-0.504069 35.3316-0.940104 35.1275-1.48438 34.9296-2.01009 34.8306-3.03988 34.8306-4.57373L34.8306-10.3628 36.5562-10.3628 36.5562-4.36035C36.5562-3.57487 36.5717-3.08317 36.6026-2.88525 36.683-2.29769 36.8933-1.87093 37.2335-1.60498 37.487-1.40088 37.7623-1.29883 38.0592-1.29883 38.758-1.29883 39.4817-1.64827 40.23-2.34717 40.8485-2.91618 41.3526-3.57487 41.7423-4.32324L41.7423-10.3628ZM54.7162-0.686523C53.337-0.0309245 52.032 0.296875 50.8012 0.296875 48.8715 0.296875 47.449-0.599935 46.5336-2.39355 46.0883-3.25326 45.8657-4.1748 45.8657-5.1582 45.8657-6.10449 46.0698-7.0013 46.478-7.84863 46.9047-8.73926 47.4969-9.42887 48.2546-9.91748 49.0122-10.4061 49.8549-10.6504 50.7826-10.6504 52.2299-10.6504 53.303-10.0907 54.0019-8.97119 54.5771-8.04964 54.8647-6.81575 54.8647-5.26953L54.8647-4.89844 47.7211-4.89844C47.7211-4.23047 47.8541-3.60889 48.12-3.03369 48.4107-2.39665 48.822-1.91732 49.3539-1.5957 49.8425-1.29883 50.3992-1.15039 51.0239-1.15039 52.1371-1.15039 53.3679-1.52148 54.7162-2.26367ZM47.8232-6.18799 52.9907-6.18799 52.9907-6.43775C52.9907-7.21463 52.8082-7.85279 52.4433-8.35222 52.0351-8.91949 51.4568-9.20312 50.7084-9.20312 49.1993-9.20312 48.2376-8.19808 47.8232-6.18799ZM61.094-1.44727 61.094-12.5522C60.0426-11.7173 58.8675-11.0679 57.5686-10.604L57.5686-12.1626C58.9231-12.7378 60.0983-13.4831 61.094-14.3984L62.8196-14.3984 62.8196-1.44727 66.2801-1.44727 66.2801 0 57.5686 0 57.5686-1.44727Z" transform="matrix(1 -2.45222e-16 2.44783e-16 1.0006 17.2212 30)"/></g></g></g><path d="M586.373 165.599C591.826 165.599 596.246 147.907 596.246 126.083 596.246 104.259 591.826 86.5674 586.373 86.5674L772.627 86.5674C778.08 86.5674 782.5 104.259 782.5 126.083 782.5 147.907 778.08 165.599 772.627 165.599Z" fill="url(#fill38)" fill-rule="evenodd"/><path d="M586.373 165.599C580.92 165.599 576.5 147.907 576.5 126.083 576.5 104.259 580.92 86.5674 586.373 86.5674 591.826 86.5674 596.246 104.259 596.246 126.083 596.246 147.907 591.826 165.599 586.373 165.599Z" fill="url(#fill39)" fill-rule="evenodd"/><path d="M586.373 86.5674C591.826 86.5674 596.246 104.259 596.246 126.083 596.246 147.907 591.826 165.599 586.373 165.599 580.92 165.599 576.5 147.907 576.5 126.083 576.5 104.259 580.92 86.5674 586.373 86.5674L772.627 86.5674C778.08 86.5674 782.5 104.259 782.5 126.083 782.5 147.907 778.08 165.599 772.627 165.599L586.373 165.599" stroke="#BE4B48" stroke-width="1.00044" stroke-linejoin="round" stroke-miterlimit="10" fill="none" fill-rule="evenodd"/><text font-family="Monaco,Monaco_MSFontService,sans-serif" font-weight="400" font-size="19" transform="matrix(1 -2.45222e-16 2.44783e-16 1.0006 650.221 133)">queue1</text><g clip-path="url(#clip40)" filter="url(#fx6)" transform="translate(148 206)"><g clip-path="url(#clip41)"><path d="M1.21041e-06-1.5 122.584-1.4999 122.584 1.5001-1.21041e-06 1.5ZM121.084-4.4999 130.084 0.00010497 121.084 4.5001Z" fill="#4F81BD" transform="matrix(1 0 0 -1.0006 6.49995 13.7306)"/></g></g><path d="M1.07575e-06-1.33312 123.418-1.33302 123.418 1.33322-1.07575e-06 1.33312ZM122.085-3.99927 130.084 0.00010497 122.085 3.99947Z" fill="#4F81BD" transform="matrix(1 0 0 -1.0006 154.5 217.63)"/><g clip-path="url(#clip42)" filter="url(#fx7)" transform="translate(776 62)"><g clip-path="url(#clip43)"><path d="M0.609338-1.37066 113.238 48.6992 112.019 51.4405-0.609338 1.37066ZM113.086 45.3485 119.482 53.1165 109.43 53.5725Z" fill="#4F81BD" transform="matrix(1 0 0 -1.0006 6.5 66.7928)"/></g></g><path d="M0.541548-1.21817 113.932 49.1906 112.849 51.627-0.541548 1.21817ZM113.797 46.2127 119.482 53.1165 110.548 53.5218Z" fill="#4F81BD" transform="matrix(1 0 0 -1.0006 782.5 126.692)"/><g clip-path="url(#clip44)"><g clip-path="url(#clip45)" filter="url(#fx8)" transform="translate(895 144)"><g clip-path="url(#clip46)"><path d="M6.50006 17.1774C6.50006 11.0064 11.4997 6.00385 17.667 6.00385L132.333 6.00385C138.5 6.00385 143.5 11.0064 143.5 17.1774L143.5 61.8703C143.5 68.0413 138.5 73.0439 132.333 73.0439L17.667 73.0439C11.4997 73.0439 6.50006 68.0413 6.50006 61.8703Z" stroke="#98B954" stroke-linejoin="round" stroke-miterlimit="10" fill="#FF0000" fill-rule="evenodd"/></g></g><g clip-path="url(#clip47)" filter="url(#fx9)" transform="translate(903 161)"><g clip-path="url(#clip48)"><path d="M10.1587-0.296875C9.00212 0.0927734 7.9012 0.287598 6.85596 0.287598 5.86019 0.287598 4.95719 0.061849 4.14697-0.389648 3.3182-0.859701 2.66878-1.52458 2.19873-2.38428 1.74723-3.20068 1.52148-4.13151 1.52148-5.17676 1.52148-6.69824 2.01318-7.9847 2.99658-9.03613 3.99854-10.1123 5.25407-10.6504 6.76318-10.6504 7.83317-10.6504 8.96501-10.4494 10.1587-10.0474L10.1587-8.38672C8.95264-8.93099 7.87337-9.20312 6.9209-9.20312 5.46126-9.20312 4.43766-8.56067 3.8501-7.27576 3.54704-6.61475 3.39551-5.93518 3.39551-5.23706 3.39551-4.11276 3.71712-3.18614 4.36035-2.45719 5.02832-1.68495 5.91585-1.29883 7.02295-1.29883 7.8208-1.29883 8.86605-1.51839 10.1587-1.95752ZM16.8705 0.287598C15.349 0.287598 14.1367-0.253581 13.2337-1.33594 12.3926-2.35026 11.972-3.63363 11.972-5.18604 11.972-6.73844 12.3957-8.01872 13.243-9.02686 14.1398-10.1092 15.349-10.6504 16.8705-10.6504 18.3858-10.6504 19.5949-10.1092 20.4979-9.02686 21.3391-8.01253 21.7596-6.73226 21.7596-5.18604 21.7596-3.63981 21.3391-2.35645 20.4979-1.33594 19.5949-0.253581 18.3858 0.287598 16.8705 0.287598ZM16.8705-1.15967C17.9095-1.15967 18.695-1.5916 19.2269-2.45545 19.666-3.17126 19.8856-4.08145 19.8856-5.18604 19.8856-6.28443 19.6629-7.19154 19.2176-7.90734 18.6857-8.7712 17.9033-9.20312 16.8705-9.20312 15.8314-9.20312 15.0459-8.77424 14.514-7.91647 14.0687-7.20076 13.8461-6.29062 13.8461-5.18604 13.8461-4.08145 14.0687-3.17126 14.514-2.45545 15.0459-1.5916 15.8314-1.15967 16.8705-1.15967ZM23.7678 0 23.7678-10.3628 25.4934-10.3628 25.4934-8.09912C25.9449-8.82275 26.4891-9.41341 27.1262-9.87109 27.8622-10.3906 28.6137-10.6504 29.3806-10.6504 29.9805-10.6504 30.5325-10.4927 31.0366-10.1772 31.5407-9.86182 31.8947-9.4366 32.0988-8.90161 32.3029-8.36662 32.405-7.3291 32.405-5.78906L32.405 0 30.6794 0 30.6794-6.00244C30.6794-6.78792 30.6639-7.27962 30.633-7.47754 30.5526-8.0651 30.3454-8.49186 30.0114-8.75781 29.7517-8.96191 29.4703-9.06396 29.1672-9.06396 28.4745-9.06396 27.7509-8.71452 26.9963-8.01562 26.384-7.44661 25.883-6.78792 25.4934-6.03955L25.4934 0ZM35.0533-0.547363 35.0533-2.375C36.3088-1.56478 37.6973-1.15967 39.2188-1.15967 40.8578-1.15967 41.6773-1.65088 41.6773-2.63332 41.6773-3.01021 41.4918-3.32535 41.1207-3.57874 40.9475-3.69615 40.598-3.86295 40.0723-4.07913L39.4786-4.3202 38.2818-4.79291C37.2984-5.18217 36.6273-5.51891 36.2686-5.80312 35.6501-6.29125 35.3409-6.93076 35.3409-7.72165 35.3409-8.79057 35.7986-9.57219 36.7139-10.0665 37.4252-10.4558 38.3653-10.6504 39.5342-10.6504 40.6413-10.6504 41.6897-10.4896 42.6793-10.168L42.6793-8.6001C41.5412-9.00212 40.4713-9.20312 39.4693-9.20312 38.9127-9.20312 38.4241-9.11663 38.0035-8.94365 37.4283-8.70263 37.1407-8.34115 37.1407-7.85921 37.1407-7.44521 37.4283-7.08064 38.0035-6.7655 38.2076-6.65437 38.6745-6.46592 39.4044-6.20016L40.5733-5.77384C41.4825-5.44024 42.1474-5.09732 42.5679-4.74507 43.1741-4.23221 43.4771-3.58033 43.4771-2.78944 43.4771-1.67731 43.0071-0.858637 42.067-0.333405 41.3248 0.0805969 40.3476 0.287598 39.1353 0.287598 37.8118 0.287598 36.4511 0.00927733 35.0533-0.547363ZM54.6327-10.3628 54.6327 0 52.9072 0 52.9072-2.27295C51.7939-0.565918 50.495 0.287598 49.0107 0.287598 48.4169 0.287598 47.8727 0.132975 47.3779-0.17627 46.8583-0.504069 46.4965-0.940104 46.2924-1.48438 46.0945-2.01009 45.9955-3.03988 45.9955-4.57373L45.9955-10.3628 47.7211-10.3628 47.7211-4.36035C47.7211-3.57487 47.7366-3.08317 47.7675-2.88525 47.8479-2.29769 48.0582-1.87093 48.3984-1.60498 48.6519-1.40088 48.9272-1.29883 49.2241-1.29883 49.9229-1.29883 50.6466-1.64827 51.395-2.34717 52.0134-2.91618 52.5175-3.57487 52.9072-4.32324L52.9072-10.3628ZM56.4832 0 56.4832-10.3628 57.9954-10.3628 57.9954-7.98779C58.8384-9.76286 59.7-10.6504 60.5802-10.6504 61.1628-10.6504 61.5998-10.4061 61.8912-9.91748 62.1329-9.51546 62.2537-9.00521 62.2537-8.38672L62.2537-7.83008C62.6055-8.93099 63.1486-9.75667 63.883-10.3071 64.1916-10.536 64.5465-10.6504 64.9476-10.6504 66.0215-10.6504 66.5584-9.71029 66.5584-7.83008L66.5584 0 65.0462 0 65.0462-7.07861C65.0462-8.01253 64.9537-8.57227 64.7687-8.75781 64.6578-8.86914 64.5376-8.9248 64.4082-8.9248 63.6869-8.9248 62.9687-7.86409 62.2537-5.74268L62.2537 0 60.7972 0 60.7972-7.06934C60.7972-8.30631 60.5467-8.9248 60.0457-8.9248 59.4272-8.9248 58.7438-7.9445 57.9954-5.98389L57.9954 0ZM77.046-0.686523C75.6668-0.0309245 74.3618 0.296875 73.131 0.296875 71.2013 0.296875 69.7788-0.599935 68.8634-2.39355 68.4181-3.25326 68.1954-4.1748 68.1955-5.1582 68.1954-6.10449 68.3996-7.0013 68.8078-7.84863 69.2345-8.73926 69.8267-9.42887 70.5844-9.91748 71.342-10.4061 72.1847-10.6504 73.1124-10.6504 74.5597-10.6504 75.6328-10.0907 76.3317-8.97119 76.9069-8.04964 77.1945-6.81575 77.1945-5.26953L77.1945-4.89844 70.0509-4.89844C70.0509-4.23047 70.1839-3.60889 70.4499-3.03369 70.7405-2.39665 71.1518-1.91732 71.6837-1.5957 72.1723-1.29883 72.729-1.15039 73.3537-1.15039 74.4669-1.15039 75.6977-1.52148 77.046-2.26367ZM70.153-6.18799 75.3205-6.18799 75.3205-6.43775C75.3204-7.21463 75.138-7.85279 74.7731-8.35222 74.3649-8.91949 73.7866-9.20312 73.0382-9.20312 71.5291-9.20312 70.5674-8.19808 70.153-6.18799ZM80.4736 0 80.4736-10.3628 82.1992-10.3628 82.1992-8.09912C83.2692-9.79997 84.6608-10.6504 86.374-10.6504 86.9987-10.6504 87.6234-10.5545 88.2481-10.3628L88.2481-6.62402 86.5874-6.62402 86.5874-8.98975C86.2967-9.03922 86.0679-9.06396 85.9009-9.06396 84.6082-9.06396 83.3744-8.04964 82.1992-6.021L82.1992 0ZM99.413 0 90.7015 0 90.7015-1.58643C90.7015-2.51339 91.1041-3.47437 91.9093-4.46936 92.3924-5.06253 92.891-5.62178 93.405-6.14711L94.3851-7.1524C95.7703-8.56052 96.6453-9.60118 97.0101-10.2744 97.2204-10.6697 97.3255-11.0588 97.3256-11.4417 97.3255-12.0532 97.0689-12.538 96.5555-12.8962 96.0979-13.2174 95.5505-13.3779 94.9134-13.3779 94.1774-13.3779 93.4012-13.2461 92.5848-12.9825 92.257-12.8721 91.7251-12.6514 90.9891-12.3203L90.9891-13.8511C92.356-14.5005 93.7816-14.8252 95.266-14.8252 96.9792-14.8252 98.1358-14.3242 98.7357-13.3223 99.0388-12.8089 99.1903-12.2616 99.1903-11.6802 99.1903-10.87 98.8718-10.0195 98.2347-9.12891 97.8698-8.61556 97.2513-7.92594 96.3793-7.06006L94.431-5.13965C93.8991-4.62012 93.4445-4.06966 93.0673-3.48828 92.7209-2.95638 92.5292-2.32243 92.4921-1.58643L99.413-1.58643Z" fill="#FFFFFF" transform="matrix(1 0 0 1.0006 16.558 29)"/></g></g></g><path d="M901.5 158.762C901.5 152.591 906.5 147.588 912.667 147.588L1027.33 147.588C1033.5 147.588 1038.5 152.591 1038.5 158.762L1038.5 203.455C1038.5 209.626 1033.5 214.628 1027.33 214.628L912.667 214.628C906.5 214.628 901.5 209.626 901.5 203.455Z" stroke="#98B954" stroke-width="0.999842" stroke-linejoin="round" stroke-miterlimit="10" fill="url(#fill49)" fill-rule="evenodd"/><text fill="#FFFFFF" font-family="Monaco,Monaco_MSFontService,sans-serif" font-weight="400" font-size="19" transform="matrix(1 0 0 1.0006 919.558 188)">consumer2</text><g clip-path="url(#clip50)" filter="url(#fx10)" transform="translate(776 121)"><g clip-path="url(#clip51)"><path d="M7.12899 6.31361 119.802 58.3878 118.544 61.1129 5.87101 9.03874ZM119.698 55.0333 125.982 62.8971 115.924 63.2087Z" fill="#4F81BD"/></g></g><path d="M783.059 125.365 896.489 177.789 895.371 180.211 781.941 127.786ZM896.397 174.807 901.982 181.796 893.043 182.073Z" fill="#4F81BD"/><g clip-path="url(#clip52)"><g clip-path="url(#clip53)" filter="url(#fx11)" transform="translate(278 184)"><g clip-path="url(#clip54)"><path d="M6.49997 16.3857C6.49997 11.0438 42.0933 6.71326 86 6.71326 129.907 6.71326 165.5 11.0438 165.5 16.3857L165.5 55.0754C165.5 60.4174 129.907 64.7478 86 64.7478 42.0933 64.7478 6.49997 60.4174 6.49997 55.0754Z" fill="#FF0000" fill-rule="evenodd"/><path d="M165.5 16.3857C165.5 21.7276 129.907 26.0581 86 26.0581 42.0933 26.0581 6.49997 21.7276 6.49997 16.3857" stroke="#7D60A0" stroke-linejoin="round" stroke-miterlimit="10" fill="none" fill-rule="evenodd"/><path d="M6.49997 16.3857C6.49997 11.0438 42.0933 6.71326 86 6.71326 129.907 6.71326 165.5 11.0438 165.5 16.3857L165.5 55.0754C165.5 60.4174 129.907 64.7478 86 64.7478 42.0933 64.7478 6.49997 60.4174 6.49997 55.0754Z" stroke="#7D60A0" stroke-linejoin="round" stroke-miterlimit="10" fill="none" fill-rule="evenodd"/></g></g><g clip-path="url(#clip55)" filter="url(#fx12)" transform="translate(302 202)"><g clip-path="url(#clip56)"><path d="M10.0566-0.686523C8.67741-0.0309245 7.3724 0.296875 6.1416 0.296875 4.21191 0.296875 2.78939-0.599935 1.87402-2.39355 1.42871-3.25326 1.20605-4.1748 1.20605-5.1582 1.20605-6.10449 1.41016-7.0013 1.81836-7.84863 2.24512-8.73926 2.83732-9.42887 3.59497-9.91748 4.35262-10.4061 5.19531-10.6504 6.12305-10.6504 7.57031-10.6504 8.64339-10.0907 9.34229-8.97119 9.91748-8.04964 10.2051-6.81575 10.2051-5.26953L10.2051-4.89844 3.06152-4.89844C3.06152-4.23047 3.1945-3.60889 3.46045-3.03369 3.75114-2.39665 4.16243-1.91732 4.69434-1.5957 5.18294-1.29883 5.73958-1.15039 6.36426-1.15039 7.47754-1.15039 8.70833-1.52148 10.0566-2.26367ZM3.16357-6.18799 8.33105-6.18799 8.33105-6.43775C8.33105-7.21463 8.1486-7.85279 7.78369-8.35222 7.37549-8.91949 6.7972-9.20312 6.04883-9.20312 4.53971-9.20312 3.57796-8.19808 3.16357-6.18799ZM13.6702 0 11.6844 0 15.7596-5.42797 11.9539-10.3628 14.1615-10.3628 16.8642-6.87944 19.4868-10.3628 21.4377-10.3628 17.8401-5.60004 22.1214 0 19.9011 0 16.7383-4.13668ZM32.4885-0.296875C31.3319 0.0927734 30.231 0.287598 29.1858 0.287598 28.19 0.287598 27.287 0.061849 26.4768-0.389648 25.648-0.859701 24.9986-1.52458 24.5285-2.38428 24.077-3.20068 23.8513-4.13151 23.8513-5.17676 23.8513-6.69824 24.343-7.9847 25.3264-9.03613 26.3283-10.1123 27.5839-10.6504 29.093-10.6504 30.163-10.6504 31.2948-10.4494 32.4885-10.0474L32.4885-8.38672C31.2824-8.93099 30.2032-9.20312 29.2507-9.20312 27.7911-9.20312 26.7675-8.56067 26.1799-7.27576 25.8768-6.61475 25.7253-5.93518 25.7253-5.23706 25.7253-4.11276 26.0469-3.18614 26.6902-2.45719 27.3581-1.68495 28.2457-1.29883 29.3527-1.29883 30.1506-1.29883 31.1958-1.51839 32.4885-1.95752ZM34.9327 0 34.9327-14.9736 36.6583-14.9736 36.6583-8.09912C37.1098-8.82275 37.654-9.41341 38.2911-9.87109 39.0271-10.3906 39.7785-10.6504 40.5455-10.6504 41.0897-10.6504 41.6-10.5174 42.0762-10.2515 42.5896-9.96077 42.9545-9.5804 43.171-9.11035 43.3751-8.66504 43.5019-8.12077 43.5513-7.47754 43.5637-7.26725 43.5699-6.70443 43.5699-5.78906L43.5699 0 41.8443 0 41.8443-6.00244C41.8443-6.78792 41.8288-7.27962 41.7979-7.47754 41.7175-8.0651 41.5103-8.49186 41.1763-8.75781 40.9166-8.96191 40.6352-9.06396 40.3321-9.06396 39.6394-9.06396 38.9158-8.71452 38.1612-8.01562 37.5489-7.44661 37.0479-6.78792 36.6583-6.03955L36.6583 0ZM52.9164-2.32861C52.4773-1.61117 51.9238-1.01123 51.2558-0.528809 50.5012 0.0154622 49.7436 0.287598 48.9828 0.287598 47.8634 0.287598 46.9975-0.210286 46.3852-1.20605 45.8718-2.04102 45.6152-3.05225 45.6152-4.23975 45.6152-6.67041 46.4563-8.48877 48.1386-9.69482 48.9055-10.2391 49.8549-10.5112 50.9867-10.5112 51.3331-10.5112 51.8279-10.4772 52.4711-10.4092 52.5515-10.403 52.7-10.3875 52.9164-10.3628L54.6513-10.3628 54.6513-3.04297C54.6513-1.79362 54.7812-0.779297 55.0409 0L53.2411 0C53.1051-0.56901 52.9968-1.34521 52.9164-2.32861ZM52.9164-4.37891 52.9164-8.82275C52.3041-8.98356 51.7351-9.06396 51.2094-9.06396 50.0095-9.06396 49.0694-8.58463 48.3891-7.62598 47.7892-6.77246 47.4892-5.72103 47.4892-4.47168 47.4892-3.72331 47.6191-3.06152 47.8788-2.48633 48.219-1.73796 48.7231-1.36377 49.391-1.36377 50.0405-1.36377 50.7332-1.72559 51.4692-2.44922 52.0196-2.99349 52.502-3.63672 52.9164-4.37891ZM57.2625 0 57.2625-10.3628 58.9881-10.3628 58.9881-8.09912C59.4396-8.82275 59.9838-9.41341 60.6209-9.87109 61.3569-10.3906 62.1084-10.6504 62.8753-10.6504 63.4752-10.6504 64.0272-10.4927 64.5313-10.1772 65.0354-9.86182 65.3894-9.4366 65.5935-8.90161 65.7976-8.36662 65.8997-7.3291 65.8997-5.78906L65.8997 0 64.1741 0 64.1741-6.00244C64.1741-6.78792 64.1586-7.27962 64.1277-7.47754 64.0473-8.0651 63.8401-8.49186 63.5061-8.75781 63.2464-8.96191 62.965-9.06396 62.6619-9.06396 61.9692-9.06396 61.2456-8.71452 60.491-8.01562 59.8787-7.44661 59.3777-6.78792 58.9881-6.03955L58.9881 0ZM75.3576-2.32861C74.9184-1.61117 74.3649-1.01123 73.6969-0.528809 72.9424 0.0154622 72.1847 0.287598 71.424 0.287598 70.3045 0.287598 69.4386-0.210286 68.8263-1.20605 68.313-2.04102 68.0563-3.05225 68.0563-4.23975 68.0563-6.67041 68.8974-8.48877 70.5797-9.69482 71.3467-10.2391 72.296-10.5112 73.4279-10.5112 73.7742-10.5112 74.269-10.4772 74.9123-10.4092 74.9927-10.403 75.1411-10.3875 75.3576-10.3628L77.0924-10.3628 77.0924-3.03369C77.0924-1.6792 77.0893-0.946289 77.0832-0.834961 77.0522-2.98023e-08 76.9564 0.723633 76.7956 1.33594 76.5296 2.34408 75.8957 3.111 74.8937 3.63672 74.0402 4.08822 73.0444 4.31396 71.9064 4.31396 70.6509 4.31396 69.3799 3.99235 68.0934 3.34912L68.0934 1.60498C69.3304 2.44613 70.623 2.8667 71.9713 2.8667 73.1279 2.8667 74.0062 2.54257 74.6061 1.89432 75.1071 1.35101 75.3576 0.431107 75.3576-0.865402ZM75.3576-4.37891 75.3576-8.82275C74.7453-8.98356 74.1763-9.06396 73.6505-9.06396 72.4507-9.06396 71.5106-8.58463 70.8302-7.62598 70.2303-6.77246 69.9303-5.72103 69.9303-4.47168 69.9303-3.72331 70.0602-3.06152 70.32-2.48633 70.6601-1.73796 71.1642-1.36377 71.8322-1.36377 72.4816-1.36377 73.1743-1.72559 73.9103-2.44922 74.4608-2.99349 74.9432-3.63672 75.3576-4.37891ZM88.2109-0.686523C86.8317-0.0309245 85.5267 0.296875 84.2959 0.296875 82.3662 0.296875 80.9437-0.599935 80.0283-2.39355 79.583-3.25326 79.3604-4.1748 79.3604-5.1582 79.3604-6.10449 79.5645-7.0013 79.9727-7.84863 80.3994-8.73926 80.9916-9.42887 81.7493-9.91748 82.5069-10.4061 83.3496-10.6504 84.2774-10.6504 85.7246-10.6504 86.7977-10.0907 87.4966-8.97119 88.0718-8.04964 88.3594-6.81575 88.3594-5.26953L88.3594-4.89844 81.2158-4.89844C81.2158-4.23047 81.3488-3.60889 81.6148-3.03369 81.9054-2.39665 82.3167-1.91732 82.8486-1.5957 83.3372-1.29883 83.8939-1.15039 84.5186-1.15039 85.6318-1.15039 86.8626-1.52148 88.2109-2.26367ZM81.3179-6.18799 86.4854-6.18799 86.4854-6.43775C86.4854-7.21463 86.3029-7.85279 85.938-8.35222 85.5298-8.91949 84.9515-9.20312 84.2031-9.20312 82.694-9.20312 81.7323-8.19808 81.3179-6.18799Z" transform="matrix(1 0 0 1.0006 16.8841 29)"/></g></g></g><path d="M284.5 198.285C284.5 192.943 320.093 188.613 364 188.613 407.907 188.613 443.5 192.943 443.5 198.285L443.5 236.975C443.5 242.317 407.907 246.647 364 246.647 320.093 246.647 284.5 242.317 284.5 236.975Z" fill="url(#fill57)" fill-rule="evenodd"/><path d="M443.5 198.285C443.5 203.627 407.907 207.957 364 207.957 320.093 207.957 284.5 203.627 284.5 198.285" stroke="#7D60A0" stroke-width="0.999842" stroke-linejoin="round" stroke-miterlimit="10" fill="none" fill-rule="evenodd"/><path d="M284.5 198.285C284.5 192.943 320.093 188.613 364 188.613 407.907 188.613 443.5 192.943 443.5 198.285L443.5 236.975C443.5 242.317 407.907 246.647 364 246.647 320.093 246.647 284.5 242.317 284.5 236.975Z" stroke="#7D60A0" stroke-width="0.999842" stroke-linejoin="round" stroke-miterlimit="10" fill="none" fill-rule="evenodd"/><text font-family="Monaco,Monaco_MSFontService,sans-serif" font-weight="400" font-size="19" transform="matrix(1 0 0 1.0006 318.884 229)">exchange</text><g clip-path="url(#clip58)"><g clip-path="url(#clip59)" filter="url(#fx13)" transform="translate(895 269)"><g clip-path="url(#clip60)"><path d="M6.50006 17.252C6.50006 11.081 11.4997 6.07843 17.667 6.07843L132.333 6.07843C138.5 6.07843 143.5 11.081 143.5 17.252L143.5 61.9449C143.5 68.1159 138.5 73.1184 132.333 73.1184L17.667 73.1184C11.4997 73.1184 6.50006 68.1159 6.50006 61.9449Z" stroke="#98B954" stroke-linejoin="round" stroke-miterlimit="10" fill="#FF0000" fill-rule="evenodd"/></g></g><g clip-path="url(#clip61)" filter="url(#fx14)" transform="translate(903 286)"><g clip-path="url(#clip62)"><path d="M10.1587-0.296875C9.00212 0.0927734 7.9012 0.287598 6.85596 0.287598 5.86019 0.287598 4.95719 0.061849 4.14697-0.389648 3.3182-0.859701 2.66878-1.52458 2.19873-2.38428 1.74723-3.20068 1.52148-4.13151 1.52148-5.17676 1.52148-6.69824 2.01318-7.9847 2.99658-9.03613 3.99854-10.1123 5.25407-10.6504 6.76318-10.6504 7.83317-10.6504 8.96501-10.4494 10.1587-10.0474L10.1587-8.38672C8.95264-8.93099 7.87337-9.20312 6.9209-9.20312 5.46126-9.20312 4.43766-8.56067 3.8501-7.27576 3.54704-6.61475 3.39551-5.93518 3.39551-5.23706 3.39551-4.11276 3.71712-3.18614 4.36035-2.45719 5.02832-1.68495 5.91585-1.29883 7.02295-1.29883 7.8208-1.29883 8.86605-1.51839 10.1587-1.95752ZM16.8705 0.287598C15.349 0.287598 14.1367-0.253581 13.2337-1.33594 12.3926-2.35026 11.972-3.63363 11.972-5.18604 11.972-6.73844 12.3957-8.01872 13.243-9.02686 14.1398-10.1092 15.349-10.6504 16.8705-10.6504 18.3858-10.6504 19.5949-10.1092 20.4979-9.02686 21.3391-8.01253 21.7596-6.73226 21.7596-5.18604 21.7596-3.63981 21.3391-2.35645 20.4979-1.33594 19.5949-0.253581 18.3858 0.287598 16.8705 0.287598ZM16.8705-1.15967C17.9095-1.15967 18.695-1.5916 19.2269-2.45545 19.666-3.17126 19.8856-4.08145 19.8856-5.18604 19.8856-6.28443 19.6629-7.19154 19.2176-7.90734 18.6857-8.7712 17.9033-9.20312 16.8705-9.20312 15.8314-9.20312 15.0459-8.77424 14.514-7.91647 14.0687-7.20076 13.8461-6.29062 13.8461-5.18604 13.8461-4.08145 14.0687-3.17126 14.514-2.45545 15.0459-1.5916 15.8314-1.15967 16.8705-1.15967ZM23.7678 0 23.7678-10.3628 25.4934-10.3628 25.4934-8.09912C25.9449-8.82275 26.4891-9.41341 27.1262-9.87109 27.8622-10.3906 28.6137-10.6504 29.3806-10.6504 29.9805-10.6504 30.5325-10.4927 31.0366-10.1772 31.5407-9.86182 31.8947-9.4366 32.0988-8.90161 32.3029-8.36662 32.405-7.3291 32.405-5.78906L32.405 0 30.6794 0 30.6794-6.00244C30.6794-6.78792 30.6639-7.27962 30.633-7.47754 30.5526-8.0651 30.3454-8.49186 30.0114-8.75781 29.7517-8.96191 29.4703-9.06396 29.1672-9.06396 28.4745-9.06396 27.7509-8.71452 26.9963-8.01562 26.384-7.44661 25.883-6.78792 25.4934-6.03955L25.4934 0ZM35.0533-0.547363 35.0533-2.375C36.3088-1.56478 37.6973-1.15967 39.2188-1.15967 40.8578-1.15967 41.6773-1.65088 41.6773-2.63332 41.6773-3.01021 41.4918-3.32535 41.1207-3.57874 40.9475-3.69615 40.598-3.86295 40.0723-4.07913L39.4786-4.3202 38.2818-4.79291C37.2984-5.18217 36.6273-5.51891 36.2686-5.80312 35.6501-6.29125 35.3409-6.93076 35.3409-7.72165 35.3409-8.79057 35.7986-9.57219 36.7139-10.0665 37.4252-10.4558 38.3653-10.6504 39.5342-10.6504 40.6413-10.6504 41.6897-10.4896 42.6793-10.168L42.6793-8.6001C41.5412-9.00212 40.4713-9.20312 39.4693-9.20312 38.9127-9.20312 38.4241-9.11663 38.0035-8.94365 37.4283-8.70263 37.1407-8.34115 37.1407-7.85921 37.1407-7.44521 37.4283-7.08064 38.0035-6.7655 38.2076-6.65437 38.6745-6.46592 39.4044-6.20016L40.5733-5.77384C41.4825-5.44024 42.1474-5.09732 42.5679-4.74507 43.1741-4.23221 43.4771-3.58033 43.4771-2.78944 43.4771-1.67731 43.0071-0.858637 42.067-0.333405 41.3248 0.0805969 40.3476 0.287598 39.1353 0.287598 37.8118 0.287598 36.4511 0.00927733 35.0533-0.547363ZM54.6327-10.3628 54.6327 0 52.9072 0 52.9072-2.27295C51.7939-0.565918 50.495 0.287598 49.0107 0.287598 48.4169 0.287598 47.8727 0.132975 47.3779-0.17627 46.8583-0.504069 46.4965-0.940104 46.2924-1.48438 46.0945-2.01009 45.9955-3.03988 45.9955-4.57373L45.9955-10.3628 47.7211-10.3628 47.7211-4.36035C47.7211-3.57487 47.7366-3.08317 47.7675-2.88525 47.8479-2.29769 48.0582-1.87093 48.3984-1.60498 48.6519-1.40088 48.9272-1.29883 49.2241-1.29883 49.9229-1.29883 50.6466-1.64827 51.395-2.34717 52.0134-2.91618 52.5175-3.57487 52.9072-4.32324L52.9072-10.3628ZM56.4832 0 56.4832-10.3628 57.9954-10.3628 57.9954-7.98779C58.8384-9.76286 59.7-10.6504 60.5802-10.6504 61.1628-10.6504 61.5998-10.4061 61.8912-9.91748 62.1329-9.51546 62.2537-9.00521 62.2537-8.38672L62.2537-7.83008C62.6055-8.93099 63.1486-9.75667 63.883-10.3071 64.1916-10.536 64.5465-10.6504 64.9476-10.6504 66.0215-10.6504 66.5584-9.71029 66.5584-7.83008L66.5584 0 65.0462 0 65.0462-7.07861C65.0462-8.01253 64.9537-8.57227 64.7687-8.75781 64.6578-8.86914 64.5376-8.9248 64.4082-8.9248 63.6869-8.9248 62.9687-7.86409 62.2537-5.74268L62.2537 0 60.7972 0 60.7972-7.06934C60.7972-8.30631 60.5467-8.9248 60.0457-8.9248 59.4272-8.9248 58.7438-7.9445 57.9954-5.98389L57.9954 0ZM77.046-0.686523C75.6668-0.0309245 74.3618 0.296875 73.131 0.296875 71.2013 0.296875 69.7788-0.599935 68.8634-2.39355 68.4181-3.25326 68.1954-4.1748 68.1955-5.1582 68.1954-6.10449 68.3996-7.0013 68.8078-7.84863 69.2345-8.73926 69.8267-9.42887 70.5844-9.91748 71.342-10.4061 72.1847-10.6504 73.1124-10.6504 74.5597-10.6504 75.6328-10.0907 76.3317-8.97119 76.9069-8.04964 77.1945-6.81575 77.1945-5.26953L77.1945-4.89844 70.0509-4.89844C70.0509-4.23047 70.1839-3.60889 70.4499-3.03369 70.7405-2.39665 71.1518-1.91732 71.6837-1.5957 72.1723-1.29883 72.729-1.15039 73.3537-1.15039 74.4669-1.15039 75.6977-1.52148 77.046-2.26367ZM70.153-6.18799 75.3205-6.18799 75.3205-6.43775C75.3204-7.21463 75.138-7.85279 74.7731-8.35222 74.3649-8.91949 73.7866-9.20312 73.0382-9.20312 71.5291-9.20312 70.5674-8.19808 70.153-6.18799ZM80.4736 0 80.4736-10.3628 82.1992-10.3628 82.1992-8.09912C83.2692-9.79997 84.6608-10.6504 86.374-10.6504 86.9987-10.6504 87.6234-10.5545 88.2481-10.3628L88.2481-6.62402 86.5874-6.62402 86.5874-8.98975C86.2967-9.03922 86.0679-9.06396 85.9009-9.06396 84.6082-9.06396 83.3744-8.04964 82.1992-6.021L82.1992 0ZM90.6644-0.259766 90.6644-2.07812C92.0808-1.36686 93.3085-1.01123 94.3475-1.01123 95.2876-1.01123 96.0669-1.28873 96.6854-1.84373 97.3225-2.42337 97.641-3.17565 97.641-4.10059 97.641-6.16016 96.1381-7.18994 93.1322-7.18994L92.1766-7.18994 92.1766-8.63721 93.5033-8.63721C94.4372-8.63721 95.2134-8.83474 95.8319-9.2298 96.5617-9.69279 96.9266-10.3656 96.9266-11.2483 96.9266-11.9705 96.6514-12.5199 96.1009-12.8965 95.6247-13.2175 95.0062-13.3779 94.2455-13.3779 93.225-13.3779 92.1272-13.0934 90.952-12.5244L90.952-14.1665C92.1272-14.6056 93.2033-14.8252 94.1805-14.8252 95.4979-14.8252 96.5493-14.5933 97.3348-14.1294 98.312-13.5542 98.8006-12.6543 98.8007-11.4297 98.8006-9.95768 97.975-8.82894 96.3236-8.04346 97.7709-7.6167 98.7264-6.88997 99.1903-5.86328 99.4068-5.37467 99.515-4.82731 99.515-4.22119 99.515-2.77393 98.9707-1.62044 97.8822-0.760742 96.8741 0.0371093 95.6278 0.436035 94.1434 0.436035 92.925 0.436035 91.7653 0.204102 90.6644-0.259766Z" fill="#FFFFFF" transform="matrix(1 0 0 1.0006 16.558 29)"/></g></g></g><path d="M901.5 283.836C901.5 277.665 906.5 272.663 912.667 272.663L1027.33 272.663C1033.5 272.663 1038.5 277.665 1038.5 283.836L1038.5 328.529C1038.5 334.7 1033.5 339.703 1027.33 339.703L912.667 339.703C906.5 339.703 901.5 334.7 901.5 328.529Z" stroke="#98B954" stroke-width="0.999842" stroke-linejoin="round" stroke-miterlimit="10" fill="url(#fill63)" fill-rule="evenodd"/><text fill="#FFFFFF" font-family="Monaco,Monaco_MSFontService,sans-serif" font-weight="400" font-size="19" transform="matrix(1 0 0 1.0006 919.558 313)">consumer3</text><g clip-path="url(#clip64)"><g clip-path="url(#clip65)" filter="url(#fx15)" transform="translate(570 260)"><g clip-path="url(#clip66)"><path d="M16.3731 85.8057C21.8259 85.8057 26.2462 68.1139 26.2462 46.29 26.2462 24.4661 21.8259 6.77434 16.3731 6.77434L202.627 6.77434C208.08 6.77434 212.5 24.4661 212.5 46.29 212.5 68.1139 208.08 85.8057 202.627 85.8057Z" fill="#FF0000" fill-rule="evenodd"/><path d="M16.3731 85.8057C10.9204 85.8057 6.50006 68.1139 6.50006 46.29 6.50006 24.4661 10.9204 6.77434 16.3731 6.77434 21.8259 6.77434 26.2462 24.4661 26.2462 46.29 26.2462 68.1139 21.8259 85.8057 16.3731 85.8057Z" fill="#FF0000" fill-rule="evenodd"/><path d="M16.3731 6.77434C21.8259 6.77434 26.2462 24.4661 26.2462 46.29 26.2462 68.1139 21.8259 85.8057 16.3731 85.8057 10.9204 85.8057 6.50006 68.1139 6.50006 46.29 6.50006 24.4661 10.9204 6.77434 16.3731 6.77434L202.627 6.77434C208.08 6.77434 212.5 24.4661 212.5 46.29 212.5 68.1139 208.08 85.8057 202.627 85.8057L16.3731 85.8057" stroke="#BE4B48" stroke-width="1.0006" stroke-linejoin="round" stroke-miterlimit="10" fill="none" fill-rule="evenodd"/></g></g><g clip-path="url(#clip67)" filter="url(#fx16)" transform="translate(633 283)"><g clip-path="url(#clip68)"><path d="M8.36816-2.32861C7.92904-1.61117 7.37549-1.01123 6.70752-0.528809 5.95296 0.0154622 5.19531 0.287598 4.43457 0.287598 3.3151 0.287598 2.44922-0.210286 1.83691-1.20605 1.32357-2.04102 1.06689-3.05225 1.06689-4.23975 1.06689-6.67041 1.90804-8.48877 3.59033-9.69482 4.35726-10.2391 5.30664-10.5112 6.43848-10.5112 6.78483-10.5112 7.27962-10.4772 7.92285-10.4092 8.00325-10.403 8.15169-10.3875 8.36816-10.3628L10.103-10.3628 10.103 4.02637 8.36816 4.02637ZM8.36816-4.37891 8.36816-8.82275C7.75586-8.98356 7.18685-9.06396 6.66113-9.06396 5.46126-9.06396 4.52116-8.58463 3.84082-7.62598 3.24089-6.77246 2.94092-5.72103 2.94092-4.47168 2.94092-3.72331 3.0708-3.06152 3.33057-2.48633 3.67074-1.73796 4.1748-1.36377 4.84277-1.36377 5.49219-1.36377 6.1849-1.72559 6.9209-2.44922 7.47135-2.99349 7.95378-3.63672 8.36816-4.37891ZM21.138-10.3628 21.138 0 19.4125 0 19.4125-2.27295C18.2992-0.565918 17.0003 0.287598 15.516 0.287598 14.9222 0.287598 14.378 0.132975 13.8832-0.17627 13.3636-0.504069 13.0018-0.940104 12.7977-1.48438 12.5998-2.01009 12.5008-3.03988 12.5008-4.57373L12.5008-10.3628 14.2264-10.3628 14.2264-4.36035C14.2264-3.57487 14.2419-3.08317 14.2728-2.88525 14.3532-2.29769 14.5635-1.87093 14.9037-1.60498 15.1572-1.40088 15.4325-1.29883 15.7294-1.29883 16.4282-1.29883 17.1519-1.64827 17.9003-2.34717 18.5187-2.91618 19.0228-3.57487 19.4125-4.32324L19.4125-10.3628ZM32.3864-0.686523C31.0072-0.0309245 29.7022 0.296875 28.4714 0.296875 26.5417 0.296875 25.1192-0.599935 24.2038-2.39355 23.7585-3.25326 23.5359-4.1748 23.5359-5.1582 23.5359-6.10449 23.74-7.0013 24.1482-7.84863 24.5749-8.73926 25.1671-9.42887 25.9248-9.91748 26.6824-10.4061 27.5251-10.6504 28.4528-10.6504 29.9001-10.6504 30.9732-10.0907 31.6721-8.97119 32.2473-8.04964 32.5349-6.81575 32.5349-5.26953L32.5349-4.89844 25.3913-4.89844C25.3913-4.23047 25.5243-3.60889 25.7902-3.03369 26.0809-2.39665 26.4922-1.91732 27.0241-1.5957 27.5127-1.29883 28.0694-1.15039 28.6941-1.15039 29.8073-1.15039 31.0381-1.52148 32.3864-2.26367ZM25.4934-6.18799 30.6609-6.18799 30.6609-6.43775C30.6609-7.21463 30.4784-7.85279 30.1135-8.35222 29.7053-8.91949 29.127-9.20312 28.3786-9.20312 26.8695-9.20312 25.9078-8.19808 25.4934-6.18799ZM43.4678-10.3628 43.4678 0 41.7423 0 41.7423-2.27295C40.629-0.565918 39.3301 0.287598 37.8458 0.287598 37.252 0.287598 36.7077 0.132975 36.213-0.17627 35.6934-0.504069 35.3316-0.940104 35.1275-1.48438 34.9296-2.01009 34.8306-3.03988 34.8306-4.57373L34.8306-10.3628 36.5562-10.3628 36.5562-4.36035C36.5562-3.57487 36.5717-3.08317 36.6026-2.88525 36.683-2.29769 36.8933-1.87093 37.2335-1.60498 37.487-1.40088 37.7623-1.29883 38.0592-1.29883 38.758-1.29883 39.4817-1.64827 40.23-2.34717 40.8485-2.91618 41.3526-3.57487 41.7423-4.32324L41.7423-10.3628ZM54.7162-0.686523C53.337-0.0309245 52.032 0.296875 50.8012 0.296875 48.8715 0.296875 47.449-0.599935 46.5336-2.39355 46.0883-3.25326 45.8657-4.1748 45.8657-5.1582 45.8657-6.10449 46.0698-7.0013 46.478-7.84863 46.9047-8.73926 47.4969-9.42887 48.2546-9.91748 49.0122-10.4061 49.8549-10.6504 50.7826-10.6504 52.2299-10.6504 53.303-10.0907 54.0019-8.97119 54.5771-8.04964 54.8647-6.81575 54.8647-5.26953L54.8647-4.89844 47.7211-4.89844C47.7211-4.23047 47.8541-3.60889 48.12-3.03369 48.4107-2.39665 48.822-1.91732 49.3539-1.5957 49.8425-1.29883 50.3992-1.15039 51.0239-1.15039 52.1371-1.15039 53.3679-1.52148 54.7162-2.26367ZM47.8232-6.18799 52.9907-6.18799 52.9907-6.43775C52.9907-7.21463 52.8082-7.85279 52.4433-8.35222 52.0351-8.91949 51.4568-9.20312 50.7084-9.20312 49.1993-9.20312 48.2376-8.19808 47.8232-6.18799ZM65.9183 0 57.2068 0 57.2068-1.58643C57.2068-2.51339 57.6094-3.47437 58.4146-4.46936 58.8977-5.06253 59.3963-5.62178 59.9103-6.14711L60.8904-7.1524C62.2756-8.56052 63.1506-9.60118 63.5154-10.2744 63.7257-10.6697 63.8308-11.0588 63.8308-11.4417 63.8308-12.0532 63.5742-12.538 63.0608-12.8962 62.6031-13.2174 62.0558-13.3779 61.4187-13.3779 60.6827-13.3779 59.9065-13.2461 59.0901-12.9825 58.7623-12.8721 58.2304-12.6514 57.4944-12.3203L57.4944-13.8511C58.8613-14.5005 60.2869-14.8252 61.7713-14.8252 63.4845-14.8252 64.6411-14.3242 65.241-13.3223 65.5441-12.8089 65.6956-12.2616 65.6956-11.6802 65.6956-10.87 65.3771-10.0195 64.74-9.12891 64.3751-8.61556 63.7566-7.92594 62.8846-7.06006L60.9363-5.13965C60.4044-4.62012 59.9498-4.06966 59.5725-3.48828 59.2262-2.95638 59.0345-2.32243 58.9974-1.58643L65.9183-1.58643Z" transform="matrix(1 -2.45222e-16 2.44783e-16 1.0006 17.2213 30)"/></g></g></g><path d="M586.373 343.705C591.826 343.705 596.246 326.013 596.246 304.189 596.246 282.365 591.826 264.674 586.373 264.674L772.627 264.674C778.08 264.674 782.5 282.365 782.5 304.189 782.5 326.013 778.08 343.705 772.627 343.705Z" fill="url(#fill69)" fill-rule="evenodd"/><path d="M586.373 343.705C580.92 343.705 576.5 326.013 576.5 304.189 576.5 282.365 580.92 264.674 586.373 264.674 591.826 264.674 596.246 282.365 596.246 304.189 596.246 326.013 591.826 343.705 586.373 343.705Z" fill="url(#fill70)" fill-rule="evenodd"/><path d="M586.373 264.674C591.826 264.674 596.246 282.365 596.246 304.189 596.246 326.013 591.826 343.705 586.373 343.705 580.92 343.705 576.5 326.013 576.5 304.189 576.5 282.365 580.92 264.674 586.373 264.674L772.627 264.674C778.08 264.674 782.5 282.365 782.5 304.189 782.5 326.013 778.08 343.705 772.627 343.705L586.373 343.705" stroke="#BE4B48" stroke-width="1.00044" stroke-linejoin="round" stroke-miterlimit="10" fill="none" fill-rule="evenodd"/><text font-family="Monaco,Monaco_MSFontService,sans-serif" font-weight="400" font-size="19" transform="matrix(1 -2.45222e-16 2.44783e-16 1.0006 650.221 311)">queue2</text><g clip-path="url(#clip71)" filter="url(#fx17)" transform="translate(776 295)"><g clip-path="url(#clip72)"><path d="M6.52298 10.2818 118.505 11.9988 118.459 15.0003 6.47702 13.2833ZM117.052 8.97438 125.982 13.6145 116.914 17.9787Z" fill="#4F81BD"/></g></g><path d="M782.52 303.348 895.337 305.078 895.296 307.745 782.48 306.016ZM894.045 302.39 901.982 306.514 893.922 310.393Z" fill="#4F81BD"/><g clip-path="url(#clip73)" filter="url(#fx18)" transform="translate(437 115)"><g clip-path="url(#clip74)"><path d="M0.850317-1.2357 127.422 85.8615 125.722 88.3329-0.850317 1.2357ZM127.887 82.5398 132.75 91.3488 122.785 89.954Z" fill="#4F81BD" transform="matrix(1 0 0 -1.0006 6.5 105.08)"/></g></g><path d="M0.755718-1.09823 128.015 86.472 126.503 88.6684-0.755718 1.09823ZM128.428 83.5198 132.75 91.3488 123.894 90.1092Z" fill="#4F81BD" transform="matrix(1 0 0 -1.0006 443.5 217.979)"/><g clip-path="url(#clip75)" filter="url(#fx19)" transform="translate(437 213)"><g clip-path="url(#clip76)"><path d="M7.31991 5.47367 133.79 88.077 132.15 90.5907 5.68009 7.98733ZM134.174 84.7429 139.25 93.4358 129.254 92.2839Z" fill="#4F81BD"/></g></g><path d="M444.229 216.513 571.397 299.572 569.94 301.806 442.771 218.747ZM571.738 296.609 576.25 304.335 567.366 303.311Z" fill="#4F81BD"/><text fill="#595959" font-family="Monaco,Monaco_MSFontService,sans-serif" font-weight="400" font-size="14" transform="matrix(1 0 0 1.0006 338.21 204)">Fanout</text></g></svg>