<svg width="1280" height="569" xmlns="http://www.w3.org/2000/svg" xmlns:xlink="http://www.w3.org/1999/xlink" overflow="hidden"><defs><filter id="fx0" x="-10%" y="-10%" width="120%" height="120%" filterUnits="userSpaceOnUse" primitiveUnits="userSpaceOnUse"><feComponentTransfer color-interpolation-filters="sRGB"><feFuncR type="discrete" tableValues="0 0"/><feFuncG type="discrete" tableValues="0 0"/><feFuncB type="discrete" tableValues="0 0"/><feFuncA type="linear" slope="0.34902" intercept="0"/></feComponentTransfer><feGaussianBlur stdDeviation="1.39983 1.40024"/></filter><filter id="fx1" x="-10%" y="-10%" width="120%" height="120%" filterUnits="userSpaceOnUse" primitiveUnits="userSpaceOnUse"><feComponentTransfer color-interpolation-filters="sRGB"><feFuncR type="discrete" tableValues="0 0"/><feFuncG type="discrete" tableValues="0 0"/><feFuncB type="discrete" tableValues="0 0"/><feFuncA type="linear" slope="0.34902" intercept="0"/></feComponentTransfer><feGaussianBlur stdDeviation="1.39983 1.40024"/></filter><filter id="fx2" x="-10%" y="-10%" width="120%" height="120%" filterUnits="userSpaceOnUse" primitiveUnits="userSpaceOnUse"><feComponentTransfer color-interpolation-filters="sRGB"><feFuncR type="discrete" tableValues="0 0"/><feFuncG type="discrete" tableValues="0 0"/><feFuncB type="discrete" tableValues="0 0"/><feFuncA type="linear" slope="0.380392" intercept="0"/></feComponentTransfer><feGaussianBlur stdDeviation="1.39983 1.40024"/></filter><filter id="fx3" x="-10%" y="-10%" width="120%" height="120%" filterUnits="userSpaceOnUse" primitiveUnits="userSpaceOnUse"><feComponentTransfer color-interpolation-filters="sRGB"><feFuncR type="discrete" tableValues="0 0"/><feFuncG type="discrete" tableValues="0 0"/><feFuncB type="discrete" tableValues="0 0"/><feFuncA type="linear" slope="0.380392" intercept="0"/></feComponentTransfer><feGaussianBlur stdDeviation="1.39983 1.40024"/></filter><filter id="fx4" x="-10%" y="-10%" width="120%" height="120%" filterUnits="userSpaceOnUse" primitiveUnits="userSpaceOnUse"><feComponentTransfer color-interpolation-filters="sRGB"><feFuncR type="discrete" tableValues="0 0"/><feFuncG type="discrete" tableValues="0 0"/><feFuncB type="discrete" tableValues="0 0"/><feFuncA type="linear" slope="0.380392" intercept="0"/></feComponentTransfer><feGaussianBlur stdDeviation="1.39983 1.40024"/></filter><filter id="fx5" x="-10%" y="-10%" width="120%" height="120%" filterUnits="userSpaceOnUse" primitiveUnits="userSpaceOnUse"><feComponentTransfer color-interpolation-filters="sRGB"><feFuncR type="discrete" tableValues="0 0"/><feFuncG type="discrete" tableValues="0 0"/><feFuncB type="discrete" tableValues="0 0"/><feFuncA type="linear" slope="0.380392" intercept="0"/></feComponentTransfer><feGaussianBlur stdDeviation="1.39983 1.40024"/></filter><filter id="fx6" x="-10%" y="-10%" width="120%" height="120%" filterUnits="userSpaceOnUse" primitiveUnits="userSpaceOnUse"><feComponentTransfer color-interpolation-filters="sRGB"><feFuncR type="discrete" tableValues="0 0"/><feFuncG type="discrete" tableValues="0 0"/><feFuncB type="discrete" tableValues="0 0"/><feFuncA type="linear" slope="0.380392" intercept="0"/></feComponentTransfer><feGaussianBlur stdDeviation="1.39983 1.40024"/></filter><filter id="fx7" x="-10%" y="-10%" width="120%" height="120%" filterUnits="userSpaceOnUse" primitiveUnits="userSpaceOnUse"><feComponentTransfer color-interpolation-filters="sRGB"><feFuncR type="discrete" tableValues="0 0"/><feFuncG type="discrete" tableValues="0 0"/><feFuncB type="discrete" tableValues="0 0"/><feFuncA type="linear" slope="0.380392" intercept="0"/></feComponentTransfer><feGaussianBlur stdDeviation="1.39983 1.40024"/></filter><filter id="fx8" x="-10%" y="-10%" width="120%" height="120%" filterUnits="userSpaceOnUse" primitiveUnits="userSpaceOnUse"><feComponentTransfer color-interpolation-filters="sRGB"><feFuncR type="discrete" tableValues="0 0"/><feFuncG type="discrete" tableValues="0 0"/><feFuncB type="discrete" tableValues="0 0"/><feFuncA type="linear" slope="0.34902" intercept="0"/></feComponentTransfer><feGaussianBlur stdDeviation="1.39983 1.40024"/></filter><filter id="fx9" x="-10%" y="-10%" width="120%" height="120%" filterUnits="userSpaceOnUse" primitiveUnits="userSpaceOnUse"><feComponentTransfer color-interpolation-filters="sRGB"><feFuncR type="discrete" tableValues="0 0"/><feFuncG type="discrete" tableValues="0 0"/><feFuncB type="discrete" tableValues="0 0"/><feFuncA type="linear" slope="0.34902" intercept="0"/></feComponentTransfer><feGaussianBlur stdDeviation="1.39983 1.40024"/></filter><clipPath id="clip10"><rect x="0" y="0" width="1280" height="569"/></clipPath><clipPath id="clip11"><rect x="36" y="290" width="104" height="105"/></clipPath><clipPath id="clip12"><rect x="36" y="290" width="104" height="105"/></clipPath><clipPath id="clip13"><rect x="36" y="290" width="104" height="105"/></clipPath><clipPath id="clip14"><path d="M481.167 316.593C476.38 316.593 472.5 320.474 472.5 325.262L472.5 359.939C472.5 364.727 476.38 368.608 481.167 368.608L595.833 368.608C600.62 368.608 604.5 364.727 604.5 359.939L604.5 325.262C604.5 320.474 600.62 316.593 595.833 316.593ZM1.90735e-05 8.47876e-06 1280 8.47876e-06 1280 569 1.90735e-05 569Z" fill-rule="evenodd" clip-rule="evenodd"/></clipPath><clipPath id="clip15"><rect x="1" y="-1" width="145" height="65"/></clipPath><clipPath id="clip16"><rect x="0" y="0" width="145" height="65"/></clipPath><clipPath id="clip17"><rect x="13" y="9" width="87" height="49"/></clipPath><clipPath id="clip18"><rect x="0" y="0" width="112" height="72"/></clipPath><linearGradient x1="538.5" y1="368.608" x2="538.5" y2="316.593" gradientUnits="userSpaceOnUse" spreadMethod="reflect" id="fill19"><stop offset="0" stop-color="#9B2D2A"/><stop offset="0.8" stop-color="#CB3D3A"/><stop offset="1" stop-color="#CE3B37"/></linearGradient><clipPath id="clip20"><rect x="1" y="1" width="209" height="65"/></clipPath><clipPath id="clip21"><rect x="0" y="0" width="210" height="65"/></clipPath><clipPath id="clip22"><rect x="13" y="9" width="143" height="49"/></clipPath><clipPath id="clip23"><rect x="0" y="0" width="168" height="73"/></clipPath><clipPath id="clip24"><rect x="1" y="1" width="209" height="65"/></clipPath><clipPath id="clip25"><rect x="0" y="0" width="210" height="65"/></clipPath><clipPath id="clip26"><rect x="11" y="7" width="145" height="51"/></clipPath><clipPath id="clip27"><rect x="0" y="0" width="168" height="72"/></clipPath><clipPath id="clip28"><rect x="1" y="1" width="209" height="65"/></clipPath><clipPath id="clip29"><rect x="0" y="0" width="210" height="66"/></clipPath><clipPath id="clip30"><rect x="11" y="9" width="155" height="49"/></clipPath><clipPath id="clip31"><rect x="0" y="0" width="179" height="73"/></clipPath><clipPath id="clip32"><path d="M658.333 74.5219C652.903 74.5219 648.5 78.9258 648.5 84.3582L648.5 123.703C648.5 129.135 652.903 133.539 658.333 133.539L1014.67 133.539C1020.1 133.539 1024.5 129.135 1024.5 123.703L1024.5 84.3582C1024.5 78.9258 1020.1 74.5219 1014.67 74.5219ZM1.90735e-05 8.47876e-06 1280 8.47876e-06 1280 569 1.90735e-05 569Z" fill-rule="evenodd" clip-rule="evenodd"/></clipPath><clipPath id="clip33"><rect x="1" y="1" width="389" height="71"/></clipPath><clipPath id="clip34"><rect x="0" y="0" width="389" height="72"/></clipPath><clipPath id="clip35"><rect x="13" y="9" width="139" height="49"/></clipPath><clipPath id="clip36"><rect x="0" y="0" width="164" height="74"/></clipPath><linearGradient x1="836.5" y1="133.539" x2="836.5" y2="74.5219" gradientUnits="userSpaceOnUse" spreadMethod="reflect" id="fill37"><stop offset="0" stop-color="#9B2D2A"/><stop offset="0.8" stop-color="#CB3D3A"/><stop offset="1" stop-color="#CE3B37"/></linearGradient></defs><g clip-path="url(#clip10)"><rect x="0" y="0" width="1280" height="569.167" fill="#FFFFFF"/><text fill="#595959" font-family="SimHei,SimHei_MSFontService,sans-serif" font-weight="700" font-size="32" transform="matrix(1 0 0 1.00029 97.8736 129)">统一网关<tspan font-family="Monaco,Monaco_MSFontService,sans-serif" font-size="32" x="147.833" y="0">Gateway</tspan></text><g clip-path="url(#clip11)"><g clip-path="url(#clip12)"><g clip-path="url(#clip13)"><path d="M52.936 5.72C47.06 5.72 42.276 10.504 42.276 16.38 42.276 22.256 47.06 27.04 52.936 27.04 58.812 27.04 63.596 22.256 63.596 16.38 63.596 10.504 58.812 5.72 52.936 5.72ZM77.948 15.86C73.216 15.86 69.42 19.656 69.42 24.388 69.42 29.12 73.216 32.916 77.948 32.916 82.68 32.916 86.476 29.068 86.476 24.388 86.476 19.656 82.68 15.86 77.948 15.86ZM37.024 59.228 36.868 61.932 36.868 62.036 38.688 93.236 30.524 93.236 29.172 66.664 25.688 66.664 24.024 93.236 16.38 93.236 17.576 62.036 17.004 49.4 9.984 59.436 6.552 56.628 16.536 34.58 22.36 34.58 27.924 41.184 33.28 34.632 37.752 34.632 39.884 29.744 51.012 29.744 50.18 31.148 51.272 33.384 48.88 50.544 52.624 54.34 52.624 54.652 52.78 54.496 52.936 54.652 52.936 54.34 56.68 50.544 54.288 33.384 55.38 31.148 54.548 29.744 65.78 29.744 67.288 34.632 72.488 34.632 78.052 41.236 83.46 34.632 88.4 34.632 97.656 55.172 93.964 58.344 87.776 47.944 87.048 61.984 87.048 62.088 88.868 93.288 80.704 93.288 79.352 66.716 75.92 66.716 74.256 93.288 66.612 93.288 67.808 62.088 67.704 59.852 64.532 62.504 65.936 99.788 56.784 99.788 54.756 68.016 50.596 68.016 48.984 99.788 39.312 99.788 41.444 62.504 37.024 59.228ZM27.716 15.86C22.984 15.86 19.188 19.656 19.188 24.388 19.188 29.12 23.036 32.916 27.716 32.916 32.448 32.916 36.244 29.068 36.244 24.388 36.296 19.656 32.448 15.86 27.716 15.86Z" fill="#49504F" transform="matrix(1 0 0 1.00029 36 290.085)"/></g></g></g><g clip-path="url(#clip14)"><g clip-path="url(#clip15)" filter="url(#fx0)" transform="translate(466 313)"><g clip-path="url(#clip16)"><path d="M6.50006 14.6776C6.50006 9.88962 10.3804 6.00818 15.167 6.00818L129.833 6.00818C134.62 6.00818 138.5 9.88962 138.5 14.6776L138.5 49.354C138.5 54.142 134.62 58.0234 129.833 58.0234L15.167 58.0234C10.3804 58.0234 6.50006 54.142 6.50006 49.354Z" stroke="#BE4B48" stroke-linejoin="round" stroke-miterlimit="10" fill="#FF0000" fill-rule="evenodd"/></g></g><g clip-path="url(#clip17)" filter="url(#fx1)" transform="translate(482 311)"><g clip-path="url(#clip18)"><path d="M10.103-0.00985718C9.0887 0.287404 8.15788 0.436035 7.31055 0.436035 4.76237 0.436035 2.95947-0.75765 1.90186-3.14502 1.36995-4.3387 1.104-5.6901 1.104-7.19922 1.104-8.57227 1.3269-9.82471 1.7727-10.9565 2.29271-12.2677 3.0635-13.2542 4.08508-13.916 5.03233-14.5283 6.07246-14.8345 7.20545-14.8345 8.05993-14.8345 9.02579-14.6335 10.103-14.2314L10.103-12.5244C9.10591-13.0996 8.11502-13.3872 7.13036-13.3872 5.5449-13.3872 4.37132-12.3922 3.60961-10.4021 3.23185-9.41945 3.04297-8.34719 3.04297-7.1853 3.04297-5.55375 3.36768-4.17862 4.01709-3.05993 4.81494-1.69413 5.96842-1.01123 7.47754-1.01123 7.67546-1.01123 7.92594-1.02664 8.229-1.05747L8.229-5.68701 6.79102-5.68701 6.79102-7.13428 10.103-7.13428ZM19.4235-2.32861C18.9844-1.61117 18.4308-1.01123 17.7629-0.528809 17.0083 0.0154622 16.2507 0.287598 15.4899 0.287598 14.3704 0.287598 13.5046-0.210286 12.8923-1.20605 12.3789-2.04102 12.1222-3.05225 12.1222-4.23975 12.1222-6.67041 12.9634-8.48877 14.6457-9.69482 15.4126-10.2391 16.362-10.5112 17.4938-10.5112 17.8402-10.5112 18.335-10.4772 18.9782-10.4092 19.0586-10.403 19.207-10.3875 19.4235-10.3628L21.1584-10.3628 21.1584-3.04297C21.1584-1.79362 21.2882-0.779297 21.548 0L19.7482 0C19.6121-0.56901 19.5039-1.34521 19.4235-2.32861ZM19.4235-4.37891 19.4235-8.82275C18.8112-8.98356 18.2422-9.06396 17.7165-9.06396 16.5166-9.06396 15.5765-8.58463 14.8962-7.62598 14.2962-6.77246 13.9963-5.72103 13.9963-4.47168 13.9963-3.72331 14.1261-3.06152 14.3859-2.48633 14.7261-1.73796 15.2301-1.36377 15.8981-1.36377 16.5475-1.36377 17.2402-1.72559 17.9762-2.44922 18.5267-2.99349 19.0091-3.63672 19.4235-4.37891ZM32.4456-0.41748C31.3262 0.0525716 30.3861 0.287598 29.6253 0.287598 28.0173 0.287598 26.904-0.26223 26.2855-1.36189 25.9762-1.90558 25.8216-2.7458 25.8216-3.88257L25.8216-8.05273 23.2332-8.05273 23.2332-9.5 25.8216-9.5 25.8216-13.6748 27.5472-13.6748 27.5472-9.5 32.158-9.5 32.158-8.05273 27.5472-8.05273 27.5472-3.91692C27.5472-2.59075 27.9121-1.75187 28.6419-1.4003 28.9697-1.23988 29.3594-1.15967 29.8109-1.15967 30.6458-1.15967 31.5241-1.41943 32.4456-1.93896ZM43.5566-0.686523C42.1774-0.0309245 40.8724 0.296875 39.6416 0.296875 37.7119 0.296875 36.2894-0.599935 35.374-2.39355 34.9287-3.25326 34.7061-4.1748 34.7061-5.1582 34.7061-6.10449 34.9102-7.0013 35.3184-7.84863 35.7451-8.73926 36.3373-9.42887 37.095-9.91748 37.8526-10.4061 38.6953-10.6504 39.623-10.6504 41.0703-10.6504 42.1434-10.0907 42.8423-8.97119 43.4175-8.04964 43.7051-6.81575 43.7051-5.26953L43.7051-4.89844 36.5615-4.89844C36.5615-4.23047 36.6945-3.60889 36.9604-3.03369 37.2511-2.39665 37.6624-1.91732 38.1943-1.5957 38.6829-1.29883 39.2396-1.15039 39.8643-1.15039 40.9775-1.15039 42.2083-1.52148 43.5566-2.26367ZM36.6636-6.18799 41.8311-6.18799 41.8311-6.43775C41.8311-7.21463 41.6486-7.85279 41.2837-8.35222 40.8755-8.91949 40.2972-9.20312 39.5488-9.20312 38.0397-9.20312 37.078-8.19808 36.6636-6.18799ZM46.5407 0 44.8522-10.3628 46.4595-10.3628 47.6992-2.58128 47.9508-4.0542 49.6022-10.3628 51.1515-10.3628 53.0163-4.0542 53.3378-2.60258 53.5544-4.0542 54.5485-10.3628 55.8737-10.3628 54.1944 0 52.57 0 50.5892-6.66867 50.2795-8.13623 50.2339-8.13623 49.9516-6.67809 48.2226 0ZM64.0902-2.32861C63.651-1.61117 63.0975-1.01123 62.4295-0.528809 61.675 0.0154622 60.9173 0.287598 60.1566 0.287598 59.0371 0.287598 58.1712-0.210286 57.5589-1.20605 57.0456-2.04102 56.7889-3.05225 56.7889-4.23975 56.7889-6.67041 57.63-8.48877 59.3123-9.69482 60.0793-10.2391 61.0286-10.5112 62.1605-10.5112 62.5068-10.5112 63.0016-10.4772 63.6449-10.4092 63.7253-10.403 63.8737-10.3875 64.0902-10.3628L65.825-10.3628 65.825-3.04297C65.825-1.79362 65.9549-0.779297 66.2147 0L64.4149 0C64.2788-0.56901 64.1706-1.34521 64.0902-2.32861ZM64.0902-4.37891 64.0902-8.82275C63.4779-8.98356 62.9089-9.06396 62.3831-9.06396 61.1833-9.06396 60.2432-8.58463 59.5628-7.62598 58.9629-6.77246 58.6629-5.72103 58.6629-4.47168 58.6629-3.72331 58.7928-3.06152 59.0526-2.48633 59.3927-1.73796 59.8968-1.36377 60.5648-1.36377 61.2142-1.36377 61.9069-1.72559 62.6429-2.44922 63.1934-2.99349 63.6758-3.63672 64.0902-4.37891ZM72.251-0.424438 67.464-10.3628 69.3686-10.3628 73.1829-2.58838 76.3659-10.3628 78.105-10.3628 74.0877-0.73291C73.3827 0.955566 72.7487 2.12451 72.1859 2.77393 71.2953 3.8068 70.1356 4.32324 68.707 4.32324 68.1813 4.32324 67.7113 4.27686 67.2969 4.18408L67.2969 2.6626C67.7731 2.80485 68.2277 2.87598 68.6606 2.87598 69.7987 2.87598 70.6893 2.38462 71.3325 1.40189 71.6665 0.895119 71.9201 0.41922 72.0933-0.0258026Z" fill="#FFFFFF" transform="matrix(1 0 0 1.00029 16.9952 29)"/><path d="M5.26953-1.44727 5.26953-12.5522C4.2181-11.7173 3.04297-11.0679 1.74414-10.604L1.74414-12.1626C3.09863-12.7378 4.27376-13.4831 5.26953-14.3984L6.99512-14.3984 6.99512-1.44727 10.4556-1.44727 10.4556 0 1.74414 0 1.74414-1.44727ZM16.863-14.8252C18.6999-14.8252 20.0482-13.9624 20.9079-12.2368 21.5697-10.9194 21.9006-9.24023 21.9006-7.19922 21.9006-5.15202 21.5728-3.46973 20.9172-2.15234 20.0513-0.426758 18.6999 0.436035 16.863 0.436035 15.026 0.436035 13.6777-0.42985 12.818-2.16162 12.1562-3.479 11.8254-5.1582 11.8254-7.19922 11.8254-9.23405 12.1562-10.9132 12.818-12.2368 13.6839-13.9624 15.0322-14.8252 16.863-14.8252ZM14.0545-4.11755 19.0363-11.9198C18.4979-12.8919 17.774-13.3779 16.8644-13.3779 15.6701-13.3779 14.8008-12.6116 14.2563-11.079 13.885-10.0223 13.6994-8.76163 13.6994-7.29707 13.6994-6.17847 13.8178-5.11863 14.0545-4.11755ZM19.6554-10.2051 14.7103-2.35659C15.2422-1.45968 15.935-1.01123 16.7886-1.01123 18.0256-1.01123 18.9193-1.81135 19.4699-3.4116 19.8472-4.49908 20.0358-5.81206 20.0358-7.35056 20.0358-8.33917 19.909-9.29068 19.6554-10.2051ZM28.0296-14.8252C29.8665-14.8252 31.2148-13.9624 32.0745-12.2368 32.7363-10.9194 33.0672-9.24023 33.0672-7.19922 33.0672-5.15202 32.7394-3.46973 32.0838-2.15234 31.2179-0.426758 29.8665 0.436035 28.0296 0.436035 26.1927 0.436035 24.8444-0.42985 23.9847-2.16162 23.3229-3.479 22.992-5.1582 22.992-7.19922 22.992-9.23405 23.3229-10.9132 23.9847-12.2368 24.8506-13.9624 26.1989-14.8252 28.0296-14.8252ZM25.2212-4.11755 30.203-11.9198C29.6646-12.8919 28.9406-13.3779 28.0311-13.3779 26.8368-13.3779 25.9674-12.6116 25.423-11.079 25.0517-10.0223 24.866-8.76163 24.866-7.29707 24.866-6.17847 24.9844-5.11863 25.2212-4.11755ZM30.8221-10.2051 25.877-2.35659C26.4089-1.45968 27.1016-1.01123 27.9553-1.01123 29.1922-1.01123 30.086-1.81135 30.6366-3.4116 31.0138-4.49908 31.2025-5.81206 31.2025-7.35056 31.2025-8.33917 31.0757-9.29068 30.8221-10.2051ZM38.7695-1.44727 38.7695-12.5522C37.7181-11.7173 36.543-11.0679 35.2441-10.604L35.2441-12.1626C36.5986-12.7378 37.7738-13.4831 38.7695-14.3984L40.4951-14.3984 40.4951-1.44727 43.9556-1.44727 43.9556 0 35.2441 0 35.2441-1.44727ZM50.363-14.8252C52.1999-14.8252 53.5482-13.9624 54.4079-12.2368 55.0697-10.9194 55.4006-9.24023 55.4006-7.19922 55.4006-5.15202 55.0728-3.46973 54.4172-2.15234 53.5513-0.426758 52.1999 0.436035 50.363 0.436035 48.526 0.436035 47.1777-0.42985 46.318-2.16162 45.6562-3.479 45.3254-5.1582 45.3254-7.19922 45.3254-9.23405 45.6562-10.9132 46.318-12.2368 47.1839-13.9624 48.5322-14.8252 50.363-14.8252ZM47.5545-4.11755 52.5363-11.9198C51.9979-12.8919 51.274-13.3779 50.3644-13.3779 49.1701-13.3779 48.3008-12.6116 47.7563-11.079 47.385-10.0223 47.1994-8.76163 47.1994-7.29707 47.1994-6.17847 47.3178-5.11863 47.5545-4.11755ZM53.1554-10.2051 48.2103-2.35659C48.7422-1.45968 49.435-1.01123 50.2886-1.01123 51.5256-1.01123 52.4193-1.81135 52.9699-3.4116 53.3472-4.49908 53.5358-5.81206 53.5358-7.35056 53.5358-8.33917 53.409-9.29068 53.1554-10.2051Z" fill="#FFFFFF" transform="matrix(1 0 0 1.00029 28.1619 51)"/></g></g></g><path d="M472.5 325.262C472.5 320.474 476.38 316.593 481.167 316.593L595.833 316.593C600.62 316.593 604.5 320.474 604.5 325.262L604.5 359.939C604.5 364.727 600.62 368.608 595.833 368.608L481.167 368.608C476.38 368.608 472.5 364.727 472.5 359.939Z" stroke="#BE4B48" stroke-linejoin="round" stroke-miterlimit="10" fill="url(#fill19)" fill-rule="evenodd"/><text fill="#FFFFFF" font-family="Monaco,Monaco_MSFontService,sans-serif" font-weight="400" font-size="19" transform="matrix(1 0 0 1.00029 498.995 338)">Gateway<tspan font-size="19" x="11.1667" y="21.9936">10010</tspan></text><g clip-path="url(#clip20)" filter="url(#fx2)" transform="translate(930 218)"><g clip-path="url(#clip21)"><path d="M6.50006 15.335C6.50006 10.547 10.3803 6.6656 15.1669 6.6656L194.833 6.6656C199.62 6.6656 203.5 10.547 203.5 15.335L203.5 50.0115C203.5 54.7994 199.62 58.6808 194.833 58.6808L15.1669 58.6808C10.3803 58.6808 6.50006 54.7994 6.50006 50.0115Z" stroke="#BE4B48" stroke-linejoin="round" stroke-miterlimit="10" fill="none" fill-rule="evenodd"/></g></g><g clip-path="url(#clip22)" filter="url(#fx3)" transform="translate(950 216)"><g clip-path="url(#clip23)"><path d="M9.97314-10.3628 9.97314 0 8.24756 0 8.24756-2.27295C7.13428-0.565918 5.83545 0.287598 4.35107 0.287598 3.75732 0.287598 3.21305 0.132975 2.71826-0.17627 2.19873-0.504069 1.83691-0.940104 1.63281-1.48438 1.4349-2.01009 1.33594-3.03988 1.33594-4.57373L1.33594-10.3628 3.06152-10.3628 3.06152-4.36035C3.06152-3.57487 3.07699-3.08317 3.10791-2.88525 3.18831-2.29769 3.3986-1.87093 3.73877-1.60498 3.99235-1.40088 4.26758-1.29883 4.56445-1.29883 5.26335-1.29883 5.98698-1.64827 6.73535-2.34717 7.35384-2.91618 7.85791-3.57487 8.24756-4.32324L8.24756-10.3628ZM12.7253-0.547363 12.7253-2.375C13.9808-1.56478 15.3693-1.15967 16.8908-1.15967 18.5298-1.15967 19.3493-1.65088 19.3493-2.63332 19.3493-3.01021 19.1637-3.32535 18.7926-3.57874 18.6195-3.69615 18.27-3.86295 17.7443-4.07913L17.1506-4.3202 15.9538-4.79291C14.9704-5.18217 14.2993-5.51891 13.9406-5.80312 13.3221-6.29125 13.0129-6.93076 13.0129-7.72165 13.0129-8.79057 13.4705-9.57219 14.3859-10.0665 15.0972-10.4558 16.0373-10.6504 17.2062-10.6504 18.3133-10.6504 19.3617-10.4896 20.3512-10.168L20.3512-8.6001C19.2132-9.00212 18.1432-9.20312 17.1413-9.20312 16.5846-9.20312 16.096-9.11663 15.6755-8.94365 15.1003-8.70263 14.8127-8.34115 14.8127-7.85921 14.8127-7.44521 15.1003-7.08064 15.6755-6.7655 15.8796-6.65437 16.3465-6.46592 17.0763-6.20016L18.2453-5.77384C19.1545-5.44024 19.8193-5.09732 20.2399-4.74507 20.846-4.23221 21.1491-3.58033 21.1491-2.78944 21.1491-1.67731 20.679-0.858637 19.7389-0.333405 18.9967 0.0805969 18.0195 0.287598 16.8073 0.287598 15.4837 0.287598 14.123 0.00927733 12.7253-0.547363ZM32.39-0.686523C31.0107-0.0309245 29.7057 0.296875 28.4749 0.296875 26.5452 0.296875 25.1227-0.599935 24.2074-2.39355 23.762-3.25326 23.5394-4.1748 23.5394-5.1582 23.5394-6.10449 23.7435-7.0013 24.1517-7.84863 24.5784-8.73926 25.1707-9.42887 25.9283-9.91748 26.686-10.4061 27.5286-10.6504 28.4564-10.6504 29.9036-10.6504 30.9767-10.0907 31.6756-8.97119 32.2508-8.04964 32.5384-6.81575 32.5384-5.26953L32.5384-4.89844 25.3949-4.89844C25.3949-4.23047 25.5278-3.60889 25.7938-3.03369 26.0845-2.39665 26.4958-1.91732 27.0277-1.5957 27.5163-1.29883 28.0729-1.15039 28.6976-1.15039 29.8109-1.15039 31.0417-1.52148 32.39-2.26367ZM25.4969-6.18799 30.6644-6.18799 30.6644-6.43775C30.6644-7.21463 30.4819-7.85279 30.117-8.35222 29.7088-8.91949 29.1305-9.20312 28.3822-9.20312 26.873-9.20312 25.9113-8.19808 25.4969-6.18799ZM35.8193 0 35.8193-10.3628 37.5449-10.3628 37.5449-8.09912C38.6149-9.79997 40.0065-10.6504 41.7197-10.6504 42.3444-10.6504 42.9691-10.5545 43.5938-10.3628L43.5938-6.62402 41.9331-6.62402 41.9331-8.98975C41.6424-9.03922 41.4136-9.06396 41.2466-9.06396 39.9539-9.06396 38.7201-8.04964 37.5449-6.021L37.5449 0Z" transform="matrix(1 0 0 1.00029 17.3875 30)"/><path d="M2.10596-5.11182 2.10596-6.5498 9.30518-6.5498 9.30518-5.11182Z" transform="matrix(1 0 0 1.00029 62.0542 30)"/><path d="M1.55859-0.547363 1.55859-2.375C2.81413-1.56478 4.20264-1.15967 5.72412-1.15967 7.36312-1.15967 8.18262-1.65088 8.18262-2.63332 8.18262-3.01021 7.99707-3.32535 7.62598-3.57874 7.4528-3.69615 7.10335-3.86295 6.57764-4.07913L5.98389-4.3202 4.78711-4.79291C3.80371-5.18217 3.13265-5.51891 2.77393-5.80312 2.15544-6.29125 1.84619-6.93076 1.84619-7.72165 1.84619-8.79057 2.30387-9.57219 3.21924-10.0665 3.9305-10.4558 4.87061-10.6504 6.03955-10.6504 7.14665-10.6504 8.19499-10.4896 9.18457-10.168L9.18457-8.6001C8.04655-9.00212 6.97656-9.20312 5.97461-9.20312 5.41797-9.20312 4.92936-9.11663 4.50879-8.94365 3.93359-8.70263 3.646-8.34115 3.646-7.85921 3.646-7.44521 3.93359-7.08064 4.50879-6.7655 4.71289-6.65437 5.17985-6.46592 5.90967-6.20016L7.07861-5.77384C7.98779-5.44024 8.65267-5.09732 9.07324-4.74507 9.67936-4.23221 9.98242-3.58033 9.98242-2.78944 9.98242-1.67731 9.51237-0.858637 8.57227-0.333405 7.83008 0.0805969 6.85286 0.287598 5.64062 0.287598 4.31706 0.287598 2.95638 0.00927733 1.55859-0.547363ZM21.2233-0.686523C19.8441-0.0309245 18.5391 0.296875 17.3083 0.296875 15.3786 0.296875 13.9561-0.599935 13.0407-2.39355 12.5954-3.25326 12.3727-4.1748 12.3727-5.1582 12.3727-6.10449 12.5768-7.0013 12.985-7.84863 13.4118-8.73926 14.004-9.42887 14.7616-9.91748 15.5193-10.4061 16.362-10.6504 17.2897-10.6504 18.737-10.6504 19.8101-10.0907 20.509-8.97119 21.0841-8.04964 21.3717-6.81575 21.3717-5.26953L21.3717-4.89844 14.2282-4.89844C14.2282-4.23047 14.3612-3.60889 14.6271-3.03369 14.9178-2.39665 15.3291-1.91732 15.861-1.5957 16.3496-1.29883 16.9062-1.15039 17.5309-1.15039 18.6442-1.15039 19.875-1.52148 21.2233-2.26367ZM14.3302-6.18799 19.4977-6.18799 19.4977-6.43775C19.4977-7.21463 19.3153-7.85279 18.9504-8.35222 18.5422-8.91949 17.9639-9.20312 17.2155-9.20312 15.7064-9.20312 14.7446-8.19808 14.3302-6.18799ZM24.6527 0 24.6527-10.3628 26.3783-10.3628 26.3783-8.09912C27.4482-9.79997 28.8398-10.6504 30.5531-10.6504 31.1777-10.6504 31.8024-10.5545 32.4271-10.3628L32.4271-6.62402 30.7664-6.62402 30.7664-8.98975C30.4757-9.03922 30.2469-9.06396 30.0799-9.06396 28.7873-9.06396 27.5534-8.04964 26.3783-6.021L26.3783 0ZM38.3057 0 33.8063-10.3628 35.6974-10.3628 39.2502-2.15698 42.8732-10.3628 44.605-10.3628 40.0682 0ZM49.0177 0 49.0177-8.91553 46.1418-8.91553 46.1418-10.3628 50.7433-10.3628 50.7433-1.44727 53.6286-1.44727 53.6286 0ZM48.7301-14.1016C48.7301-14.4232 48.8415-14.6969 49.0641-14.9226 49.2868-15.1484 49.5589-15.2612 49.8805-15.2612 50.2021-15.2612 50.4758-15.1484 50.7016-14.9226 50.9273-14.6969 51.0402-14.4232 51.0402-14.1016 51.0402-13.7861 50.9273-13.5155 50.7016-13.2898 50.4758-13.064 50.2021-12.9512 49.8805-12.9512 49.5651-12.9512 49.2945-13.064 49.0688-13.2898 48.843-13.5155 48.7301-13.7861 48.7301-14.1016ZM65.992-0.296875C64.8354 0.0927734 63.7345 0.287598 62.6893 0.287598 61.6935 0.287598 60.7905 0.061849 59.9803-0.389648 59.1515-0.859701 58.5021-1.52458 58.0321-2.38428 57.5806-3.20068 57.3548-4.13151 57.3548-5.17676 57.3548-6.69824 57.8465-7.9847 58.8299-9.03613 59.8319-10.1123 61.0874-10.6504 62.5965-10.6504 63.6665-10.6504 64.7983-10.4494 65.992-10.0474L65.992-8.38672C64.786-8.93099 63.7067-9.20312 62.7542-9.20312 61.2946-9.20312 60.271-8.56067 59.6834-7.27576 59.3804-6.61475 59.2288-5.93518 59.2288-5.23706 59.2288-4.11276 59.5505-3.18614 60.1937-2.45719 60.8617-1.68495 61.7492-1.29883 62.8563-1.29883 63.6541-1.29883 64.6994-1.51839 65.992-1.95752ZM77.0566-0.686523C75.6774-0.0309245 74.3724 0.296875 73.1416 0.296875 71.2119 0.296875 69.7894-0.599935 68.874-2.39355 68.4287-3.25326 68.2061-4.1748 68.2061-5.1582 68.2061-6.10449 68.4102-7.0013 68.8184-7.84863 69.2451-8.73926 69.8373-9.42887 70.595-9.91748 71.3526-10.4061 72.1953-10.6504 73.123-10.6504 74.5703-10.6504 75.6434-10.0907 76.3423-8.97119 76.9175-8.04964 77.2051-6.81575 77.2051-5.26953L77.2051-4.89844 70.0615-4.89844C70.0615-4.23047 70.1945-3.60889 70.4604-3.03369 70.7511-2.39665 71.1624-1.91732 71.6943-1.5957 72.1829-1.29883 72.7396-1.15039 73.3643-1.15039 74.4775-1.15039 75.7083-1.52148 77.0566-2.26367ZM70.1636-6.18799 75.3311-6.18799 75.3311-6.43775C75.3311-7.21463 75.1486-7.85279 74.7837-8.35222 74.3755-8.91949 73.7972-9.20312 73.0488-9.20312 71.5397-9.20312 70.578-8.19808 70.1636-6.18799Z" transform="matrix(1 0 0 1.00029 73.2208 30)"/><path d="M4.2583-7.76514 3.94287-7.99707C2.6626-8.93717 2.02246-10.0566 2.02246-11.3555 2.02246-12.4007 2.43685-13.2542 3.26562-13.916 4.03874-14.5221 4.96029-14.8252 6.03027-14.8252 7.56413-14.8252 8.64339-14.318 9.26807-13.3037 9.57731-12.8027 9.73193-12.2554 9.73193-11.6616 9.73193-10.87 9.45052-10.0999 8.8877-9.35156 8.60319-8.97428 8.04346-8.44547 7.2085-7.76514L7.98779-7.14355C8.87842-6.43229 9.49072-5.79215 9.82471-5.22314 10.1401-4.68506 10.2979-4.08203 10.2979-3.41406 10.2979-2.1709 9.84326-1.20296 8.93408-0.510254 8.10531 0.120605 7.05078 0.436035 5.77051 0.436035 4.47168 0.436035 3.41715 0.145345 2.60693-0.436035 1.69157-1.09782 1.23389-2.05029 1.23389-3.29346 1.23389-4.87061 2.24202-6.36117 4.2583-7.76514ZM6.03027-8.64648C7.34147-9.64032 7.99707-10.6064 7.99707-11.5446 7.99707-12.0878 7.76204-12.5354 7.29199-12.8872 6.85905-13.2144 6.36426-13.3779 5.80762-13.3779 5.23242-13.3779 4.74072-13.2051 4.33252-12.8594 3.89958-12.4952 3.68311-12.0322 3.68311-11.4706 3.68311-10.7175 4.32015-9.88105 5.59424-8.96133ZM5.55713-6.84668C3.92432-5.59115 3.10791-4.41602 3.10791-3.32129 3.10791-2.63477 3.39551-2.06885 3.9707-1.62354 4.5026-1.21533 5.12109-1.01123 5.82617-1.01123 6.49414-1.01123 7.0848-1.21224 7.59814-1.61426 8.15479-2.05339 8.43311-2.59766 8.43311-3.24707 8.43311-4.14388 7.65999-5.1984 6.11377-6.41064ZM16.863-14.8252C18.6999-14.8252 20.0482-13.9624 20.9079-12.2368 21.5697-10.9194 21.9006-9.24023 21.9006-7.19922 21.9006-5.15202 21.5728-3.46973 20.9172-2.15234 20.0513-0.426758 18.6999 0.436035 16.863 0.436035 15.026 0.436035 13.6777-0.42985 12.818-2.16162 12.1562-3.479 11.8254-5.1582 11.8254-7.19922 11.8254-9.23405 12.1562-10.9132 12.818-12.2368 13.6839-13.9624 15.0322-14.8252 16.863-14.8252ZM14.0545-4.11755 19.0363-11.9198C18.4979-12.8919 17.774-13.3779 16.8644-13.3779 15.6701-13.3779 14.8008-12.6116 14.2563-11.079 13.885-10.0223 13.6994-8.76163 13.6994-7.29707 13.6994-6.17847 13.8178-5.11863 14.0545-4.11755ZM19.6554-10.2051 14.7103-2.35659C15.2422-1.45968 15.935-1.01123 16.7886-1.01123 18.0256-1.01123 18.9193-1.81135 19.4699-3.4116 19.8472-4.49908 20.0358-5.81206 20.0358-7.35056 20.0358-8.33917 19.909-9.29068 19.6554-10.2051ZM26.5916-7.76514 26.2762-7.99707C24.9959-8.93717 24.3558-10.0566 24.3558-11.3555 24.3558-12.4007 24.7702-13.2542 25.599-13.916 26.3721-14.5221 27.2936-14.8252 28.3636-14.8252 29.8975-14.8252 30.9767-14.318 31.6014-13.3037 31.9106-12.8027 32.0653-12.2554 32.0653-11.6616 32.0653-10.87 31.7839-10.0999 31.221-9.35156 30.9365-8.97428 30.3768-8.44547 29.5418-7.76514L30.3211-7.14355C31.2118-6.43229 31.8241-5.79215 32.158-5.22314 32.4735-4.68506 32.6312-4.08203 32.6312-3.41406 32.6312-2.1709 32.1766-1.20296 31.2674-0.510254 30.4386 0.120605 29.3841 0.436035 28.1038 0.436035 26.805 0.436035 25.7505 0.145345 24.9403-0.436035 24.0249-1.09782 23.5672-2.05029 23.5672-3.29346 23.5672-4.87061 24.5754-6.36117 26.5916-7.76514ZM28.3636-8.64648C29.6748-9.64032 30.3304-10.6064 30.3304-11.5446 30.3304-12.0878 30.0954-12.5354 29.6253-12.8872 29.1924-13.2144 28.6976-13.3779 28.141-13.3779 27.5658-13.3779 27.0741-13.2051 26.6659-12.8594 26.2329-12.4952 26.0164-12.0322 26.0164-11.4706 26.0164-10.7175 26.6535-9.88105 27.9276-8.96133ZM27.8905-6.84668C26.2577-5.59115 25.4412-4.41602 25.4412-3.32129 25.4412-2.63477 25.7288-2.06885 26.304-1.62354 26.8359-1.21533 27.4544-1.01123 28.1595-1.01123 28.8275-1.01123 29.4181-1.21224 29.9315-1.61426 30.4881-2.05339 30.7664-2.59766 30.7664-3.24707 30.7664-4.14388 29.9933-5.1984 28.4471-6.41064ZM38.7695-1.44727 38.7695-12.5522C37.7181-11.7173 36.543-11.0679 35.2441-10.604L35.2441-12.1626C36.5986-12.7378 37.7738-13.4831 38.7695-14.3984L40.4951-14.3984 40.4951-1.44727 43.9556-1.44727 43.9556 0 35.2441 0 35.2441-1.44727Z" transform="matrix(1 0 0 1.00029 62.0542 52)"/></g></g><path d="M936.5 231.235C936.5 226.447 940.38 222.565 945.167 222.565L1124.83 222.565C1129.62 222.565 1133.5 226.447 1133.5 231.235L1133.5 265.911C1133.5 270.699 1129.62 274.58 1124.83 274.58L945.167 274.58C940.38 274.58 936.5 270.699 936.5 265.911Z" stroke="#BE4B48" stroke-linejoin="round" stroke-miterlimit="10" fill="none" fill-rule="evenodd"/><text font-family="Monaco,Monaco_MSFontService,sans-serif" font-weight="400" font-size="19" transform="matrix(1 0 0 1.00029 967.388 243)">user<tspan font-size="19" x="44.6667" y="0">-</tspan><tspan font-size="19" x="55.8333" y="0">service</tspan><tspan font-size="19" x="44.6667" y="21.9936">8081</tspan></text><g clip-path="url(#clip24)" filter="url(#fx4)" transform="translate(930 313)"><g clip-path="url(#clip25)"><path d="M6.50006 15.3628C6.50006 10.5748 10.3803 6.69342 15.1669 6.69342L194.833 6.69342C199.62 6.69342 203.5 10.5748 203.5 15.3628L203.5 50.0393C203.5 54.8273 199.62 58.7087 194.833 58.7087L15.1669 58.7087C10.3803 58.7087 6.50006 54.8273 6.50006 50.0393Z" stroke="#BE4B48" stroke-linejoin="round" stroke-miterlimit="10" fill="none" fill-rule="evenodd"/></g></g><g clip-path="url(#clip26)" filter="url(#fx5)" transform="translate(951 312)"><g clip-path="url(#clip27)"><path d="M9.97314-10.3628 9.97314 0 8.24756 0 8.24756-2.27295C7.13428-0.565918 5.83545 0.287598 4.35107 0.287598 3.75732 0.287598 3.21305 0.132975 2.71826-0.17627 2.19873-0.504069 1.83691-0.940104 1.63281-1.48438 1.4349-2.01009 1.33594-3.03988 1.33594-4.57373L1.33594-10.3628 3.06152-10.3628 3.06152-4.36035C3.06152-3.57487 3.07699-3.08317 3.10791-2.88525 3.18831-2.29769 3.3986-1.87093 3.73877-1.60498 3.99235-1.40088 4.26758-1.29883 4.56445-1.29883 5.26335-1.29883 5.98698-1.64827 6.73535-2.34717 7.35384-2.91618 7.85791-3.57487 8.24756-4.32324L8.24756-10.3628ZM12.7253-0.547363 12.7253-2.375C13.9808-1.56478 15.3693-1.15967 16.8908-1.15967 18.5298-1.15967 19.3493-1.65088 19.3493-2.63332 19.3493-3.01021 19.1637-3.32535 18.7926-3.57874 18.6195-3.69615 18.27-3.86295 17.7443-4.07913L17.1506-4.3202 15.9538-4.79291C14.9704-5.18217 14.2993-5.51891 13.9406-5.80312 13.3221-6.29125 13.0129-6.93076 13.0129-7.72165 13.0129-8.79057 13.4705-9.57219 14.3859-10.0665 15.0972-10.4558 16.0373-10.6504 17.2062-10.6504 18.3133-10.6504 19.3617-10.4896 20.3512-10.168L20.3512-8.6001C19.2132-9.00212 18.1432-9.20312 17.1413-9.20312 16.5846-9.20312 16.096-9.11663 15.6755-8.94365 15.1003-8.70263 14.8127-8.34115 14.8127-7.85921 14.8127-7.44521 15.1003-7.08064 15.6755-6.7655 15.8796-6.65437 16.3465-6.46592 17.0763-6.20016L18.2453-5.77384C19.1545-5.44024 19.8193-5.09732 20.2399-4.74507 20.846-4.23221 21.1491-3.58033 21.1491-2.78944 21.1491-1.67731 20.679-0.858637 19.7389-0.333405 18.9967 0.0805969 18.0195 0.287598 16.8073 0.287598 15.4837 0.287598 14.123 0.00927733 12.7253-0.547363ZM32.39-0.686523C31.0107-0.0309245 29.7057 0.296875 28.4749 0.296875 26.5452 0.296875 25.1227-0.599935 24.2074-2.39355 23.762-3.25326 23.5394-4.1748 23.5394-5.1582 23.5394-6.10449 23.7435-7.0013 24.1517-7.84863 24.5784-8.73926 25.1707-9.42887 25.9283-9.91748 26.686-10.4061 27.5286-10.6504 28.4564-10.6504 29.9036-10.6504 30.9767-10.0907 31.6756-8.97119 32.2508-8.04964 32.5384-6.81575 32.5384-5.26953L32.5384-4.89844 25.3949-4.89844C25.3949-4.23047 25.5278-3.60889 25.7938-3.03369 26.0845-2.39665 26.4958-1.91732 27.0277-1.5957 27.5163-1.29883 28.0729-1.15039 28.6976-1.15039 29.8109-1.15039 31.0417-1.52148 32.39-2.26367ZM25.4969-6.18799 30.6644-6.18799 30.6644-6.43775C30.6644-7.21463 30.4819-7.85279 30.117-8.35222 29.7088-8.91949 29.1305-9.20312 28.3822-9.20312 26.873-9.20312 25.9113-8.19808 25.4969-6.18799ZM35.8193 0 35.8193-10.3628 37.5449-10.3628 37.5449-8.09912C38.6149-9.79997 40.0065-10.6504 41.7197-10.6504 42.3444-10.6504 42.9691-10.5545 43.5938-10.3628L43.5938-6.62402 41.9331-6.62402 41.9331-8.98975C41.6424-9.03922 41.4136-9.06396 41.2466-9.06396 39.9539-9.06396 38.7201-8.04964 37.5449-6.021L37.5449 0Z" transform="matrix(1 0 0 1.00029 16.5927 29)"/><path d="M2.10596-5.11182 2.10596-6.5498 9.30518-6.5498 9.30518-5.11182Z" transform="matrix(1 0 0 1.00029 61.2593 29)"/><path d="M1.55859-0.547363 1.55859-2.375C2.81413-1.56478 4.20264-1.15967 5.72412-1.15967 7.36312-1.15967 8.18262-1.65088 8.18262-2.63332 8.18262-3.01021 7.99707-3.32535 7.62598-3.57874 7.4528-3.69615 7.10335-3.86295 6.57764-4.07913L5.98389-4.3202 4.78711-4.79291C3.80371-5.18217 3.13265-5.51891 2.77393-5.80312 2.15544-6.29125 1.84619-6.93076 1.84619-7.72165 1.84619-8.79057 2.30387-9.57219 3.21924-10.0665 3.9305-10.4558 4.87061-10.6504 6.03955-10.6504 7.14665-10.6504 8.19499-10.4896 9.18457-10.168L9.18457-8.6001C8.04655-9.00212 6.97656-9.20312 5.97461-9.20312 5.41797-9.20312 4.92936-9.11663 4.50879-8.94365 3.93359-8.70263 3.646-8.34115 3.646-7.85921 3.646-7.44521 3.93359-7.08064 4.50879-6.7655 4.71289-6.65437 5.17985-6.46592 5.90967-6.20016L7.07861-5.77384C7.98779-5.44024 8.65267-5.09732 9.07324-4.74507 9.67936-4.23221 9.98242-3.58033 9.98242-2.78944 9.98242-1.67731 9.51237-0.858637 8.57227-0.333405 7.83008 0.0805969 6.85286 0.287598 5.64062 0.287598 4.31706 0.287598 2.95638 0.00927733 1.55859-0.547363ZM21.2233-0.686523C19.8441-0.0309245 18.5391 0.296875 17.3083 0.296875 15.3786 0.296875 13.9561-0.599935 13.0407-2.39355 12.5954-3.25326 12.3727-4.1748 12.3727-5.1582 12.3727-6.10449 12.5768-7.0013 12.985-7.84863 13.4118-8.73926 14.004-9.42887 14.7616-9.91748 15.5193-10.4061 16.362-10.6504 17.2897-10.6504 18.737-10.6504 19.8101-10.0907 20.509-8.97119 21.0841-8.04964 21.3717-6.81575 21.3717-5.26953L21.3717-4.89844 14.2282-4.89844C14.2282-4.23047 14.3612-3.60889 14.6271-3.03369 14.9178-2.39665 15.3291-1.91732 15.861-1.5957 16.3496-1.29883 16.9062-1.15039 17.5309-1.15039 18.6442-1.15039 19.875-1.52148 21.2233-2.26367ZM14.3302-6.18799 19.4977-6.18799 19.4977-6.43775C19.4977-7.21463 19.3153-7.85279 18.9504-8.35222 18.5422-8.91949 17.9639-9.20312 17.2155-9.20312 15.7064-9.20312 14.7446-8.19808 14.3302-6.18799ZM24.6527 0 24.6527-10.3628 26.3783-10.3628 26.3783-8.09912C27.4482-9.79997 28.8398-10.6504 30.5531-10.6504 31.1777-10.6504 31.8024-10.5545 32.4271-10.3628L32.4271-6.62402 30.7664-6.62402 30.7664-8.98975C30.4757-9.03922 30.2469-9.06396 30.0799-9.06396 28.7873-9.06396 27.5534-8.04964 26.3783-6.021L26.3783 0ZM38.3057 0 33.8063-10.3628 35.6974-10.3628 39.2502-2.15698 42.8732-10.3628 44.605-10.3628 40.0682 0ZM49.0177 0 49.0177-8.91553 46.1418-8.91553 46.1418-10.3628 50.7433-10.3628 50.7433-1.44727 53.6286-1.44727 53.6286 0ZM48.7301-14.1016C48.7301-14.4232 48.8415-14.6969 49.0641-14.9226 49.2868-15.1484 49.5589-15.2612 49.8805-15.2612 50.2021-15.2612 50.4758-15.1484 50.7016-14.9226 50.9273-14.6969 51.0402-14.4232 51.0402-14.1016 51.0402-13.7861 50.9273-13.5155 50.7016-13.2898 50.4758-13.064 50.2021-12.9512 49.8805-12.9512 49.5651-12.9512 49.2945-13.064 49.0688-13.2898 48.843-13.5155 48.7301-13.7861 48.7301-14.1016ZM65.992-0.296875C64.8354 0.0927734 63.7345 0.287598 62.6893 0.287598 61.6935 0.287598 60.7905 0.061849 59.9803-0.389648 59.1515-0.859701 58.5021-1.52458 58.0321-2.38428 57.5806-3.20068 57.3548-4.13151 57.3548-5.17676 57.3548-6.69824 57.8465-7.9847 58.8299-9.03613 59.8319-10.1123 61.0874-10.6504 62.5965-10.6504 63.6665-10.6504 64.7983-10.4494 65.992-10.0474L65.992-8.38672C64.786-8.93099 63.7067-9.20312 62.7542-9.20312 61.2946-9.20312 60.271-8.56067 59.6834-7.27576 59.3804-6.61475 59.2288-5.93518 59.2288-5.23706 59.2288-4.11276 59.5505-3.18614 60.1937-2.45719 60.8617-1.68495 61.7492-1.29883 62.8563-1.29883 63.6541-1.29883 64.6994-1.51839 65.992-1.95752ZM77.0566-0.686523C75.6774-0.0309245 74.3724 0.296875 73.1416 0.296875 71.2119 0.296875 69.7894-0.599935 68.874-2.39355 68.4287-3.25326 68.2061-4.1748 68.2061-5.1582 68.2061-6.10449 68.4102-7.0013 68.8184-7.84863 69.2451-8.73926 69.8373-9.42887 70.595-9.91748 71.3526-10.4061 72.1953-10.6504 73.123-10.6504 74.5703-10.6504 75.6434-10.0907 76.3423-8.97119 76.9175-8.04964 77.2051-6.81575 77.2051-5.26953L77.2051-4.89844 70.0615-4.89844C70.0615-4.23047 70.1945-3.60889 70.4604-3.03369 70.7511-2.39665 71.1624-1.91732 71.6943-1.5957 72.1829-1.29883 72.7396-1.15039 73.3643-1.15039 74.4775-1.15039 75.7083-1.52148 77.0566-2.26367ZM70.1636-6.18799 75.3311-6.18799 75.3311-6.43775C75.3311-7.21463 75.1486-7.85279 74.7837-8.35222 74.3755-8.91949 73.7972-9.20312 73.0488-9.20312 71.5397-9.20312 70.578-8.19808 70.1636-6.18799Z" transform="matrix(1 0 0 1.00029 72.426 29)"/><path d="M4.2583-7.76514 3.94287-7.99707C2.6626-8.93717 2.02246-10.0566 2.02246-11.3555 2.02246-12.4007 2.43685-13.2542 3.26562-13.916 4.03874-14.5221 4.96029-14.8252 6.03027-14.8252 7.56413-14.8252 8.64339-14.318 9.26807-13.3037 9.57731-12.8027 9.73193-12.2554 9.73193-11.6616 9.73193-10.87 9.45052-10.0999 8.8877-9.35156 8.60319-8.97428 8.04346-8.44547 7.2085-7.76514L7.98779-7.14355C8.87842-6.43229 9.49072-5.79215 9.82471-5.22314 10.1401-4.68506 10.2979-4.08203 10.2979-3.41406 10.2979-2.1709 9.84326-1.20296 8.93408-0.510254 8.10531 0.120605 7.05078 0.436035 5.77051 0.436035 4.47168 0.436035 3.41715 0.145345 2.60693-0.436035 1.69157-1.09782 1.23389-2.05029 1.23389-3.29346 1.23389-4.87061 2.24202-6.36117 4.2583-7.76514ZM6.03027-8.64648C7.34147-9.64032 7.99707-10.6064 7.99707-11.5446 7.99707-12.0878 7.76204-12.5354 7.29199-12.8872 6.85905-13.2144 6.36426-13.3779 5.80762-13.3779 5.23242-13.3779 4.74072-13.2051 4.33252-12.8594 3.89958-12.4952 3.68311-12.0322 3.68311-11.4706 3.68311-10.7175 4.32015-9.88105 5.59424-8.96133ZM5.55713-6.84668C3.92432-5.59115 3.10791-4.41602 3.10791-3.32129 3.10791-2.63477 3.39551-2.06885 3.9707-1.62354 4.5026-1.21533 5.12109-1.01123 5.82617-1.01123 6.49414-1.01123 7.0848-1.21224 7.59814-1.61426 8.15479-2.05339 8.43311-2.59766 8.43311-3.24707 8.43311-4.14388 7.65999-5.1984 6.11377-6.41064ZM16.863-14.8252C18.6999-14.8252 20.0482-13.9624 20.9079-12.2368 21.5697-10.9194 21.9006-9.24023 21.9006-7.19922 21.9006-5.15202 21.5728-3.46973 20.9172-2.15234 20.0513-0.426758 18.6999 0.436035 16.863 0.436035 15.026 0.436035 13.6777-0.42985 12.818-2.16162 12.1562-3.479 11.8254-5.1582 11.8254-7.19922 11.8254-9.23405 12.1562-10.9132 12.818-12.2368 13.6839-13.9624 15.0322-14.8252 16.863-14.8252ZM14.0545-4.11755 19.0363-11.9198C18.4979-12.8919 17.774-13.3779 16.8644-13.3779 15.6701-13.3779 14.8008-12.6116 14.2563-11.079 13.885-10.0223 13.6994-8.76163 13.6994-7.29707 13.6994-6.17847 13.8178-5.11863 14.0545-4.11755ZM19.6554-10.2051 14.7103-2.35659C15.2422-1.45968 15.935-1.01123 16.7886-1.01123 18.0256-1.01123 18.9193-1.81135 19.4699-3.4116 19.8472-4.49908 20.0358-5.81206 20.0358-7.35056 20.0358-8.33917 19.909-9.29068 19.6554-10.2051ZM26.5916-7.76514 26.2762-7.99707C24.9959-8.93717 24.3558-10.0566 24.3558-11.3555 24.3558-12.4007 24.7702-13.2542 25.599-13.916 26.3721-14.5221 27.2936-14.8252 28.3636-14.8252 29.8975-14.8252 30.9767-14.318 31.6014-13.3037 31.9106-12.8027 32.0653-12.2554 32.0653-11.6616 32.0653-10.87 31.7839-10.0999 31.221-9.35156 30.9365-8.97428 30.3768-8.44547 29.5418-7.76514L30.3211-7.14355C31.2118-6.43229 31.8241-5.79215 32.158-5.22314 32.4735-4.68506 32.6312-4.08203 32.6312-3.41406 32.6312-2.1709 32.1766-1.20296 31.2674-0.510254 30.4386 0.120605 29.3841 0.436035 28.1038 0.436035 26.805 0.436035 25.7505 0.145345 24.9403-0.436035 24.0249-1.09782 23.5672-2.05029 23.5672-3.29346 23.5672-4.87061 24.5754-6.36117 26.5916-7.76514ZM28.3636-8.64648C29.6748-9.64032 30.3304-10.6064 30.3304-11.5446 30.3304-12.0878 30.0954-12.5354 29.6253-12.8872 29.1924-13.2144 28.6976-13.3779 28.141-13.3779 27.5658-13.3779 27.0741-13.2051 26.6659-12.8594 26.2329-12.4952 26.0164-12.0322 26.0164-11.4706 26.0164-10.7175 26.6535-9.88105 27.9276-8.96133ZM27.8905-6.84668C26.2577-5.59115 25.4412-4.41602 25.4412-3.32129 25.4412-2.63477 25.7288-2.06885 26.304-1.62354 26.8359-1.21533 27.4544-1.01123 28.1595-1.01123 28.8275-1.01123 29.4181-1.21224 29.9315-1.61426 30.4881-2.05339 30.7664-2.59766 30.7664-3.24707 30.7664-4.14388 29.9933-5.1984 28.4471-6.41064ZM43.5938 0 34.8823 0 34.8823-1.58643C34.8823-2.51339 35.2849-3.47437 36.0901-4.46936 36.5732-5.06253 37.0718-5.62178 37.5858-6.14711L38.5659-7.1524C39.9511-8.56052 40.8261-9.60118 41.1909-10.2744 41.4012-10.6697 41.5063-11.0588 41.5063-11.4417 41.5063-12.0532 41.2497-12.538 40.7363-12.8962 40.2786-13.2174 39.7313-13.3779 39.0942-13.3779 38.3582-13.3779 37.582-13.2461 36.7656-12.9825 36.4378-12.8721 35.9059-12.6514 35.1699-12.3203L35.1699-13.8511C36.5368-14.5005 37.9624-14.8252 39.4468-14.8252 41.16-14.8252 42.3166-14.3242 42.9165-13.3223 43.2196-12.8089 43.3711-12.2616 43.3711-11.6802 43.3711-10.87 43.0526-10.0195 42.4155-9.12891 42.0506-8.61556 41.4321-7.92594 40.5601-7.06006L38.6118-5.13965C38.0799-4.62012 37.6253-4.06966 37.248-3.48828 36.9017-2.95638 36.71-2.32243 36.6729-1.58643L43.5938-1.58643Z" transform="matrix(1 0 0 1.00029 61.2593 51)"/></g></g><path d="M936.5 326.262C936.5 321.474 940.38 317.593 945.167 317.593L1124.83 317.593C1129.62 317.593 1133.5 321.474 1133.5 326.262L1133.5 360.939C1133.5 365.727 1129.62 369.608 1124.83 369.608L945.167 369.608C940.38 369.608 936.5 365.727 936.5 360.939Z" stroke="#BE4B48" stroke-linejoin="round" stroke-miterlimit="10" fill="none" fill-rule="evenodd"/><text font-family="Monaco,Monaco_MSFontService,sans-serif" font-weight="400" font-size="19" transform="matrix(1 0 0 1.00029 967.593 339)">user<tspan font-size="19" x="44.6667" y="0">-</tspan><tspan font-size="19" x="55.8333" y="0">service</tspan><tspan font-size="19" x="44.6667" y="21.9936">8082</tspan></text><g clip-path="url(#clip28)" filter="url(#fx6)" transform="translate(930 408)"><g clip-path="url(#clip29)"><path d="M6.50006 15.5574C6.50006 10.6773 10.455 6.72125 15.3336 6.72125L194.667 6.72125C199.545 6.72125 203.5 10.6773 203.5 15.5574L203.5 50.9006C203.5 55.7807 199.545 59.7368 194.667 59.7368L15.3336 59.7368C10.455 59.7368 6.50006 55.7807 6.50006 50.9006Z" stroke="#BE4B48" stroke-linejoin="round" stroke-miterlimit="10" fill="none" fill-rule="evenodd"/></g></g><g clip-path="url(#clip30)" filter="url(#fx7)" transform="translate(945 407)"><g clip-path="url(#clip31)"><path d="M5.70557 0.287598C4.18408 0.287598 2.97184-0.253581 2.06885-1.33594 1.2277-2.35026 0.807129-3.63363 0.807129-5.18604 0.807129-6.73844 1.23079-8.01872 2.07812-9.02686 2.97493-10.1092 4.18408-10.6504 5.70557-10.6504 7.22087-10.6504 8.43001-10.1092 9.33301-9.02686 10.1742-8.01253 10.5947-6.73226 10.5947-5.18604 10.5947-3.63981 10.1742-2.35645 9.33301-1.33594 8.43001-0.253581 7.22087 0.287598 5.70557 0.287598ZM5.70557-1.15967C6.74463-1.15967 7.53011-1.5916 8.06201-2.45545 8.50114-3.17126 8.7207-4.08145 8.7207-5.18604 8.7207-6.28443 8.49805-7.19154 8.05273-7.90734 7.52083-8.7712 6.73844-9.20312 5.70557-9.20312 4.6665-9.20312 3.88102-8.77424 3.34912-7.91647 2.90381-7.20076 2.68115-6.29062 2.68115-5.18604 2.68115-4.08145 2.90381-3.17126 3.34912-2.45545 3.88102-1.5916 4.6665-1.15967 5.70557-1.15967ZM13.486 0 13.486-10.3628 15.2116-10.3628 15.2116-8.09912C16.2816-9.79997 17.6732-10.6504 19.3864-10.6504 20.0111-10.6504 20.6357-10.5545 21.2604-10.3628L21.2604-6.62402 19.5998-6.62402 19.5998-8.98975C19.3091-9.03922 19.0802-9.06396 18.9132-9.06396 17.6206-9.06396 16.3867-8.04964 15.2116-6.021L15.2116 0ZM30.7015-2.32861C30.2624-1.61117 29.7088-1.01123 29.0409-0.528809 28.2863 0.0154622 27.5286 0.287598 26.7679 0.287598 25.6484 0.287598 24.7826-0.210286 24.1702-1.20605 23.6569-2.04102 23.4002-3.05225 23.4002-4.23975 23.4002-6.67041 24.2414-8.48877 25.9237-9.69482 26.6906-10.2391 27.64-10.5112 28.7718-10.5112 29.1182-10.5112 29.613-10.4772 30.2562-10.4092 30.3366-10.403 30.485-10.3875 30.7015-10.3628L30.7015-14.9736 32.4364-14.9736 32.4364 0 30.7015 0ZM30.7015-4.37891 30.7015-8.82275C30.0892-8.98356 29.5202-9.06396 28.9945-9.06396 27.7946-9.06396 26.8545-8.58463 26.1742-7.62598 25.5742-6.77246 25.2743-5.72103 25.2743-4.47168 25.2743-3.72331 25.4041-3.06152 25.6639-2.48633 26.0041-1.73796 26.5081-1.36377 27.1761-1.36377 27.8255-1.36377 28.5182-1.72559 29.2542-2.44922 29.8047-2.99349 30.2871-3.63672 30.7015-4.37891ZM43.5566-0.686523C42.1774-0.0309245 40.8724 0.296875 39.6416 0.296875 37.7119 0.296875 36.2894-0.599935 35.374-2.39355 34.9287-3.25326 34.7061-4.1748 34.7061-5.1582 34.7061-6.10449 34.9102-7.0013 35.3184-7.84863 35.7451-8.73926 36.3373-9.42887 37.095-9.91748 37.8526-10.4061 38.6953-10.6504 39.623-10.6504 41.0703-10.6504 42.1434-10.0907 42.8423-8.97119 43.4175-8.04964 43.7051-6.81575 43.7051-5.26953L43.7051-4.89844 36.5615-4.89844C36.5615-4.23047 36.6945-3.60889 36.9604-3.03369 37.2511-2.39665 37.6624-1.91732 38.1943-1.5957 38.6829-1.29883 39.2396-1.15039 39.8643-1.15039 40.9775-1.15039 42.2083-1.52148 43.5566-2.26367ZM36.6636-6.18799 41.8311-6.18799 41.8311-6.43775C41.8311-7.21463 41.6486-7.85279 41.2837-8.35222 40.8755-8.91949 40.2972-9.20312 39.5488-9.20312 38.0397-9.20312 37.078-8.19808 36.6636-6.18799ZM46.986 0 46.986-10.3628 48.7116-10.3628 48.7116-8.09912C49.7816-9.79997 51.1732-10.6504 52.8864-10.6504 53.5111-10.6504 54.1357-10.5545 54.7604-10.3628L54.7604-6.62402 53.0998-6.62402 53.0998-8.98975C52.8091-9.03922 52.5802-9.06396 52.4132-9.06396 51.1206-9.06396 49.8867-8.04964 48.7116-6.021L48.7116 0Z" transform="matrix(1 0 0 1.00029 16.8042 30)"/><path d="M2.10596-5.11182 2.10596-6.5498 9.30518-6.5498 9.30518-5.11182Z" transform="matrix(1 0 0 1.00029 72.6375 30)"/><path d="M1.55859-0.547363 1.55859-2.375C2.81413-1.56478 4.20264-1.15967 5.72412-1.15967 7.36312-1.15967 8.18262-1.65088 8.18262-2.63332 8.18262-3.01021 7.99707-3.32535 7.62598-3.57874 7.4528-3.69615 7.10335-3.86295 6.57764-4.07913L5.98389-4.3202 4.78711-4.79291C3.80371-5.18217 3.13265-5.51891 2.77393-5.80312 2.15544-6.29125 1.84619-6.93076 1.84619-7.72165 1.84619-8.79057 2.30387-9.57219 3.21924-10.0665 3.9305-10.4558 4.87061-10.6504 6.03955-10.6504 7.14665-10.6504 8.19499-10.4896 9.18457-10.168L9.18457-8.6001C8.04655-9.00212 6.97656-9.20312 5.97461-9.20312 5.41797-9.20312 4.92936-9.11663 4.50879-8.94365 3.93359-8.70263 3.646-8.34115 3.646-7.85921 3.646-7.44521 3.93359-7.08064 4.50879-6.7655 4.71289-6.65437 5.17985-6.46592 5.90967-6.20016L7.07861-5.77384C7.98779-5.44024 8.65267-5.09732 9.07324-4.74507 9.67936-4.23221 9.98242-3.58033 9.98242-2.78944 9.98242-1.67731 9.51237-0.858637 8.57227-0.333405 7.83008 0.0805969 6.85286 0.287598 5.64062 0.287598 4.31706 0.287598 2.95638 0.00927733 1.55859-0.547363ZM21.2233-0.686523C19.8441-0.0309245 18.5391 0.296875 17.3083 0.296875 15.3786 0.296875 13.9561-0.599935 13.0407-2.39355 12.5954-3.25326 12.3727-4.1748 12.3727-5.1582 12.3727-6.10449 12.5768-7.0013 12.985-7.84863 13.4118-8.73926 14.004-9.42887 14.7616-9.91748 15.5193-10.4061 16.362-10.6504 17.2897-10.6504 18.737-10.6504 19.8101-10.0907 20.509-8.97119 21.0841-8.04964 21.3717-6.81575 21.3717-5.26953L21.3717-4.89844 14.2282-4.89844C14.2282-4.23047 14.3612-3.60889 14.6271-3.03369 14.9178-2.39665 15.3291-1.91732 15.861-1.5957 16.3496-1.29883 16.9062-1.15039 17.5309-1.15039 18.6442-1.15039 19.875-1.52148 21.2233-2.26367ZM14.3302-6.18799 19.4977-6.18799 19.4977-6.43775C19.4977-7.21463 19.3153-7.85279 18.9504-8.35222 18.5422-8.91949 17.9639-9.20312 17.2155-9.20312 15.7064-9.20312 14.7446-8.19808 14.3302-6.18799ZM24.6527 0 24.6527-10.3628 26.3783-10.3628 26.3783-8.09912C27.4482-9.79997 28.8398-10.6504 30.5531-10.6504 31.1777-10.6504 31.8024-10.5545 32.4271-10.3628L32.4271-6.62402 30.7664-6.62402 30.7664-8.98975C30.4757-9.03922 30.2469-9.06396 30.0799-9.06396 28.7873-9.06396 27.5534-8.04964 26.3783-6.021L26.3783 0ZM38.3057 0 33.8063-10.3628 35.6974-10.3628 39.2502-2.15698 42.8732-10.3628 44.605-10.3628 40.0682 0ZM49.0177 0 49.0177-8.91553 46.1418-8.91553 46.1418-10.3628 50.7433-10.3628 50.7433-1.44727 53.6286-1.44727 53.6286 0ZM48.7301-14.1016C48.7301-14.4232 48.8415-14.6969 49.0641-14.9226 49.2868-15.1484 49.5589-15.2612 49.8805-15.2612 50.2021-15.2612 50.4758-15.1484 50.7016-14.9226 50.9273-14.6969 51.0402-14.4232 51.0402-14.1016 51.0402-13.7861 50.9273-13.5155 50.7016-13.2898 50.4758-13.064 50.2021-12.9512 49.8805-12.9512 49.5651-12.9512 49.2945-13.064 49.0688-13.2898 48.843-13.5155 48.7301-13.7861 48.7301-14.1016ZM65.992-0.296875C64.8354 0.0927734 63.7345 0.287598 62.6893 0.287598 61.6935 0.287598 60.7905 0.061849 59.9803-0.389648 59.1515-0.859701 58.5021-1.52458 58.0321-2.38428 57.5806-3.20068 57.3548-4.13151 57.3548-5.17676 57.3548-6.69824 57.8465-7.9847 58.8299-9.03613 59.8319-10.1123 61.0874-10.6504 62.5965-10.6504 63.6665-10.6504 64.7983-10.4494 65.992-10.0474L65.992-8.38672C64.786-8.93099 63.7067-9.20312 62.7542-9.20312 61.2946-9.20312 60.271-8.56067 59.6834-7.27576 59.3804-6.61475 59.2288-5.93518 59.2288-5.23706 59.2288-4.11276 59.5505-3.18614 60.1937-2.45719 60.8617-1.68495 61.7492-1.29883 62.8563-1.29883 63.6541-1.29883 64.6994-1.51839 65.992-1.95752ZM77.0566-0.686523C75.6774-0.0309245 74.3724 0.296875 73.1416 0.296875 71.2119 0.296875 69.7894-0.599935 68.874-2.39355 68.4287-3.25326 68.2061-4.1748 68.2061-5.1582 68.2061-6.10449 68.4102-7.0013 68.8184-7.84863 69.2451-8.73926 69.8373-9.42887 70.595-9.91748 71.3526-10.4061 72.1953-10.6504 73.123-10.6504 74.5703-10.6504 75.6434-10.0907 76.3423-8.97119 76.9175-8.04964 77.2051-6.81575 77.2051-5.26953L77.2051-4.89844 70.0615-4.89844C70.0615-4.23047 70.1945-3.60889 70.4604-3.03369 70.7511-2.39665 71.1624-1.91732 71.6943-1.5957 72.1829-1.29883 72.7396-1.15039 73.3643-1.15039 74.4775-1.15039 75.7083-1.52148 77.0566-2.26367ZM70.1636-6.18799 75.3311-6.18799 75.3311-6.43775C75.3311-7.21463 75.1486-7.85279 74.7837-8.35222 74.3755-8.91949 73.7972-9.20312 73.0488-9.20312 71.5397-9.20312 70.578-8.19808 70.1636-6.18799Z" transform="matrix(1 0 0 1.00029 83.8042 30)"/><path d="M4.2583-7.76514 3.94287-7.99707C2.6626-8.93717 2.02246-10.0566 2.02246-11.3555 2.02246-12.4007 2.43685-13.2542 3.26562-13.916 4.03874-14.5221 4.96029-14.8252 6.03027-14.8252 7.56413-14.8252 8.64339-14.318 9.26807-13.3037 9.57731-12.8027 9.73193-12.2554 9.73193-11.6616 9.73193-10.87 9.45052-10.0999 8.8877-9.35156 8.60319-8.97428 8.04346-8.44547 7.2085-7.76514L7.98779-7.14355C8.87842-6.43229 9.49072-5.79215 9.82471-5.22314 10.1401-4.68506 10.2979-4.08203 10.2979-3.41406 10.2979-2.1709 9.84326-1.20296 8.93408-0.510254 8.10531 0.120605 7.05078 0.436035 5.77051 0.436035 4.47168 0.436035 3.41715 0.145345 2.60693-0.436035 1.69157-1.09782 1.23389-2.05029 1.23389-3.29346 1.23389-4.87061 2.24202-6.36117 4.2583-7.76514ZM6.03027-8.64648C7.34147-9.64032 7.99707-10.6064 7.99707-11.5446 7.99707-12.0878 7.76204-12.5354 7.29199-12.8872 6.85905-13.2144 6.36426-13.3779 5.80762-13.3779 5.23242-13.3779 4.74072-13.2051 4.33252-12.8594 3.89958-12.4952 3.68311-12.0322 3.68311-11.4706 3.68311-10.7175 4.32015-9.88105 5.59424-8.96133ZM5.55713-6.84668C3.92432-5.59115 3.10791-4.41602 3.10791-3.32129 3.10791-2.63477 3.39551-2.06885 3.9707-1.62354 4.5026-1.21533 5.12109-1.01123 5.82617-1.01123 6.49414-1.01123 7.0848-1.21224 7.59814-1.61426 8.15479-2.05339 8.43311-2.59766 8.43311-3.24707 8.43311-4.14388 7.65999-5.1984 6.11377-6.41064ZM16.863-14.8252C18.6999-14.8252 20.0482-13.9624 20.9079-12.2368 21.5697-10.9194 21.9006-9.24023 21.9006-7.19922 21.9006-5.15202 21.5728-3.46973 20.9172-2.15234 20.0513-0.426758 18.6999 0.436035 16.863 0.436035 15.026 0.436035 13.6777-0.42985 12.818-2.16162 12.1562-3.479 11.8254-5.1582 11.8254-7.19922 11.8254-9.23405 12.1562-10.9132 12.818-12.2368 13.6839-13.9624 15.0322-14.8252 16.863-14.8252ZM14.0545-4.11755 19.0363-11.9198C18.4979-12.8919 17.774-13.3779 16.8644-13.3779 15.6701-13.3779 14.8008-12.6116 14.2563-11.079 13.885-10.0223 13.6994-8.76163 13.6994-7.29707 13.6994-6.17847 13.8178-5.11863 14.0545-4.11755ZM19.6554-10.2051 14.7103-2.35659C15.2422-1.45968 15.935-1.01123 16.7886-1.01123 18.0256-1.01123 18.9193-1.81135 19.4699-3.4116 19.8472-4.49908 20.0358-5.81206 20.0358-7.35056 20.0358-8.33917 19.909-9.29068 19.6554-10.2051ZM26.5916-7.76514 26.2762-7.99707C24.9959-8.93717 24.3558-10.0566 24.3558-11.3555 24.3558-12.4007 24.7702-13.2542 25.599-13.916 26.3721-14.5221 27.2936-14.8252 28.3636-14.8252 29.8975-14.8252 30.9767-14.318 31.6014-13.3037 31.9106-12.8027 32.0653-12.2554 32.0653-11.6616 32.0653-10.87 31.7839-10.0999 31.221-9.35156 30.9365-8.97428 30.3768-8.44547 29.5418-7.76514L30.3211-7.14355C31.2118-6.43229 31.8241-5.79215 32.158-5.22314 32.4735-4.68506 32.6312-4.08203 32.6312-3.41406 32.6312-2.1709 32.1766-1.20296 31.2674-0.510254 30.4386 0.120605 29.3841 0.436035 28.1038 0.436035 26.805 0.436035 25.7505 0.145345 24.9403-0.436035 24.0249-1.09782 23.5672-2.05029 23.5672-3.29346 23.5672-4.87061 24.5754-6.36117 26.5916-7.76514ZM28.3636-8.64648C29.6748-9.64032 30.3304-10.6064 30.3304-11.5446 30.3304-12.0878 30.0954-12.5354 29.6253-12.8872 29.1924-13.2144 28.6976-13.3779 28.141-13.3779 27.5658-13.3779 27.0741-13.2051 26.6659-12.8594 26.2329-12.4952 26.0164-12.0322 26.0164-11.4706 26.0164-10.7175 26.6535-9.88105 27.9276-8.96133ZM27.8905-6.84668C26.2577-5.59115 25.4412-4.41602 25.4412-3.32129 25.4412-2.63477 25.7288-2.06885 26.304-1.62354 26.8359-1.21533 27.4544-1.01123 28.1595-1.01123 28.8275-1.01123 29.4181-1.21224 29.9315-1.61426 30.4881-2.05339 30.7664-2.59766 30.7664-3.24707 30.7664-4.14388 29.9933-5.1984 28.4471-6.41064ZM39.1963-14.8252C41.0332-14.8252 42.3815-13.9624 43.2412-12.2368 43.903-10.9194 44.2339-9.24023 44.2339-7.19922 44.2339-5.15202 43.9061-3.46973 43.2505-2.15234 42.3846-0.426758 41.0332 0.436035 39.1963 0.436035 37.3594 0.436035 36.0111-0.42985 35.1514-2.16162 34.4896-3.479 34.1587-5.1582 34.1587-7.19922 34.1587-9.23405 34.4896-10.9132 35.1514-12.2368 36.0173-13.9624 37.3656-14.8252 39.1963-14.8252ZM36.3879-4.11755 41.3697-11.9198C40.8313-12.8919 40.1073-13.3779 39.1977-13.3779 38.0035-13.3779 37.1341-12.6116 36.5896-11.079 36.2184-10.0223 36.0327-8.76163 36.0327-7.29707 36.0327-6.17847 36.1511-5.11863 36.3879-4.11755ZM41.9888-10.2051 37.0437-2.35659C37.5756-1.45968 38.2683-1.01123 39.1219-1.01123 40.3589-1.01123 41.2527-1.81135 41.8032-3.4116 42.1805-4.49908 42.3691-5.81206 42.3691-7.35056 42.3691-8.33917 42.2423-9.29068 41.9888-10.2051Z" transform="matrix(1 0 0 1.00029 67.0576 52)"/></g></g><path d="M936.5 421.457C936.5 416.577 940.455 412.621 945.334 412.621L1124.67 412.621C1129.55 412.621 1133.5 416.577 1133.5 421.457L1133.5 456.8C1133.5 461.68 1129.55 465.636 1124.67 465.636L945.334 465.636C940.455 465.636 936.5 461.68 936.5 456.8Z" stroke="#BE4B48" stroke-linejoin="round" stroke-miterlimit="10" fill="none" fill-rule="evenodd"/><text font-family="Monaco,Monaco_MSFontService,sans-serif" font-weight="400" font-size="19" transform="matrix(1 0 0 1.00029 961.804 434)">order<tspan font-size="19" x="55.8333" y="0">-</tspan><tspan font-size="19" x="67" y="0">service</tspan><tspan font-size="19" x="50.2534" y="21.9936">8080</tspan></text><g clip-path="url(#clip32)"><g clip-path="url(#clip33)" filter="url(#fx8)" transform="translate(642 70)"><g clip-path="url(#clip34)"><path d="M6.50006 16.7736C6.50006 11.3412 10.9026 6.93729 16.3335 6.93729L372.667 6.93729C378.097 6.93729 382.5 11.3412 382.5 16.7736L382.5 56.1182C382.5 61.5507 378.097 65.9546 372.667 65.9546L16.3335 65.9546C10.9026 65.9546 6.50006 61.5507 6.50006 56.1182Z" stroke="#BE4B48" stroke-linejoin="round" stroke-miterlimit="10" fill="#FF0000" fill-rule="evenodd"/></g></g><g clip-path="url(#clip35)" filter="url(#fx9)" transform="translate(754 71)"><g clip-path="url(#clip36)"><path d="M2.89453 0 1.16895 0 1.16895-14.3984 2.85742-14.3984 7.95054-4.81494 8.50732-3.38623 8.55371-3.38623 8.50732-4.81494 8.50732-14.3984 10.2329-14.3984 10.2329 0 8.51341 0 2.85742-10.939 2.89453-9.44521ZM19.4235-2.32861C18.9844-1.61117 18.4308-1.01123 17.7629-0.528809 17.0083 0.0154622 16.2507 0.287598 15.4899 0.287598 14.3704 0.287598 13.5046-0.210286 12.8923-1.20605 12.3789-2.04102 12.1222-3.05225 12.1222-4.23975 12.1222-6.67041 12.9634-8.48877 14.6457-9.69482 15.4126-10.2391 16.362-10.5112 17.4938-10.5112 17.8402-10.5112 18.335-10.4772 18.9782-10.4092 19.0586-10.403 19.207-10.3875 19.4235-10.3628L21.1584-10.3628 21.1584-3.04297C21.1584-1.79362 21.2882-0.779297 21.548 0L19.7482 0C19.6121-0.56901 19.5039-1.34521 19.4235-2.32861ZM19.4235-4.37891 19.4235-8.82275C18.8112-8.98356 18.2422-9.06396 17.7165-9.06396 16.5166-9.06396 15.5765-8.58463 14.8962-7.62598 14.2962-6.77246 13.9963-5.72103 13.9963-4.47168 13.9963-3.72331 14.1261-3.06152 14.3859-2.48633 14.7261-1.73796 15.2301-1.36377 15.8981-1.36377 16.5475-1.36377 17.2402-1.72559 17.9762-2.44922 18.5267-2.99349 19.0091-3.63672 19.4235-4.37891ZM32.492-0.296875C31.3354 0.0927734 30.2345 0.287598 29.1893 0.287598 28.1935 0.287598 27.2905 0.061849 26.4803-0.389648 25.6515-0.859701 25.0021-1.52458 24.5321-2.38428 24.0806-3.20068 23.8548-4.13151 23.8548-5.17676 23.8548-6.69824 24.3465-7.9847 25.3299-9.03613 26.3319-10.1123 27.5874-10.6504 29.0965-10.6504 30.1665-10.6504 31.2983-10.4494 32.492-10.0474L32.492-8.38672C31.286-8.93099 30.2067-9.20312 29.2542-9.20312 27.7946-9.20312 26.771-8.56067 26.1834-7.27576 25.8804-6.61475 25.7288-5.93518 25.7288-5.23706 25.7288-4.11276 26.0505-3.18614 26.6937-2.45719 27.3617-1.68495 28.2492-1.29883 29.3563-1.29883 30.1541-1.29883 31.1994-1.51839 32.492-1.95752ZM39.2056 0.287598C37.6841 0.287598 36.4718-0.253581 35.5688-1.33594 34.7277-2.35026 34.3071-3.63363 34.3071-5.18604 34.3071-6.73844 34.7308-8.01872 35.5781-9.02686 36.4749-10.1092 37.6841-10.6504 39.2056-10.6504 40.7209-10.6504 41.93-10.1092 42.833-9.02686 43.6742-8.01253 44.0947-6.73226 44.0947-5.18604 44.0947-3.63981 43.6742-2.35645 42.833-1.33594 41.93-0.253581 40.7209 0.287598 39.2056 0.287598ZM39.2056-1.15967C40.2446-1.15967 41.0301-1.5916 41.562-2.45545 42.0011-3.17126 42.2207-4.08145 42.2207-5.18604 42.2207-6.28443 41.998-7.19154 41.5527-7.90734 41.0208-8.7712 40.2384-9.20312 39.2056-9.20312 38.1665-9.20312 37.381-8.77424 36.8491-7.91647 36.4038-7.20076 36.1812-6.29062 36.1812-5.18604 36.1812-4.08145 36.4038-3.17126 36.8491-2.45545 37.381-1.5916 38.1665-1.15967 39.2056-1.15967ZM46.2253-0.547363 46.2253-2.375C47.4808-1.56478 48.8693-1.15967 50.3908-1.15967 52.0298-1.15967 52.8493-1.65088 52.8493-2.63332 52.8493-3.01021 52.6637-3.32535 52.2926-3.57874 52.1195-3.69615 51.77-3.86295 51.2443-4.07913L50.6506-4.3202 49.4538-4.79291C48.4704-5.18217 47.7993-5.51891 47.4406-5.80312 46.8221-6.29125 46.5129-6.93076 46.5129-7.72165 46.5129-8.79057 46.9705-9.57219 47.8859-10.0665 48.5972-10.4558 49.5373-10.6504 50.7062-10.6504 51.8133-10.6504 52.8617-10.4896 53.8512-10.168L53.8512-8.6001C52.7132-9.00212 51.6432-9.20312 50.6413-9.20312 50.0846-9.20312 49.596-9.11663 49.1755-8.94365 48.6003-8.70263 48.3127-8.34115 48.3127-7.85921 48.3127-7.44521 48.6003-7.08064 49.1755-6.7655 49.3796-6.65437 49.8465-6.46592 50.5763-6.20016L51.7453-5.77384C52.6545-5.44024 53.3193-5.09732 53.7399-4.74507 54.346-4.23221 54.6491-3.58033 54.6491-2.78944 54.6491-1.67731 54.179-0.858637 53.2389-0.333405 52.4967 0.0805969 51.5195 0.287598 50.3073 0.287598 48.9837 0.287598 47.623 0.00927733 46.2253-0.547363Z" fill="#FFFFFF" transform="matrix(1 0 0 1.00029 16.9475 30)"/><path d="M13.8789-12.0234C14.819-12.0234 15.9076-12.0482 17.1445-12.0977L17.1445-10.6875C15.8086-10.737 14.7448-10.7617 13.9531-10.7617L12.4688-10.7617 12.4688-6.67969 13.8789-6.67969C14.7201-6.67969 15.7096-6.70443 16.8477-6.75391L16.8477-5.34375C15.7591-5.39323 14.7695-5.41797 13.8789-5.41797L12.4688-5.41797 12.4688 0 14.3242 0C15.5117 0 16.7487-0.0247396 18.0352-0.0742188L18.0352 1.33594C16.7487 1.28646 15.5365 1.26172 14.3984 1.26172L8.98047 1.26172C7.69401 1.26172 6.63021 1.28646 5.78906 1.33594L5.78906-0.0742188C6.58073-0.0247396 7.66927 0 9.05469 0L10.9844 0 10.9844-5.41797 9.79688-5.41797C8.85677-5.41797 7.96615-5.39323 7.125-5.34375L7.125-6.75391C7.96615-6.70443 8.88151-6.67969 9.87109-6.67969L10.9844-6.67969 10.9844-10.7617 9.57422-10.7617C8.58463-10.7617 7.59505-10.737 6.60547-10.6875L6.60547-12.0977C7.59505-12.0482 8.60938-12.0234 9.64844-12.0234ZM5.78906-4.23047C5.24479-3.33984 4.63867-2.21419 3.9707-0.853516 3.30273 0.507161 2.84505 1.45964 2.59766 2.00391 2.10286 1.50911 1.55859 1.08854 0.964844 0.742188 1.50911 0.247396 2.1276-0.60612 2.82031-1.81836 3.51302-3.0306 4.13151-4.20573 4.67578-5.34375 5.02214-4.89844 5.39323-4.52734 5.78906-4.23047ZM2.15234-9.94531C3.29036-9.20312 4.30469-8.53516 5.19531-7.94141 4.89844-7.59505 4.57682-7.14974 4.23047-6.60547 3.29036-7.44661 2.30078-8.16406 1.26172-8.75781 1.55859-9.05469 1.85547-9.45052 2.15234-9.94531ZM3.04297-14.918C4.23047-14.0273 5.14583-13.2357 5.78906-12.543 5.34375-12.1966 4.9974-11.8255 4.75-11.4297 3.90885-12.4193 2.99349-13.2109 2.00391-13.8047 2.35026-14.151 2.69661-14.5221 3.04297-14.918ZM9.57422-14.6953C9.92057-14.9427 10.2669-15.2396 10.6133-15.5859 11.2565-15.0417 12.0482-14.25 12.9883-13.2109 12.5924-12.9141 12.1966-12.5924 11.8008-12.2461 10.9596-13.2852 10.2174-14.1016 9.57422-14.6953ZM27.1276-14.6211C27.0781-13.8789 27.0534-12.9883 27.0534-11.9492L27.0534-7.57031 29.3542-7.57031 29.3542-12.0234C29.3542-12.9635 29.3294-13.8294 29.2799-14.6211L34.7721-14.6211C34.7227-13.9284 34.6979-13.0378 34.6979-11.9492L34.6979-7.57031C35.3906-7.57031 36.1328-7.59505 36.9245-7.64453L36.9245-6.23438C36.0833-6.28385 35.3411-6.30859 34.6979-6.30859L34.6979-0.519531C34.6979 0.371094 34.5124 0.927734 34.1413 1.15039 33.7702 1.37305 33.0651 1.58333 32.026 1.78125 31.9271 1.13802 31.7044 0.56901 31.3581 0.0742188 32.0013 0.0742188 32.459 0.0494792 32.7311 0 33.0033-0.0494792 33.1888-0.321615 33.2878-0.816406L33.2878-6.30859 30.6901-6.30859C30.5911-2.84505 29.9479-0.0989583 28.7604 1.92969 28.3646 1.53385 27.8945 1.26172 27.3503 1.11328 28.5378-0.470052 29.181-2.94401 29.2799-6.30859L27.0534-6.30859 27.0534-0.0742188C27.0534 0.667969 26.8184 1.11328 26.3483 1.26172 25.8783 1.41016 25.3216 1.55859 24.6784 1.70703 24.5299 1.21224 24.3073 0.667969 24.0104 0.0742188 24.6042 0.0742188 25.0124 0.061849 25.235 0.0371094 25.4577 0.0123698 25.5938-0.197917 25.6432-0.59375L25.6432-6.30859 23.2682-6.30859C23.1693-2.94401 22.4766-0.222656 21.1901 1.85547 20.7448 1.50911 20.25 1.26172 19.7057 1.11328 21.0417-0.717448 21.7344-3.19141 21.7839-6.30859 21.1406-6.30859 20.3737-6.28385 19.4831-6.23438L19.4831-7.64453C20.3242-7.59505 21.1159-7.57031 21.8581-7.57031L21.8581-11.875C21.8581-12.9635 21.8333-13.8789 21.7839-14.6211ZM33.2878-7.57031 33.2878-13.2852 30.7643-13.2852 30.7643-7.57031ZM25.6432-7.57031 25.6432-13.2852 23.2682-13.2852 23.2682-7.57031ZM47.6497-15.4375C47.6003-14.0521 47.5755-12.7409 47.5755-11.5039L54.0326-11.5039C53.9831-10.5143 53.9583-9.15365 53.9583-7.42188 53.9583-5.73958 53.9831-4.47786 54.0326-3.63672L52.3997-3.63672 52.3997-4.75 47.5755-4.75 47.5755-1.55859C47.5755-0.964844 47.6003 0.148438 47.6497 1.78125L45.8685 1.78125C45.9674 0.890625 46.0169-0.148438 46.0169-1.33594L46.0169-4.75 41.1927-4.75 41.1927-3.63672 39.5599-3.63672C39.6094-4.37891 39.6341-5.64062 39.6341-7.42188 39.6341-9.2526 39.6094-10.6133 39.5599-11.5039L46.0169-11.5039C46.0169-12.8398 45.9922-14.151 45.9427-15.4375ZM52.3997-5.9375 52.3997-10.3164 47.5755-10.3164 47.5755-5.9375ZM46.0169-5.9375 46.0169-10.3164 41.1927-10.3164 41.1927-5.9375ZM64.0156-10.168C63.9661-9.57422 63.9414-8.68359 63.9414-7.49609L63.9414-1.11328C63.9414-0.519531 64.2383-0.222656 64.832-0.222656L68.3203-0.222656C68.8646-0.173177 69.2233-0.309245 69.3965-0.630859 69.5697-0.952474 69.7057-1.68229 69.8047-2.82031 70.2995-2.42448 70.8685-2.15234 71.5117-2.00391 71.1654-0.420573 70.819 0.531901 70.4727 0.853516 70.1263 1.17513 69.7057 1.3112 69.2109 1.26172L63.793 1.26172C62.9023 1.26172 62.4076 0.717448 62.3086-0.371094L62.3086-7.42188C62.3086-8.41146 62.2839-9.32682 62.2344-10.168ZM60.3789-9.12891C60.2305-8.83203 60.0326-8.05273 59.7852-6.79102 59.5378-5.5293 59.1914-4.00781 58.7461-2.22656 58.1523-2.42448 57.5586-2.57292 56.9648-2.67188 57.6576-4.65104 58.1771-6.92708 58.5234-9.5 58.9688-9.40104 59.5872-9.27734 60.3789-9.12891ZM71.0664-9.79688C72.2044-8.21354 73.293-6.63021 74.332-5.04688 73.7878-4.79948 73.2682-4.45312 72.7734-4.00781 71.7344-5.98698 70.72-7.61979 69.7305-8.90625 70.1758-9.15365 70.6211-9.45052 71.0664-9.79688ZM65.0547-15.5859C65.599-14.6458 66.4648-13.3346 67.6523-11.6523 67.0586-11.3555 66.5143-11.0339 66.0195-10.6875 65.2279-12.3203 64.4609-13.6562 63.7188-14.6953 64.1641-14.9427 64.6094-15.2396 65.0547-15.5859Z" fill="#FFFFFF" transform="matrix(1 0 0 1.00029 72.7808 30)"/><path d="M4.2583-7.76514 3.94287-7.99707C2.6626-8.93717 2.02246-10.0566 2.02246-11.3555 2.02246-12.4007 2.43685-13.2542 3.26562-13.916 4.03874-14.5221 4.96029-14.8252 6.03027-14.8252 7.56413-14.8252 8.64339-14.318 9.26807-13.3037 9.57731-12.8027 9.73193-12.2554 9.73193-11.6616 9.73193-10.87 9.45052-10.0999 8.8877-9.35156 8.60319-8.97428 8.04346-8.44547 7.2085-7.76514L7.98779-7.14355C8.87842-6.43229 9.49072-5.79215 9.82471-5.22314 10.1401-4.68506 10.2979-4.08203 10.2979-3.41406 10.2979-2.1709 9.84326-1.20296 8.93408-0.510254 8.10531 0.120605 7.05078 0.436035 5.77051 0.436035 4.47168 0.436035 3.41715 0.145345 2.60693-0.436035 1.69157-1.09782 1.23389-2.05029 1.23389-3.29346 1.23389-4.87061 2.24202-6.36117 4.2583-7.76514ZM6.03027-8.64648C7.34147-9.64032 7.99707-10.6064 7.99707-11.5446 7.99707-12.0878 7.76204-12.5354 7.29199-12.8872 6.85905-13.2144 6.36426-13.3779 5.80762-13.3779 5.23242-13.3779 4.74072-13.2051 4.33252-12.8594 3.89958-12.4952 3.68311-12.0322 3.68311-11.4706 3.68311-10.7175 4.32015-9.88105 5.59424-8.96133ZM5.55713-6.84668C3.92432-5.59115 3.10791-4.41602 3.10791-3.32129 3.10791-2.63477 3.39551-2.06885 3.9707-1.62354 4.5026-1.21533 5.12109-1.01123 5.82617-1.01123 6.49414-1.01123 7.0848-1.21224 7.59814-1.61426 8.15479-2.05339 8.43311-2.59766 8.43311-3.24707 8.43311-4.14388 7.65999-5.1984 6.11377-6.41064ZM15.425-7.76514 15.1095-7.99707C13.8293-8.93717 13.1891-10.0566 13.1891-11.3555 13.1891-12.4007 13.6035-13.2542 14.4323-13.916 15.2054-14.5221 16.127-14.8252 17.1969-14.8252 18.7308-14.8252 19.8101-14.318 20.4347-13.3037 20.744-12.8027 20.8986-12.2554 20.8986-11.6616 20.8986-10.87 20.6172-10.0999 20.0544-9.35156 19.7699-8.97428 19.2101-8.44547 18.3752-7.76514L19.1545-7.14355C20.0451-6.43229 20.6574-5.79215 20.9914-5.22314 21.3068-4.68506 21.4645-4.08203 21.4645-3.41406 21.4645-2.1709 21.0099-1.20296 20.1007-0.510254 19.272 0.120605 18.2174 0.436035 16.9372 0.436035 15.6383 0.436035 14.5838 0.145345 13.7736-0.436035 12.8582-1.09782 12.4006-2.05029 12.4006-3.29346 12.4006-4.87061 13.4087-6.36117 15.425-7.76514ZM17.1969-8.64648C18.5081-9.64032 19.1637-10.6064 19.1637-11.5446 19.1637-12.0878 18.9287-12.5354 18.4587-12.8872 18.0257-13.2144 17.5309-13.3779 16.9743-13.3779 16.3991-13.3779 15.9074-13.2051 15.4992-12.8594 15.0662-12.4952 14.8498-12.0322 14.8498-11.4706 14.8498-10.7175 15.4868-9.88105 16.7609-8.96133ZM16.7238-6.84668C15.091-5.59115 14.2746-4.41602 14.2746-3.32129 14.2746-2.63477 14.5622-2.06885 15.1374-1.62354 15.6693-1.21533 16.2878-1.01123 16.9928-1.01123 17.6608-1.01123 18.2515-1.21224 18.7648-1.61426 19.3215-2.05339 19.5998-2.59766 19.5998-3.24707 19.5998-4.14388 18.8267-5.1984 17.2804-6.41064ZM28.8924 0 28.8924-4.02637 22.7786-4.02637 22.7786-5.47363 28.8921-14.3984 30.6273-14.3984 30.6273-5.47363 33.2899-5.47363 33.2899-4.02637 30.6273-4.02637 30.6273 0ZM28.8924-5.47363 28.8924-11.7889 24.6115-5.47363ZM37.7583-7.76514 37.4429-7.99707C36.1626-8.93717 35.5225-10.0566 35.5225-11.3555 35.5225-12.4007 35.9368-13.2542 36.7656-13.916 37.5387-14.5221 38.4603-14.8252 39.5303-14.8252 41.0641-14.8252 42.1434-14.318 42.7681-13.3037 43.0773-12.8027 43.2319-12.2554 43.2319-11.6616 43.2319-10.87 42.9505-10.0999 42.3877-9.35156 42.1032-8.97428 41.5435-8.44547 40.7085-7.76514L41.4878-7.14355C42.3784-6.43229 42.9907-5.79215 43.3247-5.22314 43.6401-4.68506 43.7979-4.08203 43.7979-3.41406 43.7979-2.1709 43.3433-1.20296 42.4341-0.510254 41.6053 0.120605 40.5508 0.436035 39.2705 0.436035 37.9717 0.436035 36.9172 0.145345 36.1069-0.436035 35.1916-1.09782 34.7339-2.05029 34.7339-3.29346 34.7339-4.87061 35.742-6.36117 37.7583-7.76514ZM39.5303-8.64648C40.8415-9.64032 41.4971-10.6064 41.4971-11.5446 41.4971-12.0878 41.262-12.5354 40.792-12.8872 40.359-13.2144 39.8643-13.3779 39.3076-13.3779 38.7324-13.3779 38.2407-13.2051 37.8325-12.8594 37.3996-12.4952 37.1831-12.0322 37.1831-11.4706 37.1831-10.7175 37.8201-9.88105 39.0942-8.96133ZM39.0571-6.84668C37.4243-5.59115 36.6079-4.41602 36.6079-3.32129 36.6079-2.63477 36.8955-2.06885 37.4707-1.62354 38.0026-1.21533 38.6211-1.01123 39.3262-1.01123 39.9941-1.01123 40.5848-1.21224 41.0981-1.61426 41.6548-2.05339 41.9331-2.59766 41.9331-3.24707 41.9331-4.14388 41.16-5.1984 39.6138-6.41064Z" fill="#FFFFFF" transform="matrix(1 0 0 1.00029 59.8608 52)"/></g></g></g><path d="M648.5 84.3582C648.5 78.9258 652.903 74.5219 658.333 74.5219L1014.67 74.5219C1020.1 74.5219 1024.5 78.9258 1024.5 84.3582L1024.5 123.703C1024.5 129.135 1020.1 133.539 1014.67 133.539L658.333 133.539C652.903 133.539 648.5 129.135 648.5 123.703Z" stroke="#BE4B48" stroke-linejoin="round" stroke-miterlimit="10" fill="url(#fill37)" fill-rule="evenodd"/><text fill="#FFFFFF" font-family="Monaco,Monaco_MSFontService,sans-serif" font-weight="400" font-size="19" transform="matrix(1 0 0 1.00029 770.948 99)">Nacos<tspan font-family="SimHei,SimHei_MSFontService,sans-serif" font-size="19" x="55.8333" y="0">注册中心</tspan><tspan font-size="19" x="42.9133" y="21.9936">8848</tspan></text><path d="M1133.65 246.549 1157.65 246.549 1156.32 247.883 1156.32 103.53 1157.65 104.864 1031.17 104.864 1031.17 102.197 1157.65 102.197C1158.39 102.197 1158.99 102.794 1158.99 103.53L1158.99 247.883C1158.99 248.62 1158.39 249.217 1157.65 249.217L1133.65 249.217ZM1032.5 107.532 1024.5 103.53 1032.5 99.5292Z" fill="#4A7EBB"/><path d="M1133.86 342.024 1176.68 342.024 1175.35 343.357 1175.35 103.53 1176.68 104.864 1031.17 104.864 1031.17 102.197 1176.68 102.197C1177.42 102.197 1178.02 102.794 1178.02 103.53L1178.02 343.357C1178.02 344.094 1177.42 344.691 1176.68 344.691L1133.86 344.691ZM1032.5 107.532 1024.5 103.53 1032.5 99.5292Z" fill="#4A7EBB"/><path d="M1133.65 437.498 1197.18 437.498 1195.85 438.832 1195.85 103.53 1197.18 104.864 1031.17 104.864 1031.17 102.197 1197.18 102.197C1197.92 102.197 1198.52 102.794 1198.52 103.53L1198.52 438.832C1198.52 439.568 1197.92 440.166 1197.18 440.166L1133.65 440.166ZM1032.5 107.532 1024.5 103.53 1032.5 99.5292Z" fill="#4A7EBB"/><text fill="#595959" font-family="SimHei,SimHei_MSFontService,sans-serif" font-weight="400" font-size="19" transform="matrix(1 0 0 1.00029 1043.99 97)">服务<tspan font-size="19" x="37.3333" y="0">注册和</tspan>发现</text><path d="M140.501 341.267 465.864 341.507 465.862 344.175 140.499 343.934ZM464.532 338.839 472.529 342.846 464.526 346.841Z" fill="#4A7EBB"/><text fill="#595959" font-family="Monaco,Monaco_MSFontService,sans-serif" font-weight="400" font-size="19" transform="matrix(1 0 0 1.00029 141.212 332)">http<tspan font-size="19" x="44.6667" y="0">://localhost:</tspan><tspan font-size="19" x="189.833" y="0">10010/user/1</tspan></text><path d="M230 438.129C230 429.842 236.716 423.124 245 423.124L456.917 423.124 539.189 373.498 554.167 423.124 604 423.124C612.284 423.124 619 429.842 619 438.129L619 438.129 619 438.129 619 460.635 619 498.146C619 506.432 612.284 513.15 604 513.15L554.167 513.15 456.917 513.15 456.917 513.15 245 513.15C236.716 513.15 230 506.432 230 498.146L230 460.635 230 438.129 230 438.129Z" fill="#F2DCDB" fill-rule="evenodd"/><text fill="#AD2B26" font-family="Monaco,Monaco_MSFontService,sans-serif" font-weight="400" font-size="19" transform="matrix(1 0 0 1.00029 243.768 453)">routes:<tspan font-size="19" x="0" y="21.9936">-</tspan><tspan font-size="19" x="18" y="21.9936">/user/** </tspan><tspan font-family="Wingdings,Wingdings_MSFontService,sans-serif" font-size="19" x="118.5" y="21.9936"></tspan><tspan font-size="19" x="148" y="21.9936">lb</tspan><tspan font-size="19" x="170.333" y="21.9936">:/</tspan><tspan font-size="19" x="192.667" y="21.9936">userservice</tspan><tspan font-size="19" x="0" y="44.9868">-</tspan><tspan font-size="19" x="22.3333" y="44.9868">/order/** </tspan><tspan font-family="Wingdings,Wingdings_MSFontService,sans-serif" font-size="19" x="134" y="44.9868"></tspan><tspan font-size="19" x="163.5" y="44.9868">lb</tspan><tspan font-size="19" x="185.833" y="44.9868">:/</tspan><tspan font-size="19" x="208.167" y="44.9868">orderservice</tspan></text><path d="M0-1.33333 110.352-1.33333C111.088-1.33333 111.685-0.73638 111.685 0L111.685 205.952 109.018 205.952 109.018 0 110.352 1.33333 0 1.33333ZM114.352 204.618 110.352 212.618 106.352 204.618Z" fill="#4A7EBB" transform="matrix(-1 1.22501e-16 1.22465e-16 1.00029 648.852 103.53)"/><text fill="#595959" font-family="Monaco,Monaco_MSFontService,sans-serif" font-weight="400" font-size="19" transform="matrix(1 0 0 1.00029 281.197 398)">1.<tspan font-family="SimHei,SimHei_MSFontService,sans-serif" font-size="19" x="22.3333" y="0">路由规则判断</tspan><tspan font-size="19" x="275.588" y="-183.946">2.</tspan><tspan font-family="SimHei,SimHei_MSFontService,sans-serif" font-size="19" x="297.922" y="-183.946">拉取服务列表</tspan></text><path d="M604.504 341.267 625.837 341.328 625.829 343.995 604.496 343.934ZM633.837 341.351 655.17 341.412 655.163 344.08 633.829 344.018ZM663.17 341.435 684.504 341.497 684.496 344.164 663.163 344.103ZM692.504 341.52 713.837 341.581 713.829 344.248 692.496 344.187ZM721.837 341.604 743.17 341.665 743.162 344.333 721.829 344.271ZM751.17 341.688 772.503 341.749 772.496 344.417 751.162 344.356ZM780.503 341.772 801.836 341.834 801.829 344.501 780.495 344.44ZM809.836 341.857 831.17 341.918 831.162 344.586 809.829 344.524ZM839.17 341.941 860.503 342.002 860.495 344.67 839.162 344.609ZM868.503 342.025 889.836 342.087 889.828 344.754 868.495 344.693ZM897.836 342.11 919.169 342.171 919.162 344.838 897.828 344.777ZM927.169 342.194 929.868 342.202 929.86 344.869 927.162 344.861ZM928.54 339.53 936.529 343.555 928.517 347.533Z" fill="#4A7EBB"/><path d="M0.365172-1.28235 20.8828 4.5604 20.1525 7.1251-0.365172 1.28235ZM28.5769 6.75143 49.0946 12.5942 48.3642 15.1589 27.8466 9.31613ZM56.7887 14.7852 77.3063 20.628 76.576 23.1927 56.0583 17.3499ZM85.0004 22.819 105.518 28.6617 104.788 31.2264 84.2701 25.3837ZM113.212 30.8528 133.73 36.6955 132.999 39.2602 112.482 33.4175ZM141.424 38.8865 161.942 44.7293 161.211 47.294 140.694 41.4512ZM169.636 46.9203 190.153 52.7631 189.423 55.3278 168.905 49.485ZM197.847 54.9541 218.365 60.7969 217.635 63.3616 197.117 57.5188ZM226.059 62.9879 246.577 68.8306 245.846 71.3953 225.329 65.5526ZM254.271 71.0217 274.789 76.8644 274.058 79.4291 253.541 73.5864ZM282.483 79.0554 303 84.8982 302.27 87.4629 281.752 81.6201ZM310.694 87.0892 325.778 91.3845 325.048 93.9492 309.964 89.6539ZM325.225 88.4544 331.824 94.4925 323.034 96.1485Z" fill="#4A7EBB" transform="matrix(1 0 0 -1.00029 604.5 343.093)"/><text fill="#595959" font-family="Monaco,Monaco_MSFontService,sans-serif" font-weight="400" font-size="19" transform="matrix(1 0 0 1.00029 721.059 332)">3.<tspan font-family="SimHei,SimHei_MSFontService,sans-serif" font-size="19" x="22.3333" y="0">负载均衡，发送请求</tspan><tspan font-size="19" x="-104.709" y="41.9877">http</tspan><tspan font-size="19" x="-60.0423" y="41.9877">://localhost:</tspan><tspan font-size="19" x="85.1243" y="41.9877">8082/user/1</tspan></text></g></svg>