<svg width="978" height="189" xmlns="http://www.w3.org/2000/svg" xmlns:xlink="http://www.w3.org/1999/xlink" overflow="hidden"><defs><filter id="fx0" x="-10%" y="-10%" width="120%" height="120%" filterUnits="userSpaceOnUse" primitiveUnits="userSpaceOnUse"><feComponentTransfer color-interpolation-filters="sRGB"><feFuncR type="discrete" tableValues="0 0"/><feFuncG type="discrete" tableValues="0 0"/><feFuncB type="discrete" tableValues="0 0"/><feFuncA type="linear" slope="0.34902" intercept="0"/></feComponentTransfer><feGaussianBlur stdDeviation="1.4003 1.39983"/></filter><filter id="fx1" x="-10%" y="-10%" width="120%" height="120%" filterUnits="userSpaceOnUse" primitiveUnits="userSpaceOnUse"><feComponentTransfer color-interpolation-filters="sRGB"><feFuncR type="discrete" tableValues="0 0"/><feFuncG type="discrete" tableValues="0 0"/><feFuncB type="discrete" tableValues="0 0"/><feFuncA type="linear" slope="0.34902" intercept="0"/></feComponentTransfer><feGaussianBlur stdDeviation="1.4003 1.39983"/></filter><filter id="fx2" x="-10%" y="-10%" width="120%" height="120%" filterUnits="userSpaceOnUse" primitiveUnits="userSpaceOnUse"><feComponentTransfer color-interpolation-filters="sRGB"><feFuncR type="discrete" tableValues="0 0"/><feFuncG type="discrete" tableValues="0 0"/><feFuncB type="discrete" tableValues="0 0"/><feFuncA type="linear" slope="0.34902" intercept="0"/></feComponentTransfer><feGaussianBlur stdDeviation="1.4003 1.39983"/></filter><filter id="fx3" x="-10%" y="-10%" width="120%" height="120%" filterUnits="userSpaceOnUse" primitiveUnits="userSpaceOnUse"><feComponentTransfer color-interpolation-filters="sRGB"><feFuncR type="discrete" tableValues="0 0"/><feFuncG type="discrete" tableValues="0 0"/><feFuncB type="discrete" tableValues="0 0"/><feFuncA type="linear" slope="0.34902" intercept="0"/></feComponentTransfer><feGaussianBlur stdDeviation="1.4003 1.39983"/></filter><filter id="fx4" x="-10%" y="-10%" width="120%" height="120%" filterUnits="userSpaceOnUse" primitiveUnits="userSpaceOnUse"><feComponentTransfer color-interpolation-filters="sRGB"><feFuncR type="discrete" tableValues="0 0"/><feFuncG type="discrete" tableValues="0 0"/><feFuncB type="discrete" tableValues="0 0"/><feFuncA type="linear" slope="0.380392" intercept="0"/></feComponentTransfer><feGaussianBlur stdDeviation="1.4003 1.39983"/></filter><filter id="fx5" x="-10%" y="-10%" width="120%" height="120%" filterUnits="userSpaceOnUse" primitiveUnits="userSpaceOnUse"><feComponentTransfer color-interpolation-filters="sRGB"><feFuncR type="discrete" tableValues="0 0"/><feFuncG type="discrete" tableValues="0 0"/><feFuncB type="discrete" tableValues="0 0"/><feFuncA type="linear" slope="0.380392" intercept="0"/></feComponentTransfer><feGaussianBlur stdDeviation="1.4003 1.39983"/></filter><filter id="fx6" x="-10%" y="-10%" width="120%" height="120%" filterUnits="userSpaceOnUse" primitiveUnits="userSpaceOnUse"><feComponentTransfer color-interpolation-filters="sRGB"><feFuncR type="discrete" tableValues="0 0"/><feFuncG type="discrete" tableValues="0 0"/><feFuncB type="discrete" tableValues="0 0"/><feFuncA type="linear" slope="0.380392" intercept="0"/></feComponentTransfer><feGaussianBlur stdDeviation="1.4003 1.39983"/></filter><filter id="fx7" x="-10%" y="-10%" width="120%" height="120%" filterUnits="userSpaceOnUse" primitiveUnits="userSpaceOnUse"><feComponentTransfer color-interpolation-filters="sRGB"><feFuncR type="discrete" tableValues="0 0"/><feFuncG type="discrete" tableValues="0 0"/><feFuncB type="discrete" tableValues="0 0"/><feFuncA type="linear" slope="0.380392" intercept="0"/></feComponentTransfer><feGaussianBlur stdDeviation="1.4003 1.39983"/></filter><clipPath id="clip8"><rect x="0" y="0" width="978" height="189"/></clipPath><clipPath id="clip9"><path d="M69.667 61.4791C63.4997 61.4791 58.5 66.4769 58.5 72.6422L58.5 117.293C58.5 123.458 63.4997 128.456 69.667 128.456L184.333 128.456C190.5 128.456 195.5 123.458 195.5 117.293L195.5 72.6422C195.5 66.4769 190.5 61.4791 184.333 61.4791ZM1.45733e-05 2.81632e-06 978 2.81632e-06 978 189 1.45733e-05 189Z" fill-rule="evenodd" clip-rule="evenodd"/></clipPath><clipPath id="clip10"><rect x="1" y="1" width="149" height="79"/></clipPath><clipPath id="clip11"><rect x="0" y="0" width="150" height="80"/></clipPath><clipPath id="clip12"><rect x="13" y="9" width="109" height="31"/></clipPath><clipPath id="clip13"><rect x="0" y="0" width="135" height="51"/></clipPath><linearGradient x1="127" y1="128.456" x2="127" y2="61.4791" gradientUnits="userSpaceOnUse" spreadMethod="reflect" id="fill14"><stop offset="0" stop-color="#2C5D98"/><stop offset="0.8" stop-color="#3C7BC7"/><stop offset="1" stop-color="#3A7CCB"/></linearGradient><clipPath id="clip15"><path d="M789.667 61.4791C783.5 61.4791 778.5 66.4769 778.5 72.6422L778.5 117.293C778.5 123.458 783.5 128.456 789.667 128.456L904.333 128.456C910.5 128.456 915.5 123.458 915.5 117.293L915.5 72.6422C915.5 66.4769 910.5 61.4791 904.333 61.4791ZM1.45733e-05 2.81632e-06 978 2.81632e-06 978 189 1.45733e-05 189Z" fill-rule="evenodd" clip-rule="evenodd"/></clipPath><clipPath id="clip16"><rect x="-1" y="1" width="151" height="79"/></clipPath><clipPath id="clip17"><rect x="0" y="0" width="150" height="80"/></clipPath><clipPath id="clip18"><rect x="13" y="13" width="97" height="23"/></clipPath><clipPath id="clip19"><rect x="0" y="0" width="123" height="51"/></clipPath><linearGradient x1="847" y1="128.456" x2="847" y2="61.4791" gradientUnits="userSpaceOnUse" spreadMethod="reflect" id="fill20"><stop offset="0" stop-color="#769535"/><stop offset="0.8" stop-color="#9BC348"/><stop offset="1" stop-color="#9CC746"/></linearGradient><clipPath id="clip21"><path d="M371.375 55.4808C365.921 55.4808 361.5 73.1596 361.5 94.9675 361.5 116.775 365.921 134.454 371.375 134.454L602.625 134.454C608.079 134.454 612.5 116.776 612.5 94.9678 612.5 73.1599 608.079 55.4811 602.625 55.4811ZM1.45733e-05 2.81632e-06 978 2.81632e-06 978 189 1.45733e-05 189Z" fill-rule="evenodd" clip-rule="evenodd"/></clipPath><clipPath id="clip22"><rect x="-1" y="1" width="265" height="91"/></clipPath><clipPath id="clip23"><rect x="0" y="0" width="264" height="92"/></clipPath><clipPath id="clip24"><rect x="13" y="13" width="65" height="25"/></clipPath><clipPath id="clip25"><rect x="0" y="0" width="90" height="50"/></clipPath><linearGradient x1="612.5" y1="94.9677" x2="361.5" y2="94.9677" gradientUnits="userSpaceOnUse" spreadMethod="reflect" id="fill26"><stop offset="0" stop-color="#FFA2A1"/><stop offset="0.35" stop-color="#FFBEBD"/><stop offset="1" stop-color="#FFE5E5"/></linearGradient><linearGradient x1="612.5" y1="94.9677" x2="361.5" y2="94.9677" gradientUnits="userSpaceOnUse" spreadMethod="reflect" id="fill27"><stop offset="0" stop-color="#FFC7C7"/><stop offset="0.35" stop-color="#FFD8D7"/><stop offset="1" stop-color="#FFEFEF"/></linearGradient><clipPath id="clip28"><rect x="-1" y="3" width="179" height="21"/></clipPath><clipPath id="clip29"><rect x="0" y="0" width="186" height="28"/></clipPath><clipPath id="clip30"><rect x="1" y="3" width="177" height="21"/></clipPath><clipPath id="clip31"><rect x="0" y="0" width="187" height="28"/></clipPath></defs><g clip-path="url(#clip8)"><rect x="0" y="0" width="978" height="188.936" fill="#FFFFFF"/><g clip-path="url(#clip9)"><g clip-path="url(#clip10)" filter="url(#fx0)" transform="translate(52 57)"><g clip-path="url(#clip11)"><path d="M6.50005 18.0569C6.50005 11.8916 11.4996 6.89375 17.667 6.89375L132.333 6.89375C138.5 6.89375 143.5 11.8916 143.5 18.0569L143.5 62.7078C143.5 68.873 138.5 73.8709 132.333 73.8709L17.667 73.8709C11.4996 73.8709 6.50005 68.873 6.50005 62.7078Z" stroke="#4A7EBB" stroke-linejoin="round" stroke-miterlimit="10" fill="#FF0000" fill-rule="evenodd"/></g></g><g clip-path="url(#clip12)" filter="url(#fx1)" transform="translate(59 74)"><g clip-path="url(#clip13)"><path d="M3.03369-8.03418C3.479-8.75163 4.03255-9.35156 4.69434-9.83398 5.44889-10.3783 6.20654-10.6504 6.96729-10.6504 8.09294-10.6504 8.96191-10.1525 9.57422-9.15674 10.0876-8.32178 10.3442-7.31055 10.3442-6.12305 10.3442-5.02214 10.1401-4.00781 9.73193-3.08008 9.29281-2.07194 8.65267-1.271 7.81152-0.677246 7.0446-0.12679 6.09521 0.148438 4.96338 0.148438 4.62321 0.148438 4.12842 0.114421 3.479 0.0463867 3.3986 0.0402018 3.25016 0.0247396 3.03369 0L3.03369 4.02637 1.30811 4.02637 1.30811-10.3628 3.03369-10.3628ZM3.03369-5.98389 3.03369-1.54004C3.65837-1.37923 4.23356-1.29883 4.75928-1.29883 5.95296-1.29883 6.88997-1.78125 7.57031-2.74609 8.17025-3.59961 8.47021-4.64795 8.47021-5.89111 8.47021-6.64567 8.34033-7.30745 8.08057-7.87646 7.73421-8.62484 7.22705-8.99902 6.55908-8.99902 5.90967-8.99902 5.22005-8.63721 4.49023-7.91357 3.93978-7.3693 3.45426-6.72607 3.03369-5.98389ZM21.1436-10.3628 21.1436 0 19.418 0 19.418-2.27295C18.3048-0.565918 17.0059 0.287598 15.5215 0.287598 14.9278 0.287598 14.3835 0.132975 13.8887-0.17627 13.3692-0.504069 13.0074-0.940104 12.8033-1.48438 12.6054-2.01009 12.5064-3.03988 12.5064-4.57373L12.5064-10.3628 14.232-10.3628 14.232-4.36035C14.232-3.57487 14.2475-3.08317 14.2784-2.88525 14.3588-2.29769 14.5691-1.87093 14.9092-1.60498 15.1628-1.40088 15.4381-1.29883 15.7349-1.29883 16.4338-1.29883 17.1575-1.64827 17.9058-2.34717 18.5243-2.91618 19.0284-3.57487 19.418-4.32324L19.418-10.3628ZM25.3746-8.03418C25.82-8.75163 26.3735-9.35156 27.0353-9.83398 27.7898-10.3783 28.5475-10.6504 29.3082-10.6504 30.4339-10.6504 31.3029-10.1525 31.9152-9.15674 32.4285-8.32178 32.6852-7.31055 32.6852-6.12305 32.6852-5.02214 32.4811-4.00781 32.0729-3.08008 31.6338-2.07194 30.9936-1.271 30.1525-0.677246 29.3855-0.12679 28.4362 0.148438 27.3043 0.148438 26.9642 0.148438 26.4694 0.114421 25.82 0.0463867 25.7395 0.0402018 25.5911 0.0247396 25.3746 0L23.6491 0 23.6491-14.9736 25.3746-14.9736ZM25.3746-5.98389 25.3746-1.54004C25.9993-1.37923 26.5745-1.29883 27.1002-1.29883 28.2939-1.29883 29.2309-1.78125 29.9113-2.74609 30.5112-3.59961 30.8112-4.64795 30.8112-5.89111 30.8112-6.64567 30.6813-7.30745 30.4215-7.87646 30.0752-8.62484 29.568-8.99902 28.9-8.99902 28.2506-8.99902 27.561-8.63721 26.8312-7.91357 26.2807-7.3693 25.7952-6.72607 25.3746-5.98389ZM37.7419 0 37.7419-13.5264 34.6433-13.5264 34.6433-14.9736 39.4675-14.9736 39.4675-1.44727 42.7053-1.44727 42.7053 0ZM49.033 0 49.033-8.91553 46.157-8.91553 46.157-10.3628 50.7586-10.3628 50.7586-1.44727 53.6438-1.44727 53.6438 0ZM48.7454-14.1016C48.7454-14.4232 48.8567-14.6969 49.0794-14.9226 49.302-15.1484 49.5742-15.2612 49.8958-15.2612 50.2174-15.2612 50.4911-15.1484 50.7168-14.9226 50.9426-14.6969 51.0554-14.4232 51.0554-14.1016 51.0554-13.7861 50.9426-13.5155 50.7168-13.2898 50.4911-13.064 50.2174-12.9512 49.8958-12.9512 49.5803-12.9512 49.3097-13.064 49.084-13.2898 48.8582-13.5155 48.7454-13.7861 48.7454-14.1016ZM57.411-0.547363 57.411-2.375C58.6665-1.56478 60.055-1.15967 61.5765-1.15967 63.2155-1.15967 64.035-1.65088 64.035-2.63332 64.035-3.01021 63.8494-3.32535 63.4783-3.57874 63.3052-3.69615 62.9557-3.86295 62.43-4.07913L61.8363-4.3202 60.6395-4.79291C59.6561-5.18217 58.985-5.51891 58.6263-5.80312 58.0078-6.29125 57.6986-6.93076 57.6986-7.72165 57.6986-8.79057 58.1562-9.57219 59.0716-10.0665 59.7829-10.4558 60.723-10.6504 61.8919-10.6504 62.999-10.6504 64.0474-10.4896 65.0369-10.168L65.0369-8.6001C63.8989-9.00212 62.8289-9.20312 61.827-9.20312 61.2703-9.20312 60.7817-9.11663 60.3612-8.94365 59.786-8.70263 59.4984-8.34115 59.4984-7.85921 59.4984-7.44521 59.786-7.08064 60.3612-6.7655 60.5653-6.65437 61.0322-6.46592 61.762-6.20016L62.931-5.77384C63.8402-5.44024 64.505-5.09732 64.9256-4.74507 65.5317-4.23221 65.8348-3.58033 65.8348-2.78944 65.8348-1.67731 65.3647-0.858637 64.4246-0.333405 63.6824 0.0805969 62.7052 0.287598 61.493 0.287598 60.1694 0.287598 58.8088 0.00927733 57.411-0.547363ZM68.4608 0 68.4608-14.9736 70.1864-14.9736 70.1864-8.09912C70.6379-8.82275 71.1822-9.41341 71.8192-9.87109 72.5552-10.3906 73.3067-10.6504 74.0736-10.6504 74.6179-10.6504 75.1281-10.5174 75.6044-10.2515 76.1177-9.96077 76.4826-9.5804 76.6991-9.11035 76.9032-8.66504 77.03-8.12077 77.0795-7.47754 77.0919-7.26725 77.098-6.70443 77.098-5.78906L77.098 0 75.3725 0 75.3725-6.00244C75.3725-6.78792 75.357-7.27962 75.3261-7.47754 75.2457-8.0651 75.0385-8.49186 74.7045-8.75781 74.4447-8.96191 74.1633-9.06396 73.8602-9.06396 73.1675-9.06396 72.4439-8.71452 71.6893-8.01562 71.077-7.44661 70.5761-6.78792 70.1864-6.03955L70.1864 0ZM88.25-0.686523C86.8707-0.0309245 85.5657 0.296875 84.3349 0.296875 82.4052 0.296875 80.9827-0.599935 80.0673-2.39355 79.622-3.25326 79.3994-4.1748 79.3994-5.1582 79.3994-6.10449 79.6035-7.0013 80.0117-7.84863 80.4384-8.73926 81.0306-9.42887 81.7883-9.91748 82.5459-10.4061 83.3886-10.6504 84.3164-10.6504 85.7636-10.6504 86.8367-10.0907 87.5356-8.97119 88.1108-8.04964 88.3984-6.81575 88.3984-5.26953L88.3984-4.89844 81.2548-4.89844C81.2548-4.23047 81.3878-3.60889 81.6538-3.03369 81.9445-2.39665 82.3557-1.91732 82.8876-1.5957 83.3763-1.29883 83.9329-1.15039 84.5576-1.15039 85.6709-1.15039 86.9016-1.52148 88.25-2.26367ZM81.3569-6.18799 86.5244-6.18799 86.5244-6.43775C86.5244-7.21463 86.3419-7.85279 85.977-8.35222 85.5688-8.91949 84.9905-9.20312 84.2421-9.20312 82.733-9.20312 81.7713-8.19808 81.3569-6.18799ZM91.6831 0 91.6831-10.3628 93.4087-10.3628 93.4087-8.09912C94.4787-9.79997 95.8703-10.6504 97.5835-10.6504 98.2082-10.6504 98.8329-10.5545 99.4575-10.3628L99.4575-6.62402 97.7969-6.62402 97.7969-8.98975C97.5062-9.03922 97.2774-9.06396 97.1104-9.06396 95.8177-9.06396 94.5838-8.04964 93.4087-6.021L93.4087 0Z" fill="#FFFFFF" transform="matrix(1 0 0 0.999659 17.376 30)"/></g></g></g><path d="M58.5 72.6422C58.5 66.4769 63.4996 61.4791 69.6669 61.4791L184.333 61.4791C190.5 61.4791 195.5 66.4769 195.5 72.6422L195.5 117.293C195.5 123.458 190.5 128.456 184.333 128.456L69.6669 128.456C63.4996 128.456 58.5 123.458 58.5 117.293Z" stroke="#4A7EBB" stroke-width="1.00034" stroke-linejoin="round" stroke-miterlimit="10" fill="url(#fill14)" fill-rule="evenodd"/><text fill="#FFFFFF" font-family="Monaco,Monaco_MSFontService,sans-serif" font-weight="400" font-size="19" transform="matrix(1 0 0 0.999659 76.376 101)">publisher</text><g clip-path="url(#clip15)"><g clip-path="url(#clip16)" filter="url(#fx2)" transform="translate(772 57)"><g clip-path="url(#clip17)"><path d="M6.5 18.0569C6.5 11.8916 11.4996 6.89375 17.6669 6.89375L132.333 6.89375C138.5 6.89375 143.5 11.8916 143.5 18.0569L143.5 62.7078C143.5 68.873 138.5 73.8709 132.333 73.8709L17.6669 73.8709C11.4996 73.8709 6.5 68.873 6.5 62.7078Z" stroke="#98B954" stroke-linejoin="round" stroke-miterlimit="10" fill="#FF0000" fill-rule="evenodd"/></g></g><g clip-path="url(#clip18)" filter="url(#fx3)" transform="translate(785 74)"><g clip-path="url(#clip19)"><path d="M10.1587-0.296875C9.00212 0.0927734 7.9012 0.287598 6.85596 0.287598 5.86019 0.287598 4.95719 0.061849 4.14697-0.389648 3.3182-0.859701 2.66878-1.52458 2.19873-2.38428 1.74723-3.20068 1.52148-4.13151 1.52148-5.17676 1.52148-6.69824 2.01318-7.9847 2.99658-9.03613 3.99854-10.1123 5.25407-10.6504 6.76318-10.6504 7.83317-10.6504 8.96501-10.4494 10.1587-10.0474L10.1587-8.38672C8.95264-8.93099 7.87337-9.20312 6.9209-9.20312 5.46126-9.20312 4.43766-8.56067 3.8501-7.27576 3.54704-6.61475 3.39551-5.93518 3.39551-5.23706 3.39551-4.11276 3.71712-3.18614 4.36035-2.45719 5.02832-1.68495 5.91585-1.29883 7.02295-1.29883 7.8208-1.29883 8.86605-1.51839 10.1587-1.95752ZM16.876 0.287598C15.3546 0.287598 14.1423-0.253581 13.2393-1.33594 12.3982-2.35026 11.9776-3.63363 11.9776-5.18604 11.9776-6.73844 12.4013-8.01872 13.2486-9.02686 14.1454-10.1092 15.3546-10.6504 16.876-10.6504 18.3913-10.6504 19.6005-10.1092 20.5035-9.02686 21.3446-8.01253 21.7652-6.73226 21.7652-5.18604 21.7652-3.63981 21.3446-2.35645 20.5035-1.33594 19.6005-0.253581 18.3913 0.287598 16.876 0.287598ZM16.876-1.15967C17.9151-1.15967 18.7006-1.5916 19.2325-2.45545 19.6716-3.17126 19.8912-4.08145 19.8912-5.18604 19.8912-6.28443 19.6685-7.19154 19.2232-7.90734 18.6913-8.7712 17.9089-9.20312 16.876-9.20312 15.837-9.20312 15.0515-8.77424 14.5196-7.91647 14.0743-7.20076 13.8516-6.29062 13.8516-5.18604 13.8516-4.08145 14.0743-3.17126 14.5196-2.45545 15.0515-1.5916 15.837-1.15967 16.876-1.15967ZM23.7789 0 23.7789-10.3628 25.5045-10.3628 25.5045-8.09912C25.956-8.82275 26.5003-9.41341 27.1373-9.87109 27.8733-10.3906 28.6248-10.6504 29.3917-10.6504 29.9917-10.6504 30.5437-10.4927 31.0477-10.1772 31.5518-9.86182 31.9059-9.4366 32.11-8.90161 32.3141-8.36662 32.4161-7.3291 32.4161-5.78906L32.4161 0 30.6906 0 30.6906-6.00244C30.6906-6.78792 30.6751-7.27962 30.6442-7.47754 30.5638-8.0651 30.3566-8.49186 30.0226-8.75781 29.7628-8.96191 29.4814-9.06396 29.1784-9.06396 28.4856-9.06396 27.762-8.71452 27.0075-8.01562 26.3951-7.44661 25.8942-6.78792 25.5045-6.03955L25.5045 0ZM35.07-0.547363 35.07-2.375C36.3255-1.56478 37.7141-1.15967 39.2355-1.15967 40.8745-1.15967 41.694-1.65088 41.694-2.63332 41.694-3.01021 41.5085-3.32535 41.1374-3.57874 40.9642-3.69615 40.6148-3.86295 40.0891-4.07913L39.4953-4.3202 38.2985-4.79291C37.3151-5.18217 36.6441-5.51891 36.2853-5.80312 35.6669-6.29125 35.3576-6.93076 35.3576-7.72165 35.3576-8.79057 35.8153-9.57219 36.7307-10.0665 37.4419-10.4558 38.382-10.6504 39.551-10.6504 40.6581-10.6504 41.7064-10.4896 42.696-10.168L42.696-8.6001C41.558-9.00212 40.488-9.20312 39.486-9.20312 38.9294-9.20312 38.4408-9.11663 38.0202-8.94365 37.445-8.70263 37.1574-8.34115 37.1574-7.85921 37.1574-7.44521 37.445-7.08064 38.0202-6.7655 38.2243-6.65437 38.6913-6.46592 39.4211-6.20016L40.59-5.77384C41.4992-5.44024 42.1641-5.09732 42.5847-4.74507 43.1908-4.23221 43.4938-3.58033 43.4938-2.78944 43.4938-1.67731 43.0238-0.858637 42.0837-0.333405 41.3415 0.0805969 40.3643 0.287598 39.152 0.287598 37.8285 0.287598 36.4678 0.00927733 35.07-0.547363ZM54.655-10.3628 54.655 0 52.9295 0 52.9295-2.27295C51.8162-0.565918 50.5173 0.287598 49.033 0.287598 48.4392 0.287598 47.8949 0.132975 47.4002-0.17627 46.8806-0.504069 46.5188-0.940104 46.3147-1.48438 46.1168-2.01009 46.0178-3.03988 46.0178-4.57373L46.0178-10.3628 47.7434-10.3628 47.7434-4.36035C47.7434-3.57487 47.7589-3.08317 47.7898-2.88525 47.8702-2.29769 48.0805-1.87093 48.4207-1.60498 48.6742-1.40088 48.9495-1.29883 49.2463-1.29883 49.9452-1.29883 50.6689-1.64827 51.4172-2.34717 52.0357-2.91618 52.5398-3.57487 52.9295-4.32324L52.9295-10.3628ZM56.5111 0 56.5111-10.3628 58.0233-10.3628 58.0233-7.98779C58.8662-9.76286 59.7278-10.6504 60.608-10.6504 61.1907-10.6504 61.6277-10.4061 61.919-9.91748 62.1607-9.51546 62.2816-9.00521 62.2816-8.38672L62.2816-7.83008C62.6333-8.93099 63.1764-9.75667 63.9109-10.3071 64.2195-10.536 64.5743-10.6504 64.9755-10.6504 66.0493-10.6504 66.5863-9.71029 66.5863-7.83008L66.5863 0 65.0741 0 65.0741-7.07861C65.0741-8.01253 64.9816-8.57227 64.7966-8.75781 64.6857-8.86914 64.5655-8.9248 64.4361-8.9248 63.7148-8.9248 62.9966-7.86409 62.2816-5.74268L62.2816 0 60.825 0 60.825-7.06934C60.825-8.30631 60.5745-8.9248 60.0736-8.9248 59.4551-8.9248 58.7716-7.9445 58.0233-5.98389L58.0233 0ZM77.0795-0.686523C75.7002-0.0309245 74.3952 0.296875 73.1644 0.296875 71.2348 0.296875 69.8122-0.599935 68.8969-2.39355 68.4516-3.25326 68.2289-4.1748 68.2289-5.1582 68.2289-6.10449 68.433-7.0013 68.8412-7.84863 69.268-8.73926 69.8602-9.42887 70.6178-9.91748 71.3755-10.4061 72.2182-10.6504 73.1459-10.6504 74.5932-10.6504 75.6662-10.0907 76.3651-8.97119 76.9403-8.04964 77.2279-6.81575 77.2279-5.26953L77.2279-4.89844 70.0844-4.89844C70.0844-4.23047 70.2173-3.60889 70.4833-3.03369 70.774-2.39665 71.1853-1.91732 71.7172-1.5957 72.2058-1.29883 72.7624-1.15039 73.3871-1.15039 74.5004-1.15039 75.7312-1.52148 77.0795-2.26367ZM70.1864-6.18799 75.3539-6.18799 75.3539-6.43775C75.3539-7.21463 75.1714-7.85279 74.8065-8.35222 74.3983-8.91949 73.82-9.20312 73.0717-9.20312 71.5626-9.20312 70.6008-8.19808 70.1864-6.18799ZM80.5126 0 80.5126-10.3628 82.2382-10.3628 82.2382-8.09912C83.3082-9.79997 84.6998-10.6504 86.413-10.6504 87.0377-10.6504 87.6624-10.5545 88.2871-10.3628L88.2871-6.62402 86.6264-6.62402 86.6264-8.98975C86.3357-9.03922 86.1069-9.06396 85.9399-9.06396 84.6472-9.06396 83.4134-8.04964 82.2382-6.021L82.2382 0Z" fill="#FFFFFF" transform="matrix(1 0 0 0.999659 16.6104 30)"/></g></g></g><path d="M778.5 72.6422C778.5 66.4769 783.5 61.4791 789.667 61.4791L904.333 61.4791C910.5 61.4791 915.5 66.4769 915.5 72.6422L915.5 117.293C915.5 123.458 910.5 128.456 904.333 128.456L789.667 128.456C783.5 128.456 778.5 123.458 778.5 117.293Z" stroke="#98B954" stroke-width="1.00034" stroke-linejoin="round" stroke-miterlimit="10" fill="url(#fill20)" fill-rule="evenodd"/><text fill="#FFFFFF" font-family="Monaco,Monaco_MSFontService,sans-serif" font-weight="400" font-size="19" transform="matrix(1 0 0 0.999659 801.61 101)">consumer</text><g clip-path="url(#clip21)"><g clip-path="url(#clip22)" filter="url(#fx4)" transform="translate(355 51)"><g clip-path="url(#clip23)"><path d="M16.375 85.554C21.8288 85.554 26.25 67.8752 26.25 46.0673 26.25 24.2594 21.8288 6.58057 16.375 6.58057L247.625 6.58084C253.079 6.58084 257.5 24.2596 257.5 46.0675 257.5 67.8754 253.079 85.5542 247.625 85.5542Z" fill="#FF0000" fill-rule="evenodd"/><path d="M16.375 85.554C10.9212 85.554 6.49997 67.8752 6.49997 46.0673 6.49997 24.2594 10.9212 6.58057 16.375 6.58057 21.8288 6.58057 26.25 24.2594 26.25 46.0673 26.25 67.8752 21.8288 85.554 16.375 85.554Z" fill="#FF0000" fill-rule="evenodd"/><path d="M16.375 6.58084C21.8288 6.58084 26.25 24.2596 26.25 46.0675 26.25 67.8754 21.8288 85.5542 16.375 85.5542 10.9212 85.5542 6.49997 67.8754 6.49997 46.0675 6.49997 24.2596 10.9212 6.58084 16.375 6.58084L247.625 6.58084C253.079 6.58084 257.5 24.2596 257.5 46.0675 257.5 67.8754 253.079 85.5542 247.625 85.5542L16.375 85.554" stroke="#BE4B48" stroke-width="0.999659" stroke-linejoin="round" stroke-miterlimit="10" fill="none" fill-rule="evenodd"/></g></g><g clip-path="url(#clip24)" filter="url(#fx5)" transform="translate(446 74)"><g clip-path="url(#clip25)"><path d="M8.36816-2.32861C7.92904-1.61117 7.37549-1.01123 6.70752-0.528809 5.95296 0.0154622 5.19531 0.287598 4.43457 0.287598 3.3151 0.287598 2.44922-0.210286 1.83691-1.20605 1.32357-2.04102 1.06689-3.05225 1.06689-4.23975 1.06689-6.67041 1.90804-8.48877 3.59033-9.69482 4.35726-10.2391 5.30664-10.5112 6.43848-10.5112 6.78483-10.5112 7.27962-10.4772 7.92285-10.4092 8.00325-10.403 8.15169-10.3875 8.36816-10.3628L10.103-10.3628 10.103 4.02637 8.36816 4.02637ZM8.36816-4.37891 8.36816-8.82275C7.75586-8.98356 7.18685-9.06396 6.66113-9.06396 5.46126-9.06396 4.52116-8.58463 3.84082-7.62598 3.24089-6.77246 2.94092-5.72103 2.94092-4.47168 2.94092-3.72331 3.0708-3.06152 3.33057-2.48633 3.67074-1.73796 4.1748-1.36377 4.84277-1.36377 5.49219-1.36377 6.1849-1.72559 6.9209-2.44922 7.47135-2.99349 7.95378-3.63672 8.36816-4.37891ZM21.1436-10.3628 21.1436 0 19.418 0 19.418-2.27295C18.3048-0.565918 17.0059 0.287598 15.5215 0.287598 14.9278 0.287598 14.3835 0.132975 13.8887-0.17627 13.3692-0.504069 13.0074-0.940104 12.8033-1.48438 12.6054-2.01009 12.5064-3.03988 12.5064-4.57373L12.5064-10.3628 14.232-10.3628 14.232-4.36035C14.232-3.57487 14.2475-3.08317 14.2784-2.88525 14.3588-2.29769 14.5691-1.87093 14.9092-1.60498 15.1628-1.40088 15.4381-1.29883 15.7349-1.29883 16.4338-1.29883 17.1575-1.64827 17.9058-2.34717 18.5243-2.91618 19.0284-3.57487 19.418-4.32324L19.418-10.3628ZM32.3976-0.686523C31.0184-0.0309245 29.7133 0.296875 28.4825 0.296875 26.5529 0.296875 25.1303-0.599935 24.215-2.39355 23.7697-3.25326 23.547-4.1748 23.547-5.1582 23.547-6.10449 23.7511-7.0013 24.1593-7.84863 24.5861-8.73926 25.1783-9.42887 25.9359-9.91748 26.6936-10.4061 27.5363-10.6504 28.464-10.6504 29.9113-10.6504 30.9843-10.0907 31.6832-8.97119 32.2584-8.04964 32.546-6.81575 32.546-5.26953L32.546-4.89844 25.4025-4.89844C25.4025-4.23047 25.5354-3.60889 25.8014-3.03369 26.0921-2.39665 26.5034-1.91732 27.0353-1.5957 27.5239-1.29883 28.0805-1.15039 28.7052-1.15039 29.8185-1.15039 31.0493-1.52148 32.3976-2.26367ZM25.5045-6.18799 30.672-6.18799 30.672-6.43775C30.672-7.21463 30.4895-7.85279 30.1246-8.35222 29.7164-8.91949 29.1381-9.20312 28.3898-9.20312 26.8807-9.20312 25.9189-8.19808 25.5045-6.18799ZM43.4846-10.3628 43.4846 0 41.759 0 41.759-2.27295C40.6457-0.565918 39.3469 0.287598 37.8625 0.287598 37.2687 0.287598 36.7245 0.132975 36.2297-0.17627 35.7102-0.504069 35.3483-0.940104 35.1442-1.48438 34.9463-2.01009 34.8474-3.03988 34.8474-4.57373L34.8474-10.3628 36.5729-10.3628 36.5729-4.36035C36.5729-3.57487 36.5884-3.08317 36.6193-2.88525 36.6997-2.29769 36.91-1.87093 37.2502-1.60498 37.5038-1.40088 37.779-1.29883 38.0759-1.29883 38.7748-1.29883 39.4984-1.64827 40.2468-2.34717 40.8653-2.91618 41.3693-3.57487 41.759-4.32324L41.759-10.3628ZM54.7385-0.686523C53.3593-0.0309245 52.0543 0.296875 50.8235 0.296875 48.8938 0.296875 47.4713-0.599935 46.5559-2.39355 46.1106-3.25326 45.8879-4.1748 45.888-5.1582 45.8879-6.10449 46.092-7.0013 46.5003-7.84863 46.927-8.73926 47.5192-9.42887 48.2769-9.91748 49.0345-10.4061 49.8772-10.6504 50.8049-10.6504 52.2522-10.6504 53.3253-10.0907 54.0242-8.97119 54.5994-8.04964 54.887-6.81575 54.887-5.26953L54.887-4.89844 47.7434-4.89844C47.7434-4.23047 47.8764-3.60889 48.1423-3.03369 48.433-2.39665 48.8443-1.91732 49.3762-1.5957 49.8648-1.29883 50.4215-1.15039 51.0462-1.15039 52.1594-1.15039 53.3902-1.52148 54.7385-2.26367ZM47.8455-6.18799 53.013-6.18799 53.013-6.43775C53.0129-7.21463 52.8305-7.85279 52.4656-8.35222 52.0574-8.91949 51.4791-9.20312 50.7307-9.20312 49.2216-9.20312 48.2599-8.19808 47.8455-6.18799Z" transform="matrix(1 -2.44762e-16 2.45013e-16 0.999659 17.4494 29)"/></g></g></g><path d="M371.375 134.454C376.829 134.454 381.25 116.775 381.25 94.9675 381.25 73.1596 376.829 55.4808 371.375 55.4808L602.625 55.4811C608.079 55.4811 612.5 73.1599 612.5 94.9678 612.5 116.776 608.079 134.454 602.625 134.454Z" fill="url(#fill26)" fill-rule="evenodd"/><path d="M371.375 134.454C365.921 134.454 361.5 116.775 361.5 94.9675 361.5 73.1596 365.921 55.4808 371.375 55.4808 376.829 55.4808 381.25 73.1596 381.25 94.9675 381.25 116.775 376.829 134.454 371.375 134.454Z" fill="url(#fill27)" fill-rule="evenodd"/><path d="M371.375 55.4811C376.829 55.4811 381.25 73.1599 381.25 94.9678 381.25 116.776 376.829 134.454 371.375 134.454 365.921 134.454 361.5 116.776 361.5 94.9678 361.5 73.1599 365.921 55.4811 371.375 55.4811L602.625 55.4811C608.079 55.4811 612.5 73.1599 612.5 94.9678 612.5 116.776 608.079 134.454 602.625 134.454L371.375 134.454" stroke="#BE4B48" stroke-linejoin="round" stroke-miterlimit="10" fill="none" fill-rule="evenodd"/><text font-family="Monaco,Monaco_MSFontService,sans-serif" font-weight="400" font-size="19" transform="matrix(1 -2.44762e-16 2.45013e-16 0.999659 463.449 101)">queue</text><g clip-path="url(#clip28)" filter="url(#fx6)" transform="translate(190 84)"><g clip-path="url(#clip29)"><path d="M9.48352e-07-1.49949 158.503-1.49939 158.503 1.49959-9.48352e-07 1.49949ZM157.003-4.49837 166 0.000104987 157.003 4.49857Z" fill="#4F81BD" transform="matrix(1.00034 0 0 -1 5.50002 13.5672)"/></g></g><path d="M8.43267e-07-1.33333 159.334-1.33323 159.334 1.33343-8.43267e-07 1.33333ZM158-3.9999 166 0.000104987 158 4.0001Z" fill="#4F81BD" transform="matrix(1.00034 0 0 -1 195.5 95.4675)"/><g clip-path="url(#clip30)" filter="url(#fx7)" transform="translate(606 84)"><g clip-path="url(#clip31)"><path d="M6.5 12.0676 165.057 12.0679 165.057 15.0668 6.5 15.0666ZM163.557 9.06887 172.557 13.5673 163.557 18.0658Z" fill="#4F81BD"/></g></g><path d="M612.5 94.1341 771.888 94.1343 771.888 96.8009 612.5 96.8007ZM770.554 91.4676 778.557 95.4676 770.554 99.4676Z" fill="#4F81BD"/></g></svg>