<svg width="1280" height="720" xmlns="http://www.w3.org/2000/svg" xmlns:xlink="http://www.w3.org/1999/xlink" overflow="hidden"><defs><clipPath id="clip0"><rect x="0" y="0" width="1280" height="720"/></clipPath></defs><g clip-path="url(#clip0)"><rect x="0" y="0" width="1280" height="720" fill="#FFFFFF"/><text fill="#595959" font-family="HarmonyOS Sans SC,HarmonyOS Sans SC_MSFontService,sans-serif" font-weight="400" font-size="24" transform="translate(69.9603 619)">字节缓冲输入流<tspan font-size="24" x="340.622" y="0">字节缓冲输出流</tspan><tspan font-size="24" x="630.246" y="0">字符缓冲输入流</tspan><tspan font-size="24" x="984.541" y="0">字符缓冲输出流</tspan></text><path d="M248.5 236C248.5 231.306 252.306 227.5 257 227.5L391 227.5C395.694 227.5 399.5 231.306 399.5 236L399.5 270C399.5 274.694 395.694 278.5 391 278.5L257 278.5C252.306 278.5 248.5 274.694 248.5 270Z" stroke="#4BACC6" stroke-width="2.66667" stroke-linejoin="round" stroke-miterlimit="10" fill="#FFFFFF" fill-rule="evenodd"/><text font-family="HarmonyOS Sans SC,HarmonyOS Sans SC_MSFontService,sans-serif" font-weight="400" font-size="24" transform="translate(287.737 261)">字节流</text><path d="M98.5001 328.834C98.5001 324.231 102.231 320.5 106.834 320.5L290.167 320.5C294.769 320.5 298.5 324.231 298.5 328.834L298.5 362.167C298.5 366.769 294.769 370.5 290.167 370.5L106.834 370.5C102.231 370.5 98.5001 366.769 98.5001 362.167Z" stroke="#00B0F0" stroke-width="2.66667" stroke-linejoin="round" stroke-miterlimit="10" fill="#FFFFFF" fill-rule="evenodd"/><text font-family="HarmonyOS Sans SC,HarmonyOS Sans SC_MSFontService,sans-serif" font-weight="400" font-size="24" transform="translate(129.733 354)">InputStream</text><path d="M876.5 236C876.5 231.306 880.306 227.5 885 227.5L1019 227.5C1023.69 227.5 1027.5 231.306 1027.5 236L1027.5 270C1027.5 274.694 1023.69 278.5 1019 278.5L885 278.5C880.306 278.5 876.5 274.694 876.5 270Z" stroke="#4BACC6" stroke-width="2.66667" stroke-linejoin="round" stroke-miterlimit="10" fill="#FFFFFF" fill-rule="evenodd"/><text font-family="HarmonyOS Sans SC,HarmonyOS Sans SC_MSFontService,sans-serif" font-weight="400" font-size="24" transform="translate(915.5 261)">字符流</text><path d="M543.5 99.0002C543.5 94.3057 547.306 90.5001 552 90.5001L687 90.5001C691.694 90.5001 695.5 94.3057 695.5 99.0002L695.5 133C695.5 137.694 691.694 141.5 687 141.5L552 141.5C547.306 141.5 543.5 137.694 543.5 133Z" stroke="#4BACC6" stroke-width="2.66667" stroke-linejoin="round" stroke-miterlimit="10" fill="#FFFFFF" fill-rule="evenodd"/><text font-family="HarmonyOS Sans SC,HarmonyOS Sans SC_MSFontService,sans-serif" font-weight="400" font-size="24" transform="translate(570.643 124)">IO<tspan font-size="24" x="24.6667" y="0">流体系</tspan></text><path d="M1070.5 127.834C1070.5 123.231 1074.23 119.5 1078.83 119.5L1213.17 119.5C1217.77 119.5 1221.5 123.231 1221.5 127.834L1221.5 161.166C1221.5 165.769 1217.77 169.5 1213.17 169.5L1078.83 169.5C1074.23 169.5 1070.5 165.769 1070.5 161.166Z" stroke="#00B0F0" stroke-width="2.66667" stroke-linejoin="round" stroke-miterlimit="10" fill="#FFFFFF" fill-rule="evenodd"/><text font-family="HarmonyOS Sans SC,HarmonyOS Sans SC_MSFontService,sans-serif" font-weight="400" font-size="24" transform="translate(1109.78 152)">抽象类</text><path d="M621.067 141.621 620.88 143.683C620.87 143.79 620.848 143.895 620.813 143.996L620.125 145.996 619.064 148.207C619.031 148.276 618.992 148.341 618.947 148.403L617.51 150.403 615.602 152.52 613.311 154.561 607.832 158.519 601.017 162.351 593.047 166.024 584.023 169.435 574.022 172.645 563.151 175.599 551.535 178.238 539.3 180.56 526.502 182.506 513.341 184.136 499.788 185.266 486 186.019 472.139 186.271 458.326 186.521 444.625 187.269 431.163 188.391 418.091 190.011 405.377 191.943 393.238 194.248 381.722 196.863 370.964 199.787 361.084 202.957 352.21 206.31 344.414 209.84 337.829 213.538 332.582 217.332 330.514 219.234 328.79 221.145 328.997 220.841 328.086 222.684 325.695 221.503 326.607 219.659C326.661 219.549 326.731 219.446 326.814 219.355L328.715 217.266 331.022 215.169 336.525 211.212 343.315 207.41 351.268 203.815 360.27 200.418 370.265 197.213 381.132 194.262 392.741 191.628 404.977 189.307 417.763 187.364 430.941 185.734 444.479 184.606 458.278 183.854 472.09 183.604 485.854 183.356 499.566 182.609 513.013 181.489 526.102 179.869 538.803 177.94 550.944 175.637 562.452 173.026 573.207 170.105 583.081 166.94 591.932 163.601 599.712 160.025 606.272 156.356 611.543 152.564 613.626 150.73 615.344 148.847 616.782 146.847 616.665 147.043 617.603 145.129 618.291 143.129 618.224 143.442 618.411 141.379ZM331.103 222.29 324.489 228.313 323.64 219.409Z" fill="#FF0000"/><path d="M0.160442-1.32365 2.22294-1.07365C2.31587-1.06238 2.40742-1.04134 2.49594-1.01092L4.49594-0.323416C4.5764-0.295759 4.65406-0.260447 4.72779-0.217997L6.79029 0.969503C6.85189 1.00497 6.91062 1.04536 6.96579 1.09018L8.96579 2.71518 11.0678 4.80719 13.1164 7.43324 15.1491 10.2898 17.0924 13.6462 20.8801 21.2162 24.5468 30.1833 27.9524 40.3909 31.1573 51.6347 34.1083 63.8111 36.7447 76.9248 39.0647 90.6529 41.0089 105.072 42.6379 119.98 43.7672 135.214 44.5193 150.685 44.7707 166.291 45.0207 181.854 45.7693 197.248 46.8922 212.402 48.5129 227.23 50.4463 241.509 52.7524 255.216 55.3695 268.174 58.2962 280.313 61.4698 291.447 64.8266 301.451 68.3624 310.253 72.0676 317.654 73.9578 320.817 75.848 323.556 77.7912 325.98 79.6928 327.87 79.412 327.655 81.3528 328.765 80.0288 331.08 78.088 329.97C77.9853 329.911 77.8909 329.839 77.8072 329.755L75.7088 327.645 73.652 325.069 71.6672 322.183 69.6824 318.846 65.8876 311.247 62.2984 302.299 58.9052 292.178 55.7038 280.937 52.7555 268.701 50.1226 255.659 47.8037 241.866 45.8621 227.52 44.2328 212.598 43.1057 197.377 42.3543 181.896 42.1043 166.334 41.8557 150.815 41.1078 135.411 39.9871 120.27 38.3661 105.428 36.4353 91.0971 34.1303 77.4502 31.5167 64.4389 28.5927 52.3653 25.4226 41.2341 22.0782 31.1917 18.4949 22.4088 14.7826 14.9788 12.9759 11.8352 11.0086 9.06676 9.18219 6.69281 7.28421 4.78482 5.28421 3.15982 5.45971 3.2805 3.39721 2.093 3.62906 2.19842 1.62906 1.51092 1.90206 1.57365-0.160442 1.32365ZM81.0504 325.722 86.8125 332.562 77.8825 333.068Z" fill="#FF0000" transform="matrix(1.83697e-16 1 1 -1.83697e-16 619.5 141.5)"/><path d="M325.73 278.753 325.355 280.691C325.33 280.821 325.286 280.946 325.224 281.063L324.161 283.063C324.11 283.159 324.048 283.249 323.975 283.33L322.287 285.205C322.241 285.256 322.19 285.304 322.136 285.348L319.824 287.223 316.894 289.121 313.41 290.934 309.507 292.602 305.194 294.189 295.532 296.909 284.8 298.996 273.324 300.325 261.478 300.832 249.728 301.332 238.449 302.637 227.925 304.684 218.47 307.346 214.371 308.818 210.648 310.469 207.33 312.13 204.57 313.878 204.856 313.635 203.039 315.684 201.044 313.915 202.861 311.865C202.945 311.771 203.041 311.689 203.148 311.622L206.138 309.745 209.569 308.031 213.472 306.307 217.748 304.779 227.417 302.066 238.143 299.988 249.615 298.668 261.365 298.168 273.018 297.676 284.292 296.379 294.811 294.341 304.274 291.686 308.461 290.148 312.183 288.566 315.449 286.879 318.144 285.152 320.457 283.277 320.305 283.421 321.993 281.546 321.806 281.812 322.869 279.812 322.737 280.184 323.112 278.247ZM206.136 315.806 198.484 320.438 199.37 311.537Z" fill="#FF0000"/><path d="M0.253363-1.30904 2.19086-0.93404C2.30993-0.910994 2.42531-0.871808 2.53378-0.81757L4.53378 0.18243C4.63347 0.232275 4.72652 0.294419 4.81074 0.367415L6.68574 1.99241C6.7402 2.03962 6.79066 2.09105 6.83679 2.14642L8.71179 4.39642 10.6133 7.26625 12.424 10.6179 14.0951 14.3998 15.6844 18.5902 18.4047 27.8757 20.4949 38.301 21.8239 49.4045 22.332 60.8789 22.832 72.2539 24.1364 83.1545 26.1821 93.2995 28.8429 102.44 30.3133 106.413 31.9624 110.008 33.6208 113.198 35.3633 115.829 35.1256 115.557 37.1378 117.309 35.3866 119.32 33.3744 117.568C33.2832 117.489 33.2033 117.397 33.1367 117.296L31.2542 114.427 29.5376 111.117 27.8117 107.337 26.2821 103.185 23.5679 93.8255 21.4886 83.4705 20.168 72.371 19.668 60.996 19.1761 49.7205 17.8801 38.824 15.8453 28.6243 13.1906 19.5348 11.6549 15.4752 10.076 11.8821 8.38672 8.73375 6.6632 6.10358 4.7882 3.85358 4.93926 4.00759 3.06426 2.38259 3.34122 2.56757 1.34122 1.56757 1.68414 1.68404-0.253363 1.30904ZM37.2258 114.21 41.9375 121.812 33.0284 121.02Z" fill="#FF0000" transform="matrix(1.83697e-16 1 1 -1.83697e-16 324.5 278.5)"/><path d="M953.016 278.712 952.704 280.65C952.688 280.749 952.661 280.846 952.623 280.939L951.81 282.939C951.769 283.041 951.715 283.137 951.65 283.226L950.275 285.101 948.346 287.114 945.974 289.038 943.178 290.867 936.604 294.132 928.897 296.881 920.265 298.983 911.143 300.319 901.646 300.832 892.271 301.332 883.393 302.632 875.015 304.671 867.584 307.319 861.292 310.445 858.722 312.067 856.599 313.788 856.867 313.497 855.659 315.284 853.45 313.791 854.658 312.003C854.732 311.893 854.823 311.795 854.926 311.712L857.304 309.808 860.109 308.055 866.691 304.806 874.386 302.079 883.008 299.993 892.129 298.669 901.504 298.169 910.758 297.681 919.636 296.392 928.004 294.369 935.421 291.743 941.723 288.633 944.301 286.962 946.429 285.261 948.125 283.524 949.5 281.649 949.34 281.936 950.152 279.936 950.071 280.225 950.384 278.288ZM858.715 315.22 851.45 320.438 851.635 311.495Z" fill="#FF0000"/><path d="M0.253363-1.30904 2.19086-0.93404C2.33132-0.906855 2.46649-0.857239 2.59118-0.787101L4.59118 0.337899C4.68369 0.389934 4.76967 0.452841 4.84726 0.52526L6.72226 2.27526C6.77566 2.3251 6.82479 2.37915 6.86933 2.43705L8.74433 4.87455 10.6347 7.92486 12.4467 11.5996 14.1075 15.6163 15.6951 20.1197 17.1526 24.9934 18.4212 30.2502 20.4985 41.4445 21.8253 53.416 22.3322 65.8209 22.8322 78.0706 24.1378 89.8535 26.186 100.882 27.4212 106 28.8401 110.743 30.3256 115.136 31.9785 119.044 33.6385 122.483 35.3847 125.3 35.1736 125.038 37.2873 127.068 35.4401 128.992 33.3264 126.962C33.2453 126.884 33.1744 126.796 33.1153 126.7L31.2365 123.642 29.5215 120.081 27.7994 115.989 26.2849 111.507 24.8288 106.625 23.564 101.368 21.4872 90.1465 20.1678 78.1794 19.6678 65.9291 19.1747 53.709 17.8765 41.9305 15.8288 30.8748 14.5974 25.7566 13.1799 21.0053 11.6425 16.6336 10.0533 12.7754 8.36528 9.32514 6.63067 6.50045 4.75567 4.06295 4.90274 4.22474 3.02774 2.47474 3.28382 2.6621 1.28382 1.5371 1.68414 1.68404-0.253363 1.30904ZM37.4434 123.954 41.9375 131.687 33.0544 130.643Z" fill="#FF0000" transform="matrix(1.83697e-16 1 1 -1.83697e-16 952.5 278.5)"/><path d="M39.5001 417.834C39.5001 413.231 43.2311 409.5 47.8335 409.5L275.167 409.5C279.769 409.5 283.5 413.231 283.5 417.834L283.5 451.167C283.5 455.769 279.769 459.5 275.167 459.5L47.8335 459.5C43.2311 459.5 39.5001 455.769 39.5001 451.167Z" stroke="#C0504D" stroke-width="2.66667" stroke-linejoin="round" stroke-miterlimit="10" fill="#FFFFFF" fill-rule="evenodd"/><text font-family="HarmonyOS Sans SC,HarmonyOS Sans SC_MSFontService,sans-serif" font-weight="400" font-size="24" transform="translate(73.9937 443)">FileInputStream</text><path d="M199.479 370.66 199.042 374.285C199.032 374.369 199.013 374.452 198.988 374.533L197.863 378.033C197.837 378.113 197.803 378.191 197.763 378.265L195.95 381.578C195.912 381.647 195.868 381.714 195.817 381.776L193.442 384.713C193.4 384.766 193.353 384.816 193.303 384.862L190.553 387.362C190.488 387.421 190.417 387.473 190.342 387.518L187.217 389.393C187.148 389.434 187.076 389.469 187.001 389.497L183.689 390.747C183.591 390.784 183.49 390.81 183.386 390.823L179.949 391.26 176.511 391.698 176.822 391.619 173.572 392.869 173.796 392.758 170.671 394.696 170.853 394.56 168.103 396.998 168.255 396.838 165.88 399.776 166.06 399.484 164.28 403.448 161.847 402.356 163.627 398.391C163.674 398.287 163.734 398.188 163.806 398.099L166.181 395.162C166.228 395.104 166.279 395.051 166.334 395.002L169.084 392.565C169.14 392.514 169.201 392.469 169.266 392.429L172.391 390.492C172.462 390.448 172.537 390.411 172.615 390.381L175.865 389.131C175.964 389.092 176.069 389.066 176.175 389.052L179.612 388.615 183.05 388.177 182.747 388.253 186.06 387.003 185.845 387.107 188.97 385.232 188.759 385.388 191.509 382.888 191.369 383.037 193.744 380.099 193.611 380.297 195.423 376.985 195.324 377.217 196.449 373.717 196.394 373.965 196.832 370.34ZM167.266 402.564 161.468 409.375 159.498 400.65Z" fill="#FF0000"/><path d="M0.226543-1.31395 3.85154-0.688947C3.9863-0.665714 4.11671-0.621874 4.23814-0.558993L7.73814 1.25351C7.82306 1.29749 7.90309 1.35053 7.97667 1.41162L11.2892 4.16162C11.3565 4.21754 11.4183 4.28003 11.4734 4.34806L14.4109 7.97305C14.4526 8.02455 14.4906 8.07935 14.5242 8.13647L17.0242 12.3865C17.0594 12.4462 17.0898 12.5085 17.1152 12.5729L18.9902 17.3229 20.2945 22.5554C20.3114 22.624 20.3229 22.6938 20.3287 22.7643L20.7662 28.0143 21.2037 33.2643 21.1695 33.0554 22.4195 38.1179 22.3596 37.9339 24.2971 42.6839 26.6566 46.7741 26.5359 46.5981 29.4734 50.2231 29.1958 49.9658 33.3751 52.8558 31.8584 55.0491 27.6791 52.1592C27.5749 52.087 27.4814 52.0005 27.4016 51.9019L24.4641 48.2769C24.4192 48.2216 24.3788 48.1626 24.3434 48.1008L21.8279 43.6911 19.8904 38.9411C19.8661 38.8814 19.846 38.8197 19.8305 38.7571L18.5805 33.6946C18.5636 33.626 18.5521 33.5562 18.5463 33.4857L18.1088 28.2357 17.6713 22.9857 17.7055 23.1946 16.5098 18.3021 14.6348 13.5521 14.7258 13.7385 12.2258 9.48853 12.3391 9.65194 9.40159 6.02694 9.58583 6.21338 6.27333 3.46338 6.51186 3.62149 3.01186 1.80899 3.39846 1.93895-0.226543 1.31395ZM32.7436 49.738 38.875 56.25 29.9866 57.2479Z" fill="#FF0000" transform="matrix(1.83697e-16 1 1 -1.83697e-16 446.5 370.5)"/><path d="M852.704 370.749 852.016 374.374C851.991 374.507 851.946 374.635 851.882 374.755L850.007 378.255C849.955 378.35 849.892 378.44 849.82 378.52L846.82 381.833C846.766 381.891 846.708 381.945 846.645 381.994L842.833 384.931C842.778 384.973 842.72 385.011 842.659 385.044L838.097 387.544C838.04 387.576 837.98 387.603 837.919 387.625L832.857 389.5 827.321 390.799C827.255 390.814 827.189 390.824 827.122 390.829L821.497 391.267 815.936 391.704 816.13 391.675 810.692 392.925 805.808 394.808 801.466 397.172 801.645 397.056 797.833 399.994 798.084 399.739 794.915 403.954 792.784 402.352 795.953 398.136C796.025 398.04 796.11 397.955 796.205 397.881L800.017 394.944C800.074 394.9 800.134 394.862 800.196 394.828L804.855 392.317 810.095 390.326 815.533 389.076C815.596 389.061 815.661 389.051 815.727 389.046L821.29 388.608 826.915 388.171 826.717 388.201 831.931 387 836.993 385.125 836.816 385.206 841.378 382.706 841.205 382.819 845.017 379.881 844.843 380.043 847.843 376.73 847.656 376.995 849.531 373.495 849.396 373.877 850.084 370.252ZM798.062 403.344 791.456 409.375 790.595 400.472Z" fill="#FF0000"/><path d="M0.248445-1.30998 3.87344-0.622482C4.01862-0.594949 4.15823-0.543468 4.28652-0.470157L7.78652 1.52984C7.87815 1.58221 7.96319 1.64522 8.03996 1.71764L11.3525 4.84264C11.411 4.8979 11.4645 4.95838 11.5122 5.02329L14.4497 9.02329C14.4889 9.0767 14.524 9.13287 14.5549 9.1915L17.0549 13.9415 19.0057 19.3641 20.3023 25.2138 20.7671 31.2124 21.2046 37.0249 22.4273 42.5263 24.3134 47.6009 26.6863 52.2038 26.5747 52.0233 29.5122 56.0233 29.2609 55.7638 33.509 59.0991 31.8623 61.1965 27.6141 57.8612C27.519 57.7865 27.4344 57.6992 27.3628 57.6017L24.4253 53.6017C24.3834 53.5447 24.346 53.4842 24.3137 53.4212L21.8116 48.5241 19.8227 43.0987 18.5454 37.2251 18.1079 31.4126 17.6977 25.7862 16.4943 20.2609 14.6951 15.1835 12.1951 10.4335 12.3003 10.6017 9.36283 6.60171 9.52254 6.78236 6.21004 3.65736 6.46348 3.84516 2.96348 1.84516 3.37655 1.99748-0.248445 1.30998ZM32.9341 55.9388 38.875 62.625 29.9615 63.366Z" fill="#FF0000" transform="matrix(1.83697e-16 1 1 -1.83697e-16 1083.5 370.5)"/><path d="M345.5 328.834C345.5 324.231 349.231 320.5 353.834 320.5L538.167 320.5C542.769 320.5 546.5 324.231 546.5 328.834L546.5 362.167C546.5 366.769 542.769 370.5 538.167 370.5L353.834 370.5C349.231 370.5 345.5 366.769 345.5 362.167Z" stroke="#00B0F0" stroke-width="2.66667" stroke-linejoin="round" stroke-miterlimit="10" fill="#FFFFFF" fill-rule="evenodd"/><text font-family="HarmonyOS Sans SC,HarmonyOS Sans SC_MSFontService,sans-serif" font-weight="400" font-size="24" transform="translate(367.032 354)">OutputStream</text><path d="M751.5 328.834C751.5 324.231 755.231 320.5 759.833 320.5L944.167 320.5C948.769 320.5 952.5 324.231 952.5 328.834L952.5 362.167C952.5 366.769 948.769 370.5 944.167 370.5L759.833 370.5C755.231 370.5 751.5 366.769 751.5 362.167Z" stroke="#00B0F0" stroke-width="2.66667" stroke-linejoin="round" stroke-miterlimit="10" fill="#FFFFFF" fill-rule="evenodd"/><text font-family="HarmonyOS Sans SC,HarmonyOS Sans SC_MSFontService,sans-serif" font-weight="400" font-size="24" transform="translate(812.133 354)">Reader</text><path d="M983.5 328.834C983.5 324.231 987.231 320.5 991.834 320.5L1175.17 320.5C1179.77 320.5 1183.5 324.231 1183.5 328.834L1183.5 362.167C1183.5 366.769 1179.77 370.5 1175.17 370.5L991.834 370.5C987.231 370.5 983.5 366.769 983.5 362.167Z" stroke="#00B0F0" stroke-width="2.66667" stroke-linejoin="round" stroke-miterlimit="10" fill="#FFFFFF" fill-rule="evenodd"/><text font-family="HarmonyOS Sans SC,HarmonyOS Sans SC_MSFontService,sans-serif" font-weight="400" font-size="24" transform="translate(1048.63 354)">Writer</text><path d="M1070.5 203.834C1070.5 199.231 1074.23 195.5 1078.83 195.5L1213.17 195.5C1217.77 195.5 1221.5 199.231 1221.5 203.834L1221.5 237.166C1221.5 241.769 1217.77 245.5 1213.17 245.5L1078.83 245.5C1074.23 245.5 1070.5 241.769 1070.5 237.166Z" stroke="#C0504D" stroke-width="2.66667" stroke-linejoin="round" stroke-miterlimit="10" fill="#FFFFFF" fill-rule="evenodd"/><text font-family="HarmonyOS Sans SC,HarmonyOS Sans SC_MSFontService,sans-serif" font-weight="400" font-size="24" transform="translate(1109.7 229)">实现类</text><path d="M380.5 417.834C380.5 413.231 384.231 409.5 388.834 409.5L616.167 409.5C620.769 409.5 624.5 413.231 624.5 417.834L624.5 451.167C624.5 455.769 620.769 459.5 616.167 459.5L388.834 459.5C384.231 459.5 380.5 455.769 380.5 451.167Z" stroke="#C0504D" stroke-width="2.66667" stroke-linejoin="round" stroke-miterlimit="10" fill="#FFFFFF" fill-rule="evenodd"/><text font-family="HarmonyOS Sans SC,HarmonyOS Sans SC_MSFontService,sans-serif" font-weight="400" font-size="24" transform="translate(404.199 443)">FileOutputStream</text><path d="M681.5 417.834C681.5 413.231 685.231 409.5 689.834 409.5L893.167 409.5C897.769 409.5 901.5 413.231 901.5 417.834L901.5 451.167C901.5 455.769 897.769 459.5 893.167 459.5L689.834 459.5C685.231 459.5 681.5 455.769 681.5 451.167Z" stroke="#C0504D" stroke-width="2.66667" stroke-linejoin="round" stroke-miterlimit="10" fill="#FFFFFF" fill-rule="evenodd"/><text font-family="HarmonyOS Sans SC,HarmonyOS Sans SC_MSFontService,sans-serif" font-weight="400" font-size="24" transform="translate(733.156 443)">FileReader</text><path d="M1059.5 417.834C1059.5 413.231 1063.23 409.5 1067.83 409.5L1225.17 409.5C1229.77 409.5 1233.5 413.231 1233.5 417.834L1233.5 451.167C1233.5 455.769 1229.77 459.5 1225.17 459.5L1067.83 459.5C1063.23 459.5 1059.5 455.769 1059.5 451.167Z" stroke="#C0504D" stroke-width="2.66667" stroke-linejoin="round" stroke-miterlimit="10" fill="#FFFFFF" fill-rule="evenodd"/><text font-family="HarmonyOS Sans SC,HarmonyOS Sans SC_MSFontService,sans-serif" font-weight="400" font-size="24" transform="translate(1092.12 443)">FileWriter</text><path d="M24.5001 488.834C24.5001 484.231 28.2311 480.5 32.8336 480.5L290.167 480.5C294.769 480.5 298.5 484.231 298.5 488.834L298.5 522.167C298.5 526.769 294.769 530.5 290.167 530.5L32.8336 530.5C28.2311 530.5 24.5001 526.769 24.5001 522.167Z" stroke="#C0504D" stroke-width="2.66667" stroke-linejoin="round" stroke-miterlimit="10" fill="#FFFFFF" fill-rule="evenodd"/><text font-family="HarmonyOS Sans SC,HarmonyOS Sans SC_MSFontService,sans-serif" font-weight="400" font-size="24" transform="translate(44.9936 514)">BufferedInputStream</text><path d="M355.5 488.833C355.5 484.231 359.231 480.5 363.833 480.5L640.167 480.5C644.769 480.5 648.5 484.231 648.5 488.833L648.5 522.167C648.5 526.769 644.769 530.5 640.167 530.5L363.833 530.5C359.231 530.5 355.5 526.769 355.5 522.167Z" stroke="#C0504D" stroke-width="2.66667" stroke-linejoin="round" stroke-miterlimit="10" fill="#FFFFFF" fill-rule="evenodd"/><text font-family="HarmonyOS Sans SC,HarmonyOS Sans SC_MSFontService,sans-serif" font-weight="400" font-size="24" transform="translate(375.199 514)">BufferedOutputStream</text><path d="M681.5 488.834C681.5 484.231 685.231 480.5 689.834 480.5L893.167 480.5C897.769 480.5 901.5 484.231 901.5 488.834L901.5 522.167C901.5 526.769 897.769 530.5 893.167 530.5L689.834 530.5C685.231 530.5 681.5 526.769 681.5 522.167Z" stroke="#C0504D" stroke-width="2.66667" stroke-linejoin="round" stroke-miterlimit="10" fill="#FFFFFF" fill-rule="evenodd"/><text font-family="HarmonyOS Sans SC,HarmonyOS Sans SC_MSFontService,sans-serif" font-weight="400" font-size="24" transform="translate(704.156 514)">BufferedReader</text><path d="M1036.5 488.834C1036.5 484.231 1040.23 480.5 1044.83 480.5L1248.17 480.5C1252.77 480.5 1256.5 484.231 1256.5 488.834L1256.5 522.167C1256.5 526.769 1252.77 530.5 1248.17 530.5L1044.83 530.5C1040.23 530.5 1036.5 526.769 1036.5 522.167Z" stroke="#C0504D" stroke-width="2.66667" stroke-linejoin="round" stroke-miterlimit="10" fill="#FFFFFF" fill-rule="evenodd"/><text font-family="HarmonyOS Sans SC,HarmonyOS Sans SC_MSFontService,sans-serif" font-weight="400" font-size="24" transform="translate(1063.12 514)">BufferedWriter</text><path d="M163 531 163 577.845 159 577.845 159 531ZM167 575.845 161 587.845 155 575.845Z" fill="#C0504D"/><path d="M504 530 504 576.845 500 576.845 500 530ZM508 574.845 502 586.845 496 574.845Z" fill="#C0504D"/><path d="M793 530 793 576.845 789 576.845 789 530ZM797 574.845 791 586.845 785 574.845Z" fill="#C0504D"/><path d="M1148 534 1148 580.845 1144 580.845 1144 534ZM1152 578.845 1146 590.845 1140 578.845Z" fill="#C0504D"/></g></svg>