<svg class="canvas" viewBox="0 0 1920 1080" preserveAspectRatio="xMaxYMid slice" xmlns="http://www.w3.org/2000/svg" version="1.1" xmlns:xlink="http://www.w3.org/1999/xlink" xmlns:svgjs="http://svgjs.dev/svgjs"><rect width="1920" height="1080" fill="hsl(227, 65%, 15%)"></rect><defs><linearGradient x1="0.5" y1="0" x2="0" y2="1" id="SvgjsLinearGradient1371"><stop stop-color="#28518a" offset="0"></stop><stop stop-color="#0e0614" offset="0.1"></stop></linearGradient><linearGradient x1="0.5" y1="0" x2="0" y2="1" id="SvgjsLinearGradient1372"><stop stop-color="#282a8a" offset="0"></stop><stop stop-color="#140614" offset="0.22857142857142856"></stop></linearGradient><linearGradient x1="0.5" y1="0" x2="0" y2="1" id="SvgjsLinearGradient1373"><stop stop-color="#3a288a" offset="0"></stop><stop stop-color="#140611" offset="0.3571428571428571"></stop></linearGradient><linearGradient x1="0.5" y1="0" x2="0" y2="1" id="SvgjsLinearGradient1374"><stop stop-color="#c0dff2" offset="0"></stop><stop stop-color="#7b42d7" offset="0.48571428571428565"></stop></linearGradient><linearGradient x1="0.5" y1="0" x2="0" y2="1" id="SvgjsLinearGradient1375"><stop stop-color="#c9c0f2" offset="0"></stop><stop stop-color="#d742bb" offset="0.6142857142857142"></stop></linearGradient><linearGradient x1="0.5" y1="0" x2="0" y2="1" id="SvgjsLinearGradient1376"><stop stop-color="#c0dff2" offset="0"></stop><stop stop-color="#7b42d7" offset="0.7428571428571429"></stop></linearGradient><linearGradient x1="0.5" y1="0" x2="0" y2="1" id="SvgjsLinearGradient1377"><stop stop-color="#c0dff2" offset="0"></stop><stop stop-color="#7b42d7" offset="0.8714285714285713"></stop></linearGradient></defs><path d="M0,-574.9871094346266C37.26464594373552,-569.9262043232793,143.06728010547332,-566.4872423714464,223.58787566241315,-544.621678766543C304.10847121935296,-522.7561151616396,405.339253320884,-474.36308677574686,483.12357334163903,-443.79372780520623C560.907893362394,-413.2243688346656,609.0240736746134,-386.06622915369684,690.2937957869433,-361.20552494329905C771.5635178992732,-336.34482073290127,882.1505083445403,-315.70320409078823,970.7419060156182,-294.6295025428196C1059.3333036866961,-273.5558009948509,1147.4041868135334,-252.5558746459906,1221.8421818134104,-234.76331565548702C1296.2801768132874,-216.97075666498344,1343.986657448042,-205.1969722738858,1417.36987601488,-187.87414859979808C1490.753094581718,-170.55132492571036,1578.3698058835841,-156.307546805156,1662.1414932144376,-130.82637361096076C1745.913180545291,-105.34520041676552,1877.0235822024063,-50.96032013068234,1920,-34.98710943462666L 1920 1080 L 0 1080 Z" fill="url(&quot;#SvgjsLinearGradient1371&quot;)"></path><path d="M0,-458.8877284901153C65.17239454926191,-433.6484424215204,263.79407154910774,-350.7195621831589,391.0343672955715,-307.45201207854586C518.2746630420353,-264.1844619739328,639.968128798419,-226.96984878889444,763.4417744787826,-199.2824278624368C886.9154201591462,-171.59500693597917,1002.7217869358557,-178.1510595000941,1131.8762413777529,-141.3274865198C1261.03069581965,-104.5039135395059,1407.014541359791,-17.795235366572058,1538.3685011301657,21.659010019327773C1669.7224609005402,61.113255405227605,1856.3947501883608,83.1081564995538,1920,95.397985795599L 1920 1080 L 0 1080 Z" fill="url(&quot;#SvgjsLinearGradient1372&quot;)"></path><path d="M0,-299.8931634193368C78.76701061651822,-281.6411050671729,318.35433836204265,-237.24683413174856,472.60206369910935,-190.38081330635325C626.849789036176,-143.51479248095794,763.6734732137965,-67.67514202678746,925.4863520224,-18.697038466965004C1087.2992308310033,30.28106509285744,1277.7270618877967,55.591924116071915,1443.47933655073,103.48780805258139C1609.2316112136634,151.38369198909086,1840.5798894251216,241.1465223021734,1920,268.6782651520918L 1920 1080 L 0 1080 Z" fill="url(&quot;#SvgjsLinearGradient1373&quot;)"></path><path d="M0,-183.0175186687228C45.53726346925,-166.34671823163552,198.30490557240347,-110.15799199842353,273.2235808155,-82.99271604619918C348.1422560585965,-55.82744009397483,372.3644407623368,-33.192545248404954,449.5120514585791,-20.025862955376738C526.6596621548214,-6.859180662348521,645.0666207081849,-29.879194646233163,736.1092449929538,-3.992622288029878C827.1518692777227,21.893950070173407,918.3282932510839,109.13446772355212,995.7677971671922,135.29357119384298C1073.2073010833005,161.45267466413384,1123.3326128925141,126.56138961694596,1200.7462684896036,152.9619985337153C1278.159924086693,179.36260745048466,1385.6285988063123,267.50879276310354,1460.2497307497292,293.69722469445907C1534.8708626931461,319.8856566258146,1571.8480152750597,292.4021902061884,1648.4730601501049,310.09259012184856C1725.09810502515,327.78299003750874,1874.7455100250174,384.88178517732484,1920,399.8396241884201L 1920 1080 L 0 1080 Z" fill="url(&quot;#SvgjsLinearGradient1374&quot;)"></path><path d="M0,4.162859856753016C39.565949238530145,14.97235627133488,150.70257597943328,34.533846936327826,237.39569543118085,69.01983834424419C324.08881488292843,103.50582975216057,426.5316618004538,183.23378662453894,520.1587167104854,211.0788083042512C613.7857716205169,238.92382998396346,701.4120453263653,205.14452852162236,799.1580248913702,236.08996842251776C896.9040044563752,267.03540832341315,1010.5707124831395,367.2466743516585,1106.6345941005152,396.7514477096235C1202.698475717891,426.2562210675885,1280.429508380329,385.371472264672,1375.5413145956243,413.11860857030797C1470.6531208109195,440.86574487594396,1586.5623171582242,531.8697474718891,1677.305431392287,563.2342655434395C1768.0485456263496,594.5987836149899,1879.5509052320479,594.9604750902485,1920,601.3057169996102L 1920 1080 L 0 1080 Z" fill="url(&quot;#SvgjsLinearGradient1375&quot;)"></path><path d="M0,127.44829686485963C51.837894404486626,149.65609316751235,202.10163450538255,221.93115495573505,311.02736642691974,260.695074680776C419.95309834845693,299.4589944058169,544.5623488703009,333.86570493759064,653.554391529223,360.03181521510515C762.5464341881452,386.1979254926197,865.8031318397749,389.7100763623075,964.9796223804527,417.6917363458632C1064.1561129211307,445.6733963294189,1139.6435980482142,487.74898904100684,1248.6133347732903,527.9217751164392C1357.5830714983663,568.0945611918715,1506.9002651931232,623.5692706022921,1618.7980427309083,658.7284527984574C1730.6958202686933,693.8876349946227,1869.7996737884846,725.5187990442687,1920,738.876868293431L 1920 1080 L 0 1080 Z" fill="url(&quot;#SvgjsLinearGradient1376&quot;)"></path><path d="M0,250.5141542669075C58.70964947477865,269.51055787246605,244.20794737865214,329.6962601499599,352.2578968486719,364.492575900259C460.3078463186917,399.28889165055807,552.7191640281584,422.2855275478784,648.2996968201187,459.2920487687021C743.880229612079,496.2985699895258,825.3555923901714,558.3326430441901,925.7410936004335,586.5317032252012C1026.1265948106957,614.7307634062123,1135.4346990513236,598.4487591667523,1250.6127040816912,628.4864098547688C1365.7907091120587,658.5240605427853,1505.2445744629208,725.467268998896,1616.809123782639,766.7576073533C1728.3736731023573,808.0479457077041,1869.4681872971064,857.9833012098777,1920,876.2284399811932L 1920 1080 L 0 1080 Z" fill="url(&quot;#SvgjsLinearGradient1377&quot;)"></path></svg>