<svg width="1280" height="569" xmlns="http://www.w3.org/2000/svg" xmlns:xlink="http://www.w3.org/1999/xlink" overflow="hidden"><defs><filter id="fx0" x="-10%" y="-10%" width="120%" height="120%" filterUnits="userSpaceOnUse" primitiveUnits="userSpaceOnUse"><feComponentTransfer color-interpolation-filters="sRGB"><feFuncR type="discrete" tableValues="0 0"/><feFuncG type="discrete" tableValues="0 0"/><feFuncB type="discrete" tableValues="0 0"/><feFuncA type="linear" slope="0.34902" intercept="0"/></feComponentTransfer><feGaussianBlur stdDeviation="1.39983 1.40024"/></filter><filter id="fx1" x="-10%" y="-10%" width="120%" height="120%" filterUnits="userSpaceOnUse" primitiveUnits="userSpaceOnUse"><feComponentTransfer color-interpolation-filters="sRGB"><feFuncR type="discrete" tableValues="0 0"/><feFuncG type="discrete" tableValues="0 0"/><feFuncB type="discrete" tableValues="0 0"/><feFuncA type="linear" slope="0.34902" intercept="0"/></feComponentTransfer><feGaussianBlur stdDeviation="1.39983 1.40024"/></filter><filter id="fx2" x="-10%" y="-10%" width="120%" height="120%" filterUnits="userSpaceOnUse" primitiveUnits="userSpaceOnUse"><feComponentTransfer color-interpolation-filters="sRGB"><feFuncR type="discrete" tableValues="0 0"/><feFuncG type="discrete" tableValues="0 0"/><feFuncB type="discrete" tableValues="0 0"/><feFuncA type="linear" slope="0.34902" intercept="0"/></feComponentTransfer><feGaussianBlur stdDeviation="1.39983 1.40024"/></filter><filter id="fx3" x="-10%" y="-10%" width="120%" height="120%" filterUnits="userSpaceOnUse" primitiveUnits="userSpaceOnUse"><feComponentTransfer color-interpolation-filters="sRGB"><feFuncR type="discrete" tableValues="0 0"/><feFuncG type="discrete" tableValues="0 0"/><feFuncB type="discrete" tableValues="0 0"/><feFuncA type="linear" slope="0.34902" intercept="0"/></feComponentTransfer><feGaussianBlur stdDeviation="1.39983 1.40024"/></filter><filter id="fx4" x="-10%" y="-10%" width="120%" height="120%" filterUnits="userSpaceOnUse" primitiveUnits="userSpaceOnUse"><feComponentTransfer color-interpolation-filters="sRGB"><feFuncR type="discrete" tableValues="0 0"/><feFuncG type="discrete" tableValues="0 0"/><feFuncB type="discrete" tableValues="0 0"/><feFuncA type="linear" slope="0.34902" intercept="0"/></feComponentTransfer><feGaussianBlur stdDeviation="1.39983 1.40024"/></filter><filter id="fx5" x="-10%" y="-10%" width="120%" height="120%" filterUnits="userSpaceOnUse" primitiveUnits="userSpaceOnUse"><feComponentTransfer color-interpolation-filters="sRGB"><feFuncR type="discrete" tableValues="0 0"/><feFuncG type="discrete" tableValues="0 0"/><feFuncB type="discrete" tableValues="0 0"/><feFuncA type="linear" slope="0.34902" intercept="0"/></feComponentTransfer><feGaussianBlur stdDeviation="1.39983 1.40024"/></filter><filter id="fx6" x="-10%" y="-10%" width="120%" height="120%" filterUnits="userSpaceOnUse" primitiveUnits="userSpaceOnUse"><feComponentTransfer color-interpolation-filters="sRGB"><feFuncR type="discrete" tableValues="0 0"/><feFuncG type="discrete" tableValues="0 0"/><feFuncB type="discrete" tableValues="0 0"/><feFuncA type="linear" slope="0.380392" intercept="0"/></feComponentTransfer><feGaussianBlur stdDeviation="1.39983 1.40024"/></filter><filter id="fx7" x="-10%" y="-10%" width="120%" height="120%" filterUnits="userSpaceOnUse" primitiveUnits="userSpaceOnUse"><feComponentTransfer color-interpolation-filters="sRGB"><feFuncR type="discrete" tableValues="0 0"/><feFuncG type="discrete" tableValues="0 0"/><feFuncB type="discrete" tableValues="0 0"/><feFuncA type="linear" slope="0.380392" intercept="0"/></feComponentTransfer><feGaussianBlur stdDeviation="1.39983 1.40024"/></filter><filter id="fx8" x="-10%" y="-10%" width="120%" height="120%" filterUnits="userSpaceOnUse" primitiveUnits="userSpaceOnUse"><feComponentTransfer color-interpolation-filters="sRGB"><feFuncR type="discrete" tableValues="0 0"/><feFuncG type="discrete" tableValues="0 0"/><feFuncB type="discrete" tableValues="0 0"/><feFuncA type="linear" slope="0.380392" intercept="0"/></feComponentTransfer><feGaussianBlur stdDeviation="1.39983 1.40024"/></filter><filter id="fx9" x="-10%" y="-10%" width="120%" height="120%" filterUnits="userSpaceOnUse" primitiveUnits="userSpaceOnUse"><feComponentTransfer color-interpolation-filters="sRGB"><feFuncR type="discrete" tableValues="0 0"/><feFuncG type="discrete" tableValues="0 0"/><feFuncB type="discrete" tableValues="0 0"/><feFuncA type="linear" slope="0.380392" intercept="0"/></feComponentTransfer><feGaussianBlur stdDeviation="1.39983 1.40024"/></filter><filter id="fx10" x="-10%" y="-10%" width="120%" height="120%" filterUnits="userSpaceOnUse" primitiveUnits="userSpaceOnUse"><feComponentTransfer color-interpolation-filters="sRGB"><feFuncR type="discrete" tableValues="0 0"/><feFuncG type="discrete" tableValues="0 0"/><feFuncB type="discrete" tableValues="0 0"/><feFuncA type="linear" slope="0.380392" intercept="0"/></feComponentTransfer><feGaussianBlur stdDeviation="1.39983 1.40024"/></filter><filter id="fx11" x="-10%" y="-10%" width="120%" height="120%" filterUnits="userSpaceOnUse" primitiveUnits="userSpaceOnUse"><feComponentTransfer color-interpolation-filters="sRGB"><feFuncR type="discrete" tableValues="0 0"/><feFuncG type="discrete" tableValues="0 0"/><feFuncB type="discrete" tableValues="0 0"/><feFuncA type="linear" slope="0.380392" intercept="0"/></feComponentTransfer><feGaussianBlur stdDeviation="1.39983 1.40024"/></filter><clipPath id="clip12"><rect x="0" y="0" width="1280" height="569"/></clipPath><clipPath id="clip13"><path d="M86.6673 124.537C72.7678 124.537 61.5001 135.808 61.5001 149.711L61.5001 375.443C61.5001 389.346 72.7678 400.617 86.6673 400.617L187.333 400.617C201.232 400.617 212.5 389.346 212.5 375.443L212.5 149.711C212.5 135.808 201.232 124.537 187.333 124.537ZM1.90735e-05 8.47876e-06 1280 8.47876e-06 1280 569 1.90735e-05 569Z" fill-rule="evenodd" clip-rule="evenodd"/></clipPath><clipPath id="clip14"><rect x="1" y="1" width="163" height="289"/></clipPath><clipPath id="clip15"><rect x="0" y="0" width="164" height="290"/></clipPath><clipPath id="clip16"><rect x="13" y="9" width="103" height="29"/></clipPath><clipPath id="clip17"><rect x="0" y="0" width="128" height="50"/></clipPath><linearGradient x1="137" y1="400.617" x2="137" y2="124.537" gradientUnits="userSpaceOnUse" spreadMethod="reflect" id="fill18"><stop offset="0" stop-color="#769535"/><stop offset="0.8" stop-color="#9BC348"/><stop offset="1" stop-color="#9CC746"/></linearGradient><clipPath id="clip19"><path d="M1041.67 124.537C1027.77 124.537 1016.5 135.807 1016.5 149.711L1016.5 382.445C1016.5 396.348 1027.77 407.619 1041.67 407.619L1142.33 407.619C1156.23 407.619 1167.5 396.348 1167.5 382.445L1167.5 149.711C1167.5 135.807 1156.23 124.537 1142.33 124.537ZM1.90735e-05 8.47876e-06 1280 8.47876e-06 1280 569 1.90735e-05 569Z" fill-rule="evenodd" clip-rule="evenodd"/></clipPath><clipPath id="clip20"><rect x="1" y="1" width="163" height="295"/></clipPath><clipPath id="clip21"><rect x="0" y="0" width="164" height="297"/></clipPath><clipPath id="clip22"><rect x="11" y="9" width="105" height="29"/></clipPath><clipPath id="clip23"><rect x="0" y="0" width="127" height="50"/></clipPath><linearGradient x1="1092" y1="407.619" x2="1092" y2="124.537" gradientUnits="userSpaceOnUse" spreadMethod="reflect" id="fill24"><stop offset="0" stop-color="#2787A0"/><stop offset="0.8" stop-color="#36B1D2"/><stop offset="1" stop-color="#34B3D6"/></linearGradient><clipPath id="clip25"><path d="M459.167 136.54C442.23 136.54 428.5 150.274 428.5 167.216L428.5 289.918C428.5 306.86 442.23 320.594 459.167 320.594L628.833 320.594C645.77 320.594 659.5 306.86 659.5 289.918L659.5 167.216C659.5 150.274 645.77 136.54 628.833 136.54ZM1.90735e-05 8.47876e-06 1280 8.47876e-06 1280 569 1.90735e-05 569Z" fill-rule="evenodd" clip-rule="evenodd"/></clipPath><clipPath id="clip26"><rect x="1" y="1" width="243" height="197"/></clipPath><clipPath id="clip27"><rect x="0" y="0" width="244" height="198"/></clipPath><clipPath id="clip28"><rect x="13" y="11" width="173" height="31"/></clipPath><clipPath id="clip29"><rect x="0" y="0" width="200" height="58"/></clipPath><linearGradient x1="544" y1="320.594" x2="544" y2="136.54" gradientUnits="userSpaceOnUse" spreadMethod="reflect" id="fill30"><stop offset="0" stop-color="#5D417E"/><stop offset="0.8" stop-color="#7B58A6"/><stop offset="1" stop-color="#7B57A8"/></linearGradient><clipPath id="clip31"><rect x="13" y="7" width="369" height="27"/></clipPath><clipPath id="clip32"><rect x="0" y="0" width="382" height="39"/></clipPath><clipPath id="clip33"><rect x="-1" y="7" width="225" height="27"/></clipPath><clipPath id="clip34"><rect x="0" y="0" width="238" height="39"/></clipPath><clipPath id="clip35"><rect x="-1" y="7" width="821" height="27"/></clipPath><clipPath id="clip36"><rect x="0" y="0" width="833" height="39"/></clipPath><clipPath id="clip37"><rect x="13" y="7" width="363" height="27"/></clipPath><clipPath id="clip38"><rect x="0" y="0" width="375" height="39"/></clipPath><clipPath id="clip39"><rect x="1" y="5" width="369" height="27"/></clipPath><clipPath id="clip40"><rect x="0" y="0" width="383" height="38"/></clipPath><clipPath id="clip41"><rect x="13" y="5" width="229" height="27"/></clipPath><clipPath id="clip42"><rect x="0" y="0" width="242" height="39"/></clipPath></defs><g clip-path="url(#clip12)"><rect x="0" y="0" width="1280" height="569.167" fill="#FFFFFF"/><text fill="#595959" font-family="Microsoft YaHei,Microsoft YaHei_MSFontService,sans-serif" font-weight="700" font-size="32" transform="matrix(1 0 0 1.00029 70.1216 65)">Nacos 注册中心原理</text><g clip-path="url(#clip13)"><g clip-path="url(#clip14)" filter="url(#fx0)" transform="translate(55 120)"><g clip-path="url(#clip15)"><path d="M6.50005 32.1265C6.50005 18.223 17.7678 6.95193 31.6673 6.95193L132.333 6.95193C146.232 6.95193 157.5 18.223 157.5 32.1265L157.5 257.858C157.5 271.762 146.232 283.033 132.333 283.033L31.6673 283.033C17.7678 283.033 6.50005 271.762 6.50005 257.858Z" stroke="#98B954" stroke-linejoin="round" stroke-miterlimit="10" fill="#FF0000" fill-rule="evenodd"/></g></g><g clip-path="url(#clip16)" filter="url(#fx1)" transform="translate(72 241)"><g clip-path="url(#clip17)"><path d="M10.9844 1.70703 9.57422 1.70703C9.6237 0.519531 9.64844-0.59375 9.64844-1.63281L9.64844-11.9492C9.64844-12.7904 9.6237-13.7057 9.57422-14.6953L16.4766-14.6953C16.4271-14.0026 16.3776-13.248 16.3281-12.4316 16.2786-11.6152 16.2044-10.9967 16.1055-10.5762 16.0065-10.1556 15.7096-9.84635 15.2148-9.64844 14.7201-9.45052 14.0768-9.30208 13.2852-9.20312 13.1367-9.79688 12.9141-10.2917 12.6172-10.6875 13.8542-10.6875 14.5469-10.8236 14.6953-11.0957 14.8437-11.3678 14.918-12.1471 14.918-13.4336L10.9844-13.4336 10.9844-8.46094 17.1445-8.46094C16.9466-7.17448 16.6992-6.02409 16.4023-5.00977 16.1055-3.99544 15.7096-2.99349 15.2148-2.00391 16.056-1.01432 17.0208-0.272135 18.1094 0.222656 17.763 0.519531 17.4167 0.940104 17.0703 1.48438 16.1302 0.841146 15.2396 0.0494792 14.3984-0.890625 13.8047-0.0494792 12.9883 0.841146 11.9492 1.78125 11.7018 1.33594 11.4297 0.940104 11.1328 0.59375 11.8255 0.0989583 12.5924-0.742188 13.4336-1.92969 12.7904-2.77083 12.1471-4.52734 11.5039-7.19922L10.9844-7.19922ZM7.94141-14.6211C7.89193-14.2253 7.86719-13.3099 7.86719-11.875L7.86719-0.890625C7.86719 0.148437 7.64453 0.779297 7.19922 1.00195 6.75391 1.22461 6.13542 1.4349 5.34375 1.63281 5.14583 0.890625 4.89844 0.296875 4.60156-0.148438 5.29427-0.148438 5.78906-0.173177 6.08594-0.222656 6.38281-0.272135 6.53125-0.643229 6.53125-1.33594L6.53125-5.04688 3.63672-5.04688C3.53776-3.8099 3.36458-2.67188 3.11719-1.63281 2.86979-0.59375 2.52344 0.420573 2.07812 1.41016 1.68229 1.0638 1.21224 0.766927 0.667969 0.519531 1.26172-0.56901 1.66992-1.5957 1.89258-2.56055 2.11523-3.52539 2.26367-4.5026 2.33789-5.49219 2.41211-6.48177 2.44922-8.04036 2.44922-10.168 2.44922-12.2956 2.42448-13.7799 2.375-14.6211ZM6.53125-6.30859 6.53125-9.27734 3.78516-9.27734 3.71094-6.30859ZM6.53125-10.5391 6.53125-13.3594 3.78516-13.3594 3.78516-10.5391ZM12.8398-7.19922C13.2357-5.31901 13.7057-3.95833 14.25-3.11719 14.8437-4.25521 15.2643-5.61589 15.5117-7.19922ZM27.1276-14.6953C26.7318-14.349 26.3854-13.9531 26.0885-13.5078L34.3268-13.5078C33.8815-12.7656 33.3001-11.974 32.5827-11.1328 31.8652-10.2917 30.9622-9.5 29.8737-8.75781 30.5664-8.3125 31.5065-7.97852 32.694-7.75586 33.8815-7.5332 35.2917-7.39714 36.9245-7.34766 36.5286-6.90234 36.2565-6.38281 36.1081-5.78906 34.7227-5.88802 33.362-6.13542 32.026-6.53125 30.6901-6.92708 29.5768-7.39713 28.6862-7.94141 27.1029-7.19922 25.668-6.65495 24.3815-6.30859 23.0951-5.96224 21.8333-5.6901 20.5964-5.49219 20.3984-6.08594 20.1016-6.60547 19.7057-7.05078 20.7943-7.05078 22.0312-7.19922 23.4167-7.49609 24.8021-7.79297 26.1628-8.21354 27.4987-8.75781 26.4596-9.7474 25.569-10.7617 24.8268-11.8008 23.9857-10.7617 23.1198-9.89583 22.2292-9.20312 21.8828-9.59896 21.4375-9.89583 20.8932-10.0938 22.2786-11.0833 23.293-12.0358 23.9362-12.9512 24.5794-13.8665 25.0495-14.7201 25.3464-15.5117 25.9896-15.1654 26.5833-14.8932 27.1276-14.6953ZM26.9792-4.89844C27.0781-5.49219 27.1276-6.1849 27.1276-6.97656 27.7214-6.8776 28.3151-6.80339 28.9089-6.75391 28.7604-6.45703 28.612-5.83854 28.4635-4.89844L34.4753-4.89844C34.4258-4.30469 34.3763-3.62435 34.3268-2.85742 34.2773-2.09049 34.1908-1.26172 34.0671-0.371094 33.9434 0.519531 33.5846 1.03906 32.9909 1.1875 32.3971 1.33594 31.457 1.48438 30.1706 1.63281 30.0716 0.989583 29.8242 0.445312 29.4284 0 30.8633 0 31.7292-0.0494792 32.026-0.148438 32.3229-0.247396 32.5208-0.519531 32.6198-0.964844L32.8424-3.78516 28.3151-3.78516C27.6224-1.65755 26.6452-0.272135 25.3835 0.371094 24.1217 1.01432 22.7734 1.58333 21.3385 2.07812 21.1901 1.63281 20.8438 1.11328 20.2995 0.519531 21.487 0.420573 22.724 0.0494791 24.0104-0.59375 25.2969-1.23698 26.2122-2.30078 26.7565-3.78516L25.0495-3.78516C23.5651-3.78516 22.4766-3.73568 21.7839-3.63672L21.7839-4.97266C22.526-4.92318 23.6393-4.89844 25.1237-4.89844ZM28.7604-9.57422C29.75-10.168 30.7148-11.1081 31.6549-12.3945L26.0885-12.3945C27.0286-11.1576 27.9193-10.2174 28.7604-9.57422ZM48.763-9.94531C48.763-12.8646 48.7383-14.7201 48.6888-15.5117L50.4701-15.5117C50.4206-14.7201 50.3958-12.8646 50.3958-9.94531L54.7747-9.94531C54.7253-8.65885 54.7005-7.64453 54.7005-6.90234L54.7005 0.296875C54.7005 0.643229 54.5397 0.952474 54.2181 1.22461 53.8965 1.49674 53.1914 1.73177 52.1029 1.92969 52.0534 1.4349 51.7565 0.865885 51.2122 0.222656 51.9544 0.272135 52.4616 0.272135 52.7337 0.222656 53.0059 0.173177 53.1419-0.0247396 53.1419-0.371094L53.1419-2.07812 46.0911-2.07812 46.0911 1.78125 44.5326 1.78125C44.582 0.395833 44.6068-0.816406 44.6068-1.85547L44.6068-6.97656C44.6068-8.16406 44.582-9.15365 44.5326-9.94531ZM53.1419-6.67969 53.1419-8.68359 46.0911-8.68359 46.0911-6.67969ZM53.1419-3.33984 53.1419-5.34375 46.0911-5.34375 46.0911-3.33984ZM42.5286-4.45312C42.2318-4.00781 41.873-3.17904 41.4525-1.9668 41.0319-0.754557 40.6484 0.494792 40.3021 1.78125 39.7083 1.28646 39.0156 0.940104 38.224 0.742188 38.7188 0.197917 39.2135-0.59375 39.7083-1.63281 40.2031-2.67188 40.6484-3.98307 41.0443-5.56641 41.5391-5.12109 42.0339-4.75 42.5286-4.45312ZM40.1536-14.918C41.0443-14.2747 41.9844-13.4583 42.974-12.4688 42.4297-12.0729 42.0091-11.6771 41.7122-11.2812 40.8711-12.2708 39.9557-13.1615 38.9661-13.9531 39.3125-14.1016 39.7083-14.4232 40.1536-14.918ZM38.8919-10.0938C40.0794-9.5 41.1927-8.85677 42.2318-8.16406 41.8854-7.76823 41.5391-7.32292 41.1927-6.82812 40.2526-7.57031 39.2135-8.26302 38.0755-8.90625 38.3229-9.20312 38.5951-9.59896 38.8919-10.0938ZM55.6654-13.8789C55.3685-13.681 54.9727-13.2728 54.4779-12.6543 53.9831-12.0358 53.5625-11.4297 53.2161-10.8359L51.8802-11.5781C52.5729-12.3698 53.2656-13.4583 53.9583-14.8438 54.5521-14.4479 55.1211-14.1263 55.6654-13.8789ZM45.1263-14.7695C45.7695-13.9779 46.4375-12.9635 47.1302-11.7266 46.5859-11.4792 46.1159-11.207 45.7201-10.9102 45.2253-11.9492 44.5573-12.9635 43.7161-13.9531 44.1615-14.151 44.6315-14.4232 45.1263-14.7695ZM62.6797-15.5117C63.224-15.4128 63.793-15.3385 64.3867-15.2891 64.2878-15.0417 64.2135-14.5716 64.1641-13.8789L66.7617-13.8789C66.7617-14.3737 66.737-14.8932 66.6875-15.4375L68.0977-15.4375C68.0482-14.8932 68.0234-14.3737 68.0234-13.8789L72.8477-13.8789C72.7982-13.2852 72.7734-12.6667 72.7734-12.0234 72.7734-11.3802 72.7982-10.7865 72.8477-10.2422L68.0234-10.2422 68.0234-8.90625 73.8867-8.90625C73.8372-8.0651 73.8001-7.3724 73.7754-6.82812 73.7506-6.28385 73.6022-5.91276 73.3301-5.71484 73.0579-5.51693 72.4518-5.31901 71.5117-5.12109 71.4128-5.61589 71.1901-6.11068 70.8438-6.60547 71.487-6.60547 71.9075-6.64258 72.1055-6.7168 72.3034-6.79102 72.4023-7.14974 72.4023-7.79297L68.0234-7.79297 68.0234-6.08594 71.1406-6.08594 71.1406-3.48828C71.1406-2.94401 71.1654-2.30078 71.2148-1.55859L69.6562-1.55859 69.6562-4.97266 61.6406-4.97266 61.6406-1.03906 60.1563-1.03906C60.2057-1.88021 60.2305-2.6224 60.2305-3.26562L60.2305-5.12109C59.7357-4.82422 58.9193-4.45312 57.7813-4.00781 57.5339-4.5026 57.237-4.9974 56.8906-5.49219 57.5339-5.54167 58.3874-5.77669 59.4512-6.19727 60.515-6.61784 61.3438-7.14974 61.9375-7.79297L58.5977-7.79297C58.7956-9.22786 58.8945-10.4154 58.8945-11.3555L62.8281-11.3555 62.8281-12.7656C60.651-12.7656 59.2161-12.7409 58.5234-12.6914L58.5234-13.9531C59.2656-13.9036 60.7005-13.8789 62.8281-13.8789 62.8281-14.3242 62.7786-14.8685 62.6797-15.5117ZM66.8359-3.85938C66.5885-3.3151 66.304-2.67188 65.9824-1.92969 65.6608-1.1875 65.2279-0.59375 64.6836-0.148438 64.1393 0.296875 63.3724 0.705078 62.3828 1.07617 61.3932 1.44727 60.1068 1.70703 58.5234 1.85547 58.375 1.36068 58.1276 0.841146 57.7813 0.296875 58.8203 0.296875 59.8099 0.210286 60.75 0.0371094 61.6901-0.136068 62.5684-0.519531 63.3848-1.11328 64.2012-1.70703 64.7578-2.77083 65.0547-4.30469 65.5495-4.10677 66.1432-3.95833 66.8359-3.85938ZM67.5781-2.07812C68.5677-1.68229 69.5202-1.28646 70.4355-0.890625 71.3509-0.494792 72.2292-0.0989583 73.0703 0.296875 72.625 0.841146 72.2786 1.3112 72.0312 1.70703 71.0911 1.21224 70.2995 0.804036 69.6562 0.482422 69.013 0.160807 68.0482-0.247396 66.7617-0.742188 66.9596-1.03906 67.2318-1.48438 67.5781-2.07812ZM66.6875-6.08594 66.6875-7.79297 63.793-7.79297C63.1992-6.95182 62.6302-6.38281 62.0859-6.08594ZM71.2891-11.3555 71.2891-12.7656 68.0234-12.7656 68.0234-11.3555ZM66.6875-11.3555 66.6875-12.7656 64.1641-12.7656 64.1641-11.3555ZM66.6875-8.90625 66.6875-10.2422 64.1641-10.2422C64.1146-9.69792 64.0651-9.2526 64.0156-8.90625ZM62.5313-8.90625C62.6797-9.45052 62.7539-9.89583 62.7539-10.2422L60.3047-10.2422 60.2305-8.90625ZM91.4401-12.8398C91.0443-12.4935 90.5866-12.0482 90.0671-11.5039 89.5475-10.9596 88.8177-10.2174 87.8776-9.27734L89.9557-9.27734C90.7969-9.27734 91.6628-9.30208 92.5534-9.35156L92.5534-8.01562C91.6628-8.0651 90.7721-8.08984 89.8815-8.08984L86.3932-8.08984C85.6016-7.49609 84.7109-6.85286 83.7214-6.16016L90.03-6.16016C89.9805-5.26953 89.9557-4.45312 89.9557-3.71094L89.9557-1.11328C89.9557-0.222656 89.9805 0.742188 90.03 1.78125L88.5456 1.78125 88.5456 0.667969 81.4206 0.667969 81.4206 1.78125 79.862 1.78125C79.9115 0.989583 79.9362 0.247396 79.9362-0.445312L79.9362-3.85938C78.9466-3.3151 77.8333-2.77083 76.5964-2.22656 76.1016-2.91927 75.7552-3.33984 75.5573-3.48828 75.9036-3.58724 76.5592-3.82227 77.5241-4.19336 78.4889-4.56445 79.293-4.97266 79.9362-5.41797L79.9362-6.16016 81.3464-6.16016C82.4349-6.75391 83.3997-7.39714 84.2409-8.08984L78.9714-8.08984C77.9323-8.08984 76.9675-8.0651 76.0768-8.01562L76.0768-9.35156C77.0664-9.30208 78.0312-9.27734 78.9714-9.27734L82.905-9.27734 82.905-11.5781 80.6784-11.5781C79.8372-11.5781 79.0703-11.5534 78.3776-11.5039L78.3776-12.8398C79.0703-12.7904 79.8372-12.7656 80.6784-12.7656L82.905-12.7656C82.905-13.5078 82.8802-14.349 82.8307-15.2891L84.4635-15.2891C84.4141-14.5964 84.3893-13.7552 84.3893-12.7656L85.5026-12.7656C86.1458-12.7656 86.888-12.7904 87.7292-12.8398L87.7292-11.5039C86.888-11.5534 86.1458-11.5781 85.5026-11.5781L84.3893-11.5781 84.3893-9.27734 85.8737-9.27734C86.5664-9.82161 87.2591-10.4648 87.9518-11.207 88.6445-11.9492 89.362-12.8893 90.1042-14.0273 90.6484-13.4831 91.0938-13.0872 91.4401-12.8398ZM88.5456-0.519531 88.5456-2.22656 81.4206-2.22656 81.4206-0.519531ZM88.5456-3.41406 88.5456-4.97266 81.4206-4.97266 81.4206-3.41406Z" fill="#FFFFFF" transform="matrix(1 0 0 1.00029 17.4454 30)"/></g></g></g><path d="M61.5001 149.711C61.5001 135.808 72.7678 124.537 86.6673 124.537L187.333 124.537C201.232 124.537 212.5 135.808 212.5 149.711L212.5 375.443C212.5 389.346 201.232 400.617 187.333 400.617L86.6673 400.617C72.7678 400.617 61.5001 389.346 61.5001 375.443Z" stroke="#98B954" stroke-linejoin="round" stroke-miterlimit="10" fill="url(#fill18)" fill-rule="evenodd"/><text fill="#FFFFFF" font-family="SimHei,SimHei_MSFontService,sans-serif" font-weight="400" font-size="19" transform="matrix(1 0 0 1.00029 89.4454 269)">服务消费者</text><g clip-path="url(#clip19)"><g clip-path="url(#clip20)" filter="url(#fx2)" transform="translate(1010 120)"><g clip-path="url(#clip21)"><path d="M6.50006 32.1263C6.50006 18.2229 17.7677 6.95193 31.6671 6.95193L132.333 6.95193C146.232 6.95193 157.5 18.2229 157.5 32.1263L157.5 264.86C157.5 278.764 146.232 290.035 132.333 290.035L31.6671 290.035C17.7677 290.035 6.50006 278.764 6.50006 264.86Z" stroke="#46AAC5" stroke-linejoin="round" stroke-miterlimit="10" fill="#FF0000" fill-rule="evenodd"/></g></g><g clip-path="url(#clip22)" filter="url(#fx3)" transform="translate(1028 245)"><g clip-path="url(#clip23)"><path d="M10.9844 1.70703 9.57422 1.70703C9.6237 0.519531 9.64844-0.59375 9.64844-1.63281L9.64844-11.9492C9.64844-12.7904 9.6237-13.7057 9.57422-14.6953L16.4766-14.6953C16.4271-14.0026 16.3776-13.248 16.3281-12.4316 16.2786-11.6152 16.2044-10.9967 16.1055-10.5762 16.0065-10.1556 15.7096-9.84635 15.2148-9.64844 14.7201-9.45052 14.0768-9.30208 13.2852-9.20312 13.1367-9.79688 12.9141-10.2917 12.6172-10.6875 13.8542-10.6875 14.5469-10.8236 14.6953-11.0957 14.8437-11.3678 14.918-12.1471 14.918-13.4336L10.9844-13.4336 10.9844-8.46094 17.1445-8.46094C16.9466-7.17448 16.6992-6.02409 16.4023-5.00977 16.1055-3.99544 15.7096-2.99349 15.2148-2.00391 16.056-1.01432 17.0208-0.272135 18.1094 0.222656 17.763 0.519531 17.4167 0.940104 17.0703 1.48438 16.1302 0.841146 15.2396 0.0494792 14.3984-0.890625 13.8047-0.0494792 12.9883 0.841146 11.9492 1.78125 11.7018 1.33594 11.4297 0.940104 11.1328 0.59375 11.8255 0.0989583 12.5924-0.742188 13.4336-1.92969 12.7904-2.77083 12.1471-4.52734 11.5039-7.19922L10.9844-7.19922ZM7.94141-14.6211C7.89193-14.2253 7.86719-13.3099 7.86719-11.875L7.86719-0.890625C7.86719 0.148437 7.64453 0.779297 7.19922 1.00195 6.75391 1.22461 6.13542 1.4349 5.34375 1.63281 5.14583 0.890625 4.89844 0.296875 4.60156-0.148438 5.29427-0.148438 5.78906-0.173177 6.08594-0.222656 6.38281-0.272135 6.53125-0.643229 6.53125-1.33594L6.53125-5.04688 3.63672-5.04688C3.53776-3.8099 3.36458-2.67188 3.11719-1.63281 2.86979-0.59375 2.52344 0.420573 2.07812 1.41016 1.68229 1.0638 1.21224 0.766927 0.667969 0.519531 1.26172-0.56901 1.66992-1.5957 1.89258-2.56055 2.11523-3.52539 2.26367-4.5026 2.33789-5.49219 2.41211-6.48177 2.44922-8.04036 2.44922-10.168 2.44922-12.2956 2.42448-13.7799 2.375-14.6211ZM6.53125-6.30859 6.53125-9.27734 3.78516-9.27734 3.71094-6.30859ZM6.53125-10.5391 6.53125-13.3594 3.78516-13.3594 3.78516-10.5391ZM12.8398-7.19922C13.2357-5.31901 13.7057-3.95833 14.25-3.11719 14.8437-4.25521 15.2643-5.61589 15.5117-7.19922ZM27.1276-14.6953C26.7318-14.349 26.3854-13.9531 26.0885-13.5078L34.3268-13.5078C33.8815-12.7656 33.3001-11.974 32.5827-11.1328 31.8652-10.2917 30.9622-9.5 29.8737-8.75781 30.5664-8.3125 31.5065-7.97852 32.694-7.75586 33.8815-7.5332 35.2917-7.39714 36.9245-7.34766 36.5286-6.90234 36.2565-6.38281 36.1081-5.78906 34.7227-5.88802 33.362-6.13542 32.026-6.53125 30.6901-6.92708 29.5768-7.39713 28.6862-7.94141 27.1029-7.19922 25.668-6.65495 24.3815-6.30859 23.0951-5.96224 21.8333-5.6901 20.5964-5.49219 20.3984-6.08594 20.1016-6.60547 19.7057-7.05078 20.7943-7.05078 22.0312-7.19922 23.4167-7.49609 24.8021-7.79297 26.1628-8.21354 27.4987-8.75781 26.4596-9.7474 25.569-10.7617 24.8268-11.8008 23.9857-10.7617 23.1198-9.89583 22.2292-9.20312 21.8828-9.59896 21.4375-9.89583 20.8932-10.0938 22.2786-11.0833 23.293-12.0358 23.9362-12.9512 24.5794-13.8665 25.0495-14.7201 25.3464-15.5117 25.9896-15.1654 26.5833-14.8932 27.1276-14.6953ZM26.9792-4.89844C27.0781-5.49219 27.1276-6.1849 27.1276-6.97656 27.7214-6.8776 28.3151-6.80339 28.9089-6.75391 28.7604-6.45703 28.612-5.83854 28.4635-4.89844L34.4753-4.89844C34.4258-4.30469 34.3763-3.62435 34.3268-2.85742 34.2773-2.09049 34.1908-1.26172 34.0671-0.371094 33.9434 0.519531 33.5846 1.03906 32.9909 1.1875 32.3971 1.33594 31.457 1.48438 30.1706 1.63281 30.0716 0.989583 29.8242 0.445312 29.4284 0 30.8633 0 31.7292-0.0494792 32.026-0.148438 32.3229-0.247396 32.5208-0.519531 32.6198-0.964844L32.8424-3.78516 28.3151-3.78516C27.6224-1.65755 26.6452-0.272135 25.3835 0.371094 24.1217 1.01432 22.7734 1.58333 21.3385 2.07812 21.1901 1.63281 20.8438 1.11328 20.2995 0.519531 21.487 0.420573 22.724 0.0494791 24.0104-0.59375 25.2969-1.23698 26.2122-2.30078 26.7565-3.78516L25.0495-3.78516C23.5651-3.78516 22.4766-3.73568 21.7839-3.63672L21.7839-4.97266C22.526-4.92318 23.6393-4.89844 25.1237-4.89844ZM28.7604-9.57422C29.75-10.168 30.7148-11.1081 31.6549-12.3945L26.0885-12.3945C27.0286-11.1576 27.9193-10.2174 28.7604-9.57422ZM53.9583-14.918C53.9089-14.1263 53.8841-13.013 53.8841-11.5781 53.8841-10.1927 53.9089-9.12891 53.9583-8.38672L45.4974-8.38672C45.5469-9.3763 45.5716-10.4401 45.5716-11.5781 45.5716-12.7656 45.5469-13.8789 45.4974-14.918ZM52.9193-7.05078C53.7604-7.05078 54.5768-7.07552 55.3685-7.125L55.3685-5.78906C54.6263-5.83854 53.8346-5.86328 52.9935-5.86328L50.3958-5.86328 50.3958-3.78516 51.5091-3.78516C52.3997-3.78516 53.2409-3.8099 54.0326-3.85938L54.0326-2.52344C53.2409-2.57292 52.4245-2.59766 51.5833-2.59766L50.3958-2.59766 50.3958-0.222656C50.9401-0.123698 51.6823-0.0742188 52.6224-0.0742188 53.5625-0.0742188 54.5521-0.148438 55.5911-0.296875 55.3932 0.0494791 55.1953 0.59375 54.9974 1.33594 53.513 1.33594 52.2266 1.32357 51.138 1.29883 50.0495 1.27409 49.1094 1.08854 48.3177 0.742188 47.526 0.395833 46.7839-0.0989584 46.0911-0.742188 45.6458 0.197917 44.9036 1.08854 43.8646 1.92969 43.5182 1.53385 43.0977 1.21224 42.6029 0.964844 43.6419 0.321615 44.3965-0.556641 44.8665-1.66992 45.3366-2.7832 45.5716-3.88411 45.5716-4.97266 46.1654-4.72526 46.7096-4.57682 47.2044-4.52734 47.056-4.23047 46.8581-3.4388 46.6107-2.15234 47.2539-1.3112 48.0456-0.766927 48.9857-0.519531L48.9857-5.86328 47.3529-5.86328C46.3138-5.86328 45.2995-5.83854 44.3099-5.78906L44.3099-7.125C45.2995-7.07552 46.3385-7.05078 47.4271-7.05078ZM40.6732-13.2852C40.6732-14.1263 40.6484-14.8438 40.599-15.4375L42.1576-15.4375C42.1081-14.8932 42.0833-14.2005 42.0833-13.3594L42.0833-11.3555C42.8255-11.3555 43.5677-11.3802 44.3099-11.4297L44.3099-10.0938C43.5677-10.1432 42.8255-10.168 42.0833-10.168L42.0833-6.82812C42.7266-7.17448 43.2956-7.49609 43.7904-7.79297 43.7904-7.39714 43.8151-6.95182 43.8646-6.45703 43.4193-6.20964 42.8255-5.88802 42.0833-5.49219L42.0833 0C41.9844 0.692708 41.737 1.12565 41.3411 1.29883 40.9453 1.47201 40.2526 1.60807 39.263 1.70703 39.263 1.11328 39.1146 0.544271 38.8177 0 39.5599 0.0494792 40.0547 0.0494792 40.3021 0 40.5495-0.0494792 40.6732-0.272135 40.6732-0.667969L40.6732-4.97266C40.0794-4.72526 39.3867-4.35417 38.5951-3.85938 38.3971-4.5026 38.1745-4.9974 37.9271-5.34375 38.8177-5.54167 39.7331-5.86328 40.6732-6.30859L40.6732-10.168C39.7826-10.168 39.0156-10.1432 38.3724-10.0938L38.3724-11.4297C39.0156-11.3802 39.7826-11.3555 40.6732-11.3555ZM52.5482-9.57422 52.5482-11.0586 46.9076-11.0586 46.9076-9.57422ZM52.5482-12.3203 52.5482-13.6562 46.9076-13.6562 46.9076-12.3203ZM73.293-9.5C72.9466-9.54948 72.3281-9.57422 71.4375-9.57422L70.4727-9.57422 70.4727-5.34375 72.1055-5.34375C72.6003-5.34375 73.1693-5.36849 73.8125-5.41797L73.8125-3.85938C73.1198-3.90885 72.4518-3.93359 71.8086-3.93359L64.2383-3.93359C63.2982-3.93359 62.5313-3.90885 61.9375-3.85938L61.9375-5.41797C62.5313-5.36849 63.2734-5.34375 64.1641-5.34375L64.9062-5.34375 64.9062-9.57422 64.3867-9.57422C63.5951-9.57422 62.9518-9.54948 62.457-9.5L62.457-10.9102C63.0013-10.8607 63.6445-10.8359 64.3867-10.8359L64.9062-10.8359 64.9062-12.8398C64.9062-13.7799 64.8815-14.4727 64.832-14.918L66.3164-14.918C66.2669-14.5716 66.2422-13.8294 66.2422-12.6914L66.2422-10.8359 68.9883-10.8359 68.9883-12.9883C68.9883-13.5326 68.9635-14.151 68.9141-14.8438L70.6211-14.8438C70.5221-14.2005 70.4727-13.5573 70.4727-12.9141L70.4727-10.8359 71.5859-10.8359C72.1797-10.8359 72.7487-10.8607 73.293-10.9102ZM59.2656 1.70703C59.3151 0.816406 59.3398-0.0494792 59.3398-0.890625L59.3398-8.75781C58.9935-8.11458 58.5482-7.3724 58.0039-6.53125 57.707-6.82812 57.2617-7.14974 56.668-7.49609 57.2617-8.08984 57.9544-9.07943 58.7461-10.4648 59.5378-11.8503 60.1563-13.5326 60.6016-15.5117 61.2448-15.1654 61.8633-14.8932 62.457-14.6953 62.1107-14.3984 61.5664-13.2357 60.8242-11.207L60.8242-1.03906C60.8242-0.0494792 60.849 0.865885 60.8984 1.70703ZM68.9883-5.34375 68.9883-9.57422 66.2422-9.57422 66.2422-5.34375ZM66.5391-2.30078C65.9948-1.70703 65.4258-1.05143 64.832-0.333984 64.2383 0.383464 63.5951 1.11328 62.9023 1.85547 62.4076 1.36068 61.9128 1.01432 61.418 0.816406 62.7539-0.173177 63.9909-1.53385 65.1289-3.26562 65.6237-2.91927 66.0938-2.59766 66.5391-2.30078ZM70.3984-3.26562C70.8438-2.86979 71.388-2.30078 72.0312-1.55859 72.6745-0.816406 73.2435-0.0989583 73.7383 0.59375 73.2435 0.890625 72.7734 1.23698 72.3281 1.63281 71.5859 0.445313 70.5221-0.865885 69.1367-2.30078 69.5325-2.59766 69.9531-2.91927 70.3984-3.26562ZM91.4401-12.8398C91.0443-12.4935 90.5866-12.0482 90.0671-11.5039 89.5475-10.9596 88.8177-10.2174 87.8776-9.27734L89.9557-9.27734C90.7969-9.27734 91.6628-9.30208 92.5534-9.35156L92.5534-8.01562C91.6628-8.0651 90.7721-8.08984 89.8815-8.08984L86.3932-8.08984C85.6016-7.49609 84.7109-6.85286 83.7214-6.16016L90.03-6.16016C89.9805-5.26953 89.9557-4.45312 89.9557-3.71094L89.9557-1.11328C89.9557-0.222656 89.9805 0.742188 90.03 1.78125L88.5456 1.78125 88.5456 0.667969 81.4206 0.667969 81.4206 1.78125 79.862 1.78125C79.9115 0.989583 79.9362 0.247396 79.9362-0.445312L79.9362-3.85938C78.9466-3.3151 77.8333-2.77083 76.5964-2.22656 76.1016-2.91927 75.7552-3.33984 75.5573-3.48828 75.9036-3.58724 76.5592-3.82227 77.5241-4.19336 78.4889-4.56445 79.293-4.97266 79.9362-5.41797L79.9362-6.16016 81.3464-6.16016C82.4349-6.75391 83.3997-7.39714 84.2409-8.08984L78.9714-8.08984C77.9323-8.08984 76.9675-8.0651 76.0768-8.01562L76.0768-9.35156C77.0664-9.30208 78.0312-9.27734 78.9714-9.27734L82.905-9.27734 82.905-11.5781 80.6784-11.5781C79.8372-11.5781 79.0703-11.5534 78.3776-11.5039L78.3776-12.8398C79.0703-12.7904 79.8372-12.7656 80.6784-12.7656L82.905-12.7656C82.905-13.5078 82.8802-14.349 82.8307-15.2891L84.4635-15.2891C84.4141-14.5964 84.3893-13.7552 84.3893-12.7656L85.5026-12.7656C86.1458-12.7656 86.888-12.7904 87.7292-12.8398L87.7292-11.5039C86.888-11.5534 86.1458-11.5781 85.5026-11.5781L84.3893-11.5781 84.3893-9.27734 85.8737-9.27734C86.5664-9.82161 87.2591-10.4648 87.9518-11.207 88.6445-11.9492 89.362-12.8893 90.1042-14.0273 90.6484-13.4831 91.0938-13.0872 91.4401-12.8398ZM88.5456-0.519531 88.5456-2.22656 81.4206-2.22656 81.4206-0.519531ZM88.5456-3.41406 88.5456-4.97266 81.4206-4.97266 81.4206-3.41406Z" fill="#FFFFFF" transform="matrix(1 0 0 1.00029 16.791 30)"/></g></g></g><path d="M1016.5 149.711C1016.5 135.807 1027.77 124.537 1041.67 124.537L1142.33 124.537C1156.23 124.537 1167.5 135.807 1167.5 149.711L1167.5 382.445C1167.5 396.348 1156.23 407.619 1142.33 407.619L1041.67 407.619C1027.77 407.619 1016.5 396.348 1016.5 382.445Z" stroke="#46AAC5" stroke-linejoin="round" stroke-miterlimit="10" fill="url(#fill24)" fill-rule="evenodd"/><text fill="#FFFFFF" font-family="SimHei,SimHei_MSFontService,sans-serif" font-weight="400" font-size="19" transform="matrix(1 0 0 1.00029 1044.79 273)">服务提供者</text><g clip-path="url(#clip25)"><g clip-path="url(#clip26)" filter="url(#fx4)" transform="translate(422 132)"><g clip-path="url(#clip27)"><path d="M6.50006 37.6318C6.50006 20.6897 20.2303 6.95546 37.1674 6.95546L206.833 6.95546C223.77 6.95546 237.5 20.6897 237.5 37.6318L237.5 160.333C237.5 177.275 223.77 191.009 206.833 191.009L37.1674 191.009C20.2303 191.009 6.50006 177.275 6.50006 160.333Z" stroke="#7D60A0" stroke-linejoin="round" stroke-miterlimit="10" fill="#FF0000" fill-rule="evenodd"/></g></g><g clip-path="url(#clip28)" filter="url(#fx5)" transform="translate(444 209)"><g clip-path="url(#clip29)"><path d="M3.19922 0 1.29199 0 1.29199-15.9141 3.1582-15.9141 8.78744-5.32178 9.40283-3.74268 9.4541-3.74268 9.40283-5.32178 9.40283-15.9141 11.3101-15.9141 11.3101 0 9.40956 0 3.1582-12.0905 3.19922-10.4394ZM21.9593-2.57373C21.474-1.78076 20.8621-1.11768 20.1239-0.584473 19.2899 0.0170898 18.4525 0.317871 17.6117 0.317871 16.3743 0.317871 15.4173-0.232422 14.7406-1.33301 14.1732-2.25586 13.8895-3.37354 13.8895-4.68604 13.8895-7.37256 14.8192-9.38232 16.6785-10.7153 17.5262-11.3169 18.5755-11.6177 19.8265-11.6177 20.2093-11.6177 20.7562-11.5801 21.4671-11.5049 21.556-11.498 21.7201-11.481 21.9593-11.4536L23.8768-11.4536 23.8768-3.36328C23.8768-1.98242 24.0203-0.861328 24.3075 0L22.3182 0C22.1678-0.628906 22.0482-1.48682 21.9593-2.57373ZM21.9593-4.83984 21.9593-9.75146C21.2826-9.9292 20.6536-10.0181 20.0726-10.0181 18.7464-10.0181 17.7074-9.48828 16.9554-8.42871 16.2923-7.48535 15.9608-6.32324 15.9608-4.94238 15.9608-4.11523 16.1043-3.38379 16.3914-2.74805 16.7674-1.9209 17.3245-1.50732 18.0628-1.50732 18.7806-1.50732 19.5462-1.90723 20.3597-2.70703 20.9681-3.30859 21.5013-4.01953 21.9593-4.83984ZM36.8947-0.328125C35.6164 0.102539 34.3996 0.317871 33.2443 0.317871 32.1437 0.317871 31.1457 0.0683594 30.2502-0.430664 29.3341-0.950195 28.6164-1.68506 28.0968-2.63525 27.5978-3.5376 27.3483-4.56641 27.3483-5.72168 27.3483-7.40332 27.8918-8.8252 28.9787-9.9873 30.0861-11.1768 31.4738-11.7715 33.1418-11.7715 34.3244-11.7715 35.5754-11.5493 36.8947-11.105L36.8947-9.26953C35.5617-9.87109 34.3688-10.1719 33.3161-10.1719 31.7028-10.1719 30.5715-9.46179 29.922-8.04163 29.5871-7.31103 29.4196-6.55994 29.4196-5.78833 29.4196-4.54568 29.7751-3.52152 30.486-2.71584 31.2243-1.86231 32.2052-1.43555 33.4289-1.43555 34.3107-1.43555 35.466-1.67822 36.8947-2.16357ZM44.8062 0.317871C43.1245 0.317871 41.7847-0.280273 40.7866-1.47656 39.8569-2.59766 39.3921-4.01611 39.3921-5.73193 39.3921-7.44775 39.8604-8.86279 40.7969-9.97705 41.7881-11.1733 43.1245-11.7715 44.8062-11.7715 46.481-11.7715 47.8174-11.1733 48.8154-9.97705 49.7451-8.85596 50.21-7.44092 50.21-5.73193 50.21-4.02295 49.7451-2.60449 48.8154-1.47656 47.8174-0.280273 46.481 0.317871 44.8062 0.317871ZM44.8062-1.28174C45.9546-1.28174 46.8228-1.75913 47.4106-2.71392 47.896-3.50507 48.1387-4.51108 48.1387-5.73193 48.1387-6.94595 47.8926-7.94854 47.4004-8.73969 46.8125-9.69448 45.9478-10.1719 44.8062-10.1719 43.6577-10.1719 42.7896-9.69785 42.2017-8.74979 41.7095-7.95874 41.4634-6.95279 41.4634-5.73193 41.4634-4.51108 41.7095-3.50507 42.2017-2.71392 42.7896-1.75913 43.6577-1.28174 44.8062-1.28174ZM53.056-0.60498 53.056-2.625C54.4437-1.72949 55.9784-1.28174 57.66-1.28174 59.4715-1.28174 60.3773-1.82466 60.3773-2.91051 60.3773-3.32707 60.1722-3.67538 59.762-3.95544 59.5706-4.08522 59.1844-4.26958 58.6034-4.50851L57.9471-4.77496 56.6244-5.29742C55.5374-5.72766 54.7957-6.09985 54.3993-6.41398 53.7157-6.95348 53.3739-7.66031 53.3739-8.53445 53.3739-9.7159 53.8797-10.5798 54.8914-11.1261 55.6776-11.5564 56.7166-11.7715 58.0086-11.7715 59.2323-11.7715 60.391-11.5938 61.4847-11.2383L61.4847-9.50537C60.2269-9.94971 59.0443-10.1719 57.9369-10.1719 57.3216-10.1719 56.7816-10.0763 56.3167-9.88509 55.681-9.6187 55.3631-9.21917 55.3631-8.6865 55.3631-8.22892 55.681-7.82597 56.3167-7.47766 56.5423-7.35483 57.0584-7.14654 57.8651-6.85281L59.1571-6.38161C60.1619-6.0129 60.8968-5.63388 61.3617-5.24455 62.0316-4.6777 62.3665-3.95721 62.3665-3.08306 62.3665-1.85387 61.847-0.94902 60.8079-0.3685 59.9876 0.0890808 58.9076 0.317871 57.5677 0.317871 56.1048 0.317871 54.6009 0.0102539 53.056-0.60498Z" fill="#FFFFFF" transform="matrix(1 0 0 1.00029 18.5707 34)"/><path d="M15.3398-13.2891C16.3789-13.2891 17.582-13.3164 18.9492-13.3711L18.9492-11.8125C17.4727-11.8672 16.2969-11.8945 15.4219-11.8945L13.7812-11.8945 13.7812-7.38281 15.3398-7.38281C16.2695-7.38281 17.3633-7.41016 18.6211-7.46484L18.6211-5.90625C17.418-5.96094 16.3242-5.98828 15.3398-5.98828L13.7812-5.98828 13.7812 0 15.832 0C17.1445 0 18.5117-0.0273438 19.9336-0.0820312L19.9336 1.47656C18.5117 1.42188 17.1719 1.39453 15.9141 1.39453L9.92578 1.39453C8.50391 1.39453 7.32812 1.42188 6.39844 1.47656L6.39844-0.0820312C7.27344-0.0273438 8.47656 0 10.0078 0L12.1406 0 12.1406-5.98828 10.8281-5.98828C9.78906-5.98828 8.80469-5.96094 7.875-5.90625L7.875-7.46484C8.80469-7.41016 9.81641-7.38281 10.9102-7.38281L12.1406-7.38281 12.1406-11.8945 10.582-11.8945C9.48828-11.8945 8.39453-11.8672 7.30078-11.8125L7.30078-13.3711C8.39453-13.3164 9.51562-13.2891 10.6641-13.2891ZM6.39844-4.67578C5.79688-3.69141 5.12695-2.44727 4.38867-0.943359 3.65039 0.560547 3.14453 1.61328 2.87109 2.21484 2.32422 1.66797 1.72266 1.20312 1.06641 0.820312 1.66797 0.273438 2.35156-0.669922 3.11719-2.00977 3.88281-3.34961 4.56641-4.64844 5.16797-5.90625 5.55078-5.41406 5.96094-5.00391 6.39844-4.67578ZM2.37891-10.9922C3.63672-10.1719 4.75781-9.43359 5.74219-8.77734 5.41406-8.39453 5.05859-7.90234 4.67578-7.30078 3.63672-8.23047 2.54297-9.02344 1.39453-9.67969 1.72266-10.0078 2.05078-10.4453 2.37891-10.9922ZM3.36328-16.4883C4.67578-15.5039 5.6875-14.6289 6.39844-13.8633 5.90625-13.4805 5.52344-13.0703 5.25-12.6328 4.32031-13.7266 3.30859-14.6016 2.21484-15.2578 2.59766-15.6406 2.98047-16.0508 3.36328-16.4883ZM10.582-16.2422C10.9648-16.5156 11.3477-16.8438 11.7305-17.2266 12.4414-16.625 13.3164-15.75 14.3555-14.6016 13.918-14.2734 13.4805-13.918 13.043-13.5352 12.1133-14.6836 11.293-15.5859 10.582-16.2422ZM30.6849-16.1602C30.6302-15.3398 30.6029-14.3555 30.6029-13.207L30.6029-8.36719 33.1458-8.36719 33.1458-13.2891C33.1458-14.3281 33.1185-15.2852 33.0638-16.1602L39.1341-16.1602C39.0794-15.3945 39.0521-14.4102 39.0521-13.207L39.0521-8.36719C39.8177-8.36719 40.638-8.39453 41.513-8.44922L41.513-6.89062C40.5833-6.94531 39.763-6.97266 39.0521-6.97266L39.0521-0.574219C39.0521 0.410156 38.847 1.02539 38.4369 1.27148 38.0267 1.51758 37.2474 1.75 36.099 1.96875 35.9896 1.25781 35.7435 0.628906 35.3607 0.0820312 36.0716 0.0820312 36.5775 0.0546875 36.8783 0 37.179-0.0546875 37.3841-0.355469 37.4935-0.902344L37.4935-6.97266 34.6224-6.97266C34.513-3.14453 33.8021-0.109375 32.4896 2.13281 32.0521 1.69531 31.5326 1.39453 30.931 1.23047 32.2435-0.519531 32.9544-3.25391 33.0638-6.97266L30.6029-6.97266 30.6029-0.0820312C30.6029 0.738281 30.3431 1.23047 29.8236 1.39453 29.304 1.55859 28.6888 1.72266 27.9779 1.88672 27.8138 1.33984 27.5677 0.738281 27.2396 0.0820312 27.8958 0.0820312 28.347 0.0683594 28.5931 0.0410156 28.8392 0.0136719 28.9896-0.21875 29.0443-0.65625L29.0443-6.97266 26.4193-6.97266C26.3099-3.25391 25.5443-0.246094 24.1224 2.05078 23.6302 1.66797 23.0833 1.39453 22.4818 1.23047 23.9583-0.792969 24.724-3.52734 24.7786-6.97266 24.0677-6.97266 23.2201-6.94531 22.2357-6.89062L22.2357-8.44922C23.1654-8.39453 24.0404-8.36719 24.8607-8.36719L24.8607-13.125C24.8607-14.3281 24.8333-15.3398 24.7786-16.1602ZM37.4935-8.36719 37.4935-14.6836 34.7044-14.6836 34.7044-8.36719ZM29.0443-8.36719 29.0443-14.6836 26.4193-14.6836 26.4193-8.36719ZM54.069-17.0625C54.0143-15.5312 53.987-14.082 53.987-12.7148L61.1237-12.7148C61.069-11.6211 61.0417-10.1172 61.0417-8.20312 61.0417-6.34375 61.069-4.94922 61.1237-4.01953L59.319-4.01953 59.319-5.25 53.987-5.25 53.987-1.72266C53.987-1.06641 54.0143 0.164063 54.069 1.96875L52.1003 1.96875C52.2096 0.984375 52.2643-0.164063 52.2643-1.47656L52.2643-5.25 46.9323-5.25 46.9323-4.01953 45.1276-4.01953C45.1823-4.83984 45.2096-6.23438 45.2096-8.20312 45.2096-10.2266 45.1823-11.7305 45.1276-12.7148L52.2643-12.7148C52.2643-14.1914 52.237-15.6406 52.1823-17.0625ZM59.319-6.5625 59.319-11.4023 53.987-11.4023 53.987-6.5625ZM52.2643-6.5625 52.2643-11.4023 46.9323-11.4023 46.9323-6.5625ZM72.8594-11.2383C72.8047-10.582 72.7773-9.59766 72.7773-8.28516L72.7773-1.23047C72.7773-0.574219 73.1055-0.246094 73.7617-0.246094L77.6172-0.246094C78.2188-0.191406 78.6152-0.341797 78.8066-0.697266 78.998-1.05273 79.1484-1.85938 79.2578-3.11719 79.8047-2.67969 80.4336-2.37891 81.1445-2.21484 80.7617-0.464844 80.3789 0.587891 79.9961 0.943359 79.6133 1.29883 79.1484 1.44922 78.6016 1.39453L72.6133 1.39453C71.6289 1.39453 71.082 0.792969 70.9727-0.410156L70.9727-8.20312C70.9727-9.29688 70.9453-10.3086 70.8906-11.2383ZM68.8398-10.0898C68.6758-9.76172 68.457-8.90039 68.1836-7.50586 67.9102-6.11133 67.5273-4.42969 67.0352-2.46094 66.3789-2.67969 65.7227-2.84375 65.0664-2.95312 65.832-5.14062 66.4062-7.65625 66.7891-10.5 67.2812-10.3906 67.9648-10.2539 68.8398-10.0898ZM80.6523-10.8281C81.9102-9.07812 83.1133-7.32812 84.2617-5.57812 83.6602-5.30469 83.0859-4.92188 82.5391-4.42969 81.3906-6.61719 80.2695-8.42188 79.1758-9.84375 79.668-10.1172 80.1602-10.4453 80.6523-10.8281ZM74.0078-17.2266C74.6094-16.1875 75.5664-14.7383 76.8789-12.8789 76.2227-12.5508 75.6211-12.1953 75.0742-11.8125 74.1992-13.6172 73.3516-15.0937 72.5312-16.2422 73.0234-16.5156 73.5156-16.8438 74.0078-17.2266Z" fill="#FFFFFF" transform="matrix(1 0 0 1.00029 95.5707 34)"/></g></g></g><path d="M428.5 167.216C428.5 150.274 442.23 136.54 459.167 136.54L628.833 136.54C645.77 136.54 659.5 150.274 659.5 167.216L659.5 289.918C659.5 306.86 645.77 320.594 628.833 320.594L459.167 320.594C442.23 320.594 428.5 306.86 428.5 289.918Z" stroke="#7D60A0" stroke-linejoin="round" stroke-miterlimit="10" fill="url(#fill30)" fill-rule="evenodd"/><text fill="#FFFFFF" font-family="Monaco,Monaco_MSFontService,sans-serif" font-weight="400" font-size="21" transform="matrix(1 0 0 1.00029 462.571 241)">Nacos <tspan font-family="SimHei,SimHei_MSFontService,sans-serif" font-size="21" x="77" y="0">注册中心</tspan></text><g clip-path="url(#clip31)" filter="url(#fx6)" transform="translate(640 146)"><g clip-path="url(#clip32)"><path d="M4.41507e-07-1.5 347.688-1.4999 347.688 1.5001-4.41507e-07 1.5ZM347.688 0.000102338 341.688-7.4999 356.688 0.000104987 341.688 7.5001Z" fill="#4BACC6" transform="matrix(-1 0 0 1.00029 376.188 19.6483)"/></g></g><path d="M3.92451e-07-1.33333 348.688-1.33323 348.688 1.33344-3.92451e-07 1.33333ZM348.688 0.000102632 343.355-6.66657 356.688 0.000104987 343.355 6.66677Z" fill="#4BACC6" transform="matrix(-1 0 0 1.00029 1016.19 163.548)"/><g clip-path="url(#clip33)" filter="url(#fx7)" transform="translate(206 162)"><g clip-path="url(#clip34)"><path d="M5.50005 18.1526 16.1667 18.1526 16.1667 21.1534 5.50004 21.1534ZM24.1667 18.1526 34.8334 18.1526 34.8334 21.1535 24.1667 21.1534ZM42.8334 18.1526 53.5 18.1526 53.5 21.1535 42.8334 21.1535ZM61.5 18.1526 72.1667 18.1526 72.1667 21.1535 61.5 21.1535ZM80.1667 18.1526 90.8334 18.1526 90.8334 21.1535 80.1667 21.1535ZM98.8334 18.1526 109.5 18.1526 109.5 21.1535 98.8334 21.1535ZM117.5 18.1526 128.167 18.1526 128.167 21.1535 117.5 21.1535ZM136.167 18.1526 146.833 18.1526 146.833 21.1535 136.167 21.1535ZM154.833 18.1526 165.5 18.1526 165.5 21.1535 154.833 21.1535ZM173.5 18.1526 184.167 18.1526 184.167 21.1535 173.5 21.1535ZM192.167 18.1527 202.833 18.1527 202.833 21.1535 192.167 21.1535ZM209.923 19.6531 203.923 12.1509 218.923 19.6531 203.923 27.1553Z" fill="#9BBB59"/></g></g><path d="M211.5 178.219 222.167 178.219 222.167 180.886 211.5 180.886ZM230.167 178.219 240.833 178.219 240.833 180.886 230.167 180.886ZM248.833 178.219 259.5 178.219 259.5 180.886 248.833 180.886ZM267.5 178.219 278.167 178.219 278.167 180.886 267.5 180.886ZM286.167 178.219 296.833 178.219 296.833 180.886 286.167 180.886ZM304.833 178.219 315.5 178.219 315.5 180.886 304.833 180.886ZM323.5 178.219 334.167 178.219 334.167 180.886 323.5 180.886ZM342.167 178.219 352.833 178.219 352.833 180.886 342.167 180.886ZM360.833 178.219 371.5 178.219 371.5 180.886 360.833 180.886ZM379.5 178.219 390.167 178.219 390.167 180.886 379.5 180.886ZM398.167 178.219 408.833 178.219 408.833 180.886 398.167 180.886ZM416.833 178.219 416.923 178.219 416.923 180.886 416.833 180.886ZM416.923 179.553 411.589 172.884 424.923 179.553 411.589 186.221Z" fill="#9BBB59"/><text fill="#595959" font-family="SimHei,SimHei_MSFontService,sans-serif" font-weight="400" font-size="19" transform="matrix(1 0 0 1.00029 813.188 146)">注册服务信息<tspan font-size="19" x="-583.888" y="23.993">定时拉</tspan>取服务<tspan font-family="Monaco,Monaco_MSFontService,sans-serif" font-size="19" x="-460.722" y="23.993">pull</tspan></text><g clip-path="url(#clip35)" filter="url(#fx8)" transform="translate(203 370)"><g clip-path="url(#clip36)"><path d="M5.50005 18.2135 804.799 18.2136 804.799 21.2145 5.50005 21.2144ZM804.799 19.714 798.799 12.2118 813.799 19.714 798.799 27.2162Z" fill="#9BBB59"/></g></g><path d="M208.5 386.28 1008.8 386.28 1008.8 388.947 208.5 388.947ZM1008.8 387.614 1003.47 380.945 1016.8 387.614 1003.47 394.282Z" fill="#9BBB59"/><text fill="#595959" font-family="SimHei,SimHei_MSFontService,sans-serif" font-weight="400" font-size="19" transform="matrix(1 0 0 1.00029 515.995 378)">远程调用</text><g clip-path="url(#clip37)" filter="url(#fx9)" transform="translate(640 262)"><g clip-path="url(#clip38)"><path d="M4.50172e-07-1.5 10.6667-1.5 10.6667 1.5-4.50172e-07 1.5ZM18.6667-1.49999 29.3333-1.49999 29.3333 1.50001 18.6667 1.50001ZM37.3333-1.49999 48-1.49999 48 1.50001 37.3333 1.50001ZM56-1.49998 66.6667-1.49998 66.6667 1.50002 56 1.50002ZM74.6667-1.49998 85.3333-1.49997 85.3333 1.50003 74.6667 1.50002ZM93.3333-1.49997 104-1.49997 104 1.50003 93.3333 1.50003ZM112-1.49997 122.667-1.49996 122.667 1.50004 112 1.50003ZM130.667-1.49996 141.333-1.49996 141.333 1.50004 130.667 1.50004ZM149.333-1.49996 160-1.49995 160 1.50005 149.333 1.50004ZM168-1.49995 178.667-1.49995 178.667 1.50005 168 1.50005ZM186.667-1.49994 197.333-1.49994 197.333 1.50006 186.667 1.50006ZM205.333-1.49994 216-1.49994 216 1.50006 205.333 1.50006ZM224-1.49993 234.667-1.49993 234.667 1.50007 224 1.50007ZM242.667-1.49993 253.333-1.49992 253.333 1.50008 242.667 1.50007ZM261.333-1.49992 272-1.49992 272 1.50008 261.333 1.50008ZM280-1.49992 290.667-1.49991 290.667 1.50009 280 1.50008ZM298.667-1.49991 309.333-1.49991 309.333 1.50009 298.667 1.50009ZM317.333-1.4999 328-1.4999 328 1.5001 317.333 1.5001ZM336-1.4999 340.823-1.4999 340.823 1.5001 336 1.5001ZM340.822 0.000102286 334.822-7.4999 349.822 0.000104987 334.822 7.5001Z" fill="#F79646" transform="matrix(-1 0 0 1.00029 369.322 19.6823)"/></g></g><path d="M4.00153e-07-1.33333 10.6667-1.33333 10.6667 1.33334-4.00153e-07 1.33333ZM18.6667-1.33333 29.3333-1.33332 29.3333 1.33334 18.6667 1.33334ZM37.3333-1.33332 48-1.33332 48 1.33335 37.3333 1.33334ZM56-1.33332 66.6667-1.33331 66.6667 1.33335 56 1.33335ZM74.6667-1.33331 85.3333-1.33331 85.3333 1.33336 74.6667 1.33336ZM93.3333-1.33331 104-1.3333 104 1.33336 93.3333 1.33336ZM112-1.3333 122.667-1.3333 122.667 1.33337 112 1.33337ZM130.667-1.33329 141.333-1.33329 141.333 1.33338 130.667 1.33337ZM149.333-1.33329 160-1.33329 160 1.33338 149.333 1.33338ZM168-1.33328 178.667-1.33328 178.667 1.33339 168 1.33338ZM186.667-1.33328 197.333-1.33327 197.333 1.33339 186.667 1.33339ZM205.333-1.33327 216-1.33327 216 1.3334 205.333 1.33339ZM224-1.33327 234.667-1.33326 234.667 1.3334 224 1.3334ZM242.667-1.33326 253.333-1.33326 253.333 1.33341 242.667 1.33341ZM261.333-1.33325 272-1.33325 272 1.33341 261.333 1.33341ZM280-1.33325 290.667-1.33325 290.667 1.33342 280 1.33342ZM298.667-1.33324 309.333-1.33324 309.333 1.33343 298.667 1.33342ZM317.333-1.33324 328-1.33323 328 1.33343 317.333 1.33343ZM336-1.33323 341.823-1.33323 341.823 1.33344 336 1.33343ZM341.822 0.000102586 336.489-6.66657 349.822 0.000104987 336.489 6.66677Z" fill="#F79646" transform="matrix(-1 0 0 1.00029 1009.32 279.582)"/><text fill="#595959" font-family="SimHei,SimHei_MSFontService,sans-serif" font-weight="400" font-size="19" transform="matrix(1 0 0 1.00029 731.173 269)">临时<tspan font-size="19" x="37.3333" y="0">实例</tspan><tspan font-size="19" x="85.8333" y="0">采用</tspan><tspan font-size="19" x="123.167" y="0">心跳监测</tspan></text><g clip-path="url(#clip39)" filter="url(#fx10)" transform="translate(653 202)"><g clip-path="url(#clip40)"><path d="M6.50992 15.1634 17.1764 15.2336 17.1566 18.2344 6.4902 18.1642ZM25.1762 15.2861 35.8426 15.3563 35.8229 18.3571 25.1565 18.287ZM43.8424 15.4089 54.5089 15.479 54.4892 18.4798 43.8227 18.4097ZM62.5087 15.5316 73.1751 15.6017 73.1554 18.6025 62.489 18.5324ZM81.175 15.6543 91.8414 15.7244 91.8217 18.7252 81.1553 18.6551ZM99.8412 15.777 110.508 15.8471 110.488 18.848 99.8215 18.7778ZM118.507 15.8997 129.174 15.9699 129.154 18.9707 118.488 18.9005ZM137.174 16.0225 147.84 16.0926 147.82 19.0934 137.154 19.0233ZM155.84 16.1452 166.506 16.2153 166.487 19.2161 155.82 19.146ZM174.506 16.2679 185.173 16.338 185.153 19.3388 174.487 19.2687ZM193.173 16.3906 203.839 16.4607 203.819 19.4615 193.153 19.3914ZM211.839 16.5133 222.505 16.5834 222.486 19.5843 211.819 19.5141ZM230.505 16.636 241.171 16.7062 241.152 19.707 230.485 19.6369ZM249.171 16.7588 259.838 16.8289 259.818 19.8297 249.152 19.7596ZM267.838 16.8815 278.504 16.9516 278.484 19.9524 267.818 19.8823ZM286.504 17.0042 297.17 17.0743 297.151 20.0751 286.484 20.005ZM305.17 17.1269 315.837 17.197 315.817 20.1979 305.15 20.1277ZM323.836 17.2496 334.503 17.3198 334.483 20.3206 323.817 20.2504ZM342.503 17.3724 353.169 17.4425 353.149 20.4433 342.483 20.3732ZM354.469 18.9515 348.519 11.41 363.469 19.0107 348.42 26.4141Z" fill="#948A54"/></g></g><path d="M659.509 215.23 670.175 215.3 670.158 217.967 659.491 217.897ZM678.175 215.353 688.842 215.423 688.824 218.09 678.158 218.02ZM696.841 215.475 707.508 215.545 707.49 218.213 696.824 218.143ZM715.508 215.598 726.174 215.668 726.157 218.335 715.49 218.265ZM734.174 215.721 744.84 215.791 744.823 218.458 734.156 218.388ZM752.84 215.843 763.507 215.914 763.489 218.581 752.823 218.511ZM771.506 215.966 782.173 216.036 782.155 218.704 771.489 218.633ZM790.173 216.089 800.839 216.159 800.822 218.826 790.155 218.756ZM808.839 216.212 819.505 216.282 819.488 218.949 808.821 218.879ZM827.505 216.334 838.172 216.404 838.154 219.072 827.488 219.002ZM846.171 216.457 856.838 216.527 856.82 219.194 846.154 219.124ZM864.838 216.58 875.504 216.65 875.487 219.317 864.82 219.247ZM883.504 216.702 894.17 216.773 894.153 219.44 883.486 219.37ZM902.17 216.825 912.837 216.895 912.819 219.563 902.153 219.493ZM920.836 216.948 931.503 217.018 931.485 219.685 920.819 219.615ZM939.503 217.071 950.169 217.141 950.152 219.808 939.485 219.738ZM958.169 217.193 968.835 217.263 968.818 219.931 958.151 219.861ZM976.835 217.316 987.502 217.386 987.484 220.054 976.818 219.983ZM995.502 217.439 1006.17 217.509 1006.15 220.176 995.484 220.106ZM1008.47 218.858 1003.18 212.154 1016.47 218.91 1003.09 225.491Z" fill="#948A54"/><text fill="#595959" font-family="SimHei,SimHei_MSFontService,sans-serif" font-weight="400" font-size="19" transform="matrix(1 0 0 1.00029 714.226 207)">非临时<tspan font-size="19" x="56" y="0">实例</tspan><tspan font-family="Monaco,Monaco_MSFontService,sans-serif" font-size="19" x="104.5" y="0">Nacos </tspan>主动<tspan font-size="19" x="208.833" y="0">询问</tspan></text><g clip-path="url(#clip41)" filter="url(#fx11)" transform="translate(192 212)"><g clip-path="url(#clip42)"><path d="M0.0056101-1.49999 207.88-0.722521 207.869 2.27746-0.0056101 1.49999ZM207.874 0.777468 201.902-6.74492 216.874 0.811129 201.846 8.25498Z" fill="#9BBB59" transform="matrix(-1 0 0 1.00029 236.374 18.6674)"/></g></g><path d="M0.00498675-1.33332 208.879-0.552116 208.869 2.11453-0.00498675 1.33332ZM208.874 0.781208 203.566-5.90536 216.874 0.811129 203.516 7.42788Z" fill="#9BBB59" transform="matrix(-1 0 0 1.00029 428.374 228.567)"/><text fill="#595959" font-family="SimHei,SimHei_MSFontService,sans-serif" font-weight="400" font-size="19" transform="matrix(1 0 0 1.00029 217.169 260)">主动推<tspan font-size="19" x="56" y="0">送变更消息</tspan><tspan font-family="Monaco,Monaco_MSFontService,sans-serif" font-size="19" x="160.5" y="0">push</tspan></text><path d="M61 451.799C61 440.934 69.8053 432.127 80.6671 432.127L314.333 432.127C325.195 432.127 334 440.934 334 451.799L334 530.488C334 541.353 325.195 550.161 314.333 550.161L80.6671 550.161C69.8053 550.161 61 541.353 61 530.488Z" fill="#FDEADA" fill-rule="evenodd"/><text fill="#984807" font-family="SimHei,SimHei_MSFontService,sans-serif" font-weight="400" font-size="19" transform="matrix(1 0 0 1.00029 141.303 535)">服务列表缓存<tspan fill="#595959" font-family="Monaco,Monaco_MSFontService,sans-serif" font-size="19" x="-65.1618" y="-74.978">user</tspan><tspan fill="#595959" font-family="Monaco,Monaco_MSFontService,sans-serif" font-size="19" x="-20.4952" y="-74.978">-</tspan><tspan fill="#595959" font-family="Monaco,Monaco_MSFontService,sans-serif" font-size="19" x="-9.32851" y="-74.978">service:</tspan><tspan fill="#595959" font-family="Monaco,Monaco_MSFontService,sans-serif" font-size="19" x="-20.4952" y="-52.9845">localhost:8081</tspan><tspan fill="#595959" font-family="Monaco,Monaco_MSFontService,sans-serif" font-size="19" x="-20.4952" y="-29.9912">...</tspan></text></g></svg>