<svg width="1016" height="455" xmlns="http://www.w3.org/2000/svg" xmlns:xlink="http://www.w3.org/1999/xlink" overflow="hidden"><defs><filter id="fx0" x="-10%" y="-10%" width="120%" height="120%" filterUnits="userSpaceOnUse" primitiveUnits="userSpaceOnUse"><feComponentTransfer color-interpolation-filters="sRGB"><feFuncR type="discrete" tableValues="0 0"/><feFuncG type="discrete" tableValues="0 0"/><feFuncB type="discrete" tableValues="0 0"/><feFuncA type="linear" slope="0.34902" intercept="0"/></feComponentTransfer><feGaussianBlur stdDeviation="1.40051 1.3988"/></filter><filter id="fx1" x="-10%" y="-10%" width="120%" height="120%" filterUnits="userSpaceOnUse" primitiveUnits="userSpaceOnUse"><feComponentTransfer color-interpolation-filters="sRGB"><feFuncR type="discrete" tableValues="0 0"/><feFuncG type="discrete" tableValues="0 0"/><feFuncB type="discrete" tableValues="0 0"/><feFuncA type="linear" slope="0.34902" intercept="0"/></feComponentTransfer><feGaussianBlur stdDeviation="1.40051 1.3988"/></filter><filter id="fx2" x="-10%" y="-10%" width="120%" height="120%" filterUnits="userSpaceOnUse" primitiveUnits="userSpaceOnUse"><feComponentTransfer color-interpolation-filters="sRGB"><feFuncR type="discrete" tableValues="0 0"/><feFuncG type="discrete" tableValues="0 0"/><feFuncB type="discrete" tableValues="0 0"/><feFuncA type="linear" slope="0.34902" intercept="0"/></feComponentTransfer><feGaussianBlur stdDeviation="1.40051 1.3988"/></filter><filter id="fx3" x="-10%" y="-10%" width="120%" height="120%" filterUnits="userSpaceOnUse" primitiveUnits="userSpaceOnUse"><feComponentTransfer color-interpolation-filters="sRGB"><feFuncR type="discrete" tableValues="0 0"/><feFuncG type="discrete" tableValues="0 0"/><feFuncB type="discrete" tableValues="0 0"/><feFuncA type="linear" slope="0.34902" intercept="0"/></feComponentTransfer><feGaussianBlur stdDeviation="1.40051 1.3988"/></filter><filter id="fx4" x="-10%" y="-10%" width="120%" height="120%" filterUnits="userSpaceOnUse" primitiveUnits="userSpaceOnUse"><feComponentTransfer color-interpolation-filters="sRGB"><feFuncR type="discrete" tableValues="0 0"/><feFuncG type="discrete" tableValues="0 0"/><feFuncB type="discrete" tableValues="0 0"/><feFuncA type="linear" slope="0.380392" intercept="0"/></feComponentTransfer><feGaussianBlur stdDeviation="1.40051 1.3988"/></filter><filter id="fx5" x="-10%" y="-10%" width="120%" height="120%" filterUnits="userSpaceOnUse" primitiveUnits="userSpaceOnUse"><feComponentTransfer color-interpolation-filters="sRGB"><feFuncR type="discrete" tableValues="0 0"/><feFuncG type="discrete" tableValues="0 0"/><feFuncB type="discrete" tableValues="0 0"/><feFuncA type="linear" slope="0.380392" intercept="0"/></feComponentTransfer><feGaussianBlur stdDeviation="1.40051 1.3988"/></filter><filter id="fx6" x="-10%" y="-10%" width="120%" height="120%" filterUnits="userSpaceOnUse" primitiveUnits="userSpaceOnUse"><feComponentTransfer color-interpolation-filters="sRGB"><feFuncR type="discrete" tableValues="0 0"/><feFuncG type="discrete" tableValues="0 0"/><feFuncB type="discrete" tableValues="0 0"/><feFuncA type="linear" slope="0.380392" intercept="0"/></feComponentTransfer><feGaussianBlur stdDeviation="1.40051 1.3988"/></filter><filter id="fx7" x="-10%" y="-10%" width="120%" height="120%" filterUnits="userSpaceOnUse" primitiveUnits="userSpaceOnUse"><feComponentTransfer color-interpolation-filters="sRGB"><feFuncR type="discrete" tableValues="0 0"/><feFuncG type="discrete" tableValues="0 0"/><feFuncB type="discrete" tableValues="0 0"/><feFuncA type="linear" slope="0.380392" intercept="0"/></feComponentTransfer><feGaussianBlur stdDeviation="1.40051 1.3988"/></filter><filter id="fx8" x="-10%" y="-10%" width="120%" height="120%" filterUnits="userSpaceOnUse" primitiveUnits="userSpaceOnUse"><feComponentTransfer color-interpolation-filters="sRGB"><feFuncR type="discrete" tableValues="0 0"/><feFuncG type="discrete" tableValues="0 0"/><feFuncB type="discrete" tableValues="0 0"/><feFuncA type="linear" slope="0.380392" intercept="0"/></feComponentTransfer><feGaussianBlur stdDeviation="1.40051 1.3988"/></filter><filter id="fx9" x="-10%" y="-10%" width="120%" height="120%" filterUnits="userSpaceOnUse" primitiveUnits="userSpaceOnUse"><feComponentTransfer color-interpolation-filters="sRGB"><feFuncR type="discrete" tableValues="0 0"/><feFuncG type="discrete" tableValues="0 0"/><feFuncB type="discrete" tableValues="0 0"/><feFuncA type="linear" slope="0.380392" intercept="0"/></feComponentTransfer><feGaussianBlur stdDeviation="1.40051 1.3988"/></filter><filter id="fx10" x="-10%" y="-10%" width="120%" height="120%" filterUnits="userSpaceOnUse" primitiveUnits="userSpaceOnUse"><feComponentTransfer color-interpolation-filters="sRGB"><feFuncR type="discrete" tableValues="0 0"/><feFuncG type="discrete" tableValues="0 0"/><feFuncB type="discrete" tableValues="0 0"/><feFuncA type="linear" slope="0.380392" intercept="0"/></feComponentTransfer><feGaussianBlur stdDeviation="1.40051 1.3988"/></filter><filter id="fx11" x="-10%" y="-10%" width="120%" height="120%" filterUnits="userSpaceOnUse" primitiveUnits="userSpaceOnUse"><feComponentTransfer color-interpolation-filters="sRGB"><feFuncR type="discrete" tableValues="0 0"/><feFuncG type="discrete" tableValues="0 0"/><feFuncB type="discrete" tableValues="0 0"/><feFuncA type="linear" slope="0.380392" intercept="0"/></feComponentTransfer><feGaussianBlur stdDeviation="1.40051 1.3988"/></filter><filter id="fx12" x="-10%" y="-10%" width="120%" height="120%" filterUnits="userSpaceOnUse" primitiveUnits="userSpaceOnUse"><feComponentTransfer color-interpolation-filters="sRGB"><feFuncR type="discrete" tableValues="0 0"/><feFuncG type="discrete" tableValues="0 0"/><feFuncB type="discrete" tableValues="0 0"/><feFuncA type="linear" slope="0.380392" intercept="0"/></feComponentTransfer><feGaussianBlur stdDeviation="1.40051 1.3988"/></filter><filter id="fx13" x="-10%" y="-10%" width="120%" height="120%" filterUnits="userSpaceOnUse" primitiveUnits="userSpaceOnUse"><feComponentTransfer color-interpolation-filters="sRGB"><feFuncR type="discrete" tableValues="0 0"/><feFuncG type="discrete" tableValues="0 0"/><feFuncB type="discrete" tableValues="0 0"/><feFuncA type="linear" slope="0.380392" intercept="0"/></feComponentTransfer><feGaussianBlur stdDeviation="1.40051 1.3988"/></filter><filter id="fx14" x="-10%" y="-10%" width="120%" height="120%" filterUnits="userSpaceOnUse" primitiveUnits="userSpaceOnUse"><feComponentTransfer color-interpolation-filters="sRGB"><feFuncR type="discrete" tableValues="0 0"/><feFuncG type="discrete" tableValues="0 0"/><feFuncB type="discrete" tableValues="0 0"/><feFuncA type="linear" slope="0.380392" intercept="0"/></feComponentTransfer><feGaussianBlur stdDeviation="1.40051 1.3988"/></filter><clipPath id="clip15"><rect x="0" y="0" width="1016" height="455"/></clipPath><clipPath id="clip16"><path d="M98.1669 91.3881C92.8281 91.3881 88.5 95.7108 88.5 101.043L88.5 181.611C88.5 186.943 92.8281 191.266 98.1669 191.266L136.833 191.266C142.172 191.266 146.5 186.943 146.5 181.611L146.5 101.043C146.5 95.7108 142.172 91.3881 136.833 91.3881ZM1.51396e-05 6.78003e-06 1016 6.78003e-06 1016 455 1.51396e-05 455Z" fill-rule="evenodd" clip-rule="evenodd"/></clipPath><clipPath id="clip17"><rect x="1" y="1" width="71" height="113"/></clipPath><clipPath id="clip18"><rect x="0" y="0" width="71" height="113"/></clipPath><clipPath id="clip19"><rect x="15" y="13" width="35" height="89"/></clipPath><clipPath id="clip20"><rect x="0" y="0" width="65" height="118"/></clipPath><linearGradient x1="117.5" y1="191.266" x2="117.5" y2="91.3881" gradientUnits="userSpaceOnUse" spreadMethod="reflect" id="fill21"><stop offset="0" stop-color="#9B2D2A"/><stop offset="0.8" stop-color="#CB3D3A"/><stop offset="1" stop-color="#CE3B37"/></linearGradient><clipPath id="clip22"><path d="M857.167 94.3844C851.828 94.3844 847.5 98.7071 847.5 104.039L847.5 181.611C847.5 186.943 851.828 191.266 857.167 191.266L895.833 191.266C901.172 191.266 905.5 186.943 905.5 181.611L905.5 104.039C905.5 98.7071 901.172 94.3844 895.833 94.3844ZM1.51396e-05 6.78003e-06 1016 6.78003e-06 1016 455 1.51396e-05 455Z" fill-rule="evenodd" clip-rule="evenodd"/></clipPath><clipPath id="clip23"><rect x="1" y="1" width="71" height="109"/></clipPath><clipPath id="clip24"><rect x="0" y="0" width="71" height="110"/></clipPath><clipPath id="clip25"><rect x="15" y="15" width="35" height="87"/></clipPath><clipPath id="clip26"><rect x="0" y="0" width="65" height="118"/></clipPath><linearGradient x1="876.5" y1="191.266" x2="876.5" y2="94.3844" gradientUnits="userSpaceOnUse" spreadMethod="reflect" id="fill27"><stop offset="0" stop-color="#9B2D2A"/><stop offset="0.8" stop-color="#CB3D3A"/><stop offset="1" stop-color="#CE3B37"/></linearGradient><clipPath id="clip28"><path d="M220 102.375C213.649 102.375 208.5 107.517 208.5 113.861L208.5 168.793C208.5 175.137 213.649 180.279 220 180.279L266 180.279C272.351 180.279 277.5 175.137 277.5 168.793L277.5 113.861C277.5 107.517 272.351 102.375 266 102.375ZM1.51396e-05 6.78003e-06 1016 6.78003e-06 1016 455 1.51396e-05 455Z" fill-rule="evenodd" clip-rule="evenodd"/></clipPath><clipPath id="clip29"><rect x="-1" y="-1" width="83" height="91"/></clipPath><clipPath id="clip30"><rect x="0" y="0" width="82" height="91"/></clipPath><clipPath id="clip31"><rect x="17" y="13" width="33" height="61"/></clipPath><clipPath id="clip32"><rect x="0" y="0" width="65" height="89"/></clipPath><linearGradient x1="243" y1="180.279" x2="243" y2="102.375" gradientUnits="userSpaceOnUse" spreadMethod="reflect" id="fill33"><stop offset="0" stop-color="#FFA2A1"/><stop offset="0.35" stop-color="#FFBEBD"/><stop offset="1" stop-color="#FFE5E5"/></linearGradient><clipPath id="clip34"><path d="M471.167 291.143C468.589 291.143 466.5 293.23 466.5 295.804L466.5 314.448C466.5 317.022 468.589 319.109 471.167 319.109L562.833 319.109C565.411 319.109 567.5 317.022 567.5 314.448L567.5 295.804C567.5 293.23 565.411 291.143 562.833 291.143ZM1.51396e-05 6.78003e-06 1016 6.78003e-06 1016 455 1.51396e-05 455Z" fill-rule="evenodd" clip-rule="evenodd"/></clipPath><clipPath id="clip35"><rect x="1" y="-1" width="113" height="41"/></clipPath><clipPath id="clip36"><rect x="0" y="0" width="114" height="41"/></clipPath><clipPath id="clip37"><rect x="11" y="9" width="51" height="27"/></clipPath><clipPath id="clip38"><rect x="0" y="0" width="73" height="48"/></clipPath><clipPath id="clip39"><path d="M471.167 331.094C468.589 331.094 466.5 333.181 466.5 335.755L466.5 354.399C466.5 356.973 468.589 359.06 471.167 359.06L561.833 359.06C564.411 359.06 566.5 356.973 566.5 354.399L566.5 335.755C566.5 333.181 564.411 331.094 561.833 331.094ZM1.51396e-05 6.78003e-06 1016 6.78003e-06 1016 455 1.51396e-05 455Z" fill-rule="evenodd" clip-rule="evenodd"/></clipPath><clipPath id="clip40"><rect x="1" y="-1" width="111" height="41"/></clipPath><clipPath id="clip41"><rect x="0" y="0" width="113" height="41"/></clipPath><clipPath id="clip42"><rect x="9" y="9" width="53" height="27"/></clipPath><clipPath id="clip43"><rect x="0" y="0" width="72" height="47"/></clipPath><clipPath id="clip44"><path d="M721.5 104.372C715.425 104.372 710.5 109.291 710.5 115.359L710.5 171.29C710.5 177.358 715.425 182.277 721.5 182.277L765.5 182.277C771.575 182.277 776.5 177.358 776.5 171.29L776.5 115.359C776.5 109.291 771.575 104.372 765.5 104.372ZM1.51396e-05 6.78003e-06 1016 6.78003e-06 1016 455 1.51396e-05 455Z" fill-rule="evenodd" clip-rule="evenodd"/></clipPath><clipPath id="clip45"><rect x="-1" y="-1" width="81" height="91"/></clipPath><clipPath id="clip46"><rect x="0" y="0" width="79" height="91"/></clipPath><clipPath id="clip47"><rect x="15" y="13" width="35" height="61"/></clipPath><clipPath id="clip48"><rect x="0" y="0" width="65" height="90"/></clipPath><linearGradient x1="743.5" y1="182.277" x2="743.5" y2="104.372" gradientUnits="userSpaceOnUse" spreadMethod="reflect" id="fill49"><stop offset="0" stop-color="#FFA2A1"/><stop offset="0.35" stop-color="#FFBEBD"/><stop offset="1" stop-color="#FFE5E5"/></linearGradient><clipPath id="clip50"><path d="M611.5 112.362 611.5 128.667 378.5 128.667 378.5 149.991 611.5 149.991 611.5 166.296 638.5 139.329ZM1.51396e-05 6.78003e-06 1016 6.78003e-06 1016 455 1.51396e-05 455Z" fill-rule="evenodd" clip-rule="evenodd"/></clipPath><clipPath id="clip51"><rect x="-1" y="1" width="275" height="67"/></clipPath><clipPath id="clip52"><rect x="0" y="0" width="273" height="69"/></clipPath><linearGradient x1="508.5" y1="112.362" x2="508.5" y2="166.296" gradientUnits="userSpaceOnUse" spreadMethod="reflect" id="fill53"><stop offset="0" stop-color="#51726F"/><stop offset="0.7" stop-color="#48504F"/><stop offset="1" stop-color="#48504F"/></linearGradient><clipPath id="clip54"><path d="M302.167 333.092C299.589 333.092 297.5 335.179 297.5 337.753L297.5 356.397C297.5 358.971 299.589 361.058 302.167 361.058L393.833 361.058C396.411 361.058 398.5 358.971 398.5 356.397L398.5 337.753C398.5 335.179 396.411 333.092 393.833 333.092ZM1.51396e-05 6.78003e-06 1016 6.78003e-06 1016 455 1.51396e-05 455Z" fill-rule="evenodd" clip-rule="evenodd"/></clipPath><clipPath id="clip55"><rect x="1" y="-1" width="113" height="41"/></clipPath><clipPath id="clip56"><rect x="0" y="0" width="114" height="41"/></clipPath><clipPath id="clip57"><rect x="11" y="9" width="83" height="27"/></clipPath><clipPath id="clip58"><rect x="0" y="0" width="105" height="48"/></clipPath><linearGradient x1="348" y1="361.058" x2="348" y2="333.092" gradientUnits="userSpaceOnUse" spreadMethod="reflect" id="fill59"><stop offset="0" stop-color="#BCBCBC"/><stop offset="0.35" stop-color="#D0D0D0"/><stop offset="1" stop-color="#EDEDED"/></linearGradient><linearGradient x1="90.379" y1="44.9454" x2="90.379" y2="0" gradientUnits="userSpaceOnUse" spreadMethod="reflect" id="fill60"><stop offset="0" stop-color="#FFA2A1"/><stop offset="0.35" stop-color="#FFBEBD"/><stop offset="1" stop-color="#FFE5E5"/></linearGradient><linearGradient x1="90.379" y1="44.9454" x2="90.379" y2="0" gradientUnits="userSpaceOnUse" spreadMethod="reflect" id="fill61"><stop offset="0" stop-color="#CD8281"/><stop offset="0.35" stop-color="#CD9998"/><stop offset="1" stop-color="#CDB8B8"/></linearGradient></defs><g clip-path="url(#clip15)"><rect x="0" y="0" width="1016" height="455.442" fill="#FFFFFF"/><path d="M268.5 257.519C268.5 239.683 282.976 225.224 300.834 225.224L663.166 225.224C681.023 225.224 695.5 239.683 695.5 257.519L695.5 386.692C695.5 404.528 681.023 418.987 663.166 418.987L300.834 418.987C282.976 418.987 268.5 404.528 268.5 386.692Z" stroke="#48504F" stroke-width="2.66798" stroke-linejoin="round" stroke-miterlimit="10" fill="#F2F2F2" fill-rule="evenodd"/><text fill="#48504F" font-family="SimHei,SimHei_MSFontService,sans-serif" font-weight="400" font-size="24" transform="matrix(1 0 0 0.998776 651.538 287)">物<tspan font-size="24" x="0" y="29.0355">理</tspan><tspan font-size="24" x="0" y="58.0711">内</tspan><tspan font-size="24" x="0" y="87.1066">存</tspan></text><path d="M447.5 275.663C447.5 265.458 455.783 257.185 466 257.185L566 257.185C576.217 257.185 584.5 265.458 584.5 275.663L584.5 349.571C584.5 359.776 576.217 368.049 566 368.049L466 368.049C455.783 368.049 447.5 359.776 447.5 349.571Z" stroke="#AD2A26" stroke-width="2.66798" stroke-linejoin="round" stroke-miterlimit="10" stroke-dasharray="10.6719 8.00394" fill="#F2DCDB" fill-rule="evenodd"/><text fill="#AD2A26" font-family="Monaco,Monaco_MSFontService,sans-serif" font-weight="400" font-size="19" transform="matrix(1 0 0 0.998776 465.389 284)">read<tspan font-size="19" x="44.6887" y="0">-</tspan><tspan font-size="19" x="55.8608" y="0">only</tspan></text><path d="M684.5 93.3575C684.5 84.5472 691.651 77.4051 700.472 77.4051L919.528 77.4051C928.349 77.4051 935.5 84.5472 935.5 93.3575L935.5 193.291C935.5 202.101 928.349 209.244 919.528 209.244L700.472 209.244C691.651 209.244 684.5 202.101 684.5 193.291Z" stroke="#AD2A26" stroke-width="2.66798" stroke-linejoin="round" stroke-miterlimit="10" stroke-dasharray="10.6719 8.00394" fill="#F2DCDB" fill-rule="evenodd" fill-opacity="0.34902"/><path d="M58.5 93.2367C58.5 84.4932 65.5967 77.4051 74.351 77.4051L281.649 77.4051C290.403 77.4051 297.5 84.4932 297.5 93.2367L297.5 192.413C297.5 201.157 290.403 208.245 281.649 208.245L74.351 208.245C65.5967 208.245 58.5 201.157 58.5 192.413Z" stroke="#AD2A26" stroke-width="2.66798" stroke-linejoin="round" stroke-miterlimit="10" stroke-dasharray="10.6719 8.00394" fill="#F2DCDB" fill-rule="evenodd" fill-opacity="0.34902"/><g clip-path="url(#clip16)"><g clip-path="url(#clip17)" filter="url(#fx0)" transform="translate(82 87)"><g clip-path="url(#clip18)"><path d="M6.50004 16.456C6.50004 11.1237 10.828 6.80099 16.1669 6.80099L54.8331 6.80099C60.172 6.80099 64.5 11.1237 64.5 16.456L64.5 97.0235C64.5 102.356 60.172 106.679 54.8331 106.679L16.1669 106.679C10.828 106.679 6.50004 102.356 6.50004 97.0235Z" stroke="#BE4B48" stroke-linejoin="round" stroke-miterlimit="10" fill="#FF0000" fill-rule="evenodd"/></g></g><g clip-path="url(#clip19)" filter="url(#fx1)" transform="translate(84 87)"><g clip-path="url(#clip20)"><path d="M17.8125-14.4375C18.8125-14.4375 20.0625-14.4687 21.5625-14.5312L21.5625-12.75C20.0625-12.8125 18.8125-12.8437 17.8125-12.8438L12.8438-12.8438 12.8438-8.15625 16.5938-8.15625C17.5938-8.15625 18.7812-8.1875 20.1562-8.25L20.1562-6.46875C18.7812-6.53125 17.5938-6.5625 16.5938-6.5625L12.8438-6.5625 12.8438-0.5625 18.75-0.5625C19.875-0.5625 21.1875-0.59375 22.6875-0.65625L22.6875 1.125C21.1875 1.0625 19.875 1.03125 18.75 1.03125L1.3125 1.03125 1.3125-0.75C2.8125-0.625 4.15625-0.5625 5.34375-0.5625L10.875-0.5625 10.875-6.5625 7.21875-6.5625C6.21875-6.5625 5.03125-6.53125 3.65625-6.46875L3.65625-8.25C5.15625-8.1875 6.34375-8.15625 7.21875-8.15625L10.875-8.15625 10.875-12.8438 6.1875-12.8438C4.875-12.8437 3.59375-12.8125 2.34375-12.75L2.34375-14.5312C3.71875-14.4687 5.03125-14.4375 6.28125-14.4375ZM11.9062-14.625C11.1562-15.75 10.1875-16.9688 9-18.2812 9.625-18.7188 10.125-19.125 10.5-19.5 11.8125-18 12.8437-16.7188 13.5938-15.6562 13.2187-15.4687 12.6562-15.125 11.9062-14.625Z" fill="#FFFFFF" transform="matrix(1 0 0 0.998776 20.5793 38)"/><path d="M16.5-15.375C16.5-16.625 16.4688-18 16.4062-19.5L18.375-19.5C18.3125-18.75 18.2812-17.375 18.2812-15.375 19.5938-15.375 20.875-15.4062 22.125-15.4688L22.125-13.6875C20.875-13.75 19.5938-13.7812 18.2812-13.7812L18.2812-9.65625C19.7812-9.65625 21.2188-9.6875 22.5938-9.75L22.5938-7.96875C21.2188-8.03125 19.7812-8.0625 18.2812-8.0625L18.2812-4.21875C18.2812-3.15625 18.3125-2.0625 18.375-0.9375L16.4062-0.9375C16.4062-2.0625 16.4375-3.15625 16.5-4.21875L16.5-8.0625 12.9375-8.0625C12.6875-6.375 12.3281-5 11.8594-3.9375 11.3906-2.875 10.6875-1.8125 9.75-0.75 9.125-1.25 8.53125-1.65625 7.96875-1.96875 9.15625-3.03125 9.9375-4.01562 10.3125-4.92188 10.6875-5.82812 10.9688-6.875 11.1562-8.0625 9.71875-8.0625 8.46875-8.03125 7.40625-7.96875L7.40625-9.75C8.53125-9.6875 9.84375-9.65625 11.3438-9.65625 11.4688-11.0938 11.5312-12.4688 11.5312-13.7812 10.2812-13.7812 9.0625-13.7187 7.875-13.5938L7.875-15.4688C9.0625-15.4062 10.3125-15.375 11.625-15.375 11.625-16.8125 11.5938-18.1875 11.5312-19.5 12.1562-19.4375 12.8125-19.375 13.5-19.3125 13.4375-18.5 13.375-17.1875 13.3125-15.375ZM6-11.7188C5.875-10.3438 5.8125-9.1875 5.8125-8.25L5.8125-2.34375C7.625-1.09375 9.5625-0.359375 11.625-0.140625 13.6875 0.078125 15.7031 0.15625 17.6719 0.09375 19.6406 0.03125 21.4062-0.125 22.9688-0.375 22.6562 0.375 22.4688 1.15625 22.4062 1.96875 19.4062 1.96875 16.9531 1.9375 15.0469 1.875 13.1406 1.8125 11.3906 1.57812 9.79688 1.17188 8.20312 0.765625 7 0.328125 6.1875-0.140625 5.375-0.609375 4.67188-0.609375 4.07812-0.140625 3.48437 0.328125 2.84375 0.9375 2.15625 1.6875 1.78125 1.125 1.3125 0.625 0.75 0.1875 2.25-0.9375 3.34375-1.71875 4.03125-2.15625L4.03125-10.125C3.34375-10.125 2.46875-10.0625 1.40625-9.9375L1.40625-11.8125C2.65625-11.75 3.59375-11.7188 4.21875-11.7188ZM16.5-9.65625 16.5-13.7812 13.3125-13.7812C13.25-12.4688 13.1562-11.0938 13.0312-9.65625ZM4.5-18.9375C5.5-16.9375 6.125-15.5312 6.375-14.7188 5.6875-14.5937 5.0625-14.3437 4.5-13.9688 4.3125-15.0937 3.6875-16.5 2.625-18.1875Z" fill="#FFFFFF" transform="matrix(1 0 0 0.998776 20.5793 67)"/><path d="M21.8438-18.6562C21.7812-17.2812 21.75-16.0312 21.75-14.9062 21.75-13.8437 21.7812-12.7812 21.8438-11.7188L11.3438-11.7188C11.4062-12.9062 11.4375-14.0312 11.4375-15.0938 11.4375-16.1562 11.4062-17.3438 11.3438-18.6562ZM1.5-18.0938C2.5625-18.2188 3.76562-18.4219 5.10938-18.7031 6.45312-18.9844 7.59375-19.3438 8.53125-19.7812 8.96875-18.9688 9.40625-18.2812 9.84375-17.7188 9.40625-17.7812 8.95312-17.7656 8.48438-17.6719 8.01562-17.5781 7.5-17.5 6.9375-17.4375L6.9375-12.8438C7.8125-12.8437 8.75-12.875 9.75-12.9375L9.75-11.1562C8.75-11.2188 7.8125-11.25 6.9375-11.25L6.9375-3C6.9375-1.625 6.96875 0.21875 7.03125 2.53125L5.15625 2.53125C5.21875 0.21875 5.25-1.59375 5.25-2.90625L5.25-7.21875C4.375-5.46875 3.40625-3.8125 2.34375-2.25 1.90625-2.875 1.40625-3.4375 0.84375-3.9375 1.71875-4.8125 2.5-5.8125 3.1875-6.9375 3.875-8.0625 4.5-9.5 5.0625-11.25 3.5-11.25 2.34375-11.2188 1.59375-11.1562L1.59375-12.9375C2.65625-12.875 3.4375-12.8437 3.9375-12.8438L5.25-12.8438 5.25-17.0625C4.4375-16.875 3.40625-16.6875 2.15625-16.5 1.96875-17.0625 1.75-17.5938 1.5-18.0938ZM19.125-9.375C20.125-9.375 21.1875-9.40625 22.3125-9.46875L22.3125-7.78125C21.1875-7.84375 20.125-7.875 19.125-7.875L17.3438-7.875 17.3438-4.875 18.375-4.875C19.3125-4.875 20.4062-4.90625 21.6562-4.96875L21.6562-3.1875C20.4062-3.25 19.4062-3.28125 18.6562-3.28125L17.3438-3.28125 17.3438 0 19.5938 0C20.7188 0 21.9062-0.03125 23.1562-0.09375L23.1562 1.6875C22.1562 1.625 20.9688 1.59375 19.5938 1.59375L13.3125 1.59375C11.9375 1.59375 10.75 1.65625 9.75 1.78125L9.75-0.09375C10.75-0.03125 11.9375 0 13.3125 0L15.5625 0 15.5625-3.28125 14.25-3.28125C13.25-3.28125 12.3125-3.21875 11.4375-3.09375L11.4375-4.96875C12.3125-4.90625 13.25-4.875 14.25-4.875L15.5625-4.875 15.5625-7.875 14.0625-7.875C12.9375-7.875 11.875-7.84375 10.875-7.78125L10.875-9.46875C11.875-9.40625 12.9375-9.375 14.0625-9.375ZM19.7812-13.4062 19.7812-17.0625 13.125-17.0625 13.125-13.4062ZM8.625-9C9.25-8.0625 9.90625-6.96875 10.5938-5.71875 10.2188-5.46875 9.71875-5.09375 9.09375-4.59375 8.46875-5.96875 7.84375-7.09375 7.21875-7.96875 7.59375-8.28125 8.0625-8.625 8.625-9Z" fill="#FFFFFF" transform="matrix(1 0 0 0.998776 20.5793 94)"/></g></g></g><path d="M88.5 101.043C88.5 95.7108 92.828 91.3881 98.1669 91.3881L136.833 91.3881C142.172 91.3881 146.5 95.7108 146.5 101.043L146.5 181.611C146.5 186.943 142.172 191.266 136.833 191.266L98.1669 191.266C92.828 191.266 88.5 186.943 88.5 181.611Z" stroke="#BE4B48" stroke-width="1.00049" stroke-linejoin="round" stroke-miterlimit="10" fill="url(#fill21)" fill-rule="evenodd"/><text fill="#FFFFFF" font-family="SimHei,SimHei_MSFontService,sans-serif" font-weight="400" font-size="24" transform="matrix(1 0 0 0.998776 104.579 122)">主<tspan font-size="24" x="0" y="29.0355">进</tspan><tspan font-size="24" x="0" y="56.0686">程</tspan></text><g clip-path="url(#clip22)"><g clip-path="url(#clip23)" filter="url(#fx2)" transform="translate(841 90)"><g clip-path="url(#clip24)"><path d="M6.5 16.4523C6.5 11.12 10.828 6.79733 16.1668 6.79733L54.8332 6.79733C60.172 6.79733 64.5 11.12 64.5 16.4523L64.5 94.0236C64.5 99.3559 60.172 103.679 54.8332 103.679L16.1668 103.679C10.828 103.679 6.5 99.3559 6.5 94.0236Z" stroke="#BE4B48" stroke-linejoin="round" stroke-miterlimit="10" fill="#FF0000" fill-rule="evenodd"/></g></g><g clip-path="url(#clip25)" filter="url(#fx3)" transform="translate(844 88)"><g clip-path="url(#clip26)"><path d="M7.78125-0.09375C9.21875-0.03125 10.125-0.078125 10.5-0.234375 10.875-0.390625 11.0625-0.78125 11.0625-1.40625L11.0625-8.25 4.40625-8.25C3.53125-8.25 2.5-8.21875 1.3125-8.15625L1.3125-9.84375C2.5-9.78125 3.53125-9.75 4.40625-9.75L11.0625-9.75C11.0625-10.75 11.0312-11.875 10.9688-13.125 11.8437-13.5 12.7344-13.9687 13.6406-14.5312 14.5469-15.0937 15.5937-15.75 16.7812-16.5L7.21875-16.5C5.90625-16.5 4.75-16.4688 3.75-16.4062L3.75-18.0938C5.0625-18.0312 6.15625-18 7.03125-18L20.25-18 20.25-16.3125C19.3125-15.9375 18.2812-15.4375 17.1562-14.8125 16.0312-14.1875 14.625-13.3125 12.9375-12.1875L12.9375-9.75 19.2188-9.75C20.2812-9.75 21.4688-9.8125 22.7812-9.9375L22.7812-8.25C21.4688-8.3125 20.2812-8.3125 19.2188-8.25L12.9375-8.25 12.9375-0.75C12.9375 0.5 12.5781 1.25 11.8594 1.5 11.1406 1.75 10.0625 1.9375 8.625 2.0625 8.5 1.375 8.21875 0.65625 7.78125-0.09375Z" fill="#FFFFFF" transform="matrix(1 0 0 0.998776 20.2831 38)"/><path d="M16.5-15.375C16.5-16.625 16.4688-18 16.4062-19.5L18.375-19.5C18.3125-18.75 18.2812-17.375 18.2812-15.375 19.5938-15.375 20.875-15.4062 22.125-15.4688L22.125-13.6875C20.875-13.75 19.5938-13.7812 18.2812-13.7812L18.2812-9.65625C19.7812-9.65625 21.2188-9.6875 22.5938-9.75L22.5938-7.96875C21.2188-8.03125 19.7812-8.0625 18.2812-8.0625L18.2812-4.21875C18.2812-3.15625 18.3125-2.0625 18.375-0.9375L16.4062-0.9375C16.4062-2.0625 16.4375-3.15625 16.5-4.21875L16.5-8.0625 12.9375-8.0625C12.6875-6.375 12.3281-5 11.8594-3.9375 11.3906-2.875 10.6875-1.8125 9.75-0.75 9.125-1.25 8.53125-1.65625 7.96875-1.96875 9.15625-3.03125 9.9375-4.01562 10.3125-4.92188 10.6875-5.82812 10.9688-6.875 11.1562-8.0625 9.71875-8.0625 8.46875-8.03125 7.40625-7.96875L7.40625-9.75C8.53125-9.6875 9.84375-9.65625 11.3438-9.65625 11.4688-11.0938 11.5312-12.4688 11.5312-13.7812 10.2812-13.7812 9.0625-13.7187 7.875-13.5938L7.875-15.4688C9.0625-15.4062 10.3125-15.375 11.625-15.375 11.625-16.8125 11.5938-18.1875 11.5312-19.5 12.1562-19.4375 12.8125-19.375 13.5-19.3125 13.4375-18.5 13.375-17.1875 13.3125-15.375ZM6-11.7188C5.875-10.3438 5.8125-9.1875 5.8125-8.25L5.8125-2.34375C7.625-1.09375 9.5625-0.359375 11.625-0.140625 13.6875 0.078125 15.7031 0.15625 17.6719 0.09375 19.6406 0.03125 21.4062-0.125 22.9688-0.375 22.6562 0.375 22.4688 1.15625 22.4062 1.96875 19.4062 1.96875 16.9531 1.9375 15.0469 1.875 13.1406 1.8125 11.3906 1.57812 9.79688 1.17188 8.20312 0.765625 7 0.328125 6.1875-0.140625 5.375-0.609375 4.67188-0.609375 4.07812-0.140625 3.48437 0.328125 2.84375 0.9375 2.15625 1.6875 1.78125 1.125 1.3125 0.625 0.75 0.1875 2.25-0.9375 3.34375-1.71875 4.03125-2.15625L4.03125-10.125C3.34375-10.125 2.46875-10.0625 1.40625-9.9375L1.40625-11.8125C2.65625-11.75 3.59375-11.7188 4.21875-11.7188ZM16.5-9.65625 16.5-13.7812 13.3125-13.7812C13.25-12.4688 13.1562-11.0938 13.0312-9.65625ZM4.5-18.9375C5.5-16.9375 6.125-15.5312 6.375-14.7188 5.6875-14.5937 5.0625-14.3437 4.5-13.9688 4.3125-15.0937 3.6875-16.5 2.625-18.1875Z" fill="#FFFFFF" transform="matrix(1 0 0 0.998776 20.2831 67)"/><path d="M21.8438-18.6562C21.7812-17.2812 21.75-16.0312 21.75-14.9062 21.75-13.8437 21.7812-12.7812 21.8438-11.7188L11.3438-11.7188C11.4062-12.9062 11.4375-14.0312 11.4375-15.0938 11.4375-16.1562 11.4062-17.3438 11.3438-18.6562ZM1.5-18.0938C2.5625-18.2188 3.76562-18.4219 5.10938-18.7031 6.45312-18.9844 7.59375-19.3438 8.53125-19.7812 8.96875-18.9688 9.40625-18.2812 9.84375-17.7188 9.40625-17.7812 8.95312-17.7656 8.48438-17.6719 8.01562-17.5781 7.5-17.5 6.9375-17.4375L6.9375-12.8438C7.8125-12.8437 8.75-12.875 9.75-12.9375L9.75-11.1562C8.75-11.2188 7.8125-11.25 6.9375-11.25L6.9375-3C6.9375-1.625 6.96875 0.21875 7.03125 2.53125L5.15625 2.53125C5.21875 0.21875 5.25-1.59375 5.25-2.90625L5.25-7.21875C4.375-5.46875 3.40625-3.8125 2.34375-2.25 1.90625-2.875 1.40625-3.4375 0.84375-3.9375 1.71875-4.8125 2.5-5.8125 3.1875-6.9375 3.875-8.0625 4.5-9.5 5.0625-11.25 3.5-11.25 2.34375-11.2188 1.59375-11.1562L1.59375-12.9375C2.65625-12.875 3.4375-12.8437 3.9375-12.8438L5.25-12.8438 5.25-17.0625C4.4375-16.875 3.40625-16.6875 2.15625-16.5 1.96875-17.0625 1.75-17.5938 1.5-18.0938ZM19.125-9.375C20.125-9.375 21.1875-9.40625 22.3125-9.46875L22.3125-7.78125C21.1875-7.84375 20.125-7.875 19.125-7.875L17.3438-7.875 17.3438-4.875 18.375-4.875C19.3125-4.875 20.4062-4.90625 21.6562-4.96875L21.6562-3.1875C20.4062-3.25 19.4062-3.28125 18.6562-3.28125L17.3438-3.28125 17.3438 0 19.5938 0C20.7188 0 21.9062-0.03125 23.1562-0.09375L23.1562 1.6875C22.1562 1.625 20.9688 1.59375 19.5938 1.59375L13.3125 1.59375C11.9375 1.59375 10.75 1.65625 9.75 1.78125L9.75-0.09375C10.75-0.03125 11.9375 0 13.3125 0L15.5625 0 15.5625-3.28125 14.25-3.28125C13.25-3.28125 12.3125-3.21875 11.4375-3.09375L11.4375-4.96875C12.3125-4.90625 13.25-4.875 14.25-4.875L15.5625-4.875 15.5625-7.875 14.0625-7.875C12.9375-7.875 11.875-7.84375 10.875-7.78125L10.875-9.46875C11.875-9.40625 12.9375-9.375 14.0625-9.375ZM19.7812-13.4062 19.7812-17.0625 13.125-17.0625 13.125-13.4062ZM8.625-9C9.25-8.0625 9.90625-6.96875 10.5938-5.71875 10.2188-5.46875 9.71875-5.09375 9.09375-4.59375 8.46875-5.96875 7.84375-7.09375 7.21875-7.96875 7.59375-8.28125 8.0625-8.625 8.625-9Z" fill="#FFFFFF" transform="matrix(1 0 0 0.998776 20.2831 94)"/></g></g></g><path d="M847.5 104.039C847.5 98.7071 851.828 94.3844 857.167 94.3844L895.833 94.3844C901.172 94.3844 905.5 98.7071 905.5 104.039L905.5 181.611C905.5 186.943 901.172 191.266 895.833 191.266L857.167 191.266C851.828 191.266 847.5 186.943 847.5 181.611Z" stroke="#BE4B48" stroke-width="1.00049" stroke-linejoin="round" stroke-miterlimit="10" fill="url(#fill27)" fill-rule="evenodd"/><text fill="#FFFFFF" font-family="SimHei,SimHei_MSFontService,sans-serif" font-weight="400" font-size="24" transform="matrix(1 0 0 0.998776 864.283 124)">子<tspan font-size="24" x="0" y="29.0355">进</tspan><tspan font-size="24" x="0" y="56.0686">程</tspan><tspan fill="#595959" font-family="Monaco,Monaco_MSFontService,sans-serif" font-size="19" x="-379.131" y="-8.0098">fork</tspan></text><g clip-path="url(#clip28)"><g clip-path="url(#clip29)" filter="url(#fx4)" transform="translate(202 98)"><g clip-path="url(#clip30)"><path d="M6.49998 17.9589C6.49998 11.6153 11.6488 6.47276 18.0002 6.47276L63.9998 6.47276C70.3512 6.47276 75.5 11.6153 75.5 17.9589L75.5 72.8911C75.5 79.2347 70.3512 84.3773 63.9998 84.3773L18.0002 84.3773C11.6488 84.3773 6.49998 79.2347 6.49998 72.8911Z" stroke="#BE4B48" stroke-linejoin="round" stroke-miterlimit="10" fill="#FF0000" fill-rule="evenodd"/></g></g><g clip-path="url(#clip31)" filter="url(#fx5)" transform="translate(210 101)"><g clip-path="url(#clip32)"><path d="M18.375-18.0938C19.375-18.0938 20.625-18.125 22.125-18.1875L22.125-16.3125C20.625-16.375 19.375-16.4062 18.375-16.4062L12.9375-16.4062 12.5625-13.2188 19.5938-13.2188C19.5312-12.2812 19.5-11.3438 19.5-10.4062L19.5-6.5625C19.5-5.5625 19.5312-4.53125 19.5938-3.46875L17.5312-3.46875 17.5312-11.7188 6.75-11.7188 6.75-3.09375 4.6875-3.09375C4.75-4.21875 4.78125-5.28125 4.78125-6.28125L4.78125-10.2188C4.78125-11.2812 4.75-12.2812 4.6875-13.2188L10.7812-13.2188C10.9062-14.2187 11.0312-15.2812 11.1562-16.4062L5.34375-16.4062C4.15625-16.4062 3.03125-16.375 1.96875-16.3125L1.96875-18.1875C3.34375-18.125 4.46875-18.0938 5.34375-18.0938ZM13.125-9.65625C12.8125-8.71875 12.5781-7.6875 12.4219-6.5625 12.2656-5.4375 11.9687-4.32812 11.5312-3.23438 11.0938-2.14062 10.2031-1.10937 8.85938-0.140625 7.51562 0.828125 5.53125 1.6875 2.90625 2.4375 2.59375 1.875 2.15625 1.25 1.59375 0.5625 3.53125 0.25 5.09375-0.1875 6.28125-0.75 7.46875-1.3125 8.40625-2 9.09375-2.8125 9.78125-3.625 10.2344-4.625 10.4531-5.8125 10.6719-7 10.7812-8.375 10.7812-9.9375 11.4688-9.75 12.25-9.65625 13.125-9.65625ZM14.25-3.5625C15.375-3 16.5-2.39062 17.625-1.73438 18.75-1.07812 20.0312-0.25 21.4688 0.75 21.0312 1.25 20.5938 1.78125 20.1562 2.34375 19.0312 1.40625 17.9688 0.625 16.9688 0 15.9687-0.625 14.6562-1.34375 13.0312-2.15625 13.5937-2.71875 14-3.1875 14.25-3.5625Z" fill="#984807" transform="matrix(1 0 0 0.998776 20.7617 38)"/><path d="M11.0625-16.7812C11.0625-17.5938 11.0312-18.5 10.9688-19.5L13.125-19.5C13-18.75 12.9375-17.8438 12.9375-16.7812L18.6562-16.7812C19.5312-16.7812 20.4688-16.8125 21.4688-16.875L21.4688-15.0938C20.4688-15.2187 19.5625-15.2812 18.75-15.2812L12.9375-15.2812 12.9375-13.5 17.5312-13.5C18.5312-13.5 19.5-13.5312 20.4375-13.5938L20.4375-11.9062C19.5625-11.9688 18.5938-12 17.5312-12L12.9375-12 12.9375-9.9375 19.5938-9.9375C20.7188-9.9375 21.7812-9.96875 22.7812-10.0312L22.7812-8.25C21.8438-8.375 20.8125-8.4375 19.6875-8.4375L11.5312-8.4375C11.0938-7.875 10.4062-7.09375 9.46875-6.09375L9.46875-0.65625C10.5938-1.28125 11.8438-2.0625 13.2188-3 13.3437-2.25 13.5625-1.59375 13.875-1.03125 12.6875-0.46875 11.6094 0.125 10.6406 0.75 9.67188 1.375 8.9375 1.90625 8.4375 2.34375 7.9375 1.71875 7.5 1.15625 7.125 0.65625 7.5625 0.34375 7.75-0.375 7.6875-1.5L7.6875-4.5C6.9375-3.875 6.15625-3.29687 5.34375-2.76562 4.53125-2.23438 3.6875-1.71875 2.8125-1.21875 2.4375-1.78125 1.96875-2.3125 1.40625-2.8125 2.90625-3.4375 4.39062-4.28125 5.85938-5.34375 7.32812-6.40625 8.4375-7.4375 9.1875-8.4375L4.78125-8.4375C3.59375-8.4375 2.4375-8.375 1.3125-8.25L1.3125-10.0312C2.0625-9.96875 3.3125-9.9375 5.0625-9.9375L11.0625-9.9375 11.0625-12 6.84375-12C5.78125-12 4.90625-11.9688 4.21875-11.9062L4.21875-13.5938C5.21875-13.5312 6.09375-13.5 6.84375-13.5L11.0625-13.5 11.0625-15.2812 6.375-15.2812C5.1875-15.2812 4.09375-15.2187 3.09375-15.0938L3.09375-16.9688C4.03125-16.8438 5.28125-16.7812 6.84375-16.7812ZM13.3125-7.96875C13.75-6.65625 14.5-5.3125 15.5625-3.9375 16.8125-4.9375 17.9375-6.125 18.9375-7.5 19.5-6.9375 20.1562-6.40625 20.9062-5.90625 20.3438-5.71875 19.7188-5.32812 19.0312-4.73438 18.3438-4.14062 17.5938-3.46875 16.7812-2.71875 17.4062-2.09375 18.3438-1.60937 19.5938-1.26562 20.8438-0.921875 22-0.71875 23.0625-0.65625 22.5 0.03125 22.1562 0.78125 22.0312 1.59375 18.8438 0.84375 16.5156-0.3125 15.0469-1.875 13.5781-3.4375 12.5-5.25 11.8125-7.3125Z" fill="#984807" transform="matrix(1 0 0 0.998776 20.7617 65)"/></g></g></g><path d="M208.5 113.861C208.5 107.517 213.649 102.375 220 102.375L266 102.375C272.351 102.375 277.5 107.517 277.5 113.861L277.5 168.793C277.5 175.137 272.351 180.279 266 180.279L220 180.279C213.649 180.279 208.5 175.137 208.5 168.793Z" stroke="#BE4B48" stroke-width="1.00049" stroke-linejoin="round" stroke-miterlimit="10" fill="url(#fill33)" fill-rule="evenodd"/><text fill="#984807" font-family="SimHei,SimHei_MSFontService,sans-serif" font-weight="400" font-size="24" transform="matrix(1 0 0 0.998776 230.762 137)">页<tspan font-size="24" x="0" y="27.0331">表</tspan></text><g clip-path="url(#clip34)"><g clip-path="url(#clip35)" filter="url(#fx6)" transform="translate(460 287)"><g clip-path="url(#clip36)"><path d="M6.50003 10.9025C6.50003 8.32826 8.58939 6.24146 11.1667 6.24146L102.833 6.24146C105.411 6.24146 107.5 8.32826 107.5 10.9025L107.5 29.5462C107.5 32.1204 105.411 34.2072 102.833 34.2072L11.1667 34.2072C8.58939 34.2072 6.50003 32.1204 6.50003 29.5462Z" stroke="#48504F" stroke-linejoin="round" stroke-miterlimit="10" fill="#48504F" fill-rule="evenodd"/></g></g><g clip-path="url(#clip37)" filter="url(#fx7)" transform="translate(480 285)"><g clip-path="url(#clip38)"><path d="M11.3125-12.3125C11.2292-12.1042 11.125-11.8229 11-11.4688 10.875-11.1146 10.6875-10.4792 10.4375-9.5625L13.3125-9.5625C13.7292-9.5625 14.2292-9.58333 14.8125-9.625L14.8125-8.5C14.3542-8.54167 14-8.5625 13.75-8.5625 13.75-7.89583 13.6354-6.84375 13.4062-5.40625 13.1771-3.96875 12.7708-2.72917 12.1875-1.6875 12.6042-1.1875 13.0729-0.739583 13.5938-0.34375 14.1146 0.0520833 14.6042 0.333333 15.0625 0.5 14.5625 0.875 14.2292 1.22917 14.0625 1.5625 13.5625 1.27083 13.1042 0.9375 12.6875 0.5625 12.2708 0.1875 11.8542-0.270833 11.4375-0.8125 10.9792-0.3125 10.4896 0.114583 9.96875 0.46875 9.44792 0.822917 8.79167 1.20833 8 1.625 7.79167 1.25 7.5 0.958333 7.125 0.75 7.75 0.5 8.41667 0.145833 9.125-0.3125 9.83333-0.770833 10.375-1.22917 10.75-1.6875 10.4583-2.27083 10.1771-2.89583 9.90625-3.5625 9.63542-4.22917 9.39583-5.10417 9.1875-6.1875 9.0625-5.85417 8.85417-5.41667 8.5625-4.875 8.27083-5.04167 7.91667-5.20833 7.5-5.375 8.16667-6.54167 8.70833-7.8125 9.125-9.1875 9.54167-10.5625 9.8125-11.75 9.9375-12.75 10.4375-12.5417 10.8958-12.3958 11.3125-12.3125ZM5.25-5.625C5.08333-5.45833 4.89583-5.1875 4.6875-4.8125L8.125-4.8125C7.875-3.77083 7.4375-2.72917 6.8125-1.6875 7.47917-1.4375 8-1.20833 8.375-1 8.16667-0.708333 7.97917-0.395833 7.8125-0.0625 7.4375-0.3125 6.875-0.5625 6.125-0.8125 5.29167 0.104167 3.85417 0.916667 1.8125 1.625 1.60417 1.16667 1.33333 0.854167 1 0.6875 2.95833 0.229167 4.29167-0.395833 5-1.1875 3.83333-1.47917 2.875-1.72917 2.125-1.9375 2.375-2.3125 2.70833-2.9375 3.125-3.8125 2.70833-3.8125 2.02083-3.79167 1.0625-3.75L1.0625-4.875C1.85417-4.83333 2.66667-4.8125 3.5-4.8125 3.66667-5.1875 3.79167-5.60417 3.875-6.0625 4.33333-5.89583 4.79167-5.75 5.25-5.625ZM4.4375-9.875C4.4375-10.875 4.41667-11.8333 4.375-12.75L5.625-12.75C5.58333-11.875 5.5625-10.9167 5.5625-9.875 6.97917-9.875 7.97917-9.89583 8.5625-9.9375L8.5625-8.8125C7.97917-8.85417 6.97917-8.875 5.5625-8.875 5.5625-7.66667 5.58333-6.72917 5.625-6.0625L4.375-6.0625C4.41667-6.64583 4.4375-7.375 4.4375-8.25 4.22917-7.91667 3.83333-7.48958 3.25-6.96875 2.66667-6.44792 2.125-6.04167 1.625-5.75 1.41667-6.125 1.10417-6.39583 0.6875-6.5625 1.0625-6.6875 1.5625-6.97917 2.1875-7.4375 2.8125-7.89583 3.29167-8.375 3.625-8.875 2.79167-8.875 2-8.85417 1.25-8.8125L1.25-9.9375C1.95833-9.89583 3.02083-9.875 4.4375-9.875ZM9.9375-7.9375C10.3125-5.47917 10.8333-3.77083 11.5-2.8125 11.9167-3.77083 12.1979-4.73958 12.3438-5.71875 12.4896-6.69792 12.5833-7.64583 12.625-8.5625L10.1875-8.5625ZM3.625-2.5C4.125-2.375 4.8125-2.20833 5.6875-2 6.02083-2.41667 6.33333-3.02083 6.625-3.8125L4.3125-3.8125C4.10417-3.39583 3.875-2.95833 3.625-2.5ZM8.3125-12.0625C8.10417-11.7292 7.9375-11.4167 7.8125-11.125 7.6875-10.8333 7.52083-10.4792 7.3125-10.0625 6.97917-10.2292 6.64583-10.3542 6.3125-10.4375 6.64583-10.9792 6.95833-11.6667 7.25-12.5 7.66667-12.2917 8.02083-12.1458 8.3125-12.0625ZM6.4375-8.4375C6.97917-7.89583 7.5-7.35417 8-6.8125 7.75-6.60417 7.47917-6.35417 7.1875-6.0625 6.60417-6.77083 6.125-7.33333 5.75-7.75 6-7.95833 6.22917-8.1875 6.4375-8.4375ZM2.3125-12.5C2.89583-11.9167 3.375-11.3333 3.75-10.75L2.8125-10.1875C2.52083-10.7708 2.08333-11.3125 1.5-11.8125 1.875-12.0625 2.14583-12.2917 2.3125-12.5ZM30.3829-11.9375C30.3412-11.5625 30.3204-11.1042 30.3204-10.5625L30.3204-9.75C30.3204-9 30.3412-8.45833 30.3829-8.125L23.7579-8.125 23.7579-6.25 26.6329-6.25C26.6329-6.625 26.612-7.1875 26.5704-7.9375L27.7579-7.9375C27.7162-7.27083 27.6954-6.70833 27.6954-6.25L29.3829-6.25C30.1329-6.25 30.7579-6.27083 31.2579-6.3125L31.2579-5.1875C30.7579-5.22917 30.1537-5.25 29.4454-5.25L27.6954-5.25 27.6954-3.5625 30.4454-3.5625C30.4037-2.77083 30.3829-2.25 30.3829-2L30.3829-0.4375C30.3829 0.229167 30.4037 0.854167 30.4454 1.4375L29.3204 1.4375 29.3204 0.5625 25.1954 0.5625 25.1954 1.5 24.0704 1.5C24.112 1.04167 24.1329 0.458333 24.1329-0.25L24.1329-2.0625C24.1329-2.47917 24.112-2.97917 24.0704-3.5625L26.6329-3.5625 26.6329-5.25 23.6954-5.25C23.6537-4.04167 23.4975-2.90625 23.2266-1.84375 22.9558-0.78125 22.5704 0.229167 22.0704 1.1875 21.6954 0.9375 21.2995 0.75 20.8829 0.625 21.3829-0.0416666 21.7475-0.75 21.9766-1.5 22.2058-2.25 22.3829-3.05208 22.5079-3.90625 22.6329-4.76042 22.6954-5.64583 22.6954-6.5625L22.6954-8.9375C22.6954-9.60417 22.6745-10.6042 22.6329-11.9375ZM19.1954-11.0625C19.1954-11.6458 19.1745-12.1875 19.1329-12.6875L20.3829-12.6875C20.3412-12.2292 20.3204-11.6875 20.3204-11.0625L20.3204-9.4375C20.737-9.4375 21.3829-9.45833 22.2579-9.5L22.2579-8.4375C21.3829-8.47917 20.737-8.5 20.3204-8.5L20.3204-6.125C20.862-6.41667 21.4245-6.75 22.0079-7.125 22.0495-6.79167 22.1537-6.47917 22.3204-6.1875 21.5287-5.72917 20.862-5.33333 20.3204-5L20.3204-0.4375C20.3204 0.354167 20.1225 0.833333 19.7266 1 19.3308 1.16667 18.737 1.3125 17.9454 1.4375 17.862 1.02083 17.7162 0.583333 17.5079 0.125 18.2162 0.125 18.6745 0.09375 18.8829 0.03125 19.0912-0.03125 19.1954-0.3125 19.1954-0.8125L19.1954-4.5C18.5704-4.16667 17.9454-3.77083 17.3204-3.3125 17.1954-3.64583 16.987-4.04167 16.6954-4.5 17.5287-4.79167 18.362-5.16667 19.1954-5.625L19.1954-8.5C18.4037-8.5 17.6329-8.47917 16.8829-8.4375L16.8829-9.5C17.6329-9.45833 18.4037-9.4375 19.1954-9.4375ZM29.2579-9.0625 29.2579-11 23.7579-11 23.7579-9.0625ZM29.3204-0.375 29.3204-2.6875 25.1954-2.6875 25.1954-0.375Z" fill="#FFFFFF" transform="matrix(1 0 0 0.998776 15.5464 28)"/><path d="M1.77014 0 0.257812 0 3.99255-12.125 5.59375-12.125 9.35132 0 7.68274 0 6.85718-2.66406 2.5907-2.66406ZM2.96606-3.88281 6.50415-3.88281 4.703-9.69458 4.39746-8.47681Z" fill="#FFFFFF" transform="matrix(1 0 0 0.998776 47.5622 28)"/></g></g></g><path d="M466.5 295.804C466.5 293.23 468.589 291.143 471.167 291.143L562.833 291.143C565.411 291.143 567.5 293.23 567.5 295.804L567.5 314.448C567.5 317.022 565.411 319.109 562.833 319.109L471.167 319.109C468.589 319.109 466.5 317.022 466.5 314.448Z" stroke="#48504F" stroke-width="1.00049" stroke-linejoin="round" stroke-miterlimit="10" fill="#48504F" fill-rule="evenodd"/><text fill="#FFFFFF" font-family="SimHei,SimHei_MSFontService,sans-serif" font-weight="400" font-size="16" transform="matrix(1 0 0 0.998776 495.546 311)">数据<tspan font-family="Monaco,Monaco_MSFontService,sans-serif" font-size="16" x="32.0157" y="0">A</tspan></text><g clip-path="url(#clip39)"><g clip-path="url(#clip40)" filter="url(#fx8)" transform="translate(460 327)"><g clip-path="url(#clip41)"><path d="M6.50003 10.8536C6.50003 8.27937 8.58942 6.19254 11.1668 6.19254L101.833 6.19254C104.411 6.19254 106.5 8.27937 106.5 10.8536L106.5 29.4972C106.5 32.0715 104.411 34.1583 101.833 34.1583L11.1668 34.1583C8.58942 34.1583 6.50003 32.0715 6.50003 29.4972Z" stroke="#48504F" stroke-linejoin="round" stroke-miterlimit="10" fill="#48504F" fill-rule="evenodd"/></g></g><g clip-path="url(#clip42)" filter="url(#fx9)" transform="translate(480 325)"><g clip-path="url(#clip43)"><path d="M11.3125-12.3125C11.2292-12.1042 11.125-11.8229 11-11.4688 10.875-11.1146 10.6875-10.4792 10.4375-9.5625L13.3125-9.5625C13.7292-9.5625 14.2292-9.58333 14.8125-9.625L14.8125-8.5C14.3542-8.54167 14-8.5625 13.75-8.5625 13.75-7.89583 13.6354-6.84375 13.4062-5.40625 13.1771-3.96875 12.7708-2.72917 12.1875-1.6875 12.6042-1.1875 13.0729-0.739583 13.5938-0.34375 14.1146 0.0520833 14.6042 0.333333 15.0625 0.5 14.5625 0.875 14.2292 1.22917 14.0625 1.5625 13.5625 1.27083 13.1042 0.9375 12.6875 0.5625 12.2708 0.1875 11.8542-0.270833 11.4375-0.8125 10.9792-0.3125 10.4896 0.114583 9.96875 0.46875 9.44792 0.822917 8.79167 1.20833 8 1.625 7.79167 1.25 7.5 0.958333 7.125 0.75 7.75 0.5 8.41667 0.145833 9.125-0.3125 9.83333-0.770833 10.375-1.22917 10.75-1.6875 10.4583-2.27083 10.1771-2.89583 9.90625-3.5625 9.63542-4.22917 9.39583-5.10417 9.1875-6.1875 9.0625-5.85417 8.85417-5.41667 8.5625-4.875 8.27083-5.04167 7.91667-5.20833 7.5-5.375 8.16667-6.54167 8.70833-7.8125 9.125-9.1875 9.54167-10.5625 9.8125-11.75 9.9375-12.75 10.4375-12.5417 10.8958-12.3958 11.3125-12.3125ZM5.25-5.625C5.08333-5.45833 4.89583-5.1875 4.6875-4.8125L8.125-4.8125C7.875-3.77083 7.4375-2.72917 6.8125-1.6875 7.47917-1.4375 8-1.20833 8.375-1 8.16667-0.708333 7.97917-0.395833 7.8125-0.0625 7.4375-0.3125 6.875-0.5625 6.125-0.8125 5.29167 0.104167 3.85417 0.916667 1.8125 1.625 1.60417 1.16667 1.33333 0.854167 1 0.6875 2.95833 0.229167 4.29167-0.395833 5-1.1875 3.83333-1.47917 2.875-1.72917 2.125-1.9375 2.375-2.3125 2.70833-2.9375 3.125-3.8125 2.70833-3.8125 2.02083-3.79167 1.0625-3.75L1.0625-4.875C1.85417-4.83333 2.66667-4.8125 3.5-4.8125 3.66667-5.1875 3.79167-5.60417 3.875-6.0625 4.33333-5.89583 4.79167-5.75 5.25-5.625ZM4.4375-9.875C4.4375-10.875 4.41667-11.8333 4.375-12.75L5.625-12.75C5.58333-11.875 5.5625-10.9167 5.5625-9.875 6.97917-9.875 7.97917-9.89583 8.5625-9.9375L8.5625-8.8125C7.97917-8.85417 6.97917-8.875 5.5625-8.875 5.5625-7.66667 5.58333-6.72917 5.625-6.0625L4.375-6.0625C4.41667-6.64583 4.4375-7.375 4.4375-8.25 4.22917-7.91667 3.83333-7.48958 3.25-6.96875 2.66667-6.44792 2.125-6.04167 1.625-5.75 1.41667-6.125 1.10417-6.39583 0.6875-6.5625 1.0625-6.6875 1.5625-6.97917 2.1875-7.4375 2.8125-7.89583 3.29167-8.375 3.625-8.875 2.79167-8.875 2-8.85417 1.25-8.8125L1.25-9.9375C1.95833-9.89583 3.02083-9.875 4.4375-9.875ZM9.9375-7.9375C10.3125-5.47917 10.8333-3.77083 11.5-2.8125 11.9167-3.77083 12.1979-4.73958 12.3438-5.71875 12.4896-6.69792 12.5833-7.64583 12.625-8.5625L10.1875-8.5625ZM3.625-2.5C4.125-2.375 4.8125-2.20833 5.6875-2 6.02083-2.41667 6.33333-3.02083 6.625-3.8125L4.3125-3.8125C4.10417-3.39583 3.875-2.95833 3.625-2.5ZM8.3125-12.0625C8.10417-11.7292 7.9375-11.4167 7.8125-11.125 7.6875-10.8333 7.52083-10.4792 7.3125-10.0625 6.97917-10.2292 6.64583-10.3542 6.3125-10.4375 6.64583-10.9792 6.95833-11.6667 7.25-12.5 7.66667-12.2917 8.02083-12.1458 8.3125-12.0625ZM6.4375-8.4375C6.97917-7.89583 7.5-7.35417 8-6.8125 7.75-6.60417 7.47917-6.35417 7.1875-6.0625 6.60417-6.77083 6.125-7.33333 5.75-7.75 6-7.95833 6.22917-8.1875 6.4375-8.4375ZM2.3125-12.5C2.89583-11.9167 3.375-11.3333 3.75-10.75L2.8125-10.1875C2.52083-10.7708 2.08333-11.3125 1.5-11.8125 1.875-12.0625 2.14583-12.2917 2.3125-12.5ZM30.3829-11.9375C30.3412-11.5625 30.3204-11.1042 30.3204-10.5625L30.3204-9.75C30.3204-9 30.3412-8.45833 30.3829-8.125L23.7579-8.125 23.7579-6.25 26.6329-6.25C26.6329-6.625 26.612-7.1875 26.5704-7.9375L27.7579-7.9375C27.7162-7.27083 27.6954-6.70833 27.6954-6.25L29.3829-6.25C30.1329-6.25 30.7579-6.27083 31.2579-6.3125L31.2579-5.1875C30.7579-5.22917 30.1537-5.25 29.4454-5.25L27.6954-5.25 27.6954-3.5625 30.4454-3.5625C30.4037-2.77083 30.3829-2.25 30.3829-2L30.3829-0.4375C30.3829 0.229167 30.4037 0.854167 30.4454 1.4375L29.3204 1.4375 29.3204 0.5625 25.1954 0.5625 25.1954 1.5 24.0704 1.5C24.112 1.04167 24.1329 0.458333 24.1329-0.25L24.1329-2.0625C24.1329-2.47917 24.112-2.97917 24.0704-3.5625L26.6329-3.5625 26.6329-5.25 23.6954-5.25C23.6537-4.04167 23.4975-2.90625 23.2266-1.84375 22.9558-0.78125 22.5704 0.229167 22.0704 1.1875 21.6954 0.9375 21.2995 0.75 20.8829 0.625 21.3829-0.0416666 21.7475-0.75 21.9766-1.5 22.2058-2.25 22.3829-3.05208 22.5079-3.90625 22.6329-4.76042 22.6954-5.64583 22.6954-6.5625L22.6954-8.9375C22.6954-9.60417 22.6745-10.6042 22.6329-11.9375ZM19.1954-11.0625C19.1954-11.6458 19.1745-12.1875 19.1329-12.6875L20.3829-12.6875C20.3412-12.2292 20.3204-11.6875 20.3204-11.0625L20.3204-9.4375C20.737-9.4375 21.3829-9.45833 22.2579-9.5L22.2579-8.4375C21.3829-8.47917 20.737-8.5 20.3204-8.5L20.3204-6.125C20.862-6.41667 21.4245-6.75 22.0079-7.125 22.0495-6.79167 22.1537-6.47917 22.3204-6.1875 21.5287-5.72917 20.862-5.33333 20.3204-5L20.3204-0.4375C20.3204 0.354167 20.1225 0.833333 19.7266 1 19.3308 1.16667 18.737 1.3125 17.9454 1.4375 17.862 1.02083 17.7162 0.583333 17.5079 0.125 18.2162 0.125 18.6745 0.09375 18.8829 0.03125 19.0912-0.03125 19.1954-0.3125 19.1954-0.8125L19.1954-4.5C18.5704-4.16667 17.9454-3.77083 17.3204-3.3125 17.1954-3.64583 16.987-4.04167 16.6954-4.5 17.5287-4.79167 18.362-5.16667 19.1954-5.625L19.1954-8.5C18.4037-8.5 17.6329-8.47917 16.8829-8.4375L16.8829-9.5C17.6329-9.45833 18.4037-9.4375 19.1954-9.4375ZM29.2579-9.0625 29.2579-11 23.7579-11 23.7579-9.0625ZM29.3204-0.375 29.3204-2.6875 25.1954-2.6875 25.1954-0.375Z" fill="#FFFFFF" transform="matrix(1 0 0 0.998776 15.0019 28)"/><path d="M1.34375 0 1.34375-12.125 3.71094-12.125C4.7474-12.125 5.47656-12.0807 5.89844-11.9922 6.72656-11.8203 7.3099-11.4375 7.64844-10.8438 7.88802-10.4219 8.00781-9.9401 8.00781-9.39844 8.00781-8.52865 7.72917-7.77604 7.17188-7.14062 6.89583-6.82292 6.49479-6.52344 5.96875-6.24219 7.61458-5.58594 8.4375-4.54948 8.4375-3.13281 8.4375-2.57031 8.28776-2.04036 7.98828-1.54297 7.6888-1.04557 7.28906-0.666667 6.78906-0.40625 6.26823-0.135417 5.4349 0 4.28906 0ZM2.92188-6.67188 4.57812-6.67188C5.46875-7.04622 6.04688-7.55831 6.3125-8.20813 6.43229-8.50964 6.49219-8.84237 6.49219-9.2063 6.49219-9.90812 6.24219-10.3838 5.74219-10.6333 5.38802-10.8153 4.8151-10.9062 4.02344-10.9062L2.92188-10.9062ZM2.92188-1.21875 4.41406-1.21875C5.11198-1.21875 5.67969-1.37472 6.11719-1.68665 6.61198-2.04016 6.85938-2.55225 6.85938-3.2229 6.85938-4.11702 6.41146-4.76164 5.51562-5.15674 5.05729-5.35433 4.33854-5.45312 3.35938-5.45312L2.92188-5.45312Z" fill="#FFFFFF" transform="matrix(1 0 0 0.998776 47.0177 28)"/></g></g></g><path d="M466.5 335.755C466.5 333.181 468.589 331.094 471.167 331.094L561.833 331.094C564.411 331.094 566.5 333.181 566.5 335.755L566.5 354.399C566.5 356.973 564.411 359.06 561.833 359.06L471.167 359.06C468.589 359.06 466.5 356.973 466.5 354.399Z" stroke="#48504F" stroke-width="1.00049" stroke-linejoin="round" stroke-miterlimit="10" fill="#48504F" fill-rule="evenodd"/><text fill="#FFFFFF" font-family="SimHei,SimHei_MSFontService,sans-serif" font-weight="400" font-size="16" transform="matrix(1 0 0 0.998776 495.002 350)">数据<tspan font-family="Monaco,Monaco_MSFontService,sans-serif" font-size="16" x="32.0158" y="0">B</tspan></text><path d="M278.377 140.323 286.42 147.328 284.666 149.336 276.623 142.331ZM292.452 152.582 300.495 159.588 298.742 161.596 290.699 154.591ZM306.528 164.842 314.571 171.847 312.817 173.856 304.774 166.85ZM320.603 177.102 328.646 184.107 326.893 186.115 318.85 179.11ZM334.679 189.361 342.722 196.367 340.968 198.375 332.925 191.37ZM348.754 201.621 356.797 208.626 355.044 210.635 347.001 203.629ZM362.83 213.881 370.873 220.886 369.119 222.894 361.076 215.889ZM376.905 226.14 384.948 233.146 383.195 235.154 375.152 228.149ZM390.981 238.4 399.024 245.405 397.27 247.414 389.227 240.408ZM405.056 250.66 413.099 257.665 411.346 259.673 403.303 252.668ZM419.132 262.919 427.175 269.925 425.421 271.933 417.378 264.928ZM433.207 275.179 441.25 282.184 439.497 284.193 431.454 277.187ZM447.283 287.439 455.326 294.444 453.572 296.452 445.529 289.447ZM461.358 299.698 462.122 300.364 460.369 302.372 459.605 301.707ZM462.87 297.48 466.273 305.746 457.61 303.505Z" fill="#92D050"/><path d="M278.481 140.424 285.716 148.259 283.754 150.066 276.519 142.23ZM291.142 154.136 298.377 161.971 296.415 163.778 289.18 155.942ZM303.803 167.848 311.038 175.683 309.076 177.49 301.842 169.654ZM316.464 181.56 323.699 189.396 321.738 191.202 314.503 183.367ZM329.125 195.272 336.36 203.108 334.399 204.914 327.164 197.079ZM341.786 208.984 349.021 216.82 347.06 218.626 339.825 210.791ZM354.447 222.697 361.682 230.532 359.721 232.339 352.486 224.503ZM367.108 236.409 374.343 244.244 372.382 246.051 365.147 238.215ZM379.769 250.121 387.004 257.956 385.043 259.763 377.808 251.927ZM392.43 263.833 399.665 271.669 397.704 273.475 390.469 265.64ZM405.091 277.545 412.326 285.381 410.365 287.187 403.13 279.352ZM417.753 291.257 424.987 299.093 423.026 300.9 415.791 293.064ZM430.414 304.97 437.648 312.805 435.687 314.612 428.452 306.776ZM443.075 318.682 450.31 326.517 448.348 328.324 441.113 320.488ZM455.736 332.394 462.187 339.381 460.226 341.187 453.774 334.201ZM463.244 336.595 465.728 345.181 457.36 342.014Z" fill="#92D050"/><text fill="#595959" font-family="SimHei,SimHei_MSFontService,sans-serif" font-weight="400" font-size="19" transform="matrix(1 0 0 0.998776 380.86 213)">读操作</text><g clip-path="url(#clip44)"><g clip-path="url(#clip45)" filter="url(#fx10)" transform="translate(704 100)"><g clip-path="url(#clip46)"><path d="M6.5 17.4571C6.5 11.3893 11.425 6.47034 17.5003 6.47034L61.4998 6.47034C67.5751 6.47034 72.5001 11.3893 72.5001 17.4571L72.5001 73.388C72.5001 79.4559 67.5751 84.3748 61.4998 84.3748L17.5003 84.3748C11.425 84.3748 6.5 79.4559 6.5 73.388Z" stroke="#BE4B48" stroke-linejoin="round" stroke-miterlimit="10" fill="#FF0000" fill-rule="evenodd"/></g></g><g clip-path="url(#clip47)" filter="url(#fx11)" transform="translate(711 103)"><g clip-path="url(#clip48)"><path d="M18.375-18.0938C19.375-18.0938 20.625-18.125 22.125-18.1875L22.125-16.3125C20.625-16.375 19.375-16.4062 18.375-16.4062L12.9375-16.4062 12.5625-13.2188 19.5938-13.2188C19.5312-12.2812 19.5-11.3438 19.5-10.4062L19.5-6.5625C19.5-5.5625 19.5312-4.53125 19.5938-3.46875L17.5312-3.46875 17.5312-11.7188 6.75-11.7188 6.75-3.09375 4.6875-3.09375C4.75-4.21875 4.78125-5.28125 4.78125-6.28125L4.78125-10.2188C4.78125-11.2812 4.75-12.2812 4.6875-13.2188L10.7812-13.2188C10.9062-14.2187 11.0312-15.2812 11.1562-16.4062L5.34375-16.4062C4.15625-16.4062 3.03125-16.375 1.96875-16.3125L1.96875-18.1875C3.34375-18.125 4.46875-18.0938 5.34375-18.0938ZM13.125-9.65625C12.8125-8.71875 12.5781-7.6875 12.4219-6.5625 12.2656-5.4375 11.9687-4.32812 11.5312-3.23438 11.0938-2.14062 10.2031-1.10937 8.85938-0.140625 7.51562 0.828125 5.53125 1.6875 2.90625 2.4375 2.59375 1.875 2.15625 1.25 1.59375 0.5625 3.53125 0.25 5.09375-0.1875 6.28125-0.75 7.46875-1.3125 8.40625-2 9.09375-2.8125 9.78125-3.625 10.2344-4.625 10.4531-5.8125 10.6719-7 10.7812-8.375 10.7812-9.9375 11.4688-9.75 12.25-9.65625 13.125-9.65625ZM14.25-3.5625C15.375-3 16.5-2.39062 17.625-1.73438 18.75-1.07812 20.0312-0.25 21.4688 0.75 21.0312 1.25 20.5938 1.78125 20.1562 2.34375 19.0312 1.40625 17.9688 0.625 16.9688 0 15.9687-0.625 14.6562-1.34375 13.0312-2.15625 13.5937-2.71875 14-3.1875 14.25-3.5625Z" fill="#984807" transform="matrix(1 0 0 0.998776 20.3307 38)"/><path d="M11.0625-16.7812C11.0625-17.5938 11.0312-18.5 10.9688-19.5L13.125-19.5C13-18.75 12.9375-17.8438 12.9375-16.7812L18.6562-16.7812C19.5312-16.7812 20.4688-16.8125 21.4688-16.875L21.4688-15.0938C20.4688-15.2187 19.5625-15.2812 18.75-15.2812L12.9375-15.2812 12.9375-13.5 17.5312-13.5C18.5312-13.5 19.5-13.5312 20.4375-13.5938L20.4375-11.9062C19.5625-11.9688 18.5938-12 17.5312-12L12.9375-12 12.9375-9.9375 19.5938-9.9375C20.7188-9.9375 21.7812-9.96875 22.7812-10.0312L22.7812-8.25C21.8438-8.375 20.8125-8.4375 19.6875-8.4375L11.5312-8.4375C11.0938-7.875 10.4062-7.09375 9.46875-6.09375L9.46875-0.65625C10.5938-1.28125 11.8438-2.0625 13.2188-3 13.3437-2.25 13.5625-1.59375 13.875-1.03125 12.6875-0.46875 11.6094 0.125 10.6406 0.75 9.67188 1.375 8.9375 1.90625 8.4375 2.34375 7.9375 1.71875 7.5 1.15625 7.125 0.65625 7.5625 0.34375 7.75-0.375 7.6875-1.5L7.6875-4.5C6.9375-3.875 6.15625-3.29687 5.34375-2.76562 4.53125-2.23438 3.6875-1.71875 2.8125-1.21875 2.4375-1.78125 1.96875-2.3125 1.40625-2.8125 2.90625-3.4375 4.39062-4.28125 5.85938-5.34375 7.32812-6.40625 8.4375-7.4375 9.1875-8.4375L4.78125-8.4375C3.59375-8.4375 2.4375-8.375 1.3125-8.25L1.3125-10.0312C2.0625-9.96875 3.3125-9.9375 5.0625-9.9375L11.0625-9.9375 11.0625-12 6.84375-12C5.78125-12 4.90625-11.9688 4.21875-11.9062L4.21875-13.5938C5.21875-13.5312 6.09375-13.5 6.84375-13.5L11.0625-13.5 11.0625-15.2812 6.375-15.2812C5.1875-15.2812 4.09375-15.2187 3.09375-15.0938L3.09375-16.9688C4.03125-16.8438 5.28125-16.7812 6.84375-16.7812ZM13.3125-7.96875C13.75-6.65625 14.5-5.3125 15.5625-3.9375 16.8125-4.9375 17.9375-6.125 18.9375-7.5 19.5-6.9375 20.1562-6.40625 20.9062-5.90625 20.3438-5.71875 19.7188-5.32812 19.0312-4.73438 18.3438-4.14062 17.5938-3.46875 16.7812-2.71875 17.4062-2.09375 18.3438-1.60937 19.5938-1.26562 20.8438-0.921875 22-0.71875 23.0625-0.65625 22.5 0.03125 22.1562 0.78125 22.0312 1.59375 18.8438 0.84375 16.5156-0.3125 15.0469-1.875 13.5781-3.4375 12.5-5.25 11.8125-7.3125Z" fill="#984807" transform="matrix(1 0 0 0.998776 20.3307 65)"/></g></g></g><path d="M710.5 115.359C710.5 109.291 715.425 104.372 721.5 104.372L765.5 104.372C771.575 104.372 776.5 109.291 776.5 115.359L776.5 171.29C776.5 177.358 771.575 182.277 765.5 182.277L721.5 182.277C715.425 182.277 710.5 177.358 710.5 171.29Z" stroke="#BE4B48" stroke-width="1.00049" stroke-linejoin="round" stroke-miterlimit="10" fill="url(#fill49)" fill-rule="evenodd"/><text fill="#984807" font-family="SimHei,SimHei_MSFontService,sans-serif" font-weight="400" font-size="24" transform="matrix(1 0 0 0.998776 731.331 139)">页<tspan font-size="24" x="0" y="27.0331">表</tspan></text><g clip-path="url(#clip50)"><g clip-path="url(#clip51)" filter="url(#fx12)" transform="translate(372 107)"><g clip-path="url(#clip52)"><path d="M6.49997 23.7657 239.5 23.7657 239.5 7.4605 266.5 34.4276 239.5 61.3944 239.5 45.0893 6.49997 45.0893Z" stroke="#48504F" stroke-miterlimit="8" fill="#FF0000" fill-rule="evenodd"/></g></g></g><path d="M378.5 128.667 611.5 128.667 611.5 112.362 638.5 139.329 611.5 166.296 611.5 149.991 378.5 149.991Z" stroke="#48504F" stroke-width="1.00049" stroke-miterlimit="8" fill="url(#fill53)" fill-rule="evenodd"/><text fill="#595959" font-family="SimHei,SimHei_MSFontService,sans-serif" font-weight="400" font-size="19" transform="matrix(1 0 0 0.998776 470.672 176)">复制页表</text><path d="M1.08414-0.774483 7.28 7.89861 5.11173 9.44757-1.08414 0.774483ZM11.9269 14.4034 18.1228 23.0765 15.9545 24.6255 9.75863 15.9524ZM22.7697 29.5813 28.9655 38.2544 26.7973 39.8034 20.6014 31.1303ZM33.6124 44.7592 39.8083 53.4323 37.64 54.9813 31.4442 46.3082ZM44.4552 59.9372 50.6511 68.6102 48.4828 70.1592 42.2869 61.4861ZM55.298 75.1151 61.4938 83.7881 59.3256 85.3371 53.1297 76.664ZM66.1407 90.293 72.3366 98.966 70.1683 100.515 63.9725 91.8419ZM76.9835 105.471 83.1794 114.144 81.0111 115.693 74.8152 107.02ZM87.8263 120.649 94.0221 129.322 91.8539 130.871 85.658 122.198ZM98.669 135.827 104.865 144.5 102.697 146.049 96.5008 137.376ZM109.512 151.005 115.708 159.678 113.539 161.227 107.344 152.554ZM120.355 166.183 126.55 174.856 124.382 176.405 118.186 167.731ZM131.197 181.36 137.393 190.034 135.225 191.582 129.029 182.909ZM142.598 192.735 143.992 201.563 136.093 197.382Z" fill="#92D050" transform="matrix(-1.00123 0 0 1 710.669 143.324)"/><path d="M0.997848-0.882879 8.06088 7.0999 6.06518 8.86566-0.997848 0.882879ZM13.3582 13.087 20.4212 21.0698 18.4255 22.8355 11.3625 14.8527ZM25.7185 27.0569 32.7815 35.0396 30.7858 36.8054 23.7228 28.8226ZM38.0788 41.0267 45.1418 49.0095 43.1461 50.7753 36.0831 42.7925ZM50.4391 54.9966 57.5021 62.9794 55.5064 64.7451 48.4434 56.7624ZM62.7994 68.9665 69.8624 76.9492 67.8667 78.715 60.8037 70.7322ZM75.1597 82.9363 82.2227 90.9191 80.227 92.6849 73.164 84.7021ZM87.52 96.9062 94.583 104.889 92.5873 106.655 85.5243 98.672ZM99.8803 110.876 106.943 118.859 104.948 120.625 97.8846 112.642ZM112.241 124.846 119.304 132.829 117.308 134.594 110.245 126.612ZM124.601 138.816 131.664 146.799 129.668 148.564 122.605 140.582ZM136.961 152.786 140.032 156.256 138.036 158.022 134.966 154.551ZM141.145 153.493 143.448 162.128 135.158 158.79Z" fill="#92D050" transform="matrix(-1.00123 0 0 1 711.124 143.324)"/><path d="M810 337.836C810 342.387 840.221 346.076 877.5 346.076 914.779 346.076 945 342.387 945 337.836L945 387.275C945 391.826 914.779 395.515 877.5 395.515 840.221 395.515 810 391.826 810 387.275Z" fill="#48504F" fill-rule="evenodd"/><path d="M810 337.836C810 333.285 840.221 329.596 877.5 329.596 914.779 329.596 945 333.285 945 337.836 945 342.387 914.779 346.076 877.5 346.076 840.221 346.076 810 342.387 810 337.836Z" fill="#919695" fill-rule="evenodd"/><text fill="#FFFFFF" font-family="SimHei,SimHei_MSFontService,sans-serif" font-weight="400" font-size="19" transform="matrix(1 0 0 0.998776 858.761 373)">磁盘<tspan fill="#595959" font-size="19" x="-139.632" y="-92.1127">写新</tspan><tspan fill="#595959" font-family="Monaco,Monaco_MSFontService,sans-serif" font-size="19" x="-91.1077" y="-92.1127">RDB </tspan><tspan fill="#595959" font-size="19" x="-46.419" y="-92.1127">文件</tspan><tspan fill="#595959" font-size="19" x="-139.632" y="-69.0845">替换旧</tspan><tspan fill="#595959" font-family="Monaco,Monaco_MSFontService,sans-serif" font-size="19" x="-72.4318" y="-69.0845">RDB </tspan><tspan fill="#595959" font-size="19" x="-27.7432" y="-69.0845">文件</tspan></text><g clip-path="url(#clip54)"><g clip-path="url(#clip55)" filter="url(#fx13)" transform="translate(291 329)"><g clip-path="url(#clip56)"><path d="M6.5 10.851C6.5 8.27684 8.58936 6.19003 11.1667 6.19003L102.833 6.19003C105.411 6.19003 107.5 8.27684 107.5 10.851L107.5 29.4948C107.5 32.069 105.411 34.1558 102.833 34.1558L11.1667 34.1558C8.58936 34.1558 6.5 32.069 6.5 29.4948Z" stroke="#48504F" stroke-linejoin="round" stroke-miterlimit="10" fill="#FF0000" fill-rule="evenodd"/></g></g><g clip-path="url(#clip57)" filter="url(#fx14)" transform="translate(295 327)"><g clip-path="url(#clip58)"><path d="M11.3125-12.3125C11.2292-12.1042 11.125-11.8229 11-11.4688 10.875-11.1146 10.6875-10.4792 10.4375-9.5625L13.3125-9.5625C13.7292-9.5625 14.2292-9.58333 14.8125-9.625L14.8125-8.5C14.3542-8.54167 14-8.5625 13.75-8.5625 13.75-7.89583 13.6354-6.84375 13.4062-5.40625 13.1771-3.96875 12.7708-2.72917 12.1875-1.6875 12.6042-1.1875 13.0729-0.739583 13.5938-0.34375 14.1146 0.0520833 14.6042 0.333333 15.0625 0.5 14.5625 0.875 14.2292 1.22917 14.0625 1.5625 13.5625 1.27083 13.1042 0.9375 12.6875 0.5625 12.2708 0.1875 11.8542-0.270833 11.4375-0.8125 10.9792-0.3125 10.4896 0.114583 9.96875 0.46875 9.44792 0.822917 8.79167 1.20833 8 1.625 7.79167 1.25 7.5 0.958333 7.125 0.75 7.75 0.5 8.41667 0.145833 9.125-0.3125 9.83333-0.770833 10.375-1.22917 10.75-1.6875 10.4583-2.27083 10.1771-2.89583 9.90625-3.5625 9.63542-4.22917 9.39583-5.10417 9.1875-6.1875 9.0625-5.85417 8.85417-5.41667 8.5625-4.875 8.27083-5.04167 7.91667-5.20833 7.5-5.375 8.16667-6.54167 8.70833-7.8125 9.125-9.1875 9.54167-10.5625 9.8125-11.75 9.9375-12.75 10.4375-12.5417 10.8958-12.3958 11.3125-12.3125ZM5.25-5.625C5.08333-5.45833 4.89583-5.1875 4.6875-4.8125L8.125-4.8125C7.875-3.77083 7.4375-2.72917 6.8125-1.6875 7.47917-1.4375 8-1.20833 8.375-1 8.16667-0.708333 7.97917-0.395833 7.8125-0.0625 7.4375-0.3125 6.875-0.5625 6.125-0.8125 5.29167 0.104167 3.85417 0.916667 1.8125 1.625 1.60417 1.16667 1.33333 0.854167 1 0.6875 2.95833 0.229167 4.29167-0.395833 5-1.1875 3.83333-1.47917 2.875-1.72917 2.125-1.9375 2.375-2.3125 2.70833-2.9375 3.125-3.8125 2.70833-3.8125 2.02083-3.79167 1.0625-3.75L1.0625-4.875C1.85417-4.83333 2.66667-4.8125 3.5-4.8125 3.66667-5.1875 3.79167-5.60417 3.875-6.0625 4.33333-5.89583 4.79167-5.75 5.25-5.625ZM4.4375-9.875C4.4375-10.875 4.41667-11.8333 4.375-12.75L5.625-12.75C5.58333-11.875 5.5625-10.9167 5.5625-9.875 6.97917-9.875 7.97917-9.89583 8.5625-9.9375L8.5625-8.8125C7.97917-8.85417 6.97917-8.875 5.5625-8.875 5.5625-7.66667 5.58333-6.72917 5.625-6.0625L4.375-6.0625C4.41667-6.64583 4.4375-7.375 4.4375-8.25 4.22917-7.91667 3.83333-7.48958 3.25-6.96875 2.66667-6.44792 2.125-6.04167 1.625-5.75 1.41667-6.125 1.10417-6.39583 0.6875-6.5625 1.0625-6.6875 1.5625-6.97917 2.1875-7.4375 2.8125-7.89583 3.29167-8.375 3.625-8.875 2.79167-8.875 2-8.85417 1.25-8.8125L1.25-9.9375C1.95833-9.89583 3.02083-9.875 4.4375-9.875ZM9.9375-7.9375C10.3125-5.47917 10.8333-3.77083 11.5-2.8125 11.9167-3.77083 12.1979-4.73958 12.3438-5.71875 12.4896-6.69792 12.5833-7.64583 12.625-8.5625L10.1875-8.5625ZM3.625-2.5C4.125-2.375 4.8125-2.20833 5.6875-2 6.02083-2.41667 6.33333-3.02083 6.625-3.8125L4.3125-3.8125C4.10417-3.39583 3.875-2.95833 3.625-2.5ZM8.3125-12.0625C8.10417-11.7292 7.9375-11.4167 7.8125-11.125 7.6875-10.8333 7.52083-10.4792 7.3125-10.0625 6.97917-10.2292 6.64583-10.3542 6.3125-10.4375 6.64583-10.9792 6.95833-11.6667 7.25-12.5 7.66667-12.2917 8.02083-12.1458 8.3125-12.0625ZM6.4375-8.4375C6.97917-7.89583 7.5-7.35417 8-6.8125 7.75-6.60417 7.47917-6.35417 7.1875-6.0625 6.60417-6.77083 6.125-7.33333 5.75-7.75 6-7.95833 6.22917-8.1875 6.4375-8.4375ZM2.3125-12.5C2.89583-11.9167 3.375-11.3333 3.75-10.75L2.8125-10.1875C2.52083-10.7708 2.08333-11.3125 1.5-11.8125 1.875-12.0625 2.14583-12.2917 2.3125-12.5ZM30.3829-11.9375C30.3412-11.5625 30.3204-11.1042 30.3204-10.5625L30.3204-9.75C30.3204-9 30.3412-8.45833 30.3829-8.125L23.7579-8.125 23.7579-6.25 26.6329-6.25C26.6329-6.625 26.612-7.1875 26.5704-7.9375L27.7579-7.9375C27.7162-7.27083 27.6954-6.70833 27.6954-6.25L29.3829-6.25C30.1329-6.25 30.7579-6.27083 31.2579-6.3125L31.2579-5.1875C30.7579-5.22917 30.1537-5.25 29.4454-5.25L27.6954-5.25 27.6954-3.5625 30.4454-3.5625C30.4037-2.77083 30.3829-2.25 30.3829-2L30.3829-0.4375C30.3829 0.229167 30.4037 0.854167 30.4454 1.4375L29.3204 1.4375 29.3204 0.5625 25.1954 0.5625 25.1954 1.5 24.0704 1.5C24.112 1.04167 24.1329 0.458333 24.1329-0.25L24.1329-2.0625C24.1329-2.47917 24.112-2.97917 24.0704-3.5625L26.6329-3.5625 26.6329-5.25 23.6954-5.25C23.6537-4.04167 23.4975-2.90625 23.2266-1.84375 22.9558-0.78125 22.5704 0.229167 22.0704 1.1875 21.6954 0.9375 21.2995 0.75 20.8829 0.625 21.3829-0.0416666 21.7475-0.75 21.9766-1.5 22.2058-2.25 22.3829-3.05208 22.5079-3.90625 22.6329-4.76042 22.6954-5.64583 22.6954-6.5625L22.6954-8.9375C22.6954-9.60417 22.6745-10.6042 22.6329-11.9375ZM19.1954-11.0625C19.1954-11.6458 19.1745-12.1875 19.1329-12.6875L20.3829-12.6875C20.3412-12.2292 20.3204-11.6875 20.3204-11.0625L20.3204-9.4375C20.737-9.4375 21.3829-9.45833 22.2579-9.5L22.2579-8.4375C21.3829-8.47917 20.737-8.5 20.3204-8.5L20.3204-6.125C20.862-6.41667 21.4245-6.75 22.0079-7.125 22.0495-6.79167 22.1537-6.47917 22.3204-6.1875 21.5287-5.72917 20.862-5.33333 20.3204-5L20.3204-0.4375C20.3204 0.354167 20.1225 0.833333 19.7266 1 19.3308 1.16667 18.737 1.3125 17.9454 1.4375 17.862 1.02083 17.7162 0.583333 17.5079 0.125 18.2162 0.125 18.6745 0.09375 18.8829 0.03125 19.0912-0.03125 19.1954-0.3125 19.1954-0.8125L19.1954-4.5C18.5704-4.16667 17.9454-3.77083 17.3204-3.3125 17.1954-3.64583 16.987-4.04167 16.6954-4.5 17.5287-4.79167 18.362-5.16667 19.1954-5.625L19.1954-8.5C18.4037-8.5 17.6329-8.47917 16.8829-8.4375L16.8829-9.5C17.6329-9.45833 18.4037-9.4375 19.1954-9.4375ZM29.2579-9.0625 29.2579-11 23.7579-11 23.7579-9.0625ZM29.3204-0.375 29.3204-2.6875 25.1954-2.6875 25.1954-0.375Z" fill="#262626" transform="matrix(1 0 0 0.998776 15.4535 28)"/><path d="M1.34375 0 1.34375-12.125 3.71094-12.125C4.7474-12.125 5.47656-12.0807 5.89844-11.9922 6.72656-11.8203 7.3099-11.4375 7.64844-10.8438 7.88802-10.4219 8.00781-9.9401 8.00781-9.39844 8.00781-8.52865 7.72917-7.77604 7.17188-7.14062 6.89583-6.82292 6.49479-6.52344 5.96875-6.24219 7.61458-5.58594 8.4375-4.54948 8.4375-3.13281 8.4375-2.57031 8.28776-2.04036 7.98828-1.54297 7.6888-1.04557 7.28906-0.666667 6.78906-0.40625 6.26823-0.135417 5.4349 0 4.28906 0ZM2.92188-6.67188 4.57812-6.67188C5.46875-7.04622 6.04688-7.55831 6.3125-8.20813 6.43229-8.50964 6.49219-8.84237 6.49219-9.2063 6.49219-9.90812 6.24219-10.3838 5.74219-10.6333 5.38802-10.8153 4.8151-10.9062 4.02344-10.9062L2.92188-10.9062ZM2.92188-1.21875 4.41406-1.21875C5.11198-1.21875 5.67969-1.37472 6.11719-1.68665 6.61198-2.04016 6.85938-2.55225 6.85938-3.2229 6.85938-4.11702 6.41146-4.76164 5.51562-5.15674 5.05729-5.35433 4.33854-5.45312 3.35938-5.45312L2.92188-5.45312Z" fill="#262626" transform="matrix(1 0 0 0.998776 47.4693 28)"/><path d="M9.625-5.375C9.58333-4.75 9.5625-4.14583 9.5625-3.5625L9.5625-0.625C9.5625-2.98023e-08 9.58333 0.6875 9.625 1.4375L8.4375 1.4375 8.4375 0.5625 2.875 0.5625 2.875 1.5 1.6875 1.5C1.72917 0.833333 1.75 0.125 1.75-0.625L1.75-3.5625C1.75-4.14583 1.72917-4.75 1.6875-5.375ZM8.9375-9.8125C8.89583-9.27083 8.875-8.70833 8.875-8.125 8.875-7.58333 8.89583-7 8.9375-6.375L2.375-6.375C2.41667-7 2.4375-7.58333 2.4375-8.125 2.4375-8.66667 2.41667-9.22917 2.375-9.8125ZM14.6875-13C14.6458-12.0417 14.625-11.3333 14.625-10.875L14.625-0.0625C14.625 0.520833 14.4479 0.895833 14.0938 1.0625 13.7396 1.22917 13.125 1.39583 12.25 1.5625 12.125 1.10417 11.9167 0.645833 11.625 0.1875 12.4583 0.229167 12.9792 0.1875 13.1875 0.0625 13.3958-0.0625 13.5-0.25 13.5-0.5L13.5-10.875C13.5-11.4583 13.4792-12.1667 13.4375-13ZM12-11C11.9583-10.5 11.9375-9.77083 11.9375-8.8125L11.9375-3.9375C11.9375-3.10417 11.9583-2.375 12-1.75L10.75-1.75C10.7917-2.375 10.8125-3.10417 10.8125-3.9375L10.8125-9.0625C10.8125-9.85417 10.7917-10.5 10.75-11ZM7.5-11.875C8.29167-11.875 9.16667-11.8958 10.125-11.9375L10.125-10.875C9.16667-10.9167 8.29167-10.9375 7.5-10.9375L3.9375-10.9375C3.02083-10.9375 2.0625-10.9167 1.0625-10.875L1.0625-11.9375C2.0625-11.8958 3-11.875 3.875-11.875ZM7.8125-7.3125 7.8125-8.875 3.5625-8.875 3.5625-7.3125ZM5.1875-0.375 5.1875-2 2.875-2 2.875-0.375ZM8.4375-0.375 8.4375-2 6.25-2 6.25-0.375ZM5.1875-3 5.1875-4.4375 2.875-4.4375 2.875-3ZM8.4375-3 8.4375-4.4375 6.25-4.4375 6.25-3ZM23.3829-9.8125 23.3829-11.0625C23.3829-11.7292 23.362-12.3542 23.3204-12.9375L24.6954-12.9375C24.6537-12.4792 24.6329-11.875 24.6329-11.125L24.6329-9.8125 28.1329-9.8125C28.8412-9.8125 29.6745-9.83333 30.6329-9.875L30.6329-8.6875C29.7162-8.72917 28.9037-8.75 28.1954-8.75L25.6329-8.75C26.2162-6.83333 27.06-5.32292 28.1641-4.21875 29.2683-3.11458 30.2787-2.375 31.1954-2 30.8204-1.70833 30.4662-1.3125 30.1329-0.8125 28.7162-1.77083 27.56-2.86458 26.6641-4.09375 25.7683-5.32292 25.0912-6.75 24.6329-8.375L24.6329-2.5 25.4454-2.5C26.112-2.5 26.7995-2.52083 27.5079-2.5625L27.5079-1.375C26.7995-1.41667 26.0912-1.4375 25.3829-1.4375L24.6329-1.4375C24.6329-0.479167 24.6537 0.5 24.6954 1.5L23.3204 1.5C23.362 0.5 23.3829-0.479167 23.3829-1.4375L22.5704-1.4375C21.9037-1.4375 21.237-1.41667 20.5704-1.375L20.5704-2.5625C21.237-2.52083 21.9037-2.5 22.5704-2.5L23.3829-2.5 23.3829-8.25C22.7162-6.54167 21.9766-5.10417 21.1641-3.9375 20.3516-2.77083 19.2579-1.60417 17.8829-0.4375 17.5495-0.895833 17.1537-1.22917 16.6954-1.4375 18.0704-2.27083 19.2162-3.3125 20.1329-4.5625 21.0495-5.8125 21.7787-7.20833 22.3204-8.75L19.5704-8.75C18.9037-8.75 18.1954-8.72917 17.4454-8.6875L17.4454-9.875C18.1954-9.83333 18.8829-9.8125 19.5079-9.8125Z" fill="#262626" transform="matrix(1 0 0 0.998776 57.1407 28)"/></g></g></g><path d="M297.5 337.753C297.5 335.179 299.589 333.092 302.167 333.092L393.833 333.092C396.411 333.092 398.5 335.179 398.5 337.753L398.5 356.397C398.5 358.971 396.411 361.058 393.833 361.058L302.167 361.058C299.589 361.058 297.5 358.971 297.5 356.397Z" stroke="#48504F" stroke-width="1.00049" stroke-linejoin="round" stroke-miterlimit="10" fill="url(#fill59)" fill-rule="evenodd"/><text fill="#262626" font-family="SimHei,SimHei_MSFontService,sans-serif" font-weight="400" font-size="16" transform="matrix(1 0 0 0.998776 310.454 353)">数据<tspan font-family="Monaco,Monaco_MSFontService,sans-serif" font-size="16" x="32.0157" y="0">B</tspan><tspan font-size="16" x="41.6872" y="0">副本</tspan></text><path d="M0-1.33236 167.142-1.33236C167.878-1.33236 168.474-0.735841 168.474 0L168.474 47.3828 165.81 47.3828 165.81 0 167.142 1.33236 0 1.33236ZM171.139 46.0505 167.142 54.0446 163.145 46.0505Z" fill="#BE4B48" transform="matrix(1.83922e-16 1 1.00123 -1.83697e-16 243.5 180.279)"/><text fill="#595959" font-family="SimHei,SimHei_MSFontService,sans-serif" font-weight="400" font-size="19" transform="matrix(1 0 0 0.998776 178.054 297)">写操作</text><path d="M165.087 0 180.758 14.0246 165.317 14.0246C153.984 33.3079 120.933 45.9537 84.666 44.8822 117.808 43.903 146.47 31.6464 156.826 14.0246L141.384 14.0246Z" fill="url(#fill60)" fill-rule="evenodd" transform="matrix(-1.00123 0 0 1 511.5 361.058)"/><path d="M80.4206 44.9449C36.0055 44.9449-1.17621e-14 24.8224-1.17621e-14 2.94053e-15L8.49102 0C8.49102 24.8224 44.4965 44.9449 88.9116 44.9449Z" fill="url(#fill61)" fill-rule="evenodd" transform="matrix(-1.00123 0 0 1 511.5 361.058)"/><path d="M84.6661 44.8823C117.808 43.9031 146.47 31.6465 156.826 14.0247L141.384 14.0246 165.087 0 180.758 14.0246 165.317 14.0246C154.474 32.4736 123.658 44.9449 88.9115 44.9449L80.4206 44.9449C36.0055 44.9449-1.17621e-14 24.8224-1.17621e-14 2.94053e-15L8.49102 0C8.49102 24.8224 44.4965 44.9449 88.9116 44.9449" stroke="#BE4B48" stroke-width="0.999268" stroke-linejoin="round" stroke-miterlimit="10" fill="none" fill-rule="evenodd" transform="matrix(-1.00123 0 0 1 511.5 361.058)"/><text fill="#595959" font-family="SimHei,SimHei_MSFontService,sans-serif" font-weight="400" font-size="16" transform="matrix(1 0 0 0.998776 386.186 389)">数据拷贝<tspan font-size="19" x="197.323" y="-174.213">读操作</tspan></text><path d="M278.754 140.872 282.396 150.891 279.888 151.8 276.246 141.782ZM285.128 158.405 288.77 168.424 286.262 169.333 282.62 159.315ZM291.502 175.938 295.144 185.957 292.636 186.866 288.994 176.848ZM297.876 193.471 301.518 203.49 299.01 204.399 295.368 194.38ZM304.25 211.004 307.892 221.023 305.385 221.932 301.742 211.913ZM310.624 228.537 314.266 238.556 311.759 239.465 308.116 229.446ZM316.998 246.07 320.64 256.089 318.133 256.998 314.49 246.979ZM323.372 263.603 327.014 273.622 324.507 274.531 320.864 264.512ZM329.746 281.136 333.388 291.155 330.881 292.064 327.238 282.045ZM336.12 298.669 339.762 308.688 337.255 309.597 333.612 299.578ZM342.494 316.202 346.136 326.221 343.629 327.13 339.986 317.111ZM348.462 324.811 347.432 333.689 340.939 327.539Z" fill="#92D050"/><path d="M2.23776e-06-1.33236 10.6589-1.33234 10.6589 1.33238-2.23776e-06 1.33236ZM18.653-1.33233 29.3119-1.33231 29.3119 1.33241 18.653 1.33239ZM37.306-1.33229 47.9649-1.33228 47.9649 1.33244 37.306 1.33242ZM54.469-3.99698 62.4631 0.00010491 54.469 3.99716Z" transform="matrix(1.00123 0 0 -1 146.5 141.327)"/><path d="M0.0176114-1.33224 10.6755-1.19135 10.6403 1.47313-0.0176114 1.33224ZM18.669-1.08568 29.3269-0.944791 29.2917 1.71969 18.6338 1.5788ZM37.3204-0.839123 47.9783-0.698232 47.9431 1.96625 37.2851 1.82536ZM55.9717-0.592564 64.1067-0.485024 64.0715 2.17946 55.9365 2.07192ZM62.8097-3.16712 70.7503 0.935273 62.704 4.82633Z" transform="matrix(-1.00123 0 0 1 847.337 142.326)"/><path d="M877.834 191.255 878.926 323.422 876.259 323.444 875.166 191.277ZM881.583 322.067 877.648 330.094 873.58 322.133Z"/><text fill="#595959" font-family="SimHei,SimHei_MSFontService,sans-serif" font-weight="400" font-size="19" transform="matrix(1 0 0 0.998776 275.387 302)">读操作</text></g></svg>