<svg width="1209" height="529" xmlns="http://www.w3.org/2000/svg" xmlns:xlink="http://www.w3.org/1999/xlink" overflow="hidden"><defs><filter id="fx0" x="-10%" y="-10%" width="120%" height="120%" filterUnits="userSpaceOnUse" primitiveUnits="userSpaceOnUse"><feComponentTransfer color-interpolation-filters="sRGB"><feFuncR type="discrete" tableValues="0 0"/><feFuncG type="discrete" tableValues="0 0"/><feFuncB type="discrete" tableValues="0 0"/><feFuncA type="linear" slope="0.34902" intercept="0"/></feComponentTransfer><feGaussianBlur stdDeviation="1.39944 1.39938"/></filter><filter id="fx1" x="-10%" y="-10%" width="120%" height="120%" filterUnits="userSpaceOnUse" primitiveUnits="userSpaceOnUse"><feComponentTransfer color-interpolation-filters="sRGB"><feFuncR type="discrete" tableValues="0 0"/><feFuncG type="discrete" tableValues="0 0"/><feFuncB type="discrete" tableValues="0 0"/><feFuncA type="linear" slope="0.34902" intercept="0"/></feComponentTransfer><feGaussianBlur stdDeviation="1.39944 1.39938"/></filter><filter id="fx2" x="-10%" y="-10%" width="120%" height="120%" filterUnits="userSpaceOnUse" primitiveUnits="userSpaceOnUse"><feComponentTransfer color-interpolation-filters="sRGB"><feFuncR type="discrete" tableValues="0 0"/><feFuncG type="discrete" tableValues="0 0"/><feFuncB type="discrete" tableValues="0 0"/><feFuncA type="linear" slope="0.34902" intercept="0"/></feComponentTransfer><feGaussianBlur stdDeviation="1.39944 1.39938"/></filter><filter id="fx3" x="-10%" y="-10%" width="120%" height="120%" filterUnits="userSpaceOnUse" primitiveUnits="userSpaceOnUse"><feComponentTransfer color-interpolation-filters="sRGB"><feFuncR type="discrete" tableValues="0 0"/><feFuncG type="discrete" tableValues="0 0"/><feFuncB type="discrete" tableValues="0 0"/><feFuncA type="linear" slope="0.34902" intercept="0"/></feComponentTransfer><feGaussianBlur stdDeviation="1.39944 1.39938"/></filter><filter id="fx4" x="-10%" y="-10%" width="120%" height="120%" filterUnits="userSpaceOnUse" primitiveUnits="userSpaceOnUse"><feComponentTransfer color-interpolation-filters="sRGB"><feFuncR type="discrete" tableValues="0 0"/><feFuncG type="discrete" tableValues="0 0"/><feFuncB type="discrete" tableValues="0 0"/><feFuncA type="linear" slope="0.34902" intercept="0"/></feComponentTransfer><feGaussianBlur stdDeviation="1.39944 1.39938"/></filter><filter id="fx5" x="-10%" y="-10%" width="120%" height="120%" filterUnits="userSpaceOnUse" primitiveUnits="userSpaceOnUse"><feComponentTransfer color-interpolation-filters="sRGB"><feFuncR type="discrete" tableValues="0 0"/><feFuncG type="discrete" tableValues="0 0"/><feFuncB type="discrete" tableValues="0 0"/><feFuncA type="linear" slope="0.34902" intercept="0"/></feComponentTransfer><feGaussianBlur stdDeviation="1.39944 1.39938"/></filter><filter id="fx6" x="-10%" y="-10%" width="120%" height="120%" filterUnits="userSpaceOnUse" primitiveUnits="userSpaceOnUse"><feComponentTransfer color-interpolation-filters="sRGB"><feFuncR type="discrete" tableValues="0 0"/><feFuncG type="discrete" tableValues="0 0"/><feFuncB type="discrete" tableValues="0 0"/><feFuncA type="linear" slope="0.34902" intercept="0"/></feComponentTransfer><feGaussianBlur stdDeviation="1.39944 1.39938"/></filter><filter id="fx7" x="-10%" y="-10%" width="120%" height="120%" filterUnits="userSpaceOnUse" primitiveUnits="userSpaceOnUse"><feComponentTransfer color-interpolation-filters="sRGB"><feFuncR type="discrete" tableValues="0 0"/><feFuncG type="discrete" tableValues="0 0"/><feFuncB type="discrete" tableValues="0 0"/><feFuncA type="linear" slope="0.34902" intercept="0"/></feComponentTransfer><feGaussianBlur stdDeviation="1.39944 1.39938"/></filter><filter id="fx8" x="-10%" y="-10%" width="120%" height="120%" filterUnits="userSpaceOnUse" primitiveUnits="userSpaceOnUse"><feComponentTransfer color-interpolation-filters="sRGB"><feFuncR type="discrete" tableValues="0 0"/><feFuncG type="discrete" tableValues="0 0"/><feFuncB type="discrete" tableValues="0 0"/><feFuncA type="linear" slope="0.34902" intercept="0"/></feComponentTransfer><feGaussianBlur stdDeviation="1.39944 1.39938"/></filter><filter id="fx9" x="-10%" y="-10%" width="120%" height="120%" filterUnits="userSpaceOnUse" primitiveUnits="userSpaceOnUse"><feComponentTransfer color-interpolation-filters="sRGB"><feFuncR type="discrete" tableValues="0 0"/><feFuncG type="discrete" tableValues="0 0"/><feFuncB type="discrete" tableValues="0 0"/><feFuncA type="linear" slope="0.34902" intercept="0"/></feComponentTransfer><feGaussianBlur stdDeviation="1.39944 1.39938"/></filter><filter id="fx10" x="-10%" y="-10%" width="120%" height="120%" filterUnits="userSpaceOnUse" primitiveUnits="userSpaceOnUse"><feComponentTransfer color-interpolation-filters="sRGB"><feFuncR type="discrete" tableValues="0 0"/><feFuncG type="discrete" tableValues="0 0"/><feFuncB type="discrete" tableValues="0 0"/><feFuncA type="linear" slope="0.380392" intercept="0"/></feComponentTransfer><feGaussianBlur stdDeviation="1.39944 1.39938"/></filter><filter id="fx11" x="-10%" y="-10%" width="120%" height="120%" filterUnits="userSpaceOnUse" primitiveUnits="userSpaceOnUse"><feComponentTransfer color-interpolation-filters="sRGB"><feFuncR type="discrete" tableValues="0 0"/><feFuncG type="discrete" tableValues="0 0"/><feFuncB type="discrete" tableValues="0 0"/><feFuncA type="linear" slope="0.380392" intercept="0"/></feComponentTransfer><feGaussianBlur stdDeviation="1.39944 1.39938"/></filter><filter id="fx12" x="-10%" y="-10%" width="120%" height="120%" filterUnits="userSpaceOnUse" primitiveUnits="userSpaceOnUse"><feComponentTransfer color-interpolation-filters="sRGB"><feFuncR type="discrete" tableValues="0 0"/><feFuncG type="discrete" tableValues="0 0"/><feFuncB type="discrete" tableValues="0 0"/><feFuncA type="linear" slope="0.380392" intercept="0"/></feComponentTransfer><feGaussianBlur stdDeviation="1.39944 1.39938"/></filter><filter id="fx13" x="-10%" y="-10%" width="120%" height="120%" filterUnits="userSpaceOnUse" primitiveUnits="userSpaceOnUse"><feComponentTransfer color-interpolation-filters="sRGB"><feFuncR type="discrete" tableValues="0 0"/><feFuncG type="discrete" tableValues="0 0"/><feFuncB type="discrete" tableValues="0 0"/><feFuncA type="linear" slope="0.380392" intercept="0"/></feComponentTransfer><feGaussianBlur stdDeviation="1.39944 1.39938"/></filter><filter id="fx14" x="-10%" y="-10%" width="120%" height="120%" filterUnits="userSpaceOnUse" primitiveUnits="userSpaceOnUse"><feComponentTransfer color-interpolation-filters="sRGB"><feFuncR type="discrete" tableValues="0 0"/><feFuncG type="discrete" tableValues="0 0"/><feFuncB type="discrete" tableValues="0 0"/><feFuncA type="linear" slope="0.380392" intercept="0"/></feComponentTransfer><feGaussianBlur stdDeviation="1.39944 1.39938"/></filter><clipPath id="clip15"><rect x="0" y="0" width="1209" height="529"/></clipPath><clipPath id="clip16"><path d="M47.0003 348.986C42.0296 348.986 38 353.016 38 357.986L38 393.984C38 398.955 42.0296 402.984 47.0003 402.984L218 402.984C222.97 402.984 227 398.955 227 393.984L227 357.986C227 353.016 222.97 348.986 218 348.986ZM1.80155e-05 7.88271e-06 1209 7.88271e-06 1209 529 1.80155e-05 529Z" fill-rule="evenodd" clip-rule="evenodd"/></clipPath><clipPath id="clip17"><rect x="1" y="1" width="201" height="67"/></clipPath><clipPath id="clip18"><rect x="0" y="0" width="203" height="68"/></clipPath><clipPath id="clip19"><rect x="11" y="7" width="157" height="29"/></clipPath><clipPath id="clip20"><rect x="0" y="0" width="179" height="50"/></clipPath><clipPath id="clip21"><path d="M453.5 132.495C447.425 132.495 442.5 137.42 442.5 143.495L442.5 187.492C442.5 193.567 447.425 198.492 453.5 198.492L616.5 198.492C622.575 198.492 627.5 193.567 627.5 187.492L627.5 143.495C627.5 137.42 622.575 132.495 616.5 132.495ZM1.80155e-05 7.88271e-06 1209 7.88271e-06 1209 529 1.80155e-05 529Z" fill-rule="evenodd" clip-rule="evenodd"/></clipPath><clipPath id="clip22"><rect x="1" y="1" width="197" height="79"/></clipPath><clipPath id="clip23"><rect x="0" y="0" width="198" height="79"/></clipPath><clipPath id="clip24"><rect x="13" y="9" width="153" height="27"/></clipPath><clipPath id="clip25"><rect x="0" y="0" width="179" height="50"/></clipPath><linearGradient x1="535" y1="198.492" x2="535" y2="132.495" gradientUnits="userSpaceOnUse" spreadMethod="reflect" id="fill26"><stop offset="0" stop-color="#9B2D2A"/><stop offset="0.8" stop-color="#CB3D3A"/><stop offset="1" stop-color="#CE3B37"/></linearGradient><clipPath id="clip27"><path d="M527 326.487 417.5 375.485 527 424.483 636.5 375.485ZM1.80155e-05 7.88271e-06 1209 7.88271e-06 1209 529 1.80155e-05 529Z" fill-rule="evenodd" clip-rule="evenodd"/></clipPath><clipPath id="clip28"><rect x="1" y="1" width="231" height="111"/></clipPath><clipPath id="clip29"><rect x="0" y="0" width="232" height="111"/></clipPath><clipPath id="clip30"><rect x="11" y="9" width="95" height="51"/></clipPath><clipPath id="clip31"><rect x="0" y="0" width="119" height="73"/></clipPath><linearGradient x1="527" y1="424.483" x2="527" y2="326.487" gradientUnits="userSpaceOnUse" spreadMethod="reflect" id="fill32"><stop offset="0" stop-color="#9B2D2A"/><stop offset="0.8" stop-color="#CB3D3A"/><stop offset="1" stop-color="#CE3B37"/></linearGradient><clipPath id="clip33"><path d="M959 281.989C952.373 281.989 947 287.361 947 293.989L947 341.986C947 348.614 952.373 353.986 959 353.986L1150 353.986C1156.63 353.986 1162 348.614 1162 341.986L1162 293.989C1162 287.361 1156.63 281.989 1150 281.989ZM1.80155e-05 7.88271e-06 1209 7.88271e-06 1209 529 1.80155e-05 529Z" fill-rule="evenodd" clip-rule="evenodd"/></clipPath><clipPath id="clip34"><rect x="1" y="1" width="229" height="85"/></clipPath><clipPath id="clip35"><rect x="0" y="0" width="229" height="86"/></clipPath><clipPath id="clip36"><rect x="13" y="9" width="143" height="49"/></clipPath><clipPath id="clip37"><rect x="0" y="0" width="168" height="73"/></clipPath><clipPath id="clip38"><path d="M959 398.984C952.373 398.984 947 404.357 947 410.984L947 458.982C947 465.609 952.373 470.981 959 470.981L1150 470.981C1156.63 470.981 1162 465.609 1162 458.982L1162 410.984C1162 404.357 1156.63 398.984 1150 398.984ZM1.80155e-05 7.88271e-06 1209 7.88271e-06 1209 529 1.80155e-05 529Z" fill-rule="evenodd" clip-rule="evenodd"/></clipPath><clipPath id="clip39"><rect x="1" y="1" width="229" height="85"/></clipPath><clipPath id="clip40"><rect x="0" y="0" width="229" height="86"/></clipPath><clipPath id="clip41"><rect x="13" y="7" width="143" height="51"/></clipPath><clipPath id="clip42"><rect x="0" y="0" width="168" height="72"/></clipPath><clipPath id="clip43"><rect x="-1" y="7" width="151" height="183"/></clipPath><clipPath id="clip44"><rect x="0" y="0" width="150" height="190"/></clipPath><clipPath id="clip45"><rect x="5" y="-1" width="147" height="177"/></clipPath><clipPath id="clip46"><rect x="0" y="0" width="153" height="191"/></clipPath><clipPath id="clip47"><rect x="1" y="7" width="323" height="77"/></clipPath><clipPath id="clip48"><rect x="0" y="0" width="338" height="84"/></clipPath><clipPath id="clip49"><rect x="1" y="1" width="323" height="81"/></clipPath><clipPath id="clip50"><rect x="0" y="0" width="338" height="87"/></clipPath><clipPath id="clip51"><rect x="1" y="7" width="201" height="27"/></clipPath><clipPath id="clip52"><rect x="0" y="0" width="216" height="39"/></clipPath></defs><g clip-path="url(#clip15)"><rect x="0" y="0" width="1209" height="528.979" fill="#FFFFFF"/><text fill="#595959" font-family="Monaco,Monaco_MSFontService,sans-serif" font-weight="700" font-size="32" transform="matrix(1 0 0 0.999961 87.7545 83)">Ribbon <tspan font-family="SimHei,SimHei_MSFontService,sans-serif" font-size="32" x="134.13" y="0">负载均衡流程</tspan></text><g clip-path="url(#clip16)"><g clip-path="url(#clip17)" filter="url(#fx0)" transform="translate(31 344)"><g clip-path="url(#clip18)"><path d="M7.00002 16.4002C7.00002 11.4297 11.0296 7.40027 16.0003 7.40027L187 7.40027C191.97 7.40027 196 11.4297 196 16.4002L196 52.3982C196 57.3687 191.97 61.3981 187 61.3981L16.0003 61.3981C11.0296 61.3981 7.00002 57.3687 7.00002 52.3982Z" stroke="#AD2B26" stroke-width="2" stroke-linejoin="round" stroke-miterlimit="10" fill="#FFFFFF" fill-rule="evenodd"/></g></g><g clip-path="url(#clip19)" filter="url(#fx1)" transform="translate(43 356)"><g clip-path="url(#clip20)"><path d="M5.70557 0.287598C4.18408 0.287598 2.97184-0.253581 2.06885-1.33594 1.2277-2.35026 0.807129-3.63363 0.807129-5.18603 0.807129-6.73844 1.23079-8.01872 2.07812-9.02685 2.97493-10.1092 4.18408-10.6504 5.70557-10.6504 7.22086-10.6504 8.43001-10.1092 9.33301-9.02685 10.1742-8.01253 10.5947-6.73226 10.5947-5.18603 10.5947-3.63981 10.1742-2.35645 9.33301-1.33594 8.43001-0.253581 7.22086 0.287598 5.70557 0.287598ZM5.70557-1.15967C6.74463-1.15967 7.53011-1.5916 8.06201-2.45545 8.50114-3.17126 8.7207-4.08145 8.7207-5.18603 8.7207-6.28443 8.49805-7.19153 8.05273-7.90734 7.52083-8.7712 6.73844-9.20312 5.70557-9.20312 4.6665-9.20312 3.88102-8.77424 3.34912-7.91647 2.90381-7.20076 2.68115-6.29062 2.68115-5.18603 2.68115-4.08145 2.90381-3.17126 3.34912-2.45545 3.88102-1.5916 4.6665-1.15967 5.70557-1.15967ZM13.4829 0 13.4829-10.3628 15.2085-10.3628 15.2085-8.09912C16.2785-9.79997 17.6701-10.6504 19.3833-10.6504 20.008-10.6504 20.6327-10.5545 21.2573-10.3628L21.2573-6.62402 19.5967-6.62402 19.5967-8.98975C19.306-9.03922 19.0772-9.06396 18.9102-9.06396 17.6175-9.06396 16.3836-8.04964 15.2085-6.021L15.2085 0ZM30.6953-2.32861C30.2562-1.61117 29.7027-1.01123 29.0347-0.528809 28.2801 0.0154622 27.5225 0.287598 26.7617 0.287598 25.6423 0.287598 24.7764-0.210286 24.1641-1.20605 23.6507-2.04102 23.3941-3.05225 23.3941-4.23975 23.3941-6.67041 24.2352-8.48877 25.9175-9.69482 26.6844-10.2391 27.6338-10.5112 28.7657-10.5112 29.112-10.5112 29.6068-10.4772 30.25-10.4092 30.3304-10.403 30.4789-10.3875 30.6953-10.3628L30.6953-14.9736 32.4302-14.9736 32.4302 0 30.6953 0ZM30.6953-4.37891 30.6953-8.82275C30.083-8.98356 29.514-9.06396 28.9883-9.06396 27.7884-9.06396 26.8483-8.58463 26.168-7.62598 25.5681-6.77246 25.2681-5.72103 25.2681-4.47168 25.2681-3.72331 25.398-3.06152 25.6577-2.48633 25.9979-1.73796 26.502-1.36377 27.17-1.36377 27.8194-1.36377 28.5121-1.72559 29.2481-2.44922 29.7985-2.99349 30.2809-3.63672 30.6953-4.37891ZM43.5474-0.686523C42.1682-0.0309245 40.8632 0.296875 39.6324 0.296875 37.7027 0.296875 36.2802-0.599935 35.3648-2.39355 34.9195-3.25325 34.6968-4.1748 34.6968-5.1582 34.6968-6.10449 34.9009-7.0013 35.3091-7.84863 35.7359-8.73926 36.3281-9.42887 37.0857-9.91748 37.8434-10.4061 38.6861-10.6504 39.6138-10.6504 41.0611-10.6504 42.1342-10.0907 42.833-8.97119 43.4082-8.04964 43.6958-6.81575 43.6958-5.26953L43.6958-4.89844 36.5523-4.89844C36.5523-4.23047 36.6853-3.60889 36.9512-3.03369 37.2419-2.39665 37.6532-1.91732 38.1851-1.5957 38.6737-1.29883 39.2303-1.15039 39.855-1.15039 40.9683-1.15039 42.1991-1.52148 43.5474-2.26367ZM36.6543-6.18799 41.8218-6.18799 41.8218-6.43775C41.8218-7.21463 41.6394-7.85279 41.2745-8.35222 40.8662-8.91949 40.288-9.20312 39.5396-9.20312 38.0305-9.20312 37.0687-8.19808 36.6543-6.18799ZM46.9737 0 46.9737-10.3628 48.6993-10.3628 48.6993-8.09912C49.7693-9.79997 51.1609-10.6504 52.8741-10.6504 53.4988-10.6504 54.1234-10.5545 54.7481-10.3628L54.7481-6.62402 53.0875-6.62402 53.0875-8.98975C52.7968-9.03922 52.5679-9.06396 52.4009-9.06396 51.1083-9.06396 49.8744-8.04964 48.6993-6.021L48.6993 0Z" fill="#49504F" transform="matrix(1 0 0 0.999961 17.0596 29)"/><path d="M2.10596-5.11182 2.10596-6.5498 9.30517-6.5498 9.30517-5.11182Z" fill="#49504F" transform="matrix(1 0 0 0.999961 72.8776 29)"/><path d="M1.55859-0.547363 1.55859-2.375C2.81413-1.56478 4.20264-1.15967 5.72412-1.15967 7.36312-1.15967 8.18262-1.65088 8.18262-2.63332 8.18262-3.01021 7.99707-3.32535 7.62598-3.57873 7.4528-3.69615 7.10335-3.86295 6.57764-4.07913L5.98389-4.3202 4.78711-4.79291C3.80371-5.18217 3.13265-5.51891 2.77393-5.80312 2.15544-6.29125 1.84619-6.93075 1.84619-7.72165 1.84619-8.79057 2.30387-9.57219 3.21924-10.0665 3.9305-10.4558 4.8706-10.6504 6.03955-10.6504 7.14665-10.6504 8.19499-10.4896 9.18457-10.168L9.18457-8.6001C8.04655-9.00211 6.97656-9.20312 5.97461-9.20312 5.41797-9.20312 4.92936-9.11663 4.50879-8.94365 3.93359-8.70263 3.646-8.34115 3.646-7.85921 3.646-7.44521 3.93359-7.08064 4.50879-6.7655 4.71289-6.65437 5.17985-6.46592 5.90967-6.20016L7.07861-5.77384C7.98779-5.44024 8.65267-5.09732 9.07324-4.74507 9.67936-4.23221 9.98242-3.58033 9.98242-2.78944 9.98242-1.67731 9.51237-0.858637 8.57226-0.333405 7.83008 0.0805969 6.85286 0.287598 5.64062 0.287598 4.31706 0.287598 2.95638 0.00927733 1.55859-0.547363ZM21.2202-0.686523C19.841-0.0309245 18.536 0.296875 17.3052 0.296875 15.3755 0.296875 13.953-0.599935 13.0376-2.39355 12.5923-3.25325 12.3696-4.1748 12.3696-5.1582 12.3696-6.10449 12.5737-7.0013 12.9819-7.84863 13.4087-8.73926 14.0009-9.42887 14.7586-9.91748 15.5162-10.4061 16.3589-10.6504 17.2866-10.6504 18.7339-10.6504 19.807-10.0907 20.5059-8.97119 21.0811-8.04964 21.3687-6.81575 21.3687-5.26953L21.3687-4.89844 14.2251-4.89844C14.2251-4.23047 14.3581-3.60889 14.624-3.03369 14.9147-2.39665 15.326-1.91732 15.8579-1.5957 16.3465-1.29883 16.9032-1.15039 17.5278-1.15039 18.6411-1.15039 19.8719-1.52148 21.2202-2.26367ZM14.3272-6.18799 19.4946-6.18799 19.4946-6.43775C19.4946-7.21463 19.3122-7.85279 18.9473-8.35222 18.5391-8.91949 17.9608-9.20312 17.2124-9.20312 15.7033-9.20312 14.7416-8.19808 14.3272-6.18799ZM24.6465 0 24.6465-10.3628 26.3721-10.3628 26.3721-8.09912C27.4421-9.79997 28.8337-10.6504 30.5469-10.6504 31.1716-10.6504 31.7962-10.5545 32.4209-10.3628L32.4209-6.62402 30.7603-6.62402 30.7603-8.98975C30.4696-9.03922 30.2407-9.06396 30.0738-9.06396 28.7811-9.06396 27.5472-8.04964 26.3721-6.021L26.3721 0ZM38.2964 0 33.7971-10.3628 35.6882-10.3628 39.241-2.15698 42.8639-10.3628 44.5957-10.3628 40.059 0ZM49.0054 0 49.0054-8.91553 46.1295-8.91553 46.1295-10.3628 50.731-10.3628 50.731-1.44727 53.6163-1.44727 53.6163 0ZM48.7178-14.1016C48.7178-14.4232 48.8292-14.6969 49.0518-14.9226 49.2745-15.1484 49.5466-15.2612 49.8682-15.2612 50.1898-15.2612 50.4635-15.1484 50.6893-14.9226 50.915-14.6969 51.0279-14.4232 51.0279-14.1016 51.0279-13.7861 50.915-13.5155 50.6893-13.2898 50.4635-13.064 50.1898-12.9512 49.8682-12.9512 49.5528-12.9512 49.2822-13.064 49.0565-13.2898 48.8307-13.5155 48.7178-13.7861 48.7178-14.1016ZM65.9766-0.296875C64.8201 0.0927734 63.7191 0.287598 62.6739 0.287598 61.6781 0.287598 60.7751 0.0618489 59.9649-0.389648 59.1361-0.8597 58.4867-1.52458 58.0167-2.38428 57.5652-3.20068 57.3394-4.13151 57.3394-5.17676 57.3394-6.69824 57.8311-7.9847 58.8145-9.03613 59.8165-10.1123 61.072-10.6504 62.5811-10.6504 63.6511-10.6504 64.7829-10.4494 65.9766-10.0474L65.9766-8.38672C64.7706-8.93099 63.6913-9.20312 62.7388-9.20312 61.2792-9.20312 60.2556-8.56067 59.668-7.27576 59.365-6.61475 59.2134-5.93518 59.2135-5.23706 59.2134-4.11276 59.5351-3.18614 60.1783-2.45719 60.8463-1.68495 61.7338-1.29883 62.8409-1.29883 63.6387-1.29883 64.684-1.51839 65.9766-1.95752ZM77.0382-0.686523C75.6589-0.0309245 74.3539 0.296875 73.1231 0.296875 71.1934 0.296875 69.7709-0.599935 68.8556-2.39355 68.4102-3.25325 68.1876-4.1748 68.1876-5.1582 68.1876-6.10449 68.3917-7.0013 68.7999-7.84863 69.2266-8.73926 69.8188-9.42887 70.5765-9.91748 71.3342-10.4061 72.1768-10.6504 73.1046-10.6504 74.5518-10.6504 75.6249-10.0907 76.3238-8.97119 76.899-8.04964 77.1866-6.81575 77.1866-5.26953L77.1866-4.89844 70.0431-4.89844C70.0431-4.23047 70.176-3.60889 70.442-3.03369 70.7327-2.39665 71.144-1.91732 71.6759-1.5957 72.1645-1.29883 72.7211-1.15039 73.3458-1.15039 74.4591-1.15039 75.6899-1.52148 77.0382-2.26367ZM70.1451-6.18799 75.3126-6.18799 75.3126-6.43775C75.3126-7.21463 75.1301-7.85279 74.7652-8.35222 74.357-8.91949 73.7787-9.20312 73.0304-9.20312 71.5212-9.20312 70.5595-8.19808 70.1451-6.18799Z" fill="#49504F" transform="matrix(1 0 0 0.999961 84.0411 29)"/></g></g></g><path d="M38 357.986C38 353.016 42.0296 348.986 47.0003 348.986L218 348.986C222.97 348.986 227 353.016 227 357.986L227 393.984C227 398.955 222.97 402.984 218 402.984L47.0003 402.984C42.0296 402.984 38 398.955 38 393.984Z" stroke="#AD2B26" stroke-width="1.99945" stroke-linejoin="round" stroke-miterlimit="10" fill="#FFFFFF" fill-rule="evenodd"/><text fill="#49504F" font-family="Monaco,Monaco_MSFontService,sans-serif" font-weight="400" font-size="19" transform="matrix(1 0 0 0.999961 60.0596 383)">order<tspan font-size="19" x="55.8179" y="0">-</tspan>service</text><g clip-path="url(#clip21)"><g clip-path="url(#clip22)" filter="url(#fx2)" transform="translate(436 128)"><g clip-path="url(#clip23)"><path d="M6.50006 17.9085C6.50006 11.8335 11.425 6.90868 17.5003 6.90868L180.5 6.90868C186.575 6.90868 191.5 11.8335 191.5 17.9085L191.5 61.9063C191.5 67.9814 186.575 72.9062 180.5 72.9062L17.5003 72.9062C11.425 72.9062 6.50006 67.9814 6.50006 61.9063Z" stroke="#AD2B26" stroke-linejoin="round" stroke-miterlimit="10" fill="#FF0000" fill-rule="evenodd"/></g></g><g clip-path="url(#clip24)" filter="url(#fx3)" transform="translate(445 145)"><g clip-path="url(#clip25)"><path d="M10.0566-0.686523C8.67741-0.0309245 7.37239 0.296875 6.1416 0.296875 4.21191 0.296875 2.78939-0.599935 1.87402-2.39355 1.42871-3.25325 1.20605-4.1748 1.20605-5.1582 1.20605-6.10449 1.41016-7.0013 1.81836-7.84863 2.24512-8.73926 2.83732-9.42887 3.59497-9.91748 4.35262-10.4061 5.19531-10.6504 6.12305-10.6504 7.57031-10.6504 8.64339-10.0907 9.34228-8.97119 9.91748-8.04964 10.2051-6.81575 10.2051-5.26953L10.2051-4.89844 3.06152-4.89844C3.06152-4.23047 3.1945-3.60889 3.46045-3.03369 3.75114-2.39665 4.16243-1.91732 4.69434-1.5957 5.18294-1.29883 5.73958-1.15039 6.36426-1.15039 7.47754-1.15039 8.70833-1.52148 10.0566-2.26367ZM3.16357-6.18799 8.33105-6.18799 8.33105-6.43775C8.33105-7.21463 8.1486-7.85279 7.78369-8.35222 7.37549-8.91949 6.7972-9.20312 6.04883-9.20312 4.53971-9.20312 3.57796-8.19808 3.16357-6.18799ZM21.1367-10.3628 21.1367 0 19.4111 0 19.4111-2.27295C18.2979-0.565918 16.999 0.287598 15.5147 0.287598 14.9209 0.287598 14.3766 0.132975 13.8819-0.17627 13.3623-0.504069 13.0005-0.940104 12.7964-1.48437 12.5985-2.01009 12.4995-3.03988 12.4995-4.57373L12.4995-10.3628 14.2251-10.3628 14.2251-4.36035C14.2251-3.57487 14.2406-3.08317 14.2715-2.88525 14.3519-2.29769 14.5622-1.87093 14.9024-1.60498 15.1559-1.40088 15.4312-1.29883 15.728-1.29883 16.4269-1.29883 17.1506-1.64827 17.8989-2.34717 18.5174-2.91618 19.0215-3.57487 19.4111-4.32324L19.4111-10.3628ZM24.6465 0 24.6465-10.3628 26.3721-10.3628 26.3721-8.09912C27.4421-9.79997 28.8337-10.6504 30.5469-10.6504 31.1716-10.6504 31.7962-10.5545 32.4209-10.3628L32.4209-6.62402 30.7603-6.62402 30.7603-8.98975C30.4696-9.03922 30.2407-9.06396 30.0738-9.06396 28.7811-9.06396 27.5472-8.04964 26.3721-6.021L26.3721 0ZM43.5474-0.686523C42.1682-0.0309245 40.8632 0.296875 39.6324 0.296875 37.7027 0.296875 36.2802-0.599935 35.3648-2.39355 34.9195-3.25325 34.6968-4.1748 34.6968-5.1582 34.6968-6.10449 34.9009-7.0013 35.3091-7.84863 35.7359-8.73926 36.3281-9.42887 37.0857-9.91748 37.8434-10.4061 38.6861-10.6504 39.6138-10.6504 41.0611-10.6504 42.1342-10.0907 42.833-8.97119 43.4082-8.04964 43.6958-6.81575 43.6958-5.26953L43.6958-4.89844 36.5523-4.89844C36.5523-4.23047 36.6853-3.60889 36.9512-3.03369 37.2419-2.39665 37.6532-1.91732 38.1851-1.5957 38.6737-1.29883 39.2303-1.15039 39.855-1.15039 40.9683-1.15039 42.1991-1.52148 43.5474-2.26367ZM36.6543-6.18799 41.8218-6.18799 41.8218-6.43775C41.8218-7.21463 41.6394-7.85279 41.2745-8.35222 40.8662-8.91949 40.288-9.20312 39.5396-9.20312 38.0305-9.20312 37.0687-8.19808 36.6543-6.18799ZM46.5562 0 46.5562-14.9736 48.2818-14.9736 48.2818-5.568 53.266-10.3628 55.5645-10.3628 50.5945-5.56873 55.6967 0 53.3194 0 48.2818-5.56641 48.2818 0ZM64.0748-2.32861C63.6357-1.61117 63.0821-1.01123 62.4141-0.528809 61.6596 0.0154622 60.9019 0.287598 60.1412 0.287598 59.0217 0.287598 58.1558-0.210286 57.5435-1.20605 57.0302-2.04102 56.7735-3.05225 56.7735-4.23975 56.7735-6.67041 57.6147-8.48877 59.2969-9.69482 60.0639-10.2391 61.0133-10.5112 62.1451-10.5112 62.4914-10.5112 62.9862-10.4772 63.6295-10.4092 63.7099-10.403 63.8583-10.3875 64.0748-10.3628L65.8096-10.3628 65.8096-3.04297C65.8096-1.79362 65.9395-0.779297 66.1993 0L64.3995 0C64.2634-0.56901 64.1552-1.34521 64.0748-2.32861ZM64.0748-4.37891 64.0748-8.82275C63.4625-8.98356 62.8935-9.06396 62.3677-9.06396 61.1679-9.06396 60.2278-8.58463 59.5474-7.62598 58.9475-6.77246 58.6475-5.72103 58.6475-4.47168 58.6475-3.72331 58.7774-3.06152 59.0372-2.48633 59.3773-1.73796 59.8814-1.36377 60.5494-1.36377 61.1988-1.36377 61.8915-1.72559 62.6275-2.44922 63.178-2.99349 63.6604-3.63672 64.0748-4.37891Z" fill="#FFFFFF" transform="matrix(1 0 0 0.999961 16.8167 29)"/><path d="M2.10596-5.11182 2.10596-6.5498 9.30517-6.5498 9.30517-5.11182Z" fill="#FFFFFF" transform="matrix(1 0 0 0.999961 83.7982 29)"/><path d="M1.55859-0.547363 1.55859-2.375C2.81413-1.56478 4.20264-1.15967 5.72412-1.15967 7.36312-1.15967 8.18262-1.65088 8.18262-2.63332 8.18262-3.01021 7.99707-3.32535 7.62598-3.57873 7.4528-3.69615 7.10335-3.86295 6.57764-4.07913L5.98389-4.3202 4.78711-4.79291C3.80371-5.18217 3.13265-5.51891 2.77393-5.80312 2.15544-6.29125 1.84619-6.93075 1.84619-7.72165 1.84619-8.79057 2.30387-9.57219 3.21924-10.0665 3.9305-10.4558 4.8706-10.6504 6.03955-10.6504 7.14665-10.6504 8.19499-10.4896 9.18457-10.168L9.18457-8.6001C8.04655-9.00211 6.97656-9.20312 5.97461-9.20312 5.41797-9.20312 4.92936-9.11663 4.50879-8.94365 3.93359-8.70263 3.646-8.34115 3.646-7.85921 3.646-7.44521 3.93359-7.08064 4.50879-6.7655 4.71289-6.65437 5.17985-6.46592 5.90967-6.20016L7.07861-5.77384C7.98779-5.44024 8.65267-5.09732 9.07324-4.74507 9.67936-4.23221 9.98242-3.58033 9.98242-2.78944 9.98242-1.67731 9.51237-0.858637 8.57226-0.333405 7.83008 0.0805969 6.85286 0.287598 5.64062 0.287598 4.31706 0.287598 2.95638 0.00927733 1.55859-0.547363ZM21.2202-0.686523C19.841-0.0309245 18.536 0.296875 17.3052 0.296875 15.3755 0.296875 13.953-0.599935 13.0376-2.39355 12.5923-3.25325 12.3696-4.1748 12.3696-5.1582 12.3696-6.10449 12.5737-7.0013 12.9819-7.84863 13.4087-8.73926 14.0009-9.42887 14.7586-9.91748 15.5162-10.4061 16.3589-10.6504 17.2866-10.6504 18.7339-10.6504 19.807-10.0907 20.5059-8.97119 21.0811-8.04964 21.3687-6.81575 21.3687-5.26953L21.3687-4.89844 14.2251-4.89844C14.2251-4.23047 14.3581-3.60889 14.624-3.03369 14.9147-2.39665 15.326-1.91732 15.8579-1.5957 16.3465-1.29883 16.9032-1.15039 17.5278-1.15039 18.6411-1.15039 19.8719-1.52148 21.2202-2.26367ZM14.3272-6.18799 19.4946-6.18799 19.4946-6.43775C19.4946-7.21463 19.3122-7.85279 18.9473-8.35222 18.5391-8.91949 17.9608-9.20312 17.2124-9.20312 15.7033-9.20312 14.7416-8.19808 14.3272-6.18799ZM24.6465 0 24.6465-10.3628 26.3721-10.3628 26.3721-8.09912C27.4421-9.79997 28.8337-10.6504 30.5469-10.6504 31.1716-10.6504 31.7962-10.5545 32.4209-10.3628L32.4209-6.62402 30.7603-6.62402 30.7603-8.98975C30.4696-9.03922 30.2407-9.06396 30.0738-9.06396 28.7811-9.06396 27.5472-8.04964 26.3721-6.021L26.3721 0ZM38.2964 0 33.7971-10.3628 35.6882-10.3628 39.241-2.15698 42.8639-10.3628 44.5957-10.3628 40.059 0ZM54.711-0.686523C53.3318-0.0309245 52.0267 0.296875 50.796 0.296875 48.8663 0.296875 47.4437-0.599935 46.5284-2.39355 46.0831-3.25325 45.8604-4.1748 45.8604-5.1582 45.8604-6.10449 46.0645-7.0013 46.4727-7.84863 46.8995-8.73926 47.4917-9.42887 48.2493-9.91748 49.007-10.4061 49.8497-10.6504 50.7774-10.6504 52.2247-10.6504 53.2977-10.0907 53.9966-8.97119 54.5718-8.04964 54.8594-6.81575 54.8594-5.26953L54.8594-4.89844 47.7159-4.89844C47.7159-4.23047 47.8489-3.60889 48.1148-3.03369 48.4055-2.39665 48.8168-1.91732 49.3487-1.5957 49.8373-1.29883 50.3939-1.15039 51.0186-1.15039 52.1319-1.15039 53.3627-1.52148 54.711-2.26367ZM47.8179-6.18799 52.9854-6.18799 52.9854-6.43775C52.9854-7.21463 52.803-7.85279 52.438-8.35222 52.0298-8.91949 51.4516-9.20312 50.7032-9.20312 49.1941-9.20312 48.2323-8.19808 47.8179-6.18799ZM58.1373 0 58.1373-10.3628 59.8629-10.3628 59.8629-8.09912C60.9328-9.79997 62.3245-10.6504 64.0377-10.6504 64.6623-10.6504 65.287-10.5545 65.9117-10.3628L65.9117-6.62402 64.251-6.62402 64.251-8.98975C63.9604-9.03922 63.7315-9.06396 63.5645-9.06396 62.2719-9.06396 61.038-8.04964 59.8629-6.021L59.8629 0Z" fill="#FFFFFF" transform="matrix(1 0 0 0.999961 94.9619 29)"/></g></g></g><path d="M442.5 143.495C442.5 137.42 447.425 132.495 453.5 132.495L616.5 132.495C622.575 132.495 627.5 137.42 627.5 143.495L627.5 187.492C627.5 193.567 622.575 198.492 616.5 198.492L453.5 198.492C447.425 198.492 442.5 193.567 442.5 187.492Z" stroke="#AD2B26" stroke-width="0.999724" stroke-linejoin="round" stroke-miterlimit="10" fill="url(#fill26)" fill-rule="evenodd"/><text fill="#FFFFFF" font-family="Monaco,Monaco_MSFontService,sans-serif" font-weight="400" font-size="19" transform="matrix(1 0 0 0.999961 461.817 172)">eureka<tspan font-size="19" x="66.9815" y="0">-</tspan><tspan font-size="19" x="78.1451" y="0">server</tspan></text><g clip-path="url(#clip27)"><g clip-path="url(#clip28)" filter="url(#fx4)" transform="translate(411 322)"><g clip-path="url(#clip29)"><path d="M6.5 55.8991 116 6.90109 225.5 55.8991 116 104.897Z" stroke="#BE4B48" stroke-linejoin="round" stroke-miterlimit="10" fill="#FF0000" fill-rule="evenodd"/></g></g><g clip-path="url(#clip30)" filter="url(#fx5)" transform="translate(467 343)"><g clip-path="url(#clip31)"><path d="M3.25635-6.11377 3.25635 0 1.38232 0 1.38232-14.3984 5.23242-14.3984C6.22819-14.3984 7.0013-14.3212 7.55176-14.1666 8.36816-13.9379 8.98047-13.499 9.38867-12.8498 9.71029-12.3305 9.87109-11.771 9.87109-11.1714 9.87109-9.99054 9.46675-8.93026 8.65808-7.99055 8.27529-7.54543 7.72585-7.12505 7.00976-6.72941L11.1738 0 8.94336 0 5.13052-6.11377ZM3.25635-7.56103 5.88184-7.56103C6.86523-8.09912 7.52083-8.78255 7.84863-9.61133 7.99707-9.98861 8.07129-10.3659 8.07129-10.7432 8.07129-12.2152 6.93327-12.9512 4.65723-12.9512L3.25635-12.9512ZM15.5147 0 15.5147-8.91553 12.6387-8.91553 12.6387-10.3628 17.2402-10.3628 17.2402-1.44727 20.1255-1.44727 20.1255 0ZM15.2271-14.1016C15.2271-14.4232 15.3384-14.6969 15.561-14.9226 15.7837-15.1484 16.0558-15.2612 16.3775-15.2612 16.6991-15.2612 16.9727-15.1484 17.1985-14.9226 17.4242-14.6969 17.5371-14.4232 17.5371-14.1016 17.5371-13.7861 17.4242-13.5155 17.1985-13.2898 16.9727-13.064 16.6991-12.9512 16.3775-12.9512 16.062-12.9512 15.7914-13.064 15.5657-13.2898 15.3399-13.5155 15.2271-13.7861 15.2271-14.1016ZM25.3609-8.03418C25.8062-8.75163 26.3597-9.35156 27.0215-9.83398 27.7761-10.3783 28.5337-10.6504 29.2945-10.6504 30.4201-10.6504 31.2891-10.1525 31.9014-9.15674 32.4147-8.32178 32.6714-7.31055 32.6714-6.12305 32.6714-5.02213 32.4673-4.00781 32.0591-3.08008 31.62-2.07194 30.9798-1.271 30.1387-0.677246 29.3718-0.12679 28.4224 0.148437 27.2906 0.148437 26.9504 0.148437 26.4556 0.114421 25.8062 0.0463867 25.7258 0.0402018 25.5773 0.0247396 25.3609 0L23.6353 0 23.6353-14.9736 25.3609-14.9736ZM25.3609-5.98389 25.3609-1.54004C25.9855-1.37923 26.5607-1.29883 27.0865-1.29883 28.2801-1.29883 29.2171-1.78125 29.8975-2.74609 30.4974-3.59961 30.7974-4.64795 30.7974-5.89111 30.7974-6.64567 30.6675-7.30745 30.4077-7.87646 30.0614-8.62484 29.5542-8.99902 28.8863-8.99902 28.2368-8.99902 27.5472-8.63721 26.8174-7.91357 26.267-7.3693 25.7814-6.72607 25.3609-5.98389ZM36.5245-8.03418C36.9698-8.75163 37.5233-9.35156 38.1851-9.83398 38.9397-10.3783 39.6973-10.6504 40.458-10.6504 41.5837-10.6504 42.4527-10.1525 43.065-9.15674 43.5783-8.32178 43.835-7.31055 43.835-6.12305 43.835-5.02213 43.6309-4.00781 43.2227-3.08008 42.7836-2.07194 42.1434-1.271 41.3023-0.677246 40.5354-0.12679 39.586 0.148437 38.4541 0.148437 38.114 0.148437 37.6192 0.114421 36.9698 0.0463867 36.8894 0.0402018 36.7409 0.0247396 36.5245 0L34.7989 0 34.7989-14.9736 36.5245-14.9736ZM36.5245-5.98389 36.5245-1.54004C37.1491-1.37923 37.7243-1.29883 38.25-1.29883 39.4437-1.29883 40.3807-1.78125 41.0611-2.74609 41.661-3.59961 41.961-4.64795 41.961-5.89111 41.961-6.64567 41.8311-7.30745 41.5713-7.87646 41.225-8.62484 40.7178-8.99902 40.0498-8.99902 39.4004-8.99902 38.7108-8.63721 37.981-7.91357 37.4305-7.3693 36.945-6.72607 36.5245-5.98389ZM50.3599 0.287598C48.8384 0.287598 47.6262-0.253581 46.7232-1.33594 45.8821-2.35026 45.4615-3.63363 45.4615-5.18603 45.4615-6.73844 45.8851-8.01872 46.7325-9.02685 47.6293-10.1092 48.8384-10.6504 50.3599-10.6504 51.8752-10.6504 53.0844-10.1092 53.9874-9.02685 54.8285-8.01253 55.2491-6.73226 55.2491-5.18603 55.2491-3.63981 54.8285-2.35645 53.9874-1.33594 53.0844-0.253581 51.8752 0.287598 50.3599 0.287598ZM50.3599-1.15967C51.399-1.15967 52.1845-1.5916 52.7164-2.45545 53.1555-3.17126 53.3751-4.08145 53.3751-5.18603 53.3751-6.28443 53.1524-7.19153 52.7071-7.90734 52.1752-8.7712 51.3928-9.20312 50.3599-9.20312 49.3209-9.20312 48.5354-8.77424 48.0035-7.91647 47.5582-7.20076 47.3355-6.29062 47.3355-5.18603 47.3355-4.08145 47.5582-3.17126 48.0035-2.45545 48.5354-1.5916 49.3209-1.15967 50.3599-1.15967ZM57.2559 0 57.2559-10.3628 58.9815-10.3628 58.9815-8.09912C59.433-8.82275 59.9773-9.41341 60.6143-9.87109 61.3503-10.3906 62.1018-10.6504 62.8687-10.6504 63.4687-10.6504 64.0207-10.4927 64.5247-10.1772 65.0288-9.86181 65.3829-9.4366 65.587-8.90161 65.7911-8.36662 65.8931-7.3291 65.8931-5.78906L65.8931 0 64.1675 0 64.1675-6.00244C64.1675-6.78792 64.1521-7.27962 64.1212-7.47754 64.0408-8.0651 63.8336-8.49186 63.4996-8.75781 63.2398-8.96191 62.9584-9.06396 62.6553-9.06396 61.9626-9.06396 61.239-8.71452 60.4844-8.01562 59.8721-7.44661 59.3712-6.78792 58.9815-6.03955L58.9815 0Z" fill="#FFFFFF" transform="matrix(1 0 0 0.999961 16.6092 30)"/><path d="M8.60937-14.8437C7.96614-14.0521 7.57031-13.5326 7.42187-13.2852L14.25-13.2852C13.0625-11.3555 12.2956-10.0937 11.9492-9.5L16.1797-9.5C16.1302-8.80729 16.1055-7.59505 16.1055-5.86328 16.1055-4.13151 16.1302-2.89453 16.1797-2.15234L14.6211-2.15234 14.6211-8.3125 5.41797-8.3125 5.41797-1.92969 3.85937-1.92969C3.90885-2.72135 3.93359-3.98307 3.93359-5.71484 3.93359-7.44661 3.90885-8.65885 3.85937-9.35156 3.16667-8.85677 2.6224-8.4362 2.22656-8.08984 1.78125-8.58463 1.33594-8.98047 0.890625-9.27734 1.53385-9.57422 2.28841-10.0566 3.1543-10.7246 4.02018-11.3926 4.82422-12.2337 5.56641-13.248 6.30859-14.2624 6.80338-15.0417 7.05078-15.5859 7.54557-15.2396 8.0651-14.9922 8.60937-14.8437ZM10.8359-6.38281C10.6875-5.88802 10.4896-5.08398 10.2422-3.9707 9.99479-2.85742 9.59896-1.94206 9.05469-1.22461 8.51042-0.507161 7.63216 0.123698 6.41992 0.667969 5.20768 1.21224 3.73568 1.65755 2.00391 2.00391 1.85547 1.50911 1.58333 1.01432 1.1875 0.519531 2.375 0.420573 3.53776 0.197917 4.67578-0.148437 5.8138-0.494792 6.70443-0.940104 7.34766-1.48437 7.99088-2.02865 8.4362-2.70898 8.68359-3.52539 8.93099-4.3418 9.05469-5.36849 9.05469-6.60547 9.69792-6.50651 10.2917-6.43229 10.8359-6.38281ZM6.60547-12.0977C5.76432-11.1576 4.89844-10.2917 4.00781-9.5L10.3164-9.5C10.9596-10.5391 11.4792-11.4049 11.875-12.0977ZM11.5039-2.22656C12.444-1.78125 13.4089-1.33594 14.3984-0.890625 15.388-0.445312 16.4518 0.0742188 17.5898 0.667969 17.293 1.0638 17.0208 1.53385 16.7734 2.07812 15.6849 1.48437 14.6582 0.940104 13.6934 0.445312 12.7285-0.0494792 11.776-0.494792 10.8359-0.890625 11.2318-1.48437 11.4544-1.92969 11.5039-2.22656Z" fill="#FFFFFF" transform="matrix(1 0 0 0.999961 83.5908 30)"/><path d="M8.53516 0.816406C9.07943 0.56901 9.72266 0.160807 10.4648-0.408203 11.207-0.977213 11.8997-1.70703 12.543-2.59766 12.1966-3.4388 11.8874-4.49023 11.6152-5.75195 11.3431-7.01367 11.1576-8.46094 11.0586-10.0937L3.26562-10.0937C2.42448-10.0937 1.58333-10.069 0.742187-10.0195L0.742187-11.2812C1.58333-11.2318 3.01823-11.207 5.04687-11.207L5.04687-12.543C3.46354-12.543 2.375-12.5182 1.78125-12.4687L1.78125-13.7305C2.375-13.681 3.46354-13.6562 5.04687-13.6562 5.04687-14.349 5.02213-14.9674 4.97266-15.5117L6.53125-15.5117C6.48177-15.2148 6.45703-14.5964 6.45703-13.6562L7.64453-13.6562C8.4362-13.6562 9.10417-13.681 9.64844-13.7305L9.64844-12.4687C9.05469-12.5182 8.38672-12.543 7.64453-12.543L6.45703-12.543 6.45703-11.207 10.9844-11.207C10.9349-12.7409 10.8607-14.2005 10.7617-15.5859 11.4049-15.487 11.9245-15.4375 12.3203-15.4375 12.2214-14.5964 12.1966-13.1862 12.2461-11.207L15.5117-11.207C16.4023-11.207 17.2682-11.2318 18.1094-11.2812L18.1094-10.0195C17.2187-10.069 16.3529-10.0937 15.5117-10.0937L12.3203-10.0937C12.4687-8.55989 12.6296-7.27344 12.8027-6.23437 12.9759-5.19531 13.1862-4.45312 13.4336-4.00781 13.681-4.55208 13.9655-5.24479 14.2871-6.08594 14.6087-6.92708 14.8437-7.86719 14.9922-8.90625 15.388-8.65885 15.9323-8.4362 16.625-8.23828 16.2292-7.44661 15.8704-6.60547 15.5488-5.71484 15.2272-4.82422 14.72-3.76042 14.0273-2.52344 15.2148-0.296875 15.9447 0.494792 16.2168-0.148437 16.4889-0.791667 16.6745-1.33594 16.7734-1.78125 17.2682-1.53385 17.7383-1.33594 18.1836-1.1875 17.4414 0.791666 16.7611 1.81836 16.1426 1.89258 15.5241 1.9668 14.5469 0.915364 13.2109-1.26172 12.1719-0.0247396 11.0091 0.989583 9.72266 1.78125 9.42578 1.4349 9.02995 1.11328 8.53516 0.816406ZM6.90234-0.964844C6.90234-0.173177 6.92708 0.742187 6.97656 1.78125L5.49219 1.78125C5.49219 0.742187 5.51693-0.0989583 5.56641-0.742187 3.53776-0.445312 2.17708-0.197917 1.48437 0L0.964844-1.55859C1.50911-1.55859 3.04297-1.68229 5.56641-1.92969L5.56641-3.71094 4.00781-3.71094C3.36458-3.71094 2.72135-3.63672 2.07812-3.48828L1.55859-4.89844C1.75651-5.09635 1.94206-5.26953 2.11523-5.41797 2.28841-5.56641 2.69661-6.08594 3.33984-6.97656 2.79557-6.97656 2.1276-6.95182 1.33594-6.90234L1.33594-8.23828C2.22656-8.1888 3.11719-8.16406 4.00781-8.16406 4.40365-8.85677 4.72526-9.47526 4.97266-10.0195 5.46745-9.82161 6.01172-9.6237 6.60547-9.42578 6.20963-8.98047 5.86328-8.55989 5.56641-8.16406L7.19922-8.16406C8.1888-8.21354 9.10417-8.23828 9.94531-8.23828L9.94531-6.90234C9.10417-6.95182 8.1888-6.97656 7.19922-6.97656L4.82422-6.97656C4.6263-6.67969 4.08203-5.96224 3.19141-4.82422L5.56641-4.82422C5.56641-5.22005 5.54167-5.73958 5.49219-6.38281L6.97656-6.38281C6.92708-5.73958 6.90234-5.22005 6.90234-4.82422 7.74349-4.82422 8.68359-4.84896 9.72266-4.89844L9.72266-3.63672C8.68359-3.6862 7.74349-3.71094 6.90234-3.71094L6.90234-2.15234C8.48568-2.35026 9.5-2.4987 9.94531-2.59766 9.84635-2.10286 9.77213-1.68229 9.72266-1.33594 9.3763-1.33594 8.4362-1.21224 6.90234-0.964844ZM14.8437-15.0664C15.8333-14.0273 16.4518-13.3099 16.6992-12.9141 16.2539-12.6667 15.8581-12.4193 15.5117-12.1719 15.2643-12.5182 14.6706-13.2357 13.7305-14.3242 14.0768-14.5716 14.4479-14.819 14.8437-15.0664ZM35.806-0.816406C35.806 0.371094 35.3978 1.08854 34.5814 1.33594 33.765 1.58333 32.8373 1.73177 31.7982 1.78125 31.6993 1.13802 31.5261 0.519531 31.2787-0.0742187 32.6641 0.0247396 33.53-0.0123698 33.8764-0.185547 34.2227-0.358724 34.3959-0.791667 34.3959-1.48437L34.6185-10.9844 29.2006-10.9844C28.9532-10.3411 28.6687-9.68555 28.3471-9.01758 28.0254-8.34961 27.6915-7.71875 27.3451-7.125 26.8503-7.42187 26.405-7.64453 26.0092-7.79297 27.3451-9.77213 28.3594-12.3203 29.0521-15.4375 29.6459-15.2396 30.2149-15.0664 30.7592-14.918 30.5613-14.6211 30.3633-14.25 30.1654-13.8047 29.9675-13.3594 29.7696-12.8398 29.5717-12.2461L36.1771-12.2461ZM22.3725-10.7617 22.3725-12.9883C22.3725-13.7799 22.3477-14.4974 22.2982-15.1406L23.9311-15.1406C23.8816-14.3984 23.8568-13.681 23.8568-12.9883L23.8568-10.7617 24.3021-10.7617C24.8959-10.7617 25.5144-10.7865 26.1576-10.8359L26.1576-9.35156C25.5144-9.40104 24.8959-9.42578 24.3021-9.42578L23.8568-9.42578 23.8568-3.26562 26.0834-4.08203C26.0339-3.58724 26.0587-3.11719 26.1576-2.67187 23.5847-1.83073 22.0385-1.29883 21.5189-1.07617 20.9994-0.853516 20.517-0.643229 20.0717-0.445312 19.8738-1.08854 19.6511-1.68229 19.4037-2.22656 20.0469-2.32552 20.5912-2.42448 21.0365-2.52344 21.4818-2.6224 21.9271-2.74609 22.3725-2.89453L22.3725-9.42578 22.0014-9.42578C21.4571-9.42578 20.7396-9.40104 19.849-9.35156L19.849-10.8359C20.7396-10.7865 21.4324-10.7617 21.9271-10.7617ZM33.3568-4.82422C32.8126-4.42838 32.0085-3.85937 30.9447-3.11719 29.8809-2.375 28.9284-1.63281 28.0873-0.890625 27.7409-1.4349 27.4193-1.90495 27.1225-2.30078 28.112-2.84505 29.015-3.38932 29.8314-3.93359 30.6478-4.47786 31.6498-5.22005 32.8373-6.16016 32.9363-5.71484 33.1094-5.26953 33.3568-4.82422ZM29.8685-9.35156C30.5613-8.65885 31.254-7.81771 31.9467-6.82812 31.5014-6.48177 31.1303-6.16016 30.8334-5.86328 30.4376-6.55599 29.7943-7.39713 28.9037-8.38672 29.2006-8.73307 29.5222-9.05469 29.8685-9.35156ZM47.0457-14.918C46.7983-14.7695 46.4272-14.3242 45.9324-13.582L49.3465-13.582C48.8517-12.7904 48.3816-11.9492 47.9363-11.0586L50.4598-11.0586C50.4103-10.4154 50.3855-9.47526 50.3855-8.23828 50.3855-7.05078 50.4103-6.08594 50.4598-5.34375L43.409-5.34375C43.4585-6.08594 43.4832-7.07552 43.4832-8.3125 43.4832-9.54948 43.4585-10.4648 43.409-11.0586L46.6004-11.0586 47.3426-12.543 45.0418-12.543C44.7449-12.1966 44.2749-11.7266 43.6316-11.1328 43.3348-11.4297 42.9637-11.7266 42.5184-12.0234 43.3595-12.6667 44.0151-13.2975 44.4851-13.916 44.9552-14.5345 45.3139-15.1159 45.5613-15.6602 46.0066-15.4128 46.5014-15.1654 47.0457-14.918ZM50.9051-9.57422C51.3009-9.52474 51.8947-9.5 52.6863-9.5L54.1707-9.5C54.616-9.5 55.0861-9.52474 55.5808-9.57422L55.5808-8.16406C55.185-8.21354 54.6902-8.23828 54.0965-8.23828L54.0965-0.0742187C54.0965 0.717448 53.9357 1.19987 53.6141 1.37305 53.2924 1.54622 52.6121 1.73177 51.573 1.92969 51.5236 1.38542 51.3256 0.841146 50.9793 0.296875 51.771 0.296875 52.2781 0.272135 52.5008 0.222656 52.7234 0.173177 52.8348-0.148438 52.8348-0.742187L52.8348-8.23828C51.9936-8.23828 51.3504-8.21354 50.9051-8.16406ZM43.0379-9.79687C42.642-9.5 42.1225-8.85677 41.4793-7.86719L41.4793-0.816406C41.4793-0.0742188 41.504 0.816406 41.5535 1.85547L40.1434 1.85547C40.1928 0.56901 40.2176-0.395833 40.2176-1.03906L40.2176-6.45703C39.7723-5.96224 39.2775-5.46745 38.7332-4.97266 38.4363-5.41797 38.1394-5.8138 37.8426-6.16016 38.5848-6.70443 39.3269-7.42187 40.0691-8.3125 40.8113-9.20312 41.3556-10.0195 41.7019-10.7617 42.0483-10.4154 42.4936-10.0937 43.0379-9.79687ZM43.1863 1.55859C42.84 1.01432 42.4689 0.544271 42.073 0.148437 43.2111-0.197917 44.0769-0.655599 44.6707-1.22461 45.2644-1.79362 45.6108-2.30078 45.7098-2.74609L44.8191-2.74609C44.2254-2.74609 43.5079-2.72135 42.6668-2.67187L42.6668-4.00781C43.409-3.95833 44.1264-3.93359 44.8191-3.93359L46.0066-3.93359C46.1056-4.32943 46.1551-4.72526 46.1551-5.12109 46.5509-5.02213 47.0704-4.92318 47.7137-4.82422 47.5157-4.52734 47.392-4.23047 47.3426-3.93359L48.9754-3.93359C49.6186-3.93359 50.2866-3.95833 50.9793-4.00781L50.9793-2.67187C50.3855-2.72135 49.7176-2.74609 48.9754-2.74609L47.1941-2.74609 47.1199-2.59766C46.2788-0.667969 44.9676 0.717448 43.1863 1.55859ZM43.1863-14.1758C42.9389-13.9779 42.3947-13.4089 41.5535-12.4687 40.7124-11.5286 39.9454-10.7617 39.2527-10.168 38.9064-10.6628 38.56-11.0091 38.2137-11.207 38.8569-11.6029 39.5372-12.209 40.2547-13.0254 40.9721-13.8418 41.504-14.5716 41.8504-15.2148 42.1967-14.8685 42.6421-14.5221 43.1863-14.1758ZM47.491-2.44922C48.3322-1.90495 49.3712-1.1875 50.6082-0.296875 50.2124 0.0989583 49.8907 0.544271 49.6434 1.03906 48.6043 0.0494792 47.6147-0.742187 46.6746-1.33594 46.9715-1.63281 47.2436-2.00391 47.491-2.44922ZM51.2762-13.6562C51.6225-13.6068 52.0926-13.582 52.6863-13.582L54.0223-13.582C54.3686-13.582 54.7397-13.6068 55.1355-13.6562L55.1355-12.3945C54.7397-12.444 54.3686-12.4687 54.0223-12.4687L52.8348-12.4687C52.1915-12.4687 51.672-12.444 51.2762-12.3945ZM49.1238-8.68359 49.1238-10.0195 47.491-10.0195 47.491-8.68359ZM46.3035-8.68359 46.3035-10.0195 44.7449-10.0195 44.7449-8.68359ZM49.1238-6.38281 49.1238-7.64453 47.491-7.64453 47.491-6.38281ZM46.3035-6.38281 46.3035-7.64453 44.7449-7.64453 44.7449-6.38281Z" fill="#FFFFFF" transform="matrix(1 0 0 0.999961 31.4385 53)"/></g></g></g><path d="M417.5 375.485 527 326.487 636.5 375.485 527 424.483Z" stroke="#BE4B48" stroke-width="0.999724" stroke-linejoin="round" stroke-miterlimit="10" fill="url(#fill32)" fill-rule="evenodd"/><text fill="#FFFFFF" font-family="Monaco,Monaco_MSFontService,sans-serif" font-weight="400" font-size="19" transform="matrix(1 0 0 0.999961 483.609 371)">Ribbon<tspan font-family="SimHei,SimHei_MSFontService,sans-serif" font-size="19" x="66.9815" y="0">负</tspan><tspan font-family="SimHei,SimHei_MSFontService,sans-serif" font-size="19" x="14.8293" y="23.0009">载均衡</tspan></text><g clip-path="url(#clip33)"><g clip-path="url(#clip34)" filter="url(#fx6)" transform="translate(940 277)"><g clip-path="url(#clip35)"><path d="M7 19.4026C7 12.7754 12.3727 7.40289 19.0002 7.40289L210 7.40289C216.627 7.40289 222 12.7754 222 19.4026L222 67.4003C222 74.0276 216.627 79.4001 210 79.4001L19.0002 79.4001C12.3727 79.4001 7 74.0276 7 67.4003Z" stroke="#AD2B26" stroke-width="2" stroke-linejoin="round" stroke-miterlimit="10" fill="#FFFFFF" fill-rule="evenodd"/></g></g><g clip-path="url(#clip36)" filter="url(#fx7)" transform="translate(971 286)"><g clip-path="url(#clip37)"><path d="M9.97314-10.3628 9.97314 0 8.24756 0 8.24756-2.27295C7.13428-0.565918 5.83545 0.287598 4.35107 0.287598 3.75732 0.287598 3.21305 0.132975 2.71826-0.17627 2.19873-0.504069 1.83691-0.940104 1.63281-1.48437 1.4349-2.01009 1.33594-3.03988 1.33594-4.57373L1.33594-10.3628 3.06152-10.3628 3.06152-4.36035C3.06152-3.57487 3.07699-3.08317 3.10791-2.88525 3.18831-2.29769 3.3986-1.87093 3.73877-1.60498 3.99235-1.40088 4.26758-1.29883 4.56445-1.29883 5.26335-1.29883 5.98698-1.64827 6.73535-2.34717 7.35384-2.91618 7.85791-3.57487 8.24756-4.32324L8.24756-10.3628ZM12.7222-0.547363 12.7222-2.375C13.9777-1.56478 15.3662-1.15967 16.8877-1.15967 18.5267-1.15967 19.3462-1.65088 19.3462-2.63332 19.3462-3.01021 19.1607-3.32535 18.7896-3.57873 18.6164-3.69615 18.2669-3.86295 17.7412-4.07913L17.1475-4.3202 15.9507-4.79291C14.9673-5.18217 14.2962-5.51891 13.9375-5.80312 13.319-6.29125 13.0098-6.93075 13.0098-7.72165 13.0098-8.79057 13.4675-9.57219 14.3828-10.0665 15.0941-10.4558 16.0342-10.6504 17.2031-10.6504 18.3102-10.6504 19.3586-10.4896 20.3482-10.168L20.3482-8.6001C19.2101-9.00211 18.1401-9.20312 17.1382-9.20312 16.5816-9.20312 16.0929-9.11663 15.6724-8.94365 15.0972-8.70263 14.8096-8.34115 14.8096-7.85921 14.8096-7.44521 15.0972-7.08064 15.6724-6.7655 15.8765-6.65437 16.3434-6.46592 17.0733-6.20016L18.2422-5.77384C19.1514-5.44024 19.8163-5.09732 20.2368-4.74507 20.8429-4.23221 21.146-3.58033 21.146-2.78944 21.146-1.67731 20.676-0.858637 19.7359-0.333405 18.9937 0.0805969 18.0165 0.287598 16.8042 0.287598 15.4806 0.287598 14.12 0.00927733 12.7222-0.547363ZM32.3838-0.686523C31.0046-0.0309245 29.6996 0.296875 28.4688 0.296875 26.5391 0.296875 25.1166-0.599935 24.2012-2.39355 23.7559-3.25325 23.5332-4.1748 23.5332-5.1582 23.5332-6.10449 23.7373-7.0013 24.1455-7.84863 24.5723-8.73926 25.1645-9.42887 25.9221-9.91748 26.6798-10.4061 27.5225-10.6504 28.4502-10.6504 29.8975-10.6504 30.9706-10.0907 31.6695-8.97119 32.2447-8.04964 32.5323-6.81575 32.5323-5.26953L32.5323-4.89844 25.3887-4.89844C25.3887-4.23047 25.5217-3.60889 25.7876-3.03369 26.0783-2.39665 26.4896-1.91732 27.0215-1.5957 27.5101-1.29883 28.0668-1.15039 28.6914-1.15039 29.8047-1.15039 31.0355-1.52148 32.3838-2.26367ZM25.4908-6.18799 30.6582-6.18799 30.6582-6.43775C30.6582-7.21463 30.4758-7.85279 30.1109-8.35222 29.7027-8.91949 29.1244-9.20312 28.376-9.20312 26.8669-9.20312 25.9051-8.19808 25.4908-6.18799ZM35.8101 0 35.8101-10.3628 37.5357-10.3628 37.5357-8.09912C38.6057-9.79997 39.9973-10.6504 41.7105-10.6504 42.3352-10.6504 42.9598-10.5545 43.5845-10.3628L43.5845-6.62402 41.9239-6.62402 41.9239-8.98975C41.6332-9.03922 41.4043-9.06396 41.2373-9.06396 39.9447-9.06396 38.7108-8.04964 37.5357-6.021L37.5357 0Z" fill="#49504F" transform="matrix(1 0 0 0.999961 16.8999 30)"/><path d="M2.10596-5.11182 2.10596-6.5498 9.30517-6.5498 9.30517-5.11182Z" fill="#49504F" transform="matrix(1 0 0 0.999961 61.5542 30)"/><path d="M1.55859-0.547363 1.55859-2.375C2.81413-1.56478 4.20264-1.15967 5.72412-1.15967 7.36312-1.15967 8.18262-1.65088 8.18262-2.63332 8.18262-3.01021 7.99707-3.32535 7.62598-3.57873 7.4528-3.69615 7.10335-3.86295 6.57764-4.07913L5.98389-4.3202 4.78711-4.79291C3.80371-5.18217 3.13265-5.51891 2.77393-5.80312 2.15544-6.29125 1.84619-6.93075 1.84619-7.72165 1.84619-8.79057 2.30387-9.57219 3.21924-10.0665 3.9305-10.4558 4.8706-10.6504 6.03955-10.6504 7.14665-10.6504 8.19499-10.4896 9.18457-10.168L9.18457-8.6001C8.04655-9.00211 6.97656-9.20312 5.97461-9.20312 5.41797-9.20312 4.92936-9.11663 4.50879-8.94365 3.93359-8.70263 3.646-8.34115 3.646-7.85921 3.646-7.44521 3.93359-7.08064 4.50879-6.7655 4.71289-6.65437 5.17985-6.46592 5.90967-6.20016L7.07861-5.77384C7.98779-5.44024 8.65267-5.09732 9.07324-4.74507 9.67936-4.23221 9.98242-3.58033 9.98242-2.78944 9.98242-1.67731 9.51237-0.858637 8.57226-0.333405 7.83008 0.0805969 6.85286 0.287598 5.64062 0.287598 4.31706 0.287598 2.95638 0.00927733 1.55859-0.547363ZM21.2202-0.686523C19.841-0.0309245 18.536 0.296875 17.3052 0.296875 15.3755 0.296875 13.953-0.599935 13.0376-2.39355 12.5923-3.25325 12.3696-4.1748 12.3696-5.1582 12.3696-6.10449 12.5737-7.0013 12.9819-7.84863 13.4087-8.73926 14.0009-9.42887 14.7586-9.91748 15.5162-10.4061 16.3589-10.6504 17.2866-10.6504 18.7339-10.6504 19.807-10.0907 20.5059-8.97119 21.0811-8.04964 21.3687-6.81575 21.3687-5.26953L21.3687-4.89844 14.2251-4.89844C14.2251-4.23047 14.3581-3.60889 14.624-3.03369 14.9147-2.39665 15.326-1.91732 15.8579-1.5957 16.3465-1.29883 16.9032-1.15039 17.5278-1.15039 18.6411-1.15039 19.8719-1.52148 21.2202-2.26367ZM14.3272-6.18799 19.4946-6.18799 19.4946-6.43775C19.4946-7.21463 19.3122-7.85279 18.9473-8.35222 18.5391-8.91949 17.9608-9.20312 17.2124-9.20312 15.7033-9.20312 14.7416-8.19808 14.3272-6.18799ZM24.6465 0 24.6465-10.3628 26.3721-10.3628 26.3721-8.09912C27.4421-9.79997 28.8337-10.6504 30.5469-10.6504 31.1716-10.6504 31.7962-10.5545 32.4209-10.3628L32.4209-6.62402 30.7603-6.62402 30.7603-8.98975C30.4696-9.03922 30.2407-9.06396 30.0738-9.06396 28.7811-9.06396 27.5472-8.04964 26.3721-6.021L26.3721 0ZM38.2964 0 33.7971-10.3628 35.6882-10.3628 39.241-2.15698 42.8639-10.3628 44.5957-10.3628 40.059 0ZM49.0054 0 49.0054-8.91553 46.1295-8.91553 46.1295-10.3628 50.731-10.3628 50.731-1.44727 53.6163-1.44727 53.6163 0ZM48.7178-14.1016C48.7178-14.4232 48.8292-14.6969 49.0518-14.9226 49.2745-15.1484 49.5466-15.2612 49.8682-15.2612 50.1898-15.2612 50.4635-15.1484 50.6893-14.9226 50.915-14.6969 51.0279-14.4232 51.0279-14.1016 51.0279-13.7861 50.915-13.5155 50.6893-13.2898 50.4635-13.064 50.1898-12.9512 49.8682-12.9512 49.5528-12.9512 49.2822-13.064 49.0565-13.2898 48.8307-13.5155 48.7178-13.7861 48.7178-14.1016ZM65.9766-0.296875C64.8201 0.0927734 63.7191 0.287598 62.6739 0.287598 61.6781 0.287598 60.7751 0.0618489 59.9649-0.389648 59.1361-0.8597 58.4867-1.52458 58.0167-2.38428 57.5652-3.20068 57.3394-4.13151 57.3394-5.17676 57.3394-6.69824 57.8311-7.9847 58.8145-9.03613 59.8165-10.1123 61.072-10.6504 62.5811-10.6504 63.6511-10.6504 64.7829-10.4494 65.9766-10.0474L65.9766-8.38672C64.7706-8.93099 63.6913-9.20312 62.7388-9.20312 61.2792-9.20312 60.2556-8.56067 59.668-7.27576 59.365-6.61475 59.2134-5.93518 59.2135-5.23706 59.2134-4.11276 59.5351-3.18614 60.1783-2.45719 60.8463-1.68495 61.7338-1.29883 62.8409-1.29883 63.6387-1.29883 64.684-1.51839 65.9766-1.95752ZM77.0382-0.686523C75.6589-0.0309245 74.3539 0.296875 73.1231 0.296875 71.1934 0.296875 69.7709-0.599935 68.8556-2.39355 68.4102-3.25325 68.1876-4.1748 68.1876-5.1582 68.1876-6.10449 68.3917-7.0013 68.7999-7.84863 69.2266-8.73926 69.8188-9.42887 70.5765-9.91748 71.3342-10.4061 72.1768-10.6504 73.1046-10.6504 74.5518-10.6504 75.6249-10.0907 76.3238-8.97119 76.899-8.04964 77.1866-6.81575 77.1866-5.26953L77.1866-4.89844 70.0431-4.89844C70.0431-4.23047 70.176-3.60889 70.442-3.03369 70.7327-2.39665 71.144-1.91732 71.6759-1.5957 72.1645-1.29883 72.7211-1.15039 73.3458-1.15039 74.4591-1.15039 75.6899-1.52148 77.0382-2.26367ZM70.1451-6.18799 75.3126-6.18799 75.3126-6.43775C75.3126-7.21463 75.1301-7.85279 74.7652-8.35222 74.357-8.91949 73.7787-9.20312 73.0304-9.20312 71.5212-9.20312 70.5595-8.19808 70.1451-6.18799Z" fill="#49504F" transform="matrix(1 0 0 0.999961 72.7179 30)"/><path d="M4.2583-7.76514 3.94287-7.99707C2.6626-8.93717 2.02246-10.0566 2.02246-11.3555 2.02246-12.4007 2.43685-13.2542 3.26562-13.916 4.03874-14.5221 4.96029-14.8252 6.03027-14.8252 7.56413-14.8252 8.64339-14.318 9.26807-13.3037 9.57731-12.8027 9.73193-12.2554 9.73193-11.6616 9.73193-10.87 9.45052-10.0999 8.88769-9.35156 8.60319-8.97428 8.04346-8.44547 7.2085-7.76514L7.98779-7.14355C8.87842-6.43229 9.49072-5.79215 9.82471-5.22314 10.1401-4.68506 10.2979-4.08203 10.2979-3.41406 10.2979-2.1709 9.84326-1.20296 8.93408-0.510254 8.1053 0.120605 7.05078 0.436035 5.77051 0.436035 4.47168 0.436035 3.41715 0.145345 2.60693-0.436035 1.69157-1.09782 1.23389-2.05029 1.23389-3.29346 1.23389-4.8706 2.24202-6.36116 4.2583-7.76514ZM6.03027-8.64648C7.34147-9.64032 7.99707-10.6064 7.99707-11.5446 7.99707-12.0878 7.76204-12.5354 7.29199-12.8872 6.85905-13.2144 6.36426-13.3779 5.80762-13.3779 5.23242-13.3779 4.74072-13.2051 4.33252-12.8594 3.89958-12.4952 3.6831-12.0322 3.6831-11.4706 3.6831-10.7175 4.32015-9.88105 5.59424-8.96133ZM5.55713-6.84668C3.92432-5.59115 3.10791-4.41602 3.10791-3.32129 3.10791-2.63477 3.39551-2.06885 3.9707-1.62354 4.5026-1.21533 5.12109-1.01123 5.82617-1.01123 6.49414-1.01123 7.0848-1.21224 7.59814-1.61426 8.15478-2.05339 8.4331-2.59766 8.4331-3.24707 8.4331-4.14388 7.65999-5.1984 6.11377-6.41064ZM16.8599-14.8252C18.6968-14.8252 20.0451-13.9624 20.9048-12.2368 21.5666-10.9194 21.8975-9.24023 21.8975-7.19922 21.8975-5.15202 21.5697-3.46973 20.9141-2.15234 20.0482-0.426758 18.6968 0.436035 16.8599 0.436035 15.023 0.436035 13.6747-0.42985 12.815-2.16162 12.1532-3.479 11.8223-5.1582 11.8223-7.19922 11.8223-9.23405 12.1532-10.9132 12.815-12.2368 13.6808-13.9624 15.0291-14.8252 16.8599-14.8252ZM14.0515-4.11755 19.0332-11.9198C18.4949-12.8919 17.7709-13.3779 16.8613-13.3779 15.6671-13.3779 14.7977-12.6116 14.2532-11.079 13.8819-10.0223 13.6963-8.76163 13.6963-7.29706 13.6963-6.17847 13.8147-5.11863 14.0515-4.11755ZM19.6524-10.2051 14.7072-2.35659C15.2391-1.45968 15.9319-1.01123 16.7855-1.01123 18.0225-1.01123 18.9163-1.81135 19.4668-3.4116 19.8441-4.49908 20.0327-5.81206 20.0327-7.35055 20.0327-8.33917 19.9059-9.29068 19.6524-10.2051ZM26.5855-7.76514 26.27-7.99707C24.9898-8.93717 24.3496-10.0566 24.3496-11.3555 24.3496-12.4007 24.764-13.2542 25.5928-13.916 26.3659-14.5221 27.2875-14.8252 28.3575-14.8252 29.8913-14.8252 30.9706-14.318 31.5952-13.3037 31.9045-12.8027 32.0591-12.2554 32.0591-11.6616 32.0591-10.87 31.7777-10.0999 31.2149-9.35156 30.9304-8.97428 30.3706-8.44547 29.5357-7.76514L30.315-7.14355C31.2056-6.43229 31.8179-5.79215 32.1519-5.22314 32.4673-4.68506 32.625-4.08203 32.625-3.41406 32.625-2.1709 32.1704-1.20296 31.2613-0.510254 30.4325 0.120605 29.378 0.436035 28.0977 0.436035 26.7989 0.436035 25.7443 0.145345 24.9341-0.436035 24.0187-1.09782 23.5611-2.05029 23.5611-3.29346 23.5611-4.8706 24.5692-6.36116 26.5855-7.76514ZM28.3575-8.64648C29.6686-9.64032 30.3242-10.6064 30.3242-11.5446 30.3242-12.0878 30.0892-12.5354 29.6192-12.8872 29.1862-13.2144 28.6914-13.3779 28.1348-13.3779 27.5596-13.3779 27.0679-13.2051 26.6597-12.8594 26.2268-12.4952 26.0103-12.0322 26.0103-11.4706 26.0103-10.7175 26.6473-9.88105 27.9214-8.96133ZM27.8843-6.84668C26.2515-5.59115 25.4351-4.41602 25.4351-3.32129 25.4351-2.63477 25.7227-2.06885 26.2979-1.62354 26.8298-1.21533 27.4483-1.01123 28.1533-1.01123 28.8213-1.01123 29.412-1.21224 29.9253-1.61426 30.482-2.05339 30.7603-2.59766 30.7603-3.24707 30.7603-4.14388 29.9872-5.1984 28.4409-6.41064ZM38.7603-1.44727 38.7603-12.5522C37.7089-11.7173 36.5337-11.0679 35.2349-10.604L35.2349-12.1626C36.5894-12.7378 37.7645-13.4831 38.7603-14.3984L40.4859-14.3984 40.4859-1.44727 43.9463-1.44727 43.9463 0 35.2349 0 35.2349-1.44727Z" fill="#49504F" transform="matrix(1 0 0 0.999961 61.5542 52)"/></g></g></g><path d="M947 293.989C947 287.361 952.373 281.989 959 281.989L1150 281.989C1156.63 281.989 1162 287.361 1162 293.989L1162 341.986C1162 348.614 1156.63 353.986 1150 353.986L959 353.986C952.373 353.986 947 348.614 947 341.986Z" stroke="#AD2B26" stroke-width="1.99945" stroke-linejoin="round" stroke-miterlimit="10" fill="#FFFFFF" fill-rule="evenodd"/><text fill="#49504F" font-family="Monaco,Monaco_MSFontService,sans-serif" font-weight="400" font-size="19" transform="matrix(1 0 0 0.999961 987.9 313)">user<tspan font-size="19" x="44.6543" y="0">-</tspan><tspan font-size="19" x="55.818" y="0">service</tspan><tspan font-size="19" x="44.6543" y="22.0009">8081</tspan></text><g clip-path="url(#clip38)"><g clip-path="url(#clip39)" filter="url(#fx8)" transform="translate(940 394)"><g clip-path="url(#clip40)"><path d="M7 19.398C7 12.7707 12.3727 7.39825 19.0002 7.39825L210 7.39825C216.627 7.39825 222 12.7707 222 19.398L222 67.3957C222 74.023 216.627 79.3954 210 79.3954L19.0002 79.3954C12.3727 79.3954 7 74.023 7 67.3957Z" stroke="#AD2B26" stroke-width="2" stroke-linejoin="round" stroke-miterlimit="10" fill="#FFFFFF" fill-rule="evenodd"/></g></g><g clip-path="url(#clip41)" filter="url(#fx9)" transform="translate(971 404)"><g clip-path="url(#clip42)"><path d="M9.97314-10.3628 9.97314 0 8.24756 0 8.24756-2.27295C7.13428-0.565918 5.83545 0.287598 4.35107 0.287598 3.75732 0.287598 3.21305 0.132975 2.71826-0.17627 2.19873-0.504069 1.83691-0.940104 1.63281-1.48437 1.4349-2.01009 1.33594-3.03988 1.33594-4.57373L1.33594-10.3628 3.06152-10.3628 3.06152-4.36035C3.06152-3.57487 3.07699-3.08317 3.10791-2.88525 3.18831-2.29769 3.3986-1.87093 3.73877-1.60498 3.99235-1.40088 4.26758-1.29883 4.56445-1.29883 5.26335-1.29883 5.98698-1.64827 6.73535-2.34717 7.35384-2.91618 7.85791-3.57487 8.24756-4.32324L8.24756-10.3628ZM12.7222-0.547363 12.7222-2.375C13.9777-1.56478 15.3662-1.15967 16.8877-1.15967 18.5267-1.15967 19.3462-1.65088 19.3462-2.63332 19.3462-3.01021 19.1607-3.32535 18.7896-3.57873 18.6164-3.69615 18.2669-3.86295 17.7412-4.07913L17.1475-4.3202 15.9507-4.79291C14.9673-5.18217 14.2962-5.51891 13.9375-5.80312 13.319-6.29125 13.0098-6.93075 13.0098-7.72165 13.0098-8.79057 13.4675-9.57219 14.3828-10.0665 15.0941-10.4558 16.0342-10.6504 17.2031-10.6504 18.3102-10.6504 19.3586-10.4896 20.3482-10.168L20.3482-8.6001C19.2101-9.00211 18.1401-9.20312 17.1382-9.20312 16.5816-9.20312 16.0929-9.11663 15.6724-8.94365 15.0972-8.70263 14.8096-8.34115 14.8096-7.85921 14.8096-7.44521 15.0972-7.08064 15.6724-6.7655 15.8765-6.65437 16.3434-6.46592 17.0733-6.20016L18.2422-5.77384C19.1514-5.44024 19.8163-5.09732 20.2368-4.74507 20.8429-4.23221 21.146-3.58033 21.146-2.78944 21.146-1.67731 20.676-0.858637 19.7359-0.333405 18.9937 0.0805969 18.0165 0.287598 16.8042 0.287598 15.4806 0.287598 14.12 0.00927733 12.7222-0.547363ZM32.3838-0.686523C31.0046-0.0309245 29.6996 0.296875 28.4688 0.296875 26.5391 0.296875 25.1166-0.599935 24.2012-2.39355 23.7559-3.25325 23.5332-4.1748 23.5332-5.1582 23.5332-6.10449 23.7373-7.0013 24.1455-7.84863 24.5723-8.73926 25.1645-9.42887 25.9221-9.91748 26.6798-10.4061 27.5225-10.6504 28.4502-10.6504 29.8975-10.6504 30.9706-10.0907 31.6695-8.97119 32.2447-8.04964 32.5323-6.81575 32.5323-5.26953L32.5323-4.89844 25.3887-4.89844C25.3887-4.23047 25.5217-3.60889 25.7876-3.03369 26.0783-2.39665 26.4896-1.91732 27.0215-1.5957 27.5101-1.29883 28.0668-1.15039 28.6914-1.15039 29.8047-1.15039 31.0355-1.52148 32.3838-2.26367ZM25.4908-6.18799 30.6582-6.18799 30.6582-6.43775C30.6582-7.21463 30.4758-7.85279 30.1109-8.35222 29.7027-8.91949 29.1244-9.20312 28.376-9.20312 26.8669-9.20312 25.9051-8.19808 25.4908-6.18799ZM35.8101 0 35.8101-10.3628 37.5357-10.3628 37.5357-8.09912C38.6057-9.79997 39.9973-10.6504 41.7105-10.6504 42.3352-10.6504 42.9598-10.5545 43.5845-10.3628L43.5845-6.62402 41.9239-6.62402 41.9239-8.98975C41.6332-9.03922 41.4043-9.06396 41.2373-9.06396 39.9447-9.06396 38.7108-8.04964 37.5357-6.021L37.5357 0Z" fill="#49504F" transform="matrix(1 0 0 0.999961 16.9 29)"/><path d="M2.10596-5.11182 2.10596-6.5498 9.30517-6.5498 9.30517-5.11182Z" fill="#49504F" transform="matrix(1 0 0 0.999961 61.5543 29)"/><path d="M1.55859-0.547363 1.55859-2.375C2.81413-1.56478 4.20264-1.15967 5.72412-1.15967 7.36312-1.15967 8.18262-1.65088 8.18262-2.63332 8.18262-3.01021 7.99707-3.32535 7.62598-3.57873 7.4528-3.69615 7.10335-3.86295 6.57764-4.07913L5.98389-4.3202 4.78711-4.79291C3.80371-5.18217 3.13265-5.51891 2.77393-5.80312 2.15544-6.29125 1.84619-6.93075 1.84619-7.72165 1.84619-8.79057 2.30387-9.57219 3.21924-10.0665 3.9305-10.4558 4.8706-10.6504 6.03955-10.6504 7.14665-10.6504 8.19499-10.4896 9.18457-10.168L9.18457-8.6001C8.04655-9.00211 6.97656-9.20312 5.97461-9.20312 5.41797-9.20312 4.92936-9.11663 4.50879-8.94365 3.93359-8.70263 3.646-8.34115 3.646-7.85921 3.646-7.44521 3.93359-7.08064 4.50879-6.7655 4.71289-6.65437 5.17985-6.46592 5.90967-6.20016L7.07861-5.77384C7.98779-5.44024 8.65267-5.09732 9.07324-4.74507 9.67936-4.23221 9.98242-3.58033 9.98242-2.78944 9.98242-1.67731 9.51237-0.858637 8.57226-0.333405 7.83008 0.0805969 6.85286 0.287598 5.64062 0.287598 4.31706 0.287598 2.95638 0.00927733 1.55859-0.547363ZM21.2202-0.686523C19.841-0.0309245 18.536 0.296875 17.3052 0.296875 15.3755 0.296875 13.953-0.599935 13.0376-2.39355 12.5923-3.25325 12.3696-4.1748 12.3696-5.1582 12.3696-6.10449 12.5737-7.0013 12.9819-7.84863 13.4087-8.73926 14.0009-9.42887 14.7586-9.91748 15.5162-10.4061 16.3589-10.6504 17.2866-10.6504 18.7339-10.6504 19.807-10.0907 20.5059-8.97119 21.0811-8.04964 21.3687-6.81575 21.3687-5.26953L21.3687-4.89844 14.2251-4.89844C14.2251-4.23047 14.3581-3.60889 14.624-3.03369 14.9147-2.39665 15.326-1.91732 15.8579-1.5957 16.3465-1.29883 16.9032-1.15039 17.5278-1.15039 18.6411-1.15039 19.8719-1.52148 21.2202-2.26367ZM14.3272-6.18799 19.4946-6.18799 19.4946-6.43775C19.4946-7.21463 19.3122-7.85279 18.9473-8.35222 18.5391-8.91949 17.9608-9.20312 17.2124-9.20312 15.7033-9.20312 14.7416-8.19808 14.3272-6.18799ZM24.6465 0 24.6465-10.3628 26.3721-10.3628 26.3721-8.09912C27.4421-9.79997 28.8337-10.6504 30.5469-10.6504 31.1716-10.6504 31.7962-10.5545 32.4209-10.3628L32.4209-6.62402 30.7603-6.62402 30.7603-8.98975C30.4696-9.03922 30.2407-9.06396 30.0738-9.06396 28.7811-9.06396 27.5472-8.04964 26.3721-6.021L26.3721 0ZM38.2964 0 33.7971-10.3628 35.6882-10.3628 39.241-2.15698 42.8639-10.3628 44.5957-10.3628 40.059 0ZM49.0054 0 49.0054-8.91553 46.1295-8.91553 46.1295-10.3628 50.731-10.3628 50.731-1.44727 53.6163-1.44727 53.6163 0ZM48.7178-14.1016C48.7178-14.4232 48.8292-14.6969 49.0518-14.9226 49.2745-15.1484 49.5466-15.2612 49.8682-15.2612 50.1898-15.2612 50.4635-15.1484 50.6893-14.9226 50.915-14.6969 51.0279-14.4232 51.0279-14.1016 51.0279-13.7861 50.915-13.5155 50.6893-13.2898 50.4635-13.064 50.1898-12.9512 49.8682-12.9512 49.5528-12.9512 49.2822-13.064 49.0565-13.2898 48.8307-13.5155 48.7178-13.7861 48.7178-14.1016ZM65.9766-0.296875C64.8201 0.0927734 63.7191 0.287598 62.6739 0.287598 61.6781 0.287598 60.7751 0.0618489 59.9649-0.389648 59.1361-0.8597 58.4867-1.52458 58.0167-2.38428 57.5652-3.20068 57.3394-4.13151 57.3394-5.17676 57.3394-6.69824 57.8311-7.9847 58.8145-9.03613 59.8165-10.1123 61.072-10.6504 62.5811-10.6504 63.6511-10.6504 64.7829-10.4494 65.9766-10.0474L65.9766-8.38672C64.7706-8.93099 63.6913-9.20312 62.7388-9.20312 61.2792-9.20312 60.2556-8.56067 59.668-7.27576 59.365-6.61475 59.2134-5.93518 59.2135-5.23706 59.2134-4.11276 59.5351-3.18614 60.1783-2.45719 60.8463-1.68495 61.7338-1.29883 62.8409-1.29883 63.6387-1.29883 64.684-1.51839 65.9766-1.95752ZM77.0382-0.686523C75.6589-0.0309245 74.3539 0.296875 73.1231 0.296875 71.1934 0.296875 69.7709-0.599935 68.8556-2.39355 68.4102-3.25325 68.1876-4.1748 68.1876-5.1582 68.1876-6.10449 68.3917-7.0013 68.7999-7.84863 69.2266-8.73926 69.8188-9.42887 70.5765-9.91748 71.3342-10.4061 72.1768-10.6504 73.1046-10.6504 74.5518-10.6504 75.6249-10.0907 76.3238-8.97119 76.899-8.04964 77.1866-6.81575 77.1866-5.26953L77.1866-4.89844 70.0431-4.89844C70.0431-4.23047 70.176-3.60889 70.442-3.03369 70.7327-2.39665 71.144-1.91732 71.6759-1.5957 72.1645-1.29883 72.7211-1.15039 73.3458-1.15039 74.4591-1.15039 75.6899-1.52148 77.0382-2.26367ZM70.1451-6.18799 75.3126-6.18799 75.3126-6.43775C75.3126-7.21463 75.1301-7.85279 74.7652-8.35222 74.357-8.91949 73.7787-9.20312 73.0304-9.20312 71.5212-9.20312 70.5595-8.19808 70.1451-6.18799Z" fill="#49504F" transform="matrix(1 0 0 0.999961 72.7179 29)"/><path d="M4.2583-7.76514 3.94287-7.99707C2.6626-8.93717 2.02246-10.0566 2.02246-11.3555 2.02246-12.4007 2.43685-13.2542 3.26562-13.916 4.03874-14.5221 4.96029-14.8252 6.03027-14.8252 7.56413-14.8252 8.64339-14.318 9.26807-13.3037 9.57731-12.8027 9.73193-12.2554 9.73193-11.6616 9.73193-10.87 9.45052-10.0999 8.88769-9.35156 8.60319-8.97428 8.04346-8.44547 7.2085-7.76514L7.98779-7.14355C8.87842-6.43229 9.49072-5.79215 9.82471-5.22314 10.1401-4.68506 10.2979-4.08203 10.2979-3.41406 10.2979-2.1709 9.84326-1.20296 8.93408-0.510254 8.1053 0.120605 7.05078 0.436035 5.77051 0.436035 4.47168 0.436035 3.41715 0.145345 2.60693-0.436035 1.69157-1.09782 1.23389-2.05029 1.23389-3.29346 1.23389-4.8706 2.24202-6.36116 4.2583-7.76514ZM6.03027-8.64648C7.34147-9.64032 7.99707-10.6064 7.99707-11.5446 7.99707-12.0878 7.76204-12.5354 7.29199-12.8872 6.85905-13.2144 6.36426-13.3779 5.80762-13.3779 5.23242-13.3779 4.74072-13.2051 4.33252-12.8594 3.89958-12.4952 3.6831-12.0322 3.6831-11.4706 3.6831-10.7175 4.32015-9.88105 5.59424-8.96133ZM5.55713-6.84668C3.92432-5.59115 3.10791-4.41602 3.10791-3.32129 3.10791-2.63477 3.39551-2.06885 3.9707-1.62354 4.5026-1.21533 5.12109-1.01123 5.82617-1.01123 6.49414-1.01123 7.0848-1.21224 7.59814-1.61426 8.15478-2.05339 8.4331-2.59766 8.4331-3.24707 8.4331-4.14388 7.65999-5.1984 6.11377-6.41064ZM16.8599-14.8252C18.6968-14.8252 20.0451-13.9624 20.9048-12.2368 21.5666-10.9194 21.8975-9.24023 21.8975-7.19922 21.8975-5.15202 21.5697-3.46973 20.9141-2.15234 20.0482-0.426758 18.6968 0.436035 16.8599 0.436035 15.023 0.436035 13.6747-0.42985 12.815-2.16162 12.1532-3.479 11.8223-5.1582 11.8223-7.19922 11.8223-9.23405 12.1532-10.9132 12.815-12.2368 13.6808-13.9624 15.0291-14.8252 16.8599-14.8252ZM14.0515-4.11755 19.0332-11.9198C18.4949-12.8919 17.7709-13.3779 16.8613-13.3779 15.6671-13.3779 14.7977-12.6116 14.2532-11.079 13.8819-10.0223 13.6963-8.76163 13.6963-7.29706 13.6963-6.17847 13.8147-5.11863 14.0515-4.11755ZM19.6524-10.2051 14.7072-2.35659C15.2391-1.45968 15.9319-1.01123 16.7855-1.01123 18.0225-1.01123 18.9163-1.81135 19.4668-3.4116 19.8441-4.49908 20.0327-5.81206 20.0327-7.35055 20.0327-8.33917 19.9059-9.29068 19.6524-10.2051ZM26.5855-7.76514 26.27-7.99707C24.9898-8.93717 24.3496-10.0566 24.3496-11.3555 24.3496-12.4007 24.764-13.2542 25.5928-13.916 26.3659-14.5221 27.2875-14.8252 28.3575-14.8252 29.8913-14.8252 30.9706-14.318 31.5952-13.3037 31.9045-12.8027 32.0591-12.2554 32.0591-11.6616 32.0591-10.87 31.7777-10.0999 31.2149-9.35156 30.9304-8.97428 30.3706-8.44547 29.5357-7.76514L30.315-7.14355C31.2056-6.43229 31.8179-5.79215 32.1519-5.22314 32.4673-4.68506 32.625-4.08203 32.625-3.41406 32.625-2.1709 32.1704-1.20296 31.2613-0.510254 30.4325 0.120605 29.378 0.436035 28.0977 0.436035 26.7989 0.436035 25.7443 0.145345 24.9341-0.436035 24.0187-1.09782 23.5611-2.05029 23.5611-3.29346 23.5611-4.8706 24.5692-6.36116 26.5855-7.76514ZM28.3575-8.64648C29.6686-9.64032 30.3242-10.6064 30.3242-11.5446 30.3242-12.0878 30.0892-12.5354 29.6192-12.8872 29.1862-13.2144 28.6914-13.3779 28.1348-13.3779 27.5596-13.3779 27.0679-13.2051 26.6597-12.8594 26.2268-12.4952 26.0103-12.0322 26.0103-11.4706 26.0103-10.7175 26.6473-9.88105 27.9214-8.96133ZM27.8843-6.84668C26.2515-5.59115 25.4351-4.41602 25.4351-3.32129 25.4351-2.63477 25.7227-2.06885 26.2979-1.62354 26.8298-1.21533 27.4483-1.01123 28.1533-1.01123 28.8213-1.01123 29.412-1.21224 29.9253-1.61426 30.482-2.05339 30.7603-2.59766 30.7603-3.24707 30.7603-4.14388 29.9872-5.1984 28.4409-6.41064ZM43.5845 0 34.8731 0 34.8731-1.58643C34.8731-2.51339 35.2757-3.47436 36.0809-4.46936 36.564-5.06253 37.0625-5.62178 37.5766-6.14711L38.5566-7.1524C39.9419-8.56052 40.8169-9.60118 41.1817-10.2744 41.392-10.6697 41.4971-11.0588 41.4971-11.4417 41.4971-12.0532 41.2404-12.538 40.7271-12.8962 40.2694-13.2174 39.722-13.3779 39.085-13.3779 38.349-13.3779 37.5728-13.2461 36.7564-12.9825 36.4286-12.8721 35.8967-12.6514 35.1607-12.3203L35.1607-13.8511C36.5275-14.5005 37.9532-14.8252 39.4375-14.8252 41.1508-14.8252 42.3073-14.3242 42.9073-13.3223 43.2103-12.8089 43.3619-12.2616 43.3619-11.6802 43.3619-10.87 43.0433-10.0195 42.4063-9.12891 42.0414-8.61556 41.4229-7.92594 40.5508-7.06006L38.6026-5.13965C38.0707-4.62012 37.6161-4.06966 37.2388-3.48828 36.8925-2.95638 36.7007-2.32243 36.6636-1.58643L43.5845-1.58643Z" fill="#49504F" transform="matrix(1 0 0 0.999961 61.5543 51)"/></g></g></g><path d="M947 410.984C947 404.357 952.373 398.984 959 398.984L1150 398.984C1156.63 398.984 1162 404.357 1162 410.984L1162 458.982C1162 465.609 1156.63 470.981 1150 470.981L959 470.981C952.373 470.981 947 465.609 947 458.982Z" stroke="#AD2B26" stroke-width="1.99945" stroke-linejoin="round" stroke-miterlimit="10" fill="#FFFFFF" fill-rule="evenodd"/><text fill="#49504F" font-family="Monaco,Monaco_MSFontService,sans-serif" font-weight="400" font-size="19" transform="matrix(1 0 0 0.999961 987.9 431)">user<tspan font-size="19" x="44.6544" y="0">-</tspan><tspan font-size="19" x="55.8179" y="0">service</tspan><tspan font-size="19" x="44.6544" y="22.0009">8082</tspan></text><g clip-path="url(#clip43)" filter="url(#fx10)" transform="translate(387 148)"><g clip-path="url(#clip44)"><path d="M0-1.49994 63.9224-1.49994C64.7508-1.49994 65.4223-0.828394 65.4223 0L65.4223 133.324 63.9224 131.824 160.9 131.824 159.4 133.324 159.4 93.9231 162.4 93.9231 162.4 133.324C162.4 134.152 161.728 134.824 160.9 134.824L63.9224 134.824C63.094 134.824 62.4225 134.152 62.4225 133.324L62.4225 0 63.9224 1.49994 0 1.49994ZM0 4.49982C-2.48518 4.49982-4.49982 2.48518-4.49982 0-4.49982-2.48518-2.48518-4.49982 0-4.49982 2.48518-4.49982 4.49982-2.48518 4.49982 0 4.49982 2.48518 2.48518 4.49982 0 4.49982ZM160.9 93.9231 153.4 99.9229 160.9 84.9235 168.4 99.9229Z" fill="#49504F" transform="matrix(-1.83704e-16 -1 -1.00004 1.83697e-16 140.427 180.493)"/></g></g><path d="M0-1.33291 63.9224-1.33291C64.6586-1.33291 65.2553-0.736148 65.2553 0L65.2553 133.324 63.9224 131.991 160.9 131.991 159.567 133.324 159.567 92.921 162.233 92.921 162.233 133.324C162.233 134.06 161.636 134.657 160.9 134.657L63.9224 134.657C63.1863 134.657 62.5895 134.06 62.5895 133.324L62.5895 0 63.9224 1.33291 0 1.33291ZM0 3.99874C-2.20844 3.99874-3.99874 2.20844-3.99874 0-3.99874-2.20844-2.20844-3.99874 0-3.99874 2.20844-3.99874 3.99874-2.20844 3.99874 0 3.99874 2.20844 2.20844 3.99874 0 3.99874ZM160.9 92.921 154.236 98.2526 160.9 84.9235 167.565 98.2526Z" fill="#49504F" transform="matrix(-1.83704e-16 -1 -1.00004 1.83697e-16 527.427 326.393)"/><g clip-path="url(#clip45)" filter="url(#fx11)" transform="translate(506 158)"><g clip-path="url(#clip46)"><path d="M0 1.49994-23.9925 1.49994-22.4926 0-22.4926 96.9777-23.9925 95.4777 100.821 95.4777C101.65 95.4777 102.321 96.1493 102.321 96.9777L102.321 157.81 99.3214 157.81 99.3214 96.9777 100.821 98.4776-23.9925 98.4776C-24.8209 98.4776-25.4925 97.8061-25.4925 96.9777L-25.4925 0C-25.4925-0.828394-24.8209-1.49994-23.9925-1.49994L0-1.49994ZM0-4.49982C2.48518-4.49982 4.49982-2.48518 4.49982 0 4.49982 2.48518 2.48518 4.49982 0 4.49982-2.48518 4.49982-4.49982 2.48518-4.49982 0-4.49982-2.48518-2.48518-4.49982 0-4.49982ZM109.632 145.039 100.821 160.899 92.0105 145.039C91.6082 144.315 91.8691 143.402 92.5932 143 93.3174 142.597 94.2305 142.858 94.6328 143.582L102.133 157.082 99.5102 157.082 107.01 143.582C107.412 142.858 108.325 142.597 109.049 143 109.774 143.402 110.035 144.315 109.632 145.039Z" fill="#9BBB59" transform="matrix(-1.00004 0 0 1 121.325 9.59256)"/></g></g><path d="M0 1.33291-23.9925 1.33291-22.6596 0-22.6596 96.9777-23.9925 95.6448 100.821 95.6448C101.558 95.6448 102.154 96.2415 102.154 96.9777L102.154 158.154 99.4884 158.154 99.4884 96.9777 100.821 98.3106-23.9925 98.3106C-24.7287 98.3106-25.3254 97.7138-25.3254 96.9777L-25.3254 0C-25.3254-0.736148-24.7287-1.33291-23.9925-1.33291L0-1.33291ZM0-3.99874C2.20844-3.99874 3.99874-2.20844 3.99874 0 3.99874 2.20844 2.20844 3.99874 0 3.99874-2.20844 3.99874-3.99874 2.20844-3.99874 0-3.99874-2.20844-2.20844-3.99874 0-3.99874ZM108.651 146.805 100.821 160.899 92.9916 146.805C92.6341 146.162 92.866 145.35 93.5095 144.993 94.153 144.635 94.9645 144.867 95.322 145.511L101.987 157.507 99.6562 157.507 106.321 145.511C106.678 144.867 107.49 144.635 108.133 144.993 108.777 145.35 109.009 146.162 108.651 146.805Z" fill="#9BBB59" transform="matrix(-1.00004 0 0 1 627.325 165.493)"/><g clip-path="url(#clip47)" filter="url(#fx12)" transform="translate(630 301)"><g clip-path="url(#clip48)"><path d="M0-1.49994 155.854-1.49994C156.683-1.49994 157.354-0.828394 157.354 0L157.354 57.2155 155.854 55.7155 302.709 55.7155 302.709 58.7154 155.854 58.7154C155.026 58.7154 154.355 58.0439 154.355 57.2155L154.355 0 155.854 1.49994 0 1.49994ZM302.709 57.2155 296.71 49.7158 311.709 57.2155 296.71 64.7152Z" fill="#49504F" transform="matrix(1.00004 0 0 -1 6.5 76.802)"/></g></g><path d="M0-1.33291 155.854-1.33291C156.591-1.33291 157.187-0.736148 157.187 0L157.187 57.2155 155.854 55.8826 303.711 55.8826 303.711 58.5484 155.854 58.5484C155.118 58.5484 154.522 57.9516 154.522 57.2155L154.522 0 155.854 1.33291 0 1.33291ZM303.711 57.2155 298.38 50.5509 311.709 57.2155 298.38 63.88Z" fill="#49504F" transform="matrix(1.00004 0 0 -1 636.5 375.703)"/><g clip-path="url(#clip49)" filter="url(#fx13)" transform="translate(630 370)"><g clip-path="url(#clip50)"><path d="M6.5 6.08441 17.1637 6.08441 17.1637 9.08429 6.5 9.08429ZM25.1615 6.08441 35.8252 6.08441 35.8252 9.08429 25.1615 9.08429ZM43.823 6.08441 54.4868 6.08441 54.4868 9.08429 43.823 9.08429ZM62.4846 6.08441 73.1483 6.08441 73.1483 9.08429 62.4846 9.08429ZM81.1461 6.08441 91.8098 6.08441 91.8098 9.08429 81.1461 9.08429ZM99.8076 6.08441 110.471 6.08441 110.471 9.08429 99.8076 9.08429ZM118.469 6.08441 129.133 6.08441 129.133 9.08429 118.469 9.08429ZM137.131 6.08441 147.794 6.08441 147.794 9.08429 137.131 9.08429ZM155.792 6.08441 162.361 6.08441C163.189 6.08441 163.861 6.75596 163.861 7.58435L163.861 11.6794 160.861 11.6794 160.861 7.58435 162.361 9.08429 155.792 9.08429ZM163.861 19.6769 163.861 30.3402 160.861 30.3402 160.861 19.6769ZM163.861 38.3377 163.861 49.001 160.861 49.001 160.861 38.3377ZM163.861 56.9985 163.861 67.6433 162.361 66.1434 162.379 66.1434 162.379 69.1433 162.361 69.1433C161.532 69.1433 160.861 68.4717 160.861 67.6433L160.861 56.9985ZM170.377 66.1434 181.041 66.1434 181.041 69.1433 170.377 69.1433ZM189.038 66.1434 199.702 66.1434 199.702 69.1433 189.038 69.1433ZM207.7 66.1434 218.364 66.1434 218.364 69.1433 207.7 69.1433ZM226.361 66.1434 237.025 66.1434 237.025 69.1433 226.361 69.1433ZM245.023 66.1434 255.687 66.1434 255.687 69.1433 245.023 69.1433ZM263.685 66.1434 274.348 66.1434 274.348 69.1433 263.685 69.1433ZM282.346 66.1434 293.01 66.1434 293.01 69.1433 282.346 69.1433ZM301.008 66.1434 309.221 66.1434 309.221 69.1433 301.008 69.1433ZM309.221 67.6433 303.221 60.1436 318.221 67.6433 303.221 75.143Z" fill="#49504F"/></g></g><path d="M636.5 374.152 647.164 374.152 647.164 376.818 636.5 376.818ZM655.161 374.152 665.825 374.152 665.825 376.818 655.161 376.818ZM673.823 374.152 684.487 374.152 684.487 376.818 673.823 376.818ZM692.485 374.152 703.148 374.152 703.148 376.818 692.485 376.818ZM711.146 374.152 721.81 374.152 721.81 376.818 711.146 376.818ZM729.808 374.152 740.471 374.152 740.471 376.818 729.808 376.818ZM748.469 374.152 759.133 374.152 759.133 376.818 748.469 376.818ZM767.131 374.152 777.794 374.152 777.794 376.818 767.131 376.818ZM785.792 374.152 792.361 374.152C793.097 374.152 793.694 374.749 793.694 375.485L793.694 379.58 791.028 379.58 791.028 375.485 792.361 376.818 785.792 376.818ZM793.694 387.578 793.694 398.241 791.028 398.241 791.028 387.578ZM793.694 406.239 793.694 416.902 791.028 416.902 791.028 406.239ZM793.694 424.899 793.694 435.544 792.361 434.211 792.379 434.211 792.379 436.877 792.361 436.877C791.624 436.877 791.028 436.28 791.028 435.544L791.028 424.899ZM800.377 434.211 811.041 434.211 811.041 436.877 800.377 436.877ZM819.038 434.211 829.702 434.211 829.702 436.877 819.038 436.877ZM837.7 434.211 848.364 434.211 848.364 436.877 837.7 436.877ZM856.361 434.211 867.025 434.211 867.025 436.877 856.361 436.877ZM875.023 434.211 885.687 434.211 885.687 436.877 875.023 436.877ZM893.685 434.211 904.348 434.211 904.348 436.877 893.685 436.877ZM912.346 434.211 923.01 434.211 923.01 436.877 912.346 436.877ZM931.008 434.211 940.223 434.211 940.223 436.877 931.008 436.877ZM940.224 435.544 934.892 428.88 948.221 435.544 934.892 442.209Z" fill="#49504F"/><text fill="#595959" font-family="Monaco,Monaco_MSFontService,sans-serif" font-weight="400" font-size="19" transform="matrix(1 0 0 0.999961 304.423 428)">1.<tspan font-family="SimHei,SimHei_MSFontService,sans-serif" font-size="19" x="22.3271" y="0">发起请求</tspan><tspan font-size="19" x="-91.0616" y="22.0009">http://userservice/user/1</tspan><tspan font-size="19" x="-60.403" y="-230.009">2.</tspan><tspan font-family="SimHei,SimHei_MSFontService,sans-serif" font-size="19" x="-38.0758" y="-230.009">拉取</tspan><tspan font-size="19" x="-60.403" y="-208.008">User</tspan><tspan font-size="19" x="-15.7486" y="-208.008">-</tspan><tspan font-size="19" x="-4.58505" y="-208.008">service</tspan><tspan font-size="19" x="371.022" y="-237.009">3.</tspan><tspan font-family="SimHei,SimHei_MSFontService,sans-serif" font-size="19" x="393.349" y="-237.009">返回服务列表</tspan><tspan font-size="19" x="371.022" y="-215.008">localhost:8081</tspan><tspan font-size="19" x="371.022" y="-192.008">loclahost:8082</tspan><tspan font-size="19" x="507.627" y="-43.0017">4.</tspan><tspan font-family="SimHei,SimHei_MSFontService,sans-serif" font-size="19" x="529.954" y="-43.0017">轮询</tspan><tspan font-family="SimHei,SimHei_MSFontService,sans-serif" font-size="19" x="567.277" y="-43.0017">到</tspan><tspan font-size="19" x="597.103" y="-43.0017">8081</tspan></text><g clip-path="url(#clip51)" filter="url(#fx14)" transform="translate(221 358)"><g clip-path="url(#clip52)"><path d="M0.00913248-1.49991 181.261-0.396331 181.242 2.6035-0.00913248 1.49991ZM181.251 1.10358 175.297-6.43252 190.251 1.15838 175.206 8.56662Z" transform="matrix(1.00004 0 0 -1 6.5 20.7427)"/></g></g><path d="M0.00811553-1.33289 182.262-0.223205 182.246 2.44257-0.00811553 1.33289ZM182.253 1.10968 176.963-5.58722 190.251 1.15838 176.881 7.74166Z" transform="matrix(1.00004 0 0 -1 227.5 376.644)"/></g></svg>