<svg width="864" height="493" xmlns="http://www.w3.org/2000/svg" xmlns:xlink="http://www.w3.org/1999/xlink" overflow="hidden"><defs><filter id="fx0" x="-10%" y="-10%" width="120%" height="120%" filterUnits="userSpaceOnUse" primitiveUnits="userSpaceOnUse"><feComponentTransfer color-interpolation-filters="sRGB"><feFuncR type="discrete" tableValues="0 0"/><feFuncG type="discrete" tableValues="0 0"/><feFuncB type="discrete" tableValues="0 0"/><feFuncA type="linear" slope="0.34902" intercept="0"/></feComponentTransfer><feGaussianBlur stdDeviation="1.39956 1.39935"/></filter><filter id="fx1" x="-10%" y="-10%" width="120%" height="120%" filterUnits="userSpaceOnUse" primitiveUnits="userSpaceOnUse"><feComponentTransfer color-interpolation-filters="sRGB"><feFuncR type="discrete" tableValues="0 0"/><feFuncG type="discrete" tableValues="0 0"/><feFuncB type="discrete" tableValues="0 0"/><feFuncA type="linear" slope="0.34902" intercept="0"/></feComponentTransfer><feGaussianBlur stdDeviation="1.39956 1.39935"/></filter><filter id="fx2" x="-10%" y="-10%" width="120%" height="120%" filterUnits="userSpaceOnUse" primitiveUnits="userSpaceOnUse"><feComponentTransfer color-interpolation-filters="sRGB"><feFuncR type="discrete" tableValues="0 0"/><feFuncG type="discrete" tableValues="0 0"/><feFuncB type="discrete" tableValues="0 0"/><feFuncA type="linear" slope="0.34902" intercept="0"/></feComponentTransfer><feGaussianBlur stdDeviation="1.39956 1.39935"/></filter><filter id="fx3" x="-10%" y="-10%" width="120%" height="120%" filterUnits="userSpaceOnUse" primitiveUnits="userSpaceOnUse"><feComponentTransfer color-interpolation-filters="sRGB"><feFuncR type="discrete" tableValues="0 0"/><feFuncG type="discrete" tableValues="0 0"/><feFuncB type="discrete" tableValues="0 0"/><feFuncA type="linear" slope="0.34902" intercept="0"/></feComponentTransfer><feGaussianBlur stdDeviation="1.39956 1.39935"/></filter><clipPath id="clip4"><rect x="0" y="0" width="864" height="493"/></clipPath><clipPath id="clip5"><path d="M236.333 152.478C234.216 152.478 232.5 154.194 232.5 156.311L232.5 171.642C232.5 173.758 234.216 175.475 236.333 175.475L367.667 175.475C369.784 175.475 371.5 173.758 371.5 171.642L371.5 156.311C371.5 154.194 369.784 152.478 367.667 152.478ZM1.28746e-05 7.34627e-06 864 7.34627e-06 864 493 1.28746e-05 493Z" fill-rule="evenodd" clip-rule="evenodd"/></clipPath><clipPath id="clip6"><rect x="1" y="1" width="151" height="35"/></clipPath><clipPath id="clip7"><rect x="0" y="0" width="152" height="36"/></clipPath><clipPath id="clip8"><rect x="11" y="7" width="139" height="27"/></clipPath><clipPath id="clip9"><rect x="0" y="0" width="160" height="43"/></clipPath><clipPath id="clip10"><path d="M236.333 313.455C234.216 313.455 232.5 315.171 232.5 317.287L232.5 332.618C232.5 334.735 234.216 336.451 236.333 336.451L367.667 336.451C369.784 336.451 371.5 334.735 371.5 332.618L371.5 317.287C371.5 315.171 369.784 313.455 367.667 313.455ZM1.28746e-05 7.34627e-06 864 7.34627e-06 864 493 1.28746e-05 493Z" fill-rule="evenodd" clip-rule="evenodd"/></clipPath><clipPath id="clip11"><rect x="1" y="1" width="151" height="35"/></clipPath><clipPath id="clip12"><rect x="0" y="0" width="152" height="36"/></clipPath><clipPath id="clip13"><rect x="11" y="7" width="139" height="27"/></clipPath><clipPath id="clip14"><rect x="0" y="0" width="160" height="43"/></clipPath></defs><g clip-path="url(#clip4)"><rect x="0" y="0" width="864" height="492.928" fill="#FFFFFF"/><path d="M57.5 131.816C57.5 100.707 82.7218 75.489 113.835 75.489L408.165 75.489C439.278 75.489 464.5 100.707 464.5 131.816L464.5 357.113C464.5 388.222 439.278 413.44 408.165 413.44L113.835 413.44C82.7218 413.44 57.5 388.222 57.5 357.113Z" stroke="#A6A6A6" stroke-width="2.99942" stroke-linejoin="round" stroke-miterlimit="10" stroke-dasharray="11.9977 8.99826" fill="none" fill-rule="evenodd"/><path d="M37.5 88.3209C37.5 81.7862 42.7981 76.4889 49.3337 76.4889L96.6663 76.4889C103.202 76.4889 108.5 81.7862 108.5 88.3209L108.5 402.608C108.5 409.142 103.202 414.44 96.6663 414.44L49.3337 414.44C42.7981 414.44 37.5 409.142 37.5 402.608Z" stroke="#AD2A26" stroke-width="2.99942" stroke-linejoin="round" stroke-miterlimit="10" fill="#AD2A26" fill-rule="evenodd"/><text fill="#FFFFFF" font-family="Monaco,Monaco_MSFontService,sans-serif" font-weight="400" font-size="24" transform="matrix(1 0 0 0.999855 58.1981 254)">TM</text><path d="M223.5 116.983C223.5 104.006 234.021 93.4864 247 93.4864L382 93.4864C394.979 93.4864 405.5 104.006 405.5 116.983L405.5 210.969C405.5 223.946 394.979 234.466 382 234.466L247 234.466C234.021 234.466 223.5 223.946 223.5 210.969Z" stroke="#4C5252" stroke-width="1.33308" stroke-linejoin="round" stroke-miterlimit="10" fill="none" fill-rule="evenodd"/><text fill="#4C5252" font-family="SimHei,SimHei_MSFontService,sans-serif" font-weight="400" font-size="19" transform="matrix(1 0 0 0.999855 285.858 218)">微服务</text><path d="M374.5 102.652C374.5 97.59 378.604 93.4864 383.667 93.4864L420.333 93.4864C425.396 93.4864 429.5 97.59 429.5 102.652L429.5 225.3C429.5 230.362 425.396 234.466 420.333 234.466L383.667 234.466C378.604 234.466 374.5 230.362 374.5 225.3Z" stroke="#AD2A26" stroke-width="1.33308" stroke-linejoin="round" stroke-miterlimit="10" fill="#AD2A26" fill-rule="evenodd"/><text fill="#FFFFFF" font-family="Monaco,Monaco_MSFontService,sans-serif" font-weight="400" font-size="24" transform="matrix(1 0 0 0.999855 387.195 172)">RM</text><path d="M224.5 278.127C224.5 265.058 235.096 254.463 248.167 254.463L382.833 254.463C395.904 254.463 406.5 265.058 406.5 278.127L406.5 372.779C406.5 385.848 395.904 396.442 382.833 396.442L248.167 396.442C235.096 396.442 224.5 385.848 224.5 372.779Z" stroke="#4C5252" stroke-width="1.33308" stroke-linejoin="round" stroke-miterlimit="10" fill="none" fill-rule="evenodd"/><text fill="#4C5252" font-family="SimHei,SimHei_MSFontService,sans-serif" font-weight="400" font-size="19" transform="matrix(1 0 0 0.999855 287.273 379)">微服务</text><path d="M375.5 263.629C375.5 258.567 379.604 254.463 384.667 254.463L421.333 254.463C426.396 254.463 430.5 258.567 430.5 263.629L430.5 387.277C430.5 392.339 426.396 396.442 421.333 396.442L384.667 396.442C379.604 396.442 375.5 392.339 375.5 387.277Z" stroke="#AD2A26" stroke-width="1.33308" stroke-linejoin="round" stroke-miterlimit="10" fill="#AD2A26" fill-rule="evenodd"/><text fill="#FFFFFF" font-family="Monaco,Monaco_MSFontService,sans-serif" font-weight="400" font-size="24" transform="matrix(1 0 0 0.999855 388.61 333)">RM</text><path d="M685.5 88.3209C685.5 81.7862 690.798 76.4889 697.334 76.4889L744.667 76.4889C751.202 76.4889 756.5 81.7862 756.5 88.3209L756.5 402.608C756.5 409.142 751.202 414.44 744.667 414.44L697.334 414.44C690.798 414.44 685.5 409.142 685.5 402.608Z" stroke="#AD2A26" stroke-width="1.33308" stroke-linejoin="round" stroke-miterlimit="10" fill="#AD2A26" fill-rule="evenodd"/><text fill="#FFFFFF" font-family="Monaco,Monaco_MSFontService,sans-serif" font-weight="400" font-size="24" transform="matrix(1 0 0 0.999855 706.038 253)">TC</text><path d="M72.8335 76.7304 72.8335 52.497C72.8335 52.1289 73.1319 51.8306 73.5 51.8306L721.34 51.8306C721.708 51.8306 722.007 52.1289 722.007 52.497L722.007 69.8245 720.674 69.8245 720.674 52.497 721.34 53.1634 73.5 53.1634 74.1666 52.497 74.1666 76.7304ZM725.34 68.4916 721.34 76.4889 717.341 68.4916Z"/><path d="M74.1665 414.681 74.1665 425.345 72.8335 425.345 72.8335 414.681ZM74.1665 429.343 74.1665 440.006 72.8335 440.006 72.8335 429.343ZM74.1665 444.005 74.1665 454.668 72.8335 454.668 72.8335 444.005ZM77.4988 454.002 88.1634 454.002 88.1634 455.335 77.4988 455.335ZM92.1626 454.002 102.827 454.002 102.827 455.335 92.1626 455.335ZM106.826 454.002 117.491 454.002 117.491 455.335 106.826 455.335ZM121.49 454.002 132.155 454.002 132.155 455.335 121.49 455.335ZM136.154 454.002 146.819 454.002 146.819 455.335 136.154 455.335ZM150.818 454.002 161.483 454.002 161.483 455.335 150.818 455.335ZM165.482 454.002 176.146 454.002 176.146 455.335 165.482 455.335ZM180.146 454.002 190.81 454.002 190.81 455.335 180.146 455.335ZM194.81 454.002 205.474 454.002 205.474 455.335 194.81 455.335ZM209.473 454.002 220.138 454.002 220.138 455.335 209.473 455.335ZM224.137 454.002 234.802 454.002 234.802 455.335 224.137 455.335ZM238.801 454.002 249.466 454.002 249.466 455.335 238.801 455.335ZM253.465 454.002 264.129 454.002 264.129 455.335 253.465 455.335ZM268.129 454.002 278.793 454.002 278.793 455.335 268.129 455.335ZM282.793 454.002 293.457 454.002 293.457 455.335 282.793 455.335ZM297.456 454.002 308.121 454.002 308.121 455.335 297.456 455.335ZM312.12 454.002 322.785 454.002 322.785 455.335 312.12 455.335ZM326.784 454.002 337.449 454.002 337.449 455.335 326.784 455.335ZM341.448 454.002 352.113 454.002 352.113 455.335 341.448 455.335ZM356.112 454.002 366.776 454.002 366.776 455.335 356.112 455.335ZM370.776 454.002 381.44 454.002 381.44 455.335 370.776 455.335ZM385.439 454.002 396.104 454.002 396.104 455.335 385.439 455.335ZM400.103 454.002 410.768 454.002 410.768 455.335 400.103 455.335ZM414.767 454.002 425.432 454.002 425.432 455.335 414.767 455.335ZM429.431 454.002 440.096 454.002 440.096 455.335 429.431 455.335ZM444.095 454.002 454.759 454.002 454.759 455.335 444.095 455.335ZM458.759 454.002 469.423 454.002 469.423 455.335 458.759 455.335ZM473.422 454.002 484.087 454.002 484.087 455.335 473.422 455.335ZM488.086 454.002 498.751 454.002 498.751 455.335 488.086 455.335ZM502.75 454.002 513.415 454.002 513.415 455.335 502.75 455.335ZM517.414 454.002 528.079 454.002 528.079 455.335 517.414 455.335ZM532.078 454.002 542.742 454.002 542.742 455.335 532.078 455.335ZM546.742 454.002 557.406 454.002 557.406 455.335 546.742 455.335ZM561.405 454.002 572.07 454.002 572.07 455.335 561.405 455.335ZM576.069 454.002 586.734 454.002 586.734 455.335 576.069 455.335ZM590.733 454.002 601.398 454.002 601.398 455.335 590.733 455.335ZM605.397 454.002 616.062 454.002 616.062 455.335 605.397 455.335ZM620.061 454.002 630.725 454.002 630.725 455.335 620.061 455.335ZM634.725 454.002 645.389 454.002 645.389 455.335 634.725 455.335ZM649.388 454.002 660.053 454.002 660.053 455.335 649.388 455.335ZM664.052 454.002 674.717 454.002 674.717 455.335 664.052 455.335ZM678.716 454.002 689.381 454.002 689.381 455.335 678.716 455.335ZM693.38 454.002 704.045 454.002 704.045 455.335 693.38 455.335ZM708.044 454.002 718.708 454.002 718.708 455.335 708.044 455.335ZM720.674 453.301 720.674 442.638 722.007 442.638 722.007 453.301ZM720.674 438.639 720.674 427.976 722.007 427.976 722.007 438.639ZM720.674 423.978 720.674 421.104 722.007 421.104 722.007 423.978ZM717.341 422.437 721.34 414.44 725.34 422.437Z" fill="#4A7EBB"/><text fill="#595959" font-family="Monaco,Monaco_MSFontService,sans-serif" font-weight="400" font-size="15" transform="matrix(1 0 0 0.999855 318.93 43)">1.1.<tspan font-family="SimHei,SimHei_MSFontService,sans-serif" font-size="15" x="35.3265" y="0">开启全局事务</tspan><tspan fill="#0070C0" font-size="15" x="-0.855042" y="401.058">2.1.</tspan><tspan fill="#0070C0" font-family="SimHei,SimHei_MSFontService,sans-serif" font-size="15" x="34.4715" y="401.058">提交、回滚全局事务</tspan></text><path d="M108.5 163.976 216.895 163.976 216.895 164.976 108.5 164.976ZM215.562 160.478 223.56 164.476 215.562 168.475Z"/><text fill="#595959" font-family="Monaco,Monaco_MSFontService,sans-serif" font-weight="400" font-size="15" transform="matrix(1 0 0 0.999855 115.752 186)">1.2.<tspan font-family="SimHei,SimHei_MSFontService,sans-serif" font-size="15" x="35.3265" y="0">调用分支</tspan></text><path d="M110.5 324.953 217.97 324.953 217.97 325.953 110.5 325.953ZM216.637 321.454 224.635 325.453 216.637 329.452Z"/><g clip-path="url(#clip5)"><g clip-path="url(#clip6)" filter="url(#fx0)" transform="translate(226 148)"><g clip-path="url(#clip7)"><path d="M6.50003 10.7247C6.50003 8.60783 8.21632 6.89178 10.3335 6.89178L141.667 6.89178C143.784 6.89178 145.5 8.60783 145.5 10.7247L145.5 26.0555C145.5 28.1724 143.784 29.8884 141.667 29.8884L10.3335 29.8884C8.21632 29.8884 6.50003 28.1724 6.50003 26.0555Z" stroke="#000000" stroke-linejoin="round" stroke-miterlimit="10" fill="#4C5252" fill-rule="evenodd"/></g></g><g clip-path="url(#clip8)" filter="url(#fx1)" transform="translate(221 146)"><g clip-path="url(#clip9)"><path d="M4.16016-1.14258 4.16016-9.90967C3.33008-9.25049 2.40234-8.73779 1.37695-8.37158L1.37695-9.60205C2.44629-10.0562 3.37402-10.6445 4.16016-11.3672L5.52246-11.3672 5.52246-1.14258 8.25439-1.14258 8.25439 0 1.37695 0 1.37695-1.14258ZM13.3287 0.344238C13.0016 0.344238 12.7208 0.227051 12.4864-0.00732422 12.252-0.241699 12.1349-0.522461 12.1349-0.849609 12.1349-1.17676 12.252-1.45752 12.4864-1.69189 12.7208-1.92627 13.0016-2.04346 13.3287-2.04346 13.6558-2.04346 13.9366-1.92627 14.171-1.69189 14.4054-1.45752 14.5225-1.17676 14.5225-0.849609 14.5225-0.522461 14.4054-0.241699 14.171-0.00732422 13.9366 0.227051 13.6558 0.344238 13.3287 0.344238ZM22.8415 0 22.8415-3.17871 18.0148-3.17871 18.0148-4.32129 22.8413-11.3672 24.2111-11.3672 24.2111-4.32129 26.3132-4.32129 26.3132-3.17871 24.2111-3.17871 24.2111 0ZM22.8415-4.32129 22.8415-9.30702 19.4618-4.32129ZM30.992 0.344238C30.6648 0.344238 30.384 0.227051 30.1497-0.00732422 29.9153-0.241699 29.7981-0.522461 29.7981-0.849609 29.7981-1.17676 29.9153-1.45752 30.1497-1.69189 30.384-1.92627 30.6648-2.04346 30.992-2.04346 31.3191-2.04346 31.5999-1.92627 31.8342-1.69189 32.0686-1.45752 32.1858-1.17676 32.1858-0.849609 32.1858-0.522461 32.0686-0.241699 31.8342-0.00732422 31.5999 0.227051 31.3191 0.344238 30.992 0.344238Z" fill="#FFFFFF" transform="matrix(1 0 0 0.999855 15.4378 25)"/><path d="M13.418-1.40625C13.6914-1.17188 14.043-0.9375 14.4727-0.703125 14.043 0.429687 13.623 1.12305 13.2129 1.37695 12.8027 1.63086 12.334 1.24023 11.8066 0.205078 11.2793-0.830078 10.9961-2.09961 10.957-3.60352 10.918-5.10742 10.918-6.64062 10.957-8.20312L9.375-8.20312C9.29688-6.67969 9.17969-5.42969 9.02344-4.45312 9.375-4.21875 9.88281-3.80859 10.5469-3.22266 10.1953-2.91016 9.90234-2.55859 9.66797-2.16797 9.35547-2.55859 9.0625-2.89062 8.78906-3.16406 8.24219-1.95312 7.71484-1.04492 7.20703-0.439453 6.69922 0.166016 6.15234 0.78125 5.56641 1.40625 5.37109 1.09375 4.96094 0.761719 4.33594 0.410156 5.19531-0.0585937 5.92773-0.683594 6.5332-1.46484 7.13867-2.24609 7.55859-3.08594 7.79297-3.98438 7.32422-4.33594 6.77734-4.72656 6.15234-5.15625 6.38672-5.42969 6.62109-5.72266 6.85547-6.03516 7.20703-5.80078 7.59766-5.54688 8.02734-5.27344 8.10547-6.01562 8.16406-6.99219 8.20312-8.20312 7.5-8.20312 6.83594-8.18359 6.21094-8.14453L6.21094-9.25781C6.83594-9.21875 7.5-9.19922 8.20312-9.19922 8.20312-10.332 8.18359-11.3477 8.14453-12.2461 8.49609-12.207 8.92578-12.1875 9.43359-12.1875 9.39453-11.0938 9.375-10.0977 9.375-9.19922L12.0117-9.19922C11.9336-7.63672 11.9043-6.05469 11.9238-4.45312 11.9434-2.85156 12.1582-1.61133 12.5684-0.732422 12.9785 0.146484 13.2617-0.078125 13.418-1.40625ZM1.40625 0.0585938C1.83594 0.0976562 2.1875 0.117187 2.46094 0.117188 2.73438 0.117187 2.87109-7.45058e-09 2.87109-0.234375L2.87109-3.98438C2.08984-3.59375 1.48437-3.26172 1.05469-2.98828 0.976562-3.30078 0.800781-3.78906 0.527344-4.45312 1.03516-4.53125 1.81641-4.76562 2.87109-5.15625L2.87109-7.79297C2.05078-7.79297 1.32812-7.77344 0.703125-7.73438L0.703125-8.84766C1.28906-8.80859 2.01172-8.78906 2.87109-8.78906 2.87109-10.0391 2.85156-11.1523 2.8125-12.1289L3.98438-12.1289C3.94531-11.2695 3.92578-10.1562 3.92578-8.78906 4.23828-8.78906 4.72656-8.80859 5.39062-8.84766L5.39062-7.73438C4.76562-7.77344 4.27734-7.79297 3.92578-7.79297L3.92578-5.625C4.16016-5.70312 4.62891-5.89844 5.33203-6.21094 5.33203-5.85938 5.35156-5.50781 5.39062-5.15625 5.15625-5.03906 4.66797-4.80469 3.92578-4.45312L3.92578 0C3.88672 0.46875 3.74023 0.800781 3.48633 0.996094 3.23242 1.19141 2.63672 1.34766 1.69922 1.46484 1.69922 0.957031 1.60156 0.488281 1.40625 0.0585938ZM27.0857-7.26562C27.8279-7.26562 28.5115-7.28516 29.1365-7.32422L29.1365-6.15234C28.5115-6.19141 27.8474-6.21094 27.1443-6.21094L26.324-6.21094 26.324 0.175781C26.3631 0.644531 26.2166 0.966797 25.8845 1.14258 25.5525 1.31836 24.8982 1.46484 23.9216 1.58203 23.8435 1.11328 23.6287 0.644531 23.2771 0.175781 23.9412 0.253906 24.4099 0.283203 24.6834 0.263672 24.9568 0.244141 25.1131 0.0390625 25.1521-0.351562L25.1521-6.21094 22.8084-6.21094C22.0662-6.21094 21.3631-6.19141 20.699-6.15234L20.699-7.32422C21.4021-7.28516 22.1052-7.26562 22.8084-7.26562ZM20.0545-7.96875C19.7029-7.77344 19.4392-7.51953 19.2634-7.20703 19.0877-6.89453 18.8435-6.50391 18.531-6.03516L18.531-0.761719C18.531-0.253906 18.5506 0.527344 18.5896 1.58203L17.3591 1.58203C17.3982 0.410156 17.4177-0.46875 17.4177-1.05469L17.4177-4.80469C17.0662-4.21875 16.5974-3.63281 16.0115-3.04688 15.7381-3.4375 15.4841-3.76953 15.2498-4.04297 16.1482-4.90234 16.8513-5.72266 17.3591-6.50391 17.867-7.28516 18.3162-8.02734 18.7068-8.73047 19.0974-8.49609 19.5466-8.24219 20.0545-7.96875ZM26.0896-11.25C26.7537-11.25 27.4373-11.2695 28.1404-11.3086L28.1404-10.1953C27.4373-10.2344 26.7146-10.2539 25.9724-10.2539L23.8045-10.2539C22.9451-10.2539 22.2029-10.2344 21.5779-10.1953L21.5779-11.3086C22.2029-11.2695 22.9451-11.25 23.8045-11.25ZM19.5271-11.543C19.2146-11.5039 18.8045-11.084 18.2966-10.2832 17.7888-9.48242 17.0857-8.59375 16.1873-7.61719 15.9529-7.92969 15.699-8.22266 15.4256-8.49609 16.0506-9.12109 16.617-9.79492 17.1248-10.5176 17.6326-11.2402 18.0037-11.875 18.2381-12.4219 18.6287-12.1875 19.0584-11.8945 19.5271-11.543ZM35.9488-11.7773C35.8706-10.6836 35.8316-9.74609 35.8316-8.96484L35.8316-0.351562 37.7652-0.351562 37.7652-9.66797C37.7652-10.293 37.7261-10.9961 37.648-11.7773L39.1128-11.7773C39.0347-11.1523 38.9956-10.4883 38.9956-9.78516L38.9956-0.351562 41.2808-0.351562C41.9058-0.351562 42.6675-0.390625 43.566-0.46875L43.566 0.820312C42.6675 0.742188 41.9253 0.703125 41.3394 0.703125L32.4331 0.703125C31.8863 0.703125 31.105 0.742188 30.0894 0.820312L30.0894-0.46875C31.105-0.390625 31.8667-0.351562 32.3745-0.351562L34.5425-0.351562 34.5425-9.02344C34.5425-9.84375 34.4839-10.7617 34.3667-11.7773ZM31.73-8.84766C32.1988-7.63672 32.8433-5.85937 33.6636-3.51562 33.2339-3.4375 32.7847-3.28125 32.316-3.04688 31.6128-5.3125 30.9878-7.07031 30.441-8.32031 30.8316-8.47656 31.2613-8.65234 31.73-8.84766ZM43.0386-8.49609C42.5308-7.16797 41.8277-5.3125 40.9292-2.92969 40.5386-3.16406 40.1285-3.33984 39.6988-3.45703 40.5191-4.98047 41.1441-6.81641 41.5738-8.96484 42.0035-8.80859 42.4917-8.65234 43.0386-8.49609ZM50.6712-11.6016C50.3587-11.3281 50.0853-11.0156 49.8509-10.6641L56.3548-10.6641C56.0032-10.0781 55.5442-9.45312 54.9778-8.78906 54.4114-8.125 53.6985-7.5 52.8392-6.91406 53.386-6.5625 54.1282-6.29883 55.0657-6.12305 56.0032-5.94727 57.1165-5.83984 58.4056-5.80078 58.0931-5.44922 57.8782-5.03906 57.761-4.57031 56.6673-4.64844 55.5931-4.84375 54.5384-5.15625 53.4837-5.46875 52.6048-5.83984 51.9017-6.26953 50.6517-5.68359 49.5189-5.25391 48.5032-4.98047 47.4876-4.70703 46.4915-4.49219 45.5149-4.33594 45.3587-4.80469 45.1243-5.21484 44.8118-5.56641 45.6712-5.56641 46.6478-5.68359 47.7415-5.91797 48.8353-6.15234 49.9095-6.48437 50.9642-6.91406 50.1439-7.69531 49.4407-8.49609 48.8548-9.31641 48.1907-8.49609 47.5071-7.8125 46.804-7.26562 46.5306-7.57812 46.179-7.8125 45.7493-7.96875 46.8431-8.75 47.6439-9.50195 48.1517-10.2246 48.6595-10.9473 49.0306-11.6211 49.2649-12.2461 49.7728-11.9727 50.2415-11.7578 50.6712-11.6016ZM50.554-3.86719C50.6321-4.33594 50.6712-4.88281 50.6712-5.50781 51.1399-5.42969 51.6087-5.37109 52.0774-5.33203 51.9603-5.09766 51.8431-4.60938 51.7259-3.86719L56.472-3.86719C56.4329-3.39844 56.3939-2.86133 56.3548-2.25586 56.3157-1.65039 56.2474-0.996094 56.1497-0.292969 56.0521 0.410156 55.7689 0.820312 55.3001 0.9375 54.8314 1.05469 54.0892 1.17188 53.0735 1.28906 52.9954 0.78125 52.8001 0.351562 52.4876 0 53.6204 0 54.304-0.0390625 54.5384-0.117188 54.7728-0.195312 54.929-0.410156 55.0071-0.761719L55.1829-2.98828 51.6087-2.98828C51.0618-1.30859 50.2903-0.214844 49.2942 0.292969 48.2981 0.800781 47.2337 1.25 46.1009 1.64062 45.9837 1.28906 45.7103 0.878906 45.2806 0.410156 46.2181 0.332031 47.1946 0.0390625 48.2103-0.46875 49.2259-0.976562 49.9485-1.81641 50.3782-2.98828L49.0306-2.98828C47.8587-2.98828 46.9993-2.94922 46.4524-2.87109L46.4524-3.92578C47.0384-3.88672 47.9173-3.86719 49.0892-3.86719ZM51.9603-7.55859C52.7415-8.02734 53.5032-8.76953 54.2454-9.78516L49.8509-9.78516C50.5931-8.80859 51.2962-8.06641 51.9603-7.55859Z" fill="#FFFFFF" transform="matrix(1 0 0 0.999855 50.7643 25)"/><path d="M1.1499-0.241699 1.1499-1.6333C2.32178-1.07666 3.38623-0.79834 4.34326-0.79834 5.27588-0.79834 5.9375-1.09627 6.32812-1.69212 6.51367-1.98021 6.60644-2.29275 6.60645-2.62974 6.60644-3.41602 5.99136-4.16569 4.7612-4.87873L3.26031-5.7439C1.9315-6.50539 1.26709-7.48169 1.26709-8.67279 1.26709-9.69788 1.6333-10.474 2.36572-11.0012 3.01514-11.4698 3.87207-11.7041 4.93652-11.7041 5.74707-11.7041 6.53076-11.5869 7.2876-11.3525L7.2876-10.0854C6.45264-10.4028 5.63965-10.5615 4.84863-10.5615 4.29199-10.5615 3.81348-10.4202 3.41309-10.1374 2.96387-9.82048 2.73926-9.39629 2.73926-8.86482 2.73926-8.40172 2.88818-8.01659 3.18604-7.70943 3.43506-7.45102 3.81592-7.16824 4.32861-6.86108L6.21094-5.73486C7.45605-5.00732 8.07861-4.05029 8.07861-2.86377 8.07861-1.77002 7.66357-0.942383 6.8335-0.380859 6.12061 0.102539 5.19043 0.344238 4.04297 0.344238 3.19824 0.344238 2.23389 0.148926 1.1499-0.241699ZM14.2955 0.212402C14.5982 0.710449 14.8643 1.06689 15.0938 1.28174 15.3966 1.56494 15.7848 1.76514 16.2584 1.88232 16.6881 1.98975 17.1642 2.04346 17.6866 2.04346L17.8184 2.04346 17.8184 3.17871 17.4742 3.17871C16.693 3.17871 16.0948 3.11279 15.6798 2.98096 15.1573 2.81006 14.6641 2.47803 14.2003 1.98486 13.8194 1.57959 13.4727 1.02783 13.1602 0.32959 12.2325 0.227051 11.5025-0.0805664 10.9703-0.593262 10.482-1.05713 10.0938-1.75781 9.80575-2.69531 9.50302-3.67676 9.35165-4.73145 9.35165-5.85938 9.35165-7.41211 9.62509-8.70361 10.172-9.73389 10.8653-11.0474 11.9176-11.7041 13.3287-11.7041 14.7789-11.7041 15.8433-11.0229 16.5221-9.66064 17.0445-8.61572 17.3058-7.2876 17.3058-5.67627 17.3058-3.68896 16.9102-2.14355 16.1192-1.04004 15.6798-0.429688 15.0719-0.012207 14.2955 0.212402ZM13.3287-10.5615C12.3766-10.5615 11.6881-9.93942 11.2633-8.69522 10.9752-7.85599 10.8311-6.85089 10.8311-5.67993 10.8311-4.50897 10.9752-3.50388 11.2633-2.66464 11.6881-1.42044 12.3766-0.79834 13.3287-0.79834 14.2808-0.79834 14.9693-1.42044 15.3941-2.66464 15.6822-3.50388 15.8263-4.50897 15.8263-5.67993 15.8263-6.85089 15.6822-7.85599 15.3941-8.69522 14.9693-9.93942 14.2808-10.5615 13.3287-10.5615ZM25.405-1.25244 25.405 0 19.2673 0 19.2673-11.3672 20.7468-11.3672 20.7468-1.25244Z" fill="#FFFFFF" transform="matrix(1 0 0 0.999855 118.251 25)"/></g></g></g><path d="M232.5 156.311C232.5 154.194 234.216 152.478 236.333 152.478L367.667 152.478C369.784 152.478 371.5 154.194 371.5 156.311L371.5 171.642C371.5 173.758 369.784 175.475 367.667 175.475L236.333 175.475C234.216 175.475 232.5 173.758 232.5 171.642Z" stroke="#000000" stroke-width="0.999807" stroke-linejoin="round" stroke-miterlimit="10" fill="#4C5252" fill-rule="evenodd"/><text fill="#FFFFFF" font-family="Monaco,Monaco_MSFontService,sans-serif" font-weight="400" font-size="15" transform="matrix(1 0 0 0.999855 236.438 169)">1.4.<tspan font-family="SimHei,SimHei_MSFontService,sans-serif" font-size="15" x="35.3265" y="0">执行业务</tspan><tspan font-size="15" x="102.814" y="0">SQL</tspan></text><path d="M429.5 110.817 678.539 110.817 678.539 112.15 429.5 112.15ZM677.206 107.485 685.204 111.484 677.206 115.483Z"/><text fill="#595959" font-family="Monaco,Monaco_MSFontService,sans-serif" font-weight="400" font-size="15" transform="matrix(1 0 0 0.999855 503.835 103)">1.3.<tspan font-family="SimHei,SimHei_MSFontService,sans-serif" font-size="15" x="35.3265" y="0">注册分支事务</tspan></text><path d="M0.000288347-0.666441 249.003-0.558706 249.003 0.774177-0.000288347 0.666441ZM247.672-3.89149 255.667 0.110619 247.668 4.10581Z" transform="matrix(1.00015 0 0 -1 429.5 163.587)"/><text fill="#595959" font-family="Monaco,Monaco_MSFontService,sans-serif" font-weight="400" font-size="15" transform="matrix(1 0 0 0.999855 505.556 155)">1.5.<tspan font-family="SimHei,SimHei_MSFontService,sans-serif" font-size="15" x="35.3265" y="0">报告事务状态</tspan></text><path d="M428.5 274.794 678.261 274.794 678.261 276.127 428.5 276.126ZM676.927 271.462 684.926 275.46 676.927 279.459Z"/><text fill="#595959" font-family="Monaco,Monaco_MSFontService,sans-serif" font-weight="400" font-size="15" transform="matrix(1 0 0 0.999855 501.985 267)">1.3.<tspan font-family="SimHei,SimHei_MSFontService,sans-serif" font-size="15" x="35.3265" y="0">注册分支事务</tspan></text><path d="M430.5 324.786 679.539 324.786 679.539 326.119 430.5 326.119ZM678.206 321.454 686.204 325.453 678.206 329.452Z"/><text fill="#595959" font-family="Monaco,Monaco_MSFontService,sans-serif" font-weight="400" font-size="15" transform="matrix(1 0 0 0.999855 503.705 316)">1.5.<tspan font-family="SimHei,SimHei_MSFontService,sans-serif" font-size="15" x="35.3265" y="0">报告事务状态</tspan></text><path d="M2.71952e-07-0.666441 10.6631-0.666437 10.6631 0.666446-2.71952e-07 0.666441ZM14.6617-0.666435 25.3248-0.666431 25.3248 0.666452 14.6617 0.666447ZM29.3234-0.666429 39.9865-0.666425 39.9865 0.666458 29.3234 0.666453ZM43.9851-0.666423 54.6482-0.666419 54.6482 0.666464 43.9851 0.666459ZM58.6468-0.666417 69.3099-0.666413 69.3099 0.66647 58.6468 0.666465ZM73.3085-0.666411 83.9716-0.666407 83.9716 0.666476 73.3085 0.666471ZM87.9703-0.666405 98.6333-0.666401 98.6333 0.666482 87.9703 0.666477ZM102.632-0.666399 113.295-0.666395 113.295 0.666488 102.632 0.666483ZM117.294-0.666394 127.957-0.666389 127.957 0.666494 117.294 0.666489ZM131.955-0.666387 142.618-0.666383 142.618 0.6665 131.955 0.666495ZM146.617-0.666382 157.28-0.666377 157.28 0.666506 146.617 0.666501ZM161.279-0.666376 171.942-0.666371 171.942 0.666512 161.279 0.666507ZM175.941-0.66637 186.604-0.666365 186.604 0.666517 175.941 0.666513ZM190.602-0.666364 201.265-0.666359 201.265 0.666524 190.602 0.666519ZM205.264-0.666358 215.927-0.666353 215.927 0.666529 205.264 0.666525ZM219.926-0.666352 230.589-0.666347 230.589 0.666535 219.926 0.666531ZM234.587-0.666346 245.25-0.666341 245.25 0.666541 234.587 0.666537ZM249.249-0.66634 250.528-0.666339 250.528 0.666544 249.249 0.666543ZM249.195-3.99855 257.193 0.000104951 249.195 3.99875Z" fill="#4A7EBB" transform="matrix(-1.00015 0 0 1 685.73 374.446)"/><text fill="#0070C0" font-family="Monaco,Monaco_MSFontService,sans-serif" font-weight="400" font-size="15" transform="matrix(1 0 0 0.999855 505.305 366)">2.3.<tspan font-family="SimHei,SimHei_MSFontService,sans-serif" font-size="15" x="35.3265" y="0">提交</tspan><tspan font-size="15" x="64.6542" y="0">/</tspan><tspan font-family="SimHei,SimHei_MSFontService,sans-serif" font-size="15" x="73.4858" y="0">回滚</tspan></text><path d="M2.73435e-07-0.666441 10.6631-0.666437 10.6631 0.666446-2.73435e-07 0.666441ZM14.6617-0.666435 25.3248-0.666431 25.3248 0.666452 14.6617 0.666447ZM29.3234-0.666429 39.9865-0.666425 39.9865 0.666458 29.3234 0.666453ZM43.9851-0.666423 54.6482-0.666419 54.6482 0.666464 43.9851 0.666459ZM58.6468-0.666417 69.3099-0.666413 69.3099 0.66647 58.6468 0.666465ZM73.3085-0.666411 83.9716-0.666407 83.9716 0.666476 73.3085 0.666471ZM87.9703-0.666405 98.6333-0.666401 98.6333 0.666482 87.9703 0.666477ZM102.632-0.666399 113.295-0.666395 113.295 0.666488 102.632 0.666483ZM117.294-0.666393 127.957-0.666389 127.957 0.666494 117.294 0.666489ZM131.955-0.666387 142.618-0.666383 142.618 0.6665 131.955 0.666496ZM146.617-0.666381 157.28-0.666377 157.28 0.666506 146.617 0.666502ZM161.279-0.666375 171.942-0.666371 171.942 0.666512 161.279 0.666508ZM175.941-0.666369 186.604-0.666365 186.604 0.666518 175.941 0.666514ZM190.602-0.666363 201.265-0.666359 201.265 0.666524 190.602 0.66652ZM205.264-0.666357 215.927-0.666353 215.927 0.66653 205.264 0.666526ZM219.926-0.666351 230.589-0.666347 230.589 0.666536 219.926 0.666532ZM234.587-0.666345 245.25-0.666341 245.25 0.666542 234.587 0.666538ZM247.8-3.99855 255.797 0.000104951 247.8 3.99875Z" fill="#4A7EBB" transform="matrix(-1.00015 0 0 1 685.334 215.469)"/><text fill="#0070C0" font-family="Monaco,Monaco_MSFontService,sans-serif" font-weight="400" font-size="15" transform="matrix(1 0 0 0.999855 506.23 205)">2.3.<tspan font-family="SimHei,SimHei_MSFontService,sans-serif" font-size="15" x="35.3265" y="0">提交</tspan><tspan font-size="15" x="64.6542" y="0">/</tspan><tspan font-family="SimHei,SimHei_MSFontService,sans-serif" font-size="15" x="73.4858" y="0">回滚</tspan></text><path d="M0-0.666441 10.6631-0.666441 10.6631 0.666441 0 0.666441ZM14.6617-0.666441 25.3248-0.666441 25.3248 0.666441 14.6617 0.666441ZM29.3234-0.666441 34.1533-0.666441C34.5213-0.666441 34.8197-0.368065 34.8197 0L34.8197 5.8332 33.4868 5.8332 33.4868 0 34.1533 0.666441 29.3234 0.666441ZM34.8197 9.83185 34.8197 20.4949 33.4868 20.4949 33.4868 9.83185ZM34.8197 24.4936 34.8197 35.1566 33.4868 35.1566 33.4868 24.4936ZM34.8197 39.1553 34.8197 49.8183 33.4868 49.8183 33.4868 39.1553ZM34.8197 53.817 34.8197 64.48 33.4868 64.48 33.4868 53.817ZM34.8197 68.4787 34.8197 79.1417 33.4868 79.1417 33.4868 68.4787ZM34.8197 83.1404 34.8197 93.8035 33.4868 93.8035 33.4868 83.1404ZM34.8197 97.8021 34.8197 108.465 33.4868 108.465 33.4868 97.8021ZM34.8197 112.464 34.8197 123.127 33.4868 123.127 33.4868 112.464ZM34.8197 127.126 34.8197 137.789 33.4868 137.789 33.4868 127.126ZM34.8197 141.787 34.8197 152.45 33.4868 152.45 33.4868 141.787ZM34.8197 156.449 34.8197 161.344C34.8197 161.712 34.5213 162.011 34.1533 162.011L28.3854 162.011 28.3854 160.678 34.1533 160.678 33.4868 161.344 33.4868 156.449ZM24.3867 162.011 13.7237 162.011 13.7237 160.678 24.3867 160.678ZM9.72501 162.011 7.9973 162.011 7.9973 160.678 9.72501 160.678ZM9.33018 165.343 1.33288 161.344 9.33018 157.345Z" fill="#4A7EBB" transform="matrix(1.00015 0 0 -1 756.5 413.807)"/><text fill="#0070C0" font-family="Monaco,Monaco_MSFontService,sans-serif" font-weight="400" font-size="15" transform="matrix(1 0 0 0.999855 802.346 314)">2.2.<tspan font-family="SimHei,SimHei_MSFontService,sans-serif" font-size="15" x="0" y="19.0028">检查</tspan><tspan font-family="SimHei,SimHei_MSFontService,sans-serif" font-size="15" x="0" y="36.0052">分支</tspan><tspan font-family="SimHei,SimHei_MSFontService,sans-serif" font-size="15" x="0" y="54.0078">事务</tspan><tspan font-family="SimHei,SimHei_MSFontService,sans-serif" font-size="15" x="0" y="71.0103">状态</tspan></text><g clip-path="url(#clip10)"><g clip-path="url(#clip11)" filter="url(#fx2)" transform="translate(226 309)"><g clip-path="url(#clip12)"><path d="M6.50003 10.7013C6.50003 8.58449 8.21632 6.86844 10.3335 6.86844L141.667 6.86844C143.784 6.86844 145.5 8.58449 145.5 10.7013L145.5 26.0322C145.5 28.149 143.784 29.8651 141.667 29.8651L10.3335 29.8651C8.21632 29.8651 6.50003 28.149 6.50003 26.0322Z" stroke="#000000" stroke-linejoin="round" stroke-miterlimit="10" fill="#4C5252" fill-rule="evenodd"/></g></g><g clip-path="url(#clip13)" filter="url(#fx3)" transform="translate(221 307)"><g clip-path="url(#clip14)"><path d="M4.16016-1.14258 4.16016-9.90967C3.33008-9.25049 2.40234-8.73779 1.37695-8.37158L1.37695-9.60205C2.44629-10.0562 3.37402-10.6445 4.16016-11.3672L5.52246-11.3672 5.52246-1.14258 8.25439-1.14258 8.25439 0 1.37695 0 1.37695-1.14258ZM13.3287 0.344238C13.0016 0.344238 12.7208 0.227051 12.4864-0.00732422 12.252-0.241699 12.1349-0.522461 12.1349-0.849609 12.1349-1.17676 12.252-1.45752 12.4864-1.69189 12.7208-1.92627 13.0016-2.04346 13.3287-2.04346 13.6558-2.04346 13.9366-1.92627 14.171-1.69189 14.4054-1.45752 14.5225-1.17676 14.5225-0.849609 14.5225-0.522461 14.4054-0.241699 14.171-0.00732422 13.9366 0.227051 13.6558 0.344238 13.3287 0.344238ZM22.8415 0 22.8415-3.17871 18.0148-3.17871 18.0148-4.32129 22.8413-11.3672 24.2111-11.3672 24.2111-4.32129 26.3132-4.32129 26.3132-3.17871 24.2111-3.17871 24.2111 0ZM22.8415-4.32129 22.8415-9.30702 19.4618-4.32129ZM30.992 0.344238C30.6648 0.344238 30.384 0.227051 30.1497-0.00732422 29.9153-0.241699 29.7981-0.522461 29.7981-0.849609 29.7981-1.17676 29.9153-1.45752 30.1497-1.69189 30.384-1.92627 30.6648-2.04346 30.992-2.04346 31.3191-2.04346 31.5999-1.92627 31.8342-1.69189 32.0686-1.45752 32.1858-1.17676 32.1858-0.849609 32.1858-0.522461 32.0686-0.241699 31.8342-0.00732422 31.5999 0.227051 31.3191 0.344238 30.992 0.344238Z" fill="#FFFFFF" transform="matrix(1 0 0 0.999855 15.4378 25)"/><path d="M13.418-1.40625C13.6914-1.17188 14.043-0.9375 14.4727-0.703125 14.043 0.429687 13.623 1.12305 13.2129 1.37695 12.8027 1.63086 12.334 1.24023 11.8066 0.205078 11.2793-0.830078 10.9961-2.09961 10.957-3.60352 10.918-5.10742 10.918-6.64062 10.957-8.20312L9.375-8.20312C9.29688-6.67969 9.17969-5.42969 9.02344-4.45312 9.375-4.21875 9.88281-3.80859 10.5469-3.22266 10.1953-2.91016 9.90234-2.55859 9.66797-2.16797 9.35547-2.55859 9.0625-2.89062 8.78906-3.16406 8.24219-1.95312 7.71484-1.04492 7.20703-0.439453 6.69922 0.166016 6.15234 0.78125 5.56641 1.40625 5.37109 1.09375 4.96094 0.761719 4.33594 0.410156 5.19531-0.0585937 5.92773-0.683594 6.5332-1.46484 7.13867-2.24609 7.55859-3.08594 7.79297-3.98438 7.32422-4.33594 6.77734-4.72656 6.15234-5.15625 6.38672-5.42969 6.62109-5.72266 6.85547-6.03516 7.20703-5.80078 7.59766-5.54688 8.02734-5.27344 8.10547-6.01562 8.16406-6.99219 8.20312-8.20312 7.5-8.20312 6.83594-8.18359 6.21094-8.14453L6.21094-9.25781C6.83594-9.21875 7.5-9.19922 8.20312-9.19922 8.20312-10.332 8.18359-11.3477 8.14453-12.2461 8.49609-12.207 8.92578-12.1875 9.43359-12.1875 9.39453-11.0938 9.375-10.0977 9.375-9.19922L12.0117-9.19922C11.9336-7.63672 11.9043-6.05469 11.9238-4.45312 11.9434-2.85156 12.1582-1.61133 12.5684-0.732422 12.9785 0.146484 13.2617-0.078125 13.418-1.40625ZM1.40625 0.0585938C1.83594 0.0976562 2.1875 0.117187 2.46094 0.117188 2.73438 0.117187 2.87109-7.45058e-09 2.87109-0.234375L2.87109-3.98438C2.08984-3.59375 1.48437-3.26172 1.05469-2.98828 0.976562-3.30078 0.800781-3.78906 0.527344-4.45312 1.03516-4.53125 1.81641-4.76562 2.87109-5.15625L2.87109-7.79297C2.05078-7.79297 1.32812-7.77344 0.703125-7.73438L0.703125-8.84766C1.28906-8.80859 2.01172-8.78906 2.87109-8.78906 2.87109-10.0391 2.85156-11.1523 2.8125-12.1289L3.98438-12.1289C3.94531-11.2695 3.92578-10.1562 3.92578-8.78906 4.23828-8.78906 4.72656-8.80859 5.39062-8.84766L5.39062-7.73438C4.76562-7.77344 4.27734-7.79297 3.92578-7.79297L3.92578-5.625C4.16016-5.70312 4.62891-5.89844 5.33203-6.21094 5.33203-5.85938 5.35156-5.50781 5.39062-5.15625 5.15625-5.03906 4.66797-4.80469 3.92578-4.45312L3.92578 0C3.88672 0.46875 3.74023 0.800781 3.48633 0.996094 3.23242 1.19141 2.63672 1.34766 1.69922 1.46484 1.69922 0.957031 1.60156 0.488281 1.40625 0.0585938ZM27.0857-7.26562C27.8279-7.26562 28.5115-7.28516 29.1365-7.32422L29.1365-6.15234C28.5115-6.19141 27.8474-6.21094 27.1443-6.21094L26.324-6.21094 26.324 0.175781C26.3631 0.644531 26.2166 0.966797 25.8845 1.14258 25.5525 1.31836 24.8982 1.46484 23.9216 1.58203 23.8435 1.11328 23.6287 0.644531 23.2771 0.175781 23.9412 0.253906 24.4099 0.283203 24.6834 0.263672 24.9568 0.244141 25.1131 0.0390625 25.1521-0.351562L25.1521-6.21094 22.8084-6.21094C22.0662-6.21094 21.3631-6.19141 20.699-6.15234L20.699-7.32422C21.4021-7.28516 22.1052-7.26562 22.8084-7.26562ZM20.0545-7.96875C19.7029-7.77344 19.4392-7.51953 19.2634-7.20703 19.0877-6.89453 18.8435-6.50391 18.531-6.03516L18.531-0.761719C18.531-0.253906 18.5506 0.527344 18.5896 1.58203L17.3591 1.58203C17.3982 0.410156 17.4177-0.46875 17.4177-1.05469L17.4177-4.80469C17.0662-4.21875 16.5974-3.63281 16.0115-3.04688 15.7381-3.4375 15.4841-3.76953 15.2498-4.04297 16.1482-4.90234 16.8513-5.72266 17.3591-6.50391 17.867-7.28516 18.3162-8.02734 18.7068-8.73047 19.0974-8.49609 19.5466-8.24219 20.0545-7.96875ZM26.0896-11.25C26.7537-11.25 27.4373-11.2695 28.1404-11.3086L28.1404-10.1953C27.4373-10.2344 26.7146-10.2539 25.9724-10.2539L23.8045-10.2539C22.9451-10.2539 22.2029-10.2344 21.5779-10.1953L21.5779-11.3086C22.2029-11.2695 22.9451-11.25 23.8045-11.25ZM19.5271-11.543C19.2146-11.5039 18.8045-11.084 18.2966-10.2832 17.7888-9.48242 17.0857-8.59375 16.1873-7.61719 15.9529-7.92969 15.699-8.22266 15.4256-8.49609 16.0506-9.12109 16.617-9.79492 17.1248-10.5176 17.6326-11.2402 18.0037-11.875 18.2381-12.4219 18.6287-12.1875 19.0584-11.8945 19.5271-11.543ZM35.9488-11.7773C35.8706-10.6836 35.8316-9.74609 35.8316-8.96484L35.8316-0.351562 37.7652-0.351562 37.7652-9.66797C37.7652-10.293 37.7261-10.9961 37.648-11.7773L39.1128-11.7773C39.0347-11.1523 38.9956-10.4883 38.9956-9.78516L38.9956-0.351562 41.2808-0.351562C41.9058-0.351562 42.6675-0.390625 43.566-0.46875L43.566 0.820312C42.6675 0.742188 41.9253 0.703125 41.3394 0.703125L32.4331 0.703125C31.8863 0.703125 31.105 0.742188 30.0894 0.820312L30.0894-0.46875C31.105-0.390625 31.8667-0.351562 32.3745-0.351562L34.5425-0.351562 34.5425-9.02344C34.5425-9.84375 34.4839-10.7617 34.3667-11.7773ZM31.73-8.84766C32.1988-7.63672 32.8433-5.85937 33.6636-3.51562 33.2339-3.4375 32.7847-3.28125 32.316-3.04688 31.6128-5.3125 30.9878-7.07031 30.441-8.32031 30.8316-8.47656 31.2613-8.65234 31.73-8.84766ZM43.0386-8.49609C42.5308-7.16797 41.8277-5.3125 40.9292-2.92969 40.5386-3.16406 40.1285-3.33984 39.6988-3.45703 40.5191-4.98047 41.1441-6.81641 41.5738-8.96484 42.0035-8.80859 42.4917-8.65234 43.0386-8.49609ZM50.6712-11.6016C50.3587-11.3281 50.0853-11.0156 49.8509-10.6641L56.3548-10.6641C56.0032-10.0781 55.5442-9.45312 54.9778-8.78906 54.4114-8.125 53.6985-7.5 52.8392-6.91406 53.386-6.5625 54.1282-6.29883 55.0657-6.12305 56.0032-5.94727 57.1165-5.83984 58.4056-5.80078 58.0931-5.44922 57.8782-5.03906 57.761-4.57031 56.6673-4.64844 55.5931-4.84375 54.5384-5.15625 53.4837-5.46875 52.6048-5.83984 51.9017-6.26953 50.6517-5.68359 49.5189-5.25391 48.5032-4.98047 47.4876-4.70703 46.4915-4.49219 45.5149-4.33594 45.3587-4.80469 45.1243-5.21484 44.8118-5.56641 45.6712-5.56641 46.6478-5.68359 47.7415-5.91797 48.8353-6.15234 49.9095-6.48437 50.9642-6.91406 50.1439-7.69531 49.4407-8.49609 48.8548-9.31641 48.1907-8.49609 47.5071-7.8125 46.804-7.26562 46.5306-7.57812 46.179-7.8125 45.7493-7.96875 46.8431-8.75 47.6439-9.50195 48.1517-10.2246 48.6595-10.9473 49.0306-11.6211 49.2649-12.2461 49.7728-11.9727 50.2415-11.7578 50.6712-11.6016ZM50.554-3.86719C50.6321-4.33594 50.6712-4.88281 50.6712-5.50781 51.1399-5.42969 51.6087-5.37109 52.0774-5.33203 51.9603-5.09766 51.8431-4.60938 51.7259-3.86719L56.472-3.86719C56.4329-3.39844 56.3939-2.86133 56.3548-2.25586 56.3157-1.65039 56.2474-0.996094 56.1497-0.292969 56.0521 0.410156 55.7689 0.820312 55.3001 0.9375 54.8314 1.05469 54.0892 1.17188 53.0735 1.28906 52.9954 0.78125 52.8001 0.351562 52.4876 0 53.6204 0 54.304-0.0390625 54.5384-0.117188 54.7728-0.195312 54.929-0.410156 55.0071-0.761719L55.1829-2.98828 51.6087-2.98828C51.0618-1.30859 50.2903-0.214844 49.2942 0.292969 48.2981 0.800781 47.2337 1.25 46.1009 1.64062 45.9837 1.28906 45.7103 0.878906 45.2806 0.410156 46.2181 0.332031 47.1946 0.0390625 48.2103-0.46875 49.2259-0.976562 49.9485-1.81641 50.3782-2.98828L49.0306-2.98828C47.8587-2.98828 46.9993-2.94922 46.4524-2.87109L46.4524-3.92578C47.0384-3.88672 47.9173-3.86719 49.0892-3.86719ZM51.9603-7.55859C52.7415-8.02734 53.5032-8.76953 54.2454-9.78516L49.8509-9.78516C50.5931-8.80859 51.2962-8.06641 51.9603-7.55859Z" fill="#FFFFFF" transform="matrix(1 0 0 0.999855 50.7643 25)"/><path d="M1.1499-0.241699 1.1499-1.6333C2.32178-1.07666 3.38623-0.79834 4.34326-0.79834 5.27588-0.79834 5.9375-1.09627 6.32812-1.69212 6.51367-1.98021 6.60644-2.29275 6.60645-2.62974 6.60644-3.41602 5.99136-4.16569 4.7612-4.87873L3.26031-5.7439C1.9315-6.50539 1.26709-7.48169 1.26709-8.67279 1.26709-9.69788 1.6333-10.474 2.36572-11.0012 3.01514-11.4698 3.87207-11.7041 4.93652-11.7041 5.74707-11.7041 6.53076-11.5869 7.2876-11.3525L7.2876-10.0854C6.45264-10.4028 5.63965-10.5615 4.84863-10.5615 4.29199-10.5615 3.81348-10.4202 3.41309-10.1374 2.96387-9.82048 2.73926-9.39629 2.73926-8.86482 2.73926-8.40172 2.88818-8.01659 3.18604-7.70943 3.43506-7.45102 3.81592-7.16824 4.32861-6.86108L6.21094-5.73486C7.45605-5.00732 8.07861-4.05029 8.07861-2.86377 8.07861-1.77002 7.66357-0.942383 6.8335-0.380859 6.12061 0.102539 5.19043 0.344238 4.04297 0.344238 3.19824 0.344238 2.23389 0.148926 1.1499-0.241699ZM14.2955 0.212402C14.5982 0.710449 14.8643 1.06689 15.0938 1.28174 15.3966 1.56494 15.7848 1.76514 16.2584 1.88232 16.6881 1.98975 17.1642 2.04346 17.6866 2.04346L17.8184 2.04346 17.8184 3.17871 17.4742 3.17871C16.693 3.17871 16.0948 3.11279 15.6798 2.98096 15.1573 2.81006 14.6641 2.47803 14.2003 1.98486 13.8194 1.57959 13.4727 1.02783 13.1602 0.32959 12.2325 0.227051 11.5025-0.0805664 10.9703-0.593262 10.482-1.05713 10.0938-1.75781 9.80575-2.69531 9.50302-3.67676 9.35165-4.73145 9.35165-5.85938 9.35165-7.41211 9.62509-8.70361 10.172-9.73389 10.8653-11.0474 11.9176-11.7041 13.3287-11.7041 14.7789-11.7041 15.8433-11.0229 16.5221-9.66064 17.0445-8.61572 17.3058-7.2876 17.3058-5.67627 17.3058-3.68896 16.9102-2.14355 16.1192-1.04004 15.6798-0.429688 15.0719-0.012207 14.2955 0.212402ZM13.3287-10.5615C12.3766-10.5615 11.6881-9.93942 11.2633-8.69522 10.9752-7.85599 10.8311-6.85089 10.8311-5.67993 10.8311-4.50897 10.9752-3.50388 11.2633-2.66464 11.6881-1.42044 12.3766-0.79834 13.3287-0.79834 14.2808-0.79834 14.9693-1.42044 15.3941-2.66464 15.6822-3.50388 15.8263-4.50897 15.8263-5.67993 15.8263-6.85089 15.6822-7.85599 15.3941-8.69522 14.9693-9.93942 14.2808-10.5615 13.3287-10.5615ZM25.405-1.25244 25.405 0 19.2673 0 19.2673-11.3672 20.7468-11.3672 20.7468-1.25244Z" fill="#FFFFFF" transform="matrix(1 0 0 0.999855 118.251 25)"/></g></g></g><path d="M232.5 317.287C232.5 315.171 234.216 313.455 236.333 313.455L367.667 313.455C369.784 313.455 371.5 315.171 371.5 317.287L371.5 332.618C371.5 334.735 369.784 336.451 367.667 336.451L236.333 336.451C234.216 336.451 232.5 334.735 232.5 332.618Z" stroke="#000000" stroke-width="0.999807" stroke-linejoin="round" stroke-miterlimit="10" fill="#4C5252" fill-rule="evenodd"/><text fill="#FFFFFF" font-family="Monaco,Monaco_MSFontService,sans-serif" font-weight="400" font-size="15" transform="matrix(1 0 0 0.999855 236.438 330)">1.4.<tspan font-family="SimHei,SimHei_MSFontService,sans-serif" font-size="15" x="35.3265" y="0">执行业务</tspan><tspan font-size="15" x="102.814" y="0">SQL</tspan><tspan fill="#595959" font-size="15" x="-120.686" y="15.0022">1.2.</tspan><tspan fill="#595959" font-family="SimHei,SimHei_MSFontService,sans-serif" font-size="15" x="-85.3598" y="15.0022">调用分支</tspan></text></g></svg>