<svg width="869" height="416" xmlns="http://www.w3.org/2000/svg" xmlns:xlink="http://www.w3.org/1999/xlink" overflow="hidden"><defs><filter id="fx0" x="-10%" y="-10%" width="120%" height="120%" filterUnits="userSpaceOnUse" primitiveUnits="userSpaceOnUse"><feComponentTransfer color-interpolation-filters="sRGB"><feFuncR type="discrete" tableValues="0 0"/><feFuncG type="discrete" tableValues="0 0"/><feFuncB type="discrete" tableValues="0 0"/><feFuncA type="linear" slope="0.34902" intercept="0"/></feComponentTransfer><feGaussianBlur stdDeviation="1.39929 1.40095"/></filter><filter id="fx1" x="-10%" y="-10%" width="120%" height="120%" filterUnits="userSpaceOnUse" primitiveUnits="userSpaceOnUse"><feComponentTransfer color-interpolation-filters="sRGB"><feFuncR type="discrete" tableValues="0 0"/><feFuncG type="discrete" tableValues="0 0"/><feFuncB type="discrete" tableValues="0 0"/><feFuncA type="linear" slope="0.34902" intercept="0"/></feComponentTransfer><feGaussianBlur stdDeviation="1.39929 1.40095"/></filter><filter id="fx2" x="-10%" y="-10%" width="120%" height="120%" filterUnits="userSpaceOnUse" primitiveUnits="userSpaceOnUse"><feComponentTransfer color-interpolation-filters="sRGB"><feFuncR type="discrete" tableValues="0 0"/><feFuncG type="discrete" tableValues="0 0"/><feFuncB type="discrete" tableValues="0 0"/><feFuncA type="linear" slope="0.34902" intercept="0"/></feComponentTransfer><feGaussianBlur stdDeviation="1.39929 1.40095"/></filter><filter id="fx3" x="-10%" y="-10%" width="120%" height="120%" filterUnits="userSpaceOnUse" primitiveUnits="userSpaceOnUse"><feComponentTransfer color-interpolation-filters="sRGB"><feFuncR type="discrete" tableValues="0 0"/><feFuncG type="discrete" tableValues="0 0"/><feFuncB type="discrete" tableValues="0 0"/><feFuncA type="linear" slope="0.34902" intercept="0"/></feComponentTransfer><feGaussianBlur stdDeviation="1.39929 1.40095"/></filter><clipPath id="clip4"><rect x="0" y="0" width="869" height="416"/></clipPath><clipPath id="clip5"><path d="M259.334 112.633C252.798 112.633 247.5 117.938 247.5 124.481L247.5 171.87C247.5 178.413 252.798 183.718 259.334 183.718L361.666 183.718C368.202 183.718 373.5 178.413 373.5 171.87L373.5 124.481C373.5 117.938 368.202 112.633 361.666 112.633ZM1.29491e-05 6.19888e-06 869 6.19888e-06 869 416 1.29491e-05 416Z" fill-rule="evenodd" clip-rule="evenodd"/></clipPath><clipPath id="clip6"><rect x="1" y="-1" width="137" height="85"/></clipPath><clipPath id="clip7"><rect x="0" y="0" width="139" height="84"/></clipPath><clipPath id="clip8"><rect x="11" y="9" width="67" height="29"/></clipPath><clipPath id="clip9"><rect x="0" y="0" width="90" height="50"/></clipPath><clipPath id="clip10"><path d="M259.167 236.78C252.723 236.78 247.5 242.01 247.5 248.461L247.5 295.183C247.5 301.634 252.723 306.863 259.167 306.863L361.833 306.863C368.277 306.863 373.5 301.634 373.5 295.183L373.5 248.461C373.5 242.01 368.277 236.78 361.833 236.78ZM1.29491e-05 6.19888e-06 869 6.19888e-06 869 416 1.29491e-05 416Z" fill-rule="evenodd" clip-rule="evenodd"/></clipPath><clipPath id="clip11"><rect x="1" y="-1" width="137" height="83"/></clipPath><clipPath id="clip12"><rect x="0" y="0" width="139" height="83"/></clipPath><clipPath id="clip13"><rect x="11" y="9" width="67" height="29"/></clipPath><clipPath id="clip14"><rect x="0" y="0" width="90" height="51"/></clipPath></defs><g clip-path="url(#clip4)"><rect x="0" y="0" width="869" height="416.493" fill="#FFFFFF"/><path d="M105.833 339.451 105.833 360.802 103.167 360.802 103.167 339.451ZM109.831 362.136 131.156 362.136 131.156 364.805 109.831 364.805ZM139.153 362.136 160.478 362.136 160.478 364.805 139.153 364.805ZM168.475 362.136 189.801 362.136 189.801 364.805 168.475 364.805ZM197.797 362.136 219.123 362.136 219.123 364.805 197.797 364.805ZM227.12 362.136 248.445 362.136 248.445 364.805 227.12 364.805ZM256.442 362.136 277.767 362.136 277.767 364.805 256.442 364.805ZM285.764 362.136 307.089 362.136 307.089 364.805 285.764 364.805ZM315.086 362.136 336.411 362.136 336.411 364.805 315.086 364.805ZM344.408 362.136 365.733 362.136 365.733 364.805 344.408 364.805ZM373.73 362.136 395.055 362.136 395.055 364.805 373.73 364.805ZM403.052 362.136 424.377 362.136 424.377 364.805 403.052 364.805ZM432.374 362.136 453.699 362.136 453.699 364.805 432.374 364.805ZM461.696 362.136 483.021 362.136 483.021 364.805 461.696 364.805ZM491.018 362.136 512.344 362.136 512.344 364.805 491.018 364.805ZM520.34 362.136 541.666 362.136 541.666 364.805 520.34 364.805ZM549.663 362.136 570.988 362.136 570.988 364.805 549.663 364.805ZM578.985 362.136 600.31 362.136 600.31 364.805 578.985 364.805ZM608.307 362.136 629.632 362.136 629.632 364.805 608.307 364.805ZM637.629 362.136 658.954 362.136 658.954 364.805 637.629 364.805ZM666.951 362.136 688.276 362.136 688.276 364.805 666.951 364.805ZM696.273 362.136 717.598 362.136 717.598 364.805 696.273 364.805ZM725.595 362.136 746.92 362.136 746.92 364.805 725.595 364.805ZM754.917 362.136 776.242 362.136 776.242 364.805 754.917 364.805ZM784.239 362.136 791.93 362.136 790.598 363.471 790.598 349.82 793.263 349.82 793.263 363.471C793.263 364.207 792.666 364.805 791.93 364.805L784.239 364.805ZM787.932 346.908 791.93 338.901 795.929 346.908Z" fill="#4A7EBB"/><text fill="#595959" font-family="SimHei,SimHei_MSFontService,sans-serif" font-weight="400" font-size="19" transform="matrix(1 0 0 1.00119 390.941 42)">开启全局事务<tspan font-size="19" x="-17.4662" y="349.585">提交、回滚全局事务</tspan><tspan font-size="19" x="132.431" y="172.795">分支事务的注册、报告</tspan></text><rect x="120.5" y="80.5955" width="357" height="259.307" stroke="#4C5252" stroke-width="2.99885" stroke-linejoin="round" stroke-miterlimit="10" fill="none"/><rect x="69.5" y="80.5955" width="70" height="259.307" stroke="#AD2A26" stroke-width="2.99885" stroke-linejoin="round" stroke-miterlimit="10" fill="#AD2A26"/><text fill="#FFFFFF" font-family="Monaco,Monaco_MSFontService,sans-serif" font-weight="400" font-size="19" transform="matrix(1 0 0 1.00119 92.6826 216)">TM</text><g clip-path="url(#clip5)"><g clip-path="url(#clip6)" filter="url(#fx0)" transform="translate(241 109)"><g clip-path="url(#clip7)"><path d="M6.50003 17.8977C6.50003 11.3544 11.7981 6.05009 18.3336 6.05009L120.666 6.05009C127.202 6.05009 132.5 11.3544 132.5 17.8977L132.5 65.2866C132.5 71.8299 127.202 77.1342 120.666 77.1342L18.3336 77.1342C11.7981 77.1342 6.50003 71.8299 6.50003 65.2866Z" stroke="#4C5252" stroke-linejoin="round" stroke-miterlimit="10" fill="#4C5252" fill-rule="evenodd"/></g></g><g clip-path="url(#clip8)" filter="url(#fx1)" transform="translate(265 127)"><g clip-path="url(#clip9)"><path d="M12.0234-6.16016C11.6276-6.50651 11.2565-6.72917 10.9102-6.82812 11.6523-8.26302 12.2337-9.7845 12.6543-11.3926 13.0749-13.0007 13.3099-14.3242 13.3594-15.3633 13.9036-15.1654 14.4232-15.0417 14.918-14.9922 14.6211-14.2995 14.3242-13.112 14.0273-11.4297L16.4023-11.4297C16.9466-11.4297 17.4661-11.4544 17.9609-11.5039L17.9609-10.3164C17.2188-10.3659 16.7734-10.3906 16.625-10.3906 16.625-9.00521 16.5508-7.68164 16.4023-6.41992 16.2539-5.1582 15.8333-3.78516 15.1406-2.30078 15.388-1.80599 15.7715-1.34831 16.291-0.927734 16.8105-0.507161 17.4414-0.123698 18.1836 0.222656 17.5898 0.61849 17.2682 1.0638 17.2188 1.55859 15.9818 0.816406 14.9922-0.0989584 14.25-1.1875 13.2109-0.0494792 12.0482 0.940104 10.7617 1.78125 10.4154 1.38542 9.94531 1.01432 9.35156 0.667969 10.3906 0.222656 11.207-0.222656 11.8008-0.667969 12.3945-1.11328 12.9635-1.68229 13.5078-2.375 12.9635-3.71094 12.6172-5.34375 12.4688-7.27344ZM5.56641-10.5391C5.12109-10.1927 4.6263-9.52474 4.08203-8.53516L4.08203-1.41016C4.08203-0.519531 4.10677 0.494792 4.15625 1.63281L2.82031 1.63281C2.86979 0.494792 2.89453-0.519531 2.89453-1.41016L2.89453-6.82812C2.44922-6.23438 2.02865-5.64062 1.63281-5.04688 1.38542-5.54167 1.11328-5.9375 0.816406-6.23438 1.41016-6.82812 2.05339-7.61979 2.74609-8.60938 3.4388-9.59896 3.98307-10.6133 4.37891-11.6523 4.72526-11.1081 5.12109-10.737 5.56641-10.5391ZM10.2422-5.86328C10.1927-4.92318 10.168-3.6862 10.168-2.15234 10.6133-2.4987 11.0339-2.89453 11.4297-3.33984L12.0234-2.15234C11.6771-1.95443 11.2689-1.65755 10.7988-1.26172 10.3288-0.865885 9.87109-0.445312 9.42578 0L8.68359-1.11328C8.93099-1.3112 9.05469-1.63281 9.05469-2.07812L9.05469-4.89844 7.42188-4.89844C7.42188-3.8099 7.33529-2.83268 7.16211-1.9668 6.98893-1.10091 6.58073-0.173177 5.9375 0.816406 5.59115 0.420573 5.19531 0.123698 4.75-0.0742188 5.49219-0.915365 5.92513-1.91732 6.04883-3.08008 6.17253-4.24284 6.20963-5.17057 6.16016-5.86328ZM6.97656-13.6562C6.92708-12.8151 6.90234-11.8008 6.90234-10.6133L8.01562-10.6133C8.01562-12.5924 7.99088-14.1016 7.94141-15.1406L9.20312-15.1406C9.15365-14.151 9.12891-12.6419 9.12891-10.6133L10.3906-10.6133C10.3906-11.6029 10.3659-12.6172 10.3164-13.6562L11.5039-13.6562C11.4544-13.112 11.4297-12.444 11.4297-11.6523 11.4297-10.9102 11.4544-10.2422 11.5039-9.64844L5.64062-9.64844C5.6901-10.3411 5.71484-11.0091 5.71484-11.6523 5.71484-12.2956 5.6901-12.9635 5.64062-13.6562ZM13.4336-8.38672C13.6315-6.30859 13.9531-4.70052 14.3984-3.5625 14.7943-4.55208 15.054-5.55404 15.1777-6.56836 15.3014-7.58268 15.388-8.85677 15.4375-10.3906L13.7305-10.3906C13.5326-9.7474 13.2604-9.02995 12.9141-8.23828ZM5.04688-14.3984C4.20573-13.3099 3.19141-12.0977 2.00391-10.7617 1.70703-11.1081 1.33594-11.4049 0.890625-11.6523 2.32552-12.9388 3.3151-14.151 3.85938-15.2891 4.15625-14.9922 4.55208-14.6953 5.04688-14.3984ZM10.9844-7.34766C10.2422-7.39714 9.30208-7.42188 8.16406-7.42188 7.02604-7.42188 6.08594-7.39714 5.34375-7.34766L5.34375-8.46094C6.08594-8.41146 7.02604-8.38672 8.16406-8.38672 9.30208-8.38672 10.2422-8.41146 10.9844-8.46094ZM29.6439 1.70703 28.2337 1.70703C28.2832 0.519531 28.3079-0.59375 28.3079-1.63281L28.3079-11.9492C28.3079-12.7904 28.2832-13.7057 28.2337-14.6953L35.1361-14.6953C35.0866-14.0026 35.0371-13.248 34.9876-12.4316 34.9382-11.6152 34.8639-10.9967 34.765-10.5762 34.666-10.1556 34.3691-9.84635 33.8744-9.64844 33.3796-9.45052 32.7363-9.30208 31.9447-9.20312 31.7962-9.79688 31.5736-10.2917 31.2767-10.6875 32.5137-10.6875 33.2064-10.8236 33.3548-11.0957 33.5033-11.3678 33.5775-12.1471 33.5775-13.4336L29.6439-13.4336 29.6439-8.46094 35.804-8.46094C35.6061-7.17448 35.3587-6.02409 35.0619-5.00977 34.765-3.99544 34.3691-2.99349 33.8744-2.00391 34.7155-1.01432 35.6803-0.272135 36.7689 0.222656 36.4225 0.519531 36.0762 0.940104 35.7298 1.48438 34.7897 0.841146 33.8991 0.0494792 33.0579-0.890625 32.4642-0.0494792 31.6478 0.841146 30.6087 1.78125 30.3613 1.33594 30.0892 0.940104 29.7923 0.59375 30.485 0.0989583 31.252-0.742188 32.0931-1.92969 31.4499-2.77083 30.8066-4.52734 30.1634-7.19922L29.6439-7.19922ZM26.6009-14.6211C26.5514-14.2253 26.5267-13.3099 26.5267-11.875L26.5267-0.890625C26.5267 0.148437 26.304 0.779297 25.8587 1.00195 25.4134 1.22461 24.7949 1.4349 24.0033 1.63281 23.8053 0.890625 23.5579 0.296875 23.2611-0.148438 23.9538-0.148438 24.4486-0.173177 24.7454-0.222656 25.0423-0.272135 25.1908-0.643229 25.1908-1.33594L25.1908-5.04688 22.2962-5.04688C22.1973-3.8099 22.0241-2.67188 21.7767-1.63281 21.5293-0.59375 21.1829 0.420573 20.7376 1.41016 20.3418 1.0638 19.8717 0.766927 19.3275 0.519531 19.9212-0.56901 20.3294-1.5957 20.5521-2.56055 20.7747-3.52539 20.9232-4.5026 20.9974-5.49219 21.0716-6.48177 21.1087-8.04036 21.1087-10.168 21.1087-12.2956 21.084-13.7799 21.0345-14.6211ZM25.1908-6.30859 25.1908-9.27734 22.4447-9.27734 22.3704-6.30859ZM25.1908-10.5391 25.1908-13.3594 22.4447-13.3594 22.4447-10.5391ZM31.4994-7.19922C31.8952-5.31901 32.3652-3.95833 32.9095-3.11719 33.5033-4.25521 33.9238-5.61589 34.1712-7.19922ZM45.78-14.6953C45.3841-14.349 45.0378-13.9531 44.7409-13.5078L52.9792-13.5078C52.5339-12.7656 51.9525-11.974 51.235-11.1328 50.5176-10.2917 49.6146-9.5 48.5261-8.75781 49.2188-8.3125 50.1589-7.97852 51.3464-7.75586 52.5339-7.5332 53.944-7.39714 55.5768-7.34766 55.181-6.90234 54.9089-6.38281 54.7604-5.78906 53.375-5.88802 52.0143-6.13542 50.6784-6.53125 49.3425-6.92708 48.2292-7.39713 47.3386-7.94141 45.7552-7.19922 44.3203-6.65495 43.0339-6.30859 41.7474-5.96224 40.4857-5.6901 39.2487-5.49219 39.0508-6.08594 38.7539-6.60547 38.3581-7.05078 39.4466-7.05078 40.6836-7.19922 42.069-7.49609 43.4544-7.79297 44.8151-8.21354 46.1511-8.75781 45.112-9.7474 44.2214-10.7617 43.4792-11.8008 42.638-10.7617 41.7721-9.89583 40.8815-9.20312 40.5352-9.59896 40.0899-9.89583 39.5456-10.0938 40.931-11.0833 41.9453-12.0358 42.5886-12.9512 43.2318-13.8665 43.7018-14.7201 43.9987-15.5117 44.6419-15.1654 45.2357-14.8932 45.78-14.6953ZM45.6315-4.89844C45.7305-5.49219 45.78-6.1849 45.78-6.97656 46.3737-6.8776 46.9675-6.80339 47.5612-6.75391 47.4128-6.45703 47.2643-5.83854 47.1159-4.89844L53.1276-4.89844C53.0781-4.30469 53.0287-3.62435 52.9792-2.85742 52.9297-2.09049 52.8431-1.26172 52.7194-0.371094 52.5957 0.519531 52.237 1.03906 51.6432 1.1875 51.0495 1.33594 50.1094 1.48438 48.8229 1.63281 48.724 0.989583 48.4766 0.445312 48.0807 0 49.5156 0 50.3815-0.0494792 50.6784-0.148438 50.9753-0.247396 51.1732-0.519531 51.2721-0.964844L51.4948-3.78516 46.9675-3.78516C46.2747-1.65755 45.2975-0.272135 44.0358 0.371094 42.7741 1.01432 41.4258 1.58333 39.9909 2.07812 39.8425 1.63281 39.4961 1.11328 38.9518 0.519531 40.1393 0.420573 41.3763 0.0494791 42.6628-0.59375 43.9492-1.23698 44.8646-2.30078 45.4089-3.78516L43.7018-3.78516C42.2175-3.78516 41.1289-3.73568 40.4362-3.63672L40.4362-4.97266C41.1784-4.92318 42.2917-4.89844 43.7761-4.89844ZM47.4128-9.57422C48.4024-10.168 49.3672-11.1081 50.3073-12.3945L44.7409-12.3945C45.681-11.1576 46.5716-10.2174 47.4128-9.57422Z" fill="#FFFFFF" transform="matrix(1 0 0 1.00119 16.8002 30)"/></g></g></g><path d="M247.5 124.481C247.5 117.938 252.798 112.633 259.334 112.633L361.666 112.633C368.202 112.633 373.5 117.938 373.5 124.481L373.5 171.87C373.5 178.413 368.202 183.718 361.666 183.718L259.334 183.718C252.798 183.718 247.5 178.413 247.5 171.87Z" stroke="#4C5252" stroke-width="0.999617" stroke-linejoin="round" stroke-miterlimit="10" fill="#4C5252" fill-rule="evenodd"/><text fill="#FFFFFF" font-family="SimHei,SimHei_MSFontService,sans-serif" font-weight="400" font-size="19" transform="matrix(1 0 0 1.00119 281.8 155)">微服务</text><rect x="202.5" y="92.6096" width="215" height="111.132" stroke="#4C5252" stroke-width="1.33282" stroke-linejoin="round" stroke-miterlimit="10" fill="none"/><rect x="393.5" y="92.6096" width="48.0001" height="111.132" stroke="#AD2A26" stroke-width="1.33282" stroke-linejoin="round" stroke-miterlimit="10" fill="#AD2A26"/><text fill="#FFFFFF" font-family="Monaco,Monaco_MSFontService,sans-serif" font-weight="400" font-size="19" transform="matrix(1 0 0 1.00119 406.021 155)">RM</text><g clip-path="url(#clip10)"><g clip-path="url(#clip11)" filter="url(#fx2)" transform="translate(241 233)"><g clip-path="url(#clip12)"><path d="M6.50003 17.8778C6.50003 11.4268 11.7235 6.19713 18.1669 6.19713L120.833 6.19713C127.277 6.19713 132.5 11.4268 132.5 17.8778L132.5 64.5994C132.5 71.0504 127.277 76.2801 120.833 76.2801L18.1669 76.2801C11.7235 76.2801 6.50003 71.0504 6.50003 64.5994Z" stroke="#4C5252" stroke-linejoin="round" stroke-miterlimit="10" fill="#4C5252" fill-rule="evenodd"/></g></g><g clip-path="url(#clip13)" filter="url(#fx3)" transform="translate(265 250)"><g clip-path="url(#clip14)"><path d="M12.0234-6.16016C11.6276-6.50651 11.2565-6.72917 10.9102-6.82812 11.6523-8.26302 12.2337-9.7845 12.6543-11.3926 13.0749-13.0007 13.3099-14.3242 13.3594-15.3633 13.9036-15.1654 14.4232-15.0417 14.918-14.9922 14.6211-14.2995 14.3242-13.112 14.0273-11.4297L16.4023-11.4297C16.9466-11.4297 17.4661-11.4544 17.9609-11.5039L17.9609-10.3164C17.2188-10.3659 16.7734-10.3906 16.625-10.3906 16.625-9.00521 16.5508-7.68164 16.4023-6.41992 16.2539-5.1582 15.8333-3.78516 15.1406-2.30078 15.388-1.80599 15.7715-1.34831 16.291-0.927734 16.8105-0.507161 17.4414-0.123698 18.1836 0.222656 17.5898 0.61849 17.2682 1.0638 17.2188 1.55859 15.9818 0.816406 14.9922-0.0989584 14.25-1.1875 13.2109-0.0494792 12.0482 0.940104 10.7617 1.78125 10.4154 1.38542 9.94531 1.01432 9.35156 0.667969 10.3906 0.222656 11.207-0.222656 11.8008-0.667969 12.3945-1.11328 12.9635-1.68229 13.5078-2.375 12.9635-3.71094 12.6172-5.34375 12.4688-7.27344ZM5.56641-10.5391C5.12109-10.1927 4.6263-9.52474 4.08203-8.53516L4.08203-1.41016C4.08203-0.519531 4.10677 0.494792 4.15625 1.63281L2.82031 1.63281C2.86979 0.494792 2.89453-0.519531 2.89453-1.41016L2.89453-6.82812C2.44922-6.23438 2.02865-5.64062 1.63281-5.04688 1.38542-5.54167 1.11328-5.9375 0.816406-6.23438 1.41016-6.82812 2.05339-7.61979 2.74609-8.60938 3.4388-9.59896 3.98307-10.6133 4.37891-11.6523 4.72526-11.1081 5.12109-10.737 5.56641-10.5391ZM10.2422-5.86328C10.1927-4.92318 10.168-3.6862 10.168-2.15234 10.6133-2.4987 11.0339-2.89453 11.4297-3.33984L12.0234-2.15234C11.6771-1.95443 11.2689-1.65755 10.7988-1.26172 10.3288-0.865885 9.87109-0.445312 9.42578 0L8.68359-1.11328C8.93099-1.3112 9.05469-1.63281 9.05469-2.07812L9.05469-4.89844 7.42188-4.89844C7.42188-3.8099 7.33529-2.83268 7.16211-1.9668 6.98893-1.10091 6.58073-0.173177 5.9375 0.816406 5.59115 0.420573 5.19531 0.123698 4.75-0.0742188 5.49219-0.915365 5.92513-1.91732 6.04883-3.08008 6.17253-4.24284 6.20963-5.17057 6.16016-5.86328ZM6.97656-13.6562C6.92708-12.8151 6.90234-11.8008 6.90234-10.6133L8.01562-10.6133C8.01562-12.5924 7.99088-14.1016 7.94141-15.1406L9.20312-15.1406C9.15365-14.151 9.12891-12.6419 9.12891-10.6133L10.3906-10.6133C10.3906-11.6029 10.3659-12.6172 10.3164-13.6562L11.5039-13.6562C11.4544-13.112 11.4297-12.444 11.4297-11.6523 11.4297-10.9102 11.4544-10.2422 11.5039-9.64844L5.64062-9.64844C5.6901-10.3411 5.71484-11.0091 5.71484-11.6523 5.71484-12.2956 5.6901-12.9635 5.64062-13.6562ZM13.4336-8.38672C13.6315-6.30859 13.9531-4.70052 14.3984-3.5625 14.7943-4.55208 15.054-5.55404 15.1777-6.56836 15.3014-7.58268 15.388-8.85677 15.4375-10.3906L13.7305-10.3906C13.5326-9.7474 13.2604-9.02995 12.9141-8.23828ZM5.04688-14.3984C4.20573-13.3099 3.19141-12.0977 2.00391-10.7617 1.70703-11.1081 1.33594-11.4049 0.890625-11.6523 2.32552-12.9388 3.3151-14.151 3.85938-15.2891 4.15625-14.9922 4.55208-14.6953 5.04688-14.3984ZM10.9844-7.34766C10.2422-7.39714 9.30208-7.42188 8.16406-7.42188 7.02604-7.42188 6.08594-7.39714 5.34375-7.34766L5.34375-8.46094C6.08594-8.41146 7.02604-8.38672 8.16406-8.38672 9.30208-8.38672 10.2422-8.41146 10.9844-8.46094ZM29.6439 1.70703 28.2337 1.70703C28.2832 0.519531 28.3079-0.59375 28.3079-1.63281L28.3079-11.9492C28.3079-12.7904 28.2832-13.7057 28.2337-14.6953L35.1361-14.6953C35.0866-14.0026 35.0371-13.248 34.9876-12.4316 34.9382-11.6152 34.8639-10.9967 34.765-10.5762 34.666-10.1556 34.3691-9.84635 33.8744-9.64844 33.3796-9.45052 32.7363-9.30208 31.9447-9.20312 31.7962-9.79688 31.5736-10.2917 31.2767-10.6875 32.5137-10.6875 33.2064-10.8236 33.3548-11.0957 33.5033-11.3678 33.5775-12.1471 33.5775-13.4336L29.6439-13.4336 29.6439-8.46094 35.804-8.46094C35.6061-7.17448 35.3587-6.02409 35.0619-5.00977 34.765-3.99544 34.3691-2.99349 33.8744-2.00391 34.7155-1.01432 35.6803-0.272135 36.7689 0.222656 36.4225 0.519531 36.0762 0.940104 35.7298 1.48438 34.7897 0.841146 33.8991 0.0494792 33.0579-0.890625 32.4642-0.0494792 31.6478 0.841146 30.6087 1.78125 30.3613 1.33594 30.0892 0.940104 29.7923 0.59375 30.485 0.0989583 31.252-0.742188 32.0931-1.92969 31.4499-2.77083 30.8066-4.52734 30.1634-7.19922L29.6439-7.19922ZM26.6009-14.6211C26.5514-14.2253 26.5267-13.3099 26.5267-11.875L26.5267-0.890625C26.5267 0.148437 26.304 0.779297 25.8587 1.00195 25.4134 1.22461 24.7949 1.4349 24.0033 1.63281 23.8053 0.890625 23.5579 0.296875 23.2611-0.148438 23.9538-0.148438 24.4486-0.173177 24.7454-0.222656 25.0423-0.272135 25.1908-0.643229 25.1908-1.33594L25.1908-5.04688 22.2962-5.04688C22.1973-3.8099 22.0241-2.67188 21.7767-1.63281 21.5293-0.59375 21.1829 0.420573 20.7376 1.41016 20.3418 1.0638 19.8717 0.766927 19.3275 0.519531 19.9212-0.56901 20.3294-1.5957 20.5521-2.56055 20.7747-3.52539 20.9232-4.5026 20.9974-5.49219 21.0716-6.48177 21.1087-8.04036 21.1087-10.168 21.1087-12.2956 21.084-13.7799 21.0345-14.6211ZM25.1908-6.30859 25.1908-9.27734 22.4447-9.27734 22.3704-6.30859ZM25.1908-10.5391 25.1908-13.3594 22.4447-13.3594 22.4447-10.5391ZM31.4994-7.19922C31.8952-5.31901 32.3652-3.95833 32.9095-3.11719 33.5033-4.25521 33.9238-5.61589 34.1712-7.19922ZM45.78-14.6953C45.3841-14.349 45.0378-13.9531 44.7409-13.5078L52.9792-13.5078C52.5339-12.7656 51.9525-11.974 51.235-11.1328 50.5176-10.2917 49.6146-9.5 48.5261-8.75781 49.2188-8.3125 50.1589-7.97852 51.3464-7.75586 52.5339-7.5332 53.944-7.39714 55.5768-7.34766 55.181-6.90234 54.9089-6.38281 54.7604-5.78906 53.375-5.88802 52.0143-6.13542 50.6784-6.53125 49.3425-6.92708 48.2292-7.39713 47.3386-7.94141 45.7552-7.19922 44.3203-6.65495 43.0339-6.30859 41.7474-5.96224 40.4857-5.6901 39.2487-5.49219 39.0508-6.08594 38.7539-6.60547 38.3581-7.05078 39.4466-7.05078 40.6836-7.19922 42.069-7.49609 43.4544-7.79297 44.8151-8.21354 46.1511-8.75781 45.112-9.7474 44.2214-10.7617 43.4792-11.8008 42.638-10.7617 41.7721-9.89583 40.8815-9.20312 40.5352-9.59896 40.0899-9.89583 39.5456-10.0938 40.931-11.0833 41.9453-12.0358 42.5886-12.9512 43.2318-13.8665 43.7018-14.7201 43.9987-15.5117 44.6419-15.1654 45.2357-14.8932 45.78-14.6953ZM45.6315-4.89844C45.7305-5.49219 45.78-6.1849 45.78-6.97656 46.3737-6.8776 46.9675-6.80339 47.5612-6.75391 47.4128-6.45703 47.2643-5.83854 47.1159-4.89844L53.1276-4.89844C53.0781-4.30469 53.0287-3.62435 52.9792-2.85742 52.9297-2.09049 52.8431-1.26172 52.7194-0.371094 52.5957 0.519531 52.237 1.03906 51.6432 1.1875 51.0495 1.33594 50.1094 1.48438 48.8229 1.63281 48.724 0.989583 48.4766 0.445312 48.0807 0 49.5156 0 50.3815-0.0494792 50.6784-0.148438 50.9753-0.247396 51.1732-0.519531 51.2721-0.964844L51.4948-3.78516 46.9675-3.78516C46.2747-1.65755 45.2975-0.272135 44.0358 0.371094 42.7741 1.01432 41.4258 1.58333 39.9909 2.07812 39.8425 1.63281 39.4961 1.11328 38.9518 0.519531 40.1393 0.420573 41.3763 0.0494791 42.6628-0.59375 43.9492-1.23698 44.8646-2.30078 45.4089-3.78516L43.7018-3.78516C42.2175-3.78516 41.1289-3.73568 40.4362-3.63672L40.4362-4.97266C41.1784-4.92318 42.2917-4.89844 43.7761-4.89844ZM47.4128-9.57422C48.4024-10.168 49.3672-11.1081 50.3073-12.3945L44.7409-12.3945C45.681-11.1576 46.5716-10.2174 47.4128-9.57422Z" fill="#FFFFFF" transform="matrix(1 0 0 1.00119 16.8002 31)"/></g></g></g><path d="M247.5 248.461C247.5 242.01 252.723 236.78 259.167 236.78L361.833 236.78C368.277 236.78 373.5 242.01 373.5 248.461L373.5 295.183C373.5 301.634 368.277 306.863 361.833 306.863L259.167 306.863C252.723 306.863 247.5 301.634 247.5 295.183Z" stroke="#4C5252" stroke-width="0.999617" stroke-linejoin="round" stroke-miterlimit="10" fill="#4C5252" fill-rule="evenodd"/><text fill="#FFFFFF" font-family="SimHei,SimHei_MSFontService,sans-serif" font-weight="400" font-size="19" transform="matrix(1 0 0 1.00119 281.8 278)">微服务</text><rect x="202.5" y="215.756" width="215" height="112.133" stroke="#4C5252" stroke-width="1.33282" stroke-linejoin="round" stroke-miterlimit="10" fill="none"/><rect x="393.5" y="215.756" width="48.0001" height="112.133" stroke="#AD2A26" stroke-width="1.33282" stroke-linejoin="round" stroke-miterlimit="10" fill="#AD2A26"/><text fill="#FFFFFF" font-family="Monaco,Monaco_MSFontService,sans-serif" font-weight="400" font-size="19" transform="matrix(1 0 0 1.00119 406.021 278)">RM</text><rect x="756.5" y="79.5943" width="70.0001" height="259.307" stroke="#AD2A26" stroke-width="1.33282" stroke-linejoin="round" stroke-miterlimit="10" fill="#AD2A26"/><text fill="#FFFFFF" font-family="Monaco,Monaco_MSFontService,sans-serif" font-weight="400" font-size="19" transform="matrix(1 0 0 1.00119 780.113 216)">TC<tspan fill="#595959" font-family="SimHei,SimHei_MSFontService,sans-serif" font-size="19" x="-631.485" y="-26.968">全</tspan><tspan fill="#595959" font-family="SimHei,SimHei_MSFontService,sans-serif" font-size="19" x="-631.485" y="-3.99526">局</tspan><tspan fill="#595959" font-family="SimHei,SimHei_MSFontService,sans-serif" font-size="19" x="-631.485" y="17.9787">事</tspan><tspan fill="#595959" font-family="SimHei,SimHei_MSFontService,sans-serif" font-size="19" x="-631.485" y="38.9538">务</tspan><tspan fill="#595959" font-family="SimHei,SimHei_MSFontService,sans-serif" font-size="19" x="-567.362" y="-88.8946">分</tspan><tspan fill="#595959" font-family="SimHei,SimHei_MSFontService,sans-serif" font-size="19" x="-567.362" y="-65.9218">支</tspan><tspan fill="#595959" font-family="SimHei,SimHei_MSFontService,sans-serif" font-size="19" x="-567.362" y="-43.9479">事</tspan><tspan fill="#595959" font-family="SimHei,SimHei_MSFontService,sans-serif" font-size="19" x="-567.362" y="-22.9728">务</tspan><tspan fill="#595959" font-family="SimHei,SimHei_MSFontService,sans-serif" font-size="19" x="-567.362" y="34.9585">分</tspan><tspan fill="#595959" font-family="SimHei,SimHei_MSFontService,sans-serif" font-size="19" x="-567.362" y="57.9313">支</tspan><tspan fill="#595959" font-family="SimHei,SimHei_MSFontService,sans-serif" font-size="19" x="-567.362" y="79.9053">事</tspan><tspan fill="#595959" font-family="SimHei,SimHei_MSFontService,sans-serif" font-size="19" x="-567.362" y="100.88">务</tspan></text><path d="M103.167 79.1429 103.167 57.7925 105.833 57.7925 105.833 79.1429ZM109.282 53.2395 130.607 53.2395 130.607 55.9083 109.282 55.9083ZM138.604 53.2395 159.929 53.2395 159.929 55.9083 138.604 55.9083ZM167.926 53.2395 189.251 53.2395 189.251 55.9083 167.926 55.9083ZM197.248 53.2395 218.573 53.2395 218.573 55.9083 197.248 55.9083ZM226.57 53.2395 247.896 53.2395 247.896 55.9083 226.57 55.9083ZM255.892 53.2395 277.218 53.2395 277.218 55.9083 255.892 55.9083ZM285.215 53.2395 306.54 53.2395 306.54 55.9083 285.215 55.9083ZM314.537 53.2395 335.862 53.2395 335.862 55.9083 314.537 55.9083ZM343.859 53.2395 365.184 53.2395 365.184 55.9083 343.859 55.9083ZM373.181 53.2395 394.506 53.2395 394.506 55.9083 373.181 55.9083ZM402.503 53.2395 423.828 53.2395 423.828 55.9083 402.503 55.9083ZM431.825 53.2395 453.15 53.2395 453.15 55.9083 431.825 55.9083ZM461.147 53.2395 482.472 53.2395 482.472 55.9083 461.147 55.9083ZM490.469 53.2395 511.794 53.2395 511.794 55.9083 490.469 55.9083ZM519.791 53.2395 541.116 53.2395 541.116 55.9083 519.791 55.9083ZM549.113 53.2395 570.438 53.2395 570.438 55.9083 549.113 55.9083ZM578.435 53.2395 599.761 53.2395 599.761 55.9083 578.435 55.9083ZM607.758 53.2395 629.083 53.2395 629.083 55.9083 607.758 55.9083ZM637.08 53.2395 658.405 53.2395 658.405 55.9083 637.08 55.9083ZM666.402 53.2395 687.727 53.2395 687.727 55.9083 666.402 55.9083ZM695.724 53.2395 717.049 53.2395 717.049 55.9083 695.724 55.9083ZM725.046 53.2395 746.371 53.2395 746.371 55.9083 725.046 55.9083ZM754.368 53.2395 775.693 53.2395 775.693 55.9083 754.368 55.9083ZM783.69 53.2395 791.93 53.2395C792.666 53.2395 793.263 53.8369 793.263 54.5739L793.263 67.6742 790.598 67.6742 790.598 54.5739 791.93 55.9083 783.69 55.9083ZM795.929 70.5867 791.93 78.5931 787.932 70.5867Z" fill="#4A7EBB"/><path d="M443.578 146.34 464.903 146.34 464.903 149.009 443.578 149.009ZM472.9 146.34 494.226 146.34 494.226 149.009 472.9 149.009ZM502.222 146.34 523.548 146.34 523.548 149.009 502.222 149.009ZM531.545 146.34 552.87 146.34 552.87 149.009 531.545 149.009ZM560.867 146.34 582.192 146.341 582.192 149.009 560.867 149.009ZM590.189 146.341 611.514 146.341 611.514 149.009 590.189 149.009ZM619.511 146.341 640.836 146.341 640.836 149.009 619.511 149.009ZM648.833 146.341 670.158 146.341 670.158 149.009 648.833 149.009ZM678.155 146.341 699.48 146.341 699.48 149.009 678.155 149.009ZM707.477 146.341 728.802 146.341 728.802 149.009 707.477 149.009ZM736.799 146.341 754.183 146.341 754.183 149.009 736.799 149.009ZM450.723 155.372 441.497 147.675 450.723 139.978C451.288 139.506 452.129 139.582 452.6 140.149 453.071 140.715 452.995 141.556 452.429 142.028L444.432 148.7 444.432 146.65 452.429 153.322C452.995 153.794 453.071 154.635 452.6 155.201 452.129 155.767 451.288 155.844 450.723 155.372ZM747.039 139.978 756.264 147.675 747.039 155.372C746.473 155.844 745.633 155.767 745.162 155.201 744.69 154.635 744.767 153.794 745.332 153.322L753.329 146.65 753.329 148.7 745.332 142.028C744.767 141.556 744.69 140.715 745.162 140.149 745.633 139.583 746.473 139.506 747.039 139.978Z" fill="#4A7EBB"/><path d="M443.578 260.476 464.903 260.476 464.903 263.145 443.578 263.145ZM472.9 260.476 494.226 260.476 494.226 263.145 472.9 263.145ZM502.222 260.476 523.548 260.476 523.548 263.145 502.222 263.145ZM531.545 260.476 552.87 260.476 552.87 263.145 531.545 263.145ZM560.867 260.476 582.192 260.476 582.192 263.145 560.867 263.145ZM590.189 260.476 611.514 260.476 611.514 263.145 590.189 263.145ZM619.511 260.476 640.836 260.476 640.836 263.145 619.511 263.145ZM648.833 260.476 670.158 260.476 670.158 263.145 648.833 263.145ZM678.155 260.476 699.48 260.476 699.48 263.145 678.155 263.145ZM707.477 260.476 728.802 260.476 728.802 263.145 707.477 263.145ZM736.799 260.476 754.183 260.476 754.183 263.145 736.799 263.145ZM450.723 269.507 441.497 261.81 450.723 254.113C451.288 253.641 452.129 253.718 452.6 254.284 453.071 254.85 452.995 255.691 452.429 256.163L444.432 262.835 444.432 260.785 452.429 267.457C452.995 267.929 453.071 268.77 452.6 269.336 452.129 269.903 451.288 269.979 450.723 269.507ZM747.039 254.113 756.264 261.81 747.039 269.507C746.473 269.979 745.633 269.903 745.162 269.336 744.69 268.77 744.767 267.929 745.332 267.457L753.329 260.785 753.329 262.835 745.332 256.163C744.767 255.691 744.69 254.85 745.162 254.284 745.633 253.718 746.473 253.641 747.039 254.113Z" fill="#4A7EBB"/></g></svg>