<svg width="1280" height="720" xmlns="http://www.w3.org/2000/svg" xmlns:xlink="http://www.w3.org/1999/xlink" overflow="hidden"><defs><clipPath id="clip0"><rect x="0" y="0" width="1280" height="720"/></clipPath><clipPath id="clip1"><rect x="761" y="307" width="29" height="29"/></clipPath><clipPath id="clip2"><rect x="761" y="307" width="29" height="29"/></clipPath><clipPath id="clip3"><rect x="761" y="307" width="29" height="29"/></clipPath><clipPath id="clip4"><rect x="722" y="402" width="32" height="32"/></clipPath><clipPath id="clip5"><rect x="722" y="402" width="32" height="32"/></clipPath><clipPath id="clip6"><rect x="722" y="402" width="32" height="32"/></clipPath></defs><g clip-path="url(#clip0)"><rect x="0" y="0" width="1280" height="720" fill="#FFFFFF"/><path d="M492.5 324.5C492.5 242.762 558.762 176.5 640.5 176.5 722.238 176.5 788.5 242.762 788.5 324.5 788.5 406.238 722.238 472.5 640.5 472.5 558.762 472.5 492.5 406.238 492.5 324.5Z" stroke="#D6DCE5" stroke-linecap="round" stroke-linejoin="round" stroke-miterlimit="10" fill="none" fill-rule="evenodd"/><path d="M514.5 324.5C514.5 254.912 570.912 198.5 640.5 198.5 710.088 198.5 766.5 254.912 766.5 324.5 766.5 394.088 710.088 450.5 640.5 450.5 570.912 450.5 514.5 394.088 514.5 324.5Z" stroke="#D6DCE5" stroke-linecap="round" stroke-linejoin="round" stroke-miterlimit="10" fill="none" fill-rule="evenodd"/><path d="M528.279 398.278C538.557 388 555.321 388 565.721 398.278 576 408.679 576 425.443 565.721 435.722 555.321 446 538.557 446 528.279 435.722 518 425.443 518 408.679 528.279 398.278Z" stroke="#F2F2F2" stroke-width="6.16672" stroke-miterlimit="8" fill="#262626" fill-rule="evenodd"/><path d="M539 424.243 559 424.243 559 425 539 425ZM543.593 421.402 543.976 421.402 543.976 423.769 542.349 423.769 542.349 422.538ZM545.986 419.036C545.986 419.036 545.986 419.036 546.666 419.036 546.892 419.112 547.194 419.188 547.421 419.188 547.421 419.188 547.421 419.188 547.421 423.769 547.421 423.769 547.421 423.769 545.986 423.769ZM550.962 418.278C550.962 418.278 550.962 418.278 550.962 423.769 550.962 423.769 550.962 423.769 549.431 423.769L549.431 419.041C549.966 418.888 550.502 418.659 550.962 418.278ZM547.995 411.468C547.255 411.468 546.514 411.758 545.929 412.338 544.837 413.421 544.837 415.277 545.929 416.36 547.099 417.521 548.892 417.521 550.062 416.36 551.153 415.277 551.153 413.421 550.062 412.338 549.477 411.758 548.736 411.468 547.995 411.468ZM552.78 411.367C552.78 411.367 552.78 411.367 554.311 411.367L554.311 423.769C554.311 423.769 554.311 423.769 552.78 423.769 552.78 423.769 552.78 423.769 552.78 415.604 552.933 415.219 552.933 414.756 552.933 414.371 552.933 413.986 552.933 413.524 552.78 413.139 552.78 413.139 552.78 413.139 552.78 411.367ZM548.024 410.331C549.054 410.331 550.084 410.715 550.861 411.482 552.493 413.095 552.493 415.628 550.861 417.164 549.462 418.623 547.208 418.7 545.576 417.548 545.576 417.548 545.576 417.548 544.877 418.239 544.955 418.546 544.877 418.93 544.644 419.16 544.644 419.16 544.644 419.16 541.613 422.155 541.146 422.539 540.525 422.539 540.136 422.155 539.67 421.771 539.67 421.08 540.136 420.696 540.136 420.696 540.136 420.696 543.089 417.701 543.4 417.471 543.711 417.394 544.1 417.394 544.1 417.394 544.1 417.394 544.799 416.703 543.556 415.168 543.711 412.941 545.188 411.482 545.965 410.715 546.995 410.331 548.024 410.331ZM555.938 409 557.469 409 557.469 423.769 555.938 423.769Z" fill="#FFFFFF" fill-rule="evenodd"/><rect x="631" y="394" width="21" height="22" fill="#44546A"/><path d="M696 496C696 496 691.548 508.824 669.721 524.53 669.721 546 669.721 546 669.721 546 641 546 641 546 641 546 641 508.968 641 508.968 641 508.968L696 496Z" fill="#F4B289" fill-rule="evenodd"/><rect x="620" y="413" width="43" height="93" fill="#333F50"/><path d="M696.015 419.881C698 425.23 695.306 431.141 690.059 433.111 655.315 448.03 655.315 448.03 655.315 448.03 650.068 450 644.112 447.185 642.127 441.978 642.127 441.978 642.127 441.978 642.127 441.978 640 436.63 642.836 430.719 648.083 428.748 682.826 413.97 682.826 413.97 682.826 413.97 688.073 412 694.029 414.674 696.015 419.881Z" fill="#F4B289" fill-rule="evenodd"/><path d="M644.733 441.143C643 436.714 645.311 431.714 649.789 430 656 446.286 656 446.286 656 446.286 651.378 448 646.322 445.714 644.733 441.143Z" fill="#FFE1B4" fill-rule="evenodd"/><path d="M697.98 442.203C700 447.672 697.259 453.716 691.778 455.731 656.579 470.841 656.579 470.841 656.579 470.841 651.098 473 645.039 470.122 643.02 464.797 643.02 464.797 643.02 464.797 643.02 464.797 641 459.328 643.741 453.284 649.222 451.269 684.421 436.159 684.421 436.159 684.421 436.159 689.902 434 695.961 436.878 697.98 442.203Z" fill="#F4B289" fill-rule="evenodd"/><path d="M645.733 463.286C644 458.714 646.311 453.714 650.933 452 657 468.286 657 468.286 657 468.286 652.522 470 647.467 467.714 645.733 463.286Z" fill="#FFE1B4" fill-rule="evenodd"/><path d="M663.414 444.477C645.095 436.292 645.095 436.292 645.095 436.292 642.375 435 634.647 435.718 633.359 435.718 614.037 435.718 614.037 435.718 614.037 435.718 606.165 435.718 606.165 435.718 606.165 435.718 599.868 435.718 594 440.026 594 446.488 594 454.529 594 454.529 594 454.529 594 512.542 594 512.542 594 512.542 594 522.594 602.015 531.066 611.747 531.928 611.747 546 611.747 546 611.747 546 643.234 546 643.234 546 643.234 546 643.234 520.583 643.234 520.583 643.234 520.583 643.234 514.265 643.234 514.265 643.234 514.265 643.234 478.51 620.907 456.252 620.907 456.252 620.907 456.252 634.504 456.109 639.084 456.683 643.95 457.257 654.684 463.432 654.684 463.432 659.98 465.873 666.134 463.576 668.567 458.263 671 453.093 668.71 446.918 663.414 444.477Z" fill="#FCC397" fill-rule="evenodd"/><path d="M666.022 457.008C664.185 461.189 659.239 463 655 461.049 661.924 446 661.924 446 661.924 446 666.163 447.951 668 452.828 666.022 457.008Z" fill="#FFE1B4" fill-rule="evenodd"/><rect x="607" y="544" width="69" height="24" fill="#44546A"/><rect x="643" y="544" width="33" height="24" fill="#333F50"/><path d="M698.015 464.233C700 469.722 697.164 475.789 691.917 477.811 657.174 492.978 657.174 492.978 657.174 492.978 651.927 495 645.971 492.256 643.985 486.911 643.985 486.911 643.985 486.911 643.985 486.911 642 481.422 644.694 475.356 649.941 473.333 684.685 458.022 684.685 458.022 684.685 458.022 690.073 456 695.888 458.744 698.015 464.233Z" fill="#F4B289" fill-rule="evenodd"/><path d="M645.793 485.678C644 481.322 646.391 476.545 650.874 475 657 490.455 657 490.455 657 490.455 652.517 492 647.437 489.893 645.793 485.678Z" fill="#FFE1B4" fill-rule="evenodd"/><path d="M697.98 487.233C700 492.578 697.259 498.644 691.778 500.667 656.579 515.978 656.579 515.978 656.579 515.978 651.098 518 645.039 515.256 643.02 509.767 643.02 509.767 643.02 509.767 643.02 509.767 641 504.422 643.741 498.356 649.222 496.333 684.421 481.022 684.421 481.022 684.421 481.022 689.902 479 695.961 481.744 697.98 487.233Z" fill="#F4B289" fill-rule="evenodd"/><path d="M645.793 508.537C644 504.322 646.391 499.545 650.874 498 657 513.455 657 513.455 657 513.455 652.517 515 647.437 512.893 645.793 508.537Z" fill="#FFE1B4" fill-rule="evenodd"/><path d="M642 399C599.493 399 565 364.507 565 322 565 279.636 599.493 245 642 245 684.507 245 719 279.636 719 322 719 364.507 684.507 399 642 399ZM642 256.45C605.933 256.45 576.45 285.933 576.45 322 576.45 358.21 605.933 387.55 642 387.55 678.21 387.55 707.55 358.21 707.55 322 707.55 285.933 678.21 256.45 642 256.45Z" fill="#44546A" fill-rule="evenodd"/><text fill="#404040" font-family="Microsoft YaHei,Microsoft YaHei_MSFontService,sans-serif" font-weight="700" font-size="27" transform="translate(600.833 333)">微服务</text><path d="M7.65937e-07-0.333333 2.66667-0.333327 2.66667 0.333339-7.65937e-07 0.333333ZM4.66667-0.333323 7.33333-0.333316 7.33333 0.33335 4.66667 0.333344ZM9.33333-0.333312 12-0.333306 12 0.333361 9.33333 0.333355ZM14-0.333301 16.6667-0.333295 16.6667 0.333372 14 0.333365ZM18.6667-0.33329 21.3333-0.333284 21.3333 0.333382 18.6667 0.333376ZM23.3333-0.33328 26-0.333274 26 0.333393 23.3333 0.333387ZM28-0.333269 30.6667-0.333263 30.6667 0.333404 28 0.333398ZM32.6667-0.333258 35.3333-0.333252 35.3333 0.333415 32.6667 0.333408ZM37.3333-0.333248 40-0.333241 40 0.333425 37.3333 0.333419ZM42-0.333237 44.6667-0.333231 44.6667 0.333436 42 0.33343ZM-9.19124e-06 4C-2.20915 3.99999-4 2.20913-4-9.19124e-06-3.99999-2.20915-2.20913-4 9.19124e-06-4 2.20915-3.99999 4-2.20913 4 9.19124e-06 3.99999 2.20915 2.20913 4-9.19124e-06 4ZM45.69-3.99989C47.8991-3.99989 49.69-2.20902 49.69 0.000114178 49.69 2.20925 47.8991 4.00011 45.69 4.0001 43.4808 4.0001 41.69 2.20923 41.69 9.57956e-05 41.69-2.20904 43.4808-3.9999 45.69-3.99989Z" fill="#BFBFBF" transform="matrix(-1 0 0 1 488.19 219.5)"/><text fill="#404040" font-family="Microsoft YaHei,Microsoft YaHei_MSFontService,sans-serif" font-weight="700" font-size="24" transform="translate(282.269 198)">服务注册发现<tspan font-weight="400" font-size="19" x="-69.5624" y="44">Eureka</tspan><tspan font-weight="400" font-size="19" x="-9.66241" y="44">、</tspan><tspan font-weight="400" font-size="19" x="9.00427" y="44">Nacos</tspan><tspan font-weight="400" font-size="19" x="64.3376" y="44">、</tspan><tspan font-weight="400" font-size="19" x="83.0043" y="44">Consul</tspan></text><path d="M7.65937e-07-0.333333 2.66667-0.333327 2.66667 0.333339-7.65937e-07 0.333333ZM4.66667-0.333323 7.33333-0.333316 7.33333 0.33335 4.66667 0.333344ZM9.33333-0.333312 12-0.333306 12 0.333361 9.33333 0.333355ZM14-0.333301 16.6667-0.333295 16.6667 0.333372 14 0.333365ZM18.6667-0.33329 21.3333-0.333284 21.3333 0.333382 18.6667 0.333376ZM23.3333-0.33328 26-0.333274 26 0.333393 23.3333 0.333387ZM28-0.333269 30.6667-0.333263 30.6667 0.333404 28 0.333398ZM32.6667-0.333258 35.3333-0.333252 35.3333 0.333415 32.6667 0.333408ZM37.3333-0.333248 40-0.333241 40 0.333425 37.3333 0.333419ZM42-0.333237 44.6667-0.333231 44.6667 0.333436 42 0.33343ZM-9.19124e-06 4C-2.20915 3.99999-4 2.20913-4-9.19124e-06-3.99999-2.20915-2.20913-4 9.19124e-06-4 2.20915-3.99999 4-2.20913 4 9.19124e-06 3.99999 2.20915 2.20913 4-9.19124e-06 4ZM45.69-3.99989C47.8991-3.99989 49.69-2.20902 49.69 0.000114178 49.69 2.20925 47.8991 4.00011 45.69 4.0001 43.4808 4.0001 41.69 2.20923 41.69 9.57956e-05 41.69-2.20904 43.4808-3.9999 45.69-3.99989Z" fill="#BFBFBF" transform="matrix(-1 0 0 1 450.19 317.5)"/><text fill="#404040" font-family="Microsoft YaHei,Microsoft YaHei_MSFontService,sans-serif" font-weight="700" font-size="24" transform="translate(240.127 307)">服务远程调用<tspan font-weight="400" font-size="19" x="-34.6624" y="43">OpenFeign</tspan><tspan font-weight="400" font-size="19" x="63.8376" y="43">、</tspan><tspan font-weight="400" font-size="19" x="82.5043" y="43">Dubbo</tspan></text><path d="M7.65937e-07-0.333333 2.66667-0.333327 2.66667 0.333339-7.65937e-07 0.333333ZM4.66667-0.333323 7.33333-0.333316 7.33333 0.33335 4.66667 0.333344ZM9.33333-0.333312 12-0.333306 12 0.333361 9.33333 0.333355ZM14-0.333301 16.6667-0.333295 16.6667 0.333372 14 0.333365ZM18.6667-0.33329 21.3333-0.333284 21.3333 0.333382 18.6667 0.333376ZM23.3333-0.33328 26-0.333274 26 0.333393 23.3333 0.333387ZM28-0.333269 30.6667-0.333263 30.6667 0.333404 28 0.333398ZM32.6667-0.333258 35.3333-0.333252 35.3333 0.333415 32.6667 0.333408ZM37.3333-0.333248 40-0.333241 40 0.333425 37.3333 0.333419ZM42-0.333237 44.6667-0.333231 44.6667 0.333436 42 0.33343ZM-9.19124e-06 4C-2.20915 3.99999-4 2.20913-4-9.19124e-06-3.99999-2.20915-2.20913-4 9.19124e-06-4 2.20915-3.99999 4-2.20913 4 9.19124e-06 3.99999 2.20915 2.20913 4-9.19124e-06 4ZM45.69-3.99989C47.8991-3.99989 49.69-2.20902 49.69 0.000114178 49.69 2.20925 47.8991 4.00011 45.69 4.0001 43.4808 4.0001 41.69 2.20923 41.69 9.57956e-05 41.69-2.20904 43.4808-3.9999 45.69-3.99989Z" fill="#BFBFBF" transform="matrix(-1 0 0 1 488.19 421.5)"/><text fill="#404040" font-family="Microsoft YaHei,Microsoft YaHei_MSFontService,sans-serif" font-weight="700" font-size="24" transform="translate(276.981 414)">服务链路监控<tspan font-weight="400" font-size="19" x="13.6937" y="43">Zipkin</tspan><tspan font-weight="400" font-size="19" x="68.8603" y="43">、</tspan><tspan font-weight="400" font-size="19" x="87.527" y="43">Sleuth</tspan></text><path d="M794.5 219.167 797.167 219.167 797.167 219.833 794.5 219.833ZM799.167 219.167 801.833 219.167 801.833 219.833 799.167 219.833ZM803.833 219.167 806.5 219.167 806.5 219.833 803.833 219.833ZM808.5 219.167 811.167 219.167 811.167 219.833 808.5 219.833ZM813.167 219.167 815.833 219.167 815.833 219.833 813.167 219.833ZM817.833 219.167 820.5 219.167 820.5 219.833 817.833 219.833ZM822.5 219.167 825.167 219.167 825.167 219.833 822.5 219.833ZM827.167 219.167 829.833 219.167 829.833 219.833 827.167 219.833ZM831.833 219.167 834.5 219.167 834.5 219.833 831.833 219.833ZM836.5 219.167 839.167 219.167 839.167 219.833 836.5 219.833ZM794.5 223.5C792.291 223.5 790.5 221.709 790.5 219.5 790.5 217.291 792.291 215.5 794.5 215.5 796.709 215.5 798.5 217.291 798.5 219.5 798.5 221.709 796.709 223.5 794.5 223.5ZM840.19 215.5C842.399 215.5 844.19 217.291 844.19 219.5 844.19 221.709 842.399 223.5 840.19 223.5 837.981 223.5 836.19 221.709 836.19 219.5 836.19 217.291 837.981 215.5 840.19 215.5Z" fill="#BFBFBF"/><text fill="#404040" font-family="Microsoft YaHei,Microsoft YaHei_MSFontService,sans-serif" font-weight="700" font-size="24" transform="translate(871.176 205)">统一配置管理<tspan font-weight="400" font-size="19" x="0" y="42">SpringCloudConfig</tspan><tspan font-weight="400" font-size="19" x="170.667" y="42">、</tspan><tspan font-weight="400" font-size="19" x="189.333" y="42">Nacos</tspan></text><path d="M833.5 317.167 836.167 317.167 836.167 317.833 833.5 317.833ZM838.167 317.167 840.833 317.167 840.833 317.833 838.167 317.833ZM842.833 317.167 845.5 317.167 845.5 317.833 842.833 317.833ZM847.5 317.167 850.167 317.167 850.167 317.833 847.5 317.833ZM852.167 317.167 854.833 317.167 854.833 317.833 852.167 317.833ZM856.833 317.167 859.5 317.167 859.5 317.833 856.833 317.833ZM861.5 317.167 864.167 317.167 864.167 317.833 861.5 317.833ZM866.167 317.167 868.833 317.167 868.833 317.833 866.167 317.833ZM870.833 317.167 873.5 317.167 873.5 317.833 870.833 317.833ZM875.5 317.167 878.167 317.167 878.167 317.833 875.5 317.833ZM833.5 321.5C831.291 321.5 829.5 319.709 829.5 317.5 829.5 315.291 831.291 313.5 833.5 313.5 835.709 313.5 837.5 315.291 837.5 317.5 837.5 319.709 835.709 321.5 833.5 321.5ZM879.19 313.5C881.399 313.5 883.19 315.291 883.19 317.5 883.19 319.709 881.399 321.5 879.19 321.5 876.981 321.5 875.19 319.709 875.19 317.5 875.19 315.291 876.981 313.5 879.19 313.5Z" fill="#BFBFBF"/><text fill="#404040" font-family="Microsoft YaHei,Microsoft YaHei_MSFontService,sans-serif" font-weight="700" font-size="24" transform="translate(901.05 308)">统一网关路由<tspan font-weight="400" font-size="19" x="0" y="43">SpringCloudGateway</tspan><tspan font-weight="400" font-size="19" x="187.847" y="43">、</tspan><tspan font-weight="400" font-size="19" x="206.513" y="43">Zuul</tspan></text><path d="M794.5 421.167 797.167 421.167 797.167 421.833 794.5 421.833ZM799.167 421.167 801.833 421.167 801.833 421.833 799.167 421.833ZM803.833 421.167 806.5 421.167 806.5 421.833 803.833 421.833ZM808.5 421.167 811.167 421.167 811.167 421.833 808.5 421.833ZM813.167 421.167 815.833 421.167 815.833 421.833 813.167 421.833ZM817.833 421.167 820.5 421.167 820.5 421.833 817.833 421.833ZM822.5 421.167 825.167 421.167 825.167 421.833 822.5 421.833ZM827.167 421.167 829.833 421.167 829.833 421.833 827.167 421.833ZM831.833 421.167 834.5 421.167 834.5 421.833 831.833 421.833ZM836.5 421.167 839.167 421.167 839.167 421.833 836.5 421.833ZM794.5 425.5C792.291 425.5 790.5 423.709 790.5 421.5 790.5 419.291 792.291 417.5 794.5 417.5 796.709 417.5 798.5 419.291 798.5 421.5 798.5 423.709 796.709 425.5 794.5 425.5ZM840.19 417.5C842.399 417.5 844.19 419.291 844.19 421.5 844.19 423.709 842.399 425.5 840.19 425.5 837.981 425.5 836.19 423.709 836.19 421.5 836.19 419.291 837.981 417.5 840.19 417.5Z" fill="#BFBFBF"/><text fill="#404040" font-family="Microsoft YaHei,Microsoft YaHei_MSFontService,sans-serif" font-weight="700" font-size="24" transform="translate(863.297 413)">流控、降级、保护<tspan font-weight="400" font-size="19" x="0" y="43">Hystix</tspan><tspan font-weight="400" font-size="19" x="54.5" y="43">、</tspan><tspan font-weight="400" font-size="19" x="73.1667" y="43">Sentinel</tspan></text><path d="M547 205.585C535.462 205.585 526.108 215.173 526.108 227 526.108 238.827 535.462 248.415 547 248.415 558.538 248.415 567.891 238.827 567.891 227 567.891 215.173 558.538 205.585 547 205.585ZM547 198C563.016 198 576 210.984 576 227 576 243.016 563.016 256 547 256 530.984 256 518 243.016 518 227 518 210.984 530.984 198 547 198Z" fill="#F2F2F2" fill-rule="evenodd"/><path d="M545.661 232.3C545.415 232.3 545.215 232.496 545.215 232.737 545.215 232.978 545.415 233.173 545.661 233.173L553.692 233.173C553.938 233.173 554.138 232.978 554.138 232.737 554.138 232.496 553.938 232.3 553.692 232.3ZM541.647 230.992 541.161 232.26 539.862 232.26 540.917 233.054 540.431 234.483 541.647 233.61 542.864 234.483 542.377 233.054 543.432 232.26C543.432 232.26 542.134 232.26 542.134 232.26ZM545.661 227.064C545.415 227.064 545.215 227.259 545.215 227.5 545.215 227.742 545.415 227.937 545.661 227.937L553.692 227.937C553.938 227.937 554.138 227.742 554.138 227.5 554.138 227.259 553.938 227.064 553.692 227.064ZM541.647 225.754 541.161 227.024 539.862 227.024 540.917 227.817 540.431 229.246 541.647 228.373 542.864 229.246 542.377 227.817 543.432 227.024 542.134 227.024C542.134 227.024 541.647 225.754 541.647 225.754ZM545.661 221.828C545.415 221.828 545.215 222.022 545.215 222.263 545.215 222.505 545.415 222.7 545.661 222.7L553.692 222.7C553.938 222.7 554.138 222.505 554.138 222.263 554.138 222.022 553.938 221.828 553.692 221.828ZM541.647 220.517 541.161 221.788 539.862 221.788 540.917 222.58 540.431 224.009 541.647 223.136 542.864 224.009 542.377 222.58 543.432 221.788 542.134 221.788C542.134 221.788 541.647 220.517 541.647 220.517ZM538.971 218.772 555.03 218.772C555.522 218.772 555.922 219.163 555.922 219.645 555.922 219.645 555.922 235.355 555.922 235.355 555.922 235.838 555.522 236.228 555.03 236.228L538.971 236.228C538.477 236.228 538.078 235.838 538.078 235.355L538.078 219.645C538.078 219.163 538.477 218.772 538.971 218.772ZM538.971 217.899C537.985 217.899 537.186 218.681 537.186 219.645L537.186 235.355C537.186 236.32 537.985 237.101 538.971 237.101L555.03 237.101C556.016 237.101 556.814 236.32 556.814 235.355L556.814 219.645C556.814 218.681 556.016 217.899 555.03 217.899ZM547 205C559.703 205 570 215.074 570 227.5 570 239.926 559.703 250 547 250 534.297 250 524 239.926 524 227.5 524 215.074 534.297 205 547 205Z" fill="#262626" fill-rule="evenodd"/><path d="M753.721 247.722C743.443 258 726.679 258 716.279 247.722 706 237.321 706 220.557 716.279 210.278 726.679 200 743.443 200 753.721 210.278 764 220.557 764 237.321 753.721 247.722Z" stroke="#FFD9D9" stroke-width="6.16672" stroke-miterlimit="8" fill="#C00000" fill-rule="evenodd"/><path d="M735 226.863 735 223.011 738.477 226.863C738.477 226.863 735 226.863 735 226.863ZM739 241.363C739 242.092 738.402 242.682 737.667 242.682L725.667 242.682C724.931 242.682 724.333 242.092 724.333 241.363L724.333 224.228C724.333 223.5 724.931 222.909 725.667 222.909L733.667 222.909 733.667 226.863C733.667 227.591 734.264 228.182 735 228.182L739 228.182C739 228.182 739 241.363 739 241.363ZM725.667 221.591C724.194 221.591 723 222.771 723 224.228L723 241.363C723 242.82 724.194 244 725.667 244L737.667 244C739.139 244 740.333 242.82 740.333 241.363L740.333 226.863 735.667 221.591C735.667 221.591 725.667 221.591 725.667 221.591ZM741.667 220.272 741.667 216.42 745.143 220.272C745.143 220.272 741.667 220.272 741.667 220.272ZM742.333 215 732.333 215C730.861 215 729.667 216.18 729.667 217.637L729.667 219.613C729.667 219.978 729.964 220.272 730.333 220.272 730.702 220.272 731 219.978 731 219.613L731 217.637C731 216.909 731.598 216.318 732.333 216.318L740.333 216.318 740.333 220.272C740.333 221 740.931 221.591 741.667 221.591L745.667 221.591 745.667 234.772C745.667 235.5 745.069 236.091 744.333 236.091L742.333 236.091C741.964 236.091 741.667 236.386 741.667 236.75 741.667 237.115 741.964 237.409 742.333 237.409L744.333 237.409C745.806 237.409 747 236.229 747 234.772L747 220.272C747 220.272 742.333 215 742.333 215ZM727 231.478C727 231.841 727.298 232.137 727.667 232.137L735.667 232.137C736.036 232.137 736.333 231.841 736.333 231.478 736.333 231.114 736.036 230.818 735.667 230.818L727.667 230.818C727.298 230.818 727 231.114 727 231.478M727.667 228.182 730.333 228.182C730.702 228.182 731 227.888 731 227.522 731 227.159 730.702 226.863 730.333 226.863L727.667 226.863C727.298 226.863 727 227.159 727 227.522 727 227.888 727.298 228.182 727.667 228.182M733 238.728 727.667 238.728C727.298 238.728 727 239.023 727 239.387 727 239.751 727.298 240.046 727.667 240.046L733 240.046C733.369 240.046 733.667 239.751 733.667 239.387 733.667 239.023 733.369 238.728 733 238.728M735.667 234.772 727.667 234.772C727.298 234.772 727 235.068 727 235.432 727 235.797 727.298 236.091 727.667 236.091L735.667 236.091C736.036 236.091 736.333 235.797 736.333 235.432 736.333 235.068 736.036 234.772 735.667 234.772" fill="#FFFFFF" fill-rule="evenodd"/><path d="M482 323.5C482 308.864 493.864 297 508.5 297 523.136 297 535 308.864 535 323.5 535 338.136 523.136 350 508.5 350 493.864 350 482 338.136 482 323.5Z" stroke="#FFD9D9" stroke-width="6.16672" stroke-miterlimit="8" fill="#C00000" fill-rule="evenodd"/><path d="M510.488 334.645 506.638 325.295 520.389 311.544C520.389 311.544 510.488 334.645 510.488 334.645ZM496.356 320.513 519.456 310.611 505.706 324.362C505.706 324.362 496.356 320.513 496.356 320.513ZM523 308.659C523 308.295 522.705 308 522.341 308 522.24 308 522.146 308.027 522.06 308.07L522.057 308.064 494.405 319.915C494.404 319.915 494.401 319.917 494.399 319.918L494.376 319.929 494.377 319.932C494.156 320.039 494 320.261 494 320.522 494 320.822 494.203 321.065 494.477 321.145L494.474 321.156 505.361 325.639 509.844 336.527 509.855 336.523C509.935 336.797 510.178 337 510.478 337 510.739 337 510.962 336.844 511.068 336.623L511.072 336.624 511.082 336.601C511.083 336.599 511.085 336.597 511.085 336.595L522.937 308.943 522.929 308.938C522.97 308.854 523 308.761 523 308.659M504.546 329.75C504.363 329.75 504.198 329.824 504.079 329.943L502.103 331.921C501.983 332.039 501.909 332.206 501.909 332.387 501.909 332.751 502.205 333.046 502.568 333.046 502.75 333.046 502.915 332.972 503.034 332.853L505.012 330.875C505.131 330.757 505.204 330.592 505.204 330.409 505.204 330.045 504.91 329.75 504.546 329.75M504.546 327.115C504.546 326.751 504.251 326.454 503.887 326.454 503.704 326.454 503.539 326.529 503.421 326.647L496.829 333.238C496.711 333.359 496.637 333.524 496.637 333.704 496.637 334.069 496.932 334.363 497.296 334.363 497.477 334.363 497.642 334.291 497.762 334.171L504.353 327.579C504.472 327.461 504.546 327.296 504.546 327.115M500.397 327.579 501.057 326.921C501.176 326.802 501.25 326.637 501.25 326.454 501.25 326.091 500.955 325.796 500.591 325.796 500.41 325.796 500.244 325.87 500.125 325.988L499.466 326.647C499.346 326.768 499.272 326.932 499.272 327.115 499.272 327.477 499.568 327.772 499.932 327.772 500.114 327.772 500.278 327.7 500.397 327.579" fill="#FFFFFF" fill-rule="evenodd"/><path d="M747 323.5C747 308.864 758.864 297 773.5 297 788.136 297 800 308.864 800 323.5 800 338.136 788.136 350 773.5 350 758.864 350 747 338.136 747 323.5Z" stroke="#F2F2F2" stroke-width="6.16672" stroke-miterlimit="8" fill="#262626" fill-rule="evenodd"/><g clip-path="url(#clip1)"><g clip-path="url(#clip2)"><g clip-path="url(#clip3)"><path d="M787.293 332.327 763.9 332.327 764.673 328.46C764.867 327.3 765.64 326.43 766.703 325.947L770.957 324.207 771.15 324.497C772.407 325.85 773.953 326.527 775.5 326.527 777.047 326.527 778.69 325.753 779.85 324.497L780.043 324.207 784.297 325.947C785.36 326.333 786.133 327.3 786.327 328.46L787.293 332.327ZM765.06 331.36 786.133 331.36 785.553 328.653C785.36 327.88 784.877 327.203 784.103 326.913L780.43 325.367C779.077 326.72 777.337 327.493 775.597 327.493 773.857 327.493 772.117 326.72 770.763 325.367L767.09 326.913C766.317 327.203 765.833 327.88 765.64 328.653L765.06 331.36ZM773.18 317.827 774.147 317.827 774.147 318.793 773.18 318.793ZM777.047 317.827 778.013 317.827 778.013 318.793 777.047 318.793Z" fill="#FFFFFF"/><path d="M775.597 325.56C773.18 325.56 771.053 323.627 770.183 320.727 769.41 320.727 768.83 319.663 768.83 318.31 768.83 317.247 769.217 316.377 769.797 315.99L769.797 315.893C769.797 315.507 769.797 315.12 769.893 314.637L770.86 314.83C770.763 315.217 770.763 315.507 770.763 315.893L770.763 316.183 770.86 316.86 770.28 316.763C770.183 316.86 769.797 317.343 769.797 318.213 769.797 319.18 770.183 319.663 770.28 319.663L770.86 319.277 771.053 319.857C771.73 322.563 773.567 324.4 775.597 324.4 777.627 324.4 779.463 322.563 780.14 319.857L780.333 319.18 780.913 319.567C781.107 319.567 781.397 319.083 781.397 318.117 781.397 317.247 781.107 316.763 780.913 316.667L780.333 316.957 780.43 316.28 780.43 315.99C780.43 315.7 780.43 315.313 780.333 314.927L781.3 314.733C781.397 315.12 781.397 315.507 781.397 315.99L781.397 316.183C781.977 316.473 782.363 317.343 782.363 318.407 782.363 319.76 781.783 320.727 781.01 320.823 780.14 323.627 778.013 325.56 775.597 325.56Z" fill="#FFFFFF"/><path d="M775.597 316.86C772.31 316.86 770.473 315.893 769.99 315.023L770.763 314.54C771.15 315.12 772.697 315.893 775.597 315.893 778.497 315.893 780.043 315.023 780.43 314.54L781.203 315.023C780.72 315.893 778.883 316.86 775.597 316.86Z" fill="#FFFFFF"/><path d="M780.913 314.927 770.28 314.927C769.507 314.927 768.83 314.25 768.83 313.477L768.83 312.027 769.313 312.027C769.797 312.027 770.667 311.447 771.537 310.867 772.793 309.997 774.147 309.127 775.597 309.127 777.047 309.127 778.497 310.093 779.657 310.867 780.527 311.447 781.3 312.027 781.88 312.027L782.363 312.027 782.363 313.477C782.363 314.25 781.687 314.927 780.913 314.927ZM769.797 312.993 769.797 313.573C769.797 313.863 769.99 314.057 770.28 314.057L780.913 314.057C781.203 314.057 781.397 313.863 781.397 313.573L781.397 312.993C780.72 312.8 779.947 312.317 779.173 311.737 778.013 310.963 776.757 310.093 775.597 310.093 774.437 310.093 773.18 310.963 772.02 311.737 771.247 312.317 770.473 312.8 769.797 312.993Z" fill="#FFFFFF"/><path d="M775.597 312.993C775.017 312.993 774.63 312.607 774.63 312.027L774.63 311.06 776.563 311.06 776.563 312.027C776.563 312.607 776.177 312.993 775.597 312.993ZM780.913 330.587 779.463 329.137 779.463 327.493 782.363 327.493 782.363 329.137 780.913 330.587ZM780.43 328.75 780.913 329.233 781.397 328.75 781.397 328.46 780.43 328.46 780.43 328.75ZM773.663 327.01 774.63 327.01 774.63 331.843 773.663 331.843ZM776.563 327.01 777.53 327.01 777.53 331.843 776.563 331.843Z" fill="#FFFFFF"/></g></g></g><path d="M716.279 435.722C706 425.443 706 408.679 716.279 398.278 726.679 388 743.443 388 753.721 398.278 764 408.679 764 425.443 753.721 435.722 743.443 446 726.679 446 716.279 435.722Z" stroke="#FFD9D9" stroke-width="6.16672" stroke-miterlimit="8" fill="#C00000" fill-rule="evenodd"/><g clip-path="url(#clip4)"><g clip-path="url(#clip5)"><g clip-path="url(#clip6)"><path d="M742.463 412.947C745.326 412.947 747.684 415.305 747.684 418.168 747.684 421.032 745.326 423.389 742.463 423.389" fill="#FFFFFF"/><path d="M749.537 411.263C749.284 411.011 748.947 411.011 748.695 411.263L746.168 413.789C745.326 413.032 744.232 412.611 743.053 412.442L743.053 411.684C743.053 411.095 742.8 410.505 742.295 410.168L739.768 408.147C739.516 407.895 739.347 407.558 739.347 407.221L739.347 404.189C739.347 403.6 738.842 403.095 738.253 403.095L727.389 403.095C726.8 403.095 726.295 403.6 726.295 404.189L726.295 431.811C726.295 432.4 726.8 432.905 727.389 432.905L738.253 432.905C738.842 432.905 739.347 432.4 739.347 431.811L739.347 430.211C739.347 429.537 739.853 429.032 740.526 429.032L741.116 429.032C742.211 429.032 743.137 428.105 743.137 427.011L743.137 423.895C746 423.558 748.274 421.116 748.274 418.168 748.274 416.821 747.853 415.558 747.011 414.632L749.621 412.021C749.789 411.853 749.789 411.432 749.537 411.263ZM741.874 427.095C741.874 427.516 741.537 427.937 741.032 427.937L740.442 427.937C739.179 427.937 738.084 429.032 738.084 430.295L738.084 431.811 727.474 431.811 727.474 411.263 733.2 411.263 733.2 421.789C733.2 422.126 733.453 422.379 733.789 422.379 734.126 422.379 734.379 422.126 734.379 421.789L734.379 410.674C734.379 410.337 734.126 410.084 733.789 410.084L727.474 410.084 727.474 404.274 738.168 404.274 738.168 407.221C738.168 407.979 738.505 408.653 739.095 409.074L741.621 411.095C741.789 411.263 741.958 411.516 741.958 411.684L741.958 427.095ZM743.053 422.716 743.053 413.621C745.326 413.874 747.011 415.811 747.011 418.168 747.011 420.526 745.242 422.463 743.053 422.716Z" fill="#FFFFFF"/></g></g></g></g></svg>