<svg width="902" height="569" xmlns="http://www.w3.org/2000/svg" xmlns:xlink="http://www.w3.org/1999/xlink" overflow="hidden"><defs><filter id="fx0" x="-10%" y="-10%" width="120%" height="120%" filterUnits="userSpaceOnUse" primitiveUnits="userSpaceOnUse"><feComponentTransfer color-interpolation-filters="sRGB"><feFuncR type="discrete" tableValues="0 0"/><feFuncG type="discrete" tableValues="0 0"/><feFuncB type="discrete" tableValues="0 0"/><feFuncA type="linear" slope="0.34902" intercept="0"/></feComponentTransfer><feGaussianBlur stdDeviation="1.39983 1.40024"/></filter><filter id="fx1" x="-10%" y="-10%" width="120%" height="120%" filterUnits="userSpaceOnUse" primitiveUnits="userSpaceOnUse"><feComponentTransfer color-interpolation-filters="sRGB"><feFuncR type="discrete" tableValues="0 0"/><feFuncG type="discrete" tableValues="0 0"/><feFuncB type="discrete" tableValues="0 0"/><feFuncA type="linear" slope="0.34902" intercept="0"/></feComponentTransfer><feGaussianBlur stdDeviation="1.39983 1.40024"/></filter><filter id="fx2" x="-10%" y="-10%" width="120%" height="120%" filterUnits="userSpaceOnUse" primitiveUnits="userSpaceOnUse"><feComponentTransfer color-interpolation-filters="sRGB"><feFuncR type="discrete" tableValues="0 0"/><feFuncG type="discrete" tableValues="0 0"/><feFuncB type="discrete" tableValues="0 0"/><feFuncA type="linear" slope="0.34902" intercept="0"/></feComponentTransfer><feGaussianBlur stdDeviation="1.39983 1.40024"/></filter><filter id="fx3" x="-10%" y="-10%" width="120%" height="120%" filterUnits="userSpaceOnUse" primitiveUnits="userSpaceOnUse"><feComponentTransfer color-interpolation-filters="sRGB"><feFuncR type="discrete" tableValues="0 0"/><feFuncG type="discrete" tableValues="0 0"/><feFuncB type="discrete" tableValues="0 0"/><feFuncA type="linear" slope="0.34902" intercept="0"/></feComponentTransfer><feGaussianBlur stdDeviation="1.39983 1.40024"/></filter><filter id="fx4" x="-10%" y="-10%" width="120%" height="120%" filterUnits="userSpaceOnUse" primitiveUnits="userSpaceOnUse"><feComponentTransfer color-interpolation-filters="sRGB"><feFuncR type="discrete" tableValues="0 0"/><feFuncG type="discrete" tableValues="0 0"/><feFuncB type="discrete" tableValues="0 0"/><feFuncA type="linear" slope="0.34902" intercept="0"/></feComponentTransfer><feGaussianBlur stdDeviation="1.39983 1.40024"/></filter><filter id="fx5" x="-10%" y="-10%" width="120%" height="120%" filterUnits="userSpaceOnUse" primitiveUnits="userSpaceOnUse"><feComponentTransfer color-interpolation-filters="sRGB"><feFuncR type="discrete" tableValues="0 0"/><feFuncG type="discrete" tableValues="0 0"/><feFuncB type="discrete" tableValues="0 0"/><feFuncA type="linear" slope="0.34902" intercept="0"/></feComponentTransfer><feGaussianBlur stdDeviation="1.39983 1.40024"/></filter><filter id="fx6" x="-10%" y="-10%" width="120%" height="120%" filterUnits="userSpaceOnUse" primitiveUnits="userSpaceOnUse"><feComponentTransfer color-interpolation-filters="sRGB"><feFuncR type="discrete" tableValues="0 0"/><feFuncG type="discrete" tableValues="0 0"/><feFuncB type="discrete" tableValues="0 0"/><feFuncA type="linear" slope="0.34902" intercept="0"/></feComponentTransfer><feGaussianBlur stdDeviation="1.39983 1.40024"/></filter><filter id="fx7" x="-10%" y="-10%" width="120%" height="120%" filterUnits="userSpaceOnUse" primitiveUnits="userSpaceOnUse"><feComponentTransfer color-interpolation-filters="sRGB"><feFuncR type="discrete" tableValues="0 0"/><feFuncG type="discrete" tableValues="0 0"/><feFuncB type="discrete" tableValues="0 0"/><feFuncA type="linear" slope="0.34902" intercept="0"/></feComponentTransfer><feGaussianBlur stdDeviation="1.39983 1.40024"/></filter><filter id="fx8" x="-10%" y="-10%" width="120%" height="120%" filterUnits="userSpaceOnUse" primitiveUnits="userSpaceOnUse"><feComponentTransfer color-interpolation-filters="sRGB"><feFuncR type="discrete" tableValues="0 0"/><feFuncG type="discrete" tableValues="0 0"/><feFuncB type="discrete" tableValues="0 0"/><feFuncA type="linear" slope="0.34902" intercept="0"/></feComponentTransfer><feGaussianBlur stdDeviation="1.39983 1.40024"/></filter><filter id="fx9" x="-10%" y="-10%" width="120%" height="120%" filterUnits="userSpaceOnUse" primitiveUnits="userSpaceOnUse"><feComponentTransfer color-interpolation-filters="sRGB"><feFuncR type="discrete" tableValues="0 0"/><feFuncG type="discrete" tableValues="0 0"/><feFuncB type="discrete" tableValues="0 0"/><feFuncA type="linear" slope="0.34902" intercept="0"/></feComponentTransfer><feGaussianBlur stdDeviation="1.39983 1.40024"/></filter><filter id="fx10" x="-10%" y="-10%" width="120%" height="120%" filterUnits="userSpaceOnUse" primitiveUnits="userSpaceOnUse"><feComponentTransfer color-interpolation-filters="sRGB"><feFuncR type="discrete" tableValues="0 0"/><feFuncG type="discrete" tableValues="0 0"/><feFuncB type="discrete" tableValues="0 0"/><feFuncA type="linear" slope="0.34902" intercept="0"/></feComponentTransfer><feGaussianBlur stdDeviation="1.39983 1.40024"/></filter><filter id="fx11" x="-10%" y="-10%" width="120%" height="120%" filterUnits="userSpaceOnUse" primitiveUnits="userSpaceOnUse"><feComponentTransfer color-interpolation-filters="sRGB"><feFuncR type="discrete" tableValues="0 0"/><feFuncG type="discrete" tableValues="0 0"/><feFuncB type="discrete" tableValues="0 0"/><feFuncA type="linear" slope="0.34902" intercept="0"/></feComponentTransfer><feGaussianBlur stdDeviation="1.39983 1.40024"/></filter><clipPath id="clip12"><rect x="0" y="0" width="902" height="569"/></clipPath><clipPath id="clip13"><path d="M288 147.543C285.515 147.543 283.5 149.559 283.5 152.045L283.5 170.05C283.5 172.536 285.515 174.551 288 174.551L438 174.551C440.485 174.551 442.5 172.536 442.5 170.05L442.5 152.045C442.5 149.559 440.485 147.543 438 147.543ZM1.34408e-05 8.47876e-06 902 8.47876e-06 902 569 1.34408e-05 569Z" fill-rule="evenodd" clip-rule="evenodd"/></clipPath><clipPath id="clip14"><rect x="1" y="1" width="171" height="39"/></clipPath><clipPath id="clip15"><rect x="0" y="0" width="172" height="40"/></clipPath><clipPath id="clip16"><rect x="11" y="7" width="151" height="29"/></clipPath><clipPath id="clip17"><rect x="0" y="0" width="180" height="44"/></clipPath><clipPath id="clip18"><path d="M288 195.557C285.515 195.557 283.5 197.573 283.5 200.059L283.5 218.064C283.5 220.55 285.515 222.565 288 222.565L438 222.565C440.485 222.565 442.5 220.55 442.5 218.064L442.5 200.059C442.5 197.573 440.485 195.557 438 195.557ZM1.34408e-05 8.47876e-06 902 8.47876e-06 902 569 1.34408e-05 569Z" fill-rule="evenodd" clip-rule="evenodd"/></clipPath><clipPath id="clip19"><rect x="1" y="1" width="171" height="39"/></clipPath><clipPath id="clip20"><rect x="0" y="0" width="172" height="40"/></clipPath><clipPath id="clip21"><rect x="11" y="7" width="107" height="23"/></clipPath><clipPath id="clip22"><rect x="0" y="0" width="128" height="42"/></clipPath><linearGradient x1="363" y1="222.565" x2="363" y2="195.557" gradientUnits="userSpaceOnUse" spreadMethod="reflect" id="fill23"><stop offset="0" stop-color="#2C5D98"/><stop offset="0.8" stop-color="#3C7BC7"/><stop offset="1" stop-color="#3A7CCB"/></linearGradient><clipPath id="clip24"><path d="M288 229.567C285.515 229.567 283.5 231.583 283.5 234.069L283.5 252.074C283.5 254.56 285.515 256.575 288 256.575L438 256.575C440.485 256.575 442.5 254.56 442.5 252.074L442.5 234.069C442.5 231.583 440.485 229.567 438 229.567ZM1.34408e-05 8.47876e-06 902 8.47876e-06 902 569 1.34408e-05 569Z" fill-rule="evenodd" clip-rule="evenodd"/></clipPath><clipPath id="clip25"><rect x="1" y="1" width="171" height="39"/></clipPath><clipPath id="clip26"><rect x="0" y="0" width="172" height="40"/></clipPath><clipPath id="clip27"><rect x="9" y="7" width="99" height="23"/></clipPath><clipPath id="clip28"><rect x="0" y="0" width="118" height="42"/></clipPath><linearGradient x1="363" y1="256.575" x2="363" y2="229.567" gradientUnits="userSpaceOnUse" spreadMethod="reflect" id="fill29"><stop offset="0" stop-color="#CB6C1D"/><stop offset="0.8" stop-color="#FF8F2A"/><stop offset="1" stop-color="#FF8F26"/></linearGradient><clipPath id="clip30"><path d="M287.833 316.593C285.44 316.593 283.5 318.533 283.5 320.927L283.5 338.266C283.5 340.66 285.44 342.6 287.833 342.6L438.167 342.6C440.56 342.6 442.5 340.66 442.5 338.266L442.5 320.927C442.5 318.533 440.56 316.593 438.167 316.593ZM1.34408e-05 8.47876e-06 902 8.47876e-06 902 569 1.34408e-05 569Z" fill-rule="evenodd" clip-rule="evenodd"/></clipPath><clipPath id="clip31"><rect x="1" y="-1" width="171" height="39"/></clipPath><clipPath id="clip32"><rect x="0" y="0" width="172" height="39"/></clipPath><clipPath id="clip33"><rect x="11" y="7" width="151" height="29"/></clipPath><clipPath id="clip34"><rect x="0" y="0" width="180" height="44"/></clipPath><clipPath id="clip35"><path d="M287.833 364.607C285.44 364.607 283.5 366.548 283.5 368.941L283.5 386.28C283.5 388.674 285.44 390.614 287.833 390.614L438.167 390.614C440.56 390.614 442.5 388.674 442.5 386.28L442.5 368.941C442.5 366.548 440.56 364.607 438.167 364.607ZM1.34408e-05 8.47876e-06 902 8.47876e-06 902 569 1.34408e-05 569Z" fill-rule="evenodd" clip-rule="evenodd"/></clipPath><clipPath id="clip36"><rect x="1" y="-1" width="171" height="39"/></clipPath><clipPath id="clip37"><rect x="0" y="0" width="172" height="39"/></clipPath><clipPath id="clip38"><rect x="11" y="7" width="107" height="25"/></clipPath><clipPath id="clip39"><rect x="0" y="0" width="128" height="43"/></clipPath><linearGradient x1="363" y1="390.614" x2="363" y2="364.607" gradientUnits="userSpaceOnUse" spreadMethod="reflect" id="fill40"><stop offset="0" stop-color="#2C5D98"/><stop offset="0.8" stop-color="#3C7BC7"/><stop offset="1" stop-color="#3A7CCB"/></linearGradient><clipPath id="clip41"><path d="M288 398.617C285.515 398.617 283.5 400.632 283.5 403.118L283.5 421.123C283.5 423.609 285.515 425.625 288 425.625L438 425.625C440.485 425.625 442.5 423.609 442.5 421.123L442.5 403.118C442.5 400.632 440.485 398.617 438 398.617ZM1.34408e-05 8.47876e-06 902 8.47876e-06 902 569 1.34408e-05 569Z" fill-rule="evenodd" clip-rule="evenodd"/></clipPath><clipPath id="clip42"><rect x="1" y="-1" width="171" height="41"/></clipPath><clipPath id="clip43"><rect x="0" y="0" width="172" height="40"/></clipPath><clipPath id="clip44"><rect x="9" y="7" width="99" height="25"/></clipPath><clipPath id="clip45"><rect x="0" y="0" width="118" height="43"/></clipPath><linearGradient x1="363" y1="425.625" x2="363" y2="398.617" gradientUnits="userSpaceOnUse" spreadMethod="reflect" id="fill46"><stop offset="0" stop-color="#CB6C1D"/><stop offset="0.8" stop-color="#FF8F2A"/><stop offset="1" stop-color="#FF8F26"/></linearGradient></defs><g clip-path="url(#clip12)"><rect x="0" y="0" width="902" height="569.167" fill="#FFFFFF"/><path d="M79.5001 155.047C79.5001 119.966 107.931 91.5269 143.002 91.5269L470.999 91.5269C506.07 91.5269 534.5 119.966 534.5 155.047L534.5 409.118C534.5 444.2 506.07 472.638 470.999 472.638L143.002 472.638C107.931 472.638 79.5001 444.2 79.5001 409.118Z" stroke="#A6A6A6" stroke-width="3" stroke-linejoin="round" stroke-miterlimit="10" stroke-dasharray="12 9" fill="none" fill-rule="evenodd"/><path d="M59.5001 104.197C59.5001 97.7521 64.7235 92.5272 71.167 92.5272L117.833 92.5272C124.277 92.5272 129.5 97.7521 129.5 104.197L129.5 437.961C129.5 444.407 124.277 449.632 117.833 449.632L71.167 449.632C64.7235 449.632 59.5001 444.407 59.5001 437.961Z" stroke="#AD2A26" stroke-width="3" stroke-linejoin="round" stroke-miterlimit="10" fill="#AD2A26" fill-rule="evenodd"/><text fill="#FFFFFF" font-family="Monaco,Monaco_MSFontService,sans-serif" font-weight="400" font-size="24" transform="matrix(1 0 0 1.00029 79.6317 279)">TM</text><path d="M269.5 152.545C269.5 139.839 279.798 129.538 292.501 129.538L467.5 129.538C480.202 129.538 490.5 139.839 490.5 152.545L490.5 244.571C490.5 257.278 480.202 267.578 467.5 267.578L292.501 267.578C279.798 267.578 269.5 257.278 269.5 244.571Z" stroke="#4C5252" stroke-width="1.33333" stroke-linejoin="round" stroke-miterlimit="10" fill="none" fill-rule="evenodd"/><path d="M455.5 138.374C455.5 132.942 459.903 128.538 465.334 128.538L504.667 128.538C510.097 128.538 514.5 132.942 514.5 138.374L514.5 257.742C514.5 263.174 510.097 267.578 504.667 267.578L465.334 267.578C459.903 267.578 455.5 263.174 455.5 257.742Z" stroke="#AD2A26" stroke-width="1.33333" stroke-linejoin="round" stroke-miterlimit="10" fill="#AD2A26" fill-rule="evenodd"/><text fill="#FFFFFF" font-family="Monaco,Monaco_MSFontService,sans-serif" font-weight="400" font-size="24" transform="matrix(1 0 0 1.00029 470.019 207)">RM</text><path d="M723.5 104.197C723.5 97.7521 728.724 92.5272 735.167 92.5272L781.833 92.5272C788.277 92.5272 793.5 97.7521 793.5 104.197L793.5 437.961C793.5 444.407 788.277 449.632 781.833 449.632L735.167 449.632C728.724 449.632 723.5 444.407 723.5 437.961Z" stroke="#AD2A26" stroke-width="1.33333" stroke-linejoin="round" stroke-miterlimit="10" fill="#AD2A26" fill-rule="evenodd"/><text fill="#FFFFFF" font-family="Monaco,Monaco_MSFontService,sans-serif" font-weight="400" font-size="24" transform="matrix(1 0 0 1.00029 743.675 279)">TC</text><path d="M94.8334 93.8609 94.8334 69.8538C94.8334 69.4855 95.1319 69.187 95.5001 69.187L759.543 69.187C759.911 69.187 760.21 69.4855 760.21 69.8538L760.21 85.8585 758.877 85.8585 758.877 69.8538 759.543 70.5207 95.5001 70.5207 96.1667 69.8538 96.1667 93.8609ZM763.543 84.5248 759.543 92.5272 755.543 84.5248Z"/><path d="M0-0.666667 10.6667-0.666667 10.6667 0.666667 0 0.666667ZM14.6667-0.666667 25.3333-0.666667 25.3333 0.666667 14.6667 0.666667ZM29.3333-0.666667 40-0.666667 40 0.666667 29.3333 0.666667ZM44-0.666667 54.6667-0.666667 54.6667 0.666667 44 0.666667ZM58.6667-0.666667 62.4-0.666667C62.7682-0.666667 63.0667-0.36819 63.0667 0L63.0667 6.93333 61.7333 6.93333 61.7333 0 62.4 0.666667 58.6667 0.666667ZM63.0667 10.9333 63.0667 21.6 61.7333 21.6 61.7333 10.9333ZM63.0667 25.6 63.0667 36.2667 61.7333 36.2667 61.7333 25.6ZM63.0667 40.2667 63.0667 50.9333 61.7333 50.9333 61.7333 40.2667ZM63.0667 54.9333 63.0667 65.6 61.7333 65.6 61.7333 54.9333ZM63.0667 69.6 63.0667 80.2667 61.7333 80.2667 61.7333 69.6ZM63.0667 84.2667 63.0667 94.9333 61.7333 94.9333 61.7333 84.2667ZM63.0667 98.9333 63.0667 109.6 61.7333 109.6 61.7333 98.9333ZM63.0667 113.6 63.0667 124.267 61.7333 124.267 61.7333 113.6ZM63.0667 128.267 63.0667 138.933 61.7333 138.933 61.7333 128.267ZM63.0667 142.933 63.0667 153.6 61.7333 153.6 61.7333 142.933ZM63.0667 157.6 63.0667 168.267 61.7333 168.267 61.7333 157.6ZM63.0667 172.267 63.0667 182.933 61.7333 182.933 61.7333 172.267ZM63.0667 186.933 63.0667 197.6 61.7333 197.6 61.7333 186.933ZM63.0667 201.6 63.0667 212.267 61.7333 212.267 61.7333 201.6ZM63.0667 216.267 63.0667 226.933 61.7333 226.933 61.7333 216.267ZM63.0667 230.933 63.0667 241.6 61.7333 241.6 61.7333 230.933ZM63.0667 245.6 63.0667 256.267 61.7333 256.267 61.7333 245.6ZM63.0667 260.267 63.0667 270.933 61.7333 270.933 61.7333 260.267ZM63.0667 274.933 63.0667 285.6 61.7333 285.6 61.7333 274.933ZM63.0667 289.6 63.0667 300.267 61.7333 300.267 61.7333 289.6ZM63.0667 304.267 63.0667 314.933 61.7333 314.933 61.7333 304.267ZM63.0667 318.933 63.0667 329.6 61.7333 329.6 61.7333 318.933ZM63.0667 333.6 63.0667 344.267 61.7333 344.267 61.7333 333.6ZM63.0667 348.267 63.0667 358.933 61.7333 358.933 61.7333 348.267ZM63.0667 362.933 63.0667 373.6 61.7333 373.6 61.7333 362.933ZM63.0667 377.6 63.0667 388.267 61.7333 388.267 61.7333 377.6ZM63.0667 392.267 63.0667 402.933 61.7333 402.933 61.7333 392.267ZM63.0667 406.933 63.0667 417.6 61.7333 417.6 61.7333 406.933ZM63.0667 421.6 63.0667 432.267 61.7333 432.267 61.7333 421.6ZM63.0667 436.267 63.0667 446.933 61.7333 446.933 61.7333 436.267ZM63.0667 450.933 63.0667 461.6 61.7333 461.6 61.7333 450.933ZM63.0667 465.6 63.0667 476.267 61.7333 476.267 61.7333 465.6ZM63.0667 480.267 63.0667 490.933 61.7333 490.933 61.7333 480.267ZM63.0667 494.933 63.0667 505.6 61.7333 505.6 61.7333 494.933ZM63.0667 509.6 63.0667 520.267 61.7333 520.267 61.7333 509.6ZM63.0667 524.267 63.0667 534.933 61.7333 534.933 61.7333 524.267ZM63.0667 538.933 63.0667 549.6 61.7333 549.6 61.7333 538.933ZM63.0667 553.6 63.0667 564.267 61.7333 564.267 61.7333 553.6ZM63.0667 568.267 63.0667 578.933 61.7333 578.933 61.7333 568.267ZM63.0667 582.933 63.0667 593.6 61.7333 593.6 61.7333 582.933ZM63.0667 597.6 63.0667 608.267 61.7333 608.267 61.7333 597.6ZM63.0667 612.267 63.0667 622.933 61.7333 622.933 61.7333 612.267ZM63.0667 626.933 63.0667 637.6 61.7333 637.6 61.7333 626.933ZM63.0667 641.6 63.0667 652.267 61.7333 652.267 61.7333 641.6ZM63.0667 656.267 63.0667 664.043C63.0667 664.411 62.7682 664.71 62.4 664.71L59.5099 664.71 59.5099 663.377 62.4 663.377 61.7333 664.043 61.7333 656.267ZM55.5099 664.71 44.8433 664.71 44.8433 663.377 55.5099 663.377ZM40.8433 664.71 30.1766 664.71 30.1766 663.377 40.8433 663.377ZM26.1766 664.71 15.5099 664.71 15.5099 663.377 26.1766 663.377ZM11.5099 664.71 7.99999 664.71 7.99999 663.377 11.5099 663.377ZM9.33333 668.043 1.33333 664.043 9.33333 660.043Z" fill="#4A7EBB" transform="matrix(1.83697e-16 1.00029 1 -1.83751e-16 95.5001 448.631)"/><text fill="#595959" font-family="Monaco,Monaco_MSFontService,sans-serif" font-weight="400" font-size="15" transform="matrix(1 0 0 1.00029 340.414 59)">1.1.<tspan font-family="SimHei,SimHei_MSFontService,sans-serif" font-size="15" x="35.3333" y="0">开启全局事务</tspan><tspan fill="#0070C0" font-size="15" x="9.55884" y="444.87">2.1.</tspan><tspan fill="#0070C0" font-family="SimHei,SimHei_MSFontService,sans-serif" font-size="15" x="44.8922" y="444.87">提交、回滚全局事务</tspan></text><path d="M130.5 148.877 263.676 148.877 263.676 150.211 130.5 150.211ZM262.343 145.543 270.343 149.544 262.343 153.545Z"/><text fill="#595959" font-family="Monaco,Monaco_MSFontService,sans-serif" font-weight="400" font-size="15" transform="matrix(1 0 0 1.00029 156.755 140)">1.2.<tspan font-family="SimHei,SimHei_MSFontService,sans-serif" font-size="15" x="35.3333" y="0">调用分支</tspan></text><g clip-path="url(#clip13)"><g clip-path="url(#clip14)" filter="url(#fx0)" transform="translate(277 143)"><g clip-path="url(#clip15)"><path d="M6.50006 11.4601C6.50006 8.97405 8.51484 6.95868 11.0002 6.95868L161 6.95868C163.485 6.95868 165.5 8.97405 165.5 11.4601L165.5 29.4651C165.5 31.9512 163.485 33.9666 161 33.9666L11.0002 33.9666C8.51484 33.9666 6.50006 31.9512 6.50006 29.4651Z" stroke="#000000" stroke-linejoin="round" stroke-miterlimit="10" fill="#4C5252" fill-rule="evenodd"/></g></g><g clip-path="url(#clip16)" filter="url(#fx1)" transform="translate(272 142)"><g clip-path="url(#clip17)"><path d="M4.16016-1.14258 4.16016-9.90967C3.33008-9.25049 2.40234-8.73779 1.37695-8.37158L1.37695-9.60205C2.44629-10.0562 3.37402-10.6445 4.16016-11.3672L5.52246-11.3672 5.52246-1.14258 8.25439-1.14258 8.25439 0 1.37695 0 1.37695-1.14258ZM13.3304 0.344238C13.0033 0.344238 12.7225 0.227051 12.4881-0.00732422 12.2537-0.241699 12.1366-0.522461 12.1366-0.849609 12.1366-1.17676 12.2537-1.45752 12.4881-1.69189 12.7225-1.92627 13.0033-2.04346 13.3304-2.04346 13.6576-2.04346 13.9383-1.92627 14.1727-1.69189 14.4071-1.45752 14.5243-1.17676 14.5243-0.849609 14.5243-0.522461 14.4071-0.241699 14.1727-0.00732422 13.9383 0.227051 13.6576 0.344238 13.3304 0.344238ZM22.8449 0 22.8449-3.17871 18.0182-3.17871 18.0182-4.32129 22.8447-11.3672 24.2145-11.3672 24.2145-4.32129 26.3166-4.32129 26.3166-3.17871 24.2145-3.17871 24.2145 0ZM22.8449-4.32129 22.8449-9.30702 19.4652-4.32129ZM30.9971 0.344238C30.6699 0.344238 30.3892 0.227051 30.1548-0.00732422 29.9204-0.241699 29.8032-0.522461 29.8032-0.849609 29.8032-1.17676 29.9204-1.45752 30.1548-1.69189 30.3892-1.92627 30.6699-2.04346 30.9971-2.04346 31.3242-2.04346 31.605-1.92627 31.8394-1.69189 32.0737-1.45752 32.1909-1.17676 32.1909-0.849609 32.1909-0.522461 32.0737-0.241699 31.8394-0.00732422 31.605 0.227051 31.3242 0.344238 30.9971 0.344238Z" fill="#FFFFFF" transform="matrix(1 0 0 1.00029 15.1169 26)"/><path d="M12.4219-5.03906C12.3828-4.53125 12.3633-3.98437 12.3633-3.39844 12.3633-2.8125 12.3828-2.12891 12.4219-1.34766L11.25-1.34766 11.25-4.04297 3.98438-4.04297 3.98438-0.996094 2.8125-0.996094C2.85156-1.89453 2.87109-2.63672 2.87109-3.22266 2.87109-3.84766 2.85156-4.45312 2.8125-5.03906ZM9.90234-9.55078C9.62891-9.08203 9.60938-8.68164 9.84375-8.34961 10.0781-8.01758 10.4004-7.70508 10.8105-7.41211 11.2207-7.11914 11.7285-6.875 12.334-6.67969 12.9395-6.48437 13.6133-6.36719 14.3555-6.32812 14.043-5.89844 13.8086-5.48828 13.6523-5.09766 12.6758-5.29297 11.8066-5.58594 11.0449-5.97656 10.2832-6.36719 9.64844-6.99219 9.14062-7.85156 8.78906-6.95312 8.28125-6.32812 7.61719-5.97656 6.95312-5.625 6.23047-5.33203 5.44922-5.09766 5.13672-5.44922 4.82422-5.76172 4.51172-6.03516 6.15234-6.34766 7.22656-6.81641 7.73438-7.44141 8.24219-8.06641 8.51562-8.82812 8.55469-9.72656ZM7.32422-9.96094C6.85547-9.33594 6.40625-8.86719 5.97656-8.55469 5.70312-8.82812 5.41016-9.0625 5.09766-9.25781 5.56641-9.57031 6.00586-9.99023 6.41602-10.5176 6.82617-11.0449 7.14844-11.6016 7.38281-12.1875 7.73437-12.0312 8.16406-11.9141 8.67188-11.8359 8.47656-11.4844 8.24219-11.1719 7.96875-10.8984L13.4766-10.8984C13.3594-10.6641 13.0078-9.90234 12.4219-8.61328 11.9531-8.73047 11.5625-8.80859 11.25-8.84766 11.4453-9.27734 11.6211-9.64844 11.7773-9.96094ZM8.26172-3.22266C8.06641-2.79297 7.91992-2.36328 7.82227-1.93359 7.72461-1.50391 7.4707-1.06445 7.06055-0.615234 6.65039-0.166016 6.05469 0.253906 5.27344 0.644531 4.49219 1.03516 3.35937 1.34766 1.875 1.58203 1.75781 1.19141 1.52344 0.820312 1.17188 0.46875 2.30469 0.429687 3.25195 0.283203 4.01367 0.0292969 4.77539-0.224609 5.35156-0.507812 5.74219-0.820312 6.13281-1.13281 6.41602-1.51367 6.5918-1.96289 6.76758-2.41211 6.85547-2.89062 6.85547-3.39844 7.32422-3.32031 7.79297-3.26172 8.26172-3.22266ZM8.96484-1.64062C9.70703-1.36719 10.4297-1.09375 11.1328-0.820312 11.8359-0.546875 12.6758-0.195312 13.6523 0.234375 13.418 0.546875 13.2031 0.9375 13.0078 1.40625 12.2656 0.976562 11.5332 0.605469 10.8105 0.292969 10.0879-0.0195312 9.31641-0.3125 8.49609-0.585938 8.69141-0.898437 8.84766-1.25 8.96484-1.64062ZM4.86328-7.79297C3.88672-6.89453 2.94922-5.89844 2.05078-4.80469 1.66016-5.23438 1.34766-5.52734 1.11328-5.68359 2.36328-6.66016 3.33984-7.59766 4.04297-8.49609 4.23828-8.30078 4.51172-8.06641 4.86328-7.79297ZM3.98438-9.31641C3.35937-9.78516 2.51953-10.332 1.46484-10.957 1.73828-11.2305 1.97266-11.5039 2.16797-11.7773 2.51953-11.543 3.35938-11.0156 4.6875-10.1953 4.45312-9.96094 4.21875-9.66797 3.98438-9.31641ZM25.1549-10.0781C24.9596-9.76562 24.7643-9.375 24.569-8.90625L27.9089-8.90625C27.8698-8.32031 27.8503-7.73437 27.8503-7.14844L27.8503-5.68359C27.8503-5.25391 27.8698-4.64844 27.9089-3.86719L25.3893-3.86719 25.3893 0.0585938C25.3893 0.527344 25.2428 0.888672 24.9499 1.14258 24.6569 1.39648 24.1979 1.5625 23.5729 1.64062 23.4557 1.21094 23.2799 0.78125 23.0456 0.351562 23.8659 0.46875 24.276 0.273437 24.276-0.234375L24.276-3.86719 21.8151-3.86719C21.8542-4.49219 21.8737-5.07812 21.8737-5.625L21.8737-7.20703C21.8737-7.71484 21.8542-8.28125 21.8151-8.90625L23.3971-8.90625C23.5534-9.25781 23.7096-9.74609 23.8659-10.3711 24.2565-10.2539 24.6862-10.1562 25.1549-10.0781ZM17.4792 0.410156C18.026-0.0976562 18.4362-0.654297 18.7096-1.25977 18.9831-1.86523 19.1882-2.57812 19.3249-3.39844 19.4616-4.21875 19.5397-5.06836 19.5592-5.94727 19.5788-6.82617 19.5885-7.77344 19.5885-8.78906 19.5885-9.84375 19.569-10.8008 19.5299-11.6602L26.2096-11.6602C27.1081-11.6602 27.9674-11.6797 28.7878-11.7188L28.7878-10.6055C27.9674-10.6445 27.1081-10.6641 26.2096-10.6641L20.7018-10.6641 20.7018-6.73828C20.7018-5.80078 20.6725-4.95117 20.6139-4.18945 20.5553-3.42773 20.4186-2.68555 20.2038-1.96289 19.9889-1.24023 19.7448-0.615234 19.4714-0.0878906 19.1979 0.439453 18.8659 0.957031 18.4753 1.46484 18.2799 1.07422 17.9479 0.722656 17.4792 0.410156ZM18.2995-4.16016C18.026-3.37891 17.7135-2.44141 17.362-1.34766 17.0104-0.253906 16.7565 0.546875 16.6003 1.05469 16.2487 0.78125 15.7995 0.527344 15.2526 0.292969 15.487-0.0195312 15.7995-0.654297 16.1901-1.61133 16.5807-2.56836 16.9128-3.67187 17.1862-4.92188 17.5768-4.60938 17.9479-4.35547 18.2995-4.16016ZM26.737-6.79688 26.737-7.96875 22.987-7.96875 22.987-6.79688ZM19.9987 0.234375C20.3112-0.078125 20.6432-0.478516 20.9948-0.966797 21.3464-1.45508 21.6979-2.03125 22.0495-2.69531 22.3229-2.42188 22.7135-2.16797 23.2214-1.93359 22.8307-1.58203 22.4792-1.16211 22.1667-0.673828 21.8542-0.185547 21.4635 0.351562 20.9948 0.9375 20.6432 0.664062 20.3112 0.429687 19.9987 0.234375ZM26.737-4.80469 26.737-5.85938 22.987-5.85938 22.987-4.80469ZM27.0885-2.63672C28.1823-1.42578 28.8659-0.625 29.1393-0.234375 28.7878 0.0390625 28.4753 0.3125 28.2018 0.585938 27.8893 0.15625 27.5964-0.244141 27.3229-0.615234 27.0495-0.986328 26.6784-1.42578 26.2096-1.93359 26.4831-2.12891 26.776-2.36328 27.0885-2.63672ZM17.7721-6.03516C17.4596-6.34766 17.0885-6.62109 16.6589-6.85547L15.3698-7.55859C15.526-7.83203 15.7018-8.14453 15.8971-8.49609 16.2487-8.30078 16.6686-8.07617 17.1569-7.82227 17.6452-7.56836 18.0846-7.32422 18.4753-7.08984ZM18.0065-9.31641C17.3034-10.0977 16.6198-10.7227 15.9557-11.1914 16.1901-11.4648 16.444-11.7383 16.7174-12.0117 17.7721-11.1914 18.4753-10.5859 18.8268-10.1953 18.5534-9.92188 18.2799-9.62891 18.0065-9.31641ZM41.5208-11.25C42.1068-11.25 42.6927-11.2695 43.2786-11.3086L43.2786-10.3125C42.6927-10.3516 42.1068-10.3711 41.5208-10.3711L39.8802-10.3711C39.763-9.78516 39.6458-9.14062 39.5286-8.4375L42.7513-8.4375C42.7122-7.85156 42.6927-7.22656 42.6927-6.5625L42.6927-4.04297C42.6927-3.37891 42.7122-2.69531 42.7513-1.99219L41.638-1.99219 41.638-7.55859 37.6536-7.55859 37.6536-1.875 36.5404-1.875C36.5794-2.77344 36.599-3.49609 36.599-4.04297L36.599-6.50391C36.599-7.12891 36.5794-7.77344 36.5404-8.4375L38.474-8.4375C38.6302-9.29688 38.7083-9.94141 38.7083-10.3711L38.0638-10.3711C37.3997-10.3711 36.7161-10.3516 36.013-10.3125L36.013-11.3086C36.7552-11.2695 37.4388-11.25 38.0638-11.25ZM35.4271-4.16016C35.0365-4.23828 34.6849-4.27734 34.3724-4.27734 34.5286-4.94141 34.6458-5.42969 34.724-5.74219L33.4349-5.74219 33.4349-0.292969C33.3958 0.371094 33.1419 0.78125 32.6732 0.9375 32.2044 1.09375 31.6771 1.17188 31.0911 1.17188 31.013 0.742188 30.8763 0.332031 30.681-0.0585938 31.5404 0.0195312 32.0384 0.00976562 32.1751-0.0878906 32.3119-0.185547 32.3802-0.429688 32.3802-0.820312L32.3802-5.74219 31.7357-5.74219C31.2279-5.74219 30.7005-5.72266 30.1536-5.68359L30.1536-6.67969C30.7005-6.64062 31.2083-6.62109 31.6771-6.62109L36.013-6.62109C35.8177-5.83984 35.6224-5.01953 35.4271-4.16016ZM40.4076-6.73828C40.2513-6.26953 40.1536-5.66406 40.1146-4.92188 40.0755-4.17969 39.9681-3.34961 39.7923-2.43164 39.6165-1.51367 39.2259-0.751953 38.6204-0.146484 38.015 0.458984 37.2044 1.03516 36.1888 1.58203 35.8372 1.30859 35.4857 1.05469 35.1341 0.820312 36.0716 0.46875 36.8236 0.0390625 37.39-0.46875 37.9564-0.976562 38.3568-1.55273 38.5911-2.19727 38.8255-2.8418 38.972-3.55469 39.0306-4.33594 39.0892-5.11719 39.1185-5.95703 39.1185-6.85547ZM33.1419-6.79688C32.5951-7.38281 31.9505-7.96875 31.2083-8.55469 31.4036-8.75 31.6185-8.98438 31.8529-9.25781 32.1263-9.0625 32.3997-8.84766 32.6732-8.61328 33.181-9.35547 33.5911-9.90234 33.9036-10.2539L32.6146-10.2539C31.8333-10.2539 31.0911-10.2344 30.388-10.1953L30.388-11.1914C31.0911-11.1523 31.8138-11.1328 32.556-11.1328L35.3685-11.1328 35.3685-10.2539C34.7826-9.82422 34.1185-9.0625 33.3763-7.96875L33.9036-7.5C33.5911-7.22656 33.3372-6.99219 33.1419-6.79688ZM40.5247-1.69922C42.0091-0.566406 43.0247 0.253906 43.5716 0.761719 43.2201 1.03516 42.9466 1.28906 42.7513 1.52344 42.2435 1.01562 41.7845 0.576172 41.3744 0.205078 40.9642-0.166016 40.4857-0.507812 39.9388-0.820312 40.1341-1.09375 40.3294-1.38672 40.5247-1.69922ZM57.0664-5.39062C57.0273-4.76562 57.0078-3.96484 57.0078-2.98828L57.0078-0.878906C57.0078-0.214844 57.0273 0.585938 57.0664 1.52344L55.8359 1.52344 55.8359 0.351562 47.5156 0.351562 47.5156 1.52344 46.2852 1.52344C46.3242 0.351562 46.3438-0.507812 46.3438-1.05469L46.3438-2.98828C46.3438-4.00391 46.3242-4.80469 46.2852-5.39062ZM51.8516-5.80078C51.6953-6.07422 51.3438-6.36719 50.7969-6.67969 51.4609-6.99219 52.0273-7.42187 52.4961-7.96875 52.9648-8.51562 53.2773-9.33594 53.4336-10.4297 52.8867-10.4297 52.2617-10.3906 51.5586-10.3125L51.5586-11.4258C52.2617-11.3867 52.9062-11.3672 53.4922-11.3672L57.9453-11.3672C57.8281-10.7031 57.7305-9.9707 57.6523-9.16992 57.5742-8.36914 57.4961-7.75391 57.418-7.32422 57.3398-6.89453 57.1348-6.62109 56.8027-6.50391 56.4707-6.38672 55.9336-6.25 55.1914-6.09375 55.0352-6.64062 54.8398-7.10937 54.6055-7.5 55.1914-7.5 55.6211-7.51953 55.8945-7.55859 56.168-7.59766 56.334-7.73437 56.3926-7.96875 56.4512-8.20312 56.5195-9.02344 56.5977-10.4297L54.6055-10.4297C54.4492-9.21875 54.127-8.28125 53.6387-7.61719 53.1504-6.95312 52.5547-6.34766 51.8516-5.80078ZM49.1562-8.37891C48.9219-8.73047 48.668-9.04297 48.3945-9.31641 48.7852-9.51172 49.0977-9.72656 49.332-9.96094 49.918-9.17969 50.4844-8.39844 51.0312-7.61719 50.7188-7.38281 50.3867-7.14844 50.0352-6.91406 49.918-7.14844 49.7812-7.38281 49.625-7.61719 49-7.34375 48.3652-7.04102 47.7207-6.70898 47.0762-6.37695 46.4609-6.03516 45.875-5.68359 45.6797-6.03516 45.4453-6.36719 45.1719-6.67969 45.4453-6.91406 45.582-7.36328 45.582-8.02734L45.582-9.66797C45.582-10.332 45.5625-10.8984 45.5234-11.3672 46.1875-11.3672 46.9102-11.4258 47.6914-11.543 48.4727-11.6602 49.2344-11.8945 49.9766-12.2461 50.1328-11.8555 50.4453-11.4453 50.9141-11.0156 50.6406-11.0156 50.123-10.9375 49.3613-10.7812 48.5996-10.625 47.7305-10.5078 46.7539-10.4297L46.7539-7.32422C47.418-7.59766 48.2188-7.94922 49.1562-8.37891ZM51.207-0.585938 51.207-2.05078 47.5156-2.05078 47.5156-0.585938ZM51.207-2.98828 51.207-4.45312 47.5156-4.45312 47.5156-2.98828ZM55.8359-2.98828 55.8359-4.45312 52.3203-4.45312 52.3203-2.98828ZM55.8359-0.585938 55.8359-2.05078 52.3203-2.05078 52.3203-0.585938ZM71.3815-11.9531 72.026-11.1914C69.7995-9.55078 68.7253-7.65625 68.8034-5.50781 68.8425-3.4375 69.8971-1.64062 71.9675-0.117188L71.3229 0.644531C68.9401-1.07422 67.7878-3.24219 67.8659-5.85938 67.8659-8.00781 69.0378-10.0391 71.3815-11.9531Z" fill="#FFFFFF" transform="matrix(1 0 0 1.00029 50.4502 26)"/><path d="M3.75732 0 3.75732-10.1147 0.351562-10.1147 0.351562-11.3672 8.6499-11.3672 8.6499-10.1147 5.23682-10.1147 5.23682 0ZM10.6644 0 10.6644-8.18115 12.0267-8.18115 12.0267-6.39404C12.8714-7.73682 13.9701-8.4082 15.3226-8.4082 15.8158-8.4082 16.3089-8.33252 16.8021-8.18115L16.8021-5.22949 15.491-5.22949 15.491-7.09717C15.2616-7.13623 15.0809-7.15576 14.9491-7.15576 13.9285-7.15576 12.9544-6.35498 12.0267-4.75342L12.0267 0ZM21.8122-0.335083 18.033-8.18115 19.5366-8.18115 22.5479-2.04346 25.0608-8.18115 26.4338-8.18115 23.2623-0.578613C22.7056 0.754394 22.2051 1.67725 21.7608 2.18994 21.0577 3.00537 20.1422 3.41309 19.0143 3.41309 18.5993 3.41309 18.2282 3.37646 17.901 3.30322L17.901 2.10205C18.277 2.21436 18.6359 2.27051 18.9777 2.27051 19.8761 2.27051 20.5793 1.88259 21.0871 1.10676 21.3507 0.706673 21.5509 0.330963 21.6877-0.0203705Z" fill="#FFFFFF" transform="matrix(1 0 0 1.00029 123.784 26)"/><path d="M2.34375-11.9531C4.6875-10.0391 5.85938-8.00781 5.85938-5.85938 5.9375-3.24219 4.78516-1.07422 2.40234 0.644531L1.75781-0.117188C3.82812-1.64062 4.88281-3.4375 4.92188-5.50781 5-7.65625 3.92578-9.55078 1.69922-11.1914Z" fill="#FFFFFF" transform="matrix(1 0 0 1.00029 150.284 26)"/></g></g></g><path d="M283.5 152.045C283.5 149.559 285.515 147.543 288 147.543L438 147.543C440.485 147.543 442.5 149.559 442.5 152.045L442.5 170.05C442.5 172.536 440.485 174.551 438 174.551L288 174.551C285.515 174.551 283.5 172.536 283.5 170.05Z" stroke="#000000" stroke-linejoin="round" stroke-miterlimit="10" fill="#4C5252" fill-rule="evenodd"/><text fill="#FFFFFF" font-family="Monaco,Monaco_MSFontService,sans-serif" font-weight="400" font-size="15" transform="matrix(1 0 0 1.00029 287.117 166)">1.4.<tspan font-family="SimHei,SimHei_MSFontService,sans-serif" font-size="15" x="35.3333" y="0">资源预留（</tspan><tspan font-size="15" x="108.667" y="0">Try</tspan><tspan font-family="SimHei,SimHei_MSFontService,sans-serif" font-size="15" x="135.167" y="0">）</tspan></text><path d="M514.5 138.874 716.7 138.874 716.7 140.208 514.5 140.208ZM715.367 135.54 723.367 139.541 715.367 143.542Z"/><text fill="#595959" font-family="Monaco,Monaco_MSFontService,sans-serif" font-weight="400" font-size="15" transform="matrix(1 0 0 1.00029 572.65 130)">1.3.<tspan font-family="SimHei,SimHei_MSFontService,sans-serif" font-size="15" x="35.3333" y="0">注册分支事务</tspan></text><path d="M3.35741e-07-0.666667 201.801-0.666565 201.801 0.666768-3.35741e-07 0.666667ZM200.468-3.9999 208.468 0.000104987 200.468 4.0001Z" transform="matrix(1 0 0 -1.00029 514.5 178.552)"/><text fill="#595959" font-family="Monaco,Monaco_MSFontService,sans-serif" font-weight="400" font-size="15" transform="matrix(1 0 0 1.00029 572.65 168)">1.5.<tspan font-family="SimHei,SimHei_MSFontService,sans-serif" font-size="15" x="35.3333" y="0">报告事务状态</tspan></text><path d="M2.51953e-07-0.666667 10.6667-0.666663 10.6667 0.666671-2.51953e-07 0.666667ZM14.6667-0.666661 25.3333-0.666657 25.3333 0.666676 14.6667 0.666672ZM29.3333-0.666656 40-0.666652 40 0.666682 29.3333 0.666678ZM44-0.66665 54.6667-0.666646 54.6667 0.666687 44 0.666683ZM58.6667-0.666644 69.3333-0.66664 69.3333 0.666693 58.6667 0.666689ZM73.3333-0.666639 84-0.666635 84 0.666698 73.3333 0.666694ZM88-0.666633 98.6667-0.666629 98.6667 0.666704 88 0.6667ZM102.667-0.666628 113.333-0.666624 113.333 0.666709 102.667 0.666705ZM117.333-0.666622 128-0.666618 128 0.666715 117.333 0.666711ZM132-0.666617 142.667-0.666613 142.667 0.666721 132 0.666717ZM146.667-0.666611 157.333-0.666607 157.333 0.666726 146.667 0.666722ZM161.333-0.666606 172-0.666602 172 0.666732 161.333 0.666728ZM176-0.6666 186.667-0.666596 186.667 0.666737 176 0.666733ZM190.667-0.666595 201.333-0.666591 201.333 0.666743 190.667 0.666739ZM205.333-0.666589 216-0.666585 216 0.666748 205.333 0.666744ZM220-0.666583 230.667-0.666579 230.667 0.666754 220 0.66675ZM234.667-0.666578 245.333-0.666574 245.333 0.666759 234.667 0.666755ZM249.333-0.666572 260-0.666568 260 0.666765 249.333 0.666761ZM264-0.666567 271.129-0.666564 271.129 0.666769 264 0.666766ZM269.795-3.9999 277.795 0.000104987 269.795 4.0001Z" fill="#4A7EBB" transform="matrix(-1 0 0 1.00029 720.295 208.561)"/><text fill="#0070C0" font-family="Monaco,Monaco_MSFontService,sans-serif" font-weight="400" font-size="15" transform="matrix(1 0 0 1.00029 572.65 200)">2.3.<tspan font-family="SimHei,SimHei_MSFontService,sans-serif" font-size="15" x="35.3333" y="0">提交</tspan></text><path d="M0-0.666667 10.6667-0.666667 10.6667 0.666667 0 0.666667ZM14.6667-0.666667 25.3333-0.666667 25.3333 0.666667 14.6667 0.666667ZM29.3333-0.666667 32.5648-0.666667C32.933-0.666667 33.2315-0.36819 33.2315 0L33.2315 7.43517 31.8982 7.43517 31.8982 0 32.5648 0.666667 29.3333 0.666667ZM33.2315 11.4352 33.2315 22.1018 31.8982 22.1018 31.8982 11.4352ZM33.2315 26.1018 33.2315 36.7685 31.8982 36.7685 31.8982 26.1018ZM33.2315 40.7685 33.2315 51.4352 31.8982 51.4352 31.8982 40.7685ZM33.2315 55.4352 33.2315 66.1018 31.8982 66.1018 31.8982 55.4352ZM33.2315 70.1018 33.2315 80.7685 31.8982 80.7685 31.8982 70.1018ZM33.2315 84.7685 33.2315 95.4352 31.8982 95.4352 31.8982 84.7685ZM33.2315 99.4352 33.2315 110.102 31.8982 110.102 31.8982 99.4352ZM33.2315 114.102 33.2315 124.769 31.8982 124.769 31.8982 114.102ZM33.2315 128.768 33.2315 139.435 31.8982 139.435 31.8982 128.768ZM33.2315 143.435 33.2315 154.102 31.8982 154.102 31.8982 143.435ZM33.2315 158.102 33.2315 161.399C33.2315 161.767 32.933 162.065 32.5648 162.065L25.195 162.065 25.195 160.732 32.5648 160.732 31.8982 161.399 31.8982 158.102ZM21.195 162.065 10.5283 162.065 10.5283 160.732 21.195 160.732ZM9.33333 165.399 1.33333 161.399 9.33333 157.399Z" fill="#4A7EBB" transform="matrix(1 0 0 -1.00029 794.5 436.026)"/><text fill="#0070C0" font-family="Monaco,Monaco_MSFontService,sans-serif" font-weight="400" font-size="15" transform="matrix(1 0 0 1.00029 833.021 330)">2.2.<tspan font-family="SimHei,SimHei_MSFontService,sans-serif" font-size="15" x="0" y="18.9944">检查</tspan><tspan font-family="SimHei,SimHei_MSFontService,sans-serif" font-size="15" x="0" y="35.9895">分支</tspan><tspan font-family="SimHei,SimHei_MSFontService,sans-serif" font-size="15" x="0" y="53.9842">事务</tspan><tspan font-family="SimHei,SimHei_MSFontService,sans-serif" font-size="15" x="0" y="70.9792">状态</tspan></text><path d="M2.51953e-07-0.666667 10.6667-0.666663 10.6667 0.666671-2.51953e-07 0.666667ZM14.6667-0.666661 25.3333-0.666657 25.3333 0.666676 14.6667 0.666672ZM29.3333-0.666656 40-0.666652 40 0.666682 29.3333 0.666678ZM44-0.66665 54.6667-0.666646 54.6667 0.666687 44 0.666683ZM58.6667-0.666644 69.3333-0.66664 69.3333 0.666693 58.6667 0.666689ZM73.3333-0.666639 84-0.666635 84 0.666698 73.3333 0.666694ZM88-0.666633 98.6667-0.666629 98.6667 0.666704 88 0.6667ZM102.667-0.666628 113.333-0.666624 113.333 0.666709 102.667 0.666705ZM117.333-0.666622 128-0.666618 128 0.666715 117.333 0.666711ZM132-0.666617 142.667-0.666613 142.667 0.666721 132 0.666717ZM146.667-0.666611 157.333-0.666607 157.333 0.666726 146.667 0.666722ZM161.333-0.666606 172-0.666602 172 0.666732 161.333 0.666728ZM176-0.6666 186.667-0.666596 186.667 0.666737 176 0.666733ZM190.667-0.666595 201.333-0.666591 201.333 0.666743 190.667 0.666739ZM205.333-0.666589 216-0.666585 216 0.666748 205.333 0.666744ZM220-0.666583 230.667-0.666579 230.667 0.666754 220 0.66675ZM234.667-0.666578 245.333-0.666574 245.333 0.666759 234.667 0.666755ZM249.333-0.666572 260-0.666568 260 0.666765 249.333 0.666761ZM264-0.666567 271.129-0.666564 271.129 0.666769 264 0.666766ZM269.795-3.9999 277.795 0.000104987 269.795 4.0001Z" fill="#E46C0A" transform="matrix(-1 0 0 1.00029 720.295 242.571)"/><text fill="#E46C0A" font-family="Monaco,Monaco_MSFontService,sans-serif" font-weight="400" font-size="15" transform="matrix(1 0 0 1.00029 572.65 234)">2.3.<tspan font-family="SimHei,SimHei_MSFontService,sans-serif" font-size="15" x="35.3333" y="0">回滚</tspan></text><g clip-path="url(#clip18)"><g clip-path="url(#clip19)" filter="url(#fx2)" transform="translate(277 191)"><g clip-path="url(#clip20)"><path d="M6.50006 11.4742C6.50006 8.98811 8.51484 6.97273 11.0002 6.97273L161 6.97273C163.485 6.97273 165.5 8.98811 165.5 11.4742L165.5 29.4792C165.5 31.9653 163.485 33.9806 161 33.9806L11.0002 33.9806C8.51484 33.9806 6.50006 31.9653 6.50006 29.4792Z" stroke="#4A7EBB" stroke-linejoin="round" stroke-miterlimit="10" fill="#FF0000" fill-rule="evenodd"/></g></g><g clip-path="url(#clip21)" filter="url(#fx3)" transform="translate(298 192)"><g clip-path="url(#clip22)"><path d="M7.96875 0 1.09131 0 1.09131-1.25244C1.09131-1.98425 1.40915-2.74292 2.04483-3.52844 2.42622-3.99673 2.81982-4.43825 3.22563-4.85298L3.99937-5.64663C5.09296-6.75831 5.78377-7.57988 6.07178-8.11134 6.23779-8.42346 6.3208-8.73066 6.3208-9.03294 6.3208-9.51565 6.11816-9.89841 5.71289-10.1812 5.35156-10.4348 4.91943-10.5615 4.4165-10.5615 3.83545-10.5615 3.22266-10.4575 2.57812-10.2493 2.31934-10.1622 1.89941-9.98795 1.31836-9.72656L1.31836-10.9351C2.39746-11.4478 3.52295-11.7041 4.69482-11.7041 6.04736-11.7041 6.96045-11.3086 7.43408-10.5176 7.67334-10.1123 7.79297-9.68018 7.79297-9.22119 7.79297-8.58154 7.5415-7.91016 7.03857-7.20703 6.75049-6.80176 6.26221-6.25732 5.57373-5.57373L4.03564-4.05762C3.61572-3.64746 3.25684-3.21289 2.95898-2.75391 2.68555-2.33398 2.53418-1.8335 2.50488-1.25244L7.96875-1.25244ZM13.3304 0.344238C13.0033 0.344238 12.7225 0.227051 12.4881-0.00732422 12.2537-0.241699 12.1366-0.522461 12.1366-0.849609 12.1366-1.17676 12.2537-1.45752 12.4881-1.69189 12.7225-1.92627 13.0033-2.04346 13.3304-2.04346 13.6576-2.04346 13.9383-1.92627 14.1727-1.69189 14.4071-1.45752 14.5243-1.17676 14.5243-0.849609 14.5243-0.522461 14.4071-0.241699 14.1727-0.00732422 13.9383 0.227051 13.6576 0.344238 13.3304 0.344238ZM22.8449 0 22.8449-3.17871 18.0182-3.17871 18.0182-4.32129 22.8447-11.3672 24.2145-11.3672 24.2145-4.32129 26.3166-4.32129 26.3166-3.17871 24.2145-3.17871 24.2145 0ZM22.8449-4.32129 22.8449-9.30702 19.4652-4.32129ZM30.9971 0.344238C30.6699 0.344238 30.3892 0.227051 30.1548-0.00732422 29.9204-0.241699 29.8032-0.522461 29.8032-0.849609 29.8032-1.17676 29.9204-1.45752 30.1548-1.69189 30.3892-1.92627 30.6699-2.04346 30.9971-2.04346 31.3242-2.04346 31.605-1.92627 31.8394-1.69189 32.0737-1.45752 32.1909-1.17676 32.1909-0.849609 32.1909-0.522461 32.0737-0.241699 31.8394-0.00732422 31.605 0.227051 31.3242 0.344238 30.9971 0.344238ZM43.3094-0.131836C42.4598 0.185547 41.6981 0.344238 41.0243 0.344238 40.077 0.344238 39.2323 0.0878906 38.4901-0.424805 37.7723-0.917969 37.2181-1.60889 36.8275-2.49756 36.4124-3.43506 36.2049-4.49707 36.2049-5.68359 36.2049-6.76758 36.3807-7.75635 36.7323-8.6499 37.1424-9.68506 37.7503-10.4639 38.556-10.9863 39.3031-11.4697 40.1258-11.7114 41.0243-11.7114 41.6981-11.7114 42.4598-11.5527 43.3094-11.2354L43.3094-9.8877C42.5233-10.3418 41.742-10.5688 40.9657-10.5688 39.7157-10.5688 38.7879-9.78329 38.1825-8.21217 37.8846-7.43641 37.7357-6.59477 37.7357-5.68726 37.7357-4.87732 37.8626-4.09908 38.1165-3.35255 38.4095-2.47921 38.8294-1.82297 39.3763-1.38382 39.8548-0.9935 40.3846-0.79834 40.9657-0.79834 41.7371-0.79834 42.5184-1.02295 43.3094-1.47217ZM48.6711 0.227051C47.4699 0.227051 46.5129-0.200195 45.8-1.05469 45.1359-1.85547 44.8039-2.86865 44.8039-4.09424 44.8039-5.31982 45.1384-6.33057 45.8073-7.12646 46.5153-7.98096 47.4699-8.4082 48.6711-8.4082 49.8674-8.4082 50.8219-7.98096 51.5348-7.12646 52.1989-6.32568 52.5309-5.31494 52.5309-4.09424 52.5309-2.87354 52.1989-1.86035 51.5348-1.05469 50.8219-0.200195 49.8674 0.227051 48.6711 0.227051ZM48.6711-0.915527C49.4914-0.915527 50.1115-1.25652 50.5314-1.93851 50.8781-2.50362 51.0514-3.2222 51.0514-4.09424 51.0514-4.9614 50.8757-5.67753 50.5241-6.24264 50.1042-6.92463 49.4865-7.26562 48.6711-7.26562 47.8508-7.26562 47.2306-6.92703 46.8107-6.24985 46.4592-5.68481 46.2834-4.96628 46.2834-4.09424 46.2834-3.2222 46.4592-2.50362 46.8107-1.93851 47.2306-1.25652 47.8508-0.915527 48.6711-0.915527ZM54.1353 0 54.1353-8.18115 55.4976-8.18115 55.4976-6.39404C55.854-6.96533 56.2837-7.43164 56.7866-7.79297 57.3677-8.20312 57.9609-8.4082 58.5664-8.4082 59.04-8.4082 59.4758-8.28369 59.8738-8.03467 60.2717-7.78564 60.5513-7.44995 60.7124-7.02759 60.8735-6.60522 60.9541-5.78613 60.9541-4.57031L60.9541 0 59.5918 0 59.5918-4.73877C59.5918-5.35889 59.5796-5.74707 59.5552-5.90332 59.4917-6.36719 59.3281-6.7041 59.0645-6.91406 58.8594-7.07519 58.6372-7.15576 58.398-7.15576 57.8511-7.15576 57.2798-6.87988 56.6841-6.32812 56.2007-5.87891 55.8052-5.35889 55.4976-4.76807L55.4976 0ZM64.8729 0 64.8729-6.35742 63.0565-6.35742 63.0565-7.5 64.8729-7.5 64.8729-7.88086C64.8729-8.76953 64.9535-9.45801 65.1146-9.94629 65.3392-10.6152 65.7591-11.1499 66.3744-11.5503 66.8822-11.8823 67.556-12.0483 68.3958-12.0483 69.0306-12.0483 69.6751-11.9824 70.3294-11.8506L70.3294-10.5542C69.6214-10.7886 68.994-10.9058 68.4471-10.9058 67.5145-10.9058 66.8724-10.564 66.5208-9.88037 66.3304-9.51416 66.2352-8.89648 66.2352-8.02734L66.2352-7.5 69.4798-7.5 69.4798-6.35742 66.2352-6.35742 66.2352 0ZM74.1017 0 74.1017-7.03857 71.8312-7.03857 71.8312-8.18115 75.464-8.18115 75.464-1.14258 77.7419-1.14258 77.7419 0ZM73.8747-11.1328C73.8747-11.3867 73.9626-11.6028 74.1384-11.781 74.3141-11.9592 74.529-12.0483 74.7829-12.0483 75.0368-12.0483 75.2529-11.9592 75.4311-11.781 75.6093-11.6028 75.6984-11.3867 75.6984-11.1328 75.6984-10.8838 75.6093-10.6702 75.4311-10.4919 75.2529-10.3137 75.0368-10.2246 74.7829-10.2246 74.5339-10.2246 74.3202-10.3137 74.142-10.4919 73.9638-10.6702 73.8747-10.8838 73.8747-11.1328ZM81.3311 0 81.3311-8.18115 82.6934-8.18115 82.6934-6.39404C83.5381-7.73682 84.6367-8.4082 85.9893-8.4082 86.4824-8.4082 86.9756-8.33252 87.4688-8.18115L87.4688-5.22949 86.1577-5.22949 86.1577-7.09717C85.9282-7.13623 85.7476-7.15576 85.6157-7.15576 84.5952-7.15576 83.6211-6.35498 82.6934-4.75342L82.6934 0ZM88.8534 0 88.8534-8.18115 90.0472-8.18115 90.0472-6.30615C90.7127-7.70752 91.3929-8.4082 92.0878-8.4082 92.5478-8.4082 92.8928-8.21533 93.1228-7.82959 93.3136-7.51221 93.409-7.10937 93.409-6.62109L93.409-6.18164C93.6867-7.05078 94.1155-7.70264 94.6954-8.13721 94.9389-8.31787 95.2191-8.4082 95.5358-8.4082 96.3836-8.4082 96.8075-7.66602 96.8075-6.18164L96.8075 0 95.6136 0 95.6136-5.58838C95.6136-6.32568 95.5406-6.76758 95.3946-6.91406 95.307-7.00195 95.2121-7.0459 95.11-7.0459 94.5405-7.0459 93.9735-6.2085 93.409-4.53369L93.409 0 92.2591 0 92.2591-5.58105C92.2591-6.55762 92.0614-7.0459 91.6659-7.0459 91.1776-7.0459 90.638-6.27197 90.0472-4.72412L90.0472 0Z" fill="#FFFFFF" transform="matrix(1 0 0 1.00029 15.4502 24)"/></g></g></g><path d="M283.5 200.059C283.5 197.573 285.515 195.557 288 195.557L438 195.557C440.485 195.557 442.5 197.573 442.5 200.059L442.5 218.064C442.5 220.55 440.485 222.565 438 222.565L288 222.565C285.515 222.565 283.5 220.55 283.5 218.064Z" stroke="#4A7EBB" stroke-linejoin="round" stroke-miterlimit="10" fill="url(#fill23)" fill-rule="evenodd"/><text fill="#FFFFFF" font-family="Monaco,Monaco_MSFontService,sans-serif" font-weight="400" font-size="15" transform="matrix(1 0 0 1.00029 313.45 214)">2.4.Confirm</text><g clip-path="url(#clip24)"><g clip-path="url(#clip25)" filter="url(#fx4)" transform="translate(277 225)"><g clip-path="url(#clip26)"><path d="M6.50006 11.4842C6.50006 8.99807 8.51484 6.9827 11.0002 6.9827L161 6.9827C163.485 6.9827 165.5 8.99807 165.5 11.4842L165.5 29.4891C165.5 31.9752 163.485 33.9906 161 33.9906L11.0002 33.9906C8.51484 33.9906 6.50006 31.9752 6.50006 29.4891Z" stroke="#F69240" stroke-linejoin="round" stroke-miterlimit="10" fill="#FF0000" fill-rule="evenodd"/></g></g><g clip-path="url(#clip27)" filter="url(#fx5)" transform="translate(303 226)"><g clip-path="url(#clip28)"><path d="M7.96875 0 1.09131 0 1.09131-1.25244C1.09131-1.98425 1.40915-2.74292 2.04483-3.52844 2.42622-3.99673 2.81982-4.43825 3.22563-4.85298L3.99937-5.64663C5.09296-6.75831 5.78377-7.57988 6.07178-8.11134 6.23779-8.42346 6.3208-8.73066 6.3208-9.03294 6.3208-9.51565 6.11816-9.89841 5.71289-10.1812 5.35156-10.4348 4.91943-10.5615 4.4165-10.5615 3.83545-10.5615 3.22266-10.4575 2.57812-10.2493 2.31934-10.1622 1.89941-9.98795 1.31836-9.72656L1.31836-10.9351C2.39746-11.4478 3.52295-11.7041 4.69482-11.7041 6.04736-11.7041 6.96045-11.3086 7.43408-10.5176 7.67334-10.1123 7.79297-9.68018 7.79297-9.22119 7.79297-8.58154 7.5415-7.91016 7.03857-7.20703 6.75049-6.80176 6.26221-6.25732 5.57373-5.57373L4.03564-4.05762C3.61572-3.64746 3.25684-3.21289 2.95898-2.75391 2.68555-2.33398 2.53418-1.8335 2.50488-1.25244L7.96875-1.25244ZM13.3304 0.344238C13.0033 0.344238 12.7225 0.227051 12.4881-0.00732422 12.2537-0.241699 12.1366-0.522461 12.1366-0.849609 12.1366-1.17676 12.2537-1.45752 12.4881-1.69189 12.7225-1.92627 13.0033-2.04346 13.3304-2.04346 13.6576-2.04346 13.9383-1.92627 14.1727-1.69189 14.4071-1.45752 14.5243-1.17676 14.5243-0.849609 14.5243-0.522461 14.4071-0.241699 14.1727-0.00732422 13.9383 0.227051 13.6576 0.344238 13.3304 0.344238ZM22.8449 0 22.8449-3.17871 18.0182-3.17871 18.0182-4.32129 22.8447-11.3672 24.2145-11.3672 24.2145-4.32129 26.3166-4.32129 26.3166-3.17871 24.2145-3.17871 24.2145 0ZM22.8449-4.32129 22.8449-9.30702 19.4652-4.32129ZM30.9971 0.344238C30.6699 0.344238 30.3892 0.227051 30.1548-0.00732422 29.9204-0.241699 29.8032-0.522461 29.8032-0.849609 29.8032-1.17676 29.9204-1.45752 30.1548-1.69189 30.3892-1.92627 30.6699-2.04346 30.9971-2.04346 31.3242-2.04346 31.605-1.92627 31.8394-1.69189 32.0737-1.45752 32.1909-1.17676 32.1909-0.849609 32.1909-0.522461 32.0737-0.241699 31.8394-0.00732422 31.605 0.227051 31.3242 0.344238 30.9971 0.344238ZM43.3094-0.131836C42.4598 0.185547 41.6981 0.344238 41.0243 0.344238 40.077 0.344238 39.2323 0.0878906 38.4901-0.424805 37.7723-0.917969 37.2181-1.60889 36.8275-2.49756 36.4124-3.43506 36.2049-4.49707 36.2049-5.68359 36.2049-6.76758 36.3807-7.75635 36.7323-8.6499 37.1424-9.68506 37.7503-10.4639 38.556-10.9863 39.3031-11.4697 40.1258-11.7114 41.0243-11.7114 41.6981-11.7114 42.4598-11.5527 43.3094-11.2354L43.3094-9.8877C42.5233-10.3418 41.742-10.5688 40.9657-10.5688 39.7157-10.5688 38.7879-9.78329 38.1825-8.21217 37.8846-7.43641 37.7357-6.59477 37.7357-5.68726 37.7357-4.87732 37.8626-4.09908 38.1165-3.35255 38.4095-2.47921 38.8294-1.82297 39.3763-1.38382 39.8548-0.9935 40.3846-0.79834 40.9657-0.79834 41.7371-0.79834 42.5184-1.02295 43.3094-1.47217ZM50.6852-1.83838C50.3385-1.27197 49.9015-0.79834 49.3742-0.41748 48.7785 0.012207 48.1803 0.227051 47.5798 0.227051 46.696 0.227051 46.0124-0.166016 45.529-0.952148 45.1237-1.61133 44.9211-2.40967 44.9211-3.34717 44.9211-5.26611 45.5851-6.70166 46.9133-7.65381 47.5187-8.0835 48.2682-8.29834 49.1618-8.29834 49.4352-8.29834 49.8259-8.27148 50.3337-8.21777 50.3971-8.21289 50.5143-8.20068 50.6852-8.18115L52.0549-8.18115 52.0549-2.40234C52.0549-1.41602 52.1574-0.615234 52.3625 0L50.9416 0C50.8342-0.449219 50.7487-1.06201 50.6852-1.83838ZM50.6852-3.45703 50.6852-6.96533C50.2018-7.09228 49.7526-7.15576 49.3376-7.15576 48.3903-7.15576 47.6481-6.77734 47.111-6.02051 46.6374-5.34668 46.4006-4.5166 46.4006-3.53027 46.4006-2.93945 46.5031-2.41699 46.7082-1.96289 46.9767-1.37207 47.3747-1.07666 47.902-1.07666 48.4147-1.07666 48.9616-1.3623 49.5426-1.93359 49.9772-2.36328 50.3581-2.87109 50.6852-3.45703ZM54.1353 0 54.1353-8.18115 55.4976-8.18115 55.4976-6.39404C55.854-6.96533 56.2837-7.43164 56.7866-7.79297 57.3677-8.20312 57.9609-8.4082 58.5664-8.4082 59.04-8.4082 59.4758-8.28369 59.8738-8.03467 60.2717-7.78564 60.5513-7.44995 60.7124-7.02759 60.8735-6.60522 60.9541-5.78613 60.9541-4.57031L60.9541 0 59.5918 0 59.5918-4.73877C59.5918-5.35889 59.5796-5.74707 59.5552-5.90332 59.4917-6.36719 59.3281-6.7041 59.0645-6.91406 58.8594-7.07519 58.6372-7.15576 58.398-7.15576 57.8511-7.15576 57.2798-6.87988 56.6841-6.32812 56.2007-5.87891 55.8052-5.35889 55.4976-4.76807L55.4976 0ZM69.8534-0.234375C68.9403 0.0732422 68.0711 0.227051 67.2459 0.227051 66.4598 0.227051 65.7469 0.0488281 65.1073-0.307617 64.453-0.678711 63.9403-1.20361 63.5692-1.88232 63.2127-2.52686 63.0345-3.26172 63.0345-4.08691 63.0345-5.28809 63.4227-6.30371 64.1991-7.13379 64.9901-7.9834 65.9813-8.4082 67.1727-8.4082 68.0174-8.4082 68.911-8.24951 69.8534-7.93213L69.8534-6.62109C68.9012-7.05078 68.0492-7.26562 67.2972-7.26562 66.1449-7.26562 65.3368-6.75842 64.8729-5.74402 64.6336-5.22217 64.514-4.68567 64.514-4.13452 64.514-3.24692 64.7679-2.51537 65.2757-1.93989 65.8031-1.33022 66.5038-1.02539 67.3778-1.02539 68.0077-1.02539 68.8329-1.19873 69.8534-1.54541ZM78.6061-0.541992C77.5173-0.0244141 76.487 0.234375 75.5153 0.234375 73.9919 0.234375 72.8688-0.473633 72.1462-1.88965 71.7946-2.56836 71.6188-3.2959 71.6188-4.07227 71.6188-4.81934 71.78-5.52734 72.1022-6.19629 72.4391-6.89941 72.9067-7.44385 73.5048-7.82959 74.103-8.21533 74.7682-8.4082 75.5007-8.4082 76.6432-8.4082 77.4904-7.96631 78.0422-7.08252 78.4963-6.35498 78.7233-5.38086 78.7233-4.16016L78.7233-3.86719 73.0837-3.86719C73.0837-3.33984 73.1887-2.84912 73.3986-2.39502 73.6281-1.89209 73.9528-1.51367 74.3727-1.25977 74.7585-1.02539 75.1979-0.908203 75.6911-0.908203 76.57-0.908203 77.5417-1.20117 78.6061-1.78711ZM73.1642-4.88525 77.2438-4.88525 77.2438-5.08244C77.2438-5.69576 77.0998-6.19957 76.8117-6.59386 76.4894-7.0417 76.0329-7.26562 75.4421-7.26562 74.2507-7.26562 73.4914-6.47217 73.1642-4.88525ZM82.8399 0 82.8399-10.6787 80.3936-10.6787 80.3936-11.8213 84.2022-11.8213 84.2022-1.14258 86.7583-1.14258 86.7583 0Z" fill="#FFFFFF" transform="matrix(1 0 0 1.00029 14.8669 24)"/></g></g></g><path d="M283.5 234.069C283.5 231.583 285.515 229.567 288 229.567L438 229.567C440.485 229.567 442.5 231.583 442.5 234.069L442.5 252.074C442.5 254.56 440.485 256.575 438 256.575L288 256.575C285.515 256.575 283.5 254.56 283.5 252.074Z" stroke="#F69240" stroke-linejoin="round" stroke-miterlimit="10" fill="url(#fill29)" fill-rule="evenodd"/><text fill="#FFFFFF" font-family="Monaco,Monaco_MSFontService,sans-serif" font-weight="400" font-size="15" transform="matrix(1 0 0 1.00029 317.867 248)">2.4.Cancel</text><path d="M269.5 320.761C269.5 307.962 279.872 297.587 292.667 297.587L467.333 297.587C480.128 297.587 490.5 307.962 490.5 320.761L490.5 413.454C490.5 426.253 480.128 436.628 467.333 436.628L292.667 436.628C279.872 436.628 269.5 426.253 269.5 413.454Z" stroke="#4C5252" stroke-width="1.33333" stroke-linejoin="round" stroke-miterlimit="10" fill="none" fill-rule="evenodd"/><path d="M455.5 307.424C455.5 301.991 459.903 297.587 465.334 297.587L504.667 297.587C510.097 297.587 514.5 301.991 514.5 307.424L514.5 426.792C514.5 432.224 510.097 436.628 504.667 436.628L465.334 436.628C459.903 436.628 455.5 432.224 455.5 426.792Z" stroke="#AD2A26" stroke-width="1.33333" stroke-linejoin="round" stroke-miterlimit="10" fill="#AD2A26" fill-rule="evenodd"/><text fill="#FFFFFF" font-family="Monaco,Monaco_MSFontService,sans-serif" font-weight="400" font-size="24" transform="matrix(1 0 0 1.00029 470.019 375)">RM<tspan fill="#595959" font-size="15" x="-318.091" y="-64.981">1.2.</tspan><tspan fill="#595959" font-family="SimHei,SimHei_MSFontService,sans-serif" font-size="15" x="-282.757" y="-64.981">调用分支</tspan></text><g clip-path="url(#clip30)"><g clip-path="url(#clip31)" filter="url(#fx6)" transform="translate(277 313)"><g clip-path="url(#clip32)"><path d="M6.50006 10.3428C6.50006 7.94887 8.44018 6.00818 10.8334 6.00818L161.167 6.00818C163.56 6.00818 165.5 7.94887 165.5 10.3428L165.5 27.6811C165.5 30.0751 163.56 32.0158 161.167 32.0158L10.8334 32.0158C8.44018 32.0158 6.50006 30.0751 6.50006 27.6811Z" stroke="#000000" stroke-linejoin="round" stroke-miterlimit="10" fill="#4C5252" fill-rule="evenodd"/></g></g><g clip-path="url(#clip33)" filter="url(#fx7)" transform="translate(272 311)"><g clip-path="url(#clip34)"><path d="M4.16016-1.14258 4.16016-9.90967C3.33008-9.25049 2.40234-8.73779 1.37695-8.37158L1.37695-9.60205C2.44629-10.0562 3.37402-10.6445 4.16016-11.3672L5.52246-11.3672 5.52246-1.14258 8.25439-1.14258 8.25439 0 1.37695 0 1.37695-1.14258ZM13.3304 0.344238C13.0033 0.344238 12.7225 0.227051 12.4881-0.00732422 12.2537-0.241699 12.1366-0.522461 12.1366-0.849609 12.1366-1.17676 12.2537-1.45752 12.4881-1.69189 12.7225-1.92627 13.0033-2.04346 13.3304-2.04346 13.6576-2.04346 13.9383-1.92627 14.1727-1.69189 14.4071-1.45752 14.5243-1.17676 14.5243-0.849609 14.5243-0.522461 14.4071-0.241699 14.1727-0.00732422 13.9383 0.227051 13.6576 0.344238 13.3304 0.344238ZM22.8449 0 22.8449-3.17871 18.0182-3.17871 18.0182-4.32129 22.8447-11.3672 24.2145-11.3672 24.2145-4.32129 26.3166-4.32129 26.3166-3.17871 24.2145-3.17871 24.2145 0ZM22.8449-4.32129 22.8449-9.30702 19.4652-4.32129ZM30.9971 0.344238C30.6699 0.344238 30.3892 0.227051 30.1548-0.00732422 29.9204-0.241699 29.8032-0.522461 29.8032-0.849609 29.8032-1.17676 29.9204-1.45752 30.1548-1.69189 30.3892-1.92627 30.6699-2.04346 30.9971-2.04346 31.3242-2.04346 31.605-1.92627 31.8394-1.69189 32.0737-1.45752 32.1909-1.17676 32.1909-0.849609 32.1909-0.522461 32.0737-0.241699 31.8394-0.00732422 31.605 0.227051 31.3242 0.344238 30.9971 0.344238Z" fill="#FFFFFF" transform="matrix(1 0 0 1.00029 15.1169 26)"/><path d="M12.4219-5.03906C12.3828-4.53125 12.3633-3.98437 12.3633-3.39844 12.3633-2.8125 12.3828-2.12891 12.4219-1.34766L11.25-1.34766 11.25-4.04297 3.98438-4.04297 3.98438-0.996094 2.8125-0.996094C2.85156-1.89453 2.87109-2.63672 2.87109-3.22266 2.87109-3.84766 2.85156-4.45312 2.8125-5.03906ZM9.90234-9.55078C9.62891-9.08203 9.60938-8.68164 9.84375-8.34961 10.0781-8.01758 10.4004-7.70508 10.8105-7.41211 11.2207-7.11914 11.7285-6.875 12.334-6.67969 12.9395-6.48437 13.6133-6.36719 14.3555-6.32812 14.043-5.89844 13.8086-5.48828 13.6523-5.09766 12.6758-5.29297 11.8066-5.58594 11.0449-5.97656 10.2832-6.36719 9.64844-6.99219 9.14062-7.85156 8.78906-6.95312 8.28125-6.32812 7.61719-5.97656 6.95312-5.625 6.23047-5.33203 5.44922-5.09766 5.13672-5.44922 4.82422-5.76172 4.51172-6.03516 6.15234-6.34766 7.22656-6.81641 7.73438-7.44141 8.24219-8.06641 8.51562-8.82812 8.55469-9.72656ZM7.32422-9.96094C6.85547-9.33594 6.40625-8.86719 5.97656-8.55469 5.70312-8.82812 5.41016-9.0625 5.09766-9.25781 5.56641-9.57031 6.00586-9.99023 6.41602-10.5176 6.82617-11.0449 7.14844-11.6016 7.38281-12.1875 7.73437-12.0312 8.16406-11.9141 8.67188-11.8359 8.47656-11.4844 8.24219-11.1719 7.96875-10.8984L13.4766-10.8984C13.3594-10.6641 13.0078-9.90234 12.4219-8.61328 11.9531-8.73047 11.5625-8.80859 11.25-8.84766 11.4453-9.27734 11.6211-9.64844 11.7773-9.96094ZM8.26172-3.22266C8.06641-2.79297 7.91992-2.36328 7.82227-1.93359 7.72461-1.50391 7.4707-1.06445 7.06055-0.615234 6.65039-0.166016 6.05469 0.253906 5.27344 0.644531 4.49219 1.03516 3.35937 1.34766 1.875 1.58203 1.75781 1.19141 1.52344 0.820312 1.17188 0.46875 2.30469 0.429687 3.25195 0.283203 4.01367 0.0292969 4.77539-0.224609 5.35156-0.507812 5.74219-0.820312 6.13281-1.13281 6.41602-1.51367 6.5918-1.96289 6.76758-2.41211 6.85547-2.89062 6.85547-3.39844 7.32422-3.32031 7.79297-3.26172 8.26172-3.22266ZM8.96484-1.64062C9.70703-1.36719 10.4297-1.09375 11.1328-0.820312 11.8359-0.546875 12.6758-0.195312 13.6523 0.234375 13.418 0.546875 13.2031 0.9375 13.0078 1.40625 12.2656 0.976562 11.5332 0.605469 10.8105 0.292969 10.0879-0.0195312 9.31641-0.3125 8.49609-0.585938 8.69141-0.898437 8.84766-1.25 8.96484-1.64062ZM4.86328-7.79297C3.88672-6.89453 2.94922-5.89844 2.05078-4.80469 1.66016-5.23438 1.34766-5.52734 1.11328-5.68359 2.36328-6.66016 3.33984-7.59766 4.04297-8.49609 4.23828-8.30078 4.51172-8.06641 4.86328-7.79297ZM3.98438-9.31641C3.35937-9.78516 2.51953-10.332 1.46484-10.957 1.73828-11.2305 1.97266-11.5039 2.16797-11.7773 2.51953-11.543 3.35938-11.0156 4.6875-10.1953 4.45312-9.96094 4.21875-9.66797 3.98438-9.31641ZM25.1549-10.0781C24.9596-9.76562 24.7643-9.375 24.569-8.90625L27.9089-8.90625C27.8698-8.32031 27.8503-7.73437 27.8503-7.14844L27.8503-5.68359C27.8503-5.25391 27.8698-4.64844 27.9089-3.86719L25.3893-3.86719 25.3893 0.0585938C25.3893 0.527344 25.2428 0.888672 24.9499 1.14258 24.6569 1.39648 24.1979 1.5625 23.5729 1.64062 23.4557 1.21094 23.2799 0.78125 23.0456 0.351562 23.8659 0.46875 24.276 0.273437 24.276-0.234375L24.276-3.86719 21.8151-3.86719C21.8542-4.49219 21.8737-5.07812 21.8737-5.625L21.8737-7.20703C21.8737-7.71484 21.8542-8.28125 21.8151-8.90625L23.3971-8.90625C23.5534-9.25781 23.7096-9.74609 23.8659-10.3711 24.2565-10.2539 24.6862-10.1562 25.1549-10.0781ZM17.4792 0.410156C18.026-0.0976562 18.4362-0.654297 18.7096-1.25977 18.9831-1.86523 19.1882-2.57812 19.3249-3.39844 19.4616-4.21875 19.5397-5.06836 19.5592-5.94727 19.5788-6.82617 19.5885-7.77344 19.5885-8.78906 19.5885-9.84375 19.569-10.8008 19.5299-11.6602L26.2096-11.6602C27.1081-11.6602 27.9674-11.6797 28.7878-11.7188L28.7878-10.6055C27.9674-10.6445 27.1081-10.6641 26.2096-10.6641L20.7018-10.6641 20.7018-6.73828C20.7018-5.80078 20.6725-4.95117 20.6139-4.18945 20.5553-3.42773 20.4186-2.68555 20.2038-1.96289 19.9889-1.24023 19.7448-0.615234 19.4714-0.0878906 19.1979 0.439453 18.8659 0.957031 18.4753 1.46484 18.2799 1.07422 17.9479 0.722656 17.4792 0.410156ZM18.2995-4.16016C18.026-3.37891 17.7135-2.44141 17.362-1.34766 17.0104-0.253906 16.7565 0.546875 16.6003 1.05469 16.2487 0.78125 15.7995 0.527344 15.2526 0.292969 15.487-0.0195312 15.7995-0.654297 16.1901-1.61133 16.5807-2.56836 16.9128-3.67187 17.1862-4.92188 17.5768-4.60938 17.9479-4.35547 18.2995-4.16016ZM26.737-6.79688 26.737-7.96875 22.987-7.96875 22.987-6.79688ZM19.9987 0.234375C20.3112-0.078125 20.6432-0.478516 20.9948-0.966797 21.3464-1.45508 21.6979-2.03125 22.0495-2.69531 22.3229-2.42188 22.7135-2.16797 23.2214-1.93359 22.8307-1.58203 22.4792-1.16211 22.1667-0.673828 21.8542-0.185547 21.4635 0.351562 20.9948 0.9375 20.6432 0.664062 20.3112 0.429687 19.9987 0.234375ZM26.737-4.80469 26.737-5.85938 22.987-5.85938 22.987-4.80469ZM27.0885-2.63672C28.1823-1.42578 28.8659-0.625 29.1393-0.234375 28.7878 0.0390625 28.4753 0.3125 28.2018 0.585938 27.8893 0.15625 27.5964-0.244141 27.3229-0.615234 27.0495-0.986328 26.6784-1.42578 26.2096-1.93359 26.4831-2.12891 26.776-2.36328 27.0885-2.63672ZM17.7721-6.03516C17.4596-6.34766 17.0885-6.62109 16.6589-6.85547L15.3698-7.55859C15.526-7.83203 15.7018-8.14453 15.8971-8.49609 16.2487-8.30078 16.6686-8.07617 17.1569-7.82227 17.6452-7.56836 18.0846-7.32422 18.4753-7.08984ZM18.0065-9.31641C17.3034-10.0977 16.6198-10.7227 15.9557-11.1914 16.1901-11.4648 16.444-11.7383 16.7174-12.0117 17.7721-11.1914 18.4753-10.5859 18.8268-10.1953 18.5534-9.92188 18.2799-9.62891 18.0065-9.31641ZM41.5208-11.25C42.1068-11.25 42.6927-11.2695 43.2786-11.3086L43.2786-10.3125C42.6927-10.3516 42.1068-10.3711 41.5208-10.3711L39.8802-10.3711C39.763-9.78516 39.6458-9.14062 39.5286-8.4375L42.7513-8.4375C42.7122-7.85156 42.6927-7.22656 42.6927-6.5625L42.6927-4.04297C42.6927-3.37891 42.7122-2.69531 42.7513-1.99219L41.638-1.99219 41.638-7.55859 37.6536-7.55859 37.6536-1.875 36.5404-1.875C36.5794-2.77344 36.599-3.49609 36.599-4.04297L36.599-6.50391C36.599-7.12891 36.5794-7.77344 36.5404-8.4375L38.474-8.4375C38.6302-9.29688 38.7083-9.94141 38.7083-10.3711L38.0638-10.3711C37.3997-10.3711 36.7161-10.3516 36.013-10.3125L36.013-11.3086C36.7552-11.2695 37.4388-11.25 38.0638-11.25ZM35.4271-4.16016C35.0365-4.23828 34.6849-4.27734 34.3724-4.27734 34.5286-4.94141 34.6458-5.42969 34.724-5.74219L33.4349-5.74219 33.4349-0.292969C33.3958 0.371094 33.1419 0.78125 32.6732 0.9375 32.2044 1.09375 31.6771 1.17188 31.0911 1.17188 31.013 0.742188 30.8763 0.332031 30.681-0.0585938 31.5404 0.0195312 32.0384 0.00976562 32.1751-0.0878906 32.3119-0.185547 32.3802-0.429688 32.3802-0.820312L32.3802-5.74219 31.7357-5.74219C31.2279-5.74219 30.7005-5.72266 30.1536-5.68359L30.1536-6.67969C30.7005-6.64062 31.2083-6.62109 31.6771-6.62109L36.013-6.62109C35.8177-5.83984 35.6224-5.01953 35.4271-4.16016ZM40.4076-6.73828C40.2513-6.26953 40.1536-5.66406 40.1146-4.92188 40.0755-4.17969 39.9681-3.34961 39.7923-2.43164 39.6165-1.51367 39.2259-0.751953 38.6204-0.146484 38.015 0.458984 37.2044 1.03516 36.1888 1.58203 35.8372 1.30859 35.4857 1.05469 35.1341 0.820312 36.0716 0.46875 36.8236 0.0390625 37.39-0.46875 37.9564-0.976562 38.3568-1.55273 38.5911-2.19727 38.8255-2.8418 38.972-3.55469 39.0306-4.33594 39.0892-5.11719 39.1185-5.95703 39.1185-6.85547ZM33.1419-6.79688C32.5951-7.38281 31.9505-7.96875 31.2083-8.55469 31.4036-8.75 31.6185-8.98438 31.8529-9.25781 32.1263-9.0625 32.3997-8.84766 32.6732-8.61328 33.181-9.35547 33.5911-9.90234 33.9036-10.2539L32.6146-10.2539C31.8333-10.2539 31.0911-10.2344 30.388-10.1953L30.388-11.1914C31.0911-11.1523 31.8138-11.1328 32.556-11.1328L35.3685-11.1328 35.3685-10.2539C34.7826-9.82422 34.1185-9.0625 33.3763-7.96875L33.9036-7.5C33.5911-7.22656 33.3372-6.99219 33.1419-6.79688ZM40.5247-1.69922C42.0091-0.566406 43.0247 0.253906 43.5716 0.761719 43.2201 1.03516 42.9466 1.28906 42.7513 1.52344 42.2435 1.01562 41.7845 0.576172 41.3744 0.205078 40.9642-0.166016 40.4857-0.507812 39.9388-0.820312 40.1341-1.09375 40.3294-1.38672 40.5247-1.69922ZM57.0664-5.39062C57.0273-4.76562 57.0078-3.96484 57.0078-2.98828L57.0078-0.878906C57.0078-0.214844 57.0273 0.585938 57.0664 1.52344L55.8359 1.52344 55.8359 0.351562 47.5156 0.351562 47.5156 1.52344 46.2852 1.52344C46.3242 0.351562 46.3438-0.507812 46.3438-1.05469L46.3438-2.98828C46.3438-4.00391 46.3242-4.80469 46.2852-5.39062ZM51.8516-5.80078C51.6953-6.07422 51.3438-6.36719 50.7969-6.67969 51.4609-6.99219 52.0273-7.42187 52.4961-7.96875 52.9648-8.51562 53.2773-9.33594 53.4336-10.4297 52.8867-10.4297 52.2617-10.3906 51.5586-10.3125L51.5586-11.4258C52.2617-11.3867 52.9062-11.3672 53.4922-11.3672L57.9453-11.3672C57.8281-10.7031 57.7305-9.9707 57.6523-9.16992 57.5742-8.36914 57.4961-7.75391 57.418-7.32422 57.3398-6.89453 57.1348-6.62109 56.8027-6.50391 56.4707-6.38672 55.9336-6.25 55.1914-6.09375 55.0352-6.64062 54.8398-7.10937 54.6055-7.5 55.1914-7.5 55.6211-7.51953 55.8945-7.55859 56.168-7.59766 56.334-7.73437 56.3926-7.96875 56.4512-8.20312 56.5195-9.02344 56.5977-10.4297L54.6055-10.4297C54.4492-9.21875 54.127-8.28125 53.6387-7.61719 53.1504-6.95312 52.5547-6.34766 51.8516-5.80078ZM49.1562-8.37891C48.9219-8.73047 48.668-9.04297 48.3945-9.31641 48.7852-9.51172 49.0977-9.72656 49.332-9.96094 49.918-9.17969 50.4844-8.39844 51.0312-7.61719 50.7188-7.38281 50.3867-7.14844 50.0352-6.91406 49.918-7.14844 49.7812-7.38281 49.625-7.61719 49-7.34375 48.3652-7.04102 47.7207-6.70898 47.0762-6.37695 46.4609-6.03516 45.875-5.68359 45.6797-6.03516 45.4453-6.36719 45.1719-6.67969 45.4453-6.91406 45.582-7.36328 45.582-8.02734L45.582-9.66797C45.582-10.332 45.5625-10.8984 45.5234-11.3672 46.1875-11.3672 46.9102-11.4258 47.6914-11.543 48.4727-11.6602 49.2344-11.8945 49.9766-12.2461 50.1328-11.8555 50.4453-11.4453 50.9141-11.0156 50.6406-11.0156 50.123-10.9375 49.3613-10.7812 48.5996-10.625 47.7305-10.5078 46.7539-10.4297L46.7539-7.32422C47.418-7.59766 48.2188-7.94922 49.1562-8.37891ZM51.207-0.585938 51.207-2.05078 47.5156-2.05078 47.5156-0.585938ZM51.207-2.98828 51.207-4.45312 47.5156-4.45312 47.5156-2.98828ZM55.8359-2.98828 55.8359-4.45312 52.3203-4.45312 52.3203-2.98828ZM55.8359-0.585938 55.8359-2.05078 52.3203-2.05078 52.3203-0.585938ZM71.3815-11.9531 72.026-11.1914C69.7995-9.55078 68.7253-7.65625 68.8034-5.50781 68.8425-3.4375 69.8971-1.64062 71.9675-0.117188L71.3229 0.644531C68.9401-1.07422 67.7878-3.24219 67.8659-5.85938 67.8659-8.00781 69.0378-10.0391 71.3815-11.9531Z" fill="#FFFFFF" transform="matrix(1 0 0 1.00029 50.4502 26)"/><path d="M3.75732 0 3.75732-10.1147 0.351562-10.1147 0.351562-11.3672 8.6499-11.3672 8.6499-10.1147 5.23682-10.1147 5.23682 0ZM10.6644 0 10.6644-8.18115 12.0267-8.18115 12.0267-6.39404C12.8714-7.73682 13.9701-8.4082 15.3226-8.4082 15.8158-8.4082 16.3089-8.33252 16.8021-8.18115L16.8021-5.22949 15.491-5.22949 15.491-7.09717C15.2616-7.13623 15.0809-7.15576 14.9491-7.15576 13.9285-7.15576 12.9544-6.35498 12.0267-4.75342L12.0267 0ZM21.8122-0.335083 18.033-8.18115 19.5366-8.18115 22.5479-2.04346 25.0608-8.18115 26.4338-8.18115 23.2623-0.578613C22.7056 0.754394 22.2051 1.67725 21.7608 2.18994 21.0577 3.00537 20.1422 3.41309 19.0143 3.41309 18.5993 3.41309 18.2282 3.37646 17.901 3.30322L17.901 2.10205C18.277 2.21436 18.6359 2.27051 18.9777 2.27051 19.8761 2.27051 20.5793 1.88259 21.0871 1.10676 21.3507 0.706673 21.5509 0.330963 21.6877-0.0203705Z" fill="#FFFFFF" transform="matrix(1 0 0 1.00029 123.784 26)"/><path d="M2.34375-11.9531C4.6875-10.0391 5.85938-8.00781 5.85938-5.85938 5.9375-3.24219 4.78516-1.07422 2.40234 0.644531L1.75781-0.117188C3.82812-1.64062 4.88281-3.4375 4.92188-5.50781 5-7.65625 3.92578-9.55078 1.69922-11.1914Z" fill="#FFFFFF" transform="matrix(1 0 0 1.00029 150.284 26)"/></g></g></g><path d="M283.5 320.927C283.5 318.533 285.44 316.593 287.833 316.593L438.167 316.593C440.56 316.593 442.5 318.533 442.5 320.927L442.5 338.266C442.5 340.66 440.56 342.6 438.167 342.6L287.833 342.6C285.44 342.6 283.5 340.66 283.5 338.266Z" stroke="#000000" stroke-linejoin="round" stroke-miterlimit="10" fill="#4C5252" fill-rule="evenodd"/><text fill="#FFFFFF" font-family="Monaco,Monaco_MSFontService,sans-serif" font-weight="400" font-size="15" transform="matrix(1 0 0 1.00029 287.117 334)">1.4.<tspan font-family="SimHei,SimHei_MSFontService,sans-serif" font-size="15" x="35.3333" y="0">资源预留（</tspan><tspan font-size="15" x="108.667" y="0">Try</tspan><tspan font-family="SimHei,SimHei_MSFontService,sans-serif" font-size="15" x="135.167" y="0">）</tspan></text><path d="M514.5 306.923 716.7 306.923 716.7 308.257 514.5 308.257ZM715.367 303.589 723.367 307.59 715.367 311.591Z"/><text fill="#595959" font-family="Monaco,Monaco_MSFontService,sans-serif" font-weight="400" font-size="15" transform="matrix(1 0 0 1.00029 572.65 299)">1.3.<tspan font-family="SimHei,SimHei_MSFontService,sans-serif" font-size="15" x="35.3333" y="0">注册分支事务</tspan></text><path d="M3.35741e-07-0.666667 201.801-0.666565 201.801 0.666768-3.35741e-07 0.666667ZM200.468-3.9999 208.468 0.000104987 200.468 4.0001Z" transform="matrix(1 0 0 -1.00029 514.5 346.602)"/><text fill="#595959" font-family="Monaco,Monaco_MSFontService,sans-serif" font-weight="400" font-size="15" transform="matrix(1 0 0 1.00029 572.65 337)">1.5.<tspan font-family="SimHei,SimHei_MSFontService,sans-serif" font-size="15" x="35.3333" y="0">报告事务状态</tspan></text><path d="M2.51953e-07-0.666667 10.6667-0.666663 10.6667 0.666671-2.51953e-07 0.666667ZM14.6667-0.666661 25.3333-0.666657 25.3333 0.666676 14.6667 0.666672ZM29.3333-0.666656 40-0.666652 40 0.666682 29.3333 0.666678ZM44-0.66665 54.6667-0.666646 54.6667 0.666687 44 0.666683ZM58.6667-0.666644 69.3333-0.66664 69.3333 0.666693 58.6667 0.666689ZM73.3333-0.666639 84-0.666635 84 0.666698 73.3333 0.666694ZM88-0.666633 98.6667-0.666629 98.6667 0.666704 88 0.6667ZM102.667-0.666628 113.333-0.666624 113.333 0.666709 102.667 0.666705ZM117.333-0.666622 128-0.666618 128 0.666715 117.333 0.666711ZM132-0.666617 142.667-0.666613 142.667 0.666721 132 0.666717ZM146.667-0.666611 157.333-0.666607 157.333 0.666726 146.667 0.666722ZM161.333-0.666606 172-0.666602 172 0.666732 161.333 0.666728ZM176-0.6666 186.667-0.666596 186.667 0.666737 176 0.666733ZM190.667-0.666595 201.333-0.666591 201.333 0.666743 190.667 0.666739ZM205.333-0.666589 216-0.666585 216 0.666748 205.333 0.666744ZM220-0.666583 230.667-0.666579 230.667 0.666754 220 0.66675ZM234.667-0.666578 245.333-0.666574 245.333 0.666759 234.667 0.666755ZM249.333-0.666572 260-0.666568 260 0.666765 249.333 0.666761ZM264-0.666567 271.129-0.666564 271.129 0.666769 264 0.666766ZM269.795-3.9999 277.795 0.000104987 269.795 4.0001Z" fill="#4A7EBB" transform="matrix(-1 0 0 1.00029 720.295 377.611)"/><text fill="#0070C0" font-family="Monaco,Monaco_MSFontService,sans-serif" font-weight="400" font-size="15" transform="matrix(1 0 0 1.00029 572.65 369)">2.3.<tspan font-family="SimHei,SimHei_MSFontService,sans-serif" font-size="15" x="35.3333" y="0">提交</tspan></text><path d="M2.51953e-07-0.666667 10.6667-0.666663 10.6667 0.666671-2.51953e-07 0.666667ZM14.6667-0.666661 25.3333-0.666657 25.3333 0.666676 14.6667 0.666672ZM29.3333-0.666656 40-0.666652 40 0.666682 29.3333 0.666678ZM44-0.66665 54.6667-0.666646 54.6667 0.666687 44 0.666683ZM58.6667-0.666644 69.3333-0.66664 69.3333 0.666693 58.6667 0.666689ZM73.3333-0.666639 84-0.666635 84 0.666698 73.3333 0.666694ZM88-0.666633 98.6667-0.666629 98.6667 0.666704 88 0.6667ZM102.667-0.666628 113.333-0.666624 113.333 0.666709 102.667 0.666705ZM117.333-0.666622 128-0.666618 128 0.666715 117.333 0.666711ZM132-0.666617 142.667-0.666613 142.667 0.666721 132 0.666717ZM146.667-0.666611 157.333-0.666607 157.333 0.666726 146.667 0.666722ZM161.333-0.666606 172-0.666602 172 0.666732 161.333 0.666728ZM176-0.6666 186.667-0.666596 186.667 0.666737 176 0.666733ZM190.667-0.666595 201.333-0.666591 201.333 0.666743 190.667 0.666739ZM205.333-0.666589 216-0.666585 216 0.666748 205.333 0.666744ZM220-0.666583 230.667-0.666579 230.667 0.666754 220 0.66675ZM234.667-0.666578 245.333-0.666574 245.333 0.666759 234.667 0.666755ZM249.333-0.666572 260-0.666568 260 0.666765 249.333 0.666761ZM264-0.666567 271.129-0.666564 271.129 0.666769 264 0.666766ZM269.795-3.9999 277.795 0.000104987 269.795 4.0001Z" fill="#E46C0A" transform="matrix(-1 0 0 1.00029 720.295 411.621)"/><text fill="#E46C0A" font-family="Monaco,Monaco_MSFontService,sans-serif" font-weight="400" font-size="15" transform="matrix(1 0 0 1.00029 572.65 403)">2.3.<tspan font-family="SimHei,SimHei_MSFontService,sans-serif" font-size="15" x="35.3333" y="0">回滚</tspan></text><g clip-path="url(#clip35)"><g clip-path="url(#clip36)" filter="url(#fx8)" transform="translate(277 361)"><g clip-path="url(#clip37)"><path d="M6.50006 10.3569C6.50006 7.96294 8.44018 6.02225 10.8334 6.02225L161.167 6.02225C163.56 6.02225 165.5 7.96294 165.5 10.3569L165.5 27.6952C165.5 30.0892 163.56 32.0299 161.167 32.0299L10.8334 32.0299C8.44018 32.0299 6.50006 30.0892 6.50006 27.6952Z" stroke="#4A7EBB" stroke-linejoin="round" stroke-miterlimit="10" fill="#FF0000" fill-rule="evenodd"/></g></g><g clip-path="url(#clip38)" filter="url(#fx9)" transform="translate(298 360)"><g clip-path="url(#clip39)"><path d="M7.96875 0 1.09131 0 1.09131-1.25244C1.09131-1.98425 1.40915-2.74292 2.04483-3.52844 2.42622-3.99673 2.81982-4.43825 3.22563-4.85298L3.99937-5.64663C5.09296-6.75831 5.78377-7.57988 6.07178-8.11134 6.23779-8.42346 6.3208-8.73066 6.3208-9.03294 6.3208-9.51565 6.11816-9.89841 5.71289-10.1812 5.35156-10.4348 4.91943-10.5615 4.4165-10.5615 3.83545-10.5615 3.22266-10.4575 2.57812-10.2493 2.31934-10.1622 1.89941-9.98795 1.31836-9.72656L1.31836-10.9351C2.39746-11.4478 3.52295-11.7041 4.69482-11.7041 6.04736-11.7041 6.96045-11.3086 7.43408-10.5176 7.67334-10.1123 7.79297-9.68018 7.79297-9.22119 7.79297-8.58154 7.5415-7.91016 7.03857-7.20703 6.75049-6.80176 6.26221-6.25732 5.57373-5.57373L4.03564-4.05762C3.61572-3.64746 3.25684-3.21289 2.95898-2.75391 2.68555-2.33398 2.53418-1.8335 2.50488-1.25244L7.96875-1.25244ZM13.3304 0.344238C13.0033 0.344238 12.7225 0.227051 12.4881-0.00732422 12.2537-0.241699 12.1366-0.522461 12.1366-0.849609 12.1366-1.17676 12.2537-1.45752 12.4881-1.69189 12.7225-1.92627 13.0033-2.04346 13.3304-2.04346 13.6576-2.04346 13.9383-1.92627 14.1727-1.69189 14.4071-1.45752 14.5243-1.17676 14.5243-0.849609 14.5243-0.522461 14.4071-0.241699 14.1727-0.00732422 13.9383 0.227051 13.6576 0.344238 13.3304 0.344238ZM22.8449 0 22.8449-3.17871 18.0182-3.17871 18.0182-4.32129 22.8447-11.3672 24.2145-11.3672 24.2145-4.32129 26.3166-4.32129 26.3166-3.17871 24.2145-3.17871 24.2145 0ZM22.8449-4.32129 22.8449-9.30702 19.4652-4.32129ZM30.9971 0.344238C30.6699 0.344238 30.3892 0.227051 30.1548-0.00732422 29.9204-0.241699 29.8032-0.522461 29.8032-0.849609 29.8032-1.17676 29.9204-1.45752 30.1548-1.69189 30.3892-1.92627 30.6699-2.04346 30.9971-2.04346 31.3242-2.04346 31.605-1.92627 31.8394-1.69189 32.0737-1.45752 32.1909-1.17676 32.1909-0.849609 32.1909-0.522461 32.0737-0.241699 31.8394-0.00732422 31.605 0.227051 31.3242 0.344238 30.9971 0.344238ZM43.3094-0.131836C42.4598 0.185547 41.6981 0.344238 41.0243 0.344238 40.077 0.344238 39.2323 0.0878906 38.4901-0.424805 37.7723-0.917969 37.2181-1.60889 36.8275-2.49756 36.4124-3.43506 36.2049-4.49707 36.2049-5.68359 36.2049-6.76758 36.3807-7.75635 36.7323-8.6499 37.1424-9.68506 37.7503-10.4639 38.556-10.9863 39.3031-11.4697 40.1258-11.7114 41.0243-11.7114 41.6981-11.7114 42.4598-11.5527 43.3094-11.2354L43.3094-9.8877C42.5233-10.3418 41.742-10.5688 40.9657-10.5688 39.7157-10.5688 38.7879-9.78329 38.1825-8.21217 37.8846-7.43641 37.7357-6.59477 37.7357-5.68726 37.7357-4.87732 37.8626-4.09908 38.1165-3.35255 38.4095-2.47921 38.8294-1.82297 39.3763-1.38382 39.8548-0.9935 40.3846-0.79834 40.9657-0.79834 41.7371-0.79834 42.5184-1.02295 43.3094-1.47217ZM48.6711 0.227051C47.4699 0.227051 46.5129-0.200195 45.8-1.05469 45.1359-1.85547 44.8039-2.86865 44.8039-4.09424 44.8039-5.31982 45.1384-6.33057 45.8073-7.12646 46.5153-7.98096 47.4699-8.4082 48.6711-8.4082 49.8674-8.4082 50.8219-7.98096 51.5348-7.12646 52.1989-6.32568 52.5309-5.31494 52.5309-4.09424 52.5309-2.87354 52.1989-1.86035 51.5348-1.05469 50.8219-0.200195 49.8674 0.227051 48.6711 0.227051ZM48.6711-0.915527C49.4914-0.915527 50.1115-1.25652 50.5314-1.93851 50.8781-2.50362 51.0514-3.2222 51.0514-4.09424 51.0514-4.9614 50.8757-5.67753 50.5241-6.24264 50.1042-6.92463 49.4865-7.26562 48.6711-7.26562 47.8508-7.26562 47.2306-6.92703 46.8107-6.24985 46.4592-5.68481 46.2834-4.96628 46.2834-4.09424 46.2834-3.2222 46.4592-2.50362 46.8107-1.93851 47.2306-1.25652 47.8508-0.915527 48.6711-0.915527ZM54.1353 0 54.1353-8.18115 55.4976-8.18115 55.4976-6.39404C55.854-6.96533 56.2837-7.43164 56.7866-7.79297 57.3677-8.20312 57.9609-8.4082 58.5664-8.4082 59.04-8.4082 59.4758-8.28369 59.8738-8.03467 60.2717-7.78564 60.5513-7.44995 60.7124-7.02759 60.8735-6.60522 60.9541-5.78613 60.9541-4.57031L60.9541 0 59.5918 0 59.5918-4.73877C59.5918-5.35889 59.5796-5.74707 59.5552-5.90332 59.4917-6.36719 59.3281-6.7041 59.0645-6.91406 58.8594-7.07519 58.6372-7.15576 58.398-7.15576 57.8511-7.15576 57.2798-6.87988 56.6841-6.32812 56.2007-5.87891 55.8052-5.35889 55.4976-4.76807L55.4976 0ZM64.8729 0 64.8729-6.35742 63.0565-6.35742 63.0565-7.5 64.8729-7.5 64.8729-7.88086C64.8729-8.76953 64.9535-9.45801 65.1146-9.94629 65.3392-10.6152 65.7591-11.1499 66.3744-11.5503 66.8822-11.8823 67.556-12.0483 68.3958-12.0483 69.0306-12.0483 69.6751-11.9824 70.3294-11.8506L70.3294-10.5542C69.6214-10.7886 68.994-10.9058 68.4471-10.9058 67.5145-10.9058 66.8724-10.564 66.5208-9.88037 66.3304-9.51416 66.2352-8.89648 66.2352-8.02734L66.2352-7.5 69.4798-7.5 69.4798-6.35742 66.2352-6.35742 66.2352 0ZM74.1017 0 74.1017-7.03857 71.8312-7.03857 71.8312-8.18115 75.464-8.18115 75.464-1.14258 77.7419-1.14258 77.7419 0ZM73.8747-11.1328C73.8747-11.3867 73.9626-11.6028 74.1384-11.781 74.3141-11.9592 74.529-12.0483 74.7829-12.0483 75.0368-12.0483 75.2529-11.9592 75.4311-11.781 75.6093-11.6028 75.6984-11.3867 75.6984-11.1328 75.6984-10.8838 75.6093-10.6702 75.4311-10.4919 75.2529-10.3137 75.0368-10.2246 74.7829-10.2246 74.5339-10.2246 74.3202-10.3137 74.142-10.4919 73.9638-10.6702 73.8747-10.8838 73.8747-11.1328ZM81.3311 0 81.3311-8.18115 82.6934-8.18115 82.6934-6.39404C83.5381-7.73682 84.6367-8.4082 85.9893-8.4082 86.4824-8.4082 86.9756-8.33252 87.4688-8.18115L87.4688-5.22949 86.1577-5.22949 86.1577-7.09717C85.9282-7.13623 85.7476-7.15576 85.6157-7.15576 84.5952-7.15576 83.6211-6.35498 82.6934-4.75342L82.6934 0ZM88.8534 0 88.8534-8.18115 90.0472-8.18115 90.0472-6.30615C90.7127-7.70752 91.3929-8.4082 92.0878-8.4082 92.5478-8.4082 92.8928-8.21533 93.1228-7.82959 93.3136-7.51221 93.409-7.10937 93.409-6.62109L93.409-6.18164C93.6867-7.05078 94.1155-7.70264 94.6954-8.13721 94.9389-8.31787 95.2191-8.4082 95.5358-8.4082 96.3836-8.4082 96.8075-7.66602 96.8075-6.18164L96.8075 0 95.6136 0 95.6136-5.58838C95.6136-6.32568 95.5406-6.76758 95.3946-6.91406 95.307-7.00195 95.2121-7.0459 95.11-7.0459 94.5405-7.0459 93.9735-6.2085 93.409-4.53369L93.409 0 92.2591 0 92.2591-5.58105C92.2591-6.55762 92.0614-7.0459 91.6659-7.0459 91.1776-7.0459 90.638-6.27197 90.0472-4.72412L90.0472 0Z" fill="#FFFFFF" transform="matrix(1 0 0 1.00029 15.4502 25)"/></g></g></g><path d="M283.5 368.941C283.5 366.548 285.44 364.607 287.833 364.607L438.167 364.607C440.56 364.607 442.5 366.548 442.5 368.941L442.5 386.28C442.5 388.674 440.56 390.614 438.167 390.614L287.833 390.614C285.44 390.614 283.5 388.674 283.5 386.28Z" stroke="#4A7EBB" stroke-linejoin="round" stroke-miterlimit="10" fill="url(#fill40)" fill-rule="evenodd"/><text fill="#FFFFFF" font-family="Monaco,Monaco_MSFontService,sans-serif" font-weight="400" font-size="15" transform="matrix(1 0 0 1.00029 313.45 382)">2.4.Confirm</text><g clip-path="url(#clip41)"><g clip-path="url(#clip42)" filter="url(#fx10)" transform="translate(277 395)"><g clip-path="url(#clip43)"><path d="M6.50006 10.5337C6.50006 8.0476 8.51484 6.03223 11.0002 6.03223L161 6.03223C163.485 6.03223 165.5 8.0476 165.5 10.5337L165.5 28.5387C165.5 31.0248 163.485 33.0401 161 33.0401L11.0002 33.0401C8.51484 33.0401 6.50006 31.0248 6.50006 28.5387Z" stroke="#F69240" stroke-linejoin="round" stroke-miterlimit="10" fill="#FF0000" fill-rule="evenodd"/></g></g><g clip-path="url(#clip44)" filter="url(#fx11)" transform="translate(303 394)"><g clip-path="url(#clip45)"><path d="M7.96875 0 1.09131 0 1.09131-1.25244C1.09131-1.98425 1.40915-2.74292 2.04483-3.52844 2.42622-3.99673 2.81982-4.43825 3.22563-4.85298L3.99937-5.64663C5.09296-6.75831 5.78377-7.57988 6.07178-8.11134 6.23779-8.42346 6.3208-8.73066 6.3208-9.03294 6.3208-9.51565 6.11816-9.89841 5.71289-10.1812 5.35156-10.4348 4.91943-10.5615 4.4165-10.5615 3.83545-10.5615 3.22266-10.4575 2.57812-10.2493 2.31934-10.1622 1.89941-9.98795 1.31836-9.72656L1.31836-10.9351C2.39746-11.4478 3.52295-11.7041 4.69482-11.7041 6.04736-11.7041 6.96045-11.3086 7.43408-10.5176 7.67334-10.1123 7.79297-9.68018 7.79297-9.22119 7.79297-8.58154 7.5415-7.91016 7.03857-7.20703 6.75049-6.80176 6.26221-6.25732 5.57373-5.57373L4.03564-4.05762C3.61572-3.64746 3.25684-3.21289 2.95898-2.75391 2.68555-2.33398 2.53418-1.8335 2.50488-1.25244L7.96875-1.25244ZM13.3304 0.344238C13.0033 0.344238 12.7225 0.227051 12.4881-0.00732422 12.2537-0.241699 12.1366-0.522461 12.1366-0.849609 12.1366-1.17676 12.2537-1.45752 12.4881-1.69189 12.7225-1.92627 13.0033-2.04346 13.3304-2.04346 13.6576-2.04346 13.9383-1.92627 14.1727-1.69189 14.4071-1.45752 14.5243-1.17676 14.5243-0.849609 14.5243-0.522461 14.4071-0.241699 14.1727-0.00732422 13.9383 0.227051 13.6576 0.344238 13.3304 0.344238ZM22.8449 0 22.8449-3.17871 18.0182-3.17871 18.0182-4.32129 22.8447-11.3672 24.2145-11.3672 24.2145-4.32129 26.3166-4.32129 26.3166-3.17871 24.2145-3.17871 24.2145 0ZM22.8449-4.32129 22.8449-9.30702 19.4652-4.32129ZM30.9971 0.344238C30.6699 0.344238 30.3892 0.227051 30.1548-0.00732422 29.9204-0.241699 29.8032-0.522461 29.8032-0.849609 29.8032-1.17676 29.9204-1.45752 30.1548-1.69189 30.3892-1.92627 30.6699-2.04346 30.9971-2.04346 31.3242-2.04346 31.605-1.92627 31.8394-1.69189 32.0737-1.45752 32.1909-1.17676 32.1909-0.849609 32.1909-0.522461 32.0737-0.241699 31.8394-0.00732422 31.605 0.227051 31.3242 0.344238 30.9971 0.344238ZM43.3094-0.131836C42.4598 0.185547 41.6981 0.344238 41.0243 0.344238 40.077 0.344238 39.2323 0.0878906 38.4901-0.424805 37.7723-0.917969 37.2181-1.60889 36.8275-2.49756 36.4124-3.43506 36.2049-4.49707 36.2049-5.68359 36.2049-6.76758 36.3807-7.75635 36.7323-8.6499 37.1424-9.68506 37.7503-10.4639 38.556-10.9863 39.3031-11.4697 40.1258-11.7114 41.0243-11.7114 41.6981-11.7114 42.4598-11.5527 43.3094-11.2354L43.3094-9.8877C42.5233-10.3418 41.742-10.5688 40.9657-10.5688 39.7157-10.5688 38.7879-9.78329 38.1825-8.21217 37.8846-7.43641 37.7357-6.59477 37.7357-5.68726 37.7357-4.87732 37.8626-4.09908 38.1165-3.35255 38.4095-2.47921 38.8294-1.82297 39.3763-1.38382 39.8548-0.9935 40.3846-0.79834 40.9657-0.79834 41.7371-0.79834 42.5184-1.02295 43.3094-1.47217ZM50.6852-1.83838C50.3385-1.27197 49.9015-0.79834 49.3742-0.41748 48.7785 0.012207 48.1803 0.227051 47.5798 0.227051 46.696 0.227051 46.0124-0.166016 45.529-0.952148 45.1237-1.61133 44.9211-2.40967 44.9211-3.34717 44.9211-5.26611 45.5851-6.70166 46.9133-7.65381 47.5187-8.0835 48.2682-8.29834 49.1618-8.29834 49.4352-8.29834 49.8259-8.27148 50.3337-8.21777 50.3971-8.21289 50.5143-8.20068 50.6852-8.18115L52.0549-8.18115 52.0549-2.40234C52.0549-1.41602 52.1574-0.615234 52.3625 0L50.9416 0C50.8342-0.449219 50.7487-1.06201 50.6852-1.83838ZM50.6852-3.45703 50.6852-6.96533C50.2018-7.09228 49.7526-7.15576 49.3376-7.15576 48.3903-7.15576 47.6481-6.77734 47.111-6.02051 46.6374-5.34668 46.4006-4.5166 46.4006-3.53027 46.4006-2.93945 46.5031-2.41699 46.7082-1.96289 46.9767-1.37207 47.3747-1.07666 47.902-1.07666 48.4147-1.07666 48.9616-1.3623 49.5426-1.93359 49.9772-2.36328 50.3581-2.87109 50.6852-3.45703ZM54.1353 0 54.1353-8.18115 55.4976-8.18115 55.4976-6.39404C55.854-6.96533 56.2837-7.43164 56.7866-7.79297 57.3677-8.20312 57.9609-8.4082 58.5664-8.4082 59.04-8.4082 59.4758-8.28369 59.8738-8.03467 60.2717-7.78564 60.5513-7.44995 60.7124-7.02759 60.8735-6.60522 60.9541-5.78613 60.9541-4.57031L60.9541 0 59.5918 0 59.5918-4.73877C59.5918-5.35889 59.5796-5.74707 59.5552-5.90332 59.4917-6.36719 59.3281-6.7041 59.0645-6.91406 58.8594-7.07519 58.6372-7.15576 58.398-7.15576 57.8511-7.15576 57.2798-6.87988 56.6841-6.32812 56.2007-5.87891 55.8052-5.35889 55.4976-4.76807L55.4976 0ZM69.8534-0.234375C68.9403 0.0732422 68.0711 0.227051 67.2459 0.227051 66.4598 0.227051 65.7469 0.0488281 65.1073-0.307617 64.453-0.678711 63.9403-1.20361 63.5692-1.88232 63.2127-2.52686 63.0345-3.26172 63.0345-4.08691 63.0345-5.28809 63.4227-6.30371 64.1991-7.13379 64.9901-7.9834 65.9813-8.4082 67.1727-8.4082 68.0174-8.4082 68.911-8.24951 69.8534-7.93213L69.8534-6.62109C68.9012-7.05078 68.0492-7.26562 67.2972-7.26562 66.1449-7.26562 65.3368-6.75842 64.8729-5.74402 64.6336-5.22217 64.514-4.68567 64.514-4.13452 64.514-3.24692 64.7679-2.51537 65.2757-1.93989 65.8031-1.33022 66.5038-1.02539 67.3778-1.02539 68.0077-1.02539 68.8329-1.19873 69.8534-1.54541ZM78.6061-0.541992C77.5173-0.0244141 76.487 0.234375 75.5153 0.234375 73.9919 0.234375 72.8688-0.473633 72.1462-1.88965 71.7946-2.56836 71.6188-3.2959 71.6188-4.07227 71.6188-4.81934 71.78-5.52734 72.1022-6.19629 72.4391-6.89941 72.9067-7.44385 73.5048-7.82959 74.103-8.21533 74.7682-8.4082 75.5007-8.4082 76.6432-8.4082 77.4904-7.96631 78.0422-7.08252 78.4963-6.35498 78.7233-5.38086 78.7233-4.16016L78.7233-3.86719 73.0837-3.86719C73.0837-3.33984 73.1887-2.84912 73.3986-2.39502 73.6281-1.89209 73.9528-1.51367 74.3727-1.25977 74.7585-1.02539 75.1979-0.908203 75.6911-0.908203 76.57-0.908203 77.5417-1.20117 78.6061-1.78711ZM73.1642-4.88525 77.2438-4.88525 77.2438-5.08244C77.2438-5.69576 77.0998-6.19957 76.8117-6.59386 76.4894-7.0417 76.0329-7.26562 75.4421-7.26562 74.2507-7.26562 73.4914-6.47217 73.1642-4.88525ZM82.8399 0 82.8399-10.6787 80.3936-10.6787 80.3936-11.8213 84.2022-11.8213 84.2022-1.14258 86.7583-1.14258 86.7583 0Z" fill="#FFFFFF" transform="matrix(1 0 0 1.00029 14.8669 25)"/></g></g></g><path d="M283.5 403.118C283.5 400.632 285.515 398.617 288 398.617L438 398.617C440.485 398.617 442.5 400.632 442.5 403.118L442.5 421.123C442.5 423.609 440.485 425.625 438 425.625L288 425.625C285.515 425.625 283.5 423.609 283.5 421.123Z" stroke="#F69240" stroke-linejoin="round" stroke-miterlimit="10" fill="url(#fill46)" fill-rule="evenodd"/><text fill="#FFFFFF" font-family="Monaco,Monaco_MSFontService,sans-serif" font-weight="400" font-size="15" transform="matrix(1 0 0 1.00029 317.867 417)">2.4.Cancel</text><path d="M130.5 319.927 263.676 319.927 263.676 321.261 130.5 321.261ZM262.343 316.593 270.343 320.594 262.343 324.595Z"/></g></svg>