<svg width="940" height="302" xmlns="http://www.w3.org/2000/svg" xmlns:xlink="http://www.w3.org/1999/xlink" overflow="hidden"><defs><filter id="fx0" x="-10%" y="-10%" width="120%" height="120%" filterUnits="userSpaceOnUse" primitiveUnits="userSpaceOnUse"><feComponentTransfer color-interpolation-filters="sRGB"><feFuncR type="discrete" tableValues="0 0"/><feFuncG type="discrete" tableValues="0 0"/><feFuncB type="discrete" tableValues="0 0"/><feFuncA type="linear" slope="0.34902" intercept="0"/></feComponentTransfer><feGaussianBlur stdDeviation="1.40007 1.39828"/></filter><filter id="fx1" x="-10%" y="-10%" width="120%" height="120%" filterUnits="userSpaceOnUse" primitiveUnits="userSpaceOnUse"><feComponentTransfer color-interpolation-filters="sRGB"><feFuncR type="discrete" tableValues="0 0"/><feFuncG type="discrete" tableValues="0 0"/><feFuncB type="discrete" tableValues="0 0"/><feFuncA type="linear" slope="0.34902" intercept="0"/></feComponentTransfer><feGaussianBlur stdDeviation="1.40007 1.39828"/></filter><filter id="fx2" x="-10%" y="-10%" width="120%" height="120%" filterUnits="userSpaceOnUse" primitiveUnits="userSpaceOnUse"><feComponentTransfer color-interpolation-filters="sRGB"><feFuncR type="discrete" tableValues="0 0"/><feFuncG type="discrete" tableValues="0 0"/><feFuncB type="discrete" tableValues="0 0"/><feFuncA type="linear" slope="0.34902" intercept="0"/></feComponentTransfer><feGaussianBlur stdDeviation="1.40007 1.39828"/></filter><filter id="fx3" x="-10%" y="-10%" width="120%" height="120%" filterUnits="userSpaceOnUse" primitiveUnits="userSpaceOnUse"><feComponentTransfer color-interpolation-filters="sRGB"><feFuncR type="discrete" tableValues="0 0"/><feFuncG type="discrete" tableValues="0 0"/><feFuncB type="discrete" tableValues="0 0"/><feFuncA type="linear" slope="0.34902" intercept="0"/></feComponentTransfer><feGaussianBlur stdDeviation="1.40007 1.39828"/></filter><filter id="fx4" x="-10%" y="-10%" width="120%" height="120%" filterUnits="userSpaceOnUse" primitiveUnits="userSpaceOnUse"><feComponentTransfer color-interpolation-filters="sRGB"><feFuncR type="discrete" tableValues="0 0"/><feFuncG type="discrete" tableValues="0 0"/><feFuncB type="discrete" tableValues="0 0"/><feFuncA type="linear" slope="0.380392" intercept="0"/></feComponentTransfer><feGaussianBlur stdDeviation="1.40007 1.39828"/></filter><filter id="fx5" x="-10%" y="-10%" width="120%" height="120%" filterUnits="userSpaceOnUse" primitiveUnits="userSpaceOnUse"><feComponentTransfer color-interpolation-filters="sRGB"><feFuncR type="discrete" tableValues="0 0"/><feFuncG type="discrete" tableValues="0 0"/><feFuncB type="discrete" tableValues="0 0"/><feFuncA type="linear" slope="0.380392" intercept="0"/></feComponentTransfer><feGaussianBlur stdDeviation="1.40007 1.39828"/></filter><filter id="fx6" x="-10%" y="-10%" width="120%" height="120%" filterUnits="userSpaceOnUse" primitiveUnits="userSpaceOnUse"><feComponentTransfer color-interpolation-filters="sRGB"><feFuncR type="discrete" tableValues="0 0"/><feFuncG type="discrete" tableValues="0 0"/><feFuncB type="discrete" tableValues="0 0"/><feFuncA type="linear" slope="0.380392" intercept="0"/></feComponentTransfer><feGaussianBlur stdDeviation="1.40007 1.39828"/></filter><filter id="fx7" x="-10%" y="-10%" width="120%" height="120%" filterUnits="userSpaceOnUse" primitiveUnits="userSpaceOnUse"><feComponentTransfer color-interpolation-filters="sRGB"><feFuncR type="discrete" tableValues="0 0"/><feFuncG type="discrete" tableValues="0 0"/><feFuncB type="discrete" tableValues="0 0"/><feFuncA type="linear" slope="0.380392" intercept="0"/></feComponentTransfer><feGaussianBlur stdDeviation="1.40007 1.39828"/></filter><filter id="fx8" x="-10%" y="-10%" width="120%" height="120%" filterUnits="userSpaceOnUse" primitiveUnits="userSpaceOnUse"><feComponentTransfer color-interpolation-filters="sRGB"><feFuncR type="discrete" tableValues="0 0"/><feFuncG type="discrete" tableValues="0 0"/><feFuncB type="discrete" tableValues="0 0"/><feFuncA type="linear" slope="0.34902" intercept="0"/></feComponentTransfer><feGaussianBlur stdDeviation="1.40007 1.39828"/></filter><filter id="fx9" x="-10%" y="-10%" width="120%" height="120%" filterUnits="userSpaceOnUse" primitiveUnits="userSpaceOnUse"><feComponentTransfer color-interpolation-filters="sRGB"><feFuncR type="discrete" tableValues="0 0"/><feFuncG type="discrete" tableValues="0 0"/><feFuncB type="discrete" tableValues="0 0"/><feFuncA type="linear" slope="0.34902" intercept="0"/></feComponentTransfer><feGaussianBlur stdDeviation="1.40007 1.39828"/></filter><filter id="fx10" x="-10%" y="-10%" width="120%" height="120%" filterUnits="userSpaceOnUse" primitiveUnits="userSpaceOnUse"><feComponentTransfer color-interpolation-filters="sRGB"><feFuncR type="discrete" tableValues="0 0"/><feFuncG type="discrete" tableValues="0 0"/><feFuncB type="discrete" tableValues="0 0"/><feFuncA type="linear" slope="0.380392" intercept="0"/></feComponentTransfer><feGaussianBlur stdDeviation="1.40007 1.39828"/></filter><clipPath id="clip11"><rect x="0" y="0" width="940" height="302"/></clipPath><clipPath id="clip12"><path d="M55.6669 116.351C49.4996 116.351 44.5 121.344 44.5 127.504L44.5 172.113C44.5 178.272 49.4996 183.265 55.6669 183.265L170.333 183.265C176.5 183.265 181.5 178.272 181.5 172.113L181.5 127.504C181.5 121.344 176.5 116.351 170.333 116.351ZM1.40071e-05 4.50015e-06 940 4.50015e-06 940 302 1.40071e-05 302Z" fill-rule="evenodd" clip-rule="evenodd"/></clipPath><clipPath id="clip13"><rect x="-1" y="1" width="151" height="79"/></clipPath><clipPath id="clip14"><rect x="0" y="0" width="150" height="80"/></clipPath><clipPath id="clip15"><rect x="13" y="7" width="109" height="31"/></clipPath><clipPath id="clip16"><rect x="0" y="0" width="135" height="50"/></clipPath><linearGradient x1="113" y1="183.265" x2="113" y2="116.351" gradientUnits="userSpaceOnUse" spreadMethod="reflect" id="fill17"><stop offset="0" stop-color="#2C5D98"/><stop offset="0.8" stop-color="#3C7BC7"/><stop offset="1" stop-color="#3A7CCB"/></linearGradient><clipPath id="clip18"><path d="M775.667 43.4443C769.5 43.4443 764.5 48.4375 764.5 54.597L764.5 99.206C764.5 105.365 769.5 110.359 775.667 110.359L890.333 110.359C896.5 110.359 901.5 105.365 901.5 99.206L901.5 54.597C901.5 48.4375 896.5 43.4443 890.333 43.4443ZM1.40071e-05 4.50015e-06 940 4.50015e-06 940 302 1.40071e-05 302Z" fill-rule="evenodd" clip-rule="evenodd"/></clipPath><clipPath id="clip19"><rect x="-1" y="1" width="151" height="79"/></clipPath><clipPath id="clip20"><rect x="0" y="0" width="150" height="80"/></clipPath><clipPath id="clip21"><rect x="13" y="9" width="109" height="27"/></clipPath><clipPath id="clip22"><rect x="0" y="0" width="134" height="51"/></clipPath><linearGradient x1="833" y1="110.359" x2="833" y2="43.4443" gradientUnits="userSpaceOnUse" spreadMethod="reflect" id="fill23"><stop offset="0" stop-color="#769535"/><stop offset="0.8" stop-color="#9BC348"/><stop offset="1" stop-color="#9CC746"/></linearGradient><clipPath id="clip24"><path d="M357.375 110.358C351.921 110.358 347.5 128.021 347.5 149.808 347.5 171.595 351.921 189.257 357.375 189.257L588.625 189.258C594.079 189.258 598.5 171.596 598.5 149.808 598.5 128.021 594.079 110.359 588.625 110.359ZM1.40071e-05 4.50015e-06 940 4.50015e-06 940 302 1.40071e-05 302Z" fill-rule="evenodd" clip-rule="evenodd"/></clipPath><clipPath id="clip25"><rect x="1" y="-1" width="263" height="93"/></clipPath><clipPath id="clip26"><rect x="0" y="0" width="264" height="92"/></clipPath><clipPath id="clip27"><rect x="13" y="13" width="65" height="25"/></clipPath><clipPath id="clip28"><rect x="0" y="0" width="90" height="50"/></clipPath><linearGradient x1="598.5" y1="149.808" x2="347.5" y2="149.808" gradientUnits="userSpaceOnUse" spreadMethod="reflect" id="fill29"><stop offset="0" stop-color="#FFA2A1"/><stop offset="0.35" stop-color="#FFBEBD"/><stop offset="1" stop-color="#FFE5E5"/></linearGradient><linearGradient x1="598.5" y1="149.808" x2="347.5" y2="149.808" gradientUnits="userSpaceOnUse" spreadMethod="reflect" id="fill30"><stop offset="0" stop-color="#FFC7C7"/><stop offset="0.35" stop-color="#FFD8D7"/><stop offset="1" stop-color="#FFEFEF"/></linearGradient><clipPath id="clip31"><rect x="-1" y="3" width="179" height="21"/></clipPath><clipPath id="clip32"><rect x="0" y="0" width="186" height="28"/></clipPath><clipPath id="clip33"><rect x="-1" y="7" width="179" height="87"/></clipPath><clipPath id="clip34"><rect x="0" y="0" width="187" height="94"/></clipPath><clipPath id="clip35"><path d="M775.667 189.257C769.5 189.257 764.5 194.251 764.5 200.41L764.5 245.019C764.5 251.179 769.5 256.172 775.667 256.172L890.333 256.172C896.5 256.172 901.5 251.179 901.5 245.019L901.5 200.41C901.5 194.251 896.5 189.257 890.333 189.257ZM1.40071e-05 4.50015e-06 940 4.50015e-06 940 302 1.40071e-05 302Z" fill-rule="evenodd" clip-rule="evenodd"/></clipPath><clipPath id="clip36"><rect x="-1" y="1" width="151" height="79"/></clipPath><clipPath id="clip37"><rect x="0" y="0" width="150" height="80"/></clipPath><clipPath id="clip38"><rect x="13" y="9" width="109" height="27"/></clipPath><clipPath id="clip39"><rect x="0" y="0" width="134" height="51"/></clipPath><linearGradient x1="833" y1="256.172" x2="833" y2="189.257" gradientUnits="userSpaceOnUse" spreadMethod="reflect" id="fill40"><stop offset="0" stop-color="#769535"/><stop offset="0.8" stop-color="#9BC348"/><stop offset="1" stop-color="#9CC746"/></linearGradient><clipPath id="clip41"><rect x="-1" y="1" width="179" height="85"/></clipPath><clipPath id="clip42"><rect x="0" y="0" width="187" height="94"/></clipPath></defs><g clip-path="url(#clip11)"><rect x="0" y="0" width="940" height="301.614" fill="#FFFFFF"/><g clip-path="url(#clip12)"><g clip-path="url(#clip13)" filter="url(#fx0)" transform="translate(38 112)"><g clip-path="url(#clip14)"><path d="M6.49996 17.9156C6.49996 11.7562 11.4996 6.76299 17.6669 6.76299L132.333 6.76299C138.5 6.76299 143.5 11.7562 143.5 17.9156L143.5 62.5246C143.5 68.6841 138.5 73.6773 132.333 73.6773L17.6669 73.6773C11.4996 73.6773 6.49996 68.6841 6.49996 62.5246Z" stroke="#4A7EBB" stroke-linejoin="round" stroke-miterlimit="10" fill="#FF0000" fill-rule="evenodd"/></g></g><g clip-path="url(#clip15)" filter="url(#fx1)" transform="translate(45 129)"><g clip-path="url(#clip16)"><path d="M3.03369-8.03418C3.479-8.75163 4.03255-9.35156 4.69434-9.83398 5.44889-10.3783 6.20654-10.6504 6.96729-10.6504 8.09294-10.6504 8.96191-10.1525 9.57422-9.15674 10.0876-8.32178 10.3442-7.31055 10.3442-6.12305 10.3442-5.02214 10.1401-4.00781 9.73193-3.08008 9.29281-2.07194 8.65267-1.271 7.81152-0.677246 7.0446-0.12679 6.09521 0.148438 4.96338 0.148438 4.62321 0.148438 4.12842 0.114421 3.479 0.0463867 3.3986 0.0402018 3.25016 0.0247396 3.03369 0L3.03369 4.02637 1.30811 4.02637 1.30811-10.3628 3.03369-10.3628ZM3.03369-5.98389 3.03369-1.54004C3.65837-1.37923 4.23356-1.29883 4.75928-1.29883 5.95296-1.29883 6.88997-1.78125 7.57031-2.74609 8.17025-3.59961 8.47021-4.64795 8.47021-5.89111 8.47021-6.64567 8.34033-7.30745 8.08057-7.87646 7.73421-8.62484 7.22705-8.99902 6.55908-8.99902 5.90967-8.99902 5.22005-8.63721 4.49023-7.91357 3.93978-7.3693 3.45426-6.72607 3.03369-5.98389ZM21.1418-10.3628 21.1418 0 19.4162 0 19.4162-2.27295C18.3029-0.565918 17.0041 0.287598 15.5197 0.287598 14.926 0.287598 14.3817 0.132975 13.8869-0.17627 13.3674-0.504069 13.0056-0.940104 12.8015-1.48438 12.6035-2.01009 12.5046-3.03988 12.5046-4.57373L12.5046-10.3628 14.2302-10.3628 14.2302-4.36035C14.2302-3.57487 14.2456-3.08317 14.2766-2.88525 14.357-2.29769 14.5672-1.87093 14.9074-1.60498 15.161-1.40088 15.4362-1.29883 15.7331-1.29883 16.432-1.29883 17.1556-1.64827 17.904-2.34717 18.5225-2.91618 19.0266-3.57487 19.4162-4.32324L19.4162-10.3628ZM25.371-8.03418C25.8163-8.75163 26.3698-9.35156 27.0316-9.83398 27.7862-10.3783 28.5438-10.6504 29.3046-10.6504 30.4302-10.6504 31.2992-10.1525 31.9115-9.15674 32.4249-8.32178 32.6815-7.31055 32.6815-6.12305 32.6815-5.02214 32.4774-4.00781 32.0692-3.08008 31.6301-2.07194 30.99-1.271 30.1488-0.677246 29.3819-0.12679 28.4325 0.148438 27.3007 0.148438 26.9605 0.148438 26.4657 0.114421 25.8163 0.0463867 25.7359 0.0402018 25.5875 0.0247396 25.371 0L23.6454 0 23.6454-14.9736 25.371-14.9736ZM25.371-5.98389 25.371-1.54004C25.9957-1.37923 26.5709-1.29883 27.0966-1.29883 28.2903-1.29883 29.2273-1.78125 29.9076-2.74609 30.5075-3.59961 30.8075-4.64795 30.8075-5.89111 30.8075-6.64567 30.6776-7.30745 30.4179-7.87646 30.0715-8.62484 29.5643-8.99902 28.8964-8.99902 28.247-8.99902 27.5573-8.63721 26.8275-7.91357 26.2771-7.3693 25.7916-6.72607 25.371-5.98389ZM37.7364 0 37.7364-13.5264 34.6378-13.5264 34.6378-14.9736 39.462-14.9736 39.462-1.44727 42.6998-1.44727 42.6998 0ZM49.0257 0 49.0257-8.91553 46.1497-8.91553 46.1497-10.3628 50.7512-10.3628 50.7512-1.44727 53.6365-1.44727 53.6365 0ZM48.7381-14.1016C48.7381-14.4232 48.8494-14.6969 49.072-14.9226 49.2947-15.1484 49.5668-15.2612 49.8885-15.2612 50.2101-15.2612 50.4837-15.1484 50.7095-14.9226 50.9352-14.6969 51.0481-14.4232 51.0481-14.1016 51.0481-13.7861 50.9352-13.5155 50.7095-13.2898 50.4837-13.064 50.2101-12.9512 49.8885-12.9512 49.573-12.9512 49.3024-13.064 49.0767-13.2898 48.8509-13.5155 48.7381-13.7861 48.7381-14.1016ZM57.4018-0.547363 57.4018-2.375C58.6574-1.56478 60.0459-1.15967 61.5674-1.15967 63.2063-1.15967 64.0258-1.65088 64.0258-2.63332 64.0258-3.01021 63.8403-3.32535 63.4692-3.57874 63.296-3.69615 62.9466-3.86295 62.4209-4.07913L61.8271-4.3202 60.6303-4.79291C59.6469-5.18217 58.9759-5.51891 58.6172-5.80312 57.9987-6.29125 57.6894-6.93076 57.6894-7.72165 57.6894-8.79057 58.1471-9.57219 59.0625-10.0665 59.7737-10.4558 60.7138-10.6504 61.8828-10.6504 62.9899-10.6504 64.0382-10.4896 65.0278-10.168L65.0278-8.6001C63.8898-9.00212 62.8198-9.20312 61.8178-9.20312 61.2612-9.20312 60.7726-9.11663 60.352-8.94365 59.7768-8.70263 59.4892-8.34115 59.4892-7.85921 59.4892-7.44521 59.7768-7.08064 60.352-6.7655 60.5561-6.65437 61.0231-6.46592 61.7529-6.20016L62.9218-5.77384C63.831-5.44024 64.4959-5.09732 64.9165-4.74507 65.5226-4.23221 65.8257-3.58033 65.8257-2.78944 65.8257-1.67731 65.3556-0.858637 64.4155-0.333405 63.6733 0.0805969 62.6961 0.287598 61.4839 0.287598 60.1603 0.287598 58.7996 0.00927733 57.4018-0.547363ZM68.4499 0 68.4499-14.9736 70.1755-14.9736 70.1755-8.09912C70.627-8.82275 71.1712-9.41341 71.8083-9.87109 72.5443-10.3906 73.2957-10.6504 74.0627-10.6504 74.6069-10.6504 75.1172-10.5174 75.5934-10.2515 76.1068-9.96077 76.4717-9.5804 76.6881-9.11035 76.8923-8.66504 77.019-8.12077 77.0685-7.47754 77.0809-7.26725 77.0871-6.70443 77.0871-5.78906L77.0871 0 75.3615 0 75.3615-6.00244C75.3615-6.78792 75.346-7.27962 75.3151-7.47754 75.2347-8.0651 75.0275-8.49186 74.6935-8.75781 74.4338-8.96191 74.1523-9.06396 73.8493-9.06396 73.1566-9.06396 72.4329-8.71452 71.6784-8.01562 71.0661-7.44661 70.5651-6.78792 70.1755-6.03955L70.1755 0ZM88.2372-0.686523C86.8579-0.0309245 85.5529 0.296875 84.3221 0.296875 82.3924 0.296875 80.9699-0.599935 80.0546-2.39355 79.6092-3.25326 79.3866-4.1748 79.3866-5.1582 79.3866-6.10449 79.5907-7.0013 79.9989-7.84863 80.4256-8.73926 81.0178-9.42887 81.7755-9.91748 82.5331-10.4061 83.3758-10.6504 84.3036-10.6504 85.7508-10.6504 86.8239-10.0907 87.5228-8.97119 88.098-8.04964 88.3856-6.81575 88.3856-5.26953L88.3856-4.89844 81.2421-4.89844C81.2421-4.23047 81.375-3.60889 81.641-3.03369 81.9317-2.39665 82.343-1.91732 82.8749-1.5957 83.3635-1.29883 83.9201-1.15039 84.5448-1.15039 85.6581-1.15039 86.8889-1.52148 88.2372-2.26367ZM81.3441-6.18799 86.5116-6.18799 86.5116-6.43775C86.5116-7.21463 86.3291-7.85279 85.9642-8.35222 85.556-8.91949 84.9777-9.20312 84.2294-9.20312 82.7202-9.20312 81.7585-8.19808 81.3441-6.18799ZM91.6685 0 91.6685-10.3628 93.3941-10.3628 93.3941-8.09912C94.4641-9.79997 95.8557-10.6504 97.5689-10.6504 98.1936-10.6504 98.8182-10.5545 99.4429-10.3628L99.4429-6.62402 97.7823-6.62402 97.7823-8.98975C97.4916-9.03922 97.2627-9.06396 97.0958-9.06396 95.8031-9.06396 94.5692-8.04964 93.3941-6.021L93.3941 0Z" fill="#FFFFFF" transform="matrix(1 0 0 0.99872 17.2753 29)"/></g></g></g><path d="M44.5 127.504C44.5 121.344 49.4996 116.351 55.6669 116.351L170.333 116.351C176.5 116.351 181.5 121.344 181.5 127.504L181.5 172.113C181.5 178.272 176.5 183.265 170.333 183.265L55.6669 183.265C49.4996 183.265 44.5 178.272 44.5 172.113Z" stroke="#4A7EBB" stroke-width="1.00018" stroke-linejoin="round" stroke-miterlimit="10" fill="url(#fill17)" fill-rule="evenodd"/><text fill="#FFFFFF" font-family="Monaco,Monaco_MSFontService,sans-serif" font-weight="400" font-size="19" transform="matrix(1 0 0 0.99872 62.2753 156)">publisher</text><g clip-path="url(#clip18)"><g clip-path="url(#clip19)" filter="url(#fx2)" transform="translate(758 39)"><g clip-path="url(#clip20)"><path d="M6.49994 18.009C6.49994 11.8496 11.4995 6.85637 17.6668 6.85637L132.333 6.85637C138.5 6.85637 143.5 11.8496 143.5 18.009L143.5 62.618C143.5 68.7775 138.5 73.7707 132.333 73.7707L17.6668 73.7707C11.4995 73.7707 6.49994 68.7775 6.49994 62.618Z" stroke="#98B954" stroke-linejoin="round" stroke-miterlimit="10" fill="#FF0000" fill-rule="evenodd"/></g></g><g clip-path="url(#clip21)" filter="url(#fx3)" transform="translate(765 56)"><g clip-path="url(#clip22)"><path d="M10.1587-0.296875C9.00212 0.0927734 7.9012 0.287598 6.85596 0.287598 5.86019 0.287598 4.95719 0.061849 4.14697-0.389648 3.3182-0.859701 2.66878-1.52458 2.19873-2.38428 1.74723-3.20068 1.52148-4.13151 1.52148-5.17676 1.52148-6.69824 2.01318-7.9847 2.99658-9.03613 3.99854-10.1123 5.25407-10.6504 6.76318-10.6504 7.83317-10.6504 8.96501-10.4494 10.1587-10.0474L10.1587-8.38672C8.95264-8.93099 7.87337-9.20312 6.9209-9.20312 5.46126-9.20312 4.43766-8.56067 3.8501-7.27576 3.54704-6.61475 3.39551-5.93518 3.39551-5.23706 3.39551-4.11276 3.71712-3.18614 4.36035-2.45719 5.02832-1.68495 5.91585-1.29883 7.02295-1.29883 7.8208-1.29883 8.86605-1.51839 10.1587-1.95752ZM16.8742 0.287598C15.3527 0.287598 14.1405-0.253581 13.2375-1.33594 12.3963-2.35026 11.9758-3.63363 11.9758-5.18604 11.9758-6.73844 12.3994-8.01872 13.2468-9.02686 14.1436-10.1092 15.3527-10.6504 16.8742-10.6504 18.3895-10.6504 19.5987-10.1092 20.5017-9.02686 21.3428-8.01253 21.7634-6.73226 21.7634-5.18604 21.7634-3.63981 21.3428-2.35645 20.5017-1.33594 19.5987-0.253581 18.3895 0.287598 16.8742 0.287598ZM16.8742-1.15967C17.9133-1.15967 18.6988-1.5916 19.2307-2.45545 19.6698-3.17126 19.8894-4.08145 19.8894-5.18604 19.8894-6.28443 19.6667-7.19154 19.2214-7.90734 18.6895-8.7712 17.9071-9.20312 16.8742-9.20312 15.8351-9.20312 15.0497-8.77424 14.5178-7.91647 14.0725-7.20076 13.8498-6.29062 13.8498-5.18604 13.8498-4.08145 14.0725-3.17126 14.5178-2.45545 15.0497-1.5916 15.8351-1.15967 16.8742-1.15967ZM23.7753 0 23.7753-10.3628 25.5009-10.3628 25.5009-8.09912C25.9524-8.82275 26.4966-9.41341 27.1337-9.87109 27.8697-10.3906 28.6211-10.6504 29.3881-10.6504 29.988-10.6504 30.54-10.4927 31.0441-10.1772 31.5481-9.86182 31.9022-9.4366 32.1063-8.90161 32.3104-8.36662 32.4125-7.3291 32.4125-5.78906L32.4125 0 30.6869 0 30.6869-6.00244C30.6869-6.78792 30.6714-7.27962 30.6405-7.47754 30.5601-8.0651 30.3529-8.49186 30.0189-8.75781 29.7592-8.96191 29.4778-9.06396 29.1747-9.06396 28.482-9.06396 27.7584-8.71452 27.0038-8.01562 26.3915-7.44661 25.8905-6.78792 25.5009-6.03955L25.5009 0ZM35.0645-0.547363 35.0645-2.375C36.3201-1.56478 37.7086-1.15967 39.2301-1.15967 40.8691-1.15967 41.6886-1.65088 41.6886-2.63332 41.6886-3.01021 41.503-3.32535 41.1319-3.57874 40.9587-3.69615 40.6093-3.86295 40.0836-4.07913L39.4898-4.3202 38.293-4.79291C37.3097-5.18217 36.6386-5.51891 36.2799-5.80312 35.6614-6.29125 35.3521-6.93076 35.3521-7.72165 35.3521-8.79057 35.8098-9.57219 36.7252-10.0665 37.4364-10.4558 38.3765-10.6504 39.5455-10.6504 40.6526-10.6504 41.7009-10.4896 42.6905-10.168L42.6905-8.6001C41.5525-9.00212 40.4825-9.20312 39.4805-9.20312 38.9239-9.20312 38.4353-9.11663 38.0147-8.94365 37.4395-8.70263 37.1519-8.34115 37.1519-7.85921 37.1519-7.44521 37.4395-7.08064 38.0147-6.7655 38.2188-6.65437 38.6858-6.46592 39.4156-6.20016L40.5846-5.77384C41.4937-5.44024 42.1586-5.09732 42.5792-4.74507 43.1853-4.23221 43.4884-3.58033 43.4884-2.78944 43.4884-1.67731 43.0183-0.858637 42.0782-0.333405 41.336 0.0805969 40.3588 0.287598 39.1466 0.287598 37.823 0.287598 36.4623 0.00927733 35.0645-0.547363ZM54.6477-10.3628 54.6477 0 52.9221 0 52.9221-2.27295C51.8089-0.565918 50.51 0.287598 49.0257 0.287598 48.4319 0.287598 47.8876 0.132975 47.3928-0.17627 46.8733-0.504069 46.5115-0.940104 46.3074-1.48438 46.1095-2.01009 46.0105-3.03988 46.0105-4.57373L46.0105-10.3628 47.7361-10.3628 47.7361-4.36035C47.7361-3.57487 47.7516-3.08317 47.7825-2.88525 47.8629-2.29769 48.0732-1.87093 48.4134-1.60498 48.6669-1.40088 48.9422-1.29883 49.239-1.29883 49.9379-1.29883 50.6616-1.64827 51.4099-2.34717 52.0284-2.91618 52.5325-3.57487 52.9221-4.32324L52.9221-10.3628ZM56.5019 0 56.5019-10.3628 58.0141-10.3628 58.0141-7.98779C58.8571-9.76286 59.7187-10.6504 60.5989-10.6504 61.1815-10.6504 61.6185-10.4061 61.9099-9.91748 62.1516-9.51546 62.2724-9.00521 62.2724-8.38672L62.2724-7.83008C62.6242-8.93099 63.1673-9.75667 63.9018-10.3071 64.2103-10.536 64.5652-10.6504 64.9663-10.6504 66.0402-10.6504 66.5771-9.71029 66.5771-7.83008L66.5771 0 65.0649 0 65.0649-7.07861C65.0649-8.01253 64.9724-8.57227 64.7875-8.75781 64.6765-8.86914 64.5564-8.9248 64.427-8.9248 63.7056-8.9248 62.9875-7.86409 62.2724-5.74268L62.2724 0 60.8159 0 60.8159-7.06934C60.8159-8.30631 60.5654-8.9248 60.0644-8.9248 59.4459-8.9248 58.7625-7.9445 58.0141-5.98389L58.0141 0ZM77.0685-0.686523C75.6893-0.0309245 74.3843 0.296875 73.1535 0.296875 71.2238 0.296875 69.8013-0.599935 68.8859-2.39355 68.4406-3.25326 68.2179-4.1748 68.2179-5.1582 68.2179-6.10449 68.422-7.0013 68.8302-7.84863 69.257-8.73926 69.8492-9.42887 70.6068-9.91748 71.3645-10.4061 72.2072-10.6504 73.1349-10.6504 74.5822-10.6504 75.6553-10.0907 76.3542-8.97119 76.9294-8.04964 77.217-6.81575 77.217-5.26953L77.217-4.89844 70.0734-4.89844C70.0734-4.23047 70.2064-3.60889 70.4723-3.03369 70.763-2.39665 71.1743-1.91732 71.7062-1.5957 72.1948-1.29883 72.7515-1.15039 73.3761-1.15039 74.4894-1.15039 75.7202-1.52148 77.0685-2.26367ZM70.1755-6.18799 75.3429-6.18799 75.3429-6.43775C75.3429-7.21463 75.1605-7.85279 74.7956-8.35222 74.3874-8.91949 73.8091-9.20312 73.0607-9.20312 71.5516-9.20312 70.5898-8.19808 70.1755-6.18799ZM80.4999 0 80.4999-10.3628 82.2254-10.3628 82.2254-8.09912C83.2954-9.79997 84.687-10.6504 86.4003-10.6504 87.0249-10.6504 87.6496-10.5545 88.2743-10.3628L88.2743-6.62402 86.6136-6.62402 86.6136-8.98975C86.3229-9.03922 86.0941-9.06396 85.9271-9.06396 84.6345-9.06396 83.4006-8.04964 82.2254-6.021L82.2254 0ZM94.6187-1.44727 94.6187-12.5522C93.5673-11.7173 92.3921-11.0679 91.0933-10.604L91.0933-12.1626C92.4478-12.7378 93.6229-13.4831 94.6187-14.3984L96.3443-14.3984 96.3443-1.44727 99.8047-1.44727 99.8047 0 91.0933 0 91.0933-1.44727Z" fill="#FFFFFF" transform="matrix(1 0 0 0.99872 16.8066 30)"/></g></g></g><path d="M764.5 54.597C764.5 48.4375 769.5 43.4443 775.667 43.4443L890.333 43.4443C896.5 43.4443 901.5 48.4375 901.5 54.597L901.5 99.206C901.5 105.365 896.5 110.359 890.333 110.359L775.667 110.359C769.5 110.359 764.5 105.365 764.5 99.206Z" stroke="#98B954" stroke-width="1.00018" stroke-linejoin="round" stroke-miterlimit="10" fill="url(#fill23)" fill-rule="evenodd"/><text fill="#FFFFFF" font-family="Monaco,Monaco_MSFontService,sans-serif" font-weight="400" font-size="19" transform="matrix(1 0 0 0.99872 781.807 83)">consumer1</text><g clip-path="url(#clip24)"><g clip-path="url(#clip25)" filter="url(#fx4)" transform="translate(341 106)"><g clip-path="url(#clip26)"><path d="M16.3751 85.3549C21.8289 85.3549 26.2501 67.6927 26.2501 45.9053 26.2501 24.1179 21.8289 6.45577 16.3751 6.45577L247.625 6.45605C253.079 6.45605 257.5 24.1182 257.5 45.9056 257.5 67.693 253.079 85.3552 247.625 85.3552Z" fill="#FF0000" fill-rule="evenodd"/><path d="M16.3751 85.3549C10.9212 85.3549 6.50003 67.6927 6.50003 45.9053 6.50003 24.1179 10.9212 6.45577 16.3751 6.45577 21.8289 6.45577 26.2501 24.1179 26.2501 45.9053 26.2501 67.6927 21.8289 85.3549 16.3751 85.3549Z" fill="#FF0000" fill-rule="evenodd"/><path d="M16.3751 6.45605C21.8289 6.45605 26.2501 24.1182 26.2501 45.9056 26.2501 67.693 21.8289 85.3552 16.3751 85.3552 10.9212 85.3552 6.50003 67.693 6.50003 45.9056 6.50003 24.1182 10.9212 6.45605 16.3751 6.45605L247.625 6.45605C253.079 6.45605 257.5 24.1182 257.5 45.9056 257.5 67.693 253.079 85.3552 247.625 85.3552L16.3751 85.3549" stroke="#BE4B48" stroke-width="0.99872" stroke-linejoin="round" stroke-miterlimit="10" fill="none" fill-rule="evenodd"/></g></g><g clip-path="url(#clip27)" filter="url(#fx5)" transform="translate(432 129)"><g clip-path="url(#clip28)"><path d="M8.36816-2.32861C7.92904-1.61117 7.37549-1.01123 6.70752-0.528809 5.95296 0.0154622 5.19531 0.287598 4.43457 0.287598 3.3151 0.287598 2.44922-0.210286 1.83691-1.20605 1.32357-2.04102 1.06689-3.05225 1.06689-4.23975 1.06689-6.67041 1.90804-8.48877 3.59033-9.69482 4.35726-10.2391 5.30664-10.5112 6.43848-10.5112 6.78483-10.5112 7.27962-10.4772 7.92285-10.4092 8.00325-10.403 8.15169-10.3875 8.36816-10.3628L10.103-10.3628 10.103 4.02637 8.36816 4.02637ZM8.36816-4.37891 8.36816-8.82275C7.75586-8.98356 7.18685-9.06396 6.66113-9.06396 5.46126-9.06396 4.52116-8.58463 3.84082-7.62598 3.24089-6.77246 2.94092-5.72103 2.94092-4.47168 2.94092-3.72331 3.0708-3.06152 3.33057-2.48633 3.67074-1.73796 4.1748-1.36377 4.84277-1.36377 5.49219-1.36377 6.1849-1.72559 6.9209-2.44922 7.47135-2.99349 7.95378-3.63672 8.36816-4.37891ZM21.1418-10.3628 21.1418 0 19.4162 0 19.4162-2.27295C18.3029-0.565918 17.0041 0.287598 15.5197 0.287598 14.926 0.287598 14.3817 0.132975 13.8869-0.17627 13.3674-0.504069 13.0056-0.940104 12.8015-1.48438 12.6035-2.01009 12.5046-3.03988 12.5046-4.57373L12.5046-10.3628 14.2302-10.3628 14.2302-4.36035C14.2302-3.57487 14.2456-3.08317 14.2766-2.88525 14.357-2.29769 14.5672-1.87093 14.9074-1.60498 15.161-1.40088 15.4362-1.29883 15.7331-1.29883 16.432-1.29883 17.1556-1.64827 17.904-2.34717 18.5225-2.91618 19.0266-3.57487 19.4162-4.32324L19.4162-10.3628ZM32.3939-0.686523C31.0147-0.0309245 29.7097 0.296875 28.4789 0.296875 26.5492 0.296875 25.1267-0.599935 24.2113-2.39355 23.766-3.25326 23.5433-4.1748 23.5433-5.1582 23.5433-6.10449 23.7474-7.0013 24.1557-7.84863 24.5824-8.73926 25.1746-9.42887 25.9323-9.91748 26.6899-10.4061 27.5326-10.6504 28.4603-10.6504 29.9076-10.6504 30.9807-10.0907 31.6796-8.97119 32.2548-8.04964 32.5424-6.81575 32.5424-5.26953L32.5424-4.89844 25.3988-4.89844C25.3988-4.23047 25.5318-3.60889 25.7977-3.03369 26.0884-2.39665 26.4997-1.91732 27.0316-1.5957 27.5202-1.29883 28.0769-1.15039 28.7016-1.15039 29.8148-1.15039 31.0456-1.52148 32.3939-2.26367ZM25.5009-6.18799 30.6683-6.18799 30.6683-6.43775C30.6683-7.21463 30.4859-7.85279 30.121-8.35222 29.7128-8.91949 29.1345-9.20312 28.3861-9.20312 26.877-9.20312 25.9153-8.19808 25.5009-6.18799ZM43.4791-10.3628 43.4791 0 41.7535 0 41.7535-2.27295C40.6402-0.565918 39.3414 0.287598 37.857 0.287598 37.2633 0.287598 36.719 0.132975 36.2242-0.17627 35.7047-0.504069 35.3428-0.940104 35.1388-1.48438 34.9408-2.01009 34.8419-3.03988 34.8419-4.57373L34.8419-10.3628 36.5675-10.3628 36.5675-4.36035C36.5675-3.57487 36.5829-3.08317 36.6138-2.88525 36.6943-2.29769 36.9045-1.87093 37.2447-1.60498 37.4983-1.40088 37.7735-1.29883 38.0704-1.29883 38.7693-1.29883 39.4929-1.64827 40.2413-2.34717 40.8598-2.91618 41.3638-3.57487 41.7535-4.32324L41.7535-10.3628ZM54.7312-0.686523C53.352-0.0309245 52.047 0.296875 50.8162 0.296875 48.8865 0.296875 47.464-0.599935 46.5486-2.39355 46.1033-3.25326 45.8806-4.1748 45.8806-5.1582 45.8806-6.10449 46.0847-7.0013 46.4929-7.84863 46.9197-8.73926 47.5119-9.42887 48.2696-9.91748 49.0272-10.4061 49.8699-10.6504 50.7976-10.6504 52.2449-10.6504 53.318-10.0907 54.0169-8.97119 54.5921-8.04964 54.8797-6.81575 54.8797-5.26953L54.8797-4.89844 47.7361-4.89844C47.7361-4.23047 47.8691-3.60889 48.135-3.03369 48.4257-2.39665 48.837-1.91732 49.3689-1.5957 49.8575-1.29883 50.4142-1.15039 51.0388-1.15039 52.1521-1.15039 53.3829-1.52148 54.7312-2.26367ZM47.8382-6.18799 53.0056-6.18799 53.0056-6.43775C53.0056-7.21463 52.8232-7.85279 52.4583-8.35222 52.0501-8.91949 51.4718-9.20312 50.7234-9.20312 49.2143-9.20312 48.2525-8.19808 47.8382-6.18799Z" transform="matrix(1 -2.44303e-16 2.45243e-16 0.99872 17.2855 29)"/></g></g></g><path d="M357.375 189.257C362.829 189.257 367.25 171.595 367.25 149.808 367.25 128.021 362.829 110.358 357.375 110.358L588.625 110.359C594.079 110.359 598.5 128.021 598.5 149.808 598.5 171.596 594.079 189.258 588.625 189.258Z" fill="url(#fill29)" fill-rule="evenodd"/><path d="M357.375 189.257C351.921 189.257 347.5 171.595 347.5 149.808 347.5 128.021 351.921 110.358 357.375 110.358 362.829 110.358 367.25 128.021 367.25 149.808 367.25 171.595 362.829 189.257 357.375 189.257Z" fill="url(#fill30)" fill-rule="evenodd"/><path d="M357.375 110.359C362.829 110.359 367.25 128.021 367.25 149.808 367.25 171.596 362.829 189.258 357.375 189.258 351.921 189.258 347.5 171.596 347.5 149.808 347.5 128.021 351.921 110.359 357.375 110.359L588.625 110.359C594.079 110.359 598.5 128.021 598.5 149.808 598.5 171.596 594.079 189.258 588.625 189.258L357.375 189.257" stroke="#BE4B48" stroke-width="0.998897" stroke-linejoin="round" stroke-miterlimit="10" fill="none" fill-rule="evenodd"/><text font-family="Monaco,Monaco_MSFontService,sans-serif" font-weight="400" font-size="19" transform="matrix(1 -2.44303e-16 2.45243e-16 0.99872 449.285 156)">queue</text><g clip-path="url(#clip31)" filter="url(#fx6)" transform="translate(176 138)"><g clip-path="url(#clip32)"><path d="M9.47461e-07-1.49808 158.327-1.49798 158.327 1.49818-9.47461e-07 1.49808ZM156.829-4.49414 165.817 0.000104871 156.829 4.49434Z" fill="#4F81BD" transform="matrix(1.00128 0 0 -1 5.5 14.4049)"/></g></g><path d="M8.42337e-07-1.33186 159.158-1.33176 159.158 1.33196-8.42337e-07 1.33186ZM157.826-3.99549 165.817 0.000104871 157.826 3.99569Z" fill="#4F81BD" transform="matrix(1.00128 0 0 -1 181.5 150.307)"/><g clip-path="url(#clip33)" filter="url(#fx7)" transform="translate(592 65)"><g clip-path="url(#clip34)"><path d="M0.601326-1.3721 159.558 68.291 158.355 71.0352-0.601326 1.3721ZM159.388 64.9455 165.817 72.6697 155.78 73.1781Z" fill="#4F81BD" transform="matrix(1.00128 0 0 -1 6.5 87.168)"/></g></g><path d="M0.534607-1.21986 160.252 68.7768 159.183 71.2165-0.534607 1.21986ZM160.102 65.8025 165.817 72.6697 156.894 73.1217Z" fill="#4F81BD" transform="matrix(1.00128 0 0 -1 598.5 150.071)"/><g clip-path="url(#clip35)"><g clip-path="url(#clip36)" filter="url(#fx8)" transform="translate(758 185)"><g clip-path="url(#clip37)"><path d="M6.49994 17.8221C6.49994 11.6627 11.4995 6.66949 17.6668 6.66949L132.333 6.66949C138.5 6.66949 143.5 11.6627 143.5 17.8221L143.5 62.4311C143.5 68.5906 138.5 73.5838 132.333 73.5838L17.6668 73.5838C11.4995 73.5838 6.49994 68.5906 6.49994 62.4311Z" stroke="#98B954" stroke-linejoin="round" stroke-miterlimit="10" fill="#FF0000" fill-rule="evenodd"/></g></g><g clip-path="url(#clip38)" filter="url(#fx9)" transform="translate(765 201)"><g clip-path="url(#clip39)"><path d="M10.1587-0.296875C9.00212 0.0927734 7.9012 0.287598 6.85596 0.287598 5.86019 0.287598 4.95719 0.061849 4.14697-0.389648 3.3182-0.859701 2.66878-1.52458 2.19873-2.38428 1.74723-3.20068 1.52148-4.13151 1.52148-5.17676 1.52148-6.69824 2.01318-7.9847 2.99658-9.03613 3.99854-10.1123 5.25407-10.6504 6.76318-10.6504 7.83317-10.6504 8.96501-10.4494 10.1587-10.0474L10.1587-8.38672C8.95264-8.93099 7.87337-9.20312 6.9209-9.20312 5.46126-9.20312 4.43766-8.56067 3.8501-7.27576 3.54704-6.61475 3.39551-5.93518 3.39551-5.23706 3.39551-4.11276 3.71712-3.18614 4.36035-2.45719 5.02832-1.68495 5.91585-1.29883 7.02295-1.29883 7.8208-1.29883 8.86605-1.51839 10.1587-1.95752ZM16.8742 0.287598C15.3527 0.287598 14.1405-0.253581 13.2375-1.33594 12.3963-2.35026 11.9758-3.63363 11.9758-5.18604 11.9758-6.73844 12.3994-8.01872 13.2468-9.02686 14.1436-10.1092 15.3527-10.6504 16.8742-10.6504 18.3895-10.6504 19.5987-10.1092 20.5017-9.02686 21.3428-8.01253 21.7634-6.73226 21.7634-5.18604 21.7634-3.63981 21.3428-2.35645 20.5017-1.33594 19.5987-0.253581 18.3895 0.287598 16.8742 0.287598ZM16.8742-1.15967C17.9133-1.15967 18.6988-1.5916 19.2307-2.45545 19.6698-3.17126 19.8894-4.08145 19.8894-5.18604 19.8894-6.28443 19.6667-7.19154 19.2214-7.90734 18.6895-8.7712 17.9071-9.20312 16.8742-9.20312 15.8351-9.20312 15.0497-8.77424 14.5178-7.91647 14.0725-7.20076 13.8498-6.29062 13.8498-5.18604 13.8498-4.08145 14.0725-3.17126 14.5178-2.45545 15.0497-1.5916 15.8351-1.15967 16.8742-1.15967ZM23.7753 0 23.7753-10.3628 25.5009-10.3628 25.5009-8.09912C25.9524-8.82275 26.4966-9.41341 27.1337-9.87109 27.8697-10.3906 28.6211-10.6504 29.3881-10.6504 29.988-10.6504 30.54-10.4927 31.0441-10.1772 31.5481-9.86182 31.9022-9.4366 32.1063-8.90161 32.3104-8.36662 32.4125-7.3291 32.4125-5.78906L32.4125 0 30.6869 0 30.6869-6.00244C30.6869-6.78792 30.6714-7.27962 30.6405-7.47754 30.5601-8.0651 30.3529-8.49186 30.0189-8.75781 29.7592-8.96191 29.4778-9.06396 29.1747-9.06396 28.482-9.06396 27.7584-8.71452 27.0038-8.01562 26.3915-7.44661 25.8905-6.78792 25.5009-6.03955L25.5009 0ZM35.0645-0.547363 35.0645-2.375C36.3201-1.56478 37.7086-1.15967 39.2301-1.15967 40.8691-1.15967 41.6886-1.65088 41.6886-2.63332 41.6886-3.01021 41.503-3.32535 41.1319-3.57874 40.9587-3.69615 40.6093-3.86295 40.0836-4.07913L39.4898-4.3202 38.293-4.79291C37.3097-5.18217 36.6386-5.51891 36.2799-5.80312 35.6614-6.29125 35.3521-6.93076 35.3521-7.72165 35.3521-8.79057 35.8098-9.57219 36.7252-10.0665 37.4364-10.4558 38.3765-10.6504 39.5455-10.6504 40.6526-10.6504 41.7009-10.4896 42.6905-10.168L42.6905-8.6001C41.5525-9.00212 40.4825-9.20312 39.4805-9.20312 38.9239-9.20312 38.4353-9.11663 38.0147-8.94365 37.4395-8.70263 37.1519-8.34115 37.1519-7.85921 37.1519-7.44521 37.4395-7.08064 38.0147-6.7655 38.2188-6.65437 38.6858-6.46592 39.4156-6.20016L40.5846-5.77384C41.4937-5.44024 42.1586-5.09732 42.5792-4.74507 43.1853-4.23221 43.4884-3.58033 43.4884-2.78944 43.4884-1.67731 43.0183-0.858637 42.0782-0.333405 41.336 0.0805969 40.3588 0.287598 39.1466 0.287598 37.823 0.287598 36.4623 0.00927733 35.0645-0.547363ZM54.6477-10.3628 54.6477 0 52.9221 0 52.9221-2.27295C51.8089-0.565918 50.51 0.287598 49.0257 0.287598 48.4319 0.287598 47.8876 0.132975 47.3928-0.17627 46.8733-0.504069 46.5115-0.940104 46.3074-1.48438 46.1095-2.01009 46.0105-3.03988 46.0105-4.57373L46.0105-10.3628 47.7361-10.3628 47.7361-4.36035C47.7361-3.57487 47.7516-3.08317 47.7825-2.88525 47.8629-2.29769 48.0732-1.87093 48.4134-1.60498 48.6669-1.40088 48.9422-1.29883 49.239-1.29883 49.9379-1.29883 50.6616-1.64827 51.4099-2.34717 52.0284-2.91618 52.5325-3.57487 52.9221-4.32324L52.9221-10.3628ZM56.5019 0 56.5019-10.3628 58.0141-10.3628 58.0141-7.98779C58.8571-9.76286 59.7187-10.6504 60.5989-10.6504 61.1815-10.6504 61.6185-10.4061 61.9099-9.91748 62.1516-9.51546 62.2724-9.00521 62.2724-8.38672L62.2724-7.83008C62.6242-8.93099 63.1673-9.75667 63.9018-10.3071 64.2103-10.536 64.5652-10.6504 64.9663-10.6504 66.0402-10.6504 66.5771-9.71029 66.5771-7.83008L66.5771 0 65.0649 0 65.0649-7.07861C65.0649-8.01253 64.9724-8.57227 64.7875-8.75781 64.6765-8.86914 64.5564-8.9248 64.427-8.9248 63.7056-8.9248 62.9875-7.86409 62.2724-5.74268L62.2724 0 60.8159 0 60.8159-7.06934C60.8159-8.30631 60.5654-8.9248 60.0644-8.9248 59.4459-8.9248 58.7625-7.9445 58.0141-5.98389L58.0141 0ZM77.0685-0.686523C75.6893-0.0309245 74.3843 0.296875 73.1535 0.296875 71.2238 0.296875 69.8013-0.599935 68.8859-2.39355 68.4406-3.25326 68.2179-4.1748 68.2179-5.1582 68.2179-6.10449 68.422-7.0013 68.8302-7.84863 69.257-8.73926 69.8492-9.42887 70.6068-9.91748 71.3645-10.4061 72.2072-10.6504 73.1349-10.6504 74.5822-10.6504 75.6553-10.0907 76.3542-8.97119 76.9294-8.04964 77.217-6.81575 77.217-5.26953L77.217-4.89844 70.0734-4.89844C70.0734-4.23047 70.2064-3.60889 70.4723-3.03369 70.763-2.39665 71.1743-1.91732 71.7062-1.5957 72.1948-1.29883 72.7515-1.15039 73.3761-1.15039 74.4894-1.15039 75.7202-1.52148 77.0685-2.26367ZM70.1755-6.18799 75.3429-6.18799 75.3429-6.43775C75.3429-7.21463 75.1605-7.85279 74.7956-8.35222 74.3874-8.91949 73.8091-9.20312 73.0607-9.20312 71.5516-9.20312 70.5898-8.19808 70.1755-6.18799ZM80.4999 0 80.4999-10.3628 82.2254-10.3628 82.2254-8.09912C83.2954-9.79997 84.687-10.6504 86.4003-10.6504 87.0249-10.6504 87.6496-10.5545 88.2743-10.3628L88.2743-6.62402 86.6136-6.62402 86.6136-8.98975C86.3229-9.03922 86.0941-9.06396 85.9271-9.06396 84.6345-9.06396 83.4006-8.04964 82.2254-6.021L82.2254 0ZM99.4429 0 90.7315 0 90.7315-1.58643C90.7315-2.51339 91.1341-3.47437 91.9393-4.46936 92.4224-5.06253 92.9209-5.62178 93.435-6.14711L94.415-7.1524C95.8003-8.56052 96.6753-9.60118 97.0401-10.2744 97.2504-10.6697 97.3555-11.0588 97.3555-11.4417 97.3555-12.0532 97.0988-12.538 96.5855-12.8962 96.1278-13.2174 95.5805-13.3779 94.9434-13.3779 94.2074-13.3779 93.4312-13.2461 92.6148-12.9825 92.287-12.8721 91.7551-12.6514 91.0191-12.3203L91.0191-13.8511C92.386-14.5005 93.8116-14.8252 95.296-14.8252 97.0092-14.8252 98.1657-14.3242 98.7657-13.3223 99.0687-12.8089 99.2203-12.2616 99.2203-11.6802 99.2203-10.87 98.9017-10.0195 98.2647-9.12891 97.8998-8.61556 97.2813-7.92594 96.4092-7.06006L94.461-5.13965C93.9291-4.62012 93.4745-4.06966 93.0972-3.48828 92.7509-2.95638 92.5591-2.32243 92.522-1.58643L99.4429-1.58643Z" fill="#FFFFFF" transform="matrix(1 0 0 0.99872 16.8067 30)"/></g></g></g><path d="M764.5 200.41C764.5 194.251 769.5 189.257 775.667 189.257L890.333 189.257C896.5 189.257 901.5 194.251 901.5 200.41L901.5 245.019C901.5 251.179 896.5 256.172 890.333 256.172L775.667 256.172C769.5 256.172 764.5 251.179 764.5 245.019Z" stroke="#98B954" stroke-width="1.00018" stroke-linejoin="round" stroke-miterlimit="10" fill="url(#fill40)" fill-rule="evenodd"/><text fill="#FFFFFF" font-family="Monaco,Monaco_MSFontService,sans-serif" font-weight="400" font-size="19" transform="matrix(1 0 0 0.99872 781.807 228)">consumer2</text><g clip-path="url(#clip41)" filter="url(#fx10)" transform="translate(592 145)"><g clip-path="url(#clip42)"><path d="M7.1021 6.0327 166.263 75.6962 165.058 78.4404 5.8979 8.7769ZM166.093 72.3505 172.529 80.0747 162.48 80.5831Z" fill="#4F81BD"/></g></g><path d="M599.035 149.088 758.958 219.085 757.887 221.524 597.965 151.527ZM758.807 216.11 764.529 222.977 755.595 223.429Z" fill="#4F81BD"/></g></svg>