<svg width="1091" height="796" xmlns="http://www.w3.org/2000/svg" xmlns:xlink="http://www.w3.org/1999/xlink" overflow="hidden"><defs><clipPath id="clip0"><rect x="0" y="0" width="1091" height="796"/></clipPath></defs><g clip-path="url(#clip0)"><rect x="0" y="0" width="1091" height="796.333" fill="#FFFFFF"/><path d="M50 35.3179C50 24.6526 58.6423 16.0067 69.3031 16.0067L513.697 16.0067C524.358 16.0067 533 24.6526 533 35.3179L533 366.851C533 377.516 524.358 386.162 513.697 386.162L69.3031 386.162C58.6423 386.162 50 377.516 50 366.851Z" fill="#F2F2F2" fill-rule="evenodd"/><text fill="#4C5252" font-family="SimHei,SimHei_MSFontService,sans-serif" font-weight="400" font-size="27" transform="matrix(1 0 0 1.00042 238.804 370)">第一阶段</text><path d="M106.5 53.5225C106.5 48.5499 110.53 44.5187 115.5 44.5187L151.5 44.5187C156.471 44.5187 160.5 48.5499 160.5 53.5225L160.5 312.631C160.5 317.604 156.471 321.635 151.5 321.635L115.5 321.635C110.53 321.635 106.5 317.604 106.5 312.631Z" stroke="#AD2A26" stroke-width="3" stroke-linejoin="round" stroke-miterlimit="10" fill="#AD2A26" fill-rule="evenodd"/><text fill="#FFFFFF" font-family="SimHei,SimHei_MSFontService,sans-serif" font-weight="400" font-size="27" transform="matrix(1 0 0 1.00042 119.584 130)">事<tspan font-size="27" x="0" y="31.9866">务</tspan><tspan font-size="27" x="0" y="63.9732">协</tspan><tspan font-size="27" x="0" y="95.9598">调</tspan><tspan font-size="27" x="0" y="125.947">者</tspan></text><path d="M398.5 55.3568C398.5 49.3711 403.35 44.5187 409.334 44.5187L452.667 44.5187C458.65 44.5187 463.5 49.3711 463.5 55.3568L463.5 156.732C463.5 162.718 458.65 167.57 452.667 167.57L409.334 167.57C403.35 167.57 398.5 162.718 398.5 156.732Z" stroke="#AD2A26" stroke-width="1.33333" stroke-linejoin="round" stroke-miterlimit="10" fill="#AD2A26" fill-rule="evenodd"/><text fill="#FFFFFF" font-family="Monaco,Monaco_MSFontService,sans-serif" font-weight="400" font-size="27" transform="matrix(1 0 0 1.00042 414.278 116)">RM</text><path d="M396.5 209.421C396.5 203.436 401.35 198.583 407.334 198.583L450.667 198.583C456.65 198.583 461.5 203.436 461.5 209.421L461.5 310.797C461.5 316.782 456.65 321.635 450.667 321.635L407.334 321.635C401.35 321.635 396.5 316.782 396.5 310.797Z" stroke="#AD2A26" stroke-width="1.33333" stroke-linejoin="round" stroke-miterlimit="10" fill="#AD2A26" fill-rule="evenodd"/><text fill="#FFFFFF" font-family="Monaco,Monaco_MSFontService,sans-serif" font-weight="400" font-size="27" transform="matrix(1 0 0 1.00042 412.263 270)">RM</text><path d="M0.00359944-0.666657 227.509 0.561696 227.502 1.89501-0.00359944 0.666657ZM219.87-4.05546 228.829 1.2355 219.814 6.42942C219.495 6.61322 219.087 6.50359 218.903 6.18456 218.72 5.86553 218.829 5.45791 219.148 5.27411L227.173 0.650701 227.167 1.80239 219.192-2.9074C218.875-3.09464 218.77-3.50342 218.957-3.82045 219.145-4.13748 219.553-4.2427 219.87-4.05546Z" transform="matrix(1 0 0 -1.00042 164.5 89.7731)"/><path d="M163.821 112.881 393.368 112.881 393.368 114.215 163.821 114.215ZM171.484 118.792 162.497 113.548 171.484 108.303C171.802 108.117 172.21 108.225 172.396 108.543 172.581 108.861 172.474 109.269 172.156 109.455L164.156 114.124 164.156 112.972 172.156 117.64C172.474 117.826 172.581 118.234 172.396 118.552 172.21 118.87 171.802 118.978 171.484 118.792Z"/><text fill="#595959" font-family="Monaco,Monaco_MSFontService,sans-serif" font-weight="400" font-size="18" transform="matrix(1 0 0 1.00042 192.448 75)">1.1.<tspan font-family="SimHei,SimHei_MSFontService,sans-serif" font-size="18" x="42.6667" y="0">准备（</tspan><tspan font-size="18" x="95.6667" y="0">prepare</tspan><tspan font-family="SimHei,SimHei_MSFontService,sans-serif" font-size="18" x="170.333" y="0">）</tspan><tspan font-size="18" x="1.52483" y="62.9736">1.2.</tspan><tspan font-family="SimHei,SimHei_MSFontService,sans-serif" font-size="18" x="44.1915" y="62.9736">就绪（</tspan>ready<tspan font-family="SimHei,SimHei_MSFontService,sans-serif" font-size="18" x="150.525" y="62.9736">）</tspan></text><path d="M0.00359944-0.666657 227.509 0.561696 227.502 1.89501-0.00359944 0.666657ZM219.87-4.05546 228.829 1.2355 219.814 6.42942C219.495 6.61322 219.087 6.50359 218.903 6.18456 218.72 5.86553 218.829 5.45791 219.148 5.27411L227.173 0.650701 227.167 1.80239 219.192-2.9074C218.875-3.09464 218.77-3.50342 218.957-3.82045 219.145-4.13748 219.553-4.2427 219.87-4.05546Z" transform="matrix(1 0 0 -1.00042 164.5 251.841)"/><path d="M163.821 274.949 393.368 274.949 393.368 276.283 163.821 276.282ZM171.484 280.86 162.497 275.615 171.484 270.371C171.802 270.185 172.21 270.293 172.396 270.611 172.581 270.929 172.474 271.337 172.156 271.523L164.156 276.192 164.156 275.039 172.156 279.708C172.474 279.894 172.581 280.302 172.396 280.62 172.21 280.938 171.802 281.046 171.484 280.86Z"/><text fill="#595959" font-family="Monaco,Monaco_MSFontService,sans-serif" font-weight="400" font-size="18" transform="matrix(1 0 0 1.00042 192.448 237)">1.1.<tspan font-family="SimHei,SimHei_MSFontService,sans-serif" font-size="18" x="42.6667" y="0">准备（</tspan><tspan font-size="18" x="95.6667" y="0">prepare</tspan><tspan font-family="SimHei,SimHei_MSFontService,sans-serif" font-size="18" x="170.333" y="0">）</tspan><tspan font-size="18" x="1.52483" y="62.9736">1.2.</tspan><tspan font-family="SimHei,SimHei_MSFontService,sans-serif" font-size="18" x="44.1915" y="62.9736">就绪（</tspan>ready<tspan font-family="SimHei,SimHei_MSFontService,sans-serif" font-size="18" x="150.525" y="62.9736">）</tspan></text><path d="M557 35.3179C557 24.6526 565.642 16.0067 576.303 16.0067L1020.7 16.0067C1031.36 16.0067 1040 24.6526 1040 35.3179L1040 366.851C1040 377.516 1031.36 386.162 1020.7 386.162L576.303 386.162C565.642 386.162 557 377.516 557 366.851Z" fill="#F2F2F2" fill-rule="evenodd"/><text fill="#4C5252" font-family="SimHei,SimHei_MSFontService,sans-serif" font-weight="400" font-size="27" transform="matrix(1 0 0 1.00042 745.358 370)">第二阶段</text><path d="M613.5 53.3559C613.5 48.4752 617.455 44.5187 622.334 44.5187L657.667 44.5187C662.545 44.5187 666.5 48.4752 666.5 53.3559L666.5 312.798C666.5 317.678 662.545 321.635 657.667 321.635L622.334 321.635C617.455 321.635 613.5 317.678 613.5 312.798Z" stroke="#AD2A26" stroke-width="3" stroke-linejoin="round" stroke-miterlimit="10" fill="#AD2A26" fill-rule="evenodd"/><text fill="#FFFFFF" font-family="SimHei,SimHei_MSFontService,sans-serif" font-weight="400" font-size="27" transform="matrix(1 0 0 1.00042 626.138 130)">事<tspan font-size="27" x="0" y="31.9866">务</tspan><tspan font-size="27" x="0" y="63.9732">协</tspan><tspan font-size="27" x="0" y="95.9598">调</tspan><tspan font-size="27" x="0" y="125.947">者</tspan></text><path d="M904.5 55.3568C904.5 49.3711 909.35 44.5187 915.334 44.5187L958.667 44.5187C964.65 44.5187 969.5 49.3711 969.5 55.3568L969.5 156.732C969.5 162.718 964.65 167.57 958.667 167.57L915.334 167.57C909.35 167.57 904.5 162.718 904.5 156.732Z" stroke="#AD2A26" stroke-width="1.33333" stroke-linejoin="round" stroke-miterlimit="10" fill="#AD2A26" fill-rule="evenodd"/><text fill="#FFFFFF" font-family="Monaco,Monaco_MSFontService,sans-serif" font-weight="400" font-size="27" transform="matrix(1 0 0 1.00042 920.832 116)">RM</text><path d="M902.5 209.421C902.5 203.436 907.35 198.583 913.334 198.583L956.667 198.583C962.65 198.583 967.5 203.436 967.5 209.421L967.5 310.797C967.5 316.782 962.65 321.635 956.667 321.635L913.334 321.635C907.35 321.635 902.5 316.782 902.5 310.797Z" stroke="#AD2A26" stroke-width="1.33333" stroke-linejoin="round" stroke-miterlimit="10" fill="#AD2A26" fill-rule="evenodd"/><text fill="#FFFFFF" font-family="Monaco,Monaco_MSFontService,sans-serif" font-weight="400" font-size="27" transform="matrix(1 0 0 1.00042 918.817 270)">RM</text><path d="M0.00359944-0.666657 227.509 0.561696 227.502 1.89501-0.00359944 0.666657ZM219.87-4.05546 228.829 1.2355 219.814 6.42942C219.495 6.61322 219.087 6.50359 218.903 6.18456 218.72 5.86553 218.829 5.45791 219.148 5.27411L227.173 0.650701 227.167 1.80239 219.192-2.9074C218.875-3.09464 218.77-3.50342 218.957-3.82045 219.145-4.13748 219.553-4.2427 219.87-4.05546Z" transform="matrix(1 0 0 -1.00042 671.5 89.7731)"/><path d="M670.821 112.881 900.368 112.881 900.368 114.215 670.821 114.215ZM678.484 118.792 669.497 113.548 678.484 108.303C678.802 108.117 679.21 108.225 679.396 108.543 679.581 108.861 679.474 109.269 679.156 109.455L671.156 114.124 671.156 112.972 679.156 117.64C679.474 117.826 679.581 118.234 679.396 118.552 679.21 118.87 678.802 118.978 678.484 118.792Z"/><text fill="#595959" font-family="Monaco,Monaco_MSFontService,sans-serif" font-weight="400" font-size="18" transform="matrix(1 0 0 1.00042 698.617 79)">1.1.<tspan font-family="SimHei,SimHei_MSFontService,sans-serif" font-size="18" x="42.6666" y="0">提交（</tspan>commit<tspan font-family="SimHei,SimHei_MSFontService,sans-serif" font-size="18" x="159.667" y="0">）</tspan><tspan font-size="18" x="-19.3293" y="58.9753">1.2.</tspan><tspan font-family="SimHei,SimHei_MSFontService,sans-serif" font-size="18" x="23.3373" y="58.9753">已提交（</tspan><tspan font-size="18" x="94.004" y="58.9753">committed</tspan><tspan font-family="SimHei,SimHei_MSFontService,sans-serif" font-size="18" x="190.004" y="58.9753">）</tspan></text><path d="M0.00359944-0.666657 227.509 0.561696 227.502 1.89501-0.00359944 0.666657ZM219.87-4.05546 228.829 1.2355 219.814 6.42942C219.495 6.61322 219.087 6.50359 218.903 6.18456 218.72 5.86553 218.829 5.45791 219.148 5.27411L227.173 0.650701 227.167 1.80239 219.192-2.9074C218.875-3.09464 218.77-3.50342 218.957-3.82045 219.145-4.13748 219.553-4.2427 219.87-4.05546Z" transform="matrix(1 0 0 -1.00042 676.5 247.839)"/><path d="M675.821 270.947 905.368 270.947 905.368 272.281 675.821 272.281ZM683.484 276.859 674.497 271.614 683.484 266.369C683.802 266.184 684.21 266.291 684.396 266.609 684.581 266.927 684.474 267.336 684.156 267.521L676.156 272.19 676.156 271.038 684.156 275.706C684.474 275.892 684.581 276.3 684.396 276.618 684.21 276.937 683.802 277.044 683.484 276.859Z"/><text fill="#595959" font-family="Monaco,Monaco_MSFontService,sans-serif" font-weight="400" font-size="18" transform="matrix(1 0 0 1.00042 703.721 237)">1.1.<tspan font-family="SimHei,SimHei_MSFontService,sans-serif" font-size="18" x="42.6667" y="0">提交（</tspan>commit<tspan font-family="SimHei,SimHei_MSFontService,sans-serif" font-size="18" x="159.667" y="0">）</tspan><tspan font-size="18" x="-19.329" y="58.9753">1.2.</tspan><tspan font-family="SimHei,SimHei_MSFontService,sans-serif" font-size="18" x="23.3376" y="58.9753">已提交（</tspan><tspan font-size="18" x="94.0043" y="58.9753">committed</tspan><tspan font-family="SimHei,SimHei_MSFontService,sans-serif" font-size="18" x="190.004" y="58.9753">）</tspan></text><path d="M50 431.536C50 420.842 58.6655 412.173 69.3549 412.173L513.645 412.173C524.334 412.173 533 420.842 533 431.536L533 763.965C533 774.659 524.334 783.328 513.645 783.328L69.3549 783.328C58.6655 783.328 50 774.659 50 763.965Z" fill="#F2F2F2" fill-rule="evenodd"/><text fill="#4C5252" font-family="SimHei,SimHei_MSFontService,sans-serif" font-weight="400" font-size="27" transform="matrix(1 0 0 1.00042 238.804 767)">第一阶段</text><path d="M106.5 450.689C106.5 445.716 110.53 441.685 115.5 441.685L151.5 441.685C156.471 441.685 160.5 445.716 160.5 450.689L160.5 709.797C160.5 714.77 156.471 718.801 151.5 718.801L115.5 718.801C110.53 718.801 106.5 714.77 106.5 709.797Z" stroke="#AD2A26" stroke-width="3" stroke-linejoin="round" stroke-miterlimit="10" fill="#AD2A26" fill-rule="evenodd"/><text fill="#FFFFFF" font-family="SimHei,SimHei_MSFontService,sans-serif" font-weight="400" font-size="27" transform="matrix(1 0 0 1.00042 119.584 527)">事<tspan font-size="27" x="0" y="31.9866">务</tspan><tspan font-size="27" x="0" y="63.9732">协</tspan><tspan font-size="27" x="0" y="95.9598">调</tspan><tspan font-size="27" x="0" y="125.947">者</tspan></text><path d="M398.5 452.523C398.5 446.537 403.35 441.685 409.334 441.685L452.667 441.685C458.65 441.685 463.5 446.537 463.5 452.523L463.5 553.898C463.5 559.884 458.65 564.737 452.667 564.737L409.334 564.737C403.35 564.737 398.5 559.884 398.5 553.898Z" stroke="#AD2A26" stroke-width="1.33333" stroke-linejoin="round" stroke-miterlimit="10" fill="#AD2A26" fill-rule="evenodd"/><text fill="#FFFFFF" font-family="Monaco,Monaco_MSFontService,sans-serif" font-weight="400" font-size="27" transform="matrix(1 0 0 1.00042 414.278 513)">RM</text><path d="M396.5 606.588C396.5 600.602 401.35 595.75 407.334 595.75L450.667 595.75C456.65 595.75 461.5 600.602 461.5 606.588L461.5 707.963C461.5 713.949 456.65 718.801 450.667 718.801L407.334 718.801C401.35 718.801 396.5 713.949 396.5 707.963Z" stroke="#AD2A26" stroke-width="1.33333" stroke-linejoin="round" stroke-miterlimit="10" fill="#AD2A26" fill-rule="evenodd"/><text fill="#FFFFFF" font-family="Monaco,Monaco_MSFontService,sans-serif" font-weight="400" font-size="27" transform="matrix(1 0 0 1.00042 412.263 667)">RM</text><path d="M0.00359944-0.666657 227.509 0.561696 227.502 1.89501-0.00359944 0.666657ZM219.87-4.05546 228.829 1.2355 219.814 6.42942C219.495 6.61322 219.087 6.50359 218.903 6.18456 218.72 5.86553 218.829 5.45791 219.148 5.27411L227.173 0.650701 227.167 1.80239 219.192-2.9074C218.875-3.09464 218.77-3.50342 218.957-3.82045 219.145-4.13748 219.553-4.2427 219.87-4.05546Z" transform="matrix(1 0 0 -1.00042 164.5 486.939)"/><path d="M163.821 509.047 393.368 509.047 393.368 510.381 163.821 510.38ZM171.484 514.958 162.497 509.714 171.484 504.469C171.802 504.283 172.21 504.391 172.396 504.709 172.581 505.027 172.474 505.435 172.156 505.621L164.156 510.29 164.156 509.137 172.156 513.806C172.474 513.992 172.581 514.4 172.396 514.718 172.21 515.036 171.802 515.144 171.484 514.958Z"/><text fill="#595959" font-family="Monaco,Monaco_MSFontService,sans-serif" font-weight="400" font-size="18" transform="matrix(1 0 0 1.00042 192.448 471)">1.1.<tspan font-family="SimHei,SimHei_MSFontService,sans-serif" font-size="18" x="42.6667" y="0">准备（</tspan><tspan font-size="18" x="95.6667" y="0">prepare</tspan><tspan font-family="SimHei,SimHei_MSFontService,sans-serif" font-size="18" x="170.333" y="0">）</tspan><tspan font-size="18" x="1.52483" y="63.9732">1.2.</tspan><tspan font-family="SimHei,SimHei_MSFontService,sans-serif" font-size="18" x="44.1915" y="63.9732">就绪（</tspan>ready<tspan font-family="SimHei,SimHei_MSFontService,sans-serif" font-size="18" x="150.525" y="63.9732">）</tspan></text><path d="M0.00359944-0.666657 227.509 0.561696 227.502 1.89501-0.00359944 0.666657ZM219.87-4.05546 228.829 1.2355 219.814 6.42942C219.495 6.61322 219.087 6.50359 218.903 6.18456 218.72 5.86553 218.829 5.45791 219.148 5.27411L227.173 0.650701 227.167 1.80239 219.192-2.9074C218.875-3.09464 218.77-3.50342 218.957-3.82045 219.145-4.13748 219.553-4.2427 219.87-4.05546Z" transform="matrix(1 0 0 -1.00042 164.5 649.007)"/><path d="M163.821 671.114 393.368 671.115 393.368 672.448 163.821 672.448ZM171.484 677.026 162.497 671.781 171.484 666.537C171.802 666.351 172.21 666.459 172.396 666.777 172.581 667.095 172.474 667.503 172.156 667.689L164.156 672.357 164.156 671.205 172.156 675.874C172.474 676.06 172.581 676.468 172.396 676.786 172.21 677.104 171.802 677.212 171.484 677.026Z" fill="#C00000"/><text fill="#595959" font-family="Monaco,Monaco_MSFontService,sans-serif" font-weight="400" font-size="18" transform="matrix(1 0 0 1.00042 192.448 634)">1.1.<tspan font-family="SimHei,SimHei_MSFontService,sans-serif" font-size="18" x="42.6667" y="0">准备（</tspan><tspan font-size="18" x="95.6667" y="0">prepare</tspan><tspan font-family="SimHei,SimHei_MSFontService,sans-serif" font-size="18" x="170.333" y="0">）</tspan><tspan fill="#C00000" font-size="18" x="10.2319" y="62.9736">1.2.</tspan><tspan fill="#C00000" font-family="SimHei,SimHei_MSFontService,sans-serif" font-size="18" x="52.8986" y="62.9736">失败（</tspan><tspan fill="#C00000" font-size="18" x="105.899" y="62.9736">fail</tspan><tspan fill="#C00000" font-family="SimHei,SimHei_MSFontService,sans-serif" font-size="18" x="148.565" y="62.9736">）</tspan></text><path d="M557 431.536C557 420.842 565.665 412.173 576.355 412.173L1020.65 412.173C1031.33 412.173 1040 420.842 1040 431.536L1040 763.965C1040 774.659 1031.33 783.328 1020.65 783.328L576.355 783.328C565.665 783.328 557 774.659 557 763.965Z" fill="#F2F2F2" fill-rule="evenodd"/><text fill="#4C5252" font-family="SimHei,SimHei_MSFontService,sans-serif" font-weight="400" font-size="27" transform="matrix(1 0 0 1.00042 745.358 767)">第二阶段</text><path d="M613.5 450.522C613.5 445.642 617.455 441.685 622.334 441.685L657.667 441.685C662.545 441.685 666.5 445.642 666.5 450.522L666.5 709.964C666.5 714.844 662.545 718.801 657.667 718.801L622.334 718.801C617.455 718.801 613.5 714.844 613.5 709.964Z" stroke="#AD2A26" stroke-width="3" stroke-linejoin="round" stroke-miterlimit="10" fill="#AD2A26" fill-rule="evenodd"/><text fill="#FFFFFF" font-family="SimHei,SimHei_MSFontService,sans-serif" font-weight="400" font-size="27" transform="matrix(1 0 0 1.00042 626.138 527)">事<tspan font-size="27" x="0" y="31.9866">务</tspan><tspan font-size="27" x="0" y="63.9732">协</tspan><tspan font-size="27" x="0" y="95.9598">调</tspan><tspan font-size="27" x="0" y="125.947">者</tspan></text><path d="M904.5 452.523C904.5 446.537 909.35 441.685 915.334 441.685L958.667 441.685C964.65 441.685 969.5 446.537 969.5 452.523L969.5 553.898C969.5 559.884 964.65 564.737 958.667 564.737L915.334 564.737C909.35 564.737 904.5 559.884 904.5 553.898Z" stroke="#AD2A26" stroke-width="1.33333" stroke-linejoin="round" stroke-miterlimit="10" fill="#AD2A26" fill-rule="evenodd"/><text fill="#FFFFFF" font-family="Monaco,Monaco_MSFontService,sans-serif" font-weight="400" font-size="27" transform="matrix(1 0 0 1.00042 920.832 513)">RM</text><path d="M902.5 606.588C902.5 600.602 907.35 595.75 913.334 595.75L956.667 595.75C962.65 595.75 967.5 600.602 967.5 606.588L967.5 707.963C967.5 713.949 962.65 718.801 956.667 718.801L913.334 718.801C907.35 718.801 902.5 713.949 902.5 707.963Z" stroke="#AD2A26" stroke-width="1.33333" stroke-linejoin="round" stroke-miterlimit="10" fill="#AD2A26" fill-rule="evenodd"/><text fill="#FFFFFF" font-family="Monaco,Monaco_MSFontService,sans-serif" font-weight="400" font-size="27" transform="matrix(1 0 0 1.00042 918.817 667)">RM</text><path d="M0.00359944-0.666657 227.509 0.561696 227.502 1.89501-0.00359944 0.666657ZM219.87-4.05546 228.829 1.2355 219.814 6.42942C219.495 6.61322 219.087 6.50359 218.903 6.18456 218.72 5.86553 218.829 5.45791 219.148 5.27411L227.173 0.650701 227.167 1.80239 219.192-2.9074C218.875-3.09464 218.77-3.50342 218.957-3.82045 219.145-4.13748 219.553-4.2427 219.87-4.05546Z" transform="matrix(1 0 0 -1.00042 671.5 486.939)"/><path d="M670.821 509.047 900.368 509.047 900.368 510.381 670.821 510.38ZM678.484 514.958 669.497 509.714 678.484 504.469C678.802 504.283 679.21 504.391 679.396 504.709 679.581 505.027 679.474 505.435 679.156 505.621L671.156 510.29 671.156 509.137 679.156 513.806C679.474 513.992 679.581 514.4 679.396 514.718 679.21 515.036 678.802 515.144 678.484 514.958Z"/><text fill="#595959" font-family="Monaco,Monaco_MSFontService,sans-serif" font-weight="400" font-size="18" transform="matrix(1 0 0 1.00042 698.617 476)">2.1.<tspan font-family="SimHei,SimHei_MSFontService,sans-serif" font-size="18" x="42.6667" y="0">回滚（</tspan>fallback<tspan font-family="SimHei,SimHei_MSFontService,sans-serif" font-size="18" x="181" y="0">）</tspan><tspan font-size="18" x="45.7435" y="56.9761">2.2.</tspan><tspan font-family="SimHei,SimHei_MSFontService,sans-serif" font-size="18" x="88.4102" y="56.9761">已回滚</tspan></text></g></svg>