<svg width="978" height="607" xmlns="http://www.w3.org/2000/svg" xmlns:xlink="http://www.w3.org/1999/xlink" overflow="hidden"><defs><filter id="fx0" x="-10%" y="-10%" width="120%" height="120%" filterUnits="userSpaceOnUse" primitiveUnits="userSpaceOnUse"><feComponentTransfer color-interpolation-filters="sRGB"><feFuncR type="discrete" tableValues="0 0"/><feFuncG type="discrete" tableValues="0 0"/><feFuncB type="discrete" tableValues="0 0"/><feFuncA type="linear" slope="0.34902" intercept="0"/></feComponentTransfer><feGaussianBlur stdDeviation="1.4003 1.40059"/></filter><filter id="fx1" x="-10%" y="-10%" width="120%" height="120%" filterUnits="userSpaceOnUse" primitiveUnits="userSpaceOnUse"><feComponentTransfer color-interpolation-filters="sRGB"><feFuncR type="discrete" tableValues="0 0"/><feFuncG type="discrete" tableValues="0 0"/><feFuncB type="discrete" tableValues="0 0"/><feFuncA type="linear" slope="0.34902" intercept="0"/></feComponentTransfer><feGaussianBlur stdDeviation="1.4003 1.40059"/></filter><filter id="fx2" x="-10%" y="-10%" width="120%" height="120%" filterUnits="userSpaceOnUse" primitiveUnits="userSpaceOnUse"><feComponentTransfer color-interpolation-filters="sRGB"><feFuncR type="discrete" tableValues="0 0"/><feFuncG type="discrete" tableValues="0 0"/><feFuncB type="discrete" tableValues="0 0"/><feFuncA type="linear" slope="0.4" intercept="0"/></feComponentTransfer><feGaussianBlur stdDeviation="1.77838 1.77875"/></filter><filter id="fx3" x="-10%" y="-10%" width="120%" height="120%" filterUnits="userSpaceOnUse" primitiveUnits="userSpaceOnUse"><feComponentTransfer color-interpolation-filters="sRGB"><feFuncR type="discrete" tableValues="0 0"/><feFuncG type="discrete" tableValues="0 0"/><feFuncB type="discrete" tableValues="0 0"/><feFuncA type="linear" slope="0.4" intercept="0"/></feComponentTransfer><feGaussianBlur stdDeviation="1.77838 1.77875"/></filter><clipPath id="clip4"><rect x="0" y="0" width="978" height="607"/></clipPath><clipPath id="clip5"><path d="M109 55.5115C102.096 55.5115 96.5 61.1091 96.5 68.0142L96.5 551.115C96.5 558.02 102.096 563.617 109 563.617L159 563.617C165.904 563.617 171.5 558.02 171.5 551.115L171.5 68.0142C171.5 61.1091 165.904 55.5115 159 55.5115ZM1.45733e-05 9.045e-06 978 9.045e-06 978 607 1.45733e-05 607Z" fill-rule="evenodd" clip-rule="evenodd"/></clipPath><clipPath id="clip6"><rect x="-1" y="1" width="89" height="521"/></clipPath><clipPath id="clip7"><rect x="0" y="0" width="88" height="522"/></clipPath><linearGradient x1="134" y1="55.5115" x2="134" y2="563.617" gradientUnits="userSpaceOnUse" spreadMethod="reflect" id="fill8"><stop offset="0" stop-color="#DB4642"/><stop offset="0.7" stop-color="#AD2A26"/><stop offset="1" stop-color="#AD2A26"/></linearGradient><clipPath id="clip9"><path d="M574.167 54.5114C567.171 54.5114 561.5 60.1839 561.5 67.1812L561.5 550.948C561.5 557.945 567.171 563.617 574.167 563.617L624.833 563.617C631.829 563.617 637.5 557.945 637.5 550.948L637.5 67.1812C637.5 60.1839 631.829 54.5114 624.833 54.5114ZM1.45733e-05 9.045e-06 978 9.045e-06 978 607 1.45733e-05 607Z" fill-rule="evenodd" clip-rule="evenodd"/></clipPath><clipPath id="clip10"><rect x="1" y="1" width="89" height="521"/></clipPath><clipPath id="clip11"><rect x="0" y="0" width="89" height="523"/></clipPath><linearGradient x1="599.5" y1="54.5114" x2="599.5" y2="563.617" gradientUnits="userSpaceOnUse" spreadMethod="reflect" id="fill12"><stop offset="0" stop-color="#DB4642"/><stop offset="0.7" stop-color="#AD2A26"/><stop offset="1" stop-color="#AD2A26"/></linearGradient><clipPath id="clip13"><rect x="-2" y="-2" width="48" height="211"/></clipPath><clipPath id="clip14"><rect x="0" y="0" width="46" height="209"/></clipPath><clipPath id="clip15"><rect x="7" y="9" width="33" height="111"/></clipPath><clipPath id="clip16"><rect x="0" y="0" width="44" height="129"/></clipPath></defs><g clip-path="url(#clip4)"><rect x="0" y="0" width="978" height="607.126" fill="#FFFFFF"/><path d="M31 435.809C31 428.784 36.6941 423.088 43.7182 423.088L934.282 423.088C941.306 423.088 947 428.784 947 435.809L947 535.393C947 542.419 941.306 548.114 934.282 548.114L43.7182 548.114C36.6941 548.114 31 542.419 31 535.393Z" fill="#EBF1DE" fill-rule="evenodd"/><text fill="#AD2A26" font-family="SimHei,SimHei_MSFontService,sans-serif" font-weight="400" font-size="21" transform="matrix(1 0 0 1.00021 44.5563 455)">第<tspan font-size="21" x="0" y="24.9948">三</tspan><tspan font-size="21" x="0" y="50.9894">阶</tspan><tspan font-size="21" x="0" y="76.9839">段</tspan></text><path d="M31 250.981C31 241.077 39.0267 233.049 48.9283 233.049L929.072 233.049C938.973 233.049 947 241.077 947 250.981L947 393.154C947 403.057 938.973 411.086 929.072 411.086L48.9283 411.086C39.0267 411.086 31 403.057 31 393.154Z" fill="#DCE6F2" fill-rule="evenodd"/><text fill="#AD2A26" font-family="SimHei,SimHei_MSFontService,sans-serif" font-weight="400" font-size="21" transform="matrix(1 0 0 1.00021 46.1185 292)">第<tspan font-size="21" x="0" y="24.9948">二</tspan><tspan font-size="21" x="0" y="50.9894">阶</tspan><tspan font-size="21" x="0" y="76.9839">段</tspan></text><path d="M31 83.13C31 75.3342 37.3184 69.0144 45.1126 69.0144L932.887 69.0144C940.681 69.0144 947 75.3342 947 83.13L947 209.931C947 217.727 940.681 224.047 932.887 224.047L45.1126 224.047C37.3184 224.047 31 217.727 31 209.931Z" fill="#F2F2F2" fill-rule="evenodd"/><text fill="#AD2A26" font-family="SimHei,SimHei_MSFontService,sans-serif" font-weight="400" font-size="21" transform="matrix(1 0 0 1.00021 44.9863 117)">第<tspan font-size="21" x="0" y="24.9948">一</tspan><tspan font-size="21" x="0" y="50.9894">阶</tspan><tspan font-size="21" x="0" y="76.9839">段</tspan></text><g clip-path="url(#clip5)"><g clip-path="url(#clip6)" filter="url(#fx0)" transform="translate(90 51)"><g clip-path="url(#clip7)"><path d="M6.49998 19.4302C6.49998 12.5252 12.0964 6.92756 19 6.92756L69 6.92756C75.9036 6.92756 81.5 12.5252 81.5 19.4302L81.5 502.531C81.5 509.436 75.9036 515.033 69 515.033L19 515.033C12.0964 515.033 6.49998 509.436 6.49998 502.531Z" stroke="#BE4B48" stroke-linejoin="round" stroke-miterlimit="10" fill="#FF0000" fill-rule="evenodd"/></g></g></g><path d="M96.5 68.0141C96.5 61.1091 102.096 55.5115 109 55.5115L159 55.5115C165.904 55.5115 171.5 61.1091 171.5 68.0141L171.5 551.115C171.5 558.02 165.904 563.617 159 563.617L109 563.617C102.096 563.617 96.5 558.02 96.5 551.115Z" stroke="#BE4B48" stroke-width="1.00034" stroke-linejoin="round" stroke-miterlimit="10" fill="url(#fill8)" fill-rule="evenodd"/><g clip-path="url(#clip9)"><g clip-path="url(#clip10)" filter="url(#fx1)" transform="translate(555 50)"><g clip-path="url(#clip11)"><path d="M6.50006 19.5972C6.50006 12.5999 12.1713 6.92743 19.1672 6.92743L69.8329 6.92743C76.8288 6.92743 82.5 12.5999 82.5 19.5972L82.5 503.364C82.5 510.361 76.8288 516.034 69.8329 516.034L19.1672 516.034C12.1713 516.034 6.50006 510.361 6.50006 503.364Z" stroke="#BE4B48" stroke-linejoin="round" stroke-miterlimit="10" fill="#FF0000" fill-rule="evenodd"/></g></g></g><path d="M561.5 67.1812C561.5 60.1838 567.171 54.5114 574.167 54.5114L624.833 54.5114C631.829 54.5114 637.5 60.1838 637.5 67.1812L637.5 550.948C637.5 557.945 631.829 563.617 624.833 563.617L574.167 563.617C567.171 563.617 561.5 557.945 561.5 550.948Z" stroke="#BE4B48" stroke-width="1.00034" stroke-linejoin="round" stroke-miterlimit="10" fill="url(#fill12)" fill-rule="evenodd"/><text fill="#595959" font-family="Monaco,Monaco_MSFontService,sans-serif" font-weight="400" font-size="19" transform="matrix(1 0 0 1.00021 106.216 45)">master<tspan font-size="19" x="461.895" y="-0.999792">slave</tspan></text><path d="M3.64203e-07-1.33379 377.947-1.33368 377.947 1.33389-3.64203e-07 1.33379ZM376.613-4.00126 384.616 0.000105023 376.613 4.00147Z" fill="#3B3838" transform="matrix(-1 0 0 1.00021 557.116 108.523)"/><text fill="#595959" font-family="Monaco,Monaco_MSFontService,sans-serif" font-weight="400" font-size="16" transform="matrix(1 0 0 1.00021 205.28 99)">1.1.<tspan font-family="SimHei,SimHei_MSFontService,sans-serif" font-size="16" x="38.6799" y="0">请求数据同步（</tspan><tspan font-size="16" x="150.718" y="0">psync</tspan><tspan font-size="16" x="208.738" y="0">replid</tspan><tspan font-size="16" x="276.428" y="0">offset</tspan><tspan font-family="SimHei,SimHei_MSFontService,sans-serif" font-size="16" x="334.447" y="0">）</tspan></text><path d="M172 168.785 177.25 162.849 177.25 165.475C185.607 163.259 191.793 156.017 192.844 147.218 194.127 157.963 187.456 168.02 177.25 170.726L177.25 173.351Z" fill="#48504F" fill-rule="evenodd"/><path d="M193 149.844C193 137.933 183.598 128.277 172 128.277L172 123.026C183.598 123.026 193 132.682 193 144.593Z" fill="#3A4040" fill-rule="evenodd"/><text fill="#595959" font-family="Monaco,Monaco_MSFontService,sans-serif" font-weight="400" font-size="16" transform="matrix(1 0 0 1.00021 205.28 152)">1.2.<tspan font-family="SimHei,SimHei_MSFontService,sans-serif" font-size="16" x="38.6799" y="0">判断是否是第一次同步（</tspan><tspan font-size="16" x="214.74" y="0">replid</tspan><tspan font-family="SimHei,SimHei_MSFontService,sans-serif" font-size="16" x="282.43" y="0">是否一致）</tspan></text><path d="M172.5 200.208 550.447 200.208 550.447 202.876 172.5 202.876ZM549.113 197.54 557.115 201.542 549.113 205.544Z" fill="#3B3838"/><text fill="#595959" font-family="Monaco,Monaco_MSFontService,sans-serif" font-weight="400" font-size="16" transform="matrix(1 0 0 1.00021 205.28 193)">1.3.<tspan font-family="SimHei,SimHei_MSFontService,sans-serif" font-size="16" x="38.6799" y="0">是第一次，返回</tspan><tspan font-size="16" x="160.388" y="0">master </tspan><tspan font-family="SimHei,SimHei_MSFontService,sans-serif" font-size="16" x="228.078" y="0">的数据版本信息</tspan></text><path d="M173 286.81 178.25 280.858 178.25 283.484C186.628 281.21 192.821 273.77 193.851 264.743 195.102 275.717 188.434 285.971 178.25 288.735L178.25 291.36Z" fill="#48504F" fill-rule="evenodd"/><path d="M194 267.368C194 255.181 184.598 245.301 173 245.301L173 240.05C184.598 240.05 194 249.93 194 262.117Z" fill="#3A4040" fill-rule="evenodd"/><text fill="#595959" font-family="Monaco,Monaco_MSFontService,sans-serif" font-weight="400" font-size="16" transform="matrix(1 0 0 1.00021 205.28 269)">2.1.<tspan font-family="SimHei,SimHei_MSFontService,sans-serif" font-size="16" x="38.6799" y="0">执行</tspan><tspan font-size="16" x="80.3607" y="0">bgsave</tspan><tspan font-family="SimHei,SimHei_MSFontService,sans-serif" font-size="16" x="138.381" y="0">，生成</tspan><tspan font-size="16" x="196.067" y="0">RDB</tspan></text><path d="M171.5 385.247 549.447 385.247 549.447 387.915 171.5 387.915ZM548.113 382.578 556.116 386.581 548.113 390.583Z" fill="#3B3838"/><text fill="#595959" font-family="Monaco,Monaco_MSFontService,sans-serif" font-weight="400" font-size="16" transform="matrix(1 0 0 1.00021 205.28 378)">2.2.<tspan font-family="SimHei,SimHei_MSFontService,sans-serif" font-size="16" x="38.6799" y="0">发送</tspan><tspan font-size="16" x="80.3607" y="0">RDB </tspan><tspan font-family="SimHei,SimHei_MSFontService,sans-serif" font-size="16" x="119.041" y="0">文件</tspan><tspan font-size="16" x="438.968" y="-265.945">1.0.</tspan><tspan font-family="SimHei,SimHei_MSFontService,sans-serif" font-size="16" x="477.648" y="-265.945">执行</tspan><tspan font-size="16" x="519.329" y="-265.945">replicaof</tspan><tspan font-family="SimHei,SimHei_MSFontService,sans-serif" font-size="16" x="616.028" y="-265.945">命令，建立连接</tspan><tspan font-size="16" x="461.376" y="-187.961">1.4.</tspan><tspan font-family="SimHei,SimHei_MSFontService,sans-serif" font-size="16" x="500.056" y="-187.961">保存版本信息</tspan><tspan font-size="16" x="461.376" y="-42.991">2.3.</tspan><tspan font-family="SimHei,SimHei_MSFontService,sans-serif" font-size="16" x="500.056" y="-42.991">清空本地数据，加载</tspan><tspan font-size="16" x="653.775" y="-42.991">RDB </tspan><tspan font-family="SimHei,SimHei_MSFontService,sans-serif" font-size="16" x="692.455" y="-42.991">文件</tspan></text><path d="M637 349.823 642.25 343.871 642.25 346.497C650.628 344.224 656.821 336.784 657.851 327.756 659.102 338.73 652.434 348.985 642.25 351.748L642.25 354.373Z" fill="#48504F" fill-rule="evenodd"/><path d="M658 330.381C658 318.194 648.598 308.314 637 308.314L637 303.063C648.598 303.063 658 312.943 658 325.13Z" fill="#3A4040" fill-rule="evenodd"/><path d="M637 206.793 642.25 200.841 642.25 203.467C650.628 201.194 656.821 193.754 657.851 184.726 659.102 195.7 652.434 205.955 642.25 208.718L642.25 211.344Z" fill="#48504F" fill-rule="evenodd"/><path d="M658 187.352C658 175.164 648.598 165.284 637 165.284L637 160.033C648.598 160.033 658 169.913 658 182.101Z" fill="#3A4040" fill-rule="evenodd"/><g clip-path="url(#clip13)" filter="url(#fx2)" transform="translate(113 319)"><g clip-path="url(#clip14)"><path d="M33.4959 6.89725C36.4415 6.89725 38.8294 9.28563 38.8294 12.2319L38.8294 196.603C38.8294 199.55 36.4415 201.938 33.4959 201.938L12.1629 201.938C9.21727 201.938 6.82937 199.55 6.82937 196.603L6.82937 12.2319C6.82937 9.28563 9.21727 6.89725 12.1629 6.89725Z" fill="#F2DCDB" fill-rule="evenodd"/></g></g><g clip-path="url(#clip15)" filter="url(#fx3)" transform="translate(113 359)"><g clip-path="url(#clip16)"><path d="M1.83105 0 1.83105-8.18115 3.19336-8.18115 3.19336-6.39404C4.03809-7.73682 5.13672-8.4082 6.48926-8.4082 6.98242-8.4082 7.47559-8.33252 7.96875-8.18115L7.96875-5.22949 6.65771-5.22949 6.65771-7.09717C6.42822-7.13623 6.24756-7.15576 6.11572-7.15576 5.09521-7.15576 4.12109-6.35498 3.19336-4.75342L3.19336 0ZM16.7758-0.541992C15.6869-0.0244141 14.6567 0.234375 13.685 0.234375 12.1615 0.234375 11.0385-0.473633 10.3158-1.88965 9.96427-2.56836 9.78849-3.2959 9.78849-4.07227 9.78849-4.81934 9.94963-5.52734 10.2719-6.19629 10.6088-6.89941 11.0763-7.44385 11.6745-7.82959 12.2726-8.21533 12.9379-8.4082 13.6703-8.4082 14.8129-8.4082 15.6601-7.96631 16.2118-7.08252 16.6659-6.35498 16.893-5.38086 16.893-4.16016L16.893-3.86719 11.2533-3.86719C11.2533-3.33984 11.3583-2.84912 11.5683-2.39502 11.7978-1.89209 12.1225-1.51367 12.5424-1.25977 12.9281-1.02539 13.3676-0.908203 13.8608-0.908203 14.7397-0.908203 15.7113-1.20117 16.7758-1.78711ZM11.3339-4.88525 15.4135-4.88525 15.4135-5.08244C15.4135-5.69576 15.2694-6.19957 14.9814-6.59386 14.6591-7.0417 14.2026-7.26562 13.6117-7.26562 12.4203-7.26562 11.6611-6.47217 11.3339-4.88525ZM20.0677-6.34277C20.4193-6.90918 20.8563-7.38281 21.3787-7.76367 21.9744-8.19336 22.5726-8.4082 23.1732-8.4082 24.0618-8.4082 24.7479-8.01514 25.2313-7.229 25.6366-6.56982 25.8392-5.77148 25.8392-4.83398 25.8392-3.96484 25.6781-3.16406 25.3558-2.43164 25.0091-1.63574 24.5037-1.00342 23.8397-0.534668 23.2342-0.100098 22.4847 0.117187 21.5911 0.117188 21.3226 0.117187 20.932 0.090332 20.4193 0.0366211 20.3558 0.0317383 20.2386 0.0195312 20.0677 0L20.0677 3.17871 18.7054 3.17871 18.7054-8.18115 20.0677-8.18115ZM20.0677-4.72412 20.0677-1.21582C20.5609-1.08887 21.015-1.02539 21.43-1.02539 22.3724-1.02539 23.1121-1.40625 23.6493-2.16797 24.1229-2.8418 24.3597-3.66943 24.3597-4.65088 24.3597-5.24658 24.2572-5.76904 24.0521-6.21826 23.7786-6.80908 23.3783-7.10449 22.8509-7.10449 22.3382-7.10449 21.7938-6.81885 21.2176-6.24756 20.783-5.81787 20.3997-5.31006 20.0677-4.72412ZM29.8489 0 29.8489-10.6787 27.4026-10.6787 27.4026-11.8213 31.2112-11.8213 31.2112-1.14258 33.7673-1.14258 33.7673 0ZM35.8654 1.13525 35.8654 0 43.8195 0 43.8195 1.13525ZM46.5767-6.34277C46.9283-6.90918 47.3653-7.38281 47.8878-7.76367 48.4835-8.19336 49.0816-8.4082 49.6822-8.4082 50.5709-8.4082 51.2569-8.01514 51.7403-7.229 52.1456-6.56982 52.3482-5.77148 52.3482-4.83398 52.3482-3.96484 52.1871-3.16406 51.8648-2.43164 51.5181-1.63574 51.0128-1.00342 50.3487-0.534668 49.7432-0.100098 48.9937 0.117187 48.1002 0.117188 47.8316 0.117187 47.441 0.090332 46.9283 0.0366211 46.8648 0.0317383 46.7476 0.0195312 46.5767 0L45.2144 0 45.2144-11.8213 46.5767-11.8213ZM46.5767-4.72412 46.5767-1.21582C47.0699-1.08887 47.524-1.02539 47.939-1.02539 48.8814-1.02539 49.6212-1.40625 50.1583-2.16797 50.6319-2.8418 50.8687-3.66943 50.8687-4.65088 50.8687-5.24658 50.7662-5.76904 50.5611-6.21826 50.2877-6.80908 49.8873-7.10449 49.3599-7.10449 48.8472-7.10449 48.3028-6.81885 47.7266-6.24756 47.2921-5.81787 46.9088-5.31006 46.5767-4.72412ZM59.5366-1.83838C59.1899-1.27197 58.7529-0.79834 58.2256-0.41748 57.6299 0.012207 57.0317 0.227051 56.4312 0.227051 55.5474 0.227051 54.8638-0.166016 54.3804-0.952148 53.9751-1.61133 53.7725-2.40967 53.7725-3.34717 53.7725-5.26611 54.4365-6.70166 55.7647-7.65381 56.3701-8.0835 57.1196-8.29834 58.0132-8.29834 58.2866-8.29834 58.6772-8.27148 59.1851-8.21777 59.2485-8.21289 59.3657-8.20068 59.5366-8.18115L60.9063-8.18115 60.9063-2.40234C60.9063-1.41602 61.0088-0.615234 61.2139 0L59.793 0C59.6856-0.449219 59.6001-1.06201 59.5366-1.83838ZM59.5366-3.45703 59.5366-6.96533C59.0532-7.09228 58.604-7.15576 58.189-7.15576 57.2417-7.15576 56.4995-6.77734 55.9624-6.02051 55.4888-5.34668 55.252-4.5166 55.252-3.53027 55.252-2.93945 55.3545-2.41699 55.5596-1.96289 55.8281-1.37207 56.2261-1.07666 56.7534-1.07666 57.2661-1.07666 57.813-1.3623 58.394-1.93359 58.8286-2.36328 59.2095-2.87109 59.5366-3.45703ZM63.3559 0 63.3559-11.8213 64.7182-11.8213 64.7182-4.39579 68.6531-8.18115 70.4677-8.18115 66.544-4.39636 70.5721 0 68.6952 0 64.7182-4.39453 64.7182 0ZM74.0306 0 74.0306-10.6787 71.5843-10.6787 71.5843-11.8213 75.3929-11.8213 75.3929-1.14258 77.9491-1.14258 77.9491 0ZM84.0315 0.227051C82.8303 0.227051 81.8733-0.200195 81.1604-1.05469 80.4963-1.85547 80.1643-2.86865 80.1643-4.09424 80.1643-5.31982 80.4988-6.33057 81.1677-7.12646 81.8757-7.98096 82.8303-8.4082 84.0315-8.4082 85.2278-8.4082 86.1824-7.98096 86.8953-7.12646 87.5593-6.32568 87.8914-5.31494 87.8914-4.09424 87.8914-2.87354 87.5593-1.86035 86.8953-1.05469 86.1824-0.200195 85.2278 0.227051 84.0315 0.227051ZM84.0315-0.915527C84.8518-0.915527 85.4719-1.25652 85.8918-1.93851 86.2385-2.50362 86.4119-3.2222 86.4119-4.09424 86.4119-4.9614 86.2361-5.67753 85.8845-6.24264 85.4646-6.92463 84.8469-7.26562 84.0315-7.26562 83.2112-7.26562 82.5911-6.92703 82.1711-6.24985 81.8196-5.68481 81.6438-4.96628 81.6438-4.09424 81.6438-3.2222 81.8196-2.50362 82.1711-1.93851 82.5911-1.25652 83.2112-0.915527 84.0315-0.915527ZM94.9699-1.83838C94.6232-1.27197 94.1862-0.79834 93.6589-0.41748 93.0631 0.012207 92.465 0.227051 91.8644 0.227051 90.9806 0.227051 90.297-0.166016 89.8136-0.952148 89.4084-1.61133 89.2057-2.40967 89.2057-3.34717 89.2057-5.26611 89.8698-6.70166 91.1979-7.65381 91.8034-8.0835 92.5529-8.29834 93.4464-8.29834 93.7199-8.29834 94.1105-8.27148 94.6183-8.21777 94.6818-8.21289 94.799-8.20068 94.9699-8.18115L96.3395-8.18115 96.3395-2.39502C96.3395-1.32568 96.3371-0.74707 96.3322-0.65918 96.3078-1.49012e-08 96.2321 0.571289 96.1051 1.05469 95.8952 1.85059 95.3947 2.45605 94.6037 2.87109 93.9298 3.22754 93.1437 3.40576 92.2453 3.40576 91.2541 3.40576 90.2506 3.15186 89.235 2.64404L89.235 1.26709C90.2116 1.93115 91.2321 2.26318 92.2965 2.26318 93.2096 2.26318 93.903 2.00729 94.3766 1.49551 94.7721 1.06659 94.9699 0.340347 94.9699-0.683212ZM94.9699-3.45703 94.9699-6.96533C94.4865-7.09228 94.0373-7.15576 93.6222-7.15576 92.675-7.15576 91.9328-6.77734 91.3957-6.02051 90.922-5.34668 90.6852-4.5166 90.6852-3.53027 90.6852-2.93945 90.7878-2.41699 90.9928-1.96289 91.2614-1.37207 91.6593-1.07666 92.1867-1.07666 92.6994-1.07666 93.2463-1.3623 93.8273-1.93359 94.2619-2.36328 94.6427-2.87109 94.9699-3.45703Z" fill="#555555" transform="matrix(6.12323e-17 1.00042 -0.999792 6.12451e-17 18.6039 16)"/></g></g><path d="M143.666 323.067C146.612 323.067 149 325.456 149 328.402L149 512.773C149 515.72 146.612 518.108 143.666 518.108L122.333 518.108C119.388 518.108 117 515.72 117 512.773L117 328.402C117 325.456 119.388 323.067 122.333 323.067Z" fill="#F2DCDB" fill-rule="evenodd"/><text fill="#555555" font-family="Monaco,Monaco_MSFontService,sans-serif" font-weight="400" font-size="15" transform="matrix(6.12323e-17 1.00042 -0.999792 6.12451e-17 128.775 372)">repl_baklog</text><text fill="#595959" font-family="Monaco,Monaco_MSFontService,sans-serif" font-weight="400" font-size="16" transform="matrix(1 0 0 1.00021 205.28 326)">2.1.1.<tspan font-family="SimHei,SimHei_MSFontService,sans-serif" font-size="16" x="58.0198" y="0">记录</tspan><tspan font-size="16" x="99.7006" y="0">RDB </tspan><tspan font-family="SimHei,SimHei_MSFontService,sans-serif" font-size="16" x="138.381" y="0">期间的所有命令</tspan></text><path d="M171.5 492.269 549.447 492.269 549.447 494.937 171.5 494.937ZM548.113 489.601 556.116 493.603 548.113 497.605Z" fill="#3B3838"/><text fill="#595959" font-family="Monaco,Monaco_MSFontService,sans-serif" font-weight="400" font-size="16" transform="matrix(1 0 0 1.00021 205.28 484)">3.1.<tspan font-family="SimHei,SimHei_MSFontService,sans-serif" font-size="16" x="38.6799" y="0">发送</tspan><tspan font-size="16" x="80.3607" y="0">repl_baklog</tspan><tspan font-family="SimHei,SimHei_MSFontService,sans-serif" font-size="16" x="196.4" y="0">中的命令</tspan><tspan font-size="16" x="461.376" y="13.9971">3.2.</tspan><tspan font-family="SimHei,SimHei_MSFontService,sans-serif" font-size="16" x="500.056" y="13.9971">执行接收到的命令</tspan></text><path d="M636 513.857 641.25 507.921 641.25 510.547C649.607 508.331 655.793 501.089 656.844 492.29 658.127 503.035 651.456 513.091 641.25 515.798L641.25 518.423Z" fill="#48504F" fill-rule="evenodd"/><path d="M657 494.916C657 483.005 647.598 473.349 636 473.349L636 468.098C647.598 468.098 657 477.753 657 489.665Z" fill="#3A4040" fill-rule="evenodd"/><path d="M173 340.821 178.25 334.869 178.25 337.495C186.628 335.222 192.821 327.782 193.851 318.754 195.102 329.728 188.434 339.983 178.25 342.746L178.25 345.371Z" fill="#48504F" fill-rule="evenodd"/><path d="M194 321.38C194 309.192 184.598 299.312 173 299.312L173 294.061C184.598 294.061 194 303.941 194 316.128Z" fill="#3A4040" fill-rule="evenodd"/></g></svg>