<svg width="1015" height="607" xmlns="http://www.w3.org/2000/svg" xmlns:xlink="http://www.w3.org/1999/xlink" overflow="hidden"><defs><filter id="fx0" x="-10%" y="-10%" width="120%" height="120%" filterUnits="userSpaceOnUse" primitiveUnits="userSpaceOnUse"><feComponentTransfer color-interpolation-filters="sRGB"><feFuncR type="discrete" tableValues="0 0"/><feFuncG type="discrete" tableValues="0 0"/><feFuncB type="discrete" tableValues="0 0"/><feFuncA type="linear" slope="0.34902" intercept="0"/></feComponentTransfer><feGaussianBlur stdDeviation="1.39937 1.40059"/></filter><filter id="fx1" x="-10%" y="-10%" width="120%" height="120%" filterUnits="userSpaceOnUse" primitiveUnits="userSpaceOnUse"><feComponentTransfer color-interpolation-filters="sRGB"><feFuncR type="discrete" tableValues="0 0"/><feFuncG type="discrete" tableValues="0 0"/><feFuncB type="discrete" tableValues="0 0"/><feFuncA type="linear" slope="0.34902" intercept="0"/></feComponentTransfer><feGaussianBlur stdDeviation="1.39937 1.40059"/></filter><filter id="fx2" x="-10%" y="-10%" width="120%" height="120%" filterUnits="userSpaceOnUse" primitiveUnits="userSpaceOnUse"><feComponentTransfer color-interpolation-filters="sRGB"><feFuncR type="discrete" tableValues="0 0"/><feFuncG type="discrete" tableValues="0 0"/><feFuncB type="discrete" tableValues="0 0"/><feFuncA type="linear" slope="0.4" intercept="0"/></feComponentTransfer><feGaussianBlur stdDeviation="1.77719 1.77875"/></filter><filter id="fx3" x="-10%" y="-10%" width="120%" height="120%" filterUnits="userSpaceOnUse" primitiveUnits="userSpaceOnUse"><feComponentTransfer color-interpolation-filters="sRGB"><feFuncR type="discrete" tableValues="0 0"/><feFuncG type="discrete" tableValues="0 0"/><feFuncB type="discrete" tableValues="0 0"/><feFuncA type="linear" slope="0.4" intercept="0"/></feComponentTransfer><feGaussianBlur stdDeviation="1.77719 1.77875"/></filter><clipPath id="clip4"><rect x="0" y="0" width="1015" height="607"/></clipPath><clipPath id="clip5"><path d="M141.167 63.5557C134.171 63.5557 128.5 69.2318 128.5 76.2335L128.5 559.324C128.5 566.326 134.171 572.002 141.167 572.002L191.833 572.002C198.829 572.002 204.5 566.326 204.5 559.324L204.5 76.2335C204.5 69.2318 198.829 63.5557 191.833 63.5557ZM1.51247e-05 9.045e-06 1015 9.045e-06 1015 607 1.51247e-05 607Z" fill-rule="evenodd" clip-rule="evenodd"/></clipPath><clipPath id="clip6"><rect x="-1" y="1" width="89" height="521"/></clipPath><clipPath id="clip7"><rect x="0" y="0" width="89" height="522"/></clipPath><linearGradient x1="166.5" y1="63.5557" x2="166.5" y2="572.002" gradientUnits="userSpaceOnUse" spreadMethod="reflect" id="fill8"><stop offset="0" stop-color="#DB4642"/><stop offset="0.7" stop-color="#AD2A26"/><stop offset="1" stop-color="#AD2A26"/></linearGradient><clipPath id="clip9"><path d="M601.167 62.5549C594.171 62.5549 588.5 68.2311 588.5 75.2331L588.5 559.324C588.5 566.326 594.171 572.002 601.167 572.002L651.833 572.002C658.829 572.002 664.5 566.326 664.5 559.324L664.5 75.2331C664.5 68.2311 658.829 62.5549 651.833 62.5549ZM1.51247e-05 9.045e-06 1015 9.045e-06 1015 607 1.51247e-05 607Z" fill-rule="evenodd" clip-rule="evenodd"/></clipPath><clipPath id="clip10"><rect x="-1" y="1" width="89" height="521"/></clipPath><clipPath id="clip11"><rect x="0" y="0" width="89" height="523"/></clipPath><linearGradient x1="626.5" y1="62.5549" x2="626.5" y2="572.002" gradientUnits="userSpaceOnUse" spreadMethod="reflect" id="fill12"><stop offset="0" stop-color="#DB4642"/><stop offset="0.7" stop-color="#AD2A26"/><stop offset="1" stop-color="#AD2A26"/></linearGradient><clipPath id="clip13"><rect x="-2" y="-2" width="48" height="211"/></clipPath><clipPath id="clip14"><rect x="0" y="0" width="46" height="208"/></clipPath><clipPath id="clip15"><rect x="7" y="9" width="33" height="111"/></clipPath><clipPath id="clip16"><rect x="0" y="0" width="45" height="129"/></clipPath></defs><g clip-path="url(#clip4)"><rect x="0" y="0" width="1015" height="606.532" fill="#FFFFFF"/><path d="M64 444.108C64 437.078 69.6942 431.378 76.7183 431.378L966.282 431.378C973.306 431.378 979 437.078 979 444.108L979 543.759C979 550.789 973.306 556.488 966.282 556.488L76.7183 556.488C69.6942 556.488 64 550.789 64 543.759Z" fill="#EBF1DE" fill-rule="evenodd"/><text fill="#AD2A26" font-family="SimHei,SimHei_MSFontService,sans-serif" font-weight="400" font-size="21" transform="matrix(1 0 0 1.00088 77.2518 464)">第<tspan font-size="21" x="0" y="24.9781">三</tspan><tspan font-size="21" x="0" y="50.9553">阶</tspan><tspan font-size="21" x="0" y="76.9325">段</tspan></text><path d="M64 259.256C64 249.291 72.0718 241.212 82.0288 241.212L960.971 241.212C970.928 241.212 979 249.291 979 259.256L979 402.324C979 412.29 970.928 420.369 960.971 420.369L82.0288 420.369C72.0718 420.369 64 412.29 64 402.324Z" fill="#DCE6F2" fill-rule="evenodd"/><text fill="#AD2A26" font-family="SimHei,SimHei_MSFontService,sans-serif" font-weight="400" font-size="21" transform="matrix(1 0 0 1.00088 78.813 301)">第<tspan font-size="21" x="0" y="24.9781">二</tspan><tspan font-size="21" x="0" y="50.9553">阶</tspan><tspan font-size="21" x="0" y="76.9325">段</tspan></text><path d="M64 92.1932C64 84.3923 70.3183 78.0685 78.1122 78.0685L964.888 78.0685C972.682 78.0685 979 84.3923 979 92.1932L979 219.08C979 226.881 972.682 233.205 964.888 233.205L78.1122 233.205C70.3183 233.205 64 226.881 64 219.08Z" fill="#F2F2F2" fill-rule="evenodd"/><text fill="#AD2A26" font-family="SimHei,SimHei_MSFontService,sans-serif" font-weight="400" font-size="21" transform="matrix(1 0 0 1.00088 77.6815 125)">第<tspan font-size="21" x="0" y="24.9781">一</tspan><tspan font-size="21" x="0" y="50.9553">阶</tspan><tspan font-size="21" x="0" y="76.9325">段</tspan></text><g clip-path="url(#clip5)"><g clip-path="url(#clip6)" filter="url(#fx0)" transform="translate(122 59)"><g clip-path="url(#clip7)"><path d="M6.49995 19.6496C6.49995 12.6478 12.171 6.97176 19.1666 6.97176L69.8333 6.97176C76.8289 6.97176 82.5 12.6478 82.5 19.6496L82.5 502.74C82.5 509.742 76.8289 515.418 69.8333 515.418L19.1666 515.418C12.171 515.418 6.49995 509.742 6.49995 502.74Z" stroke="#BE4B48" stroke-linejoin="round" stroke-miterlimit="10" fill="#FF0000" fill-rule="evenodd"/></g></g></g><path d="M128.5 76.2335C128.5 69.2318 134.171 63.5557 141.167 63.5557L191.833 63.5557C198.829 63.5557 204.5 69.2318 204.5 76.2335L204.5 559.324C204.5 566.326 198.829 572.002 191.833 572.002L141.167 572.002C134.171 572.002 128.5 566.326 128.5 559.324Z" stroke="#BE4B48" stroke-width="0.999672" stroke-linejoin="round" stroke-miterlimit="10" fill="url(#fill8)" fill-rule="evenodd"/><g clip-path="url(#clip9)"><g clip-path="url(#clip10)" filter="url(#fx1)" transform="translate(582 58)"><g clip-path="url(#clip11)"><path d="M6.49994 19.6491C6.49994 12.6471 12.1712 6.9709 19.1671 6.9709L69.8328 6.9709C76.8287 6.9709 82.5 12.6471 82.5 19.6491L82.5 503.74C82.5 510.742 76.8287 516.418 69.8328 516.418L19.1671 516.418C12.1712 516.418 6.49994 510.742 6.49994 503.74Z" stroke="#BE4B48" stroke-linejoin="round" stroke-miterlimit="10" fill="#FF0000" fill-rule="evenodd"/></g></g></g><path d="M588.5 75.2331C588.5 68.2311 594.171 62.5549 601.167 62.5549L651.833 62.5549C658.829 62.5549 664.5 68.2311 664.5 75.2331L664.5 559.324C664.5 566.326 658.829 572.002 651.833 572.002L601.167 572.002C594.171 572.002 588.5 566.326 588.5 559.324Z" stroke="#BE4B48" stroke-width="0.999672" stroke-linejoin="round" stroke-miterlimit="10" fill="url(#fill12)" fill-rule="evenodd"/><text fill="#595959" font-family="Monaco,Monaco_MSFontService,sans-serif" font-weight="400" font-size="19" transform="matrix(1 0 0 1.00088 138.87 54)">master<tspan font-size="19" x="461.586" y="-0.999123">slave</tspan></text><path d="M3.63959e-07-1.3329 377.694-1.33279 377.694 1.333-3.63959e-07 1.3329ZM376.361-3.99858 384.358 0.000104952 376.361 3.99879Z" fill="#3B3838" transform="matrix(-1 0 0 1.00088 588.858 117.603)"/><text fill="#595959" font-family="Monaco,Monaco_MSFontService,sans-serif" font-weight="400" font-size="16" transform="matrix(1 0 0 1.00088 237.868 108)">1.1.<tspan font-family="SimHei,SimHei_MSFontService,sans-serif" font-size="16" x="38.654" y="0">请求数据同步</tspan></text><path d="M205 177.906 210.25 171.95 210.25 174.578C218.628 172.303 224.821 164.858 225.851 155.824 227.102 166.806 220.434 177.067 210.25 179.832L210.25 182.459Z" fill="#48504F" fill-rule="evenodd"/><path d="M226 158.452C226 146.256 216.598 136.37 205 136.37L205 131.115C216.598 131.115 226 141.001 226 153.197Z" fill="#3A4040" fill-rule="evenodd"/><text fill="#595959" font-family="Monaco,Monaco_MSFontService,sans-serif" font-weight="400" font-size="16" transform="matrix(1 0 0 1.00088 237.868 160)">1.2.<tspan font-family="SimHei,SimHei_MSFontService,sans-serif" font-size="16" x="38.654" y="0">判断是否是第一次同步</tspan></text><path d="M204.5 209.351 582.194 209.351 582.194 212.019 204.5 212.019ZM580.861 206.683 588.858 210.685 580.861 214.687Z" fill="#3B3838"/><text fill="#595959" font-family="Monaco,Monaco_MSFontService,sans-serif" font-weight="400" font-size="16" transform="matrix(1 0 0 1.00088 237.868 201)">1.3.<tspan font-family="SimHei,SimHei_MSFontService,sans-serif" font-size="16" x="38.654" y="0">是第一次，返回</tspan><tspan font-size="16" x="160.281" y="0">master </tspan><tspan font-family="SimHei,SimHei_MSFontService,sans-serif" font-size="16" x="227.925" y="0">的数据版本信息</tspan></text><path d="M205 295.009 210.25 289.053 210.25 291.68C218.628 289.406 224.821 281.961 225.851 272.927 227.102 283.909 220.434 294.17 210.25 296.935L210.25 299.562Z" fill="#48504F" fill-rule="evenodd"/><path d="M226 275.554C226 263.359 216.598 253.472 205 253.472L205 248.218C216.598 248.218 226 258.104 226 270.3Z" fill="#3A4040" fill-rule="evenodd"/><text fill="#595959" font-family="Monaco,Monaco_MSFontService,sans-serif" font-weight="400" font-size="16" transform="matrix(1 0 0 1.00088 237.868 278)">2.1.<tspan font-family="SimHei,SimHei_MSFontService,sans-serif" font-size="16" x="38.654" y="0">执行</tspan><tspan font-size="16" x="80.3069" y="0">bgsave</tspan><tspan font-family="SimHei,SimHei_MSFontService,sans-serif" font-size="16" x="138.288" y="0">，生成</tspan><tspan font-size="16" x="195.936" y="0">RDB</tspan></text><path d="M204.5 393.512 582.194 393.512 582.194 396.181 204.5 396.181ZM580.861 390.844 588.858 394.847 580.861 398.849Z" fill="#3B3838"/><text fill="#595959" font-family="Monaco,Monaco_MSFontService,sans-serif" font-weight="400" font-size="16" transform="matrix(1 0 0 1.00088 237.868 387)">2.2.<tspan font-family="SimHei,SimHei_MSFontService,sans-serif" font-size="16" x="38.654" y="0">发送</tspan><tspan font-size="16" x="80.307" y="0">RDB </tspan><tspan font-family="SimHei,SimHei_MSFontService,sans-serif" font-size="16" x="118.961" y="0">文件</tspan><tspan font-size="16" x="438.674" y="-265.767">1.0.</tspan><tspan font-family="SimHei,SimHei_MSFontService,sans-serif" font-size="16" x="477.328" y="-265.767">执行</tspan><tspan font-size="16" x="518.981" y="-265.767">replicaof</tspan><tspan font-family="SimHei,SimHei_MSFontService,sans-serif" font-size="16" x="615.616" y="-265.767">命令，建立连接</tspan><tspan font-size="16" x="457.069" y="-187.835">1.4.</tspan><tspan font-family="SimHei,SimHei_MSFontService,sans-serif" font-size="16" x="495.723" y="-187.835">保存版本信息</tspan><tspan font-size="16" x="457.069" y="-42.9623">2.3.</tspan><tspan font-family="SimHei,SimHei_MSFontService,sans-serif" font-size="16" x="495.723" y="-42.9623">清空本地数据，加载</tspan><tspan font-size="16" x="649.339" y="-42.9623">RDB </tspan><tspan font-family="SimHei,SimHei_MSFontService,sans-serif" font-size="16" x="687.993" y="-42.9623">文件</tspan></text><path d="M663 357.814 668.5 351.614 668.5 354.366C677.224 352.125 683.693 344.815 684.826 335.92 686.218 346.855 679.224 357.115 668.5 359.871L668.5 362.623Z" fill="#48504F" fill-rule="evenodd"/><path d="M685 338.672C685 326.58 675.15 316.778 663 316.778L663 311.273C675.15 311.273 685 321.075 685 333.167Z" fill="#3A4040" fill-rule="evenodd"/><path d="M664 214.939 669.25 208.983 669.25 211.61C677.628 209.335 683.821 201.89 684.851 192.857 686.102 203.838 679.434 214.1 669.25 216.865L669.25 219.492Z" fill="#48504F" fill-rule="evenodd"/><path d="M685 195.484C685 183.289 675.598 173.402 664 173.402L664 168.148C675.598 168.148 685 178.034 685 190.229Z" fill="#3A4040" fill-rule="evenodd"/><g clip-path="url(#clip13)" filter="url(#fx2)" transform="translate(146 328)"><g clip-path="url(#clip14)"><path d="M33.4939 7.12155C36.4396 7.12155 38.8275 9.51154 38.8275 12.4597L38.8275 195.954C38.8275 198.902 36.4396 201.292 33.4939 201.292L12.161 201.292C9.21539 201.292 6.82748 198.902 6.82748 195.954L6.82748 12.4597C6.82748 9.51154 9.21539 7.12155 12.161 7.12155Z" fill="#F2DCDB" fill-rule="evenodd"/></g></g><g clip-path="url(#clip15)" filter="url(#fx3)" transform="translate(145 368)"><g clip-path="url(#clip16)"><path d="M1.83105 0 1.83105-8.18115 3.19336-8.18115 3.19336-6.39404C4.03809-7.73682 5.13672-8.4082 6.48926-8.4082 6.98242-8.4082 7.47559-8.33252 7.96875-8.18115L7.96875-5.22949 6.65771-5.22949 6.65771-7.09717C6.42822-7.13623 6.24756-7.15576 6.11572-7.15576 5.09521-7.15576 4.12109-6.35498 3.19336-4.75342L3.19336 0ZM16.7699-0.541992C15.681-0.0244141 14.6507 0.234375 13.6791 0.234375 12.1556 0.234375 11.0326-0.473633 10.3099-1.88965 9.95836-2.56836 9.78258-3.2959 9.78258-4.07227 9.78258-4.81934 9.94371-5.52734 10.266-6.19629 10.6029-6.89941 11.0704-7.44385 11.6686-7.82959 12.2667-8.21533 12.932-8.4082 13.6644-8.4082 14.807-8.4082 15.6542-7.96631 16.2059-7.08252 16.66-6.35498 16.8871-5.38086 16.8871-4.16016L16.8871-3.86719 11.2474-3.86719C11.2474-3.33984 11.3524-2.84912 11.5624-2.39502 11.7919-1.89209 12.1166-1.51367 12.5365-1.25977 12.9222-1.02539 13.3617-0.908203 13.8548-0.908203 14.7338-0.908203 15.7054-1.20117 16.7699-1.78711ZM11.328-4.88525 15.4076-4.88525 15.4076-5.08244C15.4076-5.69576 15.2635-6.19957 14.9755-6.59386 14.6532-7.0417 14.1966-7.26562 13.6058-7.26562 12.4144-7.26562 11.6551-6.47217 11.328-4.88525ZM20.0559-6.34277C20.4074-6.90918 20.8445-7.38281 21.3669-7.76367 21.9626-8.19336 22.5608-8.4082 23.1614-8.4082 24.05-8.4082 24.7361-8.01514 25.2195-7.229 25.6247-6.56982 25.8274-5.77148 25.8274-4.83398 25.8274-3.96484 25.6662-3.16406 25.344-2.43164 24.9973-1.63574 24.4919-1.00342 23.8279-0.534668 23.2224-0.100098 22.4729 0.117187 21.5793 0.117188 21.3108 0.117187 20.9201 0.090332 20.4074 0.0366211 20.344 0.0317383 20.2268 0.0195312 20.0559 0L20.0559 3.17871 18.6936 3.17871 18.6936-8.18115 20.0559-8.18115ZM20.0559-4.72412 20.0559-1.21582C20.549-1.08887 21.0032-1.02539 21.4182-1.02539 22.3606-1.02539 23.1003-1.40625 23.6374-2.16797 24.1111-2.8418 24.3479-3.66943 24.3479-4.65088 24.3479-5.24658 24.2453-5.76904 24.0403-6.21826 23.7668-6.80908 23.3664-7.10449 22.8391-7.10449 22.3264-7.10449 21.782-6.81885 21.2058-6.24756 20.7712-5.81787 20.3879-5.31006 20.0559-4.72412ZM29.8311 0 29.8311-10.6787 27.3849-10.6787 27.3849-11.8213 31.1934-11.8213 31.1934-1.14258 33.7496-1.14258 33.7496 0ZM35.8418 1.13525 35.8418 0 43.7959 0 43.7959 1.13525ZM46.5472-6.34277C46.8987-6.90918 47.3358-7.38281 47.8582-7.76367 48.4539-8.19336 49.0521-8.4082 49.6527-8.4082 50.5413-8.4082 51.2274-8.01514 51.7108-7.229 52.116-6.56982 52.3187-5.77148 52.3187-4.83398 52.3187-3.96484 52.1575-3.16406 51.8353-2.43164 51.4886-1.63574 50.9832-1.00342 50.3192-0.534668 49.7137-0.100098 48.9642 0.117187 48.0706 0.117188 47.8021 0.117187 47.4114 0.090332 46.8987 0.0366211 46.8353 0.0317383 46.7181 0.0195312 46.5472 0L45.1849 0 45.1849-11.8213 46.5472-11.8213ZM46.5472-4.72412 46.5472-1.21582C47.0403-1.08887 47.4944-1.02539 47.9095-1.02539 48.8519-1.02539 49.5916-1.40625 50.1287-2.16797 50.6024-2.8418 50.8392-3.66943 50.8392-4.65088 50.8392-5.24658 50.7366-5.76904 50.5316-6.21826 50.2581-6.80908 49.8577-7.10449 49.3304-7.10449 48.8177-7.10449 48.2733-6.81885 47.6971-6.24756 47.2625-5.81787 46.8792-5.31006 46.5472-4.72412ZM59.5012-1.83838C59.1545-1.27197 58.7175-0.79834 58.1901-0.41748 57.5944 0.012207 56.9963 0.227051 56.3957 0.227051 55.5119 0.227051 54.8283-0.166016 54.3449-0.952148 53.9396-1.61133 53.737-2.40967 53.737-3.34717 53.737-5.26611 54.4011-6.70166 55.7292-7.65381 56.3346-8.0835 57.0842-8.29834 57.9777-8.29834 58.2511-8.29834 58.6418-8.27148 59.1496-8.21777 59.2131-8.21289 59.3302-8.20068 59.5012-8.18115L60.8708-8.18115 60.8708-2.40234C60.8708-1.41602 60.9733-0.615234 61.1784 0L59.7575 0C59.6501-0.449219 59.5646-1.06201 59.5012-1.83838ZM59.5012-3.45703 59.5012-6.96533C59.0177-7.09228 58.5685-7.15576 58.1535-7.15576 57.2062-7.15576 56.464-6.77734 55.9269-6.02051 55.4533-5.34668 55.2165-4.5166 55.2165-3.53027 55.2165-2.93945 55.319-2.41699 55.5241-1.96289 55.7927-1.37207 56.1906-1.07666 56.7179-1.07666 57.2306-1.07666 57.7775-1.3623 58.3586-1.93359 58.7931-2.36328 59.174-2.87109 59.5012-3.45703ZM63.3145 0 63.3145-11.8213 64.6768-11.8213 64.6768-4.39579 68.6117-8.18115 70.4263-8.18115 66.5026-4.39636 70.5307 0 68.6539 0 64.6768-4.39453 64.6768 0ZM73.9833 0 73.9833-10.6787 71.537-10.6787 71.537-11.8213 75.3456-11.8213 75.3456-1.14258 77.9018-1.14258 77.9018 0ZM83.9783 0.227051C82.7771 0.227051 81.8201-0.200195 81.1072-1.05469 80.4431-1.85547 80.1111-2.86865 80.1111-4.09424 80.1111-5.31982 80.4456-6.33057 81.1145-7.12646 81.8225-7.98096 82.7771-8.4082 83.9783-8.4082 85.1746-8.4082 86.1292-7.98096 86.8421-7.12646 87.5061-6.32568 87.8382-5.31494 87.8382-4.09424 87.8382-2.87354 87.5061-1.86035 86.8421-1.05469 86.1292-0.200195 85.1746 0.227051 83.9783 0.227051ZM83.9783-0.915527C84.7986-0.915527 85.4187-1.25652 85.8386-1.93851 86.1853-2.50362 86.3587-3.2222 86.3587-4.09424 86.3587-4.9614 86.1829-5.67753 85.8313-6.24264 85.4114-6.92463 84.7937-7.26562 83.9783-7.26562 83.158-7.26562 82.5379-6.92703 82.1179-6.24985 81.7664-5.68481 81.5906-4.96628 81.5906-4.09424 81.5906-3.2222 81.7664-2.50362 82.1179-1.93851 82.5379-1.25652 83.158-0.915527 83.9783-0.915527ZM94.9108-1.83838C94.5641-1.27197 94.1271-0.79834 93.5997-0.41748 93.004 0.012207 92.4059 0.227051 91.8053 0.227051 90.9215 0.227051 90.2379-0.166016 89.7545-0.952148 89.3492-1.61133 89.1466-2.40967 89.1466-3.34717 89.1466-5.26611 89.8107-6.70166 91.1388-7.65381 91.7443-8.0835 92.4938-8.29834 93.3873-8.29834 93.6608-8.29834 94.0514-8.27148 94.5592-8.21777 94.6227-8.21289 94.7399-8.20068 94.9108-8.18115L96.2804-8.18115 96.2804-2.39502C96.2804-1.32568 96.278-0.74707 96.2731-0.65918 96.2487-1.49012e-08 96.173 0.571289 96.046 1.05469 95.8361 1.85059 95.3356 2.45605 94.5446 2.87109 93.8707 3.22754 93.0846 3.40576 92.1862 3.40576 91.1949 3.40576 90.1915 3.15186 89.1759 2.64404L89.1759 1.26709C90.1525 1.93115 91.173 2.26318 92.2374 2.26318 93.1505 2.26318 93.8439 2.00729 94.3175 1.49551 94.713 1.06659 94.9108 0.340347 94.9108-0.683212ZM94.9108-3.45703 94.9108-6.96533C94.4274-7.09228 93.9781-7.15576 93.5631-7.15576 92.6158-7.15576 91.8737-6.77734 91.3365-6.02051 90.8629-5.34668 90.6261-4.5166 90.6261-3.53027 90.6261-2.93945 90.7286-2.41699 90.9337-1.96289 91.2023-1.37207 91.6002-1.07666 92.1276-1.07666 92.6403-1.07666 93.1871-1.3623 93.7682-1.93359 94.2028-2.36328 94.5836-2.87109 94.9108-3.45703Z" fill="#555555" transform="matrix(6.12323e-17 1.00176 -0.999123 6.12861e-17 19.2411 16)"/></g></g><path d="M176.666 332.292C179.612 332.292 182 334.682 182 337.63L182 521.124C182 524.072 179.612 526.462 176.666 526.462L155.334 526.462C152.388 526.462 150 524.072 150 521.124L150 337.63C150 334.682 152.388 332.292 155.334 332.292Z" fill="#F2DCDB" fill-rule="evenodd"/><text fill="#555555" font-family="Monaco,Monaco_MSFontService,sans-serif" font-weight="400" font-size="15" transform="matrix(6.12323e-17 1.00176 -0.999123 6.12861e-17 161.414 381)">repl_baklog</text><text fill="#595959" font-family="Monaco,Monaco_MSFontService,sans-serif" font-weight="400" font-size="16" transform="matrix(1 0 0 1.00088 237.868 334)">2.1.1.<tspan font-family="SimHei,SimHei_MSFontService,sans-serif" font-size="16" x="57.981" y="0">记录</tspan><tspan font-size="16" x="99.6339" y="0">RDB </tspan><tspan font-family="SimHei,SimHei_MSFontService,sans-serif" font-size="16" x="138.288" y="0">期间的所有命令</tspan></text><path d="M204.5 500.606 582.194 500.606 582.194 503.274 204.5 503.274ZM580.861 497.938 588.858 501.94 580.861 505.943Z" fill="#3B3838"/><text fill="#595959" font-family="Monaco,Monaco_MSFontService,sans-serif" font-weight="400" font-size="16" transform="matrix(1 0 0 1.00088 237.868 493)">3.1.<tspan font-family="SimHei,SimHei_MSFontService,sans-serif" font-size="16" x="38.654" y="0">发送</tspan><tspan font-size="16" x="80.307" y="0">repl_baklog</tspan><tspan font-family="SimHei,SimHei_MSFontService,sans-serif" font-size="16" x="196.269" y="0">中的命令</tspan><tspan font-size="16" x="457.069" y="13.9877">3.2.</tspan><tspan font-family="SimHei,SimHei_MSFontService,sans-serif" font-size="16" x="495.723" y="13.9877">执行接收到的命令</tspan></text><path d="M664 523.209 669.25 517.253 669.25 519.881C677.628 517.606 683.821 510.161 684.851 501.127 686.102 512.109 679.434 522.37 669.25 525.135L669.25 527.762Z" fill="#48504F" fill-rule="evenodd"/><path d="M685 503.754C685 491.559 675.598 481.673 664 481.673L664 476.418C675.598 476.418 685 486.304 685 498.5Z" fill="#3A4040" fill-rule="evenodd"/><path d="M206 349.056 211.25 343.1 211.25 345.728C219.628 343.453 225.821 336.008 226.851 326.974 228.102 337.956 221.434 348.217 211.25 350.982L211.25 353.61Z" fill="#48504F" fill-rule="evenodd"/><path d="M227 329.602C227 317.406 217.598 307.52 206 307.52L206 302.265C217.598 302.265 227 312.152 227 324.347Z" fill="#3A4040" fill-rule="evenodd"/></g></svg>