<svg width="1058" height="531" xmlns="http://www.w3.org/2000/svg" xmlns:xlink="http://www.w3.org/1999/xlink" overflow="hidden"><defs><clipPath id="clip0"><rect x="0" y="0" width="1058" height="531"/></clipPath><clipPath id="clip1"><rect x="631" y="219" width="30" height="30"/></clipPath><clipPath id="clip2"><rect x="631" y="219" width="30" height="30"/></clipPath><clipPath id="clip3"><rect x="631" y="219" width="30" height="30"/></clipPath><clipPath id="clip4"><rect x="592" y="313" width="34" height="33"/></clipPath><clipPath id="clip5"><rect x="592" y="313" width="34" height="33"/></clipPath><clipPath id="clip6"><rect x="592" y="313" width="34" height="33"/></clipPath></defs><g clip-path="url(#clip0)"><rect x="0" y="0" width="1058" height="531.167" fill="#FFFFFF"/><path d="M362.5 235.574C362.5 153.81 428.762 87.5276 510.5 87.5276 592.238 87.5276 658.5 153.81 658.5 235.574 658.5 317.338 592.238 383.621 510.5 383.621 428.762 383.621 362.5 317.338 362.5 235.574Z" stroke="#D6DCE5" stroke-width="0.999685" stroke-linecap="round" stroke-linejoin="round" stroke-miterlimit="10" fill="none" fill-rule="evenodd"/><path d="M384.5 235.574C384.5 165.964 440.912 109.534 510.5 109.534 580.088 109.534 636.5 165.964 636.5 235.574 636.5 305.184 580.088 361.614 510.5 361.614 440.912 361.614 384.5 305.184 384.5 235.574Z" stroke="#D6DCE5" stroke-width="0.999685" stroke-linecap="round" stroke-linejoin="round" stroke-miterlimit="10" fill="none" fill-rule="evenodd"/><path d="M399.278 309.553C409.557 299.094 426.321 299.094 436.721 309.553 447 320.137 447 337.195 436.721 347.654 426.321 358.113 409.557 358.113 399.278 347.654 389 337.195 389 320.137 399.278 309.553Z" stroke="#F2F2F2" stroke-width="6.16478" stroke-miterlimit="8" fill="#262626" fill-rule="evenodd"/><path d="M409 336.301 429 336.301 429 337.106 409 337.106ZM413.593 333.282 413.976 333.282 413.976 335.798 412.349 335.798 412.349 334.49ZM415.986 330.767C415.986 330.767 415.986 330.767 416.666 330.767 416.892 330.848 417.194 330.929 417.421 330.929 417.421 330.929 417.421 330.929 417.421 335.798 417.421 335.798 417.421 335.798 415.986 335.798ZM420.962 329.962C420.962 329.962 420.962 329.962 420.962 335.798 420.962 335.798 420.962 335.798 419.431 335.798L419.431 330.772C419.966 330.61 420.502 330.367 420.962 329.962ZM417.995 322.723C417.254 322.723 416.514 323.032 415.929 323.648 414.837 324.799 414.837 326.773 415.929 327.924 417.099 329.157 418.892 329.157 420.061 327.924 421.153 326.773 421.153 324.799 420.061 323.648 419.477 323.032 418.736 322.723 417.995 322.723ZM422.78 322.616C422.78 322.616 422.78 322.616 424.311 322.616L424.311 335.798C424.311 335.798 424.311 335.798 422.78 335.798 422.78 335.798 422.78 335.798 422.78 327.119 422.933 326.71 422.933 326.219 422.933 325.809 422.933 325.4 422.933 324.909 422.78 324.499 422.78 324.499 422.78 324.499 422.78 322.616ZM418.024 321.515C419.054 321.515 420.084 321.923 420.861 322.739 422.493 324.453 422.493 327.146 420.861 328.778 419.462 330.328 417.208 330.41 415.576 329.186 415.576 329.186 415.576 329.186 414.877 329.92 414.954 330.247 414.877 330.655 414.644 330.899 414.644 330.899 414.644 330.899 411.613 334.082 411.146 334.49 410.525 334.49 410.136 334.082 409.67 333.674 409.67 332.94 410.136 332.532 410.136 332.532 410.136 332.532 413.089 329.349 413.4 329.104 413.711 329.023 414.1 329.023 414.1 329.023 414.1 329.023 414.799 328.288 413.556 326.656 413.711 324.29 415.188 322.739 415.965 321.923 416.994 321.515 418.024 321.515ZM425.938 320.101 427.469 320.101 427.469 335.798 425.938 335.798Z" fill="#FFFFFF" fill-rule="evenodd"/><rect x="501" y="306.096" width="21" height="21.0066" fill="#44546A"/><path d="M566 408.129C566 408.129 561.548 420.7 539.721 436.097 539.721 457.144 539.721 457.144 539.721 457.144 511 457.144 511 457.144 511 457.144 511 420.841 511 420.841 511 420.841L566 408.129Z" fill="#F4B289" fill-rule="evenodd"/><rect x="490" y="325.102" width="44.0001" height="93.0293" fill="#333F50"/><path d="M566.98 331.193C569 336.684 566.259 342.752 560.922 344.775 525.579 360.091 525.579 360.091 525.579 360.091 520.242 362.114 514.183 359.224 512.164 353.878 512.164 353.878 512.164 353.878 512.164 353.878 510 348.387 512.885 342.319 518.222 340.296 553.565 325.125 553.565 325.125 553.565 325.125 558.902 323.102 564.961 325.847 566.98 331.193Z" fill="#F4B289" fill-rule="evenodd"/><path d="M514.733 353.254C513 348.824 515.311 343.823 519.789 342.108 526 358.399 526 358.399 526 358.399 521.378 360.113 516.322 357.827 514.733 353.254Z" fill="#FFE1B4" fill-rule="evenodd"/><path d="M567.98 353.314C570 358.785 567.259 364.831 561.778 366.846 526.579 381.962 526.579 381.962 526.579 381.962 521.098 384.121 515.039 381.242 513.02 375.915 513.02 375.915 513.02 375.915 513.02 375.915 511 370.445 513.741 364.399 519.222 362.383 554.421 347.268 554.421 347.268 554.421 347.268 559.902 345.109 565.961 347.988 567.98 353.314Z" fill="#F4B289" fill-rule="evenodd"/><path d="M515.733 374.404C514 369.831 516.311 364.829 520.933 363.114 527 379.405 527 379.405 527 379.405 522.522 381.12 517.467 378.834 515.733 374.404Z" fill="#FFE1B4" fill-rule="evenodd"/><path d="M533.415 356.504C515.095 348.39 515.095 348.39 515.095 348.39 512.375 347.109 504.647 347.821 503.359 347.821 484.037 347.821 484.037 347.821 484.037 347.821 476.165 347.821 476.165 347.821 476.165 347.821 469.868 347.821 464 352.091 464 358.497 464 366.469 464 366.469 464 366.469 464 423.977 464 423.977 464 423.977 464 433.941 472.015 442.34 481.747 443.194 481.747 457.144 481.747 457.144 481.747 457.144 513.234 457.144 513.234 457.144 513.234 457.144 513.234 431.948 513.234 431.948 513.234 431.948 513.234 425.685 513.234 425.685 513.234 425.685 513.234 390.241 490.907 368.177 490.907 368.177 490.907 368.177 504.504 368.034 509.084 368.604 513.95 369.173 524.684 375.294 524.684 375.294 529.98 377.714 536.134 375.436 538.567 370.17 541 365.045 538.71 358.924 533.415 356.504Z" fill="#FCC397" fill-rule="evenodd"/><path d="M536.022 368.772C534.185 373.199 529.239 375.118 525 373.052 531.924 357.112 531.924 357.112 531.924 357.112 536.163 359.179 538 364.344 536.022 368.772Z" fill="#FFE1B4" fill-rule="evenodd"/><rect x="477" y="455.143" width="69.0001" height="24.0076" fill="#44546A"/><rect x="513" y="455.143" width="33.0001" height="24.0076" fill="#333F50"/><path d="M568.98 376.141C571 381.49 568.115 387.403 562.778 389.374 527.435 404.157 527.435 404.157 527.435 404.157 522.098 406.128 516.039 403.453 514.02 398.244 514.02 398.244 514.02 398.244 514.02 398.244 512 392.894 514.741 386.981 520.078 385.01 555.421 370.087 555.421 370.087 555.421 370.087 560.902 368.116 566.817 370.791 568.98 376.141Z" fill="#F4B289" fill-rule="evenodd"/><path d="M516.655 397.431C515 392.818 517.207 387.758 521.345 386.122 527 402.49 527 402.49 527 402.49 522.862 404.127 518.172 401.895 516.655 397.431Z" fill="#FFE1B4" fill-rule="evenodd"/><path d="M567.98 398.359C570 403.705 567.259 409.773 561.778 411.796 526.579 427.112 526.579 427.112 526.579 427.112 521.098 429.135 515.039 426.39 513.02 420.899 513.02 420.899 513.02 420.899 513.02 420.899 511 415.553 513.741 409.484 519.222 407.462 554.421 392.146 554.421 392.146 554.421 392.146 559.902 390.123 565.961 392.868 567.98 398.359Z" fill="#F4B289" fill-rule="evenodd"/><path d="M516.655 419.669C515 415.453 517.207 410.675 521.345 409.129 527 424.588 527 424.588 527 424.588 522.862 426.134 518.172 424.026 516.655 419.669Z" fill="#FFE1B4" fill-rule="evenodd"/><path d="M512 311.098C469.493 311.098 435 276.595 435 234.074 435 191.696 469.493 157.049 512 157.049 554.507 157.049 589 191.696 589 234.074 589 276.595 554.507 311.098 512 311.098ZM512 168.503C475.933 168.503 446.45 197.995 446.45 234.074 446.45 270.295 475.933 299.645 512 299.645 548.21 299.645 577.55 270.295 577.55 234.074 577.55 197.995 548.21 168.503 512 168.503Z" fill="#44546A" fill-rule="evenodd"/><text fill="#404040" font-family="HarmonyOS Sans SC,HarmonyOS Sans SC_MSFontService,sans-serif" font-weight="700" font-size="27" transform="matrix(1 0 0 1.00032 471.18 243)">微服务</text><path d="M7.65695e-07-0.333228 2.66583-0.333222 2.66583 0.333234-7.65695e-07 0.333228ZM4.6652-0.333218 7.33102-0.333212 7.33102 0.333245 4.6652 0.333239ZM9.33039-0.333207 11.9962-0.333201 11.9962 0.333256 9.33039 0.33325ZM13.9956-0.333196 16.6614-0.33319 16.6614 0.333267 13.9956 0.333261ZM18.6608-0.333185 21.3266-0.333179 21.3266 0.333277 18.6608 0.333271ZM23.326-0.333175 25.9918-0.333169 25.9918 0.333288 23.326 0.333282ZM27.9912-0.333164 30.657-0.333158 30.657 0.333299 27.9912 0.333293ZM32.6564-0.333153 35.3222-0.333147 35.3222 0.33331 32.6564 0.333303ZM37.3216-0.333143 39.9874-0.333136 39.9874 0.33332 37.3216 0.333314ZM41.9868-0.333132 44.6526-0.333126 44.6526 0.333331 41.9868 0.333325ZM-9.18834e-06 3.99874C-2.20845 3.99874-3.99875 2.20843-3.99874-9.18834e-06-3.99874-2.20845-2.20843-3.99875 9.18834e-06-3.99874 2.20845-3.99874 3.99875-2.20843 3.99874 9.18834e-06 3.99874 2.20845 2.20843 3.99875-9.18834e-06 3.99874ZM45.6756-3.99864C47.884-3.99863 49.6743-2.20833 49.6743 0.000114142 49.6743 2.20856 47.884 3.99885 45.6756 3.99885 43.4671 3.99884 41.6768 2.20854 41.6768 9.57655e-05 41.6768-2.20835 43.4671-3.99864 45.6756-3.99864Z" fill="#BFBFBF" transform="matrix(-1 0 0 1.00032 359.176 130.541)"/><text fill="#404040" font-family="HarmonyOS Sans SC,HarmonyOS Sans SC_MSFontService,sans-serif" font-weight="700" font-size="24" transform="matrix(1 0 0 1.00032 152.716 110)">服务注册发现<tspan font-weight="400" font-size="19" x="-62.9759" y="43.9861">Eureka</tspan><tspan font-weight="400" font-size="19" x="-3.82787" y="43.9861">、</tspan><tspan font-weight="400" font-size="19" x="14.8329" y="43.9861">Nacos</tspan><tspan font-weight="400" font-size="19" x="67.483" y="43.9861">、</tspan><tspan font-weight="400" font-size="19" x="86.1438" y="43.9861">Consul</tspan></text><path d="M7.65695e-07-0.333228 2.66583-0.333222 2.66583 0.333234-7.65695e-07 0.333228ZM4.6652-0.333218 7.33102-0.333212 7.33102 0.333245 4.6652 0.333239ZM9.33039-0.333207 11.9962-0.333201 11.9962 0.333256 9.33039 0.33325ZM13.9956-0.333196 16.6614-0.33319 16.6614 0.333267 13.9956 0.333261ZM18.6608-0.333185 21.3266-0.333179 21.3266 0.333277 18.6608 0.333271ZM23.326-0.333175 25.9918-0.333169 25.9918 0.333288 23.326 0.333282ZM27.9912-0.333164 30.657-0.333158 30.657 0.333299 27.9912 0.333293ZM32.6564-0.333153 35.3222-0.333147 35.3222 0.33331 32.6564 0.333303ZM37.3216-0.333143 39.9874-0.333136 39.9874 0.33332 37.3216 0.333314ZM41.9868-0.333132 44.6526-0.333126 44.6526 0.333331 41.9868 0.333325ZM-9.18834e-06 3.99874C-2.20845 3.99874-3.99875 2.20843-3.99874-9.18834e-06-3.99874-2.20845-2.20843-3.99875 9.18834e-06-3.99874 2.20845-3.99874 3.99875-2.20843 3.99874 9.18834e-06 3.99874 2.20845 2.20843 3.99875-9.18834e-06 3.99874ZM45.6756-3.99864C47.884-3.99863 49.6743-2.20833 49.6743 0.000114142 49.6743 2.20856 47.884 3.99885 45.6756 3.99885 43.4671 3.99884 41.6768 2.20854 41.6768 9.57655e-05 41.6768-2.20835 43.4671-3.99864 45.6756-3.99864Z" fill="#BFBFBF" transform="matrix(-1 0 0 1.00032 320.176 229.572)"/><text fill="#404040" font-family="HarmonyOS Sans SC,HarmonyOS Sans SC_MSFontService,sans-serif" font-weight="700" font-size="24" transform="matrix(1 0 0 1.00032 110.587 218)">服务远程调用<tspan font-weight="400" font-size="19" x="-26.3208" y="43.9861">OpenFeign</tspan><tspan font-weight="400" font-size="19" x="67.483" y="43.9861">、</tspan><tspan font-weight="400" font-size="19" x="86.1438" y="43.9861">Dubbo</tspan></text><path d="M7.65695e-07-0.333228 2.66583-0.333222 2.66583 0.333234-7.65695e-07 0.333228ZM4.6652-0.333218 7.33102-0.333212 7.33102 0.333245 4.6652 0.333239ZM9.33039-0.333207 11.9962-0.333201 11.9962 0.333256 9.33039 0.33325ZM13.9956-0.333196 16.6614-0.33319 16.6614 0.333267 13.9956 0.333261ZM18.6608-0.333185 21.3266-0.333179 21.3266 0.333277 18.6608 0.333271ZM23.326-0.333175 25.9918-0.333169 25.9918 0.333288 23.326 0.333282ZM27.9912-0.333164 30.657-0.333158 30.657 0.333299 27.9912 0.333293ZM32.6564-0.333153 35.3222-0.333147 35.3222 0.33331 32.6564 0.333303ZM37.3216-0.333143 39.9874-0.333136 39.9874 0.33332 37.3216 0.333314ZM41.9868-0.333132 44.6526-0.333126 44.6526 0.333331 41.9868 0.333325ZM-9.18834e-06 3.99874C-2.20845 3.99874-3.99875 2.20843-3.99874-9.18834e-06-3.99874-2.20845-2.20843-3.99875 9.18834e-06-3.99874 2.20845-3.99874 3.99875-2.20843 3.99874 9.18834e-06 3.99874 2.20845 2.20843 3.99875-9.18834e-06 3.99874ZM45.6756-3.99864C47.884-3.99863 49.6743-2.20833 49.6743 0.000114142 49.6743 2.20856 47.884 3.99885 45.6756 3.99885 43.4671 3.99884 41.6768 2.20854 41.6768 9.57655e-05 41.6768-2.20835 43.4671-3.99864 45.6756-3.99864Z" fill="#BFBFBF" transform="matrix(-1 0 0 1.00032 359.176 333.605)"/><text fill="#404040" font-family="HarmonyOS Sans SC,HarmonyOS Sans SC_MSFontService,sans-serif" font-weight="700" font-size="24" transform="matrix(1 0 0 1.00032 147.43 326)">服务链路监控<tspan font-weight="400" font-size="19" x="19.6875" y="42.9865">Zipkin</tspan><tspan font-weight="400" font-size="19" x="71.5045" y="42.9865">、</tspan><tspan font-weight="400" font-size="19" x="90.1653" y="42.9865">Sleuth</tspan></text><path d="M665.5 130.208 668.166 130.208 668.166 130.874 665.5 130.874ZM670.165 130.208 672.831 130.208 672.831 130.874 670.165 130.874ZM674.83 130.208 677.496 130.208 677.496 130.874 674.83 130.874ZM679.496 130.208 682.161 130.208 682.161 130.874 679.496 130.874ZM684.161 130.208 686.827 130.208 686.827 130.874 684.161 130.874ZM688.826 130.208 691.492 130.208 691.492 130.874 688.826 130.874ZM693.491 130.208 696.157 130.208 696.157 130.875 693.491 130.875ZM698.156 130.208 700.822 130.208 700.822 130.875 698.156 130.875ZM702.822 130.208 705.487 130.208 705.487 130.875 702.822 130.875ZM707.487 130.208 710.153 130.208 710.153 130.875 707.487 130.875ZM665.5 134.541C663.292 134.541 661.501 132.75 661.501 130.541 661.501 128.332 663.292 126.541 665.5 126.541 667.708 126.541 669.499 128.332 669.499 130.541 669.499 132.75 667.708 134.541 665.5 134.541ZM711.176 126.541C713.384 126.541 715.174 128.332 715.174 130.541 715.174 132.75 713.384 134.541 711.176 134.541 708.967 134.541 707.177 132.75 707.177 130.541 707.177 128.332 708.967 126.541 711.176 126.541Z" fill="#BFBFBF"/><text fill="#404040" font-family="HarmonyOS Sans SC,HarmonyOS Sans SC_MSFontService,sans-serif" font-weight="700" font-size="24" transform="matrix(1 0 0 1.00032 741.438 116)">统一配置管理<tspan font-weight="400" font-size="19" x="0" y="42.9865">SpringCloudConfig</tspan><tspan font-weight="400" font-size="19" x="161.782" y="42.9865">、</tspan><tspan font-weight="400" font-size="19" x="180.443" y="42.9865">Nacos</tspan></text><path d="M703.5 229.239 706.166 229.239 706.166 229.906 703.5 229.906ZM708.165 229.239 710.831 229.239 710.831 229.906 708.165 229.906ZM712.83 229.239 715.496 229.239 715.496 229.906 712.83 229.906ZM717.496 229.239 720.161 229.239 720.161 229.906 717.496 229.906ZM722.161 229.239 724.827 229.239 724.827 229.906 722.161 229.906ZM726.826 229.239 729.492 229.239 729.492 229.906 726.826 229.906ZM731.491 229.239 734.157 229.239 734.157 229.906 731.491 229.906ZM736.156 229.239 738.822 229.239 738.822 229.906 736.156 229.906ZM740.822 229.239 743.487 229.239 743.487 229.906 740.822 229.906ZM745.487 229.239 748.153 229.239 748.153 229.906 745.487 229.906ZM703.5 233.572C701.292 233.572 699.501 231.781 699.501 229.572 699.501 227.363 701.292 225.572 703.5 225.572 705.708 225.572 707.499 227.363 707.499 229.572 707.499 231.781 705.708 233.572 703.5 233.572ZM749.176 225.572C751.384 225.572 753.174 227.363 753.174 229.572 753.174 231.782 751.384 233.572 749.176 233.572 746.967 233.572 745.177 231.782 745.177 229.572 745.177 227.363 746.967 225.572 749.176 225.572Z" fill="#BFBFBF"/><text fill="#404040" font-family="HarmonyOS Sans SC,HarmonyOS Sans SC_MSFontService,sans-serif" font-weight="700" font-size="24" transform="matrix(1 0 0 1.00032 771.302 220)">统一网关路由<tspan font-weight="400" font-size="19" x="0" y="41.9868">SpringCloudGateway</tspan><tspan font-weight="400" font-size="19" x="179.943" y="41.9868">、</tspan><tspan font-weight="400" font-size="19" x="198.604" y="41.9868">Zuul</tspan></text><path d="M665.5 333.272 668.166 333.272 668.166 333.938 665.5 333.938ZM670.165 333.272 672.831 333.272 672.831 333.938 670.165 333.938ZM674.83 333.272 677.496 333.272 677.496 333.938 674.83 333.938ZM679.496 333.272 682.161 333.272 682.161 333.938 679.496 333.938ZM684.161 333.272 686.827 333.272 686.827 333.938 684.161 333.938ZM688.826 333.272 691.492 333.272 691.492 333.938 688.826 333.938ZM693.491 333.272 696.157 333.272 696.157 333.938 693.491 333.938ZM698.156 333.272 700.822 333.272 700.822 333.938 698.156 333.938ZM702.822 333.272 705.487 333.272 705.487 333.938 702.822 333.938ZM707.487 333.272 710.153 333.272 710.153 333.938 707.487 333.938ZM665.5 337.605C663.292 337.605 661.501 335.814 661.501 333.605 661.501 331.396 663.292 329.605 665.5 329.605 667.708 329.605 669.499 331.396 669.499 333.605 669.499 335.814 667.708 337.605 665.5 337.605ZM711.176 329.605C713.384 329.605 715.174 331.396 715.174 333.605 715.174 335.814 713.384 337.605 711.176 337.605 708.967 337.605 707.177 335.814 707.177 333.605 707.177 331.396 708.967 329.605 711.176 329.605Z" fill="#BFBFBF"/><text fill="#404040" font-family="HarmonyOS Sans SC,HarmonyOS Sans SC_MSFontService,sans-serif" font-weight="700" font-size="24" transform="matrix(1 0 0 1.00032 733.562 325)">流控、降级、保护<tspan font-weight="400" font-size="19" x="0" y="42.9865">Hystix</tspan><tspan font-weight="400" font-size="19" x="52.6501" y="42.9865">、</tspan><tspan font-weight="400" font-size="19" x="71.3109" y="42.9865">Sentinel</tspan></text><path d="M417.5 117.623C405.763 117.623 396.248 127.213 396.248 139.044 396.248 150.874 405.763 160.465 417.5 160.465 429.237 160.465 438.752 150.874 438.752 139.044 438.752 127.213 429.237 117.623 417.5 117.623ZM417.5 110.035C433.792 110.035 447 123.023 447 139.044 447 155.065 433.792 168.053 417.5 168.053 401.208 168.053 388 155.065 388 139.044 388 123.023 401.208 110.035 417.5 110.035Z" fill="#F2F2F2" fill-rule="evenodd"/><path d="M415.661 143.952C415.415 143.952 415.215 144.152 415.215 144.399 415.215 144.645 415.415 144.845 415.661 144.845L423.692 144.845C423.938 144.845 424.138 144.645 424.138 144.399 424.138 144.152 423.938 143.952 423.692 143.952ZM411.647 142.614 411.161 143.912 409.862 143.912 410.917 144.723 410.431 146.184 411.647 145.291 412.863 146.184 412.377 144.723 413.431 143.912C413.431 143.912 412.134 143.912 412.134 143.912ZM415.661 138.598C415.415 138.598 415.215 138.797 415.215 139.044 415.215 139.291 415.415 139.49 415.661 139.49L423.692 139.49C423.938 139.49 424.138 139.291 424.138 139.044 424.138 138.797 423.938 138.598 423.692 138.598ZM411.647 137.258 411.161 138.558 409.862 138.558 410.917 139.368 410.431 140.829 411.647 139.936 412.863 140.829 412.377 139.368 413.431 138.558 412.134 138.558C412.134 138.558 411.647 137.258 411.647 137.258ZM415.661 133.243C415.415 133.243 415.215 133.442 415.215 133.689 415.215 133.936 415.415 134.135 415.661 134.135L423.692 134.135C423.938 134.135 424.138 133.936 424.138 133.689 424.138 133.442 423.938 133.243 423.692 133.243ZM411.647 131.904 411.161 133.203 409.862 133.203 410.917 134.013 410.431 135.474 411.647 134.581 412.863 135.474 412.377 134.013 413.431 133.203 412.134 133.203C412.134 133.203 411.647 131.904 411.647 131.904ZM408.97 130.119 425.03 130.119C425.522 130.119 425.922 130.519 425.922 131.012 425.922 131.012 425.922 147.076 425.922 147.076 425.922 147.569 425.522 147.968 425.03 147.968L408.97 147.968C408.477 147.968 408.078 147.569 408.078 147.076L408.078 131.012C408.078 130.519 408.477 130.119 408.97 130.119ZM408.97 129.226C407.985 129.226 407.186 130.025 407.186 131.012L407.186 147.076C407.186 148.062 407.985 148.861 408.97 148.861L425.03 148.861C426.016 148.861 426.814 148.062 426.814 147.076L426.814 131.012C426.814 130.025 426.016 129.226 425.03 129.226ZM417 116.037C429.703 116.037 440 126.337 440 139.044 440 151.75 429.703 162.051 417 162.051 404.297 162.051 394 151.75 394 139.044 394 126.337 404.297 116.037 417 116.037Z" fill="#262626" fill-rule="evenodd"/><path d="M623.722 159.772C613.443 170.054 596.679 170.054 586.279 159.772 576 149.368 576 132.599 586.279 122.317 596.679 112.035 613.443 112.035 623.722 122.317 634 132.599 634 149.368 623.722 159.772Z" stroke="#FFD9D9" stroke-width="6.16478" stroke-miterlimit="8" fill="#C00000" fill-rule="evenodd"/><path d="M606 138.316 606 134.33 609.477 138.316C609.477 138.316 606 138.316 606 138.316ZM610 153.32C610 154.075 609.402 154.685 608.667 154.685L596.667 154.685C595.931 154.685 595.333 154.075 595.333 153.32L595.333 135.589C595.333 134.836 595.931 134.224 596.667 134.224L604.667 134.224 604.667 138.316C604.667 139.069 605.265 139.68 606 139.68L610 139.68C610 139.68 610 153.32 610 153.32ZM596.667 132.86C595.195 132.86 594 134.081 594 135.589L594 153.32C594 154.828 595.195 156.049 596.667 156.049L608.667 156.049C610.139 156.049 611.333 154.828 611.333 153.32L611.333 138.316 606.667 132.86C606.667 132.86 596.667 132.86 596.667 132.86ZM612.667 131.496 612.667 127.51 616.143 131.496C616.143 131.496 612.667 131.496 612.667 131.496ZM613.333 126.04 603.333 126.04C601.861 126.04 600.667 127.261 600.667 128.768L600.667 130.813C600.667 131.191 600.964 131.496 601.333 131.496 601.702 131.496 602 131.191 602 130.813L602 128.768C602 128.015 602.598 127.404 603.333 127.404L611.333 127.404 611.333 131.496C611.333 132.249 611.931 132.86 612.667 132.86L616.667 132.86 616.667 146.5C616.667 147.253 616.069 147.865 615.333 147.865L613.333 147.865C612.964 147.865 612.667 148.17 612.667 148.547 612.667 148.925 612.964 149.229 613.333 149.229L615.333 149.229C616.806 149.229 618 148.008 618 146.5L618 131.496C618 131.496 613.333 126.04 613.333 126.04ZM598 143.091C598 143.467 598.298 143.773 598.667 143.773L606.667 143.773C607.036 143.773 607.333 143.467 607.333 143.091 607.333 142.714 607.036 142.409 606.667 142.409L598.667 142.409C598.298 142.409 598 142.714 598 143.091M598.667 139.68 601.333 139.68C601.702 139.68 602 139.376 602 138.998 602 138.621 601.702 138.316 601.333 138.316L598.667 138.316C598.298 138.316 598 138.621 598 138.998 598 139.376 598.298 139.68 598.667 139.68M604 150.593 598.667 150.593C598.298 150.593 598 150.899 598 151.275 598 151.652 598.298 151.958 598.667 151.958L604 151.958C604.369 151.958 604.667 151.652 604.667 151.275 604.667 150.899 604.369 150.593 604 150.593M606.667 146.5 598.667 146.5C598.298 146.5 598 146.806 598 147.182 598 147.56 598.298 147.865 598.667 147.865L606.667 147.865C607.036 147.865 607.333 147.56 607.333 147.182 607.333 146.806 607.036 146.5 606.667 146.5" fill="#FFFFFF" fill-rule="evenodd"/><path d="M352 234.574C352 219.934 363.864 208.066 378.5 208.066 393.135 208.066 405 219.934 405 234.574 405 249.214 393.135 261.082 378.5 261.082 363.864 261.082 352 249.214 352 234.574Z" stroke="#FFD9D9" stroke-width="6.16478" stroke-miterlimit="8" fill="#C00000" fill-rule="evenodd"/><path d="M381.057 246.642 377.074 236.966 391.299 222.737C391.299 222.737 381.057 246.642 381.057 246.642ZM366.437 232.017 390.333 221.771 376.11 236.001C376.11 236.001 366.437 232.017 366.437 232.017ZM394 219.751C394 219.375 393.694 219.069 393.318 219.069 393.214 219.069 393.117 219.097 393.028 219.141L393.025 219.136 364.419 231.399C364.418 231.399 364.415 231.401 364.412 231.402L364.389 231.413 364.39 231.416C364.161 231.527 364 231.756 364 232.027 364 232.337 364.21 232.589 364.493 232.672L364.49 232.683 375.753 237.322 380.39 248.589 380.401 248.585C380.485 248.869 380.736 249.078 381.046 249.078 381.317 249.078 381.547 248.917 381.657 248.688L381.661 248.689 381.671 248.666C381.672 248.663 381.674 248.662 381.674 248.659L393.935 220.044 393.926 220.04C393.969 219.953 394 219.857 394 219.751M374.91 241.576C374.721 241.576 374.55 241.652 374.426 241.776L372.382 243.823C372.258 243.945 372.182 244.117 372.182 244.305 372.182 244.681 372.487 244.987 372.864 244.987 373.051 244.987 373.222 244.91 373.346 244.787L375.392 242.74C375.515 242.618 375.59 242.447 375.59 242.258 375.59 241.882 375.286 241.576 374.91 241.576M374.91 238.849C374.91 238.472 374.604 238.165 374.228 238.165 374.039 238.165 373.868 238.243 373.746 238.365L366.926 245.186C366.804 245.311 366.728 245.481 366.728 245.668 366.728 246.046 367.033 246.35 367.41 246.35 367.597 246.35 367.768 246.275 367.892 246.151L374.71 239.33C374.833 239.207 374.91 239.036 374.91 238.849M370.618 239.33 371.3 238.649C371.424 238.525 371.5 238.354 371.5 238.165 371.5 237.79 371.194 237.484 370.818 237.484 370.631 237.484 370.46 237.561 370.336 237.683L369.654 238.365C369.531 238.49 369.454 238.66 369.454 238.849 369.454 239.224 369.76 239.53 370.136 239.53 370.325 239.53 370.494 239.455 370.618 239.33" fill="#FFFFFF" fill-rule="evenodd"/><path d="M618 234.574C618 219.934 629.865 208.066 644.5 208.066 659.136 208.066 671 219.934 671 234.574 671 249.214 659.136 261.082 644.5 261.082 629.865 261.082 618 249.214 618 234.574Z" stroke="#F2F2F2" stroke-width="6.16478" stroke-miterlimit="8" fill="#262626" fill-rule="evenodd"/><g clip-path="url(#clip1)"><g clip-path="url(#clip2)"><g clip-path="url(#clip3)"><path d="M26.2933 25.3267 2.9 25.3267 3.67334 21.46C3.86666 20.3 4.64 19.43 5.70334 18.9467L9.95666 17.2067 10.15 17.4967C11.4067 18.85 12.9533 19.5267 14.5 19.5267 16.0467 19.5267 17.69 18.7533 18.85 17.4967L19.0433 17.2067 23.2967 18.9467C24.36 19.3333 25.1333 20.3 25.3267 21.46L26.2933 25.3267ZM4.06 24.36 25.1333 24.36 24.5533 21.6533C24.36 20.88 23.8767 20.2033 23.1033 19.9133L19.43 18.3667C18.0767 19.72 16.3367 20.4933 14.5967 20.4933 12.8567 20.4933 11.1167 19.72 9.76334 18.3667L6.09 19.9133C5.31666 20.2033 4.83334 20.88 4.64 21.6533L4.06 24.36ZM12.18 10.8267 13.1467 10.8267 13.1467 11.7933 12.18 11.7933ZM16.0467 10.8267 17.0133 10.8267 17.0133 11.7933 16.0467 11.7933Z" fill="#FFFFFF" transform="matrix(1 0 0 1.00032 631 219.069)"/><path d="M14.5967 18.56C12.18 18.56 10.0533 16.6267 9.18334 13.7267 8.41 13.7267 7.83 12.6633 7.83 11.31 7.83 10.2467 8.21666 9.37666 8.79666 8.99L8.79666 8.89334C8.79666 8.50666 8.79666 8.12 8.89334 7.63666L9.86 7.83C9.76334 8.21666 9.76334 8.50666 9.76334 8.89334L9.76334 9.18334 9.86 9.86 9.28 9.76334C9.18334 9.86 8.79666 10.3433 8.79666 11.2133 8.79666 12.18 9.18334 12.6633 9.28 12.6633L9.86 12.2767 10.0533 12.8567C10.73 15.5633 12.5667 17.4 14.5967 17.4 16.6267 17.4 18.4633 15.5633 19.14 12.8567L19.3333 12.18 19.9133 12.5667C20.1067 12.5667 20.3967 12.0833 20.3967 11.1167 20.3967 10.2467 20.1067 9.76334 19.9133 9.66666L19.3333 9.95666 19.43 9.28 19.43 8.99C19.43 8.7 19.43 8.31334 19.3333 7.92666L20.3 7.73334C20.3967 8.12 20.3967 8.50666 20.3967 8.99L20.3967 9.18334C20.9767 9.47334 21.3633 10.3433 21.3633 11.4067 21.3633 12.76 20.7833 13.7267 20.01 13.8233 19.14 16.6267 17.0133 18.56 14.5967 18.56Z" fill="#FFFFFF" transform="matrix(1 0 0 1.00032 631 219.069)"/><path d="M14.5967 9.86C11.31 9.86 9.47334 8.89334 8.99 8.02334L9.76334 7.54C10.15 8.12 11.6967 8.89334 14.5967 8.89334 17.4967 8.89334 19.0433 8.02334 19.43 7.54L20.2033 8.02334C19.72 8.89334 17.8833 9.86 14.5967 9.86Z" fill="#FFFFFF" transform="matrix(1 0 0 1.00032 631 219.069)"/><path d="M19.9133 7.92666 9.28 7.92666C8.50666 7.92666 7.83 7.25 7.83 6.47666L7.83 5.02666 8.31334 5.02666C8.79666 5.02666 9.66666 4.44666 10.5367 3.86666 11.7933 2.99666 13.1467 2.12667 14.5967 2.12667 16.0467 2.12667 17.4967 3.09334 18.6567 3.86666 19.5267 4.44666 20.3 5.02666 20.88 5.02666L21.3633 5.02666 21.3633 6.47666C21.3633 7.25 20.6867 7.92666 19.9133 7.92666ZM8.79666 5.99334 8.79666 6.57334C8.79666 6.86334 8.99 7.05666 9.28 7.05666L19.9133 7.05666C20.2033 7.05666 20.3967 6.86334 20.3967 6.57334L20.3967 5.99334C19.72 5.8 18.9467 5.31666 18.1733 4.73666 17.0133 3.96334 15.7567 3.09334 14.5967 3.09334 13.4367 3.09334 12.18 3.96334 11.02 4.73666 10.2467 5.31666 9.47334 5.8 8.79666 5.99334Z" fill="#FFFFFF" transform="matrix(1 0 0 1.00032 631 219.069)"/><path d="M14.5967 5.99334C14.0167 5.99334 13.63 5.60666 13.63 5.02666L13.63 4.06 15.5633 4.06 15.5633 5.02666C15.5633 5.60666 15.1767 5.99334 14.5967 5.99334ZM19.9133 23.5867 18.4633 22.1367 18.4633 20.4933 21.3633 20.4933 21.3633 22.1367 19.9133 23.5867ZM19.43 21.75 19.9133 22.2333 20.3967 21.75 20.3967 21.46 19.43 21.46 19.43 21.75ZM12.6633 20.01 13.63 20.01 13.63 24.8433 12.6633 24.8433ZM15.5633 20.01 16.53 20.01 16.53 24.8433 15.5633 24.8433Z" fill="#FFFFFF" transform="matrix(1 0 0 1.00032 631 219.069)"/></g></g></g><path d="M586.279 347.654C576 337.195 576 320.137 586.279 309.553 596.679 299.094 613.443 299.094 623.722 309.553 634 320.137 634 337.195 623.722 347.654 613.443 358.113 596.679 358.113 586.279 347.654Z" stroke="#FFD9D9" stroke-width="6.16478" stroke-miterlimit="8" fill="#C00000" fill-rule="evenodd"/><g clip-path="url(#clip4)"><g clip-path="url(#clip5)"><g clip-path="url(#clip6)"><path d="M20.4696 10.9508C23.3337 10.9508 25.6923 13.3094 25.6923 16.1735 25.6923 19.0376 23.3337 21.3962 20.4696 21.3962" fill="#FFFFFF" transform="matrix(1.03093 0 0 1 592 313.099)"/><path d="M27.5455 9.26607C27.2928 9.01337 26.9559 9.01337 26.7032 9.26607L24.176 11.7932C23.3337 11.0351 22.2386 10.6139 21.0593 10.4454L21.0593 9.68727C21.0593 9.09762 20.8066 8.50793 20.3011 8.17098L17.774 6.14931C17.5213 5.89661 17.3528 5.55966 17.3528 5.22271L17.3528 2.19016C17.3528 1.6005 16.8474 1.09508 16.2577 1.09508L5.39117 1.09508C4.80151 1.09508 4.2961 1.6005 4.2961 2.19016L4.2961 29.8199C4.2961 30.4096 4.80151 30.915 5.39117 30.915L16.2577 30.915C16.8474 30.915 17.3528 30.4096 17.3528 29.8199L17.3528 28.2194C17.3528 27.5455 17.8582 27.0401 18.5321 27.0401L19.1218 27.0401C20.2169 27.0401 21.1435 26.1135 21.1435 25.0184L21.1435 21.9016C24.0076 21.5647 26.282 19.1218 26.282 16.1735 26.282 14.8257 25.8608 13.5622 25.0184 12.6356L27.6298 10.0242C27.7982 9.85573 27.7982 9.43456 27.5455 9.26607ZM19.8799 25.1027C19.8799 25.5238 19.543 25.945 19.0376 25.945L18.4479 25.945C17.1843 25.945 16.0893 27.0401 16.0893 28.3037L16.0893 29.8199 5.47541 29.8199 5.47541 9.26607 11.2035 9.26607 11.2035 19.7957C11.2035 20.1327 11.4562 20.3854 11.7932 20.3854 12.1301 20.3854 12.3828 20.1327 12.3828 19.7957L12.3828 8.67642C12.3828 8.33947 12.1301 8.08677 11.7932 8.08677L5.47541 8.08677 5.47541 2.2744 16.1735 2.2744 16.1735 5.22271C16.1735 5.98082 16.5104 6.65472 17.1001 7.07592L19.6272 9.09762C19.7957 9.26607 19.9642 9.51878 19.9642 9.68727L19.9642 25.1027ZM21.0593 20.7223 21.0593 11.6247C23.3337 11.8774 25.0184 13.8149 25.0184 16.1735 25.0184 18.5321 23.2494 20.4696 21.0593 20.7223Z" fill="#FFFFFF" transform="matrix(1.03093 0 0 1 592 313.099)"/></g></g></g></g></svg>