<svg width="978" height="418" xmlns="http://www.w3.org/2000/svg" xmlns:xlink="http://www.w3.org/1999/xlink" overflow="hidden"><defs><filter id="fx0" x="-10%" y="-10%" width="120%" height="120%" filterUnits="userSpaceOnUse" primitiveUnits="userSpaceOnUse"><feComponentTransfer color-interpolation-filters="sRGB"><feFuncR type="discrete" tableValues="0 0"/><feFuncG type="discrete" tableValues="0 0"/><feFuncB type="discrete" tableValues="0 0"/><feFuncA type="linear" slope="0.34902" intercept="0"/></feComponentTransfer><feGaussianBlur stdDeviation="1.4003 1.4015"/></filter><filter id="fx1" x="-10%" y="-10%" width="120%" height="120%" filterUnits="userSpaceOnUse" primitiveUnits="userSpaceOnUse"><feComponentTransfer color-interpolation-filters="sRGB"><feFuncR type="discrete" tableValues="0 0"/><feFuncG type="discrete" tableValues="0 0"/><feFuncB type="discrete" tableValues="0 0"/><feFuncA type="linear" slope="0.34902" intercept="0"/></feComponentTransfer><feGaussianBlur stdDeviation="1.4003 1.4015"/></filter><filter id="fx2" x="-10%" y="-10%" width="120%" height="120%" filterUnits="userSpaceOnUse" primitiveUnits="userSpaceOnUse"><feComponentTransfer color-interpolation-filters="sRGB"><feFuncR type="discrete" tableValues="0 0"/><feFuncG type="discrete" tableValues="0 0"/><feFuncB type="discrete" tableValues="0 0"/><feFuncA type="linear" slope="0.34902" intercept="0"/></feComponentTransfer><feGaussianBlur stdDeviation="1.4003 1.4015"/></filter><filter id="fx3" x="-10%" y="-10%" width="120%" height="120%" filterUnits="userSpaceOnUse" primitiveUnits="userSpaceOnUse"><feComponentTransfer color-interpolation-filters="sRGB"><feFuncR type="discrete" tableValues="0 0"/><feFuncG type="discrete" tableValues="0 0"/><feFuncB type="discrete" tableValues="0 0"/><feFuncA type="linear" slope="0.34902" intercept="0"/></feComponentTransfer><feGaussianBlur stdDeviation="1.4003 1.4015"/></filter><filter id="fx4" x="-10%" y="-10%" width="120%" height="120%" filterUnits="userSpaceOnUse" primitiveUnits="userSpaceOnUse"><feComponentTransfer color-interpolation-filters="sRGB"><feFuncR type="discrete" tableValues="0 0"/><feFuncG type="discrete" tableValues="0 0"/><feFuncB type="discrete" tableValues="0 0"/><feFuncA type="linear" slope="0.34902" intercept="0"/></feComponentTransfer><feGaussianBlur stdDeviation="1.4003 1.4015"/></filter><filter id="fx5" x="-10%" y="-10%" width="120%" height="120%" filterUnits="userSpaceOnUse" primitiveUnits="userSpaceOnUse"><feComponentTransfer color-interpolation-filters="sRGB"><feFuncR type="discrete" tableValues="0 0"/><feFuncG type="discrete" tableValues="0 0"/><feFuncB type="discrete" tableValues="0 0"/><feFuncA type="linear" slope="0.34902" intercept="0"/></feComponentTransfer><feGaussianBlur stdDeviation="1.4003 1.4015"/></filter><filter id="fx6" x="-10%" y="-10%" width="120%" height="120%" filterUnits="userSpaceOnUse" primitiveUnits="userSpaceOnUse"><feComponentTransfer color-interpolation-filters="sRGB"><feFuncR type="discrete" tableValues="0 0"/><feFuncG type="discrete" tableValues="0 0"/><feFuncB type="discrete" tableValues="0 0"/><feFuncA type="linear" slope="0.34902" intercept="0"/></feComponentTransfer><feGaussianBlur stdDeviation="1.4003 1.4015"/></filter><filter id="fx7" x="-10%" y="-10%" width="120%" height="120%" filterUnits="userSpaceOnUse" primitiveUnits="userSpaceOnUse"><feComponentTransfer color-interpolation-filters="sRGB"><feFuncR type="discrete" tableValues="0 0"/><feFuncG type="discrete" tableValues="0 0"/><feFuncB type="discrete" tableValues="0 0"/><feFuncA type="linear" slope="0.34902" intercept="0"/></feComponentTransfer><feGaussianBlur stdDeviation="1.4003 1.4015"/></filter><filter id="fx8" x="-10%" y="-10%" width="120%" height="120%" filterUnits="userSpaceOnUse" primitiveUnits="userSpaceOnUse"><feComponentTransfer color-interpolation-filters="sRGB"><feFuncR type="discrete" tableValues="0 0"/><feFuncG type="discrete" tableValues="0 0"/><feFuncB type="discrete" tableValues="0 0"/><feFuncA type="linear" slope="0.380392" intercept="0"/></feComponentTransfer><feGaussianBlur stdDeviation="1.4003 1.4015"/></filter><filter id="fx9" x="-10%" y="-10%" width="120%" height="120%" filterUnits="userSpaceOnUse" primitiveUnits="userSpaceOnUse"><feComponentTransfer color-interpolation-filters="sRGB"><feFuncR type="discrete" tableValues="0 0"/><feFuncG type="discrete" tableValues="0 0"/><feFuncB type="discrete" tableValues="0 0"/><feFuncA type="linear" slope="0.380392" intercept="0"/></feComponentTransfer><feGaussianBlur stdDeviation="1.4003 1.4015"/></filter><filter id="fx10" x="-10%" y="-10%" width="120%" height="120%" filterUnits="userSpaceOnUse" primitiveUnits="userSpaceOnUse"><feComponentTransfer color-interpolation-filters="sRGB"><feFuncR type="discrete" tableValues="0 0"/><feFuncG type="discrete" tableValues="0 0"/><feFuncB type="discrete" tableValues="0 0"/><feFuncA type="linear" slope="0.380392" intercept="0"/></feComponentTransfer><feGaussianBlur stdDeviation="1.4003 1.4015"/></filter><filter id="fx11" x="-10%" y="-10%" width="120%" height="120%" filterUnits="userSpaceOnUse" primitiveUnits="userSpaceOnUse"><feComponentTransfer color-interpolation-filters="sRGB"><feFuncR type="discrete" tableValues="0 0"/><feFuncG type="discrete" tableValues="0 0"/><feFuncB type="discrete" tableValues="0 0"/><feFuncA type="linear" slope="0.380392" intercept="0"/></feComponentTransfer><feGaussianBlur stdDeviation="1.4003 1.4015"/></filter><filter id="fx12" x="-10%" y="-10%" width="120%" height="120%" filterUnits="userSpaceOnUse" primitiveUnits="userSpaceOnUse"><feComponentTransfer color-interpolation-filters="sRGB"><feFuncR type="discrete" tableValues="0 0"/><feFuncG type="discrete" tableValues="0 0"/><feFuncB type="discrete" tableValues="0 0"/><feFuncA type="linear" slope="0.380392" intercept="0"/></feComponentTransfer><feGaussianBlur stdDeviation="1.4003 1.4015"/></filter><filter id="fx13" x="-10%" y="-10%" width="120%" height="120%" filterUnits="userSpaceOnUse" primitiveUnits="userSpaceOnUse"><feComponentTransfer color-interpolation-filters="sRGB"><feFuncR type="discrete" tableValues="0 0"/><feFuncG type="discrete" tableValues="0 0"/><feFuncB type="discrete" tableValues="0 0"/><feFuncA type="linear" slope="0.34902" intercept="0"/></feComponentTransfer><feGaussianBlur stdDeviation="1.4003 1.4015"/></filter><filter id="fx14" x="-10%" y="-10%" width="120%" height="120%" filterUnits="userSpaceOnUse" primitiveUnits="userSpaceOnUse"><feComponentTransfer color-interpolation-filters="sRGB"><feFuncR type="discrete" tableValues="0 0"/><feFuncG type="discrete" tableValues="0 0"/><feFuncB type="discrete" tableValues="0 0"/><feFuncA type="linear" slope="0.380392" intercept="0"/></feComponentTransfer><feGaussianBlur stdDeviation="1.4003 1.4015"/></filter><clipPath id="clip15"><rect x="0" y="0" width="978" height="418"/></clipPath><clipPath id="clip16"><path d="M204.444 25.5219C197.848 25.5219 192.5 30.8739 192.5 37.476L192.5 134.671C192.5 141.273 197.848 146.625 204.444 146.625L356.556 146.625C363.153 146.625 368.5 141.273 368.5 134.671L368.5 37.476C368.5 30.8739 363.153 25.5219 356.556 25.5219ZM1.45733e-05 6.22869e-06 978 6.22869e-06 978 418 1.45733e-05 418Z" fill-rule="evenodd" clip-rule="evenodd"/></clipPath><clipPath id="clip17"><rect x="1" y="1" width="187" height="133"/></clipPath><clipPath id="clip18"><rect x="0" y="0" width="189" height="135"/></clipPath><clipPath id="clip19"><rect x="15" y="11" width="149" height="55"/></clipPath><clipPath id="clip20"><rect x="0" y="0" width="180" height="81"/></clipPath><linearGradient x1="280.5" y1="146.625" x2="280.5" y2="25.5219" gradientUnits="userSpaceOnUse" spreadMethod="reflect" id="fill21"><stop offset="0" stop-color="#2C5D98"/><stop offset="0.8" stop-color="#3C7BC7"/><stop offset="1" stop-color="#3A7CCB"/></linearGradient><clipPath id="clip22"><path d="M735.444 25.5219C728.847 25.5219 723.5 30.8739 723.5 37.4759L723.5 134.671C723.5 141.273 728.847 146.625 735.444 146.625L888.556 146.625C895.153 146.625 900.5 141.273 900.5 134.671L900.5 37.4759C900.5 30.8739 895.153 25.5219 888.556 25.5219ZM1.45733e-05 6.22869e-06 978 6.22869e-06 978 418 1.45733e-05 418Z" fill-rule="evenodd" clip-rule="evenodd"/></clipPath><clipPath id="clip23"><rect x="1" y="1" width="189" height="133"/></clipPath><clipPath id="clip24"><rect x="0" y="0" width="190" height="135"/></clipPath><clipPath id="clip25"><rect x="15" y="11" width="137" height="55"/></clipPath><clipPath id="clip26"><rect x="0" y="0" width="167" height="81"/></clipPath><linearGradient x1="812" y1="146.625" x2="812" y2="25.5219" gradientUnits="userSpaceOnUse" spreadMethod="reflect" id="fill27"><stop offset="0" stop-color="#2C5D98"/><stop offset="0.8" stop-color="#3C7BC7"/><stop offset="1" stop-color="#3A7CCB"/></linearGradient><clipPath id="clip28"><path d="M280.5 274.735C236.317 274.735 200.5 280.952 200.5 288.622L200.5 371.943C200.5 379.613 236.317 385.83 280.5 385.83 324.683 385.83 360.5 379.613 360.5 371.943L360.5 288.622C360.5 280.952 324.683 274.735 280.5 274.735ZM1.45733e-05 6.22869e-06 978 6.22869e-06 978 418 1.45733e-05 418Z" fill-rule="evenodd" clip-rule="evenodd"/></clipPath><clipPath id="clip29"><rect x="1" y="-1" width="171" height="125"/></clipPath><clipPath id="clip30"><rect x="0" y="0" width="173" height="124"/></clipPath><clipPath id="clip31"><rect x="15" y="11" width="81" height="37"/></clipPath><clipPath id="clip32"><rect x="0" y="0" width="112" height="62"/></clipPath><linearGradient x1="280.5" y1="385.83" x2="280.5" y2="274.735" gradientUnits="userSpaceOnUse" spreadMethod="reflect" id="fill33"><stop offset="0" stop-color="#9B2D2A"/><stop offset="0.8" stop-color="#CB3D3A"/><stop offset="1" stop-color="#CE3B37"/></linearGradient><linearGradient x1="280.5" y1="385.83" x2="280.5" y2="274.735" gradientUnits="userSpaceOnUse" spreadMethod="reflect" id="fill34"><stop offset="0" stop-color="#C3817F"/><stop offset="0.8" stop-color="#E08B89"/><stop offset="1" stop-color="#E28987"/></linearGradient><clipPath id="clip35"><path d="M812 274.735C753.182 274.735 705.5 280.952 705.5 288.622L705.5 371.943C705.5 379.613 753.182 385.83 812 385.83 870.818 385.83 918.5 379.613 918.5 371.943L918.5 288.622C918.5 280.952 870.818 274.735 812 274.735ZM1.45733e-05 6.22869e-06 978 6.22869e-06 978 418 1.45733e-05 418Z" fill-rule="evenodd" clip-rule="evenodd"/></clipPath><clipPath id="clip36"><rect x="-1" y="-1" width="227" height="125"/></clipPath><clipPath id="clip37"><rect x="0" y="0" width="226" height="124"/></clipPath><clipPath id="clip38"><rect x="17" y="11" width="195" height="31"/></clipPath><clipPath id="clip39"><rect x="0" y="0" width="227" height="62"/></clipPath><linearGradient x1="812" y1="385.83" x2="812" y2="274.735" gradientUnits="userSpaceOnUse" spreadMethod="reflect" id="fill40"><stop offset="0" stop-color="#2787A0"/><stop offset="0.8" stop-color="#36B1D2"/><stop offset="1" stop-color="#34B3D6"/></linearGradient><linearGradient x1="812" y1="385.83" x2="812" y2="274.735" gradientUnits="userSpaceOnUse" spreadMethod="reflect" id="fill41"><stop offset="0" stop-color="#7DB7C6"/><stop offset="0.8" stop-color="#86D0E4"/><stop offset="1" stop-color="#85D1E6"/></linearGradient><clipPath id="clip42"><rect x="-1" y="5" width="141" height="19"/></clipPath><clipPath id="clip43"><rect x="0" y="0" width="148" height="28"/></clipPath><clipPath id="clip44"><path d="M44 65.5561C32.6782 65.5561 23.5 74.5181 23.5 85.5732 23.5 96.6284 32.6782 105.59 44 105.59 55.3218 105.59 64.5 96.6284 64.5 85.5732 64.5 74.5181 55.3218 65.5561 44 65.5561ZM1.45733e-05 6.22869e-06 978 6.22869e-06 978 418 1.45733e-05 418Z" fill-rule="evenodd" clip-rule="evenodd"/></clipPath><clipPath id="clip45"><rect x="-1" y="1" width="55" height="53"/></clipPath><clipPath id="clip46"><rect x="0" y="0" width="54" height="53"/></clipPath><linearGradient x1="44" y1="105.59" x2="44" y2="65.5561" gradientUnits="userSpaceOnUse" spreadMethod="reflect" id="fill47"><stop offset="0" stop-color="#BCBCBC"/><stop offset="0.35" stop-color="#D0D0D0"/><stop offset="1" stop-color="#EDEDED"/></linearGradient><clipPath id="clip48"><rect x="3" y="1" width="21" height="139"/></clipPath><clipPath id="clip49"><rect x="0" y="0" width="28" height="149"/></clipPath><clipPath id="clip50"><rect x="1" y="9" width="129" height="145"/></clipPath><clipPath id="clip51"><rect x="0" y="0" width="138" height="153"/></clipPath><clipPath id="clip52"><rect x="3" y="1" width="21" height="139"/></clipPath><clipPath id="clip53"><rect x="0" y="0" width="28" height="149"/></clipPath><clipPath id="clip54"><path d="M486.5 161.638C481.529 161.638 477.5 177.77 477.5 197.669 477.5 217.568 481.529 233.7 486.5 233.7L602.5 233.7C607.47 233.7 611.5 217.569 611.5 197.669 611.5 177.77 607.47 161.638 602.5 161.638ZM1.45733e-05 6.22869e-06 978 6.22869e-06 978 418 1.45733e-05 418Z" fill-rule="evenodd" clip-rule="evenodd"/></clipPath><clipPath id="clip55"><rect x="-1" y="-1" width="147" height="85"/></clipPath><clipPath id="clip56"><rect x="0" y="0" width="147" height="85"/></clipPath><linearGradient x1="477.5" y1="197.669" x2="611.5" y2="197.669" gradientUnits="userSpaceOnUse" spreadMethod="reflect" id="fill57"><stop offset="0" stop-color="#CB6C1D"/><stop offset="0.8" stop-color="#FF8F2A"/><stop offset="1" stop-color="#FF8F26"/></linearGradient><linearGradient x1="477.5" y1="197.669" x2="611.5" y2="197.669" gradientUnits="userSpaceOnUse" spreadMethod="reflect" id="fill58"><stop offset="0" stop-color="#E0A777"/><stop offset="0.8" stop-color="#FFBC7F"/><stop offset="1" stop-color="#FFBC7D"/></linearGradient><clipPath id="clip59"><rect x="1" y="9" width="123" height="123"/></clipPath><clipPath id="clip60"><rect x="0" y="0" width="133" height="133"/></clipPath></defs><g clip-path="url(#clip15)"><rect x="0" y="0" width="978" height="418.358" fill="#FFFFFF"/><g clip-path="url(#clip16)"><g clip-path="url(#clip17)" filter="url(#fx0)" transform="translate(186 21)"><g clip-path="url(#clip18)"><path d="M6.50005 18.8936C6.50005 12.2915 11.8475 6.93946 18.4439 6.93946L170.556 6.93946C177.153 6.93946 182.5 12.2915 182.5 18.8936L182.5 116.089C182.5 122.691 177.153 128.043 170.556 128.043L18.4439 128.043C11.8475 128.043 6.50005 122.691 6.50005 116.089Z" stroke="#4A7EBB" stroke-linejoin="round" stroke-miterlimit="10" fill="#FF0000" fill-rule="evenodd"/></g></g><g clip-path="url(#clip19)" filter="url(#fx1)" transform="translate(190 50)"><g clip-path="url(#clip20)"><path d="M1.58936 0 1.58936-16.5498 3.49658-16.5498 3.49658-8.95166C3.99561-9.75146 4.59717-10.4043 5.30127-10.9102 6.11475-11.4844 6.94531-11.7715 7.79297-11.7715 8.39453-11.7715 8.9585-11.6245 9.48486-11.3306 10.0522-11.0093 10.4556-10.5889 10.6948-10.0693 10.9204-9.57715 11.0605-8.97559 11.1152-8.26465 11.1289-8.03223 11.1357-7.41016 11.1357-6.39844L11.1357 0 9.22852 0 9.22852-6.63428C9.22852-7.50244 9.21143-8.0459 9.17725-8.26465 9.08838-8.91406 8.85938-9.38574 8.49023-9.67969 8.20312-9.90527 7.89209-10.0181 7.55713-10.0181 6.7915-10.0181 5.9917-9.63184 5.15771-8.85938 4.48096-8.23047 3.92725-7.50244 3.49658-6.67529L3.49658 0ZM19.1439 0.317871C17.4622 0.317871 16.1224-0.280273 15.1243-1.47656 14.1946-2.59766 13.7298-4.01611 13.7298-5.73193 13.7298-7.44775 14.1981-8.86279 15.1346-9.97705 16.1258-11.1733 17.4622-11.7715 19.1439-11.7715 20.8187-11.7715 22.1551-11.1733 23.1531-9.97705 24.0828-8.85596 24.5477-7.44092 24.5477-5.73193 24.5477-4.02295 24.0828-2.60449 23.1531-1.47656 22.1551-0.280273 20.8187 0.317871 19.1439 0.317871ZM19.1439-1.28174C20.2923-1.28174 21.1605-1.75913 21.7484-2.71392 22.2337-3.50507 22.4764-4.51108 22.4764-5.73193 22.4764-6.94595 22.2303-7.94854 21.7381-8.73969 21.1502-9.69448 20.2855-10.1719 19.1439-10.1719 17.9954-10.1719 17.1273-9.69785 16.5394-8.74979 16.0472-7.95874 15.8011-6.95279 15.8011-5.73193 15.8011-4.51108 16.0472-3.50507 16.5394-2.71392 17.1273-1.75913 17.9954-1.28174 19.1439-1.28174ZM36.8522-0.461426C35.6149 0.0581055 34.5758 0.317871 33.735 0.317871 31.9576 0.317871 30.7272-0.289833 30.0436-1.50524 29.7018-2.10616 29.5309-3.03484 29.5309-4.29126L29.5309-8.90039 26.67-8.90039 26.67-10.5 29.5309-10.5 29.5309-15.1143 31.4381-15.1143 31.4381-10.5 36.5343-10.5 36.5343-8.90039 31.4381-8.90039 31.4381-4.32923C31.4381-2.86346 31.8414-1.93628 32.6481-1.5477 33.0104-1.37039 33.441-1.28174 33.9401-1.28174 34.8629-1.28174 35.8336-1.56885 36.8522-2.14307ZM49.6284-0.758789C48.104-0.0341797 46.6616 0.328125 45.3012 0.328125 43.1684 0.328125 41.5961-0.663086 40.5844-2.64551 40.0922-3.5957 39.8461-4.61426 39.8461-5.70117 39.8461-6.74707 40.0717-7.73828 40.5229-8.6748 40.9946-9.65918 41.6491-10.4214 42.4865-10.9614 43.3239-11.5015 44.2553-11.7715 45.2807-11.7715 46.8803-11.7715 48.0664-11.1528 48.8388-9.91553 49.4746-8.89697 49.7924-7.5332 49.7924-5.82422L49.7924-5.41406 41.8969-5.41406C41.8969-4.67578 42.0439-3.98877 42.3378-3.35303 42.6591-2.64893 43.1137-2.11914 43.7016-1.76367 44.2416-1.43555 44.8569-1.27148 45.5473-1.27148 46.7778-1.27148 48.1381-1.68164 49.6284-2.50195ZM42.0097-6.83936 47.7211-6.83936 47.7211-7.11541C47.7211-7.97407 47.5195-8.6794 47.1162-9.2314 46.665-9.85838 46.0258-10.1719 45.1987-10.1719 43.5307-10.1719 42.4677-9.06104 42.0097-6.83936ZM56.0266 0 56.0266-14.9502 52.6018-14.9502 52.6018-16.5498 57.9338-16.5498 57.9338-1.59961 61.5125-1.59961 61.5125 0Z" fill="#FFFFFF" transform="matrix(1 0 0 1.00086 19.4625 33)"/><path d="M2.32764-5.6499 2.32764-7.23926 10.2847-7.23926 10.2847-5.6499Z" fill="#FFFFFF" transform="matrix(1 0 0 1.00086 83.6511 33)"/><path d="M9.12598-2.57373C8.64062-1.78076 8.02881-1.11768 7.29053-0.584473 6.45654 0.0170898 5.61914 0.317871 4.77832 0.317871 3.54102 0.317871 2.58398-0.232422 1.90723-1.33301 1.33984-2.25586 1.05615-3.37354 1.05615-4.68604 1.05615-7.37256 1.98584-9.38232 3.84521-10.7153 4.69287-11.3169 5.74219-11.6177 6.99316-11.6177 7.37598-11.6177 7.92285-11.5801 8.63379-11.5049 8.72266-11.498 8.88672-11.481 9.12598-11.4536L11.0435-11.4536 11.0435-3.36328C11.0435-1.98242 11.187-0.861328 11.4741 0L9.48486 0C9.33447-0.628906 9.21484-1.48682 9.12598-2.57373ZM9.12598-4.83984 9.12598-9.75146C8.44922-9.9292 7.82031-10.0181 7.23926-10.0181 5.91309-10.0181 4.87402-9.48828 4.12207-8.42871 3.45898-7.48535 3.12744-6.32324 3.12744-4.94238 3.12744-4.11523 3.271-3.38379 3.55811-2.74805 3.93408-1.9209 4.49121-1.50732 5.22949-1.50732 5.94727-1.50732 6.71289-1.90723 7.52637-2.70703 8.13477-3.30859 8.66797-4.01953 9.12598-4.83984ZM22.0867-2.57373C21.6014-1.78076 20.9896-1.11768 20.2513-0.584473 19.4173 0.0170898 18.5799 0.317871 17.7391 0.317871 16.5018 0.317871 15.5447-0.232422 14.868-1.33301 14.3006-2.25586 14.0169-3.37354 14.0169-4.68604 14.0169-7.37256 14.9466-9.38232 16.806-10.7153 17.6536-11.3169 18.7029-11.6177 19.9539-11.6177 20.3367-11.6177 20.8836-11.5801 21.5945-11.5049 21.6834-11.498 21.8475-11.481 22.0867-11.4536L22.0867-16.5498 24.0042-16.5498 24.0042 0 22.0867 0ZM22.0867-4.83984 22.0867-9.75146C21.41-9.9292 20.7811-10.0181 20.2-10.0181 18.8738-10.0181 17.8348-9.48828 17.0828-8.42871 16.4197-7.48535 16.0882-6.32324 16.0882-4.94238 16.0882-4.11523 16.2318-3.38379 16.5189-2.74805 16.8948-1.9209 17.452-1.50732 18.1902-1.50732 18.908-1.50732 19.6736-1.90723 20.4871-2.70703 21.0955-3.30859 21.6287-4.01953 22.0867-4.83984ZM26.4034 0 26.4034-11.4536 28.0748-11.4536 28.0748-8.82861C29.0065-10.7905 29.9588-11.7715 30.9317-11.7715 31.5756-11.7715 32.0586-11.5015 32.3807-10.9614 32.6478-10.5171 32.7814-9.95312 32.7814-9.26953L32.7814-8.6543C33.1702-9.87109 33.7705-10.7837 34.5822-11.3921 34.9233-11.645 35.3155-11.7715 35.7589-11.7715 36.9457-11.7715 37.5392-10.7324 37.5392-8.6543L37.5392 0 35.8678 0 35.8678-7.82373C35.8678-8.85596 35.7656-9.47461 35.5611-9.67969 35.4385-9.80273 35.3057-9.86426 35.1627-9.86426 34.3654-9.86426 33.5717-8.69189 32.7814-6.34717L32.7814 0 31.1715 0 31.1715-7.81348C31.1715-9.18066 30.8947-9.86426 30.3409-9.86426 29.6574-9.86426 28.902-8.78076 28.0748-6.61377L28.0748 0ZM43.3222 0 43.3222-9.854 40.1435-9.854 40.1435-11.4536 45.2294-11.4536 45.2294-1.59961 48.4184-1.59961 48.4184 0ZM43.0043-15.5859C43.0043-15.9414 43.1274-16.2439 43.3735-16.4934 43.6196-16.7429 43.9204-16.8677 44.2758-16.8677 44.6313-16.8677 44.9338-16.7429 45.1833-16.4934 45.4328-16.2439 45.5576-15.9414 45.5576-15.5859 45.5576-15.2373 45.4328-14.9382 45.1833-14.6887 44.9338-14.4392 44.6313-14.3145 44.2758-14.3145 43.9272-14.3145 43.6281-14.4392 43.3786-14.6887 43.1291-14.9382 43.0043-15.2373 43.0043-15.5859ZM52.9402 0 52.9402-11.4536 54.8474-11.4536 54.8474-8.95166C55.3464-9.75146 55.948-10.4043 56.6521-10.9102 57.4656-11.4844 58.2962-11.7715 59.1438-11.7715 59.8069-11.7715 60.417-11.5972 60.9741-11.2485 61.5313-10.8999 61.9226-10.4299 62.1482-9.83862 62.3738-9.24731 62.4866-8.10059 62.4866-6.39844L62.4866 0 60.5794 0 60.5794-6.63428C60.5794-7.50244 60.5623-8.0459 60.5281-8.26465 60.4392-8.91406 60.2102-9.38574 59.8411-9.67969 59.554-9.90527 59.2429-10.0181 58.908-10.0181 58.1423-10.0181 57.3425-9.63184 56.5086-8.85938 55.8318-8.23047 55.2781-7.50244 54.8474-6.67529L54.8474 0Z" fill="#FFFFFF" transform="matrix(1 0 0 1.00086 96.4888 33)"/><path d="M19.7695-14.4375C18.8398-14.4922 17.4453-14.5195 15.5859-14.5195L15.5859-11.9766 19.1133-11.9766C19.0586-10.2266 19.0312-7.92969 19.0312-5.08594 19.0312-2.24219 19.0586 0.109375 19.1133 1.96875L17.5547 1.96875 17.5547 0.65625 8.61328 0.65625 8.61328 1.96875 7.05469 1.96875C7.10937 0.109375 7.13672-2.24219 7.13672-5.08594 7.13672-7.98437 7.10937-10.2812 7.05469-11.9766L10.7461-11.9766 10.7461-14.5195C9.10547-14.5195 7.62891-14.4922 6.31641-14.4375L6.31641-15.9961C7.62891-15.9414 9.95312-15.9141 13.2891-15.9141 16.625-15.9141 18.7852-15.9414 19.7695-15.9961ZM17.5547-4.18359 17.5547-5.98828 15.832-5.98828C14.6836-5.98828 14.1094-6.58984 14.1094-7.79297L14.1094-10.6641 12.2227-10.6641C12.168-9.24219 11.9902-8.12109 11.6895-7.30078 11.3887-6.48047 10.9922-5.76953 10.5-5.16797 10.1172-5.55078 9.625-5.82422 9.02344-5.98828 9.51562-6.53516 9.92578-7.17773 10.2539-7.91602 10.582-8.6543 10.7461-9.57031 10.7461-10.6641L8.61328-10.6641 8.61328-4.18359ZM17.5547-0.738281 17.5547-2.70703 8.61328-2.70703 8.61328-0.738281ZM5.82422-5.25C5.60547-4.97656 5.22266-4.29297 4.67578-3.19922 4.12891-2.10547 3.39062-0.519531 2.46094 1.55859 2.02344 1.12109 1.44922 0.683594 0.738281 0.246094 1.23047-0.355469 1.77734-1.2168 2.37891-2.33789 2.98047-3.45898 3.52734-4.83984 4.01953-6.48047 4.56641-6.09766 5.16797-5.6875 5.82422-5.25ZM2.13281-12.1406C3.71875-11.1562 4.89453-10.4453 5.66016-10.0078 5.11328-9.46094 4.67578-8.88672 4.34766-8.28516 3.91016-8.77734 2.78906-9.57031 0.984375-10.6641 1.36719-11.1016 1.75-11.5938 2.13281-12.1406ZM15.5859-8.61328C15.5859-7.95703 15.668-7.57422 15.832-7.46484 15.9961-7.35547 16.5703-7.30078 17.5547-7.30078L17.5547-10.6641 15.5859-10.6641ZM3.11719-17.0625C4.64844-16.0781 5.66016-15.3945 6.15234-15.0117 5.71484-14.5742 5.30469-14.082 4.92188-13.5352 4.48438-14.0273 3.52734-14.7109 2.05078-15.5859 2.54297-16.0781 2.89844-16.5703 3.11719-17.0625ZM14.1094-11.9766 14.1094-14.5195 12.2227-14.5195 12.2227-11.9766ZM33.8094-12.7969C33.7547-11.9219 33.7273-11.0742 33.7273-10.2539L38.075-10.2539C38.95-10.2539 39.7156-10.2812 40.3719-10.3359L40.3719-8.77734C39.7703-8.83203 39.0047-8.85938 38.075-8.85938L33.7273-8.85938 33.7273-6.07031 39.1414-6.07031C39.0867-4.64844 39.0594-3.33594 39.0594-2.13281 39.0594-0.929688 39.0867 0.355469 39.1414 1.72266L37.4187 1.72266 37.4187 0.246094 29.2156 0.246094 29.2156 1.80469 27.575 1.80469C27.6297 0.273438 27.657-1.09375 27.657-2.29688 27.657-3.55469 27.6297-4.8125 27.575-6.07031L32.0867-6.07031 32.0867-10.1719C32.0867-11.1016 32.0594-11.9766 32.0047-12.7969ZM32.6609-17.2266C33.0437-16.2969 33.3719-15.4219 33.6453-14.6016L36.5164-14.6016C37.9383-14.6016 39.1687-14.6289 40.2078-14.6836L40.2078-13.207C39.2234-13.2617 38.2117-13.2891 37.1726-13.2891L26.1805-13.2891C26.1805-9.78906 26.1531-7.39648 26.0984-6.11133 26.0437-4.82617 25.8797-3.51367 25.6062-2.17383 25.3328-0.833984 24.8953 0.464844 24.2937 1.72266 23.8015 1.33984 23.2273 1.01172 22.5711 0.738281 23.3914-0.519531 23.9246-1.92773 24.1707-3.48633 24.4168-5.04492 24.5535-6.74023 24.5808-8.57227 24.6082-10.4043 24.5672-12.4141 24.4578-14.6016L31.6765-14.6016C31.5672-15.0937 31.3211-15.7773 30.9383-16.6523 31.4851-16.7617 32.0594-16.9531 32.6609-17.2266ZM37.4187-1.06641 37.4187-4.67578 29.2156-4.67578 29.2156-1.06641ZM59.0054-8.36719C58.9507-7.49219 58.9234-6.83594 58.9234-6.39844 58.9234-6.01562 58.9507-5.41406 59.0054-4.59375L48.9156-4.59375 48.9156-3.19922 59.8257-3.19922C59.7711-1.99609 59.7437-1.09375 59.7437-0.492188 59.7437 0.0546875 59.7711 0.820312 59.8257 1.80469L58.1851 1.80469 58.1851 0.984375 48.9156 0.984375 48.9156 2.05078 47.1929 2.05078C47.2476 0.628906 47.275-0.21875 47.275-0.492188L47.275-5.66016C47.275-6.58984 47.2476-7.49219 47.1929-8.36719ZM53.1812-13.2891C53.8375-12.0312 54.2203-11.2656 54.3297-10.9922L62.3687-10.9922C62.314-10.2266 62.2867-9.65234 62.2867-9.26953 62.2867-8.94141 62.314-8.44922 62.3687-7.79297L60.564-7.79297 60.564-9.67969 45.7164-9.67969 45.7164-7.71094 43.9117-7.71094C43.9664-8.20312 43.9937-8.69531 43.9937-9.1875 43.9937-9.67969 43.9664-10.2812 43.9117-10.9922L52.4429-10.9922C52.2789-11.4297 52.0054-11.9766 51.6226-12.6328 52.1695-12.7422 52.689-12.9609 53.1812-13.2891ZM53.3453-14.0273C52.4703-14.082 51.4586-14.1094 50.3101-14.1094L51.1304-12.4688C50.4742-12.3047 49.9-12.1133 49.4078-11.8945 49.2437-12.6602 49.025-13.3984 48.7515-14.1094L47.6851-14.1094C47.1929-13.5078 46.7691-13.0293 46.4136-12.6738 46.0582-12.3184 45.6343-11.9492 45.1422-11.5664 44.814-12.0039 44.3218-12.3867 43.6656-12.7148 44.814-13.4805 45.689-14.2461 46.2906-15.0117 46.8922-15.7773 47.3297-16.5703 47.6031-17.3906 48.0953-17.1719 48.7789-16.9531 49.6539-16.7344 49.2711-16.3516 48.9156-15.9141 48.5875-15.4219L51.2945-15.4219C51.9507-15.4219 52.6343-15.4492 53.3453-15.5039ZM58.8414-11.8125C58.6773-12.5781 58.4312-13.3437 58.1031-14.1094L56.5445-14.1094C56.0523-13.3437 55.6422-12.7148 55.314-12.2227 54.7125-12.5508 54.1656-12.8516 53.6734-13.125 54.3297-13.7266 54.8492-14.3691 55.232-15.0527 55.6148-15.7363 55.9156-16.4883 56.1343-17.3086 56.7359-17.0898 57.4195-16.8984 58.1851-16.7344 57.7476-16.3516 57.4195-15.9141 57.2007-15.4219L60.4-15.4219C60.8922-15.4219 61.6851-15.4492 62.7789-15.5039L62.7789-14.0273C61.9586-14.082 60.9195-14.1094 59.6617-14.1094L60.482-12.4688ZM58.1851-0.246094 58.1851-1.88672 48.9156-1.88672 48.9156-0.246094ZM57.3648-5.82422 57.3648-7.13672 48.9156-7.13672 48.9156-5.82422ZM83.1351-15.9141C83.0804-15.2031 83.0531-13.6445 83.0531-11.2383 83.0531-8.88672 83.0804-7.19141 83.1351-6.15234L78.6234-6.15234 78.6234-3.69141 81.0843-3.69141C82.0687-3.69141 82.8343-3.71875 83.3812-3.77344L83.3812-2.29688C82.7796-2.35156 82.014-2.37891 81.0843-2.37891L78.6234-2.37891 78.6234 0.410156 81.5765 0.410156C82.6156 0.410156 83.4906 0.382812 84.2015 0.328125L84.2015 1.80469C83.4906 1.75 82.6429 1.72266 81.6585 1.72266L73.7015 1.72266C72.8265 1.72266 72.0609 1.75 71.4046 1.80469L71.4046 0.328125C72.1156 0.382812 72.8812 0.410156 73.7015 0.410156L77.0648 0.410156 77.0648-2.37891 74.3578-2.37891C73.6468-2.37891 73.0179-2.35156 72.471-2.29688L72.471-3.77344C73.0179-3.71875 73.6468-3.69141 74.3578-3.69141L77.0648-3.69141 77.0648-6.15234 72.6351-6.15234C72.6898-6.97266 72.7171-8.64062 72.7171-11.1562 72.7171-13.6719 72.6898-15.2578 72.6351-15.9141ZM69.764-14.8477C70.3656-14.8477 71.0218-14.875 71.7328-14.9297L71.7328-13.3711C70.9671-13.4258 70.3109-13.4531 69.764-13.4531L69.0257-13.4531 69.0257-9.02344C69.7914-9.02344 70.557-9.05078 71.3226-9.10547L71.3226-7.54688C70.557-7.60156 69.7914-7.62891 69.0257-7.62891L69.0257-2.37891C70.0648-2.76172 70.9398-3.11719 71.6507-3.44531 71.7601-2.89844 71.8695-2.43359 71.9789-2.05078 70.9398-1.72266 69.7777-1.29883 68.4925-0.779297 67.2074-0.259766 66.2093 0.21875 65.4984 0.65625 65.2796 0.109375 65.0335-0.464844 64.7601-1.06641 65.471-1.17578 66.4007-1.47656 67.5492-1.96875L67.5492-7.62891C66.5648-7.62891 65.7171-7.60156 65.0062-7.54688L65.0062-9.10547C65.7718-9.05078 66.6195-9.02344 67.5492-9.02344L67.5492-13.4531 66.5648-13.4531C66.0726-13.4531 65.471-13.4258 64.7601-13.3711L64.7601-14.9297C65.471-14.875 66.0726-14.8477 66.5648-14.8477ZM81.4945-7.46484 81.4945-10.418 78.6234-10.418 78.6234-7.46484ZM81.4945-11.6484 81.4945-14.6016 78.6234-14.6016 78.6234-11.6484ZM77.0648-7.46484 77.0648-10.418 74.2757-10.418 74.2757-7.46484ZM77.0648-11.6484 77.0648-14.6016 74.2757-14.6016 74.2757-11.6484ZM97.5031 1.88672 95.9445 1.88672C95.9991 0.574219 96.0265-0.65625 96.0265-1.80469L96.0265-13.207C96.0265-14.1367 95.9991-15.1484 95.9445-16.2422L103.573-16.2422C103.519-15.4766 103.464-14.6426 103.409-13.7402 103.355-12.8379 103.273-12.1543 103.163-11.6895 103.054-11.2246 102.726-10.8828 102.179-10.6641 101.632-10.4453 100.921-10.2812 100.046-10.1719 99.882-10.8281 99.6359-11.375 99.3077-11.8125 100.675-11.8125 101.441-11.9629 101.605-12.2637 101.769-12.5645 101.851-13.4258 101.851-14.8477L97.5031-14.8477 97.5031-9.35156 104.312-9.35156C104.093-7.92969 103.819-6.6582 103.491-5.53711 103.163-4.41602 102.726-3.30859 102.179-2.21484 103.109-1.12109 104.175-0.300781 105.378 0.246094 104.995 0.574219 104.612 1.03906 104.23 1.64062 103.191 0.929688 102.206 0.0546875 101.276-0.984375 100.62-0.0546875 99.7179 0.929688 98.5695 1.96875 98.296 1.47656 97.9952 1.03906 97.6671 0.65625 98.4327 0.109375 99.2804-0.820312 100.21-2.13281 99.4991-3.0625 98.7882-5.00391 98.0773-7.95703L97.5031-7.95703ZM94.1398-16.1602C94.0851-15.7227 94.0577-14.7109 94.0577-13.125L94.0577-0.984375C94.0577 0.164062 93.8116 0.861328 93.3195 1.10742 92.8273 1.35352 92.1437 1.58594 91.2687 1.80469 91.0499 0.984375 90.7765 0.328125 90.4484-0.164062 91.214-0.164062 91.7609-0.191406 92.089-0.246094 92.4171-0.300781 92.5812-0.710938 92.5812-1.47656L92.5812-5.57812 89.382-5.57812C89.2726-4.21094 89.0812-2.95312 88.8077-1.80469 88.5343-0.65625 88.1515 0.464844 87.6593 1.55859 87.2218 1.17578 86.7023 0.847656 86.1007 0.574219 86.757-0.628906 87.2081-1.76367 87.4542-2.83008 87.7003-3.89648 87.8644-4.97656 87.9464-6.07031 88.0284-7.16406 88.0695-8.88672 88.0695-11.2383 88.0695-13.5898 88.0421-15.2305 87.9874-16.1602ZM92.5812-6.97266 92.5812-10.2539 89.546-10.2539 89.464-6.97266ZM92.5812-11.6484 92.5812-14.7656 89.546-14.7656 89.546-11.6484ZM99.5538-7.95703C99.9913-5.87891 100.511-4.375 101.112-3.44531 101.769-4.70312 102.234-6.20703 102.507-7.95703ZM116.055-16.2422C115.617-15.8594 115.234-15.4219 114.906-14.9297L124.012-14.9297C123.519-14.1094 122.877-13.2344 122.084-12.3047 121.291-11.375 120.293-10.5 119.09-9.67969 119.855-9.1875 120.894-8.81836 122.207-8.57227 123.519-8.32617 125.078-8.17578 126.883-8.12109 126.445-7.62891 126.144-7.05469 125.98-6.39844 124.449-6.50781 122.945-6.78125 121.469-7.21875 119.992-7.65625 118.762-8.17578 117.777-8.77734 116.027-7.95703 114.441-7.35547 113.019-6.97266 111.598-6.58984 110.203-6.28906 108.836-6.07031 108.617-6.72656 108.289-7.30078 107.851-7.79297 109.055-7.79297 110.422-7.95703 111.953-8.28516 113.484-8.61328 114.988-9.07812 116.465-9.67969 115.316-10.7734 114.332-11.8945 113.512-13.043 112.582-11.8945 111.625-10.9375 110.641-10.1719 110.258-10.6094 109.766-10.9375 109.164-11.1562 110.695-12.25 111.816-13.3027 112.527-14.3145 113.238-15.3262 113.758-16.2695 114.086-17.1445 114.797-16.7617 115.453-16.4609 116.055-16.2422ZM115.891-5.41406C116-6.07031 116.055-6.83594 116.055-7.71094 116.711-7.60156 117.367-7.51953 118.023-7.46484 117.859-7.13672 117.695-6.45312 117.531-5.41406L124.176-5.41406C124.121-4.75781 124.066-4.00586 124.012-3.1582 123.957-2.31055 123.861-1.39453 123.725-0.410156 123.588 0.574219 123.191 1.14844 122.535 1.3125 121.879 1.47656 120.84 1.64062 119.418 1.80469 119.309 1.09375 119.035 0.492187 118.598 0 120.184 0 121.141-0.0546875 121.469-0.164062 121.797-0.273438 122.016-0.574219 122.125-1.06641L122.371-4.18359 117.367-4.18359C116.601-1.83203 115.521-0.300781 114.127 0.410156 112.732 1.12109 111.242 1.75 109.656 2.29688 109.492 1.80469 109.109 1.23047 108.508 0.574219 109.82 0.464844 111.187 0.0546875 112.609-0.65625 114.031-1.36719 115.043-2.54297 115.644-4.18359L113.758-4.18359C112.117-4.18359 110.914-4.12891 110.148-4.01953L110.148-5.49609C110.969-5.44141 112.199-5.41406 113.84-5.41406ZM117.859-10.582C118.953-11.2383 120.019-12.2773 121.059-13.6992L114.906-13.6992C115.945-12.332 116.93-11.293 117.859-10.582Z" fill="#FFFFFF" transform="matrix(1 0 0 1.00086 26.0448 58)"/></g></g></g><path d="M192.5 37.476C192.5 30.8739 197.848 25.5219 204.444 25.5219L356.556 25.5219C363.153 25.5219 368.5 30.8739 368.5 37.476L368.5 134.671C368.5 141.273 363.153 146.625 356.556 146.625L204.444 146.625C197.848 146.625 192.5 141.273 192.5 134.671Z" stroke="#4A7EBB" stroke-width="1.00034" stroke-linejoin="round" stroke-miterlimit="10" fill="url(#fill21)" fill-rule="evenodd"/><text fill="#FFFFFF" font-family="Monaco,Monaco_MSFontService,sans-serif" font-weight="400" font-size="21" transform="matrix(1 0 0 1.00086 209.463 81)">hotel<tspan font-size="21" x="64.1885" y="0">-</tspan>admin<tspan font-family="SimHei,SimHei_MSFontService,sans-serif" font-size="21" x="6.58224" y="24.9786">酒店管理服务</tspan></text><g clip-path="url(#clip22)"><g clip-path="url(#clip23)" filter="url(#fx2)" transform="translate(717 21)"><g clip-path="url(#clip24)"><path d="M6.5 18.8935C6.5 12.2915 11.8474 6.93946 18.4438 6.93946L171.556 6.93946C178.153 6.93946 183.5 12.2915 183.5 18.8935L183.5 116.089C183.5 122.691 178.153 128.043 171.556 128.043L18.4438 128.043C11.8474 128.043 6.5 122.691 6.5 116.089Z" stroke="#4A7EBB" stroke-linejoin="round" stroke-miterlimit="10" fill="#FF0000" fill-rule="evenodd"/></g></g><g clip-path="url(#clip25)" filter="url(#fx3)" transform="translate(728 50)"><g clip-path="url(#clip26)"><path d="M1.58936 0 1.58936-16.5498 3.49658-16.5498 3.49658-8.95166C3.99561-9.75146 4.59717-10.4043 5.30127-10.9102 6.11475-11.4844 6.94531-11.7715 7.79297-11.7715 8.39453-11.7715 8.9585-11.6245 9.48486-11.3306 10.0522-11.0093 10.4556-10.5889 10.6948-10.0693 10.9204-9.57715 11.0605-8.97559 11.1152-8.26465 11.1289-8.03223 11.1357-7.41016 11.1357-6.39844L11.1357 0 9.22852 0 9.22852-6.63428C9.22852-7.50244 9.21143-8.0459 9.17725-8.26465 9.08838-8.91406 8.85938-9.38574 8.49023-9.67969 8.20312-9.90527 7.89209-10.0181 7.55713-10.0181 6.7915-10.0181 5.9917-9.63184 5.15771-8.85938 4.48096-8.23047 3.92725-7.50244 3.49658-6.67529L3.49658 0ZM19.1439 0.317871C17.4622 0.317871 16.1224-0.280273 15.1243-1.47656 14.1946-2.59766 13.7298-4.01611 13.7298-5.73193 13.7298-7.44775 14.1981-8.86279 15.1346-9.97705 16.1258-11.1733 17.4622-11.7715 19.1439-11.7715 20.8187-11.7715 22.1551-11.1733 23.1531-9.97705 24.0828-8.85596 24.5477-7.44092 24.5477-5.73193 24.5477-4.02295 24.0828-2.60449 23.1531-1.47656 22.1551-0.280273 20.8187 0.317871 19.1439 0.317871ZM19.1439-1.28174C20.2923-1.28174 21.1605-1.75913 21.7484-2.71392 22.2337-3.50507 22.4764-4.51108 22.4764-5.73193 22.4764-6.94595 22.2303-7.94854 21.7381-8.73969 21.1502-9.69448 20.2855-10.1719 19.1439-10.1719 17.9954-10.1719 17.1273-9.69785 16.5394-8.74979 16.0472-7.95874 15.8011-6.95279 15.8011-5.73193 15.8011-4.51108 16.0472-3.50507 16.5394-2.71392 17.1273-1.75913 17.9954-1.28174 19.1439-1.28174ZM36.8522-0.461426C35.6149 0.0581055 34.5758 0.317871 33.735 0.317871 31.9576 0.317871 30.7272-0.289833 30.0436-1.50524 29.7018-2.10616 29.5309-3.03484 29.5309-4.29126L29.5309-8.90039 26.67-8.90039 26.67-10.5 29.5309-10.5 29.5309-15.1143 31.4381-15.1143 31.4381-10.5 36.5343-10.5 36.5343-8.90039 31.4381-8.90039 31.4381-4.32923C31.4381-2.86346 31.8414-1.93628 32.6481-1.5477 33.0104-1.37039 33.441-1.28174 33.9401-1.28174 34.8629-1.28174 35.8336-1.56885 36.8522-2.14307ZM49.6284-0.758789C48.104-0.0341797 46.6616 0.328125 45.3012 0.328125 43.1684 0.328125 41.5961-0.663086 40.5844-2.64551 40.0922-3.5957 39.8461-4.61426 39.8461-5.70117 39.8461-6.74707 40.0717-7.73828 40.5229-8.6748 40.9946-9.65918 41.6491-10.4214 42.4865-10.9614 43.3239-11.5015 44.2553-11.7715 45.2807-11.7715 46.8803-11.7715 48.0664-11.1528 48.8388-9.91553 49.4746-8.89697 49.7924-7.5332 49.7924-5.82422L49.7924-5.41406 41.8969-5.41406C41.8969-4.67578 42.0439-3.98877 42.3378-3.35303 42.6591-2.64893 43.1137-2.11914 43.7016-1.76367 44.2416-1.43555 44.8569-1.27148 45.5473-1.27148 46.7778-1.27148 48.1381-1.68164 49.6284-2.50195ZM42.0097-6.83936 47.7211-6.83936 47.7211-7.11541C47.7211-7.97407 47.5195-8.6794 47.1162-9.2314 46.665-9.85838 46.0258-10.1719 45.1987-10.1719 43.5307-10.1719 42.4677-9.06104 42.0097-6.83936ZM56.0266 0 56.0266-14.9502 52.6018-14.9502 52.6018-16.5498 57.9338-16.5498 57.9338-1.59961 61.5125-1.59961 61.5125 0Z" fill="#FFFFFF" transform="matrix(1 0 0 1.00086 19.3456 33)"/><path d="M2.32764-5.6499 2.32764-7.23926 10.2847-7.23926 10.2847-5.6499Z" fill="#FFFFFF" transform="matrix(1 0 0 1.00086 83.5342 33)"/><path d="M9.24902-2.57373C8.76367-1.78076 8.15186-1.11768 7.41357-0.584473 6.57959 0.0170898 5.74219 0.317871 4.90137 0.317871 3.66406 0.317871 2.70703-0.232422 2.03027-1.33301 1.46289-2.25586 1.1792-3.37354 1.1792-4.68604 1.1792-7.37256 2.10889-9.38232 3.96826-10.7153 4.81592-11.3169 5.86523-11.6177 7.11621-11.6177 7.49902-11.6177 8.0459-11.5801 8.75684-11.5049 8.8457-11.498 9.00977-11.481 9.24902-11.4536L9.24902-16.5498 11.1665-16.5498 11.1665 0 9.24902 0ZM9.24902-4.83984 9.24902-9.75146C8.57227-9.9292 7.94336-10.0181 7.3623-10.0181 6.03613-10.0181 4.99707-9.48828 4.24512-8.42871 3.58203-7.48535 3.25049-6.32324 3.25049-4.94238 3.25049-4.11523 3.39404-3.38379 3.68115-2.74805 4.05713-1.9209 4.61426-1.50732 5.35254-1.50732 6.07031-1.50732 6.83594-1.90723 7.64941-2.70703 8.25781-3.30859 8.79102-4.01953 9.24902-4.83984ZM23.9529-0.758789C22.4285-0.0341797 20.9861 0.328125 19.6258 0.328125 17.493 0.328125 15.9207-0.663086 14.909-2.64551 14.4168-3.5957 14.1707-4.61426 14.1707-5.70117 14.1707-6.74707 14.3963-7.73828 14.8475-8.6748 15.3192-9.65918 15.9737-10.4214 16.8111-10.9614 17.6485-11.5015 18.5799-11.7715 19.6053-11.7715 21.2049-11.7715 22.3909-11.1528 23.1634-9.91553 23.7991-8.89697 24.117-7.5332 24.117-5.82422L24.117-5.41406 16.2215-5.41406C16.2215-4.67578 16.3685-3.98877 16.6624-3.35303 16.9837-2.64893 17.4383-2.11914 18.0262-1.76367 18.5662-1.43555 19.1815-1.27148 19.8719-1.27148 21.1024-1.27148 22.4627-1.68164 23.9529-2.50195ZM16.3343-6.83936 22.0457-6.83936 22.0457-7.11541C22.0457-7.97407 21.8441-8.6794 21.4407-9.2314 20.9896-9.85838 20.3504-10.1719 19.5233-10.1719 17.8553-10.1719 16.7923-9.06104 16.3343-6.83936ZM26.4034 0 26.4034-11.4536 28.0748-11.4536 28.0748-8.82861C29.0065-10.7905 29.9588-11.7715 30.9317-11.7715 31.5756-11.7715 32.0586-11.5015 32.3807-10.9614 32.6478-10.5171 32.7814-9.95312 32.7814-9.26953L32.7814-8.6543C33.1702-9.87109 33.7705-10.7837 34.5822-11.3921 34.9233-11.645 35.3155-11.7715 35.7589-11.7715 36.9457-11.7715 37.5392-10.7324 37.5392-8.6543L37.5392 0 35.8678 0 35.8678-7.82373C35.8678-8.85596 35.7656-9.47461 35.5611-9.67969 35.4385-9.80273 35.3057-9.86426 35.1627-9.86426 34.3654-9.86426 33.5717-8.69189 32.7814-6.34717L32.7814 0 31.1715 0 31.1715-7.81348C31.1715-9.18066 30.8947-9.86426 30.3409-9.86426 29.6574-9.86426 28.902-8.78076 28.0748-6.61377L28.0748 0ZM44.8193 0.317871C43.1376 0.317871 41.7978-0.280273 40.7998-1.47656 39.8701-2.59766 39.4052-4.01611 39.4052-5.73193 39.4052-7.44775 39.8735-8.86279 40.81-9.97705 41.8012-11.1733 43.1376-11.7715 44.8193-11.7715 46.4941-11.7715 47.8305-11.1733 48.8286-9.97705 49.7582-8.85596 50.2231-7.44092 50.2231-5.73193 50.2231-4.02295 49.7582-2.60449 48.8286-1.47656 47.8305-0.280273 46.4941 0.317871 44.8193 0.317871ZM44.8193-1.28174C45.9677-1.28174 46.8359-1.75913 47.4238-2.71392 47.9091-3.50507 48.1518-4.51108 48.1518-5.73193 48.1518-6.94595 47.9057-7.94854 47.4135-8.73969 46.8256-9.69448 45.9609-10.1719 44.8193-10.1719 43.6708-10.1719 42.8027-9.69785 42.2148-8.74979 41.7226-7.95874 41.4765-6.95279 41.4765-5.73193 41.4765-4.51108 41.7226-3.50507 42.2148-2.71392 42.8027-1.75913 43.6708-1.28174 44.8193-1.28174Z" fill="#FFFFFF" transform="matrix(1 0 0 1.00086 96.3719 33)"/><path d="M19.7695-14.4375C18.8398-14.4922 17.4453-14.5195 15.5859-14.5195L15.5859-11.9766 19.1133-11.9766C19.0586-10.2266 19.0312-7.92969 19.0312-5.08594 19.0312-2.24219 19.0586 0.109375 19.1133 1.96875L17.5547 1.96875 17.5547 0.65625 8.61328 0.65625 8.61328 1.96875 7.05469 1.96875C7.10937 0.109375 7.13672-2.24219 7.13672-5.08594 7.13672-7.98437 7.10937-10.2812 7.05469-11.9766L10.7461-11.9766 10.7461-14.5195C9.10547-14.5195 7.62891-14.4922 6.31641-14.4375L6.31641-15.9961C7.62891-15.9414 9.95312-15.9141 13.2891-15.9141 16.625-15.9141 18.7852-15.9414 19.7695-15.9961ZM17.5547-4.18359 17.5547-5.98828 15.832-5.98828C14.6836-5.98828 14.1094-6.58984 14.1094-7.79297L14.1094-10.6641 12.2227-10.6641C12.168-9.24219 11.9902-8.12109 11.6895-7.30078 11.3887-6.48047 10.9922-5.76953 10.5-5.16797 10.1172-5.55078 9.625-5.82422 9.02344-5.98828 9.51562-6.53516 9.92578-7.17773 10.2539-7.91602 10.582-8.6543 10.7461-9.57031 10.7461-10.6641L8.61328-10.6641 8.61328-4.18359ZM17.5547-0.738281 17.5547-2.70703 8.61328-2.70703 8.61328-0.738281ZM5.82422-5.25C5.60547-4.97656 5.22266-4.29297 4.67578-3.19922 4.12891-2.10547 3.39062-0.519531 2.46094 1.55859 2.02344 1.12109 1.44922 0.683594 0.738281 0.246094 1.23047-0.355469 1.77734-1.2168 2.37891-2.33789 2.98047-3.45898 3.52734-4.83984 4.01953-6.48047 4.56641-6.09766 5.16797-5.6875 5.82422-5.25ZM2.13281-12.1406C3.71875-11.1562 4.89453-10.4453 5.66016-10.0078 5.11328-9.46094 4.67578-8.88672 4.34766-8.28516 3.91016-8.77734 2.78906-9.57031 0.984375-10.6641 1.36719-11.1016 1.75-11.5938 2.13281-12.1406ZM15.5859-8.61328C15.5859-7.95703 15.668-7.57422 15.832-7.46484 15.9961-7.35547 16.5703-7.30078 17.5547-7.30078L17.5547-10.6641 15.5859-10.6641ZM3.11719-17.0625C4.64844-16.0781 5.66016-15.3945 6.15234-15.0117 5.71484-14.5742 5.30469-14.082 4.92188-13.5352 4.48438-14.0273 3.52734-14.7109 2.05078-15.5859 2.54297-16.0781 2.89844-16.5703 3.11719-17.0625ZM14.1094-11.9766 14.1094-14.5195 12.2227-14.5195 12.2227-11.9766ZM33.8094-12.7969C33.7547-11.9219 33.7273-11.0742 33.7273-10.2539L38.075-10.2539C38.95-10.2539 39.7156-10.2812 40.3719-10.3359L40.3719-8.77734C39.7703-8.83203 39.0047-8.85938 38.075-8.85938L33.7273-8.85938 33.7273-6.07031 39.1414-6.07031C39.0867-4.64844 39.0594-3.33594 39.0594-2.13281 39.0594-0.929688 39.0867 0.355469 39.1414 1.72266L37.4187 1.72266 37.4187 0.246094 29.2156 0.246094 29.2156 1.80469 27.575 1.80469C27.6297 0.273438 27.657-1.09375 27.657-2.29688 27.657-3.55469 27.6297-4.8125 27.575-6.07031L32.0867-6.07031 32.0867-10.1719C32.0867-11.1016 32.0594-11.9766 32.0047-12.7969ZM32.6609-17.2266C33.0437-16.2969 33.3719-15.4219 33.6453-14.6016L36.5164-14.6016C37.9383-14.6016 39.1687-14.6289 40.2078-14.6836L40.2078-13.207C39.2234-13.2617 38.2117-13.2891 37.1726-13.2891L26.1805-13.2891C26.1805-9.78906 26.1531-7.39648 26.0984-6.11133 26.0437-4.82617 25.8797-3.51367 25.6062-2.17383 25.3328-0.833984 24.8953 0.464844 24.2937 1.72266 23.8015 1.33984 23.2273 1.01172 22.5711 0.738281 23.3914-0.519531 23.9246-1.92773 24.1707-3.48633 24.4168-5.04492 24.5535-6.74023 24.5808-8.57227 24.6082-10.4043 24.5672-12.4141 24.4578-14.6016L31.6765-14.6016C31.5672-15.0937 31.3211-15.7773 30.9383-16.6523 31.4851-16.7617 32.0594-16.9531 32.6609-17.2266ZM37.4187-1.06641 37.4187-4.67578 29.2156-4.67578 29.2156-1.06641ZM50.9664-6.48047C51.6773-6.42578 52.4429-6.39844 53.2632-6.39844L55.4781-6.39844 55.4781-8.03906 50.8843-8.03906C50.939-8.80469 50.9664-9.48828 50.9664-10.0898L50.9664-13.7812C50.9664-14.3828 50.939-15.0117 50.8843-15.668 52.3609-15.832 53.4-16.0781 54.0015-16.4062 54.3297-15.6406 54.5757-15.1484 54.7398-14.9297 54.2476-14.875 53.482-14.8203 52.4429-14.7656L52.4429-12.7969 54.2476-12.7969 54.2476-11.4023 52.4429-11.4023 52.4429-9.43359 55.4781-9.43359 55.4781-15.0117C55.4781-15.6133 55.4507-16.3242 55.3961-17.1445L57.0367-17.1445C56.982-16.4883 56.9547-15.8047 56.9547-15.0938L56.9547-9.43359 59.9898-9.43359 59.9898-11.4023 57.939-11.4023 57.939-12.7969 59.9898-12.7969 59.9898-14.7656C59.3336-14.7656 58.6773-14.7383 58.0211-14.6836L58.0211-16.1602C58.6773-16.1055 59.2515-16.0781 59.7437-16.0781L61.5484-16.0781C61.4937-15.4219 61.4664-14.7656 61.4664-14.1094L61.4664-10.1719C61.4664-9.24219 61.4937-8.53125 61.5484-8.03906L56.9547-8.03906 56.9547-6.39844 61.3023-6.39844C61.0289-5.63281 60.5914-4.75781 59.9898-3.77344 59.3882-2.78906 58.5406-1.75 57.4468-0.65625 58.0484-0.273438 58.8961 0.0136719 59.9898 0.205078 61.0836 0.396484 62.0679 0.492187 62.9429 0.492188 62.5601 0.820312 62.232 1.36719 61.9586 2.13281 60.4273 1.91406 59.2652 1.66797 58.4722 1.39453 57.6793 1.12109 56.9273 0.765625 56.2164 0.328125 55.2867 0.765625 54.439 1.10742 53.6734 1.35352 52.9078 1.59961 51.8414 1.88672 50.4742 2.21484 50.3648 1.72266 50.0367 1.20312 49.4898 0.65625 51.7867 0.4375 53.5914-1.49012e-08 54.9039-0.65625 54.3023-1.25781 53.8101-1.87305 53.4273-2.50195 53.0445-3.13086 52.6617-3.96484 52.2789-5.00391L50.9664-5.00391ZM46.4547-14.9297C46.4547-15.75 46.4273-16.4883 46.3726-17.1445L48.1773-17.1445C48.0132-16.4883 47.9312-15.8047 47.9312-15.0938L47.9312-12.9609C48.6422-12.9609 49.2437-12.9883 49.7359-13.043L49.7359-11.4844C49.189-11.5391 48.5875-11.5664 47.9312-11.5664L47.9312-8.20312C48.8062-8.53125 49.4351-8.85938 49.8179-9.1875 49.8179-8.91406 49.8453-8.39453 49.9-7.62891 49.6265-7.51953 48.9703-7.24609 47.9312-6.80859L47.9312 0C47.9312 0.65625 47.6578 1.08008 47.1109 1.27148 46.564 1.46289 45.7984 1.64062 44.814 1.80469 44.7593 1.25781 44.5406 0.65625 44.1578 0 45.1422 0 45.7711-0.0273438 46.0445-0.0820312 46.3179-0.136719 46.4547-0.355469 46.4547-0.738281L46.4547-6.23438C45.3609-5.74219 44.5953-5.33203 44.1578-5.00391 43.8843-5.93359 43.6656-6.5625 43.5015-6.89062 44.1578-6.94531 45.1422-7.21875 46.4547-7.71094L46.4547-11.5664C45.3062-11.5664 44.4312-11.5391 43.8297-11.4844L43.8297-13.043C44.4312-12.9883 45.3062-12.9609 46.4547-12.9609ZM53.8375-5.00391C54.6031-3.36328 55.4234-2.1875 56.2984-1.47656 57.5015-2.67969 58.3765-3.85547 58.9234-5.00391ZM74.7679-9.84375C74.3851-9.67969 73.9203-9.43359 73.3734-9.10547 72.8265-8.77734 72.1156-8.33984 71.2406-7.79297L75.2601-7.79297C76.1351-8.23047 76.9554-8.80469 77.721-9.51562 78.3773-9.07812 79.0335-8.66797 79.6898-8.28516 78.7054-8.01172 77.7894-7.64258 76.9417-7.17773 76.0941-6.71289 74.3031-5.82422 71.5687-4.51172 73.9203-4.62109 76.4359-4.73047 79.1156-4.83984 78.6781-5.22266 78.2406-5.57812 77.8031-5.90625 78.4046-6.17969 78.8148-6.48047 79.0335-6.80859 80.0179-6.26172 81.221-5.22266 82.6429-3.69141 82.096-3.36328 81.6585-3.00781 81.3304-2.625 80.8382-3.0625 80.4281-3.44531 80.0999-3.77344 79.0062-3.77344 77.4203-3.69141 75.3421-3.52734L75.3421 0.0820312C75.3421 0.902344 75.0824 1.39453 74.5628 1.55859 74.0433 1.72266 73.2093 1.88672 72.0609 2.05078 72.0062 1.44922 71.7874 0.875 71.4046 0.328125 72.1703 0.328125 72.7445 0.300781 73.1273 0.246094 73.5101 0.191406 73.7015-0.0273438 73.7015-0.410156L73.7015-3.36328C72.0062-3.36328 70.639-3.29492 69.5999-3.1582 68.5609-3.02148 67.7679-2.89844 67.221-2.78906 67.057-3.33594 66.8929-3.82812 66.7289-4.26562 68.0414-4.48438 69.1488-4.75781 70.0511-5.08594 70.9535-5.41406 72.0882-5.96094 73.4554-6.72656 72.1976-6.72656 71.2542-6.69922 70.6253-6.64453 69.9964-6.58984 69.2445-6.45312 68.3695-6.23438 68.2054-6.83594 68.0414-7.32812 67.8773-7.71094 68.6429-7.76562 69.4632-8.05273 70.3382-8.57227 71.2132-9.0918 72.0335-9.81641 72.7992-10.7461 73.4554-10.418 74.1117-10.1172 74.7679-9.84375ZM73.5374-15.1758C73.5374-15.832 73.5101-16.4062 73.4554-16.8984L75.2601-16.8984C75.2054-16.2422 75.1781-15.668 75.1781-15.1758L79.6898-15.1758C80.2914-15.1758 81.1664-15.2031 82.3148-15.2578L82.3148-13.9453C81.2757-14 80.3734-14.0273 79.6078-14.0273L75.1781-14.0273 75.1781-12.3047 83.3812-12.3047C83.3265-11.8672 83.2992-11.3203 83.2992-10.6641 83.2992-10.0078 83.3265-9.40625 83.3812-8.85938L81.6585-8.85938 81.6585-11.0742 67.221-11.0742 67.221-8.28516 65.5804-8.28516 65.5804-12.3047 73.5374-12.3047 73.5374-14.0273 69.764-14.0273C68.2328-14.0273 67.221-14 66.7289-13.9453L66.7289-15.2578C67.4398-15.2031 68.4242-15.1758 69.682-15.1758ZM78.8695-2.625C80.2914-1.69531 81.7679-0.738281 83.2992 0.246094 82.807 0.628906 82.3695 1.03906 81.9867 1.47656 80.5101 0.273438 79.0335-0.765625 77.557-1.64062 78.0492-2.02344 78.4867-2.35156 78.8695-2.625ZM70.9945-1.47656C70.5023-1.20312 69.9007-0.792969 69.1898-0.246094 68.4789 0.300781 67.6039 0.902344 66.5648 1.55859 66.2914 1.12109 65.8539 0.738281 65.2523 0.410156 66.8382-0.355469 68.2874-1.33984 69.5999-2.54297 70.0374-2.16016 70.5023-1.80469 70.9945-1.47656ZM97.5031 1.88672 95.9445 1.88672C95.9991 0.574219 96.0265-0.65625 96.0265-1.80469L96.0265-13.207C96.0265-14.1367 95.9991-15.1484 95.9445-16.2422L103.573-16.2422C103.519-15.4766 103.464-14.6426 103.409-13.7402 103.355-12.8379 103.273-12.1543 103.163-11.6895 103.054-11.2246 102.726-10.8828 102.179-10.6641 101.632-10.4453 100.921-10.2812 100.046-10.1719 99.882-10.8281 99.6359-11.375 99.3077-11.8125 100.675-11.8125 101.441-11.9629 101.605-12.2637 101.769-12.5645 101.851-13.4258 101.851-14.8477L97.5031-14.8477 97.5031-9.35156 104.312-9.35156C104.093-7.92969 103.819-6.6582 103.491-5.53711 103.163-4.41602 102.726-3.30859 102.179-2.21484 103.109-1.12109 104.175-0.300781 105.378 0.246094 104.995 0.574219 104.612 1.03906 104.23 1.64062 103.191 0.929688 102.206 0.0546875 101.276-0.984375 100.62-0.0546875 99.7179 0.929688 98.5695 1.96875 98.296 1.47656 97.9952 1.03906 97.6671 0.65625 98.4327 0.109375 99.2804-0.820312 100.21-2.13281 99.4991-3.0625 98.7882-5.00391 98.0773-7.95703L97.5031-7.95703ZM94.1398-16.1602C94.0851-15.7227 94.0577-14.7109 94.0577-13.125L94.0577-0.984375C94.0577 0.164062 93.8116 0.861328 93.3195 1.10742 92.8273 1.35352 92.1437 1.58594 91.2687 1.80469 91.0499 0.984375 90.7765 0.328125 90.4484-0.164062 91.214-0.164062 91.7609-0.191406 92.089-0.246094 92.4171-0.300781 92.5812-0.710938 92.5812-1.47656L92.5812-5.57812 89.382-5.57812C89.2726-4.21094 89.0812-2.95312 88.8077-1.80469 88.5343-0.65625 88.1515 0.464844 87.6593 1.55859 87.2218 1.17578 86.7023 0.847656 86.1007 0.574219 86.757-0.628906 87.2081-1.76367 87.4542-2.83008 87.7003-3.89648 87.8644-4.97656 87.9464-6.07031 88.0284-7.16406 88.0695-8.88672 88.0695-11.2383 88.0695-13.5898 88.0421-15.2305 87.9874-16.1602ZM92.5812-6.97266 92.5812-10.2539 89.546-10.2539 89.464-6.97266ZM92.5812-11.6484 92.5812-14.7656 89.546-14.7656 89.546-11.6484ZM99.5538-7.95703C99.9913-5.87891 100.511-4.375 101.112-3.44531 101.769-4.70312 102.234-6.20703 102.507-7.95703ZM116.055-16.2422C115.617-15.8594 115.234-15.4219 114.906-14.9297L124.012-14.9297C123.519-14.1094 122.877-13.2344 122.084-12.3047 121.291-11.375 120.293-10.5 119.09-9.67969 119.855-9.1875 120.894-8.81836 122.207-8.57227 123.519-8.32617 125.078-8.17578 126.883-8.12109 126.445-7.62891 126.144-7.05469 125.98-6.39844 124.449-6.50781 122.945-6.78125 121.469-7.21875 119.992-7.65625 118.762-8.17578 117.777-8.77734 116.027-7.95703 114.441-7.35547 113.019-6.97266 111.598-6.58984 110.203-6.28906 108.836-6.07031 108.617-6.72656 108.289-7.30078 107.851-7.79297 109.055-7.79297 110.422-7.95703 111.953-8.28516 113.484-8.61328 114.988-9.07812 116.465-9.67969 115.316-10.7734 114.332-11.8945 113.512-13.043 112.582-11.8945 111.625-10.9375 110.641-10.1719 110.258-10.6094 109.766-10.9375 109.164-11.1562 110.695-12.25 111.816-13.3027 112.527-14.3145 113.238-15.3262 113.758-16.2695 114.086-17.1445 114.797-16.7617 115.453-16.4609 116.055-16.2422ZM115.891-5.41406C116-6.07031 116.055-6.83594 116.055-7.71094 116.711-7.60156 117.367-7.51953 118.023-7.46484 117.859-7.13672 117.695-6.45312 117.531-5.41406L124.176-5.41406C124.121-4.75781 124.066-4.00586 124.012-3.1582 123.957-2.31055 123.861-1.39453 123.725-0.410156 123.588 0.574219 123.191 1.14844 122.535 1.3125 121.879 1.47656 120.84 1.64062 119.418 1.80469 119.309 1.09375 119.035 0.492187 118.598 0 120.184 0 121.141-0.0546875 121.469-0.164062 121.797-0.273438 122.016-0.574219 122.125-1.06641L122.371-4.18359 117.367-4.18359C116.601-1.83203 115.521-0.300781 114.127 0.410156 112.732 1.12109 111.242 1.75 109.656 2.29688 109.492 1.80469 109.109 1.23047 108.508 0.574219 109.82 0.464844 111.187 0.0546875 112.609-0.65625 114.031-1.36719 115.043-2.54297 115.644-4.18359L113.758-4.18359C112.117-4.18359 110.914-4.12891 110.148-4.01953L110.148-5.49609C110.969-5.44141 112.199-5.41406 113.84-5.41406ZM117.859-10.582C118.953-11.2383 120.019-12.2773 121.059-13.6992L114.906-13.6992C115.945-12.332 116.93-11.293 117.859-10.582Z" fill="#FFFFFF" transform="matrix(1 0 0 1.00086 19.5123 58)"/></g></g></g><path d="M723.5 37.4759C723.5 30.8739 728.847 25.5219 735.444 25.5219L888.556 25.5219C895.153 25.5219 900.5 30.8739 900.5 37.4759L900.5 134.671C900.5 141.273 895.153 146.625 888.556 146.625L735.444 146.625C728.847 146.625 723.5 141.273 723.5 134.671Z" stroke="#4A7EBB" stroke-width="1.00034" stroke-linejoin="round" stroke-miterlimit="10" fill="url(#fill27)" fill-rule="evenodd"/><text fill="#FFFFFF" font-family="Monaco,Monaco_MSFontService,sans-serif" font-weight="400" font-size="21" transform="matrix(1 0 0 1.00086 747.346 81)">hotel<tspan font-size="21" x="64.1886" y="0">-</tspan>demo<tspan font-family="SimHei,SimHei_MSFontService,sans-serif" font-size="21" x="0.166748" y="24.9786">酒店搜索服务</tspan></text><g clip-path="url(#clip28)"><g clip-path="url(#clip29)" filter="url(#fx4)" transform="translate(194 271)"><g clip-path="url(#clip30)"><path d="M6.50005 20.0396C6.50005 27.7091 42.3173 33.9265 86.5 33.9265 130.683 33.9265 166.5 27.7091 166.5 20.0396L166.5 103.361C166.5 111.03 130.683 117.248 86.5 117.248 42.3173 117.248 6.50005 111.03 6.50005 103.361Z" fill="#FF0000" fill-rule="evenodd"/><path d="M6.50005 20.0396C6.50005 12.37 42.3173 6.15262 86.5 6.15262 130.683 6.15262 166.5 12.37 166.5 20.0396 166.5 27.7091 130.683 33.9265 86.5 33.9265 42.3173 33.9265 6.50005 27.7091 6.50005 20.0396Z" fill="#FF0000" fill-rule="evenodd"/><path d="M166.5 20.0396C166.5 27.7091 130.683 33.9265 86.5 33.9265 42.3173 33.9265 6.50005 27.7091 6.50005 20.0396 6.50005 12.37 42.3173 6.15262 86.5 6.15262 130.683 6.15262 166.5 12.37 166.5 20.0396L166.5 103.361C166.5 111.03 130.683 117.248 86.5 117.248 42.3173 117.248 6.50005 111.03 6.50005 103.361L6.50005 20.0396" stroke="#BE4B48" stroke-linejoin="round" stroke-miterlimit="10" fill="none" fill-rule="evenodd"/></g></g><g clip-path="url(#clip31)" filter="url(#fx5)" transform="translate(224 312)"><g clip-path="url(#clip32)"><path d="M2.56641 0 0.65625 0 0.65625-18.1875 3.02673-18.1875 7.23065-6.19775 11.4315-18.1875 13.7461-18.1875 13.7461 0 11.5664 0 11.625-13.1836 11.5664-13.1836 11.0508-11.5898 8.23828-3.63281 5.87109-3.63281 3.02325-11.5898 2.56641-13.1836 2.50781-13.1836 2.56641-11.5898ZM20.971-0.536133 14.9243-13.0898 17.3302-13.0898 22.1482-3.26953 26.1688-13.0898 28.3656-13.0898 23.2912-0.925781C22.4005 1.20703 21.5998 2.68359 20.8888 3.50391 19.7638 4.80859 18.299 5.46094 16.4945 5.46094 15.8304 5.46094 15.2367 5.40234 14.7132 5.28516L14.7132 3.36328C15.3148 3.54297 15.889 3.63281 16.4359 3.63281 17.8734 3.63281 18.9984 3.01215 19.8109 1.77081 20.2328 1.13068 20.5531 0.529541 20.7718-0.0325928ZM30.5163-0.386719 30.5163-2.61328C32.3913-1.72266 34.0944-1.27734 35.6257-1.27734 37.1178-1.27734 38.1764-1.75403 38.8014-2.7074 39.0983-3.16833 39.2468-3.6684 39.2468-4.20758 39.2468-5.46564 38.2626-6.6651 36.2944-7.80597L33.8929-9.19025C31.7668-10.4086 30.7038-11.9707 30.7038-13.8765 30.7038-15.5166 31.2897-16.7584 32.4616-17.6019 33.5007-18.3517 34.8718-18.7266 36.5749-18.7266 37.8718-18.7266 39.1257-18.5391 40.3366-18.1641L40.3366-16.1367C39.0007-16.6445 37.6999-16.8984 36.4343-16.8984 35.5436-16.8984 34.778-16.6722 34.1374-16.2198 33.4186-15.7128 33.0593-15.0341 33.0593-14.1837 33.0593-13.4427 33.2975-12.8265 33.7741-12.3351 34.1725-11.9216 34.7819-11.4692 35.6022-10.9777L38.6139-9.17578C40.6061-8.01172 41.6022-6.48047 41.6022-4.58203 41.6022-2.83203 40.9382-1.50781 39.61-0.609375 38.4694 0.164062 36.9811 0.550781 35.1452 0.550781 33.7936 0.550781 32.2507 0.238281 30.5163-0.386719ZM51.7569 0.339844C52.2412 1.13672 52.667 1.70703 53.0342 2.05078 53.5186 2.50391 54.1397 2.82422 54.8975 3.01172 55.585 3.18359 56.3467 3.26953 57.1826 3.26953L57.3936 3.26953 57.3936 5.08594 56.8428 5.08594C55.5928 5.08594 54.6358 4.98047 53.9717 4.76953 53.1358 4.49609 52.3467 3.96484 51.6045 3.17578 50.9951 2.52734 50.4404 1.64453 49.9404 0.527344 48.4561 0.363281 47.2881-0.128906 46.4365-0.949219 45.6553-1.69141 45.0342-2.8125 44.5733-4.3125 44.0889-5.88281 43.8467-7.57031 43.8467-9.375 43.8467-11.8594 44.2842-13.9258 45.1592-15.5742 46.2686-17.6758 47.9522-18.7266 50.21-18.7266 52.5303-18.7266 54.2334-17.6367 55.3194-15.457 56.1553-13.7852 56.5733-11.6602 56.5733-9.08203 56.5733-5.90234 55.9404-3.42969 54.6748-1.66406 53.9717-0.6875 52.999-0.0195312 51.7569 0.339844ZM50.21-16.8984C48.6865-16.8984 47.585-15.9031 46.9053-13.9124 46.4444-12.5696 46.2139-10.9614 46.2139-9.08789 46.2139-7.21435 46.4444-5.6062 46.9053-4.26343 47.585-2.27271 48.6865-1.27734 50.21-1.27734 51.7334-1.27734 52.835-2.27271 53.5147-4.26343 53.9756-5.6062 54.2061-7.21435 54.2061-9.08789 54.2061-10.9614 53.9756-12.5696 53.5147-13.9124 52.835-15.9031 51.7334-16.8984 50.21-16.8984ZM69.7396-2.00391 69.7396 0 59.9193 0 59.9193-18.1875 62.2865-18.1875 62.2865-2.00391Z" fill="#FFFFFF" transform="matrix(1 0 0 1.00086 20.2243 36)"/></g></g></g><path d="M200.5 288.622C200.5 296.292 236.317 302.509 280.5 302.509 324.683 302.509 360.5 296.292 360.5 288.622L360.5 371.943C360.5 379.613 324.683 385.83 280.5 385.83 236.317 385.83 200.5 379.613 200.5 371.943Z" fill="url(#fill33)" fill-rule="evenodd"/><path d="M200.5 288.622C200.5 280.952 236.317 274.735 280.5 274.735 324.683 274.735 360.5 280.952 360.5 288.622 360.5 296.292 324.683 302.509 280.5 302.509 236.317 302.509 200.5 296.292 200.5 288.622Z" fill="url(#fill34)" fill-rule="evenodd"/><path d="M360.5 288.622C360.5 296.292 324.683 302.509 280.5 302.509 236.317 302.509 200.5 296.292 200.5 288.622 200.5 280.952 236.317 274.735 280.5 274.735 324.683 274.735 360.5 280.952 360.5 288.622L360.5 371.943C360.5 379.613 324.683 385.83 280.5 385.83 236.317 385.83 200.5 379.613 200.5 371.943L200.5 288.622" stroke="#BE4B48" stroke-width="1.00034" stroke-linejoin="round" stroke-miterlimit="10" fill="none" fill-rule="evenodd"/><text fill="#FFFFFF" font-family="Monaco,Monaco_MSFontService,sans-serif" font-weight="400" font-size="24" transform="matrix(1 0 0 1.00086 244.224 345)">MySQL</text><g clip-path="url(#clip35)"><g clip-path="url(#clip36)" filter="url(#fx6)" transform="translate(699 271)"><g clip-path="url(#clip37)"><path d="M6.5 20.0396C6.5 27.7091 54.1817 33.9265 113 33.9265 171.818 33.9265 219.5 27.7091 219.5 20.0396L219.5 103.361C219.5 111.03 171.818 117.248 113 117.248 54.1817 117.248 6.5 111.03 6.5 103.361Z" fill="#FF0000" fill-rule="evenodd"/><path d="M6.5 20.0396C6.5 12.37 54.1817 6.15262 113 6.15262 171.818 6.15262 219.5 12.37 219.5 20.0396 219.5 27.7091 171.818 33.9265 113 33.9265 54.1817 33.9265 6.5 27.7091 6.5 20.0396Z" fill="#FF0000" fill-rule="evenodd"/><path d="M219.5 20.0396C219.5 27.7091 171.818 33.9265 113 33.9265 54.1817 33.9265 6.5 27.7091 6.5 20.0396 6.5 12.37 54.1817 6.15262 113 6.15262 171.818 6.15262 219.5 12.37 219.5 20.0396L219.5 103.361C219.5 111.03 171.818 117.248 113 117.248 54.1817 117.248 6.5 111.03 6.5 103.361L6.5 20.0396" stroke="#46AAC5" stroke-linejoin="round" stroke-miterlimit="10" fill="none" fill-rule="evenodd"/></g></g><g clip-path="url(#clip38)" filter="url(#fx7)" transform="translate(698 312)"><g clip-path="url(#clip39)"><path d="M12.1992-2.00391 12.1992 0 2.37891 0 2.37891-18.1875 12.0117-18.1875 12.0117-16.3594 4.74609-16.3594 4.74609-10.1836 11.2852-10.1836 11.2852-8.35547 4.74609-8.35547 4.74609-2.00391Z" fill="#FFFFFF" transform="matrix(1 0 0 1.00086 20.3358 36)"/><path d="M5.34375 0 5.34375-17.0859 1.42969-17.0859 1.42969-18.9141 7.52344-18.9141 7.52344-1.82812 11.6133-1.82812 11.6133 0ZM24.7679-2.94141C24.2132-2.03516 23.514-1.27734 22.6703-0.667969 21.7171 0.0195312 20.7601 0.363281 19.7992 0.363281 18.3851 0.363281 17.2913-0.265625 16.5179-1.52344 15.8695-2.57812 15.5453-3.85547 15.5453-5.35547 15.5453-8.42578 16.6078-10.7227 18.7328-12.2461 19.7015-12.9336 20.9007-13.2773 22.3304-13.2773 22.7679-13.2773 23.3929-13.2344 24.2054-13.1484 24.307-13.1406 24.4945-13.1211 24.7679-13.0898L26.9593-13.0898 26.9593-3.84375C26.9593-2.26562 27.1234-0.984375 27.4515 0L25.1781 0C25.0062-0.71875 24.8695-1.69922 24.7679-2.94141ZM24.7679-5.53125 24.7679-11.1445C23.9945-11.3477 23.2757-11.4492 22.6117-11.4492 21.096-11.4492 19.9085-10.8438 19.0492-9.63281 18.2913-8.55469 17.9124-7.22656 17.9124-5.64844 17.9124-4.70312 18.0765-3.86719 18.4046-3.14062 18.8343-2.19531 19.471-1.72266 20.3148-1.72266 21.1351-1.72266 22.0101-2.17969 22.9398-3.09375 23.6351-3.78125 24.2445-4.59375 24.7679-5.53125ZM30.6452-0.691406 30.6452-3C32.2311-1.97656 33.985-1.46484 35.9069-1.46484 37.9772-1.46484 39.0124-2.08533 39.0124-3.32629 39.0124-3.80237 38.778-4.20044 38.3093-4.52051 38.0905-4.66882 37.6491-4.87952 36.985-5.15259L36.235-5.45709 34.7233-6.0542C33.4811-6.5459 32.6335-6.97125 32.1803-7.33026 31.3991-7.94684 31.0085-8.75464 31.0085-9.75366 31.0085-11.1039 31.5866-12.0912 32.7428-12.7156 33.6413-13.2073 34.8288-13.4531 36.3053-13.4531 37.7038-13.4531 39.028-13.25 40.278-12.8438L40.278-10.8633C38.8405-11.3711 37.4889-11.625 36.2233-11.625 35.5202-11.625 34.903-11.5157 34.3718-11.2972 33.6452-10.9928 33.2819-10.5362 33.2819-9.92743 33.2819-9.40448 33.6452-8.94397 34.3718-8.5459 34.6296-8.40552 35.2194-8.16748 36.1413-7.83179L37.6178-7.29327C38.7663-6.87189 39.6061-6.43872 40.1374-5.99377 40.903-5.34595 41.2858-4.52252 41.2858-3.5235 41.2858-2.11871 40.6921-1.08459 39.5046-0.421143 38.5671 0.101807 37.3327 0.363281 35.8014 0.363281 34.1296 0.363281 32.4108 0.0117187 30.6452-0.691406ZM55.7881-0.527344C54.374 0.0664062 53.1865 0.363281 52.2256 0.363281 50.1944 0.363281 48.7881-0.331238 48.0069-1.72028 47.6162-2.40704 47.4209-3.46838 47.4209-4.9043L47.4209-10.1719 44.1514-10.1719 44.1514-12 47.4209-12 47.4209-17.2734 49.6006-17.2734 49.6006-12 55.4248-12 55.4248-10.1719 49.6006-10.1719 49.6006-4.94769C49.6006-3.27252 50.0615-2.21289 50.9834-1.7688 51.3975-1.56616 51.8897-1.46484 52.46-1.46484 53.5147-1.46484 54.624-1.79297 55.7881-2.44922ZM62.849 0 62.849-11.2617 59.2162-11.2617 59.2162-13.0898 65.0287-13.0898 65.0287-1.82812 68.6732-1.82812 68.6732 0ZM62.4857-17.8125C62.4857-18.2188 62.6263-18.5645 62.9076-18.8496 63.1888-19.1348 63.5326-19.2773 63.9388-19.2773 64.3451-19.2773 64.6908-19.1348 64.9759-18.8496 65.2611-18.5645 65.4037-18.2188 65.4037-17.8125 65.4037-17.4141 65.2611-17.0723 64.9759-16.7871 64.6908-16.502 64.3451-16.3594 63.9388-16.3594 63.5404-16.3594 63.1986-16.502 62.9134-16.7871 62.6283-17.0723 62.4857-17.4141 62.4857-17.8125ZM84.5231-0.375C83.0622 0.117187 81.6716 0.363281 80.3513 0.363281 79.0934 0.363281 77.9528 0.078125 76.9294-0.492188 75.8825-1.08594 75.0622-1.92578 74.4684-3.01172 73.8981-4.04297 73.613-5.21875 73.613-6.53906 73.613-8.46094 74.2341-10.0859 75.4763-11.4141 76.7419-12.7734 78.3278-13.4531 80.2341-13.4531 81.5856-13.4531 83.0153-13.1992 84.5231-12.6914L84.5231-10.5938C82.9997-11.2812 81.6364-11.625 80.4333-11.625 78.5895-11.625 77.2966-10.8135 76.5544-9.19043 76.1716-8.35547 75.9802-7.49707 75.9802-6.61523 75.9802-5.19507 76.3864-4.0246 77.1989-3.10382 78.0427-2.12836 79.1638-1.64062 80.5622-1.64062 81.57-1.64062 82.8903-1.91797 84.5231-2.47266ZM87.8692-0.386719 87.8692-2.61328C89.7442-1.72266 91.4473-1.27734 92.9785-1.27734 94.4707-1.27734 95.5293-1.75403 96.1543-2.7074 96.4512-3.16833 96.5996-3.6684 96.5996-4.20758 96.5996-5.46564 95.6155-6.6651 93.6472-7.80597L91.2458-9.19025C89.1197-10.4086 88.0567-11.9707 88.0567-13.8765 88.0567-15.5166 88.6426-16.7584 89.8145-17.6019 90.8535-18.3517 92.2246-18.7266 93.9278-18.7266 95.2246-18.7266 96.4785-18.5391 97.6895-18.1641L97.6895-16.1367C96.3535-16.6445 95.0527-16.8984 93.7871-16.8984 92.8965-16.8984 92.1309-16.6722 91.4903-16.2198 90.7715-15.7128 90.4121-15.0341 90.4121-14.1837 90.4121-13.4427 90.6504-12.8265 91.127-12.3351 91.5254-11.9216 92.1348-11.4692 92.9551-10.9777L95.9668-9.17578C97.959-8.01172 98.9551-6.48047 98.9551-4.58203 98.9551-2.83203 98.291-1.50781 96.9629-0.609375 95.8223 0.164062 94.334 0.550781 92.4981 0.550781 91.1465 0.550781 89.6035 0.238281 87.8692-0.386719ZM113.071-0.867188C111.328-0.0390625 109.68 0.375 108.125 0.375 105.688 0.375 103.891-0.757812 102.735-3.02344 102.172-4.10938 101.891-5.27344 101.891-6.51562 101.891-7.71094 102.149-8.84375 102.664-9.91406 103.203-11.0391 103.952-11.9102 104.909-12.5273 105.866-13.1445 106.93-13.4531 108.102-13.4531 109.93-13.4531 111.286-12.7461 112.168-11.332 112.895-10.168 113.258-8.60938 113.258-6.65625L113.258-6.1875 104.235-6.1875C104.235-5.34375 104.403-4.55859 104.739-3.83203 105.106-3.02734 105.625-2.42188 106.297-2.01562 106.914-1.64062 107.618-1.45312 108.407-1.45312 109.813-1.45312 111.368-1.92188 113.071-2.85938ZM104.364-7.81641 110.891-7.81641 110.891-8.1319C110.891-9.11322 110.661-9.91931 110.2-10.5502 109.684-11.2667 108.953-11.625 108.008-11.625 106.102-11.625 104.887-10.3555 104.364-7.81641ZM125.135-2.94141C124.581-2.03516 123.882-1.27734 123.038-0.667969 122.085 0.0195312 121.128 0.363281 120.167 0.363281 118.753 0.363281 117.659-0.265625 116.885-1.52344 116.237-2.57812 115.913-3.85547 115.913-5.35547 115.913-8.42578 116.975-10.7227 119.1-12.2461 120.069-12.9336 121.268-13.2773 122.698-13.2773 123.135-13.2773 123.76-13.2344 124.573-13.1484 124.674-13.1406 124.862-13.1211 125.135-13.0898L127.327-13.0898 127.327-3.84375C127.327-2.26562 127.491-0.984375 127.819 0L125.546 0C125.374-0.71875 125.237-1.69922 125.135-2.94141ZM125.135-5.53125 125.135-11.1445C124.362-11.3477 123.643-11.4492 122.979-11.4492 121.464-11.4492 120.276-10.8438 119.417-9.63281 118.659-8.55469 118.28-7.22656 118.28-5.64844 118.28-4.70312 118.444-3.86719 118.772-3.14062 119.202-2.19531 119.839-1.72266 120.682-1.72266 121.503-1.72266 122.378-2.17969 123.307-3.09375 124.003-3.78125 124.612-4.59375 125.135-5.53125ZM131.974 0 131.974-13.0898 134.153-13.0898 134.153-10.2305C135.505-12.3789 137.263-13.4531 139.427-13.4531 140.216-13.4531 141.005-13.332 141.794-13.0898L141.794-8.36719 139.696-8.36719 139.696-11.3555C139.329-11.418 139.04-11.4492 138.829-11.4492 137.196-11.4492 135.638-10.168 134.153-7.60547L134.153 0ZM156.214-0.375C154.753 0.117187 153.363 0.363281 152.042 0.363281 150.785 0.363281 149.644 0.078125 148.62-0.492188 147.574-1.08594 146.753-1.92578 146.16-3.01172 145.589-4.04297 145.304-5.21875 145.304-6.53906 145.304-8.46094 145.925-10.0859 147.167-11.4141 148.433-12.7734 150.019-13.4531 151.925-13.4531 153.277-13.4531 154.706-13.1992 156.214-12.6914L156.214-10.5938C154.691-11.2812 153.328-11.625 152.124-11.625 150.281-11.625 148.988-10.8135 148.245-9.19043 147.863-8.35547 147.671-7.49707 147.671-6.61523 147.671-5.19507 148.078-4.0246 148.89-3.10382 149.734-2.12836 150.855-1.64062 152.253-1.64062 153.261-1.64062 154.581-1.91797 156.214-2.47266ZM159.537 0 159.537-18.9141 161.717-18.9141 161.717-10.2305C162.287-11.1445 162.974-11.8906 163.779-12.4688 164.709-13.125 165.658-13.4531 166.627-13.4531 167.314-13.4531 167.959-13.2852 168.56-12.9492 169.209-12.582 169.67-12.1016 169.943-11.5078 170.201-10.9453 170.361-10.2578 170.424-9.44531 170.439-9.17969 170.447-8.46875 170.447-7.3125L170.447 0 168.267 0 168.267-7.58203C168.267-8.57422 168.248-9.19531 168.209-9.44531 168.107-10.1875 167.845-10.7266 167.424-11.0625 167.095-11.3203 166.74-11.4492 166.357-11.4492 165.482-11.4492 164.568-11.0078 163.615-10.125 162.842-9.40625 162.209-8.57422 161.717-7.62891L161.717 0Z" fill="#FFFFFF" transform="matrix(1 0 0 1.00086 34.674 36)"/></g></g></g><path d="M705.5 288.622C705.5 296.292 753.182 302.509 812 302.509 870.818 302.509 918.5 296.292 918.5 288.622L918.5 371.943C918.5 379.613 870.818 385.83 812 385.83 753.182 385.83 705.5 379.613 705.5 371.943Z" fill="url(#fill40)" fill-rule="evenodd"/><path d="M705.5 288.622C705.5 280.952 753.182 274.735 812 274.735 870.818 274.735 918.5 280.952 918.5 288.622 918.5 296.292 870.818 302.509 812 302.509 753.182 302.509 705.5 296.292 705.5 288.622Z" fill="url(#fill41)" fill-rule="evenodd"/><path d="M918.5 288.622C918.5 296.292 870.818 302.509 812 302.509 753.182 302.509 705.5 296.292 705.5 288.622 705.5 280.952 753.182 274.735 812 274.735 870.818 274.735 918.5 280.952 918.5 288.622L918.5 371.943C918.5 379.613 870.818 385.83 812 385.83 753.182 385.83 705.5 379.613 705.5 371.943L705.5 288.622" stroke="#46AAC5" stroke-width="1.00034" stroke-linejoin="round" stroke-miterlimit="10" fill="none" fill-rule="evenodd"/><text fill="#FFFFFF" font-family="Monaco,Monaco_MSFontService,sans-serif" font-weight="400" font-size="24" transform="matrix(1 0 0 1.00086 718.336 345)">E<tspan font-size="24" x="14.3383" y="0">lasticSearch</tspan></text><g clip-path="url(#clip42)" filter="url(#fx8)" transform="translate(58 73)"><g clip-path="url(#clip43)"><path d="M5.99998 13.1742 127.375 13.1743 127.375 15.176 5.99998 15.1759ZM126.041 10.1703 134.044 14.1751 126.041 18.1799Z" fill="#4F81BD"/></g></g><path d="M64 84.0716 185.375 84.0717 185.375 86.0741 64 86.074ZM184.041 81.0681 192.044 85.0729 184.041 89.0777Z" fill="#4F81BD"/><g clip-path="url(#clip44)"><g clip-path="url(#clip45)" filter="url(#fx9)" transform="translate(17 61)"><g clip-path="url(#clip46)"><path d="M6.49998 26.6755C6.49998 15.6203 15.6781 6.65836 27 6.65836 38.3218 6.65836 47.5 15.6203 47.5 26.6755 47.5 37.7306 38.3218 46.6926 27 46.6926 15.6781 46.6926 6.49998 37.7306 6.49998 26.6755Z" stroke="#000000" stroke-linejoin="round" stroke-miterlimit="10" fill="#FF0000" fill-rule="evenodd"/></g></g></g><path d="M23.5 85.5732C23.5 74.5181 32.6781 65.5561 44 65.5561 55.3218 65.5561 64.5 74.5181 64.5 85.5732 64.5 96.6284 55.3218 105.59 44 105.59 32.6781 105.59 23.5 96.6284 23.5 85.5732Z" stroke="#000000" stroke-width="1.00034" stroke-linejoin="round" stroke-miterlimit="10" fill="url(#fill47)" fill-rule="evenodd"/><text fill="#595959" font-family="SimHei,SimHei_MSFontService,sans-serif" font-weight="400" font-size="19" transform="matrix(1 0 0 1.00086 88.4862 76)">新增酒店<tspan font-family="Monaco,Monaco_MSFontService,sans-serif" font-size="19" x="70.5723" y="143.877">1.</tspan><tspan font-size="19" x="92.9133" y="143.877">写入数据库</tspan></text><g clip-path="url(#clip48)" filter="url(#fx10)" transform="translate(266 142)"><g clip-path="url(#clip49)"><path d="M15 6.22728 15.0001 128.277 13.0001 128.277 13 6.22728ZM18.0015 126.942 14.0001 134.952 9.99873 126.942Z" fill="#4F81BD"/></g></g><path d="M281 146.125 281 268.175 279 268.175 279 146.125ZM284.001 266.84 280 274.85 275.999 266.84Z" fill="#4F81BD"/><g clip-path="url(#clip50)" filter="url(#fx11)" transform="translate(353 185)"><g clip-path="url(#clip51)"><path d="M0.749861-0.661596 113.043 126.613 111.543 127.936-0.749861 0.661596ZM114.411 123.627 116.705 132.275 108.41 128.922Z" fill="#4F81BD" transform="matrix(1 0 0 -1.00086 6.99997 146.66)"/></g></g><path d="M0.750117-0.661821 113.043 126.613 111.543 127.937-0.750117 0.661821ZM114.411 123.627 116.705 132.275 108.41 128.922Z" fill="#4F81BD" transform="matrix(1 0 0 -1.00086 360 329.557)"/><text fill="#595959" font-family="Monaco,Monaco_MSFontService,sans-serif" font-weight="400" font-size="19" transform="matrix(1 0 0 1.00086 405.816 308)">2.1.<tspan font-family="SimHei,SimHei_MSFontService,sans-serif" font-size="19" x="44.6819" y="0">监听</tspan><tspan font-size="19" x="93.1984" y="0">MySQL </tspan><tspan font-family="SimHei,SimHei_MSFontService,sans-serif" font-size="19" x="160.221" y="0">的</tspan><tspan font-size="19" x="190.065" y="0">binlog</tspan></text><g clip-path="url(#clip52)" filter="url(#fx12)" transform="translate(798 142)"><g clip-path="url(#clip53)"><path d="M15 6.22728 15.0001 128.277 13.0001 128.277 13 6.22728ZM18.0015 126.942 14.0001 134.952 9.99873 126.942Z" fill="#4F81BD"/></g></g><path d="M813 146.125 813 268.175 811 268.175 811 146.125ZM816.001 266.84 812 274.849 807.999 266.84Z" fill="#4F81BD"/><text fill="#595959" font-family="Monaco,Monaco_MSFontService,sans-serif" font-weight="400" font-size="19" transform="matrix(1 0 0 1.00086 725.821 236)">2.3.<tspan font-family="SimHei,SimHei_MSFontService,sans-serif" font-size="19" x="44.6819" y="0">更新</tspan><tspan font-size="19" x="93.1985" y="0">ElasticSearch</tspan></text><g clip-path="url(#clip54)"><g clip-path="url(#clip55)" filter="url(#fx13)" transform="translate(471 158)"><g clip-path="url(#clip56)"><path d="M131.5 6.05592C126.529 6.05592 122.5 22.1875 122.5 42.0868 122.5 61.9861 126.529 78.1177 131.5 78.1177L15.4999 78.1176C10.5293 78.1176 6.49988 61.986 6.49988 42.0867 6.49988 22.1874 10.5293 6.05578 15.4999 6.05578Z" fill="#FF0000" fill-rule="evenodd"/><path d="M131.5 6.05592C136.47 6.05592 140.5 22.1875 140.5 42.0868 140.5 61.9861 136.47 78.1177 131.5 78.1177 126.529 78.1177 122.5 61.9861 122.5 42.0868 122.5 22.1875 126.529 6.05592 131.5 6.05592Z" fill="#FF0000" fill-rule="evenodd"/><path d="M131.5 78.1176C126.529 78.1176 122.5 61.986 122.5 42.0867 122.5 22.1874 126.529 6.05578 131.5 6.05578 136.47 6.05578 140.5 22.1874 140.5 42.0867 140.5 61.986 136.47 78.1176 131.5 78.1176L15.4999 78.1176C10.5293 78.1176 6.49988 61.986 6.49988 42.0867 6.49988 22.1874 10.5293 6.05578 15.4999 6.05578L131.5 6.05592" stroke="#F69240" stroke-width="1.00086" stroke-linejoin="round" stroke-miterlimit="10" fill="none" fill-rule="evenodd"/></g></g></g><path d="M602.5 161.638C597.529 161.638 593.5 177.77 593.5 197.669 593.5 217.569 597.529 233.7 602.5 233.7L486.5 233.7C481.529 233.7 477.5 217.568 477.5 197.669 477.5 177.77 481.529 161.638 486.5 161.638Z" fill="url(#fill57)" fill-rule="evenodd"/><path d="M602.5 161.638C607.471 161.638 611.5 177.77 611.5 197.669 611.5 217.569 607.471 233.7 602.5 233.7 597.529 233.7 593.5 217.569 593.5 197.669 593.5 177.77 597.529 161.638 602.5 161.638Z" fill="url(#fill58)" fill-rule="evenodd"/><path d="M602.5 233.7C597.529 233.7 593.5 217.568 593.5 197.669 593.5 177.77 597.529 161.638 602.5 161.638 607.471 161.638 611.5 177.77 611.5 197.669 611.5 217.568 607.471 233.7 602.5 233.7L486.5 233.7C481.529 233.7 477.5 217.568 477.5 197.669 477.5 177.77 481.529 161.638 486.5 161.638L602.5 161.638" stroke="#F69240" stroke-width="1.0012" stroke-linejoin="round" stroke-miterlimit="10" fill="none" fill-rule="evenodd"/><text fill="#FFFFFF" font-family="Monaco,Monaco_MSFontService,sans-serif" font-weight="400" font-size="24" transform="matrix(1 0 0 1.00086 506.263 206)">canal</text><g clip-path="url(#clip59)" filter="url(#fx14)" transform="translate(604 73)"><g clip-path="url(#clip60)"><path d="M0.70742-0.706793 107.909 106.589 106.494 108.003-0.70742 0.706793ZM109.089 103.524 111.915 112.014 103.428 109.181Z" fill="#4F81BD" transform="matrix(1 0 0 -1.00086 6.99994 126.285)"/></g></g><path d="M0.707661-0.707034 107.909 106.589 106.494 108.003-0.707661 0.707034ZM109.089 103.524 111.915 112.014 103.428 109.181Z" fill="#4F81BD" transform="matrix(1 0 0 -1.00086 611 197.183)"/><text fill="#595959" font-family="Monaco,Monaco_MSFontService,sans-serif" font-weight="400" font-size="19" transform="matrix(1 0 0 1.00086 436.699 121)">2.2.<tspan font-family="SimHei,SimHei_MSFontService,sans-serif" font-size="19" x="44.6819" y="0">通知酒店数据变更情况</tspan></text></g></svg>