<svg width="978" height="493" xmlns="http://www.w3.org/2000/svg" xmlns:xlink="http://www.w3.org/1999/xlink" overflow="hidden"><defs><filter id="fx0" x="-10%" y="-10%" width="120%" height="120%" filterUnits="userSpaceOnUse" primitiveUnits="userSpaceOnUse"><feComponentTransfer color-interpolation-filters="sRGB"><feFuncR type="discrete" tableValues="0 0"/><feFuncG type="discrete" tableValues="0 0"/><feFuncB type="discrete" tableValues="0 0"/><feFuncA type="linear" slope="0.4" intercept="0"/></feComponentTransfer><feGaussianBlur stdDeviation="1.77838 1.77718"/></filter><filter id="fx1" x="-10%" y="-10%" width="120%" height="120%" filterUnits="userSpaceOnUse" primitiveUnits="userSpaceOnUse"><feComponentTransfer color-interpolation-filters="sRGB"><feFuncR type="discrete" tableValues="0 0"/><feFuncG type="discrete" tableValues="0 0"/><feFuncB type="discrete" tableValues="0 0"/><feFuncA type="linear" slope="0.4" intercept="0"/></feComponentTransfer><feGaussianBlur stdDeviation="1.77838 1.77718"/></filter><filter id="fx2" x="-10%" y="-10%" width="120%" height="120%" filterUnits="userSpaceOnUse" primitiveUnits="userSpaceOnUse"><feComponentTransfer color-interpolation-filters="sRGB"><feFuncR type="discrete" tableValues="0 0"/><feFuncG type="discrete" tableValues="0 0"/><feFuncB type="discrete" tableValues="0 0"/><feFuncA type="linear" slope="0.4" intercept="0"/></feComponentTransfer><feGaussianBlur stdDeviation="1.77838 1.77718"/></filter><filter id="fx3" x="-10%" y="-10%" width="120%" height="120%" filterUnits="userSpaceOnUse" primitiveUnits="userSpaceOnUse"><feComponentTransfer color-interpolation-filters="sRGB"><feFuncR type="discrete" tableValues="0 0"/><feFuncG type="discrete" tableValues="0 0"/><feFuncB type="discrete" tableValues="0 0"/><feFuncA type="linear" slope="0.4" intercept="0"/></feComponentTransfer><feGaussianBlur stdDeviation="1.77838 1.77718"/></filter><filter id="fx4" x="-10%" y="-10%" width="120%" height="120%" filterUnits="userSpaceOnUse" primitiveUnits="userSpaceOnUse"><feComponentTransfer color-interpolation-filters="sRGB"><feFuncR type="discrete" tableValues="0 0"/><feFuncG type="discrete" tableValues="0 0"/><feFuncB type="discrete" tableValues="0 0"/><feFuncA type="linear" slope="0.4" intercept="0"/></feComponentTransfer><feGaussianBlur stdDeviation="1.77838 1.77718"/></filter><filter id="fx5" x="-10%" y="-10%" width="120%" height="120%" filterUnits="userSpaceOnUse" primitiveUnits="userSpaceOnUse"><feComponentTransfer color-interpolation-filters="sRGB"><feFuncR type="discrete" tableValues="0 0"/><feFuncG type="discrete" tableValues="0 0"/><feFuncB type="discrete" tableValues="0 0"/><feFuncA type="linear" slope="0.4" intercept="0"/></feComponentTransfer><feGaussianBlur stdDeviation="1.77838 1.77718"/></filter><clipPath id="clip6"><rect x="0" y="0" width="978" height="493"/></clipPath><clipPath id="clip7"><rect x="-2" y="-2" width="292" height="413"/></clipPath><clipPath id="clip8"><rect x="0" y="0" width="288" height="411"/></clipPath><clipPath id="clip9"><rect x="11" y="9" width="87" height="33"/></clipPath><clipPath id="clip10"><rect x="0" y="0" width="110" height="53"/></clipPath><clipPath id="clip11"><rect x="-2" y="-2" width="292" height="413"/></clipPath><clipPath id="clip12"><rect x="0" y="0" width="288" height="411"/></clipPath><clipPath id="clip13"><rect x="11" y="9" width="89" height="33"/></clipPath><clipPath id="clip14"><rect x="0" y="0" width="111" height="53"/></clipPath><clipPath id="clip15"><rect x="-2" y="-2" width="292" height="413"/></clipPath><clipPath id="clip16"><rect x="0" y="0" width="288" height="411"/></clipPath><clipPath id="clip17"><rect x="13" y="9" width="87" height="33"/></clipPath><clipPath id="clip18"><rect x="0" y="0" width="111" height="53"/></clipPath></defs><g clip-path="url(#clip6)"><rect x="0" y="0" width="978" height="492.665" fill="#FFFFFF"/><g clip-path="url(#clip7)" filter="url(#fx0)" transform="translate(655 45)"><g clip-path="url(#clip8)"><path d="M7 29.3208C7 16.9746 17.0153 6.96605 29.3699 6.96605L258.601 6.96605C270.956 6.96605 280.971 16.9746 280.971 29.3208L280.971 381.342C280.971 393.688 270.956 403.697 258.601 403.697L29.3699 403.697C17.0153 403.697 7 393.688 7 381.342Z" fill="#FDEADA" fill-rule="evenodd"/></g></g><g clip-path="url(#clip9)" filter="url(#fx1)" transform="translate(744 50)"><g clip-path="url(#clip10)"><path d="M15.5859-14.1016C16.1302-14.1016 16.9961-14.1263 18.1836-14.1758L18.1836-12.7656C17.0951-12.8151 15.7591-12.8398 14.1758-12.8398L14.1758-0.296875C14.1758 0.59375 13.7923 1.15039 13.0254 1.37305 12.2585 1.5957 11.4792 1.73177 10.6875 1.78125 10.638 1.13802 10.4401 0.470052 10.0938-0.222656 10.9349-0.123698 11.5781-0.0989583 12.0234-0.148438 12.4687-0.197917 12.7161-0.445312 12.7656-0.890625L12.7656-12.8398 9.57422-12.8398C8.83203-12.8398 8.0651-12.8151 7.27344-12.7656L7.27344-14.1758C8.51042-14.1263 9.30208-14.1016 9.64844-14.1016ZM5.49219-1.26172C6.58073-2.20182 7.47135-2.99349 8.16406-3.63672 8.3125-3.04297 8.51042-2.54818 8.75781-2.15234 8.01562-1.55859 7.2487-0.927734 6.45703-0.259766 5.66536 0.408203 4.9974 1.03906 4.45312 1.63281 4.15625 1.1875 3.8099 0.791667 3.41406 0.445312 3.90885 0.0494792 4.13151-0.494792 4.08203-1.1875L4.08203-8.08984 3.04297-8.08984C2.20182-8.08984 1.48437-8.0651 0.890625-8.01562L0.890625-9.42578C1.48437-9.3763 2.20182-9.35156 3.04297-9.35156L5.56641-9.35156C5.56641-8.41146 5.54167-7.52083 5.49219-6.67969ZM3.41406-15.2148C4.15625-14.5221 5.14583-13.5078 6.38281-12.1719 5.98698-11.8255 5.56641-11.4297 5.12109-10.9844 4.27995-12.1224 3.33984-13.1615 2.30078-14.1016 2.74609-14.4974 3.11719-14.8685 3.41406-15.2148ZM34.3332-12.0977 34.3332-4.52734 28.7668-4.52734 28.7668-2.74609 33.6652-2.74609C34.7538-2.74609 35.6939-2.77083 36.4855-2.82031L36.4855-1.33594C35.6444-1.38542 34.7043-1.41016 33.6652-1.41016L28.7668-1.41016C28.7668 0.123698 28.7915 1.21224 28.841 1.85547L27.2082 1.85547C27.3071 1.21224 27.3566 0.123698 27.3566-1.41016L22.5324-1.41016C21.3449-1.41016 20.479-1.38542 19.9347-1.33594L19.9347-2.82031C20.4295-2.77083 21.2459-2.74609 22.384-2.74609L27.3566-2.74609 27.3566-4.52734 22.0129-4.52734C22.0624-5.36849 22.0871-6.58073 22.0871-8.16406 22.0871-9.7474 22.0624-11.0586 22.0129-12.0977L29.3605-12.0977C29.9048-13.2357 30.3749-14.3984 30.7707-15.5859 31.2655-15.3385 31.8345-15.0664 32.4777-14.7695 32.2798-14.5221 32.0324-14.1387 31.7355-13.6191 31.4387-13.0996 31.1418-12.5924 30.8449-12.0977ZM32.8488-5.71484 32.8488-7.71875 28.7668-7.71875 28.7668-5.71484ZM32.8488-8.90625 32.8488-10.8359 28.7668-10.8359 28.7668-8.90625ZM27.3566-5.71484 27.3566-7.71875 23.4972-7.71875 23.4972-5.71484ZM27.3566-8.90625 27.3566-10.8359 23.4972-10.8359 23.4972-8.90625ZM24.9074-15.5117C25.4022-14.9674 25.9712-14.1016 26.6144-12.9141 26.0702-12.6667 25.6249-12.444 25.2785-12.2461 24.7837-13.3346 24.2889-14.1758 23.7941-14.7695 24.1405-14.9674 24.5116-15.2148 24.9074-15.5117ZM47.0687-8.90625C46.7224-8.75781 46.3018-8.53516 45.807-8.23828 45.3122-7.94141 44.669-7.54557 43.8773-7.05078L47.514-7.05078C48.3057-7.44661 49.0479-7.96615 49.7406-8.60938 50.3343-8.21354 50.9281-7.84245 51.5218-7.49609 50.6312-7.2487 49.8024-6.91471 49.0355-6.49414 48.2686-6.07357 46.6481-5.26953 44.1742-4.08203 46.3018-4.18099 48.5778-4.27995 51.0023-4.37891 50.6065-4.72526 50.2106-5.04688 49.8148-5.34375 50.3591-5.59115 50.7302-5.86328 50.9281-6.16016 51.8187-5.66536 52.9073-4.72526 54.1937-3.33984 53.6989-3.04297 53.3031-2.72135 53.0062-2.375 52.5609-2.77083 52.1898-3.11719 51.8929-3.41406 50.9034-3.41406 49.4685-3.33984 47.5882-3.19141L47.5882 0.0742188C47.5882 0.816406 47.3532 1.26172 46.8832 1.41016 46.4131 1.55859 45.6586 1.70703 44.6195 1.85547 44.57 1.3112 44.3721 0.791667 44.0257 0.296875 44.7185 0.296875 45.238 0.272135 45.5843 0.222656 45.9307 0.173177 46.1039-0.0247396 46.1039-0.371094L46.1039-3.04297C44.57-3.04297 43.333-2.98112 42.3929-2.85742 41.4528-2.73372 40.7354-2.6224 40.2406-2.52344 40.0922-3.01823 39.9437-3.46354 39.7953-3.85938 40.9828-4.05729 41.9847-4.30469 42.8011-4.60156 43.6175-4.89844 44.6442-5.39323 45.8812-6.08594 44.7432-6.08594 43.8897-6.0612 43.3207-6.01172 42.7517-5.96224 42.0713-5.83854 41.2797-5.64062 41.1312-6.1849 40.9828-6.63021 40.8343-6.97656 41.5271-7.02604 42.2692-7.28581 43.0609-7.75586 43.8526-8.22591 44.5948-8.88151 45.2875-9.72266 45.8812-9.42578 46.475-9.15365 47.0687-8.90625ZM45.9554-13.7305C45.9554-14.3242 45.9307-14.8438 45.8812-15.2891L47.514-15.2891C47.4646-14.6953 47.4398-14.1758 47.4398-13.7305L51.5218-13.7305C52.0661-13.7305 52.8578-13.7552 53.8968-13.8047L53.8968-12.6172C52.9567-12.6667 52.1403-12.6914 51.4476-12.6914L47.4398-12.6914 47.4398-11.1328 54.8617-11.1328C54.8122-10.737 54.7875-10.2422 54.7875-9.64844 54.7875-9.05469 54.8122-8.51042 54.8617-8.01562L53.3031-8.01562 53.3031-10.0195 40.2406-10.0195 40.2406-7.49609 38.7562-7.49609 38.7562-11.1328 45.9554-11.1328 45.9554-12.6914 42.5414-12.6914C41.156-12.6914 40.2406-12.6667 39.7953-12.6172L39.7953-13.8047C40.4385-13.7552 41.3291-13.7305 42.4672-13.7305ZM50.7797-2.375C52.0661-1.53385 53.4021-0.667969 54.7875 0.222656 54.3422 0.56901 53.9463 0.940104 53.6 1.33594 52.264 0.247396 50.9281-0.692708 49.5922-1.48438 50.0375-1.83073 50.4333-2.1276 50.7797-2.375ZM43.6547-1.33594C43.2093-1.08854 42.6651-0.717448 42.0218-0.222656 41.3786 0.272135 40.5869 0.816406 39.6468 1.41016 39.3994 1.01432 39.0036 0.667969 38.4593 0.371094 39.8942-0.321615 41.2054-1.21224 42.3929-2.30078 42.7888-1.95443 43.2093-1.63281 43.6547-1.33594ZM66.3355-14.3242C66.286-13.3841 66.2613-12.4935 66.2613-11.6523 66.2613-10.8112 66.286-9.94531 66.3355-9.05469L60.1753-9.05469 60.0269-6.16016 66.4839-6.16016C66.0386-2.35026 65.7417-0.197917 65.5933 0.296875 65.4449 0.791667 65.0614 1.15039 64.4429 1.37305 63.8244 1.5957 62.5998 1.75651 60.7691 1.85547 60.7196 1.3112 60.5217 0.717448 60.1753 0.0742188 61.9071 0.123698 62.9833 0.0989583 63.4039 0 63.8244-0.0989583 64.1089-0.395833 64.2574-0.890625L64.7769-4.97266 58.4683-4.97266C58.5178-5.76432 58.5673-6.56836 58.6167-7.38477 58.6662-8.20117 58.691-9.15365 58.691-10.2422L64.7769-10.2422 64.7769-13.0625 61.7339-13.0625C60.5959-13.0625 59.4826-13.0378 58.3941-12.9883L58.3941-14.3984C59.4826-14.349 60.4227-14.3242 61.2144-14.3242ZM72.1988-15.0664C72.1493-14.1758 72.1246-13.2852 72.1246-12.3945L72.1246-1.78125C72.1246-0.692708 72.1493 0.445313 72.1988 1.63281L70.566 1.63281C70.6154 0.346354 70.6402-0.791667 70.6402-1.78125L70.6402-12.4688C70.6402-13.3099 70.6154-14.1758 70.566-15.0664Z" fill="#E46C0A" transform="matrix(1 0 0 0.999321 17.7458 32)"/></g></g><path d="M662 70.3221C662 57.976 672.015 47.9674 684.37 47.9674L913.601 47.9674C925.956 47.9674 935.971 57.976 935.971 70.3221L935.971 422.343C935.971 434.689 925.956 444.698 913.601 444.698L684.37 444.698C672.015 444.698 662 434.689 662 422.343Z" fill="#FDEADA" fill-rule="evenodd"/><text fill="#E46C0A" font-family="SimHei,SimHei_MSFontService,sans-serif" font-weight="400" font-size="19" transform="matrix(1 0 0 0.999321 761.746 78)">订单索引</text><g clip-path="url(#clip11)" filter="url(#fx2)" transform="translate(341 45)"><g clip-path="url(#clip12)"><path d="M6.99997 29.3208C6.99997 16.9746 17.0153 6.96605 29.3699 6.96605L258.601 6.96605C270.956 6.96605 280.971 16.9746 280.971 29.3208L280.971 381.342C280.971 393.688 270.956 403.697 258.601 403.697L29.3699 403.697C17.0153 403.697 6.99997 393.688 6.99997 381.342Z" fill="#EBF1DE" fill-rule="evenodd"/></g></g><g clip-path="url(#clip13)" filter="url(#fx3)" transform="translate(429 50)"><g clip-path="url(#clip14)"><path d="M1.03906 0.890625C1.63281 0.0494792 2.09049-0.841146 2.41211-1.78125 2.73372-2.72135 2.93164-3.66146 3.00586-4.60156 3.08008-5.54167 3.11719-7.125 3.11719-9.35156 3.11719-11.5781 3.09245-13.3594 3.04297-14.6953L16.3281-14.6953C16.2786-13.2604 16.2539-11.974 16.2539-10.8359L16.2539-1.11328C16.2539-0.0742188 15.957 0.56901 15.3633 0.816406 14.7695 1.0638 14.0768 1.23698 13.2852 1.33594 13.1862 0.59375 13.013 0.0247396 12.7656-0.371094 13.7552-0.321615 14.3366-0.358724 14.5098-0.482422 14.6829-0.60612 14.7695-0.841146 14.7695-1.1875L14.7695-4.89844 10.2422-4.89844 10.2422-2.00391C10.2422-0.915365 10.2669 0.0742188 10.3164 0.964844L8.68359 0.964844C8.73307 0.123698 8.75781-0.841146 8.75781-1.92969L8.75781-4.89844 4.52734-4.89844C4.32943-2.77083 3.66146-0.61849 2.52344 1.55859 1.97917 1.21224 1.48438 0.989583 1.03906 0.890625ZM14.7695-10.3164 14.7695-13.5078 10.2422-13.5078 10.2422-10.3164ZM14.7695-6.08594 14.7695-9.20312 10.2422-9.20312 10.2422-6.08594ZM8.75781-10.3164 8.75781-13.5078 4.52734-13.5078 4.52734-10.3164ZM8.75781-6.08594 8.75781-9.20312 4.52734-9.20312 4.52734-6.08594ZM35.8176-12.0234C35.7681-10.8359 35.7433-9.47526 35.7433-7.94141 35.7433-6.45703 35.7681-5.29427 35.8176-4.45312L34.1847-4.45312 34.1847-5.56641 23.8683-5.56641C23.6704-3.98307 23.423-2.79557 23.1262-2.00391 22.8293-1.21224 22.5077-0.507161 22.1613 0.111328 21.815 0.729818 21.4439 1.3112 21.048 1.85547 20.5532 1.45964 20.009 1.16276 19.4152 0.964844 20.4048-0.0742187 21.0851-1.05143 21.4562-1.9668 21.8273-2.88216 22.0747-3.74805 22.1984-4.56445 22.3221-5.38086 22.384-6.25911 22.384-7.19922 22.384-8.13932 22.3592-9.7474 22.3097-12.0234ZM34.1105-6.90234 34.1105-10.6875 23.7941-10.6875 23.7941-6.90234ZM28.7668-15.6602C29.3605-14.4727 29.7811-13.5326 30.0285-12.8398 29.3853-12.6914 28.8905-12.5182 28.5441-12.3203 28.1978-13.3594 27.8019-14.2747 27.3566-15.0664 27.8514-15.2148 28.3215-15.4128 28.7668-15.6602ZM47.0687-8.90625C46.7224-8.75781 46.3018-8.53516 45.807-8.23828 45.3122-7.94141 44.669-7.54557 43.8773-7.05078L47.514-7.05078C48.3057-7.44661 49.0479-7.96615 49.7406-8.60938 50.3343-8.21354 50.9281-7.84245 51.5218-7.49609 50.6312-7.2487 49.8024-6.91471 49.0355-6.49414 48.2686-6.07357 46.6481-5.26953 44.1742-4.08203 46.3018-4.18099 48.5778-4.27995 51.0023-4.37891 50.6065-4.72526 50.2106-5.04688 49.8148-5.34375 50.3591-5.59115 50.7302-5.86328 50.9281-6.16016 51.8187-5.66536 52.9073-4.72526 54.1937-3.33984 53.6989-3.04297 53.3031-2.72135 53.0062-2.375 52.5609-2.77083 52.1898-3.11719 51.8929-3.41406 50.9034-3.41406 49.4685-3.33984 47.5882-3.19141L47.5882 0.0742188C47.5882 0.816406 47.3532 1.26172 46.8832 1.41016 46.4131 1.55859 45.6586 1.70703 44.6195 1.85547 44.57 1.3112 44.3721 0.791667 44.0257 0.296875 44.7185 0.296875 45.238 0.272135 45.5843 0.222656 45.9307 0.173177 46.1039-0.0247396 46.1039-0.371094L46.1039-3.04297C44.57-3.04297 43.333-2.98112 42.3929-2.85742 41.4528-2.73372 40.7354-2.6224 40.2406-2.52344 40.0922-3.01823 39.9437-3.46354 39.7953-3.85938 40.9828-4.05729 41.9847-4.30469 42.8011-4.60156 43.6175-4.89844 44.6442-5.39323 45.8812-6.08594 44.7432-6.08594 43.8897-6.0612 43.3207-6.01172 42.7517-5.96224 42.0713-5.83854 41.2797-5.64062 41.1312-6.1849 40.9828-6.63021 40.8343-6.97656 41.5271-7.02604 42.2692-7.28581 43.0609-7.75586 43.8526-8.22591 44.5948-8.88151 45.2875-9.72266 45.8812-9.42578 46.475-9.15365 47.0687-8.90625ZM45.9554-13.7305C45.9554-14.3242 45.9307-14.8438 45.8812-15.2891L47.514-15.2891C47.4646-14.6953 47.4398-14.1758 47.4398-13.7305L51.5218-13.7305C52.0661-13.7305 52.8578-13.7552 53.8968-13.8047L53.8968-12.6172C52.9567-12.6667 52.1403-12.6914 51.4476-12.6914L47.4398-12.6914 47.4398-11.1328 54.8617-11.1328C54.8122-10.737 54.7875-10.2422 54.7875-9.64844 54.7875-9.05469 54.8122-8.51042 54.8617-8.01562L53.3031-8.01562 53.3031-10.0195 40.2406-10.0195 40.2406-7.49609 38.7562-7.49609 38.7562-11.1328 45.9554-11.1328 45.9554-12.6914 42.5414-12.6914C41.156-12.6914 40.2406-12.6667 39.7953-12.6172L39.7953-13.8047C40.4385-13.7552 41.3291-13.7305 42.4672-13.7305ZM50.7797-2.375C52.0661-1.53385 53.4021-0.667969 54.7875 0.222656 54.3422 0.56901 53.9463 0.940104 53.6 1.33594 52.264 0.247396 50.9281-0.692708 49.5922-1.48438 50.0375-1.83073 50.4333-2.1276 50.7797-2.375ZM43.6547-1.33594C43.2093-1.08854 42.6651-0.717448 42.0218-0.222656 41.3786 0.272135 40.5869 0.816406 39.6468 1.41016 39.3994 1.01432 39.0036 0.667969 38.4593 0.371094 39.8942-0.321615 41.2054-1.21224 42.3929-2.30078 42.7888-1.95443 43.2093-1.63281 43.6547-1.33594ZM66.3355-14.3242C66.286-13.3841 66.2613-12.4935 66.2613-11.6523 66.2613-10.8112 66.286-9.94531 66.3355-9.05469L60.1753-9.05469 60.0269-6.16016 66.4839-6.16016C66.0386-2.35026 65.7417-0.197917 65.5933 0.296875 65.4449 0.791667 65.0614 1.15039 64.4429 1.37305 63.8244 1.5957 62.5998 1.75651 60.7691 1.85547 60.7196 1.3112 60.5217 0.717448 60.1753 0.0742188 61.9071 0.123698 62.9833 0.0989583 63.4039 0 63.8244-0.0989583 64.1089-0.395833 64.2574-0.890625L64.7769-4.97266 58.4683-4.97266C58.5178-5.76432 58.5673-6.56836 58.6167-7.38477 58.6662-8.20117 58.691-9.15365 58.691-10.2422L64.7769-10.2422 64.7769-13.0625 61.7339-13.0625C60.5959-13.0625 59.4826-13.0378 58.3941-12.9883L58.3941-14.3984C59.4826-14.349 60.4227-14.3242 61.2144-14.3242ZM72.1988-15.0664C72.1493-14.1758 72.1246-13.2852 72.1246-12.3945L72.1246-1.78125C72.1246-0.692708 72.1493 0.445313 72.1988 1.63281L70.566 1.63281C70.6154 0.346354 70.6402-0.791667 70.6402-1.78125L70.6402-12.4688C70.6402-13.3099 70.6154-14.1758 70.566-15.0664Z" fill="#4F6228" transform="matrix(1 0 0 0.999321 18.1834 32)"/></g></g><path d="M348 70.3221C348 57.976 358.015 47.9674 370.37 47.9674L599.601 47.9674C611.956 47.9674 621.971 57.976 621.971 70.3221L621.971 422.343C621.971 434.689 611.956 444.698 599.601 444.698L370.37 444.698C358.015 444.698 348 434.689 348 422.343Z" fill="#EBF1DE" fill-rule="evenodd"/><text fill="#4F6228" font-family="SimHei,SimHei_MSFontService,sans-serif" font-weight="400" font-size="19" transform="matrix(1 0 0 0.999321 447.183 78)">用户索引</text><g clip-path="url(#clip15)" filter="url(#fx4)" transform="translate(29 44)"><g clip-path="url(#clip16)"><path d="M6.82941 29.1496C6.82941 16.8034 16.8447 6.79488 29.1993 6.79488L258.431 6.79488C270.785 6.79488 280.801 16.8034 280.801 29.1496L280.801 381.171C280.801 393.517 270.785 403.525 258.431 403.525L29.1993 403.525C16.8447 403.525 6.82941 393.517 6.82941 381.171Z" fill="#F2F2F2" fill-rule="evenodd"/></g></g><g clip-path="url(#clip17)" filter="url(#fx5)" transform="translate(117 49)"><g clip-path="url(#clip18)"><path d="M9.35156-15.5117C9.99479-14.5221 10.3906-13.8294 10.5391-13.4336L14.7695-13.4336C15.7591-13.4336 16.7487-13.4583 17.7383-13.5078L17.7383-12.1719C16.7487-12.2214 15.7591-12.2461 14.7695-12.2461L6.23438-12.2461C7.17448-11.2565 7.74349-10.6133 7.94141-10.3164 7.59505-10.168 7.22396-9.94531 6.82812-9.64844L10.8359-9.64844C11.1328-10.4401 11.4297-11.2812 11.7266-12.1719 12.2214-11.974 12.7904-11.8008 13.4336-11.6523 13.0872-11.207 12.6914-10.5391 12.2461-9.64844L16.4023-9.64844C16.3529-9.05469 16.3281-8.23828 16.3281-7.19922L16.3281 0.148438C16.3281 0.742188 16.056 1.16276 15.5117 1.41016 14.9674 1.65755 14.2253 1.85547 13.2852 2.00391 13.2357 1.41016 13.0378 0.865885 12.6914 0.371094 13.681 0.420573 14.2995 0.371094 14.5469 0.222656 14.7943 0.0742188 14.918-0.173177 14.918-0.519531L14.918-8.60938 4.08203-8.60938 4.08203 1.78125 2.59766 1.78125C2.64714 0.494792 2.67188-0.420573 2.67188-0.964844L2.67188-7.34766C2.67188-7.84245 2.64714-8.60938 2.59766-9.64844L6.67969-9.64844C6.33333-10.2422 5.76432-10.8607 4.97266-11.5039 5.36849-11.7018 5.73958-11.9492 6.08594-12.2461L4.37891-12.2461C3.24089-12.2461 2.2513-12.2214 1.41016-12.1719L1.41016-13.5078C2.2513-13.4583 3.21615-13.4336 4.30469-13.4336L8.90625-13.4336C8.75781-13.9284 8.4362-14.4479 7.94141-14.9922 8.4362-15.1406 8.90625-15.3138 9.35156-15.5117ZM7.71875-7.86719C8.21354-7.52083 8.68359-7.22396 9.12891-6.97656 8.63411-6.72917 7.91667-6.0612 6.97656-4.97266L12.6172-4.97266C12.5677-4.32943 12.543-3.63672 12.543-2.89453 12.543-2.15234 12.5677-1.41016 12.6172-0.667969L6.82812-0.667969C6.8776-1.41016 6.90234-2.1276 6.90234-2.82031 6.90234-3.5625 6.8776-4.23047 6.82812-4.82422 6.48177-4.52734 6.13542-4.25521 5.78906-4.00781 5.54167-4.35417 5.17057-4.6263 4.67578-4.82422 6.20964-6.01172 7.22396-7.02604 7.71875-7.86719ZM11.1328-1.78125 11.1328-3.85938 8.23828-3.85938 8.23828-1.78125ZM11.207-7.94141C12.5924-7.05078 13.7057-6.23438 14.5469-5.49219 14.1016-5.24479 13.7305-4.92318 13.4336-4.52734 12.9388-5.12109 11.8997-5.9375 10.3164-6.97656 10.6628-7.22396 10.9596-7.54557 11.207-7.94141ZM33.2199-14.4727C33.1704-13.582 33.1457-12.5677 33.1457-11.4297 33.1457-10.3411 33.1704-9.3763 33.2199-8.53516L23.0519-8.53516C23.1509-9.3763 23.2004-10.3659 23.2004-11.5039 23.2004-12.6419 23.1509-13.6315 23.0519-14.4727ZM36.0402-6.82812C35.9907-5.9375 35.966-4.57682 35.966-2.74609 35.966-0.964844 35.9907 0.296875 36.0402 1.03906L34.6301 1.03906 34.6301 0 30.3996 0 30.3996 1.26172 28.9894 1.26172C29.0389 0.420573 29.0637-0.915365 29.0637-2.74609 29.0637-4.57682 29.0389-5.9375 28.9894-6.82812ZM25.798 1.1875 25.798 0 21.7902 0 21.7902 1.26172 20.3801 1.26172C20.4295 0.420573 20.4543-0.915365 20.4543-2.74609 20.4543-4.6263 20.4295-5.98698 20.3801-6.82812L27.2082-6.82812C27.1092-5.98698 27.0597-4.79948 27.0597-3.26562 27.0597-1.78125 27.1092-0.296875 27.2082 1.1875ZM31.8097-9.79688 31.8097-13.2109 24.5363-13.2109 24.5363-9.79688ZM34.6301-1.33594 34.6301-5.49219 30.3996-5.49219 30.3996-1.33594ZM25.798-1.33594 25.798-5.49219 21.7902-5.49219 21.7902-1.33594ZM47.0687-8.90625C46.7224-8.75781 46.3018-8.53516 45.807-8.23828 45.3122-7.94141 44.669-7.54557 43.8773-7.05078L47.514-7.05078C48.3057-7.44661 49.0479-7.96615 49.7406-8.60938 50.3343-8.21354 50.9281-7.84245 51.5218-7.49609 50.6312-7.2487 49.8024-6.91471 49.0355-6.49414 48.2686-6.07357 46.6481-5.26953 44.1742-4.08203 46.3018-4.18099 48.5778-4.27995 51.0023-4.37891 50.6065-4.72526 50.2106-5.04688 49.8148-5.34375 50.3591-5.59115 50.7302-5.86328 50.9281-6.16016 51.8187-5.66536 52.9073-4.72526 54.1937-3.33984 53.6989-3.04297 53.3031-2.72135 53.0062-2.375 52.5609-2.77083 52.1898-3.11719 51.8929-3.41406 50.9034-3.41406 49.4685-3.33984 47.5882-3.19141L47.5882 0.0742188C47.5882 0.816406 47.3532 1.26172 46.8832 1.41016 46.4131 1.55859 45.6586 1.70703 44.6195 1.85547 44.57 1.3112 44.3721 0.791667 44.0257 0.296875 44.7185 0.296875 45.238 0.272135 45.5843 0.222656 45.9307 0.173177 46.1039-0.0247396 46.1039-0.371094L46.1039-3.04297C44.57-3.04297 43.333-2.98112 42.3929-2.85742 41.4528-2.73372 40.7354-2.6224 40.2406-2.52344 40.0922-3.01823 39.9437-3.46354 39.7953-3.85938 40.9828-4.05729 41.9847-4.30469 42.8011-4.60156 43.6175-4.89844 44.6442-5.39323 45.8812-6.08594 44.7432-6.08594 43.8897-6.0612 43.3207-6.01172 42.7517-5.96224 42.0713-5.83854 41.2797-5.64062 41.1312-6.1849 40.9828-6.63021 40.8343-6.97656 41.5271-7.02604 42.2692-7.28581 43.0609-7.75586 43.8526-8.22591 44.5948-8.88151 45.2875-9.72266 45.8812-9.42578 46.475-9.15365 47.0687-8.90625ZM45.9554-13.7305C45.9554-14.3242 45.9307-14.8438 45.8812-15.2891L47.514-15.2891C47.4646-14.6953 47.4398-14.1758 47.4398-13.7305L51.5218-13.7305C52.0661-13.7305 52.8578-13.7552 53.8968-13.8047L53.8968-12.6172C52.9567-12.6667 52.1403-12.6914 51.4476-12.6914L47.4398-12.6914 47.4398-11.1328 54.8617-11.1328C54.8122-10.737 54.7875-10.2422 54.7875-9.64844 54.7875-9.05469 54.8122-8.51042 54.8617-8.01562L53.3031-8.01562 53.3031-10.0195 40.2406-10.0195 40.2406-7.49609 38.7562-7.49609 38.7562-11.1328 45.9554-11.1328 45.9554-12.6914 42.5414-12.6914C41.156-12.6914 40.2406-12.6667 39.7953-12.6172L39.7953-13.8047C40.4385-13.7552 41.3291-13.7305 42.4672-13.7305ZM50.7797-2.375C52.0661-1.53385 53.4021-0.667969 54.7875 0.222656 54.3422 0.56901 53.9463 0.940104 53.6 1.33594 52.264 0.247396 50.9281-0.692708 49.5922-1.48438 50.0375-1.83073 50.4333-2.1276 50.7797-2.375ZM43.6547-1.33594C43.2093-1.08854 42.6651-0.717448 42.0218-0.222656 41.3786 0.272135 40.5869 0.816406 39.6468 1.41016 39.3994 1.01432 39.0036 0.667969 38.4593 0.371094 39.8942-0.321615 41.2054-1.21224 42.3929-2.30078 42.7888-1.95443 43.2093-1.63281 43.6547-1.33594ZM66.3355-14.3242C66.286-13.3841 66.2613-12.4935 66.2613-11.6523 66.2613-10.8112 66.286-9.94531 66.3355-9.05469L60.1753-9.05469 60.0269-6.16016 66.4839-6.16016C66.0386-2.35026 65.7417-0.197917 65.5933 0.296875 65.4449 0.791667 65.0614 1.15039 64.4429 1.37305 63.8244 1.5957 62.5998 1.75651 60.7691 1.85547 60.7196 1.3112 60.5217 0.717448 60.1753 0.0742188 61.9071 0.123698 62.9833 0.0989583 63.4039 0 63.8244-0.0989583 64.1089-0.395833 64.2574-0.890625L64.7769-4.97266 58.4683-4.97266C58.5178-5.76432 58.5673-6.56836 58.6167-7.38477 58.6662-8.20117 58.691-9.15365 58.691-10.2422L64.7769-10.2422 64.7769-13.0625 61.7339-13.0625C60.5959-13.0625 59.4826-13.0378 58.3941-12.9883L58.3941-14.3984C59.4826-14.349 60.4227-14.3242 61.2144-14.3242ZM72.1988-15.0664C72.1493-14.1758 72.1246-13.2852 72.1246-12.3945L72.1246-1.78125C72.1246-0.692708 72.1493 0.445313 72.1988 1.63281L70.566 1.63281C70.6154 0.346354 70.6402-0.791667 70.6402-1.78125L70.6402-12.4688C70.6402-13.3099 70.6154-14.1758 70.566-15.0664Z" fill="#7F7F7F" transform="matrix(1 0 0 0.999321 18.4508 32)"/></g></g><path d="M33 70.3221C33 57.976 43.0154 47.9674 55.3699 47.9674L284.601 47.9674C296.956 47.9674 306.971 57.976 306.971 70.3221L306.971 422.343C306.971 434.689 296.956 444.698 284.601 444.698L55.3699 444.698C43.0154 444.698 33 434.689 33 422.343Z" fill="#F2F2F2" fill-rule="evenodd"/><text fill="#7F7F7F" font-family="SimHei,SimHei_MSFontService,sans-serif" font-weight="400" font-size="19" transform="matrix(1 0 0 0.999321 132.621 78)">商品索引<tspan fill="#000000" font-family="Monaco,Monaco_MSFontService,sans-serif" font-size="15" x="-71.6184" y="148.101">{</tspan><tspan fill="#0451A5" font-family="Monaco,Monaco_MSFontService,sans-serif" font-size="15" x="-36.273" y="166.113">"id"</tspan><tspan fill="#000000" font-family="Monaco,Monaco_MSFontService,sans-serif" font-size="15" x="-0.927658" y="166.113">:</tspan><tspan fill="#098658" font-family="Monaco,Monaco_MSFontService,sans-serif" font-size="15" x="16.745" y="166.113">2</tspan><tspan fill="#000000" font-family="Monaco,Monaco_MSFontService,sans-serif" font-size="15" x="25.5814" y="166.113">,</tspan><tspan fill="#0451A5" font-family="Monaco,Monaco_MSFontService,sans-serif" font-size="15" x="-36.273" y="184.125">"title"</tspan><tspan fill="#000000" font-family="Monaco,Monaco_MSFontService,sans-serif" font-size="15" x="25.5814" y="184.125">:</tspan><tspan fill="#A31515" font-family="Monaco,Monaco_MSFontService,sans-serif" font-size="15" x="43.2541" y="184.125">"</tspan><tspan fill="#A31515" font-size="15" x="52.0904" y="184.125">华为手机</tspan><tspan fill="#A31515" font-family="Monaco,Monaco_MSFontService,sans-serif" font-size="15" x="110.777" y="184.125">"</tspan><tspan fill="#000000" font-family="Monaco,Monaco_MSFontService,sans-serif" font-size="15" x="119.613" y="184.125">,</tspan><tspan fill="#0451A5" font-family="Monaco,Monaco_MSFontService,sans-serif" font-size="15" x="-36.273" y="201.137">"price"</tspan><tspan fill="#000000" font-family="Monaco,Monaco_MSFontService,sans-serif" font-size="15" x="25.5814" y="201.137">:</tspan><tspan fill="#098658" font-family="Monaco,Monaco_MSFontService,sans-serif" font-size="15" x="43.2541" y="201.137">4999</tspan><tspan fill="#000000" font-family="Monaco,Monaco_MSFontService,sans-serif" font-size="15" x="-71.6184" y="219.149">}</tspan><tspan fill="#000000" font-family="Monaco,Monaco_MSFontService,sans-serif" font-size="15" x="253.012" y="34.0231">{</tspan><tspan fill="#0451A5" font-family="Monaco,Monaco_MSFontService,sans-serif" font-size="15" x="288.358" y="52.0353">"id"</tspan><tspan fill="#000000" font-family="Monaco,Monaco_MSFontService,sans-serif" font-size="15" x="323.703" y="52.0353">:</tspan><tspan fill="#098658" font-family="Monaco,Monaco_MSFontService,sans-serif" font-size="15" x="341.376" y="52.0353">101</tspan><tspan fill="#000000" font-family="Monaco,Monaco_MSFontService,sans-serif" font-size="15" x="367.885" y="52.0353">,</tspan><tspan fill="#0451A5" font-family="Monaco,Monaco_MSFontService,sans-serif" font-size="15" x="288.358" y="70.0475">"name"</tspan><tspan fill="#000000" font-family="Monaco,Monaco_MSFontService,sans-serif" font-size="15" x="341.376" y="70.0475">:</tspan><tspan fill="#A31515" font-family="Monaco,Monaco_MSFontService,sans-serif" font-size="15" x="359.049" y="70.0475">"</tspan><tspan fill="#A31515" font-size="15" x="367.885" y="70.0475">张三</tspan><tspan fill="#A31515" font-family="Monaco,Monaco_MSFontService,sans-serif" font-size="15" x="397.228" y="70.0475">"</tspan><tspan fill="#000000" font-family="Monaco,Monaco_MSFontService,sans-serif" font-size="15" x="406.065" y="70.0475">,</tspan><tspan fill="#0451A5" font-family="Monaco,Monaco_MSFontService,sans-serif" font-size="15" x="288.358" y="87.0591">"age"</tspan><tspan fill="#000000" font-family="Monaco,Monaco_MSFontService,sans-serif" font-size="15" x="332.54" y="87.0591">:</tspan><tspan fill="#098658" font-family="Monaco,Monaco_MSFontService,sans-serif" font-size="15" x="350.212" y="87.0591">21</tspan><tspan fill="#000000" font-family="Monaco,Monaco_MSFontService,sans-serif" font-size="15" x="253.012" y="105.071">}</tspan><tspan fill="#000000" font-family="Monaco,Monaco_MSFontService,sans-serif" font-size="15" x="563.46" y="202.137">{</tspan><tspan fill="#0451A5" font-family="Monaco,Monaco_MSFontService,sans-serif" font-size="15" x="598.806" y="220.149">"id"</tspan><tspan fill="#000000" font-family="Monaco,Monaco_MSFontService,sans-serif" font-size="15" x="634.151" y="220.149">:</tspan><tspan fill="#098658" font-family="Monaco,Monaco_MSFontService,sans-serif" font-size="15" x="651.824" y="220.149">11</tspan><tspan fill="#000000" font-family="Monaco,Monaco_MSFontService,sans-serif" font-size="15" x="669.496" y="220.149">,</tspan><tspan fill="#0451A5" font-family="Monaco,Monaco_MSFontService,sans-serif" font-size="15" x="598.806" y="237.161">"userId"</tspan><tspan fill="#000000" font-family="Monaco,Monaco_MSFontService,sans-serif" font-size="15" x="669.496" y="237.161">:</tspan><tspan fill="#A31515" font-family="Monaco,Monaco_MSFontService,sans-serif" font-size="15" x="687.169" y="237.161">102</tspan><tspan fill="#000000" font-family="Monaco,Monaco_MSFontService,sans-serif" font-size="15" x="713.678" y="237.161">,</tspan><tspan fill="#0451A5" font-family="Monaco,Monaco_MSFontService,sans-serif" font-size="15" x="598.806" y="255.173">"goodsId"</tspan><tspan fill="#000000" font-family="Monaco,Monaco_MSFontService,sans-serif" font-size="15" x="678.333" y="255.173">:</tspan><tspan fill="#A31515" font-family="Monaco,Monaco_MSFontService,sans-serif" font-size="15" x="696.005" y="255.173">2</tspan><tspan fill="#000000" font-family="Monaco,Monaco_MSFontService,sans-serif" font-size="15" x="704.842" y="255.173">,</tspan><tspan fill="#0451A5" font-family="Monaco,Monaco_MSFontService,sans-serif" font-size="15" x="598.806" y="273.185">"totalFee"</tspan><tspan fill="#000000" font-family="Monaco,Monaco_MSFontService,sans-serif" font-size="15" x="687.169" y="273.185">:</tspan><tspan fill="#098658" font-family="Monaco,Monaco_MSFontService,sans-serif" font-size="15" x="704.842" y="273.185">328</tspan><tspan fill="#000000" font-family="Monaco,Monaco_MSFontService,sans-serif" font-size="15" x="563.46" y="290.197">}</tspan><tspan fill="#000000" font-family="Monaco,Monaco_MSFontService,sans-serif" font-size="15" x="-71.6184" y="34.0231">{</tspan><tspan fill="#0451A5" font-family="Monaco,Monaco_MSFontService,sans-serif" font-size="15" x="-36.273" y="52.0353">"id"</tspan><tspan fill="#000000" font-family="Monaco,Monaco_MSFontService,sans-serif" font-size="15" x="-0.927658" y="52.0353">:</tspan><tspan fill="#098658" font-family="Monaco,Monaco_MSFontService,sans-serif" font-size="15" x="16.745" y="52.0353">1</tspan><tspan fill="#000000" font-family="Monaco,Monaco_MSFontService,sans-serif" font-size="15" x="25.5814" y="52.0353">,</tspan><tspan fill="#0451A5" font-family="Monaco,Monaco_MSFontService,sans-serif" font-size="15" x="-36.273" y="70.0475">"title"</tspan><tspan fill="#000000" font-family="Monaco,Monaco_MSFontService,sans-serif" font-size="15" x="25.5814" y="70.0475">:</tspan><tspan fill="#A31515" font-family="Monaco,Monaco_MSFontService,sans-serif" font-size="15" x="43.2541" y="70.0475">"</tspan><tspan fill="#A31515" font-size="15" x="52.0904" y="70.0475">小米手机</tspan><tspan fill="#A31515" font-family="Monaco,Monaco_MSFontService,sans-serif" font-size="15" x="110.777" y="70.0475">"</tspan><tspan fill="#000000" font-family="Monaco,Monaco_MSFontService,sans-serif" font-size="15" x="119.613" y="70.0475">,</tspan><tspan fill="#0451A5" font-family="Monaco,Monaco_MSFontService,sans-serif" font-size="15" x="-36.273" y="87.0591">"price"</tspan><tspan fill="#000000" font-family="Monaco,Monaco_MSFontService,sans-serif" font-size="15" x="25.5814" y="87.0591">:</tspan><tspan fill="#098658" font-family="Monaco,Monaco_MSFontService,sans-serif" font-size="15" x="43.2541" y="87.0591">3499</tspan><tspan fill="#000000" font-family="Monaco,Monaco_MSFontService,sans-serif" font-size="15" x="-71.6184" y="105.071">}</tspan><tspan fill="#000000" font-family="Monaco,Monaco_MSFontService,sans-serif" font-size="15" x="253.012" y="150.102">{</tspan><tspan fill="#0451A5" font-family="Monaco,Monaco_MSFontService,sans-serif" font-size="15" x="288.358" y="168.114">"id"</tspan><tspan fill="#000000" font-family="Monaco,Monaco_MSFontService,sans-serif" font-size="15" x="323.703" y="168.114">:</tspan><tspan fill="#098658" font-family="Monaco,Monaco_MSFontService,sans-serif" font-size="15" x="341.376" y="168.114">102</tspan><tspan fill="#000000" font-family="Monaco,Monaco_MSFontService,sans-serif" font-size="15" x="367.885" y="168.114">,</tspan><tspan fill="#0451A5" font-family="Monaco,Monaco_MSFontService,sans-serif" font-size="15" x="288.358" y="186.126">"name"</tspan><tspan fill="#000000" font-family="Monaco,Monaco_MSFontService,sans-serif" font-size="15" x="341.376" y="186.126">:</tspan><tspan fill="#A31515" font-family="Monaco,Monaco_MSFontService,sans-serif" font-size="15" x="359.048" y="186.126">"</tspan><tspan fill="#A31515" font-size="15" x="367.885" y="186.126">李四</tspan><tspan fill="#A31515" font-family="Monaco,Monaco_MSFontService,sans-serif" font-size="15" x="397.228" y="186.126">"</tspan><tspan fill="#000000" font-family="Monaco,Monaco_MSFontService,sans-serif" font-size="15" x="406.064" y="186.126">,</tspan><tspan fill="#0451A5" font-family="Monaco,Monaco_MSFontService,sans-serif" font-size="15" x="288.358" y="203.138">"age"</tspan><tspan fill="#000000" font-family="Monaco,Monaco_MSFontService,sans-serif" font-size="15" x="332.539" y="203.138">:</tspan><tspan fill="#098658" font-family="Monaco,Monaco_MSFontService,sans-serif" font-size="15" x="350.212" y="203.138">24</tspan><tspan fill="#000000" font-family="Monaco,Monaco_MSFontService,sans-serif" font-size="15" x="253.012" y="221.15">}</tspan><tspan fill="#000000" font-family="Monaco,Monaco_MSFontService,sans-serif" font-size="15" x="563.46" y="56.038">{</tspan><tspan fill="#0451A5" font-family="Monaco,Monaco_MSFontService,sans-serif" font-size="15" x="598.806" y="74.0503">"id"</tspan><tspan fill="#000000" font-family="Monaco,Monaco_MSFontService,sans-serif" font-size="15" x="634.151" y="74.0503">:</tspan><tspan fill="#098658" font-family="Monaco,Monaco_MSFontService,sans-serif" font-size="15" x="651.824" y="74.0503">10</tspan><tspan fill="#000000" font-family="Monaco,Monaco_MSFontService,sans-serif" font-size="15" x="669.496" y="74.0503">,</tspan><tspan fill="#0451A5" font-family="Monaco,Monaco_MSFontService,sans-serif" font-size="15" x="598.806" y="91.0618">"userId"</tspan><tspan fill="#000000" font-family="Monaco,Monaco_MSFontService,sans-serif" font-size="15" x="669.496" y="91.0618">:</tspan><tspan fill="#A31515" font-family="Monaco,Monaco_MSFontService,sans-serif" font-size="15" x="687.169" y="91.0618">101</tspan><tspan fill="#000000" font-family="Monaco,Monaco_MSFontService,sans-serif" font-size="15" x="713.678" y="91.0618">,</tspan><tspan fill="#0451A5" font-family="Monaco,Monaco_MSFontService,sans-serif" font-size="15" x="598.806" y="109.074">"goodsId"</tspan><tspan fill="#000000" font-family="Monaco,Monaco_MSFontService,sans-serif" font-size="15" x="678.333" y="109.074">:</tspan><tspan fill="#A31515" font-family="Monaco,Monaco_MSFontService,sans-serif" font-size="15" x="696.005" y="109.074">1</tspan><tspan fill="#000000" font-family="Monaco,Monaco_MSFontService,sans-serif" font-size="15" x="704.842" y="109.074">,</tspan><tspan fill="#0451A5" font-family="Monaco,Monaco_MSFontService,sans-serif" font-size="15" x="598.806" y="127.086">"totalFee"</tspan><tspan fill="#000000" font-family="Monaco,Monaco_MSFontService,sans-serif" font-size="15" x="687.169" y="127.086">:</tspan><tspan fill="#098658" font-family="Monaco,Monaco_MSFontService,sans-serif" font-size="15" x="704.842" y="127.086">294</tspan><tspan fill="#000000" font-family="Monaco,Monaco_MSFontService,sans-serif" font-size="15" x="563.46" y="144.098">}</tspan><tspan fill="#000000" font-family="Monaco,Monaco_MSFontService,sans-serif" font-size="15" x="-71.6184" y="261.177">{</tspan><tspan fill="#0451A5" font-family="Monaco,Monaco_MSFontService,sans-serif" font-size="15" x="-36.273" y="279.189">"id"</tspan><tspan fill="#000000" font-family="Monaco,Monaco_MSFontService,sans-serif" font-size="15" x="-0.927658" y="279.189">:</tspan><tspan fill="#098658" font-family="Monaco,Monaco_MSFontService,sans-serif" font-size="15" x="16.745" y="279.189">3</tspan><tspan fill="#000000" font-family="Monaco,Monaco_MSFontService,sans-serif" font-size="15" x="25.5814" y="279.189">,</tspan><tspan fill="#0451A5" font-family="Monaco,Monaco_MSFontService,sans-serif" font-size="15" x="-36.273" y="297.202">"title"</tspan><tspan fill="#000000" font-family="Monaco,Monaco_MSFontService,sans-serif" font-size="15" x="25.5814" y="297.202">:</tspan><tspan fill="#A31515" font-family="Monaco,Monaco_MSFontService,sans-serif" font-size="15" x="43.2541" y="297.202">"</tspan><tspan fill="#A31515" font-size="15" x="52.0904" y="297.202">三星手机</tspan><tspan fill="#A31515" font-family="Monaco,Monaco_MSFontService,sans-serif" font-size="15" x="110.777" y="297.202">"</tspan><tspan fill="#000000" font-family="Monaco,Monaco_MSFontService,sans-serif" font-size="15" x="119.613" y="297.202">,</tspan><tspan fill="#0451A5" font-family="Monaco,Monaco_MSFontService,sans-serif" font-size="15" x="-36.273" y="314.213">"price"</tspan><tspan fill="#000000" font-family="Monaco,Monaco_MSFontService,sans-serif" font-size="15" x="25.5814" y="314.213">:</tspan><tspan fill="#098658" font-family="Monaco,Monaco_MSFontService,sans-serif" font-size="15" x="43.2541" y="314.213">3999</tspan><tspan fill="#000000" font-family="Monaco,Monaco_MSFontService,sans-serif" font-size="15" x="-71.6184" y="332.225">}</tspan><tspan fill="#000000" font-family="Monaco,Monaco_MSFontService,sans-serif" font-size="15" x="253.012" y="265.18">{</tspan><tspan fill="#0451A5" font-family="Monaco,Monaco_MSFontService,sans-serif" font-size="15" x="288.358" y="283.192">"id"</tspan><tspan fill="#000000" font-family="Monaco,Monaco_MSFontService,sans-serif" font-size="15" x="323.703" y="283.192">:</tspan><tspan fill="#098658" font-family="Monaco,Monaco_MSFontService,sans-serif" font-size="15" x="341.376" y="283.192">103</tspan><tspan fill="#000000" font-family="Monaco,Monaco_MSFontService,sans-serif" font-size="15" x="367.885" y="283.192">,</tspan><tspan fill="#0451A5" font-family="Monaco,Monaco_MSFontService,sans-serif" font-size="15" x="288.358" y="301.204">"name"</tspan><tspan fill="#000000" font-family="Monaco,Monaco_MSFontService,sans-serif" font-size="15" x="341.376" y="301.204">:</tspan><tspan fill="#A31515" font-family="Monaco,Monaco_MSFontService,sans-serif" font-size="15" x="359.048" y="301.204">"</tspan><tspan fill="#A31515" font-size="15" x="367.885" y="301.204">麻子</tspan><tspan fill="#A31515" font-family="Monaco,Monaco_MSFontService,sans-serif" font-size="15" x="397.228" y="301.204">"</tspan><tspan fill="#000000" font-family="Monaco,Monaco_MSFontService,sans-serif" font-size="15" x="406.064" y="301.204">,</tspan><tspan fill="#0451A5" font-family="Monaco,Monaco_MSFontService,sans-serif" font-size="15" x="288.358" y="318.216">"age"</tspan><tspan fill="#000000" font-family="Monaco,Monaco_MSFontService,sans-serif" font-size="15" x="332.539" y="318.216">:</tspan><tspan fill="#098658" font-family="Monaco,Monaco_MSFontService,sans-serif" font-size="15" x="350.212" y="318.216">18</tspan><tspan fill="#000000" font-family="Monaco,Monaco_MSFontService,sans-serif" font-size="15" x="253.012" y="336.228">}</tspan></text></g></svg>